<?xml version="1.0" encoding="utf-8"?>
<svg xmlns="http://www.w3.org/2000/svg" xmlns:xlink="http://www.w3.org/1999/xlink" width="1200" height="400" viewBox="0 0 4800 1600">
<defs>
  <clipPath id="clip180">
    <rect x="0" y="0" width="4800" height="1600"/>
  </clipPath>
</defs>
<path clip-path="url(#clip180)" d="
M0 1600 L4800 1600 L4800 0 L0 0  Z
  " fill="#ffffff" fill-rule="evenodd" fill-opacity="1"/>
<defs>
  <clipPath id="clip181">
    <rect x="960" y="0" width="3361" height="1600"/>
  </clipPath>
</defs>
<path clip-path="url(#clip180)" d="
M327.519 1401.23 L4689.76 1401.23 L4689.76 110.236 L327.519 110.236  Z
  " fill="#ffffff" fill-rule="evenodd" fill-opacity="1"/>
<defs>
  <clipPath id="clip182">
    <rect x="327" y="110" width="4363" height="1292"/>
  </clipPath>
</defs>
<polyline clip-path="url(#clip182)" style="stroke:#000000; stroke-linecap:round; stroke-linejoin:round; stroke-width:2; stroke-opacity:0.1; fill:none" points="
  632.701,1401.23 632.701,110.236 
  "/>
<polyline clip-path="url(#clip182)" style="stroke:#000000; stroke-linecap:round; stroke-linejoin:round; stroke-width:2; stroke-opacity:0.1; fill:none" points="
  1285.2,1401.23 1285.2,110.236 
  "/>
<polyline clip-path="url(#clip182)" style="stroke:#000000; stroke-linecap:round; stroke-linejoin:round; stroke-width:2; stroke-opacity:0.1; fill:none" points="
  1937.7,1401.23 1937.7,110.236 
  "/>
<polyline clip-path="url(#clip182)" style="stroke:#000000; stroke-linecap:round; stroke-linejoin:round; stroke-width:2; stroke-opacity:0.1; fill:none" points="
  2590.2,1401.23 2590.2,110.236 
  "/>
<polyline clip-path="url(#clip182)" style="stroke:#000000; stroke-linecap:round; stroke-linejoin:round; stroke-width:2; stroke-opacity:0.1; fill:none" points="
  3242.71,1401.23 3242.71,110.236 
  "/>
<polyline clip-path="url(#clip182)" style="stroke:#000000; stroke-linecap:round; stroke-linejoin:round; stroke-width:2; stroke-opacity:0.1; fill:none" points="
  3895.21,1401.23 3895.21,110.236 
  "/>
<polyline clip-path="url(#clip180)" style="stroke:#000000; stroke-linecap:round; stroke-linejoin:round; stroke-width:4; stroke-opacity:1; fill:none" points="
  327.519,1401.23 4689.76,1401.23 
  "/>
<polyline clip-path="url(#clip180)" style="stroke:#000000; stroke-linecap:round; stroke-linejoin:round; stroke-width:4; stroke-opacity:1; fill:none" points="
  632.701,1401.23 632.701,1382.33 
  "/>
<polyline clip-path="url(#clip180)" style="stroke:#000000; stroke-linecap:round; stroke-linejoin:round; stroke-width:4; stroke-opacity:1; fill:none" points="
  1285.2,1401.23 1285.2,1382.33 
  "/>
<polyline clip-path="url(#clip180)" style="stroke:#000000; stroke-linecap:round; stroke-linejoin:round; stroke-width:4; stroke-opacity:1; fill:none" points="
  1937.7,1401.23 1937.7,1382.33 
  "/>
<polyline clip-path="url(#clip180)" style="stroke:#000000; stroke-linecap:round; stroke-linejoin:round; stroke-width:4; stroke-opacity:1; fill:none" points="
  2590.2,1401.23 2590.2,1382.33 
  "/>
<polyline clip-path="url(#clip180)" style="stroke:#000000; stroke-linecap:round; stroke-linejoin:round; stroke-width:4; stroke-opacity:1; fill:none" points="
  3242.71,1401.23 3242.71,1382.33 
  "/>
<polyline clip-path="url(#clip180)" style="stroke:#000000; stroke-linecap:round; stroke-linejoin:round; stroke-width:4; stroke-opacity:1; fill:none" points="
  3895.21,1401.23 3895.21,1382.33 
  "/>
<path clip-path="url(#clip180)" d="M541.324 1451.35 Q537.713 1451.35 535.884 1454.91 Q534.079 1458.45 534.079 1465.58 Q534.079 1472.69 535.884 1476.25 Q537.713 1479.8 541.324 1479.8 Q544.958 1479.8 546.764 1476.25 Q548.592 1472.69 548.592 1465.58 Q548.592 1458.45 546.764 1454.91 Q544.958 1451.35 541.324 1451.35 M541.324 1447.64 Q547.134 1447.64 550.19 1452.25 Q553.268 1456.83 553.268 1465.58 Q553.268 1474.31 550.19 1478.92 Q547.134 1483.5 541.324 1483.5 Q535.514 1483.5 532.435 1478.92 Q529.38 1474.31 529.38 1465.58 Q529.38 1456.83 532.435 1452.25 Q535.514 1447.64 541.324 1447.64 Z" fill="#000000" fill-rule="evenodd" fill-opacity="1" /><path clip-path="url(#clip180)" d="M571.486 1451.35 Q567.875 1451.35 566.046 1454.91 Q564.24 1458.45 564.24 1465.58 Q564.24 1472.69 566.046 1476.25 Q567.875 1479.8 571.486 1479.8 Q575.12 1479.8 576.926 1476.25 Q578.754 1472.69 578.754 1465.58 Q578.754 1458.45 576.926 1454.91 Q575.12 1451.35 571.486 1451.35 M571.486 1447.64 Q577.296 1447.64 580.352 1452.25 Q583.43 1456.83 583.43 1465.58 Q583.43 1474.31 580.352 1478.92 Q577.296 1483.5 571.486 1483.5 Q565.676 1483.5 562.597 1478.92 Q559.541 1474.31 559.541 1465.58 Q559.541 1456.83 562.597 1452.25 Q565.676 1447.64 571.486 1447.64 Z" fill="#000000" fill-rule="evenodd" fill-opacity="1" /><path clip-path="url(#clip180)" d="M592.134 1476.95 L597.018 1476.95 L597.018 1482.83 L592.134 1482.83 L592.134 1476.95 M592.134 1458.31 L597.018 1458.31 L597.018 1464.19 L592.134 1464.19 L592.134 1458.31 Z" fill="#000000" fill-rule="evenodd" fill-opacity="1" /><path clip-path="url(#clip180)" d="M617.62 1451.35 Q614.009 1451.35 612.18 1454.91 Q610.375 1458.45 610.375 1465.58 Q610.375 1472.69 612.18 1476.25 Q614.009 1479.8 617.62 1479.8 Q621.254 1479.8 623.06 1476.25 Q624.888 1472.69 624.888 1465.58 Q624.888 1458.45 623.06 1454.91 Q621.254 1451.35 617.62 1451.35 M617.62 1447.64 Q623.43 1447.64 626.486 1452.25 Q629.564 1456.83 629.564 1465.58 Q629.564 1474.31 626.486 1478.92 Q623.43 1483.5 617.62 1483.5 Q611.81 1483.5 608.731 1478.92 Q605.675 1474.31 605.675 1465.58 Q605.675 1456.83 608.731 1452.25 Q611.81 1447.64 617.62 1447.64 Z" fill="#000000" fill-rule="evenodd" fill-opacity="1" /><path clip-path="url(#clip180)" d="M647.782 1451.35 Q644.171 1451.35 642.342 1454.91 Q640.536 1458.45 640.536 1465.58 Q640.536 1472.69 642.342 1476.25 Q644.171 1479.8 647.782 1479.8 Q651.416 1479.8 653.221 1476.25 Q655.05 1472.69 655.05 1465.58 Q655.05 1458.45 653.221 1454.91 Q651.416 1451.35 647.782 1451.35 M647.782 1447.64 Q653.592 1447.64 656.647 1452.25 Q659.726 1456.83 659.726 1465.58 Q659.726 1474.31 656.647 1478.92 Q653.592 1483.5 647.782 1483.5 Q641.972 1483.5 638.893 1478.92 Q635.837 1474.31 635.837 1465.58 Q635.837 1456.83 638.893 1452.25 Q641.972 1447.64 647.782 1447.64 Z" fill="#000000" fill-rule="evenodd" fill-opacity="1" /><path clip-path="url(#clip180)" d="M668.43 1476.95 L673.314 1476.95 L673.314 1482.83 L668.43 1482.83 L668.43 1476.95 M668.43 1458.31 L673.314 1458.31 L673.314 1464.19 L668.43 1464.19 L668.43 1458.31 Z" fill="#000000" fill-rule="evenodd" fill-opacity="1" /><path clip-path="url(#clip180)" d="M693.916 1451.35 Q690.305 1451.35 688.476 1454.91 Q686.67 1458.45 686.67 1465.58 Q686.67 1472.69 688.476 1476.25 Q690.305 1479.8 693.916 1479.8 Q697.55 1479.8 699.356 1476.25 Q701.184 1472.69 701.184 1465.58 Q701.184 1458.45 699.356 1454.91 Q697.55 1451.35 693.916 1451.35 M693.916 1447.64 Q699.726 1447.64 702.781 1452.25 Q705.86 1456.83 705.86 1465.58 Q705.86 1474.31 702.781 1478.92 Q699.726 1483.5 693.916 1483.5 Q688.106 1483.5 685.027 1478.92 Q681.971 1474.31 681.971 1465.58 Q681.971 1456.83 685.027 1452.25 Q688.106 1447.64 693.916 1447.64 Z" fill="#000000" fill-rule="evenodd" fill-opacity="1" /><path clip-path="url(#clip180)" d="M724.078 1451.35 Q720.467 1451.35 718.638 1454.91 Q716.832 1458.45 716.832 1465.58 Q716.832 1472.69 718.638 1476.25 Q720.467 1479.8 724.078 1479.8 Q727.712 1479.8 729.517 1476.25 Q731.346 1472.69 731.346 1465.58 Q731.346 1458.45 729.517 1454.91 Q727.712 1451.35 724.078 1451.35 M724.078 1447.64 Q729.888 1447.64 732.943 1452.25 Q736.022 1456.83 736.022 1465.58 Q736.022 1474.31 732.943 1478.92 Q729.888 1483.5 724.078 1483.5 Q718.267 1483.5 715.189 1478.92 Q712.133 1474.31 712.133 1465.58 Q712.133 1456.83 715.189 1452.25 Q718.267 1447.64 724.078 1447.64 Z" fill="#000000" fill-rule="evenodd" fill-opacity="1" /><path clip-path="url(#clip180)" d="M1193.83 1451.35 Q1190.21 1451.35 1188.39 1454.91 Q1186.58 1458.45 1186.58 1465.58 Q1186.58 1472.69 1188.39 1476.25 Q1190.21 1479.8 1193.83 1479.8 Q1197.46 1479.8 1199.26 1476.25 Q1201.09 1472.69 1201.09 1465.58 Q1201.09 1458.45 1199.26 1454.91 Q1197.46 1451.35 1193.83 1451.35 M1193.83 1447.64 Q1199.64 1447.64 1202.69 1452.25 Q1205.77 1456.83 1205.77 1465.58 Q1205.77 1474.31 1202.69 1478.92 Q1199.64 1483.5 1193.83 1483.5 Q1188.01 1483.5 1184.94 1478.92 Q1181.88 1474.31 1181.88 1465.58 Q1181.88 1456.83 1184.94 1452.25 Q1188.01 1447.64 1193.83 1447.64 Z" fill="#000000" fill-rule="evenodd" fill-opacity="1" /><path clip-path="url(#clip180)" d="M1226.83 1452.34 L1215.03 1470.79 L1226.83 1470.79 L1226.83 1452.34 M1225.61 1448.27 L1231.49 1448.27 L1231.49 1470.79 L1236.42 1470.79 L1236.42 1474.68 L1231.49 1474.68 L1231.49 1482.83 L1226.83 1482.83 L1226.83 1474.68 L1211.23 1474.68 L1211.23 1470.17 L1225.61 1448.27 Z" fill="#000000" fill-rule="evenodd" fill-opacity="1" /><path clip-path="url(#clip180)" d="M1244.64 1476.95 L1249.52 1476.95 L1249.52 1482.83 L1244.64 1482.83 L1244.64 1476.95 M1244.64 1458.31 L1249.52 1458.31 L1249.52 1464.19 L1244.64 1464.19 L1244.64 1458.31 Z" fill="#000000" fill-rule="evenodd" fill-opacity="1" /><path clip-path="url(#clip180)" d="M1270.12 1451.35 Q1266.51 1451.35 1264.68 1454.91 Q1262.88 1458.45 1262.88 1465.58 Q1262.88 1472.69 1264.68 1476.25 Q1266.51 1479.8 1270.12 1479.8 Q1273.76 1479.8 1275.56 1476.25 Q1277.39 1472.69 1277.39 1465.58 Q1277.39 1458.45 1275.56 1454.91 Q1273.76 1451.35 1270.12 1451.35 M1270.12 1447.64 Q1275.93 1447.64 1278.99 1452.25 Q1282.07 1456.83 1282.07 1465.58 Q1282.07 1474.31 1278.99 1478.92 Q1275.93 1483.5 1270.12 1483.5 Q1264.31 1483.5 1261.23 1478.92 Q1258.18 1474.31 1258.18 1465.58 Q1258.18 1456.83 1261.23 1452.25 Q1264.31 1447.64 1270.12 1447.64 Z" fill="#000000" fill-rule="evenodd" fill-opacity="1" /><path clip-path="url(#clip180)" d="M1300.28 1451.35 Q1296.67 1451.35 1294.84 1454.91 Q1293.04 1458.45 1293.04 1465.58 Q1293.04 1472.69 1294.84 1476.25 Q1296.67 1479.8 1300.28 1479.8 Q1303.92 1479.8 1305.72 1476.25 Q1307.55 1472.69 1307.55 1465.58 Q1307.55 1458.45 1305.72 1454.91 Q1303.92 1451.35 1300.28 1451.35 M1300.28 1447.64 Q1306.09 1447.64 1309.15 1452.25 Q1312.23 1456.83 1312.23 1465.58 Q1312.23 1474.31 1309.15 1478.92 Q1306.09 1483.5 1300.28 1483.5 Q1294.47 1483.5 1291.39 1478.92 Q1288.34 1474.31 1288.34 1465.58 Q1288.34 1456.83 1291.39 1452.25 Q1294.47 1447.64 1300.28 1447.64 Z" fill="#000000" fill-rule="evenodd" fill-opacity="1" /><path clip-path="url(#clip180)" d="M1320.93 1476.95 L1325.82 1476.95 L1325.82 1482.83 L1320.93 1482.83 L1320.93 1476.95 M1320.93 1458.31 L1325.82 1458.31 L1325.82 1464.19 L1320.93 1464.19 L1320.93 1458.31 Z" fill="#000000" fill-rule="evenodd" fill-opacity="1" /><path clip-path="url(#clip180)" d="M1346.42 1451.35 Q1342.81 1451.35 1340.98 1454.91 Q1339.17 1458.45 1339.17 1465.58 Q1339.17 1472.69 1340.98 1476.25 Q1342.81 1479.8 1346.42 1479.8 Q1350.05 1479.8 1351.86 1476.25 Q1353.69 1472.69 1353.69 1465.58 Q1353.69 1458.45 1351.86 1454.91 Q1350.05 1451.35 1346.42 1451.35 M1346.42 1447.64 Q1352.23 1447.64 1355.28 1452.25 Q1358.36 1456.83 1358.36 1465.58 Q1358.36 1474.31 1355.28 1478.92 Q1352.23 1483.5 1346.42 1483.5 Q1340.61 1483.5 1337.53 1478.92 Q1334.47 1474.31 1334.47 1465.58 Q1334.47 1456.83 1337.53 1452.25 Q1340.61 1447.64 1346.42 1447.64 Z" fill="#000000" fill-rule="evenodd" fill-opacity="1" /><path clip-path="url(#clip180)" d="M1376.58 1451.35 Q1372.97 1451.35 1371.14 1454.91 Q1369.33 1458.45 1369.33 1465.58 Q1369.33 1472.69 1371.14 1476.25 Q1372.97 1479.8 1376.58 1479.8 Q1380.21 1479.8 1382.02 1476.25 Q1383.85 1472.69 1383.85 1465.58 Q1383.85 1458.45 1382.02 1454.91 Q1380.21 1451.35 1376.58 1451.35 M1376.58 1447.64 Q1382.39 1447.64 1385.44 1452.25 Q1388.52 1456.83 1388.52 1465.58 Q1388.52 1474.31 1385.44 1478.92 Q1382.39 1483.5 1376.58 1483.5 Q1370.77 1483.5 1367.69 1478.92 Q1364.63 1474.31 1364.63 1465.58 Q1364.63 1456.83 1367.69 1452.25 Q1370.77 1447.64 1376.58 1447.64 Z" fill="#000000" fill-rule="evenodd" fill-opacity="1" /><path clip-path="url(#clip180)" d="M1846.33 1451.35 Q1842.72 1451.35 1840.89 1454.91 Q1839.08 1458.45 1839.08 1465.58 Q1839.08 1472.69 1840.89 1476.25 Q1842.72 1479.8 1846.33 1479.8 Q1849.96 1479.8 1851.77 1476.25 Q1853.59 1472.69 1853.59 1465.58 Q1853.59 1458.45 1851.77 1454.91 Q1849.96 1451.35 1846.33 1451.35 M1846.33 1447.64 Q1852.14 1447.64 1855.19 1452.25 Q1858.27 1456.83 1858.27 1465.58 Q1858.27 1474.31 1855.19 1478.92 Q1852.14 1483.5 1846.33 1483.5 Q1840.52 1483.5 1837.44 1478.92 Q1834.38 1474.31 1834.38 1465.58 Q1834.38 1456.83 1837.44 1452.25 Q1840.52 1447.64 1846.33 1447.64 Z" fill="#000000" fill-rule="evenodd" fill-opacity="1" /><path clip-path="url(#clip180)" d="M1876.49 1466.42 Q1873.15 1466.42 1871.23 1468.2 Q1869.34 1469.98 1869.34 1473.11 Q1869.34 1476.23 1871.23 1478.01 Q1873.15 1479.8 1876.49 1479.8 Q1879.82 1479.8 1881.74 1478.01 Q1883.66 1476.21 1883.66 1473.11 Q1883.66 1469.98 1881.74 1468.2 Q1879.84 1466.42 1876.49 1466.42 M1871.81 1464.43 Q1868.8 1463.68 1867.11 1461.62 Q1865.45 1459.56 1865.45 1456.6 Q1865.45 1452.46 1868.39 1450.05 Q1871.35 1447.64 1876.49 1447.64 Q1881.65 1447.64 1884.59 1450.05 Q1887.53 1452.46 1887.53 1456.6 Q1887.53 1459.56 1885.84 1461.62 Q1884.17 1463.68 1881.19 1464.43 Q1884.57 1465.21 1886.44 1467.5 Q1888.34 1469.8 1888.34 1473.11 Q1888.34 1478.13 1885.26 1480.81 Q1882.21 1483.5 1876.49 1483.5 Q1870.77 1483.5 1867.69 1480.81 Q1864.64 1478.13 1864.64 1473.11 Q1864.64 1469.8 1866.53 1467.5 Q1868.43 1465.21 1871.81 1464.43 M1870.1 1457.04 Q1870.1 1459.73 1871.77 1461.23 Q1873.46 1462.74 1876.49 1462.74 Q1879.5 1462.74 1881.19 1461.23 Q1882.9 1459.73 1882.9 1457.04 Q1882.9 1454.36 1881.19 1452.85 Q1879.5 1451.35 1876.49 1451.35 Q1873.46 1451.35 1871.77 1452.85 Q1870.1 1454.36 1870.1 1457.04 Z" fill="#000000" fill-rule="evenodd" fill-opacity="1" /><path clip-path="url(#clip180)" d="M1897.14 1476.95 L1902.02 1476.95 L1902.02 1482.83 L1897.14 1482.83 L1897.14 1476.95 M1897.14 1458.31 L1902.02 1458.31 L1902.02 1464.19 L1897.14 1464.19 L1897.14 1458.31 Z" fill="#000000" fill-rule="evenodd" fill-opacity="1" /><path clip-path="url(#clip180)" d="M1922.62 1451.35 Q1919.01 1451.35 1917.18 1454.91 Q1915.38 1458.45 1915.38 1465.58 Q1915.38 1472.69 1917.18 1476.25 Q1919.01 1479.8 1922.62 1479.8 Q1926.26 1479.8 1928.06 1476.25 Q1929.89 1472.69 1929.89 1465.58 Q1929.89 1458.45 1928.06 1454.91 Q1926.26 1451.35 1922.62 1451.35 M1922.62 1447.64 Q1928.43 1447.64 1931.49 1452.25 Q1934.57 1456.83 1934.57 1465.58 Q1934.57 1474.31 1931.49 1478.92 Q1928.43 1483.5 1922.62 1483.5 Q1916.81 1483.5 1913.73 1478.92 Q1910.68 1474.31 1910.68 1465.58 Q1910.68 1456.83 1913.73 1452.25 Q1916.81 1447.64 1922.62 1447.64 Z" fill="#000000" fill-rule="evenodd" fill-opacity="1" /><path clip-path="url(#clip180)" d="M1952.78 1451.35 Q1949.17 1451.35 1947.34 1454.91 Q1945.54 1458.45 1945.54 1465.58 Q1945.54 1472.69 1947.34 1476.25 Q1949.17 1479.8 1952.78 1479.8 Q1956.42 1479.8 1958.22 1476.25 Q1960.05 1472.69 1960.05 1465.58 Q1960.05 1458.45 1958.22 1454.91 Q1956.42 1451.35 1952.78 1451.35 M1952.78 1447.64 Q1958.59 1447.64 1961.65 1452.25 Q1964.73 1456.83 1964.73 1465.58 Q1964.73 1474.31 1961.65 1478.92 Q1958.59 1483.5 1952.78 1483.5 Q1946.97 1483.5 1943.9 1478.92 Q1940.84 1474.31 1940.84 1465.58 Q1940.84 1456.83 1943.9 1452.25 Q1946.97 1447.64 1952.78 1447.64 Z" fill="#000000" fill-rule="evenodd" fill-opacity="1" /><path clip-path="url(#clip180)" d="M1973.43 1476.95 L1978.32 1476.95 L1978.32 1482.83 L1973.43 1482.83 L1973.43 1476.95 M1973.43 1458.31 L1978.32 1458.31 L1978.32 1464.19 L1973.43 1464.19 L1973.43 1458.31 Z" fill="#000000" fill-rule="evenodd" fill-opacity="1" /><path clip-path="url(#clip180)" d="M1998.92 1451.35 Q1995.31 1451.35 1993.48 1454.91 Q1991.67 1458.45 1991.67 1465.58 Q1991.67 1472.69 1993.48 1476.25 Q1995.31 1479.8 1998.92 1479.8 Q2002.55 1479.8 2004.36 1476.25 Q2006.19 1472.69 2006.19 1465.58 Q2006.19 1458.45 2004.36 1454.91 Q2002.55 1451.35 1998.92 1451.35 M1998.92 1447.64 Q2004.73 1447.64 2007.78 1452.25 Q2010.86 1456.83 2010.86 1465.58 Q2010.86 1474.31 2007.78 1478.92 Q2004.73 1483.5 1998.92 1483.5 Q1993.11 1483.5 1990.03 1478.92 Q1986.97 1474.31 1986.97 1465.58 Q1986.97 1456.83 1990.03 1452.25 Q1993.11 1447.64 1998.92 1447.64 Z" fill="#000000" fill-rule="evenodd" fill-opacity="1" /><path clip-path="url(#clip180)" d="M2029.08 1451.35 Q2025.47 1451.35 2023.64 1454.91 Q2021.83 1458.45 2021.83 1465.58 Q2021.83 1472.69 2023.64 1476.25 Q2025.47 1479.8 2029.08 1479.8 Q2032.71 1479.8 2034.52 1476.25 Q2036.35 1472.69 2036.35 1465.58 Q2036.35 1458.45 2034.52 1454.91 Q2032.71 1451.35 2029.08 1451.35 M2029.08 1447.64 Q2034.89 1447.64 2037.95 1452.25 Q2041.02 1456.83 2041.02 1465.58 Q2041.02 1474.31 2037.95 1478.92 Q2034.89 1483.5 2029.08 1483.5 Q2023.27 1483.5 2020.19 1478.92 Q2017.14 1474.31 2017.14 1465.58 Q2017.14 1456.83 2020.19 1452.25 Q2023.27 1447.64 2029.08 1447.64 Z" fill="#000000" fill-rule="evenodd" fill-opacity="1" /><path clip-path="url(#clip180)" d="M2488.6 1478.89 L2496.23 1478.89 L2496.23 1452.53 L2487.92 1454.19 L2487.92 1449.93 L2496.19 1448.27 L2500.86 1448.27 L2500.86 1478.89 L2508.5 1478.89 L2508.5 1482.83 L2488.6 1482.83 L2488.6 1478.89 Z" fill="#000000" fill-rule="evenodd" fill-opacity="1" /><path clip-path="url(#clip180)" d="M2521.98 1478.89 L2538.29 1478.89 L2538.29 1482.83 L2516.35 1482.83 L2516.35 1478.89 Q2519.01 1476.14 2523.6 1471.51 Q2528.2 1466.86 2529.38 1465.51 Q2531.63 1462.99 2532.51 1461.25 Q2533.41 1459.49 2533.41 1457.8 Q2533.41 1455.05 2531.47 1453.31 Q2529.54 1451.58 2526.44 1451.58 Q2524.24 1451.58 2521.79 1452.34 Q2519.36 1453.11 2516.58 1454.66 L2516.58 1449.93 Q2519.41 1448.8 2521.86 1448.22 Q2524.31 1447.64 2526.35 1447.64 Q2531.72 1447.64 2534.92 1450.33 Q2538.11 1453.01 2538.11 1457.5 Q2538.11 1459.63 2537.3 1461.55 Q2536.51 1463.45 2534.41 1466.05 Q2533.83 1466.72 2530.73 1469.93 Q2527.62 1473.13 2521.98 1478.89 Z" fill="#000000" fill-rule="evenodd" fill-opacity="1" /><path clip-path="url(#clip180)" d="M2548.6 1476.95 L2553.48 1476.95 L2553.48 1482.83 L2548.6 1482.83 L2548.6 1476.95 M2548.6 1458.31 L2553.48 1458.31 L2553.48 1464.19 L2548.6 1464.19 L2548.6 1458.31 Z" fill="#000000" fill-rule="evenodd" fill-opacity="1" /><path clip-path="url(#clip180)" d="M2574.08 1451.35 Q2570.47 1451.35 2568.64 1454.91 Q2566.84 1458.45 2566.84 1465.58 Q2566.84 1472.69 2568.64 1476.25 Q2570.47 1479.8 2574.08 1479.8 Q2577.72 1479.8 2579.52 1476.25 Q2581.35 1472.69 2581.35 1465.58 Q2581.35 1458.45 2579.52 1454.91 Q2577.72 1451.35 2574.08 1451.35 M2574.08 1447.64 Q2579.89 1447.64 2582.95 1452.25 Q2586.03 1456.83 2586.03 1465.58 Q2586.03 1474.31 2582.95 1478.92 Q2579.89 1483.5 2574.08 1483.5 Q2568.27 1483.5 2565.19 1478.92 Q2562.14 1474.31 2562.14 1465.58 Q2562.14 1456.83 2565.19 1452.25 Q2568.27 1447.64 2574.08 1447.64 Z" fill="#000000" fill-rule="evenodd" fill-opacity="1" /><path clip-path="url(#clip180)" d="M2604.24 1451.35 Q2600.63 1451.35 2598.8 1454.91 Q2597 1458.45 2597 1465.58 Q2597 1472.69 2598.8 1476.25 Q2600.63 1479.8 2604.24 1479.8 Q2607.88 1479.8 2609.68 1476.25 Q2611.51 1472.69 2611.51 1465.58 Q2611.51 1458.45 2609.68 1454.91 Q2607.88 1451.35 2604.24 1451.35 M2604.24 1447.64 Q2610.05 1447.64 2613.11 1452.25 Q2616.19 1456.83 2616.19 1465.58 Q2616.19 1474.31 2613.11 1478.92 Q2610.05 1483.5 2604.24 1483.5 Q2598.43 1483.5 2595.35 1478.92 Q2592.3 1474.31 2592.3 1465.58 Q2592.3 1456.83 2595.35 1452.25 Q2598.43 1447.64 2604.24 1447.64 Z" fill="#000000" fill-rule="evenodd" fill-opacity="1" /><path clip-path="url(#clip180)" d="M2624.89 1476.95 L2629.78 1476.95 L2629.78 1482.83 L2624.89 1482.83 L2624.89 1476.95 M2624.89 1458.31 L2629.78 1458.31 L2629.78 1464.19 L2624.89 1464.19 L2624.89 1458.31 Z" fill="#000000" fill-rule="evenodd" fill-opacity="1" /><path clip-path="url(#clip180)" d="M2650.38 1451.35 Q2646.77 1451.35 2644.94 1454.91 Q2643.13 1458.45 2643.13 1465.58 Q2643.13 1472.69 2644.94 1476.25 Q2646.77 1479.8 2650.38 1479.8 Q2654.01 1479.8 2655.82 1476.25 Q2657.65 1472.69 2657.65 1465.58 Q2657.65 1458.45 2655.82 1454.91 Q2654.01 1451.35 2650.38 1451.35 M2650.38 1447.64 Q2656.19 1447.64 2659.24 1452.25 Q2662.32 1456.83 2662.32 1465.58 Q2662.32 1474.31 2659.24 1478.92 Q2656.19 1483.5 2650.38 1483.5 Q2644.57 1483.5 2641.49 1478.92 Q2638.43 1474.31 2638.43 1465.58 Q2638.43 1456.83 2641.49 1452.25 Q2644.57 1447.64 2650.38 1447.64 Z" fill="#000000" fill-rule="evenodd" fill-opacity="1" /><path clip-path="url(#clip180)" d="M2680.54 1451.35 Q2676.93 1451.35 2675.1 1454.91 Q2673.29 1458.45 2673.29 1465.58 Q2673.29 1472.69 2675.1 1476.25 Q2676.93 1479.8 2680.54 1479.8 Q2684.17 1479.8 2685.98 1476.25 Q2687.81 1472.69 2687.81 1465.58 Q2687.81 1458.45 2685.98 1454.91 Q2684.17 1451.35 2680.54 1451.35 M2680.54 1447.64 Q2686.35 1447.64 2689.41 1452.25 Q2692.48 1456.83 2692.48 1465.58 Q2692.48 1474.31 2689.41 1478.92 Q2686.35 1483.5 2680.54 1483.5 Q2674.73 1483.5 2671.65 1478.92 Q2668.6 1474.31 2668.6 1465.58 Q2668.6 1456.83 2671.65 1452.25 Q2674.73 1447.64 2680.54 1447.64 Z" fill="#000000" fill-rule="evenodd" fill-opacity="1" /><path clip-path="url(#clip180)" d="M3141.1 1478.89 L3148.74 1478.89 L3148.74 1452.53 L3140.43 1454.19 L3140.43 1449.93 L3148.69 1448.27 L3153.37 1448.27 L3153.37 1478.89 L3161 1478.89 L3161 1482.83 L3141.1 1482.83 L3141.1 1478.89 Z" fill="#000000" fill-rule="evenodd" fill-opacity="1" /><path clip-path="url(#clip180)" d="M3181.03 1463.68 Q3177.88 1463.68 3176.03 1465.84 Q3174.2 1467.99 3174.2 1471.74 Q3174.2 1475.47 3176.03 1477.64 Q3177.88 1479.8 3181.03 1479.8 Q3184.18 1479.8 3186 1477.64 Q3187.86 1475.47 3187.86 1471.74 Q3187.86 1467.99 3186 1465.84 Q3184.18 1463.68 3181.03 1463.68 M3190.31 1449.03 L3190.31 1453.29 Q3188.55 1452.46 3186.75 1452.02 Q3184.96 1451.58 3183.2 1451.58 Q3178.57 1451.58 3176.12 1454.7 Q3173.69 1457.83 3173.34 1464.15 Q3174.71 1462.13 3176.77 1461.07 Q3178.83 1459.98 3181.31 1459.98 Q3186.51 1459.98 3189.52 1463.15 Q3192.56 1466.3 3192.56 1471.74 Q3192.56 1477.06 3189.41 1480.28 Q3186.26 1483.5 3181.03 1483.5 Q3175.03 1483.5 3171.86 1478.92 Q3168.69 1474.31 3168.69 1465.58 Q3168.69 1457.39 3172.58 1452.53 Q3176.47 1447.64 3183.02 1447.64 Q3184.78 1447.64 3186.56 1447.99 Q3188.37 1448.34 3190.31 1449.03 Z" fill="#000000" fill-rule="evenodd" fill-opacity="1" /><path clip-path="url(#clip180)" d="M3201.1 1476.95 L3205.98 1476.95 L3205.98 1482.83 L3201.1 1482.83 L3201.1 1476.95 M3201.1 1458.31 L3205.98 1458.31 L3205.98 1464.19 L3201.1 1464.19 L3201.1 1458.31 Z" fill="#000000" fill-rule="evenodd" fill-opacity="1" /><path clip-path="url(#clip180)" d="M3226.58 1451.35 Q3222.97 1451.35 3221.14 1454.91 Q3219.34 1458.45 3219.34 1465.58 Q3219.34 1472.69 3221.14 1476.25 Q3222.97 1479.8 3226.58 1479.8 Q3230.22 1479.8 3232.02 1476.25 Q3233.85 1472.69 3233.85 1465.58 Q3233.85 1458.45 3232.02 1454.91 Q3230.22 1451.35 3226.58 1451.35 M3226.58 1447.64 Q3232.39 1447.64 3235.45 1452.25 Q3238.53 1456.83 3238.53 1465.58 Q3238.53 1474.31 3235.45 1478.92 Q3232.39 1483.5 3226.58 1483.5 Q3220.77 1483.5 3217.69 1478.92 Q3214.64 1474.31 3214.64 1465.58 Q3214.64 1456.83 3217.69 1452.25 Q3220.77 1447.64 3226.58 1447.64 Z" fill="#000000" fill-rule="evenodd" fill-opacity="1" /><path clip-path="url(#clip180)" d="M3256.74 1451.35 Q3253.13 1451.35 3251.3 1454.91 Q3249.5 1458.45 3249.5 1465.58 Q3249.5 1472.69 3251.3 1476.25 Q3253.13 1479.8 3256.74 1479.8 Q3260.38 1479.8 3262.18 1476.25 Q3264.01 1472.69 3264.01 1465.58 Q3264.01 1458.45 3262.18 1454.91 Q3260.38 1451.35 3256.74 1451.35 M3256.74 1447.64 Q3262.55 1447.64 3265.61 1452.25 Q3268.69 1456.83 3268.69 1465.58 Q3268.69 1474.31 3265.61 1478.92 Q3262.55 1483.5 3256.74 1483.5 Q3250.93 1483.5 3247.86 1478.92 Q3244.8 1474.31 3244.8 1465.58 Q3244.8 1456.83 3247.86 1452.25 Q3250.93 1447.64 3256.74 1447.64 Z" fill="#000000" fill-rule="evenodd" fill-opacity="1" /><path clip-path="url(#clip180)" d="M3277.39 1476.95 L3282.28 1476.95 L3282.28 1482.83 L3277.39 1482.83 L3277.39 1476.95 M3277.39 1458.31 L3282.28 1458.31 L3282.28 1464.19 L3277.39 1464.19 L3277.39 1458.31 Z" fill="#000000" fill-rule="evenodd" fill-opacity="1" /><path clip-path="url(#clip180)" d="M3302.88 1451.35 Q3299.27 1451.35 3297.44 1454.91 Q3295.63 1458.45 3295.63 1465.58 Q3295.63 1472.69 3297.44 1476.25 Q3299.27 1479.8 3302.88 1479.8 Q3306.51 1479.8 3308.32 1476.25 Q3310.15 1472.69 3310.15 1465.58 Q3310.15 1458.45 3308.32 1454.91 Q3306.51 1451.35 3302.88 1451.35 M3302.88 1447.64 Q3308.69 1447.64 3311.74 1452.25 Q3314.82 1456.83 3314.82 1465.58 Q3314.82 1474.31 3311.74 1478.92 Q3308.69 1483.5 3302.88 1483.5 Q3297.07 1483.5 3293.99 1478.92 Q3290.93 1474.31 3290.93 1465.58 Q3290.93 1456.83 3293.99 1452.25 Q3297.07 1447.64 3302.88 1447.64 Z" fill="#000000" fill-rule="evenodd" fill-opacity="1" /><path clip-path="url(#clip180)" d="M3333.04 1451.35 Q3329.43 1451.35 3327.6 1454.91 Q3325.8 1458.45 3325.8 1465.58 Q3325.8 1472.69 3327.6 1476.25 Q3329.43 1479.8 3333.04 1479.8 Q3336.67 1479.8 3338.48 1476.25 Q3340.31 1472.69 3340.31 1465.58 Q3340.31 1458.45 3338.48 1454.91 Q3336.67 1451.35 3333.04 1451.35 M3333.04 1447.64 Q3338.85 1447.64 3341.91 1452.25 Q3344.98 1456.83 3344.98 1465.58 Q3344.98 1474.31 3341.91 1478.92 Q3338.85 1483.5 3333.04 1483.5 Q3327.23 1483.5 3324.15 1478.92 Q3321.1 1474.31 3321.1 1465.58 Q3321.1 1456.83 3324.15 1452.25 Q3327.23 1447.64 3333.04 1447.64 Z" fill="#000000" fill-rule="evenodd" fill-opacity="1" /><path clip-path="url(#clip180)" d="M3797.68 1478.89 L3814 1478.89 L3814 1482.83 L3792.06 1482.83 L3792.06 1478.89 Q3794.72 1476.14 3799.3 1471.51 Q3803.91 1466.86 3805.09 1465.51 Q3807.34 1462.99 3808.22 1461.25 Q3809.12 1459.49 3809.12 1457.8 Q3809.12 1455.05 3807.17 1453.31 Q3805.25 1451.58 3802.15 1451.58 Q3799.95 1451.58 3797.5 1452.34 Q3795.07 1453.11 3792.29 1454.66 L3792.29 1449.93 Q3795.11 1448.8 3797.57 1448.22 Q3800.02 1447.64 3802.06 1447.64 Q3807.43 1447.64 3810.62 1450.33 Q3813.82 1453.01 3813.82 1457.5 Q3813.82 1459.63 3813.01 1461.55 Q3812.22 1463.45 3810.11 1466.05 Q3809.54 1466.72 3806.43 1469.93 Q3803.33 1473.13 3797.68 1478.89 Z" fill="#000000" fill-rule="evenodd" fill-opacity="1" /><path clip-path="url(#clip180)" d="M3833.82 1451.35 Q3830.21 1451.35 3828.38 1454.91 Q3826.57 1458.45 3826.57 1465.58 Q3826.57 1472.69 3828.38 1476.25 Q3830.21 1479.8 3833.82 1479.8 Q3837.45 1479.8 3839.26 1476.25 Q3841.09 1472.69 3841.09 1465.58 Q3841.09 1458.45 3839.26 1454.91 Q3837.45 1451.35 3833.82 1451.35 M3833.82 1447.64 Q3839.63 1447.64 3842.68 1452.25 Q3845.76 1456.83 3845.76 1465.58 Q3845.76 1474.31 3842.68 1478.92 Q3839.63 1483.5 3833.82 1483.5 Q3828.01 1483.5 3824.93 1478.92 Q3821.87 1474.31 3821.87 1465.58 Q3821.87 1456.83 3824.93 1452.25 Q3828.01 1447.64 3833.82 1447.64 Z" fill="#000000" fill-rule="evenodd" fill-opacity="1" /><path clip-path="url(#clip180)" d="M3854.47 1476.95 L3859.35 1476.95 L3859.35 1482.83 L3854.47 1482.83 L3854.47 1476.95 M3854.47 1458.31 L3859.35 1458.31 L3859.35 1464.19 L3854.47 1464.19 L3854.47 1458.31 Z" fill="#000000" fill-rule="evenodd" fill-opacity="1" /><path clip-path="url(#clip180)" d="M3879.95 1451.35 Q3876.34 1451.35 3874.51 1454.91 Q3872.71 1458.45 3872.71 1465.58 Q3872.71 1472.69 3874.51 1476.25 Q3876.34 1479.8 3879.95 1479.8 Q3883.59 1479.8 3885.39 1476.25 Q3887.22 1472.69 3887.22 1465.58 Q3887.22 1458.45 3885.39 1454.91 Q3883.59 1451.35 3879.95 1451.35 M3879.95 1447.64 Q3885.76 1447.64 3888.82 1452.25 Q3891.9 1456.83 3891.9 1465.58 Q3891.9 1474.31 3888.82 1478.92 Q3885.76 1483.5 3879.95 1483.5 Q3874.14 1483.5 3871.06 1478.92 Q3868.01 1474.31 3868.01 1465.58 Q3868.01 1456.83 3871.06 1452.25 Q3874.14 1447.64 3879.95 1447.64 Z" fill="#000000" fill-rule="evenodd" fill-opacity="1" /><path clip-path="url(#clip180)" d="M3910.11 1451.35 Q3906.5 1451.35 3904.67 1454.91 Q3902.87 1458.45 3902.87 1465.58 Q3902.87 1472.69 3904.67 1476.25 Q3906.5 1479.8 3910.11 1479.8 Q3913.75 1479.8 3915.55 1476.25 Q3917.38 1472.69 3917.38 1465.58 Q3917.38 1458.45 3915.55 1454.91 Q3913.75 1451.35 3910.11 1451.35 M3910.11 1447.64 Q3915.92 1447.64 3918.98 1452.25 Q3922.06 1456.83 3922.06 1465.58 Q3922.06 1474.31 3918.98 1478.92 Q3915.92 1483.5 3910.11 1483.5 Q3904.3 1483.5 3901.23 1478.92 Q3898.17 1474.31 3898.17 1465.58 Q3898.17 1456.83 3901.23 1452.25 Q3904.3 1447.64 3910.11 1447.64 Z" fill="#000000" fill-rule="evenodd" fill-opacity="1" /><path clip-path="url(#clip180)" d="M3930.76 1476.95 L3935.65 1476.95 L3935.65 1482.83 L3930.76 1482.83 L3930.76 1476.95 M3930.76 1458.31 L3935.65 1458.31 L3935.65 1464.19 L3930.76 1464.19 L3930.76 1458.31 Z" fill="#000000" fill-rule="evenodd" fill-opacity="1" /><path clip-path="url(#clip180)" d="M3956.25 1451.35 Q3952.64 1451.35 3950.81 1454.91 Q3949 1458.45 3949 1465.58 Q3949 1472.69 3950.81 1476.25 Q3952.64 1479.8 3956.25 1479.8 Q3959.88 1479.8 3961.69 1476.25 Q3963.52 1472.69 3963.52 1465.58 Q3963.52 1458.45 3961.69 1454.91 Q3959.88 1451.35 3956.25 1451.35 M3956.25 1447.64 Q3962.06 1447.64 3965.11 1452.25 Q3968.19 1456.83 3968.19 1465.58 Q3968.19 1474.31 3965.11 1478.92 Q3962.06 1483.5 3956.25 1483.5 Q3950.44 1483.5 3947.36 1478.92 Q3944.3 1474.31 3944.3 1465.58 Q3944.3 1456.83 3947.36 1452.25 Q3950.44 1447.64 3956.25 1447.64 Z" fill="#000000" fill-rule="evenodd" fill-opacity="1" /><path clip-path="url(#clip180)" d="M3986.41 1451.35 Q3982.8 1451.35 3980.97 1454.91 Q3979.16 1458.45 3979.16 1465.58 Q3979.16 1472.69 3980.97 1476.25 Q3982.8 1479.8 3986.41 1479.8 Q3990.04 1479.8 3991.85 1476.25 Q3993.68 1472.69 3993.68 1465.58 Q3993.68 1458.45 3991.85 1454.91 Q3990.04 1451.35 3986.41 1451.35 M3986.41 1447.64 Q3992.22 1447.64 3995.28 1452.25 Q3998.35 1456.83 3998.35 1465.58 Q3998.35 1474.31 3995.28 1478.92 Q3992.22 1483.5 3986.41 1483.5 Q3980.6 1483.5 3977.52 1478.92 Q3974.47 1474.31 3974.47 1465.58 Q3974.47 1456.83 3977.52 1452.25 Q3980.6 1447.64 3986.41 1447.64 Z" fill="#000000" fill-rule="evenodd" fill-opacity="1" /><path clip-path="url(#clip180)" d="M2433.34 1534.57 L2439.76 1534.57 L2439.76 1554.05 L2463.13 1554.05 L2463.13 1534.57 L2469.56 1534.57 L2469.56 1582.09 L2463.13 1582.09 L2463.13 1559.46 L2439.76 1559.46 L2439.76 1582.09 L2433.34 1582.09 L2433.34 1534.57 Z" fill="#000000" fill-rule="evenodd" fill-opacity="1" /><path clip-path="url(#clip180)" d="M2495.91 1550.55 Q2491.2 1550.55 2488.46 1554.24 Q2485.73 1557.9 2485.73 1564.3 Q2485.73 1570.7 2488.43 1574.39 Q2491.17 1578.05 2495.91 1578.05 Q2500.59 1578.05 2503.33 1574.36 Q2506.06 1570.67 2506.06 1564.3 Q2506.06 1557.97 2503.33 1554.27 Q2500.59 1550.55 2495.91 1550.55 M2495.91 1545.58 Q2503.55 1545.58 2507.91 1550.55 Q2512.27 1555.51 2512.27 1564.3 Q2512.27 1573.05 2507.91 1578.05 Q2503.55 1583.01 2495.91 1583.01 Q2488.24 1583.01 2483.88 1578.05 Q2479.55 1573.05 2479.55 1564.3 Q2479.55 1555.51 2483.88 1550.55 Q2488.24 1545.58 2495.91 1545.58 Z" fill="#000000" fill-rule="evenodd" fill-opacity="1" /><path clip-path="url(#clip180)" d="M2521.37 1568.02 L2521.37 1546.44 L2527.23 1546.44 L2527.23 1567.8 Q2527.23 1572.86 2529.2 1575.41 Q2531.18 1577.92 2535.12 1577.92 Q2539.87 1577.92 2542.6 1574.9 Q2545.37 1571.87 2545.37 1566.65 L2545.37 1546.44 L2551.23 1546.44 L2551.23 1582.09 L2545.37 1582.09 L2545.37 1576.62 Q2543.24 1579.86 2540.41 1581.46 Q2537.61 1583.01 2533.88 1583.01 Q2527.74 1583.01 2524.56 1579.2 Q2521.37 1575.38 2521.37 1568.02 M2536.11 1545.58 L2536.11 1545.58 Z" fill="#000000" fill-rule="evenodd" fill-opacity="1" /><path clip-path="url(#clip180)" d="M2583.95 1551.92 Q2582.96 1551.35 2581.78 1551.09 Q2580.64 1550.8 2579.24 1550.8 Q2574.27 1550.8 2571.6 1554.05 Q2568.96 1557.27 2568.96 1563.31 L2568.96 1582.09 L2563.07 1582.09 L2563.07 1546.44 L2568.96 1546.44 L2568.96 1551.98 Q2570.8 1548.74 2573.76 1547.18 Q2576.72 1545.58 2580.96 1545.58 Q2581.56 1545.58 2582.29 1545.68 Q2583.02 1545.74 2583.92 1545.9 L2583.95 1551.92 Z" fill="#000000" fill-rule="evenodd" fill-opacity="1" /><polyline clip-path="url(#clip182)" style="stroke:#000000; stroke-linecap:round; stroke-linejoin:round; stroke-width:2; stroke-opacity:0.1; fill:none" points="
  327.519,1364.69 4689.76,1364.69 
  "/>
<polyline clip-path="url(#clip182)" style="stroke:#000000; stroke-linecap:round; stroke-linejoin:round; stroke-width:2; stroke-opacity:0.1; fill:none" points="
  327.519,1081.15 4689.76,1081.15 
  "/>
<polyline clip-path="url(#clip182)" style="stroke:#000000; stroke-linecap:round; stroke-linejoin:round; stroke-width:2; stroke-opacity:0.1; fill:none" points="
  327.519,797.613 4689.76,797.613 
  "/>
<polyline clip-path="url(#clip182)" style="stroke:#000000; stroke-linecap:round; stroke-linejoin:round; stroke-width:2; stroke-opacity:0.1; fill:none" points="
  327.519,514.074 4689.76,514.074 
  "/>
<polyline clip-path="url(#clip182)" style="stroke:#000000; stroke-linecap:round; stroke-linejoin:round; stroke-width:2; stroke-opacity:0.1; fill:none" points="
  327.519,230.536 4689.76,230.536 
  "/>
<polyline clip-path="url(#clip180)" style="stroke:#000000; stroke-linecap:round; stroke-linejoin:round; stroke-width:4; stroke-opacity:1; fill:none" points="
  327.519,1401.23 327.519,110.236 
  "/>
<polyline clip-path="url(#clip180)" style="stroke:#000000; stroke-linecap:round; stroke-linejoin:round; stroke-width:4; stroke-opacity:1; fill:none" points="
  327.519,1364.69 346.417,1364.69 
  "/>
<polyline clip-path="url(#clip180)" style="stroke:#000000; stroke-linecap:round; stroke-linejoin:round; stroke-width:4; stroke-opacity:1; fill:none" points="
  327.519,1081.15 346.417,1081.15 
  "/>
<polyline clip-path="url(#clip180)" style="stroke:#000000; stroke-linecap:round; stroke-linejoin:round; stroke-width:4; stroke-opacity:1; fill:none" points="
  327.519,797.613 346.417,797.613 
  "/>
<polyline clip-path="url(#clip180)" style="stroke:#000000; stroke-linecap:round; stroke-linejoin:round; stroke-width:4; stroke-opacity:1; fill:none" points="
  327.519,514.074 346.417,514.074 
  "/>
<polyline clip-path="url(#clip180)" style="stroke:#000000; stroke-linecap:round; stroke-linejoin:round; stroke-width:4; stroke-opacity:1; fill:none" points="
  327.519,230.536 346.417,230.536 
  "/>
<path clip-path="url(#clip180)" d="M243.575 1350.49 Q239.964 1350.49 238.135 1354.05 Q236.33 1357.6 236.33 1364.72 Q236.33 1371.83 238.135 1375.4 Q239.964 1378.94 243.575 1378.94 Q247.209 1378.94 249.015 1375.4 Q250.844 1371.83 250.844 1364.72 Q250.844 1357.6 249.015 1354.05 Q247.209 1350.49 243.575 1350.49 M243.575 1346.79 Q249.385 1346.79 252.441 1351.39 Q255.519 1355.97 255.519 1364.72 Q255.519 1373.45 252.441 1378.06 Q249.385 1382.64 243.575 1382.64 Q237.765 1382.64 234.686 1378.06 Q231.631 1373.45 231.631 1364.72 Q231.631 1355.97 234.686 1351.39 Q237.765 1346.79 243.575 1346.79 Z" fill="#000000" fill-rule="evenodd" fill-opacity="1" /><path clip-path="url(#clip180)" d="M173.298 1063.87 L191.654 1063.87 L191.654 1067.81 L177.58 1067.81 L177.58 1076.28 Q178.599 1075.93 179.617 1075.77 Q180.636 1075.58 181.654 1075.58 Q187.441 1075.58 190.821 1078.76 Q194.2 1081.93 194.2 1087.34 Q194.2 1092.92 190.728 1096.02 Q187.256 1099.1 180.937 1099.1 Q178.761 1099.1 176.492 1098.73 Q174.247 1098.36 171.839 1097.62 L171.839 1092.92 Q173.923 1094.06 176.145 1094.61 Q178.367 1095.17 180.844 1095.17 Q184.849 1095.17 187.186 1093.06 Q189.524 1090.95 189.524 1087.34 Q189.524 1083.73 187.186 1081.63 Q184.849 1079.52 180.844 1079.52 Q178.969 1079.52 177.094 1079.94 Q175.242 1080.35 173.298 1081.23 L173.298 1063.87 Z" fill="#000000" fill-rule="evenodd" fill-opacity="1" /><path clip-path="url(#clip180)" d="M213.413 1066.95 Q209.802 1066.95 207.973 1070.52 Q206.168 1074.06 206.168 1081.19 Q206.168 1088.29 207.973 1091.86 Q209.802 1095.4 213.413 1095.4 Q217.047 1095.4 218.853 1091.86 Q220.682 1088.29 220.682 1081.19 Q220.682 1074.06 218.853 1070.52 Q217.047 1066.95 213.413 1066.95 M213.413 1063.25 Q219.223 1063.25 222.279 1067.85 Q225.358 1072.44 225.358 1081.19 Q225.358 1089.91 222.279 1094.52 Q219.223 1099.1 213.413 1099.1 Q207.603 1099.1 204.524 1094.52 Q201.469 1089.91 201.469 1081.19 Q201.469 1072.44 204.524 1067.85 Q207.603 1063.25 213.413 1063.25 Z" fill="#000000" fill-rule="evenodd" fill-opacity="1" /><path clip-path="url(#clip180)" d="M243.575 1066.95 Q239.964 1066.95 238.135 1070.52 Q236.33 1074.06 236.33 1081.19 Q236.33 1088.29 238.135 1091.86 Q239.964 1095.4 243.575 1095.4 Q247.209 1095.4 249.015 1091.86 Q250.844 1088.29 250.844 1081.19 Q250.844 1074.06 249.015 1070.52 Q247.209 1066.95 243.575 1066.95 M243.575 1063.25 Q249.385 1063.25 252.441 1067.85 Q255.519 1072.44 255.519 1081.19 Q255.519 1089.91 252.441 1094.52 Q249.385 1099.1 243.575 1099.1 Q237.765 1099.1 234.686 1094.52 Q231.631 1089.91 231.631 1081.19 Q231.631 1072.44 234.686 1067.85 Q237.765 1063.25 243.575 1063.25 Z" fill="#000000" fill-rule="evenodd" fill-opacity="1" /><path clip-path="url(#clip180)" d="M143.9 810.958 L151.539 810.958 L151.539 784.592 L143.228 786.259 L143.228 782 L151.492 780.333 L156.168 780.333 L156.168 810.958 L163.807 810.958 L163.807 814.893 L143.9 814.893 L143.9 810.958 Z" fill="#000000" fill-rule="evenodd" fill-opacity="1" /><path clip-path="url(#clip180)" d="M183.251 783.412 Q179.64 783.412 177.812 786.976 Q176.006 790.518 176.006 797.648 Q176.006 804.754 177.812 808.319 Q179.64 811.861 183.251 811.861 Q186.886 811.861 188.691 808.319 Q190.52 804.754 190.52 797.648 Q190.52 790.518 188.691 786.976 Q186.886 783.412 183.251 783.412 M183.251 779.708 Q189.061 779.708 192.117 784.314 Q195.196 788.898 195.196 797.648 Q195.196 806.374 192.117 810.981 Q189.061 815.564 183.251 815.564 Q177.441 815.564 174.362 810.981 Q171.307 806.374 171.307 797.648 Q171.307 788.898 174.362 784.314 Q177.441 779.708 183.251 779.708 Z" fill="#000000" fill-rule="evenodd" fill-opacity="1" /><path clip-path="url(#clip180)" d="M213.413 783.412 Q209.802 783.412 207.973 786.976 Q206.168 790.518 206.168 797.648 Q206.168 804.754 207.973 808.319 Q209.802 811.861 213.413 811.861 Q217.047 811.861 218.853 808.319 Q220.682 804.754 220.682 797.648 Q220.682 790.518 218.853 786.976 Q217.047 783.412 213.413 783.412 M213.413 779.708 Q219.223 779.708 222.279 784.314 Q225.358 788.898 225.358 797.648 Q225.358 806.374 222.279 810.981 Q219.223 815.564 213.413 815.564 Q207.603 815.564 204.524 810.981 Q201.469 806.374 201.469 797.648 Q201.469 788.898 204.524 784.314 Q207.603 779.708 213.413 779.708 Z" fill="#000000" fill-rule="evenodd" fill-opacity="1" /><path clip-path="url(#clip180)" d="M243.575 783.412 Q239.964 783.412 238.135 786.976 Q236.33 790.518 236.33 797.648 Q236.33 804.754 238.135 808.319 Q239.964 811.861 243.575 811.861 Q247.209 811.861 249.015 808.319 Q250.844 804.754 250.844 797.648 Q250.844 790.518 249.015 786.976 Q247.209 783.412 243.575 783.412 M243.575 779.708 Q249.385 779.708 252.441 784.314 Q255.519 788.898 255.519 797.648 Q255.519 806.374 252.441 810.981 Q249.385 815.564 243.575 815.564 Q237.765 815.564 234.686 810.981 Q231.631 806.374 231.631 797.648 Q231.631 788.898 234.686 784.314 Q237.765 779.708 243.575 779.708 Z" fill="#000000" fill-rule="evenodd" fill-opacity="1" /><path clip-path="url(#clip180)" d="M143.9 527.419 L151.539 527.419 L151.539 501.054 L143.228 502.72 L143.228 498.461 L151.492 496.794 L156.168 496.794 L156.168 527.419 L163.807 527.419 L163.807 531.354 L143.9 531.354 L143.9 527.419 Z" fill="#000000" fill-rule="evenodd" fill-opacity="1" /><path clip-path="url(#clip180)" d="M173.298 496.794 L191.654 496.794 L191.654 500.729 L177.58 500.729 L177.58 509.202 Q178.599 508.854 179.617 508.692 Q180.636 508.507 181.654 508.507 Q187.441 508.507 190.821 511.678 Q194.2 514.85 194.2 520.266 Q194.2 525.845 190.728 528.947 Q187.256 532.026 180.937 532.026 Q178.761 532.026 176.492 531.655 Q174.247 531.285 171.839 530.544 L171.839 525.845 Q173.923 526.979 176.145 527.535 Q178.367 528.09 180.844 528.09 Q184.849 528.09 187.186 525.984 Q189.524 523.877 189.524 520.266 Q189.524 516.655 187.186 514.549 Q184.849 512.442 180.844 512.442 Q178.969 512.442 177.094 512.859 Q175.242 513.276 173.298 514.155 L173.298 496.794 Z" fill="#000000" fill-rule="evenodd" fill-opacity="1" /><path clip-path="url(#clip180)" d="M213.413 499.873 Q209.802 499.873 207.973 503.438 Q206.168 506.979 206.168 514.109 Q206.168 521.215 207.973 524.78 Q209.802 528.322 213.413 528.322 Q217.047 528.322 218.853 524.78 Q220.682 521.215 220.682 514.109 Q220.682 506.979 218.853 503.438 Q217.047 499.873 213.413 499.873 M213.413 496.169 Q219.223 496.169 222.279 500.776 Q225.358 505.359 225.358 514.109 Q225.358 522.836 222.279 527.442 Q219.223 532.026 213.413 532.026 Q207.603 532.026 204.524 527.442 Q201.469 522.836 201.469 514.109 Q201.469 505.359 204.524 500.776 Q207.603 496.169 213.413 496.169 Z" fill="#000000" fill-rule="evenodd" fill-opacity="1" /><path clip-path="url(#clip180)" d="M243.575 499.873 Q239.964 499.873 238.135 503.438 Q236.33 506.979 236.33 514.109 Q236.33 521.215 238.135 524.78 Q239.964 528.322 243.575 528.322 Q247.209 528.322 249.015 524.78 Q250.844 521.215 250.844 514.109 Q250.844 506.979 249.015 503.438 Q247.209 499.873 243.575 499.873 M243.575 496.169 Q249.385 496.169 252.441 500.776 Q255.519 505.359 255.519 514.109 Q255.519 522.836 252.441 527.442 Q249.385 532.026 243.575 532.026 Q237.765 532.026 234.686 527.442 Q231.631 522.836 231.631 514.109 Q231.631 505.359 234.686 500.776 Q237.765 496.169 243.575 496.169 Z" fill="#000000" fill-rule="evenodd" fill-opacity="1" /><path clip-path="url(#clip180)" d="M147.117 243.88 L163.437 243.88 L163.437 247.816 L141.492 247.816 L141.492 243.88 Q144.154 241.126 148.738 236.496 Q153.344 231.844 154.525 230.501 Q156.77 227.978 157.65 226.242 Q158.552 224.482 158.552 222.793 Q158.552 220.038 156.608 218.302 Q154.687 216.566 151.585 216.566 Q149.386 216.566 146.932 217.33 Q144.502 218.094 141.724 219.644 L141.724 214.922 Q144.548 213.788 147.002 213.209 Q149.455 212.631 151.492 212.631 Q156.863 212.631 160.057 215.316 Q163.251 218.001 163.251 222.492 Q163.251 224.621 162.441 226.543 Q161.654 228.441 159.548 231.033 Q158.969 231.705 155.867 234.922 Q152.765 238.117 147.117 243.88 Z" fill="#000000" fill-rule="evenodd" fill-opacity="1" /><path clip-path="url(#clip180)" d="M183.251 216.334 Q179.64 216.334 177.812 219.899 Q176.006 223.441 176.006 230.57 Q176.006 237.677 177.812 241.242 Q179.64 244.783 183.251 244.783 Q186.886 244.783 188.691 241.242 Q190.52 237.677 190.52 230.57 Q190.52 223.441 188.691 219.899 Q186.886 216.334 183.251 216.334 M183.251 212.631 Q189.061 212.631 192.117 217.237 Q195.196 221.82 195.196 230.57 Q195.196 239.297 192.117 243.904 Q189.061 248.487 183.251 248.487 Q177.441 248.487 174.362 243.904 Q171.307 239.297 171.307 230.57 Q171.307 221.82 174.362 217.237 Q177.441 212.631 183.251 212.631 Z" fill="#000000" fill-rule="evenodd" fill-opacity="1" /><path clip-path="url(#clip180)" d="M213.413 216.334 Q209.802 216.334 207.973 219.899 Q206.168 223.441 206.168 230.57 Q206.168 237.677 207.973 241.242 Q209.802 244.783 213.413 244.783 Q217.047 244.783 218.853 241.242 Q220.682 237.677 220.682 230.57 Q220.682 223.441 218.853 219.899 Q217.047 216.334 213.413 216.334 M213.413 212.631 Q219.223 212.631 222.279 217.237 Q225.358 221.82 225.358 230.57 Q225.358 239.297 222.279 243.904 Q219.223 248.487 213.413 248.487 Q207.603 248.487 204.524 243.904 Q201.469 239.297 201.469 230.57 Q201.469 221.82 204.524 217.237 Q207.603 212.631 213.413 212.631 Z" fill="#000000" fill-rule="evenodd" fill-opacity="1" /><path clip-path="url(#clip180)" d="M243.575 216.334 Q239.964 216.334 238.135 219.899 Q236.33 223.441 236.33 230.57 Q236.33 237.677 238.135 241.242 Q239.964 244.783 243.575 244.783 Q247.209 244.783 249.015 241.242 Q250.844 237.677 250.844 230.57 Q250.844 223.441 249.015 219.899 Q247.209 216.334 243.575 216.334 M243.575 212.631 Q249.385 212.631 252.441 217.237 Q255.519 221.82 255.519 230.57 Q255.519 239.297 252.441 243.904 Q249.385 248.487 243.575 248.487 Q237.765 248.487 234.686 243.904 Q231.631 239.297 231.631 230.57 Q231.631 221.82 234.686 217.237 Q237.765 212.631 243.575 212.631 Z" fill="#000000" fill-rule="evenodd" fill-opacity="1" /><path clip-path="url(#clip180)" d="M7.71628 1099.24 L7.71628 1090.58 L47.4701 1069.51 L7.71628 1069.51 L7.71628 1063.28 L55.2363 1063.28 L55.2363 1071.93 L15.4824 1093 L55.2363 1093 L55.2363 1099.24 L7.71628 1099.24 Z" fill="#000000" fill-rule="evenodd" fill-opacity="1" /><path clip-path="url(#clip180)" d="M35.9482 1020.24 L38.8128 1020.24 L38.8128 1047.17 Q44.8602 1046.79 48.043 1043.54 Q51.1941 1040.26 51.1941 1034.44 Q51.1941 1031.06 50.3665 1027.91 Q49.539 1024.73 47.8839 1021.61 L53.4221 1021.61 Q54.7589 1024.76 55.4591 1028.07 Q56.1593 1031.38 56.1593 1034.79 Q56.1593 1043.32 51.1941 1048.32 Q46.2288 1053.28 37.7624 1053.28 Q29.0096 1053.28 23.8852 1048.57 Q18.729 1043.83 18.729 1035.81 Q18.729 1028.61 23.3759 1024.44 Q27.9911 1020.24 35.9482 1020.24 M34.2295 1026.1 Q29.4233 1026.16 26.5588 1028.8 Q23.6942 1031.41 23.6942 1035.74 Q23.6942 1040.65 26.4633 1043.61 Q29.2324 1046.53 34.2613 1046.98 L34.2295 1026.1 Z" fill="#000000" fill-rule="evenodd" fill-opacity="1" /><path clip-path="url(#clip180)" d="M19.5883 1014.04 L19.5883 1008.18 L47.4065 1000.86 L19.5883 993.571 L19.5883 986.664 L47.4065 979.343 L19.5883 972.055 L19.5883 966.198 L55.2363 975.524 L55.2363 982.431 L26.0177 990.101 L55.2363 997.804 L55.2363 1004.71 L19.5883 1014.04 Z" fill="#000000" fill-rule="evenodd" fill-opacity="1" /><path clip-path="url(#clip180)" d="M37.4441 911.007 Q30.9829 911.007 27.3227 913.681 Q23.6306 916.323 23.6306 920.97 Q23.6306 925.617 27.3227 928.29 Q30.9829 930.932 37.4441 930.932 Q43.9053 930.932 47.5974 928.29 Q51.2577 925.617 51.2577 920.97 Q51.2577 916.323 47.5974 913.681 Q43.9053 911.007 37.4441 911.007 M24.9992 930.932 Q21.8163 929.086 20.2886 926.285 Q18.729 923.452 18.729 919.538 Q18.729 913.044 23.8852 909.002 Q29.0414 904.928 37.4441 904.928 Q45.8469 904.928 51.0031 909.002 Q56.1593 913.044 56.1593 919.538 Q56.1593 923.452 54.6315 926.285 Q53.0719 929.086 49.8891 930.932 L55.2363 930.932 L55.2363 936.82 L5.71109 936.82 L5.71109 930.932 L24.9992 930.932 Z" fill="#000000" fill-rule="evenodd" fill-opacity="1" /><path clip-path="url(#clip180)" d="M19.5883 895.221 L19.5883 889.364 L55.2363 889.364 L55.2363 895.221 L19.5883 895.221 M5.71109 895.221 L5.71109 889.364 L13.1271 889.364 L13.1271 895.221 L5.71109 895.221 Z" fill="#000000" fill-rule="evenodd" fill-opacity="1" /><path clip-path="url(#clip180)" d="M5.71109 877.333 L5.71109 871.445 L34.9615 871.445 L19.5883 853.971 L19.5883 846.491 L36.2665 865.397 L55.2363 845.695 L55.2363 853.334 L37.8261 871.445 L55.2363 871.445 L55.2363 877.333 L5.71109 877.333 Z" fill="#000000" fill-rule="evenodd" fill-opacity="1" /><path clip-path="url(#clip180)" d="M35.9482 811.193 L38.8128 811.193 L38.8128 838.12 Q44.8602 837.738 48.043 834.492 Q51.1941 831.213 51.1941 825.389 Q51.1941 822.015 50.3665 818.864 Q49.539 815.681 47.8839 812.562 L53.4221 812.562 Q54.7589 815.713 55.4591 819.023 Q56.1593 822.333 56.1593 825.739 Q56.1593 834.269 51.1941 839.266 Q46.2288 844.231 37.7624 844.231 Q29.0096 844.231 23.8852 839.521 Q18.729 834.778 18.729 826.757 Q18.729 819.564 23.3759 815.395 Q27.9911 811.193 35.9482 811.193 M34.2295 817.05 Q29.4233 817.113 26.5588 819.755 Q23.6942 822.365 23.6942 826.694 Q23.6942 831.595 26.4633 834.555 Q29.2324 837.484 34.2613 837.929 L34.2295 817.05 Z" fill="#000000" fill-rule="evenodd" fill-opacity="1" /><path clip-path="url(#clip180)" d="M20.6387 758.135 L26.1768 758.135 Q24.9037 760.618 24.2671 763.291 Q23.6306 765.965 23.6306 768.829 Q23.6306 773.19 24.9673 775.386 Q26.3041 777.55 28.9777 777.55 Q31.0148 777.55 32.1924 775.991 Q33.3383 774.431 34.3886 769.721 L34.8342 767.715 Q36.171 761.477 38.6218 758.867 Q41.0408 756.225 45.4013 756.225 Q50.3665 756.225 53.2629 760.172 Q56.1593 764.087 56.1593 770.962 Q56.1593 773.826 55.5864 776.946 Q55.0453 780.033 53.9313 783.471 L47.8839 783.471 Q49.5708 780.224 50.4302 777.073 Q51.2577 773.922 51.2577 770.835 Q51.2577 766.697 49.8573 764.469 Q48.425 762.241 45.8469 762.241 Q43.4597 762.241 42.1866 763.864 Q40.9134 765.456 39.7358 770.898 L39.2584 772.935 Q38.1125 778.378 35.7572 780.797 Q33.3701 783.216 29.2324 783.216 Q24.2035 783.216 21.4662 779.651 Q18.729 776.086 18.729 769.53 Q18.729 766.283 19.2064 763.419 Q19.6838 760.554 20.6387 758.135 Z" fill="#000000" fill-rule="evenodd" fill-opacity="1" /><path clip-path="url(#clip180)" d="M33.7202 717.267 L55.2363 717.267 L55.2363 723.124 L33.9112 723.124 Q28.8504 723.124 26.336 725.097 Q23.8215 727.07 23.8215 731.017 Q23.8215 735.76 26.8452 738.497 Q29.8689 741.234 35.0888 741.234 L55.2363 741.234 L55.2363 747.122 L5.71109 747.122 L5.71109 741.234 L25.1265 741.234 Q21.9118 739.133 20.3204 736.301 Q18.729 733.436 18.729 729.712 Q18.729 723.569 22.5484 720.418 Q26.336 717.267 33.7202 717.267 Z" fill="#000000" fill-rule="evenodd" fill-opacity="1" /><path clip-path="url(#clip180)" d="M37.3168 689.385 Q37.3168 696.483 38.9401 699.22 Q40.5633 701.958 44.4782 701.958 Q47.5974 701.958 49.4435 699.921 Q51.2577 697.852 51.2577 694.319 Q51.2577 689.449 47.8202 686.521 Q44.3509 683.561 38.6218 683.561 L37.3168 683.561 L37.3168 689.385 M34.8979 677.704 L55.2363 677.704 L55.2363 683.561 L49.8254 683.561 Q53.0719 685.566 54.6315 688.558 Q56.1593 691.55 56.1593 695.878 Q56.1593 701.353 53.1038 704.599 Q50.0164 707.814 44.8602 707.814 Q38.8446 707.814 35.789 703.804 Q32.7335 699.761 32.7335 691.773 L32.7335 683.561 L32.1606 683.561 Q28.1184 683.561 25.9222 686.234 Q23.6942 688.876 23.6942 693.682 Q23.6942 696.738 24.4263 699.634 Q25.1583 702.531 26.6224 705.204 L21.2116 705.204 Q19.9703 701.989 19.3655 698.966 Q18.729 695.942 18.729 693.078 Q18.729 685.343 22.7394 681.524 Q26.7497 677.704 34.8979 677.704 Z" fill="#000000" fill-rule="evenodd" fill-opacity="1" /><path clip-path="url(#clip180)" d="M25.0628 644.985 Q24.4899 645.971 24.2353 647.149 Q23.9488 648.295 23.9488 649.695 Q23.9488 654.66 27.1953 657.334 Q30.41 659.976 36.4574 659.976 L55.2363 659.976 L55.2363 665.864 L19.5883 665.864 L19.5883 659.976 L25.1265 659.976 Q21.88 658.13 20.3204 655.17 Q18.729 652.21 18.729 647.976 Q18.729 647.372 18.8244 646.64 Q18.8881 645.908 19.0472 645.016 L25.0628 644.985 Z" fill="#000000" fill-rule="evenodd" fill-opacity="1" /><path clip-path="url(#clip180)" d="M35.9482 609.782 L38.8128 609.782 L38.8128 636.709 Q44.8602 636.327 48.043 633.081 Q51.1941 629.802 51.1941 623.978 Q51.1941 620.604 50.3665 617.453 Q49.539 614.27 47.8839 611.151 L53.4221 611.151 Q54.7589 614.302 55.4591 617.612 Q56.1593 620.922 56.1593 624.328 Q56.1593 632.858 51.1941 637.855 Q46.2288 642.82 37.7624 642.82 Q29.0096 642.82 23.8852 638.11 Q18.729 633.367 18.729 625.346 Q18.729 618.153 23.3759 613.984 Q27.9911 609.782 35.9482 609.782 M34.2295 615.639 Q29.4233 615.702 26.5588 618.344 Q23.6942 620.954 23.6942 625.283 Q23.6942 630.184 26.4633 633.144 Q29.2324 636.073 34.2613 636.518 L34.2295 615.639 Z" fill="#000000" fill-rule="evenodd" fill-opacity="1" /><path clip-path="url(#clip180)" d="M20.957 553.796 L26.4315 553.796 Q25.0628 556.278 24.3944 558.793 Q23.6942 561.276 23.6942 563.822 Q23.6942 569.519 27.3227 572.67 Q30.9193 575.821 37.4441 575.821 Q43.969 575.821 47.5974 572.67 Q51.1941 569.519 51.1941 563.822 Q51.1941 561.276 50.5257 558.793 Q49.8254 556.278 48.4568 553.796 L53.8677 553.796 Q55.0135 556.247 55.5864 558.888 Q56.1593 561.498 56.1593 564.458 Q56.1593 572.511 51.0986 577.253 Q46.0378 581.996 37.4441 581.996 Q28.7231 581.996 23.726 577.222 Q18.729 572.416 18.729 564.076 Q18.729 561.371 19.3019 558.793 Q19.843 556.215 20.957 553.796 Z" fill="#000000" fill-rule="evenodd" fill-opacity="1" /><path clip-path="url(#clip180)" d="M23.6942 529.797 Q23.6942 534.508 27.3863 537.245 Q31.0466 539.982 37.4441 539.982 Q43.8417 539.982 47.5338 537.277 Q51.1941 534.54 51.1941 529.797 Q51.1941 525.118 47.5019 522.381 Q43.8098 519.644 37.4441 519.644 Q31.1103 519.644 27.4181 522.381 Q23.6942 525.118 23.6942 529.797 M18.729 529.797 Q18.729 522.158 23.6942 517.798 Q28.6595 513.437 37.4441 513.437 Q46.197 513.437 51.1941 517.798 Q56.1593 522.158 56.1593 529.797 Q56.1593 537.468 51.1941 541.828 Q46.197 546.157 37.4441 546.157 Q28.6595 546.157 23.6942 541.828 Q18.729 537.468 18.729 529.797 Z" fill="#000000" fill-rule="evenodd" fill-opacity="1" /><path clip-path="url(#clip180)" d="M41.1681 504.334 L19.5883 504.334 L19.5883 498.478 L40.9453 498.478 Q46.006 498.478 48.5523 496.504 Q51.0667 494.531 51.0667 490.584 Q51.0667 485.842 48.043 483.105 Q45.0193 480.336 39.7994 480.336 L19.5883 480.336 L19.5883 474.479 L55.2363 474.479 L55.2363 480.336 L49.7618 480.336 Q53.0083 482.468 54.5997 485.301 Q56.1593 488.102 56.1593 491.826 Q56.1593 497.969 52.3399 501.151 Q48.5205 504.334 41.1681 504.334 M18.729 489.598 L18.729 489.598 Z" fill="#000000" fill-rule="evenodd" fill-opacity="1" /><path clip-path="url(#clip180)" d="M9.46685 456.623 L19.5883 456.623 L19.5883 444.56 L24.1398 444.56 L24.1398 456.623 L43.4916 456.623 Q47.8521 456.623 49.0934 455.446 Q50.3347 454.236 50.3347 450.576 L50.3347 444.56 L55.2363 444.56 L55.2363 450.576 Q55.2363 457.355 52.7218 459.933 Q50.1755 462.512 43.4916 462.512 L24.1398 462.512 L24.1398 466.808 L19.5883 466.808 L19.5883 462.512 L9.46685 462.512 L9.46685 456.623 Z" fill="#000000" fill-rule="evenodd" fill-opacity="1" /><path clip-path="url(#clip180)" d="M20.6387 414.132 L26.1768 414.132 Q24.9037 416.615 24.2671 419.288 Q23.6306 421.962 23.6306 424.827 Q23.6306 429.187 24.9673 431.383 Q26.3041 433.548 28.9777 433.548 Q31.0148 433.548 32.1924 431.988 Q33.3383 430.428 34.3886 425.718 L34.8342 423.713 Q36.171 417.474 38.6218 414.864 Q41.0408 412.223 45.4013 412.223 Q50.3665 412.223 53.2629 416.169 Q56.1593 420.084 56.1593 426.959 Q56.1593 429.824 55.5864 432.943 Q55.0453 436.03 53.9313 439.468 L47.8839 439.468 Q49.5708 436.221 50.4302 433.07 Q51.2577 429.919 51.2577 426.832 Q51.2577 422.694 49.8573 420.466 Q48.425 418.238 45.8469 418.238 Q43.4597 418.238 42.1866 419.861 Q40.9134 421.453 39.7358 426.895 L39.2584 428.933 Q38.1125 434.375 35.7572 436.794 Q33.3701 439.213 29.2324 439.213 Q24.2035 439.213 21.4662 435.648 Q18.729 432.084 18.729 425.527 Q18.729 422.28 19.2064 419.416 Q19.6838 416.551 20.6387 414.132 Z" fill="#000000" fill-rule="evenodd" fill-opacity="1" /><path clip-path="url(#clip182)" d="
M567.451 1092.6 L567.451 1364.69 L697.951 1364.69 L697.951 1092.6 L567.451 1092.6 L567.451 1092.6  Z
  " fill="#009af9" fill-rule="evenodd" fill-opacity="1"/>
<polyline clip-path="url(#clip182)" style="stroke:#000000; stroke-linecap:round; stroke-linejoin:round; stroke-width:4; stroke-opacity:1; fill:none" points="
  567.451,1092.6 567.451,1364.69 697.951,1364.69 697.951,1092.6 567.451,1092.6 
  "/>
<path clip-path="url(#clip182)" d="
M730.576 1147.35 L730.576 1364.69 L861.076 1364.69 L861.076 1147.35 L730.576 1147.35 L730.576 1147.35  Z
  " fill="#009af9" fill-rule="evenodd" fill-opacity="1"/>
<polyline clip-path="url(#clip182)" style="stroke:#000000; stroke-linecap:round; stroke-linejoin:round; stroke-width:4; stroke-opacity:1; fill:none" points="
  730.576,1147.35 730.576,1364.69 861.076,1364.69 861.076,1147.35 730.576,1147.35 
  "/>
<path clip-path="url(#clip182)" d="
M893.701 1207.93 L893.701 1364.69 L1024.2 1364.69 L1024.2 1207.93 L893.701 1207.93 L893.701 1207.93  Z
  " fill="#009af9" fill-rule="evenodd" fill-opacity="1"/>
<polyline clip-path="url(#clip182)" style="stroke:#000000; stroke-linecap:round; stroke-linejoin:round; stroke-width:4; stroke-opacity:1; fill:none" points="
  893.701,1207.93 893.701,1364.69 1024.2,1364.69 1024.2,1207.93 893.701,1207.93 
  "/>
<path clip-path="url(#clip182)" d="
M1056.83 1252.73 L1056.83 1364.69 L1187.33 1364.69 L1187.33 1252.73 L1056.83 1252.73 L1056.83 1252.73  Z
  " fill="#009af9" fill-rule="evenodd" fill-opacity="1"/>
<polyline clip-path="url(#clip182)" style="stroke:#000000; stroke-linecap:round; stroke-linejoin:round; stroke-width:4; stroke-opacity:1; fill:none" points="
  1056.83,1252.73 1056.83,1364.69 1187.33,1364.69 1187.33,1252.73 1056.83,1252.73 
  "/>
<path clip-path="url(#clip182)" d="
M1219.95 1293.05 L1219.95 1364.69 L1350.45 1364.69 L1350.45 1293.05 L1219.95 1293.05 L1219.95 1293.05  Z
  " fill="#009af9" fill-rule="evenodd" fill-opacity="1"/>
<polyline clip-path="url(#clip182)" style="stroke:#000000; stroke-linecap:round; stroke-linejoin:round; stroke-width:4; stroke-opacity:1; fill:none" points="
  1219.95,1293.05 1219.95,1364.69 1350.45,1364.69 1350.45,1293.05 1219.95,1293.05 
  "/>
<path clip-path="url(#clip182)" d="
M1383.08 1309.54 L1383.08 1364.69 L1513.58 1364.69 L1513.58 1309.54 L1383.08 1309.54 L1383.08 1309.54  Z
  " fill="#009af9" fill-rule="evenodd" fill-opacity="1"/>
<polyline clip-path="url(#clip182)" style="stroke:#000000; stroke-linecap:round; stroke-linejoin:round; stroke-width:4; stroke-opacity:1; fill:none" points="
  1383.08,1309.54 1383.08,1364.69 1513.58,1364.69 1513.58,1309.54 1383.08,1309.54 
  "/>
<path clip-path="url(#clip182)" d="
M1546.2 1296.33 L1546.2 1364.69 L1676.7 1364.69 L1676.7 1296.33 L1546.2 1296.33 L1546.2 1296.33  Z
  " fill="#009af9" fill-rule="evenodd" fill-opacity="1"/>
<polyline clip-path="url(#clip182)" style="stroke:#000000; stroke-linecap:round; stroke-linejoin:round; stroke-width:4; stroke-opacity:1; fill:none" points="
  1546.2,1296.33 1546.2,1364.69 1676.7,1364.69 1676.7,1296.33 1546.2,1296.33 
  "/>
<path clip-path="url(#clip182)" d="
M1709.33 1243.8 L1709.33 1364.69 L1839.83 1364.69 L1839.83 1243.8 L1709.33 1243.8 L1709.33 1243.8  Z
  " fill="#009af9" fill-rule="evenodd" fill-opacity="1"/>
<polyline clip-path="url(#clip182)" style="stroke:#000000; stroke-linecap:round; stroke-linejoin:round; stroke-width:4; stroke-opacity:1; fill:none" points="
  1709.33,1243.8 1709.33,1364.69 1839.83,1364.69 1839.83,1243.8 1709.33,1243.8 
  "/>
<path clip-path="url(#clip182)" d="
M1872.45 1128.91 L1872.45 1364.69 L2002.95 1364.69 L2002.95 1128.91 L1872.45 1128.91 L1872.45 1128.91  Z
  " fill="#009af9" fill-rule="evenodd" fill-opacity="1"/>
<polyline clip-path="url(#clip182)" style="stroke:#000000; stroke-linecap:round; stroke-linejoin:round; stroke-width:4; stroke-opacity:1; fill:none" points="
  1872.45,1128.91 1872.45,1364.69 2002.95,1364.69 2002.95,1128.91 1872.45,1128.91 
  "/>
<path clip-path="url(#clip182)" d="
M2035.58 918.178 L2035.58 1364.69 L2166.08 1364.69 L2166.08 918.178 L2035.58 918.178 L2035.58 918.178  Z
  " fill="#009af9" fill-rule="evenodd" fill-opacity="1"/>
<polyline clip-path="url(#clip182)" style="stroke:#000000; stroke-linecap:round; stroke-linejoin:round; stroke-width:4; stroke-opacity:1; fill:none" points="
  2035.58,918.178 2035.58,1364.69 2166.08,1364.69 2166.08,918.178 2035.58,918.178 
  "/>
<path clip-path="url(#clip182)" d="
M2198.7 673.448 L2198.7 1364.69 L2329.2 1364.69 L2329.2 673.448 L2198.7 673.448 L2198.7 673.448  Z
  " fill="#009af9" fill-rule="evenodd" fill-opacity="1"/>
<polyline clip-path="url(#clip182)" style="stroke:#000000; stroke-linecap:round; stroke-linejoin:round; stroke-width:4; stroke-opacity:1; fill:none" points="
  2198.7,673.448 2198.7,1364.69 2329.2,1364.69 2329.2,673.448 2198.7,673.448 
  "/>
<path clip-path="url(#clip182)" d="
M2361.83 451.405 L2361.83 1364.69 L2492.33 1364.69 L2492.33 451.405 L2361.83 451.405 L2361.83 451.405  Z
  " fill="#009af9" fill-rule="evenodd" fill-opacity="1"/>
<polyline clip-path="url(#clip182)" style="stroke:#000000; stroke-linecap:round; stroke-linejoin:round; stroke-width:4; stroke-opacity:1; fill:none" points="
  2361.83,451.405 2361.83,1364.69 2492.33,1364.69 2492.33,451.405 2361.83,451.405 
  "/>
<path clip-path="url(#clip182)" d="
M2524.95 269.792 L2524.95 1364.69 L2655.45 1364.69 L2655.45 269.792 L2524.95 269.792 L2524.95 269.792  Z
  " fill="#009af9" fill-rule="evenodd" fill-opacity="1"/>
<polyline clip-path="url(#clip182)" style="stroke:#000000; stroke-linecap:round; stroke-linejoin:round; stroke-width:4; stroke-opacity:1; fill:none" points="
  2524.95,269.792 2524.95,1364.69 2655.45,1364.69 2655.45,269.792 2524.95,269.792 
  "/>
<path clip-path="url(#clip182)" d="
M2688.08 188.086 L2688.08 1364.69 L2818.58 1364.69 L2818.58 188.086 L2688.08 188.086 L2688.08 188.086  Z
  " fill="#009af9" fill-rule="evenodd" fill-opacity="1"/>
<polyline clip-path="url(#clip182)" style="stroke:#000000; stroke-linecap:round; stroke-linejoin:round; stroke-width:4; stroke-opacity:1; fill:none" points="
  2688.08,188.086 2688.08,1364.69 2818.58,1364.69 2818.58,188.086 2688.08,188.086 
  "/>
<path clip-path="url(#clip182)" d="
M2851.2 163.526 L2851.2 1364.69 L2981.7 1364.69 L2981.7 163.526 L2851.2 163.526 L2851.2 163.526  Z
  " fill="#009af9" fill-rule="evenodd" fill-opacity="1"/>
<polyline clip-path="url(#clip182)" style="stroke:#000000; stroke-linecap:round; stroke-linejoin:round; stroke-width:4; stroke-opacity:1; fill:none" points="
  2851.2,163.526 2851.2,1364.69 2981.7,1364.69 2981.7,163.526 2851.2,163.526 
  "/>
<path clip-path="url(#clip182)" d="
M3014.33 146.774 L3014.33 1364.69 L3144.83 1364.69 L3144.83 146.774 L3014.33 146.774 L3014.33 146.774  Z
  " fill="#009af9" fill-rule="evenodd" fill-opacity="1"/>
<polyline clip-path="url(#clip182)" style="stroke:#000000; stroke-linecap:round; stroke-linejoin:round; stroke-width:4; stroke-opacity:1; fill:none" points="
  3014.33,146.774 3014.33,1364.69 3144.83,1364.69 3144.83,146.774 3014.33,146.774 
  "/>
<path clip-path="url(#clip182)" d="
M3177.46 208.089 L3177.46 1364.69 L3307.96 1364.69 L3307.96 208.089 L3177.46 208.089 L3177.46 208.089  Z
  " fill="#009af9" fill-rule="evenodd" fill-opacity="1"/>
<polyline clip-path="url(#clip182)" style="stroke:#000000; stroke-linecap:round; stroke-linejoin:round; stroke-width:4; stroke-opacity:1; fill:none" points="
  3177.46,208.089 3177.46,1364.69 3307.96,1364.69 3307.96,208.089 3177.46,208.089 
  "/>
<path clip-path="url(#clip182)" d="
M3340.58 326.923 L3340.58 1364.69 L3471.08 1364.69 L3471.08 326.923 L3340.58 326.923 L3340.58 326.923  Z
  " fill="#009af9" fill-rule="evenodd" fill-opacity="1"/>
<polyline clip-path="url(#clip182)" style="stroke:#000000; stroke-linecap:round; stroke-linejoin:round; stroke-width:4; stroke-opacity:1; fill:none" points="
  3340.58,326.923 3340.58,1364.69 3471.08,1364.69 3471.08,326.923 3340.58,326.923 
  "/>
<path clip-path="url(#clip182)" d="
M3503.71 469.156 L3503.71 1364.69 L3634.21 1364.69 L3634.21 469.156 L3503.71 469.156 L3503.71 469.156  Z
  " fill="#009af9" fill-rule="evenodd" fill-opacity="1"/>
<polyline clip-path="url(#clip182)" style="stroke:#000000; stroke-linecap:round; stroke-linejoin:round; stroke-width:4; stroke-opacity:1; fill:none" points="
  3503.71,469.156 3503.71,1364.69 3634.21,1364.69 3634.21,469.156 3503.71,469.156 
  "/>
<path clip-path="url(#clip182)" d="
M3666.83 674.604 L3666.83 1364.69 L3797.33 1364.69 L3797.33 674.604 L3666.83 674.604 L3666.83 674.604  Z
  " fill="#009af9" fill-rule="evenodd" fill-opacity="1"/>
<polyline clip-path="url(#clip182)" style="stroke:#000000; stroke-linecap:round; stroke-linejoin:round; stroke-width:4; stroke-opacity:1; fill:none" points="
  3666.83,674.604 3666.83,1364.69 3797.33,1364.69 3797.33,674.604 3666.83,674.604 
  "/>
<path clip-path="url(#clip182)" d="
M3829.96 868.68 L3829.96 1364.69 L3960.46 1364.69 L3960.46 868.68 L3829.96 868.68 L3829.96 868.68  Z
  " fill="#009af9" fill-rule="evenodd" fill-opacity="1"/>
<polyline clip-path="url(#clip182)" style="stroke:#000000; stroke-linecap:round; stroke-linejoin:round; stroke-width:4; stroke-opacity:1; fill:none" points="
  3829.96,868.68 3829.96,1364.69 3960.46,1364.69 3960.46,868.68 3829.96,868.68 
  "/>
<path clip-path="url(#clip182)" d="
M3993.08 1011.97 L3993.08 1364.69 L4123.58 1364.69 L4123.58 1011.97 L3993.08 1011.97 L3993.08 1011.97  Z
  " fill="#009af9" fill-rule="evenodd" fill-opacity="1"/>
<polyline clip-path="url(#clip182)" style="stroke:#000000; stroke-linecap:round; stroke-linejoin:round; stroke-width:4; stroke-opacity:1; fill:none" points="
  3993.08,1011.97 3993.08,1364.69 4123.58,1364.69 4123.58,1011.97 3993.08,1011.97 
  "/>
<path clip-path="url(#clip182)" d="
M4156.21 1060.15 L4156.21 1364.69 L4286.71 1364.69 L4286.71 1060.15 L4156.21 1060.15 L4156.21 1060.15  Z
  " fill="#009af9" fill-rule="evenodd" fill-opacity="1"/>
<polyline clip-path="url(#clip182)" style="stroke:#000000; stroke-linecap:round; stroke-linejoin:round; stroke-width:4; stroke-opacity:1; fill:none" points="
  4156.21,1060.15 4156.21,1364.69 4286.71,1364.69 4286.71,1060.15 4156.21,1060.15 
  "/>
<path clip-path="url(#clip182)" d="
M4319.33 1108.57 L4319.33 1364.69 L4449.83 1364.69 L4449.83 1108.57 L4319.33 1108.57 L4319.33 1108.57  Z
  " fill="#009af9" fill-rule="evenodd" fill-opacity="1"/>
<polyline clip-path="url(#clip182)" style="stroke:#000000; stroke-linecap:round; stroke-linejoin:round; stroke-width:4; stroke-opacity:1; fill:none" points="
  4319.33,1108.57 4319.33,1364.69 4449.83,1364.69 4449.83,1108.57 4319.33,1108.57 
  "/>
<circle clip-path="url(#clip182)" style="fill:#009af9; stroke:none; fill-opacity:0" cx="632.701" cy="1092.6" r="2"/>
<circle clip-path="url(#clip182)" style="fill:#009af9; stroke:none; fill-opacity:0" cx="795.826" cy="1147.35" r="2"/>
<circle clip-path="url(#clip182)" style="fill:#009af9; stroke:none; fill-opacity:0" cx="958.951" cy="1207.93" r="2"/>
<circle clip-path="url(#clip182)" style="fill:#009af9; stroke:none; fill-opacity:0" cx="1122.08" cy="1252.73" r="2"/>
<circle clip-path="url(#clip182)" style="fill:#009af9; stroke:none; fill-opacity:0" cx="1285.2" cy="1293.05" r="2"/>
<circle clip-path="url(#clip182)" style="fill:#009af9; stroke:none; fill-opacity:0" cx="1448.33" cy="1309.54" r="2"/>
<circle clip-path="url(#clip182)" style="fill:#009af9; stroke:none; fill-opacity:0" cx="1611.45" cy="1296.33" r="2"/>
<circle clip-path="url(#clip182)" style="fill:#009af9; stroke:none; fill-opacity:0" cx="1774.58" cy="1243.8" r="2"/>
<circle clip-path="url(#clip182)" style="fill:#009af9; stroke:none; fill-opacity:0" cx="1937.7" cy="1128.91" r="2"/>
<circle clip-path="url(#clip182)" style="fill:#009af9; stroke:none; fill-opacity:0" cx="2100.83" cy="918.178" r="2"/>
<circle clip-path="url(#clip182)" style="fill:#009af9; stroke:none; fill-opacity:0" cx="2263.95" cy="673.448" r="2"/>
<circle clip-path="url(#clip182)" style="fill:#009af9; stroke:none; fill-opacity:0" cx="2427.08" cy="451.405" r="2"/>
<circle clip-path="url(#clip182)" style="fill:#009af9; stroke:none; fill-opacity:0" cx="2590.2" cy="269.792" r="2"/>
<circle clip-path="url(#clip182)" style="fill:#009af9; stroke:none; fill-opacity:0" cx="2753.33" cy="188.086" r="2"/>
<circle clip-path="url(#clip182)" style="fill:#009af9; stroke:none; fill-opacity:0" cx="2916.45" cy="163.526" r="2"/>
<circle clip-path="url(#clip182)" style="fill:#009af9; stroke:none; fill-opacity:0" cx="3079.58" cy="146.774" r="2"/>
<circle clip-path="url(#clip182)" style="fill:#009af9; stroke:none; fill-opacity:0" cx="3242.71" cy="208.089" r="2"/>
<circle clip-path="url(#clip182)" style="fill:#009af9; stroke:none; fill-opacity:0" cx="3405.83" cy="326.923" r="2"/>
<circle clip-path="url(#clip182)" style="fill:#009af9; stroke:none; fill-opacity:0" cx="3568.96" cy="469.156" r="2"/>
<circle clip-path="url(#clip182)" style="fill:#009af9; stroke:none; fill-opacity:0" cx="3732.08" cy="674.604" r="2"/>
<circle clip-path="url(#clip182)" style="fill:#009af9; stroke:none; fill-opacity:0" cx="3895.21" cy="868.68" r="2"/>
<circle clip-path="url(#clip182)" style="fill:#009af9; stroke:none; fill-opacity:0" cx="4058.33" cy="1011.97" r="2"/>
<circle clip-path="url(#clip182)" style="fill:#009af9; stroke:none; fill-opacity:0" cx="4221.46" cy="1060.15" r="2"/>
<circle clip-path="url(#clip182)" style="fill:#009af9; stroke:none; fill-opacity:0" cx="4384.58" cy="1108.57" r="2"/>
</svg>
