<?xml version="1.0" encoding="utf-8"?>
<svg xmlns="http://www.w3.org/2000/svg" xmlns:xlink="http://www.w3.org/1999/xlink" width="800" height="600" viewBox="0 0 3200 2400">
<defs>
  <clipPath id="clip660">
    <rect x="0" y="0" width="3200" height="2400"/>
  </clipPath>
</defs>
<path clip-path="url(#clip660)" d="
M0 2400 L3200 2400 L3200 0 L0 0  Z
  " fill="#ffffff" fill-rule="evenodd" fill-opacity="1"/>
<defs>
  <clipPath id="clip661">
    <rect x="640" y="0" width="2241" height="2241"/>
  </clipPath>
</defs>
<path clip-path="url(#clip660)" d="
M276.491 2204.92 L3152.76 2204.92 L3152.76 47.2441 L276.491 47.2441  Z
  " fill="#ffffff" fill-rule="evenodd" fill-opacity="1"/>
<defs>
  <clipPath id="clip662">
    <rect x="276" y="47" width="2877" height="2159"/>
  </clipPath>
</defs>
<polyline clip-path="url(#clip662)" style="stroke:#000000; stroke-linecap:round; stroke-linejoin:round; stroke-width:2; stroke-opacity:0.1; fill:none" points="
  704.15,2204.92 704.15,47.2441 
  "/>
<polyline clip-path="url(#clip662)" style="stroke:#000000; stroke-linecap:round; stroke-linejoin:round; stroke-width:2; stroke-opacity:0.1; fill:none" points="
  1377.8,2204.92 1377.8,47.2441 
  "/>
<polyline clip-path="url(#clip662)" style="stroke:#000000; stroke-linecap:round; stroke-linejoin:round; stroke-width:2; stroke-opacity:0.1; fill:none" points="
  2051.45,2204.92 2051.45,47.2441 
  "/>
<polyline clip-path="url(#clip662)" style="stroke:#000000; stroke-linecap:round; stroke-linejoin:round; stroke-width:2; stroke-opacity:0.1; fill:none" points="
  2725.1,2204.92 2725.1,47.2441 
  "/>
<polyline clip-path="url(#clip662)" style="stroke:#000000; stroke-linecap:round; stroke-linejoin:round; stroke-width:2; stroke-opacity:0.1; fill:none" points="
  3398.75,2204.92 3398.75,47.2441 
  "/>
<polyline clip-path="url(#clip660)" style="stroke:#000000; stroke-linecap:round; stroke-linejoin:round; stroke-width:4; stroke-opacity:1; fill:none" points="
  276.491,2204.92 3152.76,2204.92 
  "/>
<polyline clip-path="url(#clip660)" style="stroke:#000000; stroke-linecap:round; stroke-linejoin:round; stroke-width:4; stroke-opacity:1; fill:none" points="
  704.15,2204.92 704.15,2186.02 
  "/>
<polyline clip-path="url(#clip660)" style="stroke:#000000; stroke-linecap:round; stroke-linejoin:round; stroke-width:4; stroke-opacity:1; fill:none" points="
  1377.8,2204.92 1377.8,2186.02 
  "/>
<polyline clip-path="url(#clip660)" style="stroke:#000000; stroke-linecap:round; stroke-linejoin:round; stroke-width:4; stroke-opacity:1; fill:none" points="
  2051.45,2204.92 2051.45,2186.02 
  "/>
<polyline clip-path="url(#clip660)" style="stroke:#000000; stroke-linecap:round; stroke-linejoin:round; stroke-width:4; stroke-opacity:1; fill:none" points="
  2725.1,2204.92 2725.1,2186.02 
  "/>
<polyline clip-path="url(#clip660)" style="stroke:#000000; stroke-linecap:round; stroke-linejoin:round; stroke-width:4; stroke-opacity:1; fill:none" points="
  3398.75,2204.92 3398.75,2186.02 
  "/>
<path clip-path="url(#clip660)" d="M653.618 2240.29 L653.618 2244.85 Q650.956 2243.58 648.595 2242.96 Q646.234 2242.33 644.035 2242.33 Q640.216 2242.33 638.132 2243.81 Q636.072 2245.29 636.072 2248.03 Q636.072 2250.32 637.438 2251.5 Q638.827 2252.66 642.669 2253.37 L645.493 2253.95 Q650.725 2254.95 653.202 2257.47 Q655.702 2259.97 655.702 2264.18 Q655.702 2269.21 652.322 2271.8 Q648.966 2274.39 642.461 2274.39 Q640.007 2274.39 637.229 2273.84 Q634.475 2273.28 631.512 2272.19 L631.512 2267.38 Q634.359 2268.97 637.091 2269.78 Q639.822 2270.59 642.461 2270.59 Q646.466 2270.59 648.641 2269.02 Q650.817 2267.45 650.817 2264.53 Q650.817 2261.98 649.243 2260.55 Q647.692 2259.11 644.128 2258.4 L641.28 2257.84 Q636.049 2256.8 633.711 2254.58 Q631.373 2252.35 631.373 2248.4 Q631.373 2243.81 634.591 2241.17 Q637.831 2238.53 643.503 2238.53 Q645.933 2238.53 648.456 2238.97 Q650.979 2239.41 653.618 2240.29 Z" fill="#000000" fill-rule="evenodd" fill-opacity="1" /><path clip-path="url(#clip660)" d="M666.928 2269.83 L666.928 2283.58 L662.646 2283.58 L662.646 2247.79 L666.928 2247.79 L666.928 2251.73 Q668.271 2249.41 670.308 2248.3 Q672.368 2247.17 675.215 2247.17 Q679.938 2247.17 682.877 2250.92 Q685.84 2254.67 685.84 2260.78 Q685.84 2266.89 682.877 2270.64 Q679.938 2274.39 675.215 2274.39 Q672.368 2274.39 670.308 2273.28 Q668.271 2272.15 666.928 2269.83 M681.419 2260.78 Q681.419 2256.08 679.475 2253.42 Q677.553 2250.73 674.174 2250.73 Q670.794 2250.73 668.85 2253.42 Q666.928 2256.08 666.928 2260.78 Q666.928 2265.48 668.85 2268.16 Q670.794 2270.83 674.174 2270.83 Q677.553 2270.83 679.475 2268.16 Q681.419 2265.48 681.419 2260.78 Z" fill="#000000" fill-rule="evenodd" fill-opacity="1" /><path clip-path="url(#clip660)" d="M707.924 2251.78 Q707.206 2251.36 706.349 2251.17 Q705.516 2250.97 704.498 2250.97 Q700.887 2250.97 698.942 2253.33 Q697.021 2255.66 697.021 2260.06 L697.021 2273.72 L692.738 2273.72 L692.738 2247.79 L697.021 2247.79 L697.021 2251.82 Q698.363 2249.46 700.516 2248.33 Q702.669 2247.17 705.748 2247.17 Q706.187 2247.17 706.72 2247.24 Q707.252 2247.28 707.9 2247.4 L707.924 2251.78 Z" fill="#000000" fill-rule="evenodd" fill-opacity="1" /><path clip-path="url(#clip660)" d="M712.391 2247.79 L716.65 2247.79 L716.65 2273.72 L712.391 2273.72 L712.391 2247.79 M712.391 2237.7 L716.65 2237.7 L716.65 2243.1 L712.391 2243.1 L712.391 2237.7 Z" fill="#000000" fill-rule="evenodd" fill-opacity="1" /><path clip-path="url(#clip660)" d="M747.113 2258.07 L747.113 2273.72 L742.854 2273.72 L742.854 2258.21 Q742.854 2254.53 741.419 2252.7 Q739.984 2250.87 737.113 2250.87 Q733.664 2250.87 731.673 2253.07 Q729.683 2255.27 729.683 2259.07 L729.683 2273.72 L725.4 2273.72 L725.4 2247.79 L729.683 2247.79 L729.683 2251.82 Q731.21 2249.48 733.271 2248.33 Q735.354 2247.17 738.062 2247.17 Q742.53 2247.17 744.821 2249.95 Q747.113 2252.7 747.113 2258.07 Z" fill="#000000" fill-rule="evenodd" fill-opacity="1" /><path clip-path="url(#clip660)" d="M772.669 2260.46 Q772.669 2255.83 770.747 2253.28 Q768.849 2250.73 765.4 2250.73 Q761.974 2250.73 760.053 2253.28 Q758.155 2255.83 758.155 2260.46 Q758.155 2265.06 760.053 2267.61 Q761.974 2270.16 765.4 2270.16 Q768.849 2270.16 770.747 2267.61 Q772.669 2265.06 772.669 2260.46 M776.928 2270.5 Q776.928 2277.12 773.988 2280.34 Q771.048 2283.58 764.983 2283.58 Q762.738 2283.58 760.747 2283.23 Q758.757 2282.91 756.882 2282.22 L756.882 2278.07 Q758.757 2279.09 760.585 2279.58 Q762.414 2280.06 764.312 2280.06 Q768.502 2280.06 770.585 2277.86 Q772.669 2275.69 772.669 2271.27 L772.669 2269.16 Q771.349 2271.45 769.289 2272.59 Q767.229 2273.72 764.358 2273.72 Q759.59 2273.72 756.673 2270.09 Q753.757 2266.45 753.757 2260.46 Q753.757 2254.44 756.673 2250.8 Q759.59 2247.17 764.358 2247.17 Q767.229 2247.17 769.289 2248.3 Q771.349 2249.44 772.669 2251.73 L772.669 2247.79 L776.928 2247.79 L776.928 2270.5 Z" fill="#000000" fill-rule="evenodd" fill-opacity="1" /><path clip-path="url(#clip660)" d="M1301.03 2240.29 L1301.03 2244.85 Q1298.37 2243.58 1296.01 2242.96 Q1293.64 2242.33 1291.45 2242.33 Q1287.63 2242.33 1285.54 2243.81 Q1283.48 2245.29 1283.48 2248.03 Q1283.48 2250.32 1284.85 2251.5 Q1286.24 2252.66 1290.08 2253.37 L1292.9 2253.95 Q1298.14 2254.95 1300.61 2257.47 Q1303.11 2259.97 1303.11 2264.18 Q1303.11 2269.21 1299.73 2271.8 Q1296.38 2274.39 1289.87 2274.39 Q1287.42 2274.39 1284.64 2273.84 Q1281.89 2273.28 1278.92 2272.19 L1278.92 2267.38 Q1281.77 2268.97 1284.5 2269.78 Q1287.23 2270.59 1289.87 2270.59 Q1293.88 2270.59 1296.05 2269.02 Q1298.23 2267.45 1298.23 2264.53 Q1298.23 2261.98 1296.65 2260.55 Q1295.1 2259.11 1291.54 2258.4 L1288.69 2257.84 Q1283.46 2256.8 1281.12 2254.58 Q1278.78 2252.35 1278.78 2248.4 Q1278.78 2243.81 1282 2241.17 Q1285.24 2238.53 1290.91 2238.53 Q1293.34 2238.53 1295.87 2238.97 Q1298.39 2239.41 1301.03 2240.29 Z" fill="#000000" fill-rule="evenodd" fill-opacity="1" /><path clip-path="url(#clip660)" d="M1309.78 2263.49 L1309.78 2247.79 L1314.04 2247.79 L1314.04 2263.33 Q1314.04 2267.01 1315.47 2268.86 Q1316.91 2270.69 1319.78 2270.69 Q1323.23 2270.69 1325.22 2268.49 Q1327.23 2266.29 1327.23 2262.49 L1327.23 2247.79 L1331.49 2247.79 L1331.49 2273.72 L1327.23 2273.72 L1327.23 2269.74 Q1325.68 2272.1 1323.62 2273.26 Q1321.58 2274.39 1318.88 2274.39 Q1314.41 2274.39 1312.09 2271.61 Q1309.78 2268.84 1309.78 2263.49 M1320.5 2247.17 L1320.5 2247.17 Z" fill="#000000" fill-rule="evenodd" fill-opacity="1" /><path clip-path="url(#clip660)" d="M1360.45 2252.77 Q1362.05 2249.9 1364.27 2248.53 Q1366.49 2247.17 1369.5 2247.17 Q1373.55 2247.17 1375.75 2250.02 Q1377.95 2252.84 1377.95 2258.07 L1377.95 2273.72 L1373.67 2273.72 L1373.67 2258.21 Q1373.67 2254.48 1372.35 2252.68 Q1371.03 2250.87 1368.32 2250.87 Q1365.01 2250.87 1363.09 2253.07 Q1361.17 2255.27 1361.17 2259.07 L1361.17 2273.72 L1356.88 2273.72 L1356.88 2258.21 Q1356.88 2254.46 1355.57 2252.68 Q1354.25 2250.87 1351.49 2250.87 Q1348.23 2250.87 1346.31 2253.09 Q1344.39 2255.29 1344.39 2259.07 L1344.39 2273.72 L1340.1 2273.72 L1340.1 2247.79 L1344.39 2247.79 L1344.39 2251.82 Q1345.84 2249.44 1347.88 2248.3 Q1349.92 2247.17 1352.72 2247.17 Q1355.54 2247.17 1357.51 2248.6 Q1359.5 2250.04 1360.45 2252.77 Z" fill="#000000" fill-rule="evenodd" fill-opacity="1" /><path clip-path="url(#clip660)" d="M1406.63 2252.77 Q1408.23 2249.9 1410.45 2248.53 Q1412.67 2247.17 1415.68 2247.17 Q1419.73 2247.17 1421.93 2250.02 Q1424.13 2252.84 1424.13 2258.07 L1424.13 2273.72 L1419.85 2273.72 L1419.85 2258.21 Q1419.85 2254.48 1418.53 2252.68 Q1417.21 2250.87 1414.5 2250.87 Q1411.19 2250.87 1409.27 2253.07 Q1407.35 2255.27 1407.35 2259.07 L1407.35 2273.72 L1403.07 2273.72 L1403.07 2258.21 Q1403.07 2254.46 1401.75 2252.68 Q1400.43 2250.87 1397.67 2250.87 Q1394.41 2250.87 1392.49 2253.09 Q1390.57 2255.29 1390.57 2259.07 L1390.57 2273.72 L1386.28 2273.72 L1386.28 2247.79 L1390.57 2247.79 L1390.57 2251.82 Q1392.02 2249.44 1394.06 2248.3 Q1396.1 2247.17 1398.9 2247.17 Q1401.72 2247.17 1403.69 2248.6 Q1405.68 2250.04 1406.63 2252.77 Z" fill="#000000" fill-rule="evenodd" fill-opacity="1" /><path clip-path="url(#clip660)" d="M1454.8 2259.69 L1454.8 2261.78 L1435.22 2261.78 Q1435.5 2266.17 1437.86 2268.49 Q1440.24 2270.78 1444.48 2270.78 Q1446.93 2270.78 1449.22 2270.18 Q1451.54 2269.58 1453.81 2268.37 L1453.81 2272.4 Q1451.51 2273.37 1449.11 2273.88 Q1446.7 2274.39 1444.22 2274.39 Q1438.02 2274.39 1434.38 2270.78 Q1430.77 2267.17 1430.77 2261.01 Q1430.77 2254.65 1434.2 2250.92 Q1437.65 2247.17 1443.48 2247.17 Q1448.71 2247.17 1451.75 2250.55 Q1454.8 2253.91 1454.8 2259.69 M1450.54 2258.44 Q1450.5 2254.95 1448.57 2252.86 Q1446.68 2250.78 1443.53 2250.78 Q1439.96 2250.78 1437.81 2252.79 Q1435.68 2254.81 1435.36 2258.47 L1450.54 2258.44 Z" fill="#000000" fill-rule="evenodd" fill-opacity="1" /><path clip-path="url(#clip660)" d="M1476.81 2251.78 Q1476.1 2251.36 1475.24 2251.17 Q1474.41 2250.97 1473.39 2250.97 Q1469.78 2250.97 1467.83 2253.33 Q1465.91 2255.66 1465.91 2260.06 L1465.91 2273.72 L1461.63 2273.72 L1461.63 2247.79 L1465.91 2247.79 L1465.91 2251.82 Q1467.25 2249.46 1469.41 2248.33 Q1471.56 2247.17 1474.64 2247.17 Q1475.08 2247.17 1475.61 2247.24 Q1476.14 2247.28 1476.79 2247.4 L1476.81 2251.78 Z" fill="#000000" fill-rule="evenodd" fill-opacity="1" /><path clip-path="url(#clip660)" d="M1975.81 2243.77 L1969.47 2260.97 L1982.18 2260.97 L1975.81 2243.77 M1973.17 2239.16 L1978.47 2239.16 L1991.65 2273.72 L1986.78 2273.72 L1983.64 2264.85 L1968.06 2264.85 L1964.91 2273.72 L1959.98 2273.72 L1973.17 2239.16 Z" fill="#000000" fill-rule="evenodd" fill-opacity="1" /><path clip-path="url(#clip660)" d="M1996.07 2263.49 L1996.07 2247.79 L2000.33 2247.79 L2000.33 2263.33 Q2000.33 2267.01 2001.76 2268.86 Q2003.2 2270.69 2006.07 2270.69 Q2009.52 2270.69 2011.51 2268.49 Q2013.52 2266.29 2013.52 2262.49 L2013.52 2247.79 L2017.78 2247.79 L2017.78 2273.72 L2013.52 2273.72 L2013.52 2269.74 Q2011.97 2272.1 2009.91 2273.26 Q2007.87 2274.39 2005.16 2274.39 Q2000.7 2274.39 1998.38 2271.61 Q1996.07 2268.84 1996.07 2263.49 M2006.78 2247.17 L2006.78 2247.17 Z" fill="#000000" fill-rule="evenodd" fill-opacity="1" /><path clip-path="url(#clip660)" d="M2030.77 2240.43 L2030.77 2247.79 L2039.54 2247.79 L2039.54 2251.1 L2030.77 2251.1 L2030.77 2265.18 Q2030.77 2268.35 2031.62 2269.25 Q2032.5 2270.16 2035.16 2270.16 L2039.54 2270.16 L2039.54 2273.72 L2035.16 2273.72 Q2030.23 2273.72 2028.36 2271.89 Q2026.48 2270.04 2026.48 2265.18 L2026.48 2251.1 L2023.36 2251.1 L2023.36 2247.79 L2026.48 2247.79 L2026.48 2240.43 L2030.77 2240.43 Z" fill="#000000" fill-rule="evenodd" fill-opacity="1" /><path clip-path="url(#clip660)" d="M2044.7 2263.49 L2044.7 2247.79 L2048.96 2247.79 L2048.96 2263.33 Q2048.96 2267.01 2050.39 2268.86 Q2051.83 2270.69 2054.7 2270.69 Q2058.15 2270.69 2060.14 2268.49 Q2062.15 2266.29 2062.15 2262.49 L2062.15 2247.79 L2066.41 2247.79 L2066.41 2273.72 L2062.15 2273.72 L2062.15 2269.74 Q2060.6 2272.1 2058.54 2273.26 Q2056.51 2274.39 2053.8 2274.39 Q2049.33 2274.39 2047.02 2271.61 Q2044.7 2268.84 2044.7 2263.49 M2055.42 2247.17 L2055.42 2247.17 Z" fill="#000000" fill-rule="evenodd" fill-opacity="1" /><path clip-path="url(#clip660)" d="M2095.37 2252.77 Q2096.97 2249.9 2099.19 2248.53 Q2101.41 2247.17 2104.42 2247.17 Q2108.47 2247.17 2110.67 2250.02 Q2112.87 2252.84 2112.87 2258.07 L2112.87 2273.72 L2108.59 2273.72 L2108.59 2258.21 Q2108.59 2254.48 2107.27 2252.68 Q2105.95 2250.87 2103.24 2250.87 Q2099.93 2250.87 2098.01 2253.07 Q2096.09 2255.27 2096.09 2259.07 L2096.09 2273.72 L2091.81 2273.72 L2091.81 2258.21 Q2091.81 2254.46 2090.49 2252.68 Q2089.17 2250.87 2086.41 2250.87 Q2083.15 2250.87 2081.23 2253.09 Q2079.31 2255.29 2079.31 2259.07 L2079.31 2273.72 L2075.02 2273.72 L2075.02 2247.79 L2079.31 2247.79 L2079.31 2251.82 Q2080.76 2249.44 2082.8 2248.3 Q2084.84 2247.17 2087.64 2247.17 Q2090.46 2247.17 2092.43 2248.6 Q2094.42 2250.04 2095.37 2252.77 Z" fill="#000000" fill-rule="evenodd" fill-opacity="1" /><path clip-path="url(#clip660)" d="M2142.92 2258.07 L2142.92 2273.72 L2138.66 2273.72 L2138.66 2258.21 Q2138.66 2254.53 2137.22 2252.7 Q2135.79 2250.87 2132.92 2250.87 Q2129.47 2250.87 2127.48 2253.07 Q2125.49 2255.27 2125.49 2259.07 L2125.49 2273.72 L2121.2 2273.72 L2121.2 2247.79 L2125.49 2247.79 L2125.49 2251.82 Q2127.01 2249.48 2129.07 2248.33 Q2131.16 2247.17 2133.87 2247.17 Q2138.33 2247.17 2140.63 2249.95 Q2142.92 2252.7 2142.92 2258.07 Z" fill="#000000" fill-rule="evenodd" fill-opacity="1" /><path clip-path="url(#clip660)" d="M2647.74 2239.16 L2652.46 2239.16 L2659.73 2268.37 L2666.97 2239.16 L2672.23 2239.16 L2679.5 2268.37 L2686.74 2239.16 L2691.49 2239.16 L2682.81 2273.72 L2676.93 2273.72 L2669.63 2243.72 L2662.27 2273.72 L2656.39 2273.72 L2647.74 2239.16 Z" fill="#000000" fill-rule="evenodd" fill-opacity="1" /><path clip-path="url(#clip660)" d="M2696.46 2247.79 L2700.72 2247.79 L2700.72 2273.72 L2696.46 2273.72 L2696.46 2247.79 M2696.46 2237.7 L2700.72 2237.7 L2700.72 2243.1 L2696.46 2243.1 L2696.46 2237.7 Z" fill="#000000" fill-rule="evenodd" fill-opacity="1" /><path clip-path="url(#clip660)" d="M2731.18 2258.07 L2731.18 2273.72 L2726.93 2273.72 L2726.93 2258.21 Q2726.93 2254.53 2725.49 2252.7 Q2724.06 2250.87 2721.18 2250.87 Q2717.74 2250.87 2715.74 2253.07 Q2713.75 2255.27 2713.75 2259.07 L2713.75 2273.72 L2709.47 2273.72 L2709.47 2247.79 L2713.75 2247.79 L2713.75 2251.82 Q2715.28 2249.48 2717.34 2248.33 Q2719.43 2247.17 2722.13 2247.17 Q2726.6 2247.17 2728.89 2249.95 Q2731.18 2252.7 2731.18 2258.07 Z" fill="#000000" fill-rule="evenodd" fill-opacity="1" /><path clip-path="url(#clip660)" d="M2743.89 2240.43 L2743.89 2247.79 L2752.67 2247.79 L2752.67 2251.1 L2743.89 2251.1 L2743.89 2265.18 Q2743.89 2268.35 2744.75 2269.25 Q2745.63 2270.16 2748.29 2270.16 L2752.67 2270.16 L2752.67 2273.72 L2748.29 2273.72 Q2743.36 2273.72 2741.49 2271.89 Q2739.61 2270.04 2739.61 2265.18 L2739.61 2251.1 L2736.49 2251.1 L2736.49 2247.79 L2739.61 2247.79 L2739.61 2240.43 L2743.89 2240.43 Z" fill="#000000" fill-rule="evenodd" fill-opacity="1" /><path clip-path="url(#clip660)" d="M2780.44 2259.69 L2780.44 2261.78 L2760.86 2261.78 Q2761.14 2266.17 2763.5 2268.49 Q2765.88 2270.78 2770.12 2270.78 Q2772.57 2270.78 2774.86 2270.18 Q2777.18 2269.58 2779.45 2268.37 L2779.45 2272.4 Q2777.16 2273.37 2774.75 2273.88 Q2772.34 2274.39 2769.86 2274.39 Q2763.66 2274.39 2760.03 2270.78 Q2756.42 2267.17 2756.42 2261.01 Q2756.42 2254.65 2759.84 2250.92 Q2763.29 2247.17 2769.12 2247.17 Q2774.36 2247.17 2777.39 2250.55 Q2780.44 2253.91 2780.44 2259.69 M2776.18 2258.44 Q2776.14 2254.95 2774.22 2252.86 Q2772.32 2250.78 2769.17 2250.78 Q2765.61 2250.78 2763.45 2252.79 Q2761.32 2254.81 2761 2258.47 L2776.18 2258.44 Z" fill="#000000" fill-rule="evenodd" fill-opacity="1" /><path clip-path="url(#clip660)" d="M2802.46 2251.78 Q2801.74 2251.36 2800.88 2251.17 Q2800.05 2250.97 2799.03 2250.97 Q2795.42 2250.97 2793.48 2253.33 Q2791.55 2255.66 2791.55 2260.06 L2791.55 2273.72 L2787.27 2273.72 L2787.27 2247.79 L2791.55 2247.79 L2791.55 2251.82 Q2792.9 2249.46 2795.05 2248.33 Q2797.2 2247.17 2800.28 2247.17 Q2800.72 2247.17 2801.25 2247.24 Q2801.79 2247.28 2802.43 2247.4 L2802.46 2251.78 Z" fill="#000000" fill-rule="evenodd" fill-opacity="1" /><path clip-path="url(#clip660)" d="M1631.84 2315.82 L1631.84 2322.09 Q1628.18 2320.34 1624.93 2319.48 Q1621.68 2318.62 1618.66 2318.62 Q1613.41 2318.62 1610.54 2320.66 Q1607.71 2322.7 1607.71 2326.45 Q1607.71 2329.61 1609.59 2331.23 Q1611.5 2332.82 1616.78 2333.81 L1620.67 2334.6 Q1627.86 2335.97 1631.26 2339.44 Q1634.7 2342.88 1634.7 2348.67 Q1634.7 2355.58 1630.06 2359.14 Q1625.44 2362.71 1616.5 2362.71 Q1613.12 2362.71 1609.3 2361.94 Q1605.52 2361.18 1601.44 2359.68 L1601.44 2353.06 Q1605.36 2355.26 1609.11 2356.37 Q1612.87 2357.49 1616.5 2357.49 Q1622 2357.49 1624.99 2355.32 Q1627.99 2353.16 1627.99 2349.15 Q1627.99 2345.65 1625.82 2343.67 Q1623.69 2341.7 1618.79 2340.71 L1614.87 2339.95 Q1607.68 2338.52 1604.47 2335.46 Q1601.25 2332.41 1601.25 2326.96 Q1601.25 2320.66 1605.67 2317.03 Q1610.13 2313.4 1617.93 2313.4 Q1621.27 2313.4 1624.74 2314.01 Q1628.21 2314.61 1631.84 2315.82 Z" fill="#000000" fill-rule="evenodd" fill-opacity="1" /><path clip-path="url(#clip660)" d="M1674.97 2342.5 L1674.97 2345.36 L1648.04 2345.36 Q1648.42 2351.41 1651.67 2354.59 Q1654.95 2357.74 1660.77 2357.74 Q1664.14 2357.74 1667.29 2356.91 Q1670.48 2356.09 1673.6 2354.43 L1673.6 2359.97 Q1670.45 2361.31 1667.14 2362.01 Q1663.83 2362.71 1660.42 2362.71 Q1651.89 2362.71 1646.89 2357.74 Q1641.93 2352.78 1641.93 2344.31 Q1641.93 2335.56 1646.64 2330.43 Q1651.38 2325.28 1659.4 2325.28 Q1666.59 2325.28 1670.76 2329.92 Q1674.97 2334.54 1674.97 2342.5 M1669.11 2340.78 Q1669.05 2335.97 1666.4 2333.11 Q1663.79 2330.24 1659.46 2330.24 Q1654.56 2330.24 1651.6 2333.01 Q1648.67 2335.78 1648.23 2340.81 L1669.11 2340.78 Z" fill="#000000" fill-rule="evenodd" fill-opacity="1" /><path clip-path="url(#clip660)" d="M1700.78 2343.86 Q1693.68 2343.86 1690.94 2345.49 Q1688.21 2347.11 1688.21 2351.03 Q1688.21 2354.14 1690.24 2355.99 Q1692.31 2357.81 1695.84 2357.81 Q1700.71 2357.81 1703.64 2354.37 Q1706.6 2350.9 1706.6 2345.17 L1706.6 2343.86 L1700.78 2343.86 M1712.46 2341.45 L1712.46 2361.78 L1706.6 2361.78 L1706.6 2356.37 Q1704.6 2359.62 1701.61 2361.18 Q1698.61 2362.71 1694.29 2362.71 Q1688.81 2362.71 1685.56 2359.65 Q1682.35 2356.56 1682.35 2351.41 Q1682.35 2345.39 1686.36 2342.34 Q1690.4 2339.28 1698.39 2339.28 L1706.6 2339.28 L1706.6 2338.71 Q1706.6 2334.67 1703.93 2332.47 Q1701.29 2330.24 1696.48 2330.24 Q1693.43 2330.24 1690.53 2330.97 Q1687.63 2331.71 1684.96 2333.17 L1684.96 2327.76 Q1688.17 2326.52 1691.2 2325.91 Q1694.22 2325.28 1697.09 2325.28 Q1704.82 2325.28 1708.64 2329.29 Q1712.46 2333.3 1712.46 2341.45 Z" fill="#000000" fill-rule="evenodd" fill-opacity="1" /><path clip-path="url(#clip660)" d="M1747.25 2327.19 L1747.25 2332.72 Q1744.77 2331.45 1742.09 2330.81 Q1739.42 2330.18 1736.55 2330.18 Q1732.19 2330.18 1730 2331.51 Q1727.83 2332.85 1727.83 2335.53 Q1727.83 2337.56 1729.39 2338.74 Q1730.95 2339.89 1735.66 2340.94 L1737.67 2341.38 Q1743.91 2342.72 1746.52 2345.17 Q1749.16 2347.59 1749.16 2351.95 Q1749.16 2356.91 1745.21 2359.81 Q1741.3 2362.71 1734.42 2362.71 Q1731.56 2362.71 1728.44 2362.13 Q1725.35 2361.59 1721.91 2360.48 L1721.91 2354.43 Q1725.16 2356.12 1728.31 2356.98 Q1731.46 2357.81 1734.55 2357.81 Q1738.69 2357.81 1740.91 2356.4 Q1743.14 2354.97 1743.14 2352.39 Q1743.14 2350.01 1741.52 2348.73 Q1739.93 2347.46 1734.48 2346.28 L1732.45 2345.81 Q1727 2344.66 1724.59 2342.3 Q1722.17 2339.92 1722.17 2335.78 Q1722.17 2330.75 1725.73 2328.01 Q1729.3 2325.28 1735.85 2325.28 Q1739.1 2325.28 1741.96 2325.75 Q1744.83 2326.23 1747.25 2327.19 Z" fill="#000000" fill-rule="evenodd" fill-opacity="1" /><path clip-path="url(#clip660)" d="M1772.3 2330.24 Q1767.59 2330.24 1764.85 2333.93 Q1762.11 2337.59 1762.11 2343.99 Q1762.11 2350.39 1764.82 2354.08 Q1767.55 2357.74 1772.3 2357.74 Q1776.98 2357.74 1779.71 2354.05 Q1782.45 2350.36 1782.45 2343.99 Q1782.45 2337.66 1779.71 2333.97 Q1776.98 2330.24 1772.3 2330.24 M1772.3 2325.28 Q1779.94 2325.28 1784.3 2330.24 Q1788.66 2335.21 1788.66 2343.99 Q1788.66 2352.74 1784.3 2357.74 Q1779.94 2362.71 1772.3 2362.71 Q1764.63 2362.71 1760.27 2357.74 Q1755.94 2352.74 1755.94 2343.99 Q1755.94 2335.21 1760.27 2330.24 Q1764.63 2325.28 1772.3 2325.28 Z" fill="#000000" fill-rule="evenodd" fill-opacity="1" /><path clip-path="url(#clip660)" d="M1828 2340.27 L1828 2361.78 L1822.14 2361.78 L1822.14 2340.46 Q1822.14 2335.4 1820.17 2332.88 Q1818.19 2330.37 1814.25 2330.37 Q1809.5 2330.37 1806.77 2333.39 Q1804.03 2336.42 1804.03 2341.64 L1804.03 2361.78 L1798.14 2361.78 L1798.14 2326.14 L1804.03 2326.14 L1804.03 2331.67 Q1806.13 2328.46 1808.96 2326.87 Q1811.83 2325.28 1815.55 2325.28 Q1821.69 2325.28 1824.85 2329.1 Q1828 2332.88 1828 2340.27 Z" fill="#000000" fill-rule="evenodd" fill-opacity="1" /><polyline clip-path="url(#clip662)" style="stroke:#000000; stroke-linecap:round; stroke-linejoin:round; stroke-width:2; stroke-opacity:0.1; fill:none" points="
  276.491,2143.85 3152.76,2143.85 
  "/>
<polyline clip-path="url(#clip662)" style="stroke:#000000; stroke-linecap:round; stroke-linejoin:round; stroke-width:2; stroke-opacity:0.1; fill:none" points="
  276.491,1448.88 3152.76,1448.88 
  "/>
<polyline clip-path="url(#clip662)" style="stroke:#000000; stroke-linecap:round; stroke-linejoin:round; stroke-width:2; stroke-opacity:0.1; fill:none" points="
  276.491,753.897 3152.76,753.897 
  "/>
<polyline clip-path="url(#clip662)" style="stroke:#000000; stroke-linecap:round; stroke-linejoin:round; stroke-width:2; stroke-opacity:0.1; fill:none" points="
  276.491,58.9186 3152.76,58.9186 
  "/>
<polyline clip-path="url(#clip660)" style="stroke:#000000; stroke-linecap:round; stroke-linejoin:round; stroke-width:4; stroke-opacity:1; fill:none" points="
  276.491,2204.92 276.491,47.2441 
  "/>
<polyline clip-path="url(#clip660)" style="stroke:#000000; stroke-linecap:round; stroke-linejoin:round; stroke-width:4; stroke-opacity:1; fill:none" points="
  276.491,2143.85 295.389,2143.85 
  "/>
<polyline clip-path="url(#clip660)" style="stroke:#000000; stroke-linecap:round; stroke-linejoin:round; stroke-width:4; stroke-opacity:1; fill:none" points="
  276.491,1448.88 295.389,1448.88 
  "/>
<polyline clip-path="url(#clip660)" style="stroke:#000000; stroke-linecap:round; stroke-linejoin:round; stroke-width:4; stroke-opacity:1; fill:none" points="
  276.491,753.897 295.389,753.897 
  "/>
<polyline clip-path="url(#clip660)" style="stroke:#000000; stroke-linecap:round; stroke-linejoin:round; stroke-width:4; stroke-opacity:1; fill:none" points="
  276.491,58.9186 295.389,58.9186 
  "/>
<path clip-path="url(#clip660)" d="M216.547 2129.65 Q212.936 2129.65 211.107 2133.22 Q209.302 2136.76 209.302 2143.89 Q209.302 2150.99 211.107 2154.56 Q212.936 2158.1 216.547 2158.1 Q220.181 2158.1 221.987 2154.56 Q223.815 2150.99 223.815 2143.89 Q223.815 2136.76 221.987 2133.22 Q220.181 2129.65 216.547 2129.65 M216.547 2125.95 Q222.357 2125.95 225.413 2130.56 Q228.491 2135.14 228.491 2143.89 Q228.491 2152.62 225.413 2157.22 Q222.357 2161.8 216.547 2161.8 Q210.737 2161.8 207.658 2157.22 Q204.602 2152.62 204.602 2143.89 Q204.602 2135.14 207.658 2130.56 Q210.737 2125.95 216.547 2125.95 Z" fill="#000000" fill-rule="evenodd" fill-opacity="1" /><path clip-path="url(#clip660)" d="M146.269 1431.6 L164.626 1431.6 L164.626 1435.53 L150.552 1435.53 L150.552 1444 Q151.57 1443.66 152.589 1443.49 Q153.607 1443.31 154.626 1443.31 Q160.413 1443.31 163.792 1446.48 Q167.172 1449.65 167.172 1455.07 Q167.172 1460.65 163.7 1463.75 Q160.228 1466.83 153.908 1466.83 Q151.732 1466.83 149.464 1466.46 Q147.219 1466.09 144.811 1465.35 L144.811 1460.65 Q146.894 1461.78 149.117 1462.34 Q151.339 1462.89 153.816 1462.89 Q157.82 1462.89 160.158 1460.78 Q162.496 1458.68 162.496 1455.07 Q162.496 1451.46 160.158 1449.35 Q157.82 1447.24 153.816 1447.24 Q151.941 1447.24 150.066 1447.66 Q148.214 1448.08 146.269 1448.96 L146.269 1431.6 Z" fill="#000000" fill-rule="evenodd" fill-opacity="1" /><path clip-path="url(#clip660)" d="M186.385 1434.67 Q182.774 1434.67 180.945 1438.24 Q179.14 1441.78 179.14 1448.91 Q179.14 1456.02 180.945 1459.58 Q182.774 1463.12 186.385 1463.12 Q190.019 1463.12 191.825 1459.58 Q193.653 1456.02 193.653 1448.91 Q193.653 1441.78 191.825 1438.24 Q190.019 1434.67 186.385 1434.67 M186.385 1430.97 Q192.195 1430.97 195.251 1435.58 Q198.329 1440.16 198.329 1448.91 Q198.329 1457.64 195.251 1462.24 Q192.195 1466.83 186.385 1466.83 Q180.575 1466.83 177.496 1462.24 Q174.441 1457.64 174.441 1448.91 Q174.441 1440.16 177.496 1435.58 Q180.575 1430.97 186.385 1430.97 Z" fill="#000000" fill-rule="evenodd" fill-opacity="1" /><path clip-path="url(#clip660)" d="M216.547 1434.67 Q212.936 1434.67 211.107 1438.24 Q209.302 1441.78 209.302 1448.91 Q209.302 1456.02 211.107 1459.58 Q212.936 1463.12 216.547 1463.12 Q220.181 1463.12 221.987 1459.58 Q223.815 1456.02 223.815 1448.91 Q223.815 1441.78 221.987 1438.24 Q220.181 1434.67 216.547 1434.67 M216.547 1430.97 Q222.357 1430.97 225.413 1435.58 Q228.491 1440.16 228.491 1448.91 Q228.491 1457.64 225.413 1462.24 Q222.357 1466.83 216.547 1466.83 Q210.737 1466.83 207.658 1462.24 Q204.602 1457.64 204.602 1448.91 Q204.602 1440.16 207.658 1435.58 Q210.737 1430.97 216.547 1430.97 Z" fill="#000000" fill-rule="evenodd" fill-opacity="1" /><path clip-path="url(#clip660)" d="M116.871 767.242 L124.51 767.242 L124.51 740.876 L116.2 742.543 L116.2 738.284 L124.464 736.617 L129.14 736.617 L129.14 767.242 L136.779 767.242 L136.779 771.177 L116.871 771.177 L116.871 767.242 Z" fill="#000000" fill-rule="evenodd" fill-opacity="1" /><path clip-path="url(#clip660)" d="M156.223 739.696 Q152.612 739.696 150.783 743.26 Q148.978 746.802 148.978 753.932 Q148.978 761.038 150.783 764.603 Q152.612 768.145 156.223 768.145 Q159.857 768.145 161.663 764.603 Q163.492 761.038 163.492 753.932 Q163.492 746.802 161.663 743.26 Q159.857 739.696 156.223 739.696 M156.223 735.992 Q162.033 735.992 165.089 740.598 Q168.167 745.182 168.167 753.932 Q168.167 762.658 165.089 767.265 Q162.033 771.848 156.223 771.848 Q150.413 771.848 147.334 767.265 Q144.279 762.658 144.279 753.932 Q144.279 745.182 147.334 740.598 Q150.413 735.992 156.223 735.992 Z" fill="#000000" fill-rule="evenodd" fill-opacity="1" /><path clip-path="url(#clip660)" d="M186.385 739.696 Q182.774 739.696 180.945 743.26 Q179.14 746.802 179.14 753.932 Q179.14 761.038 180.945 764.603 Q182.774 768.145 186.385 768.145 Q190.019 768.145 191.825 764.603 Q193.653 761.038 193.653 753.932 Q193.653 746.802 191.825 743.26 Q190.019 739.696 186.385 739.696 M186.385 735.992 Q192.195 735.992 195.251 740.598 Q198.329 745.182 198.329 753.932 Q198.329 762.658 195.251 767.265 Q192.195 771.848 186.385 771.848 Q180.575 771.848 177.496 767.265 Q174.441 762.658 174.441 753.932 Q174.441 745.182 177.496 740.598 Q180.575 735.992 186.385 735.992 Z" fill="#000000" fill-rule="evenodd" fill-opacity="1" /><path clip-path="url(#clip660)" d="M216.547 739.696 Q212.936 739.696 211.107 743.26 Q209.302 746.802 209.302 753.932 Q209.302 761.038 211.107 764.603 Q212.936 768.145 216.547 768.145 Q220.181 768.145 221.987 764.603 Q223.815 761.038 223.815 753.932 Q223.815 746.802 221.987 743.26 Q220.181 739.696 216.547 739.696 M216.547 735.992 Q222.357 735.992 225.413 740.598 Q228.491 745.182 228.491 753.932 Q228.491 762.658 225.413 767.265 Q222.357 771.848 216.547 771.848 Q210.737 771.848 207.658 767.265 Q204.602 762.658 204.602 753.932 Q204.602 745.182 207.658 740.598 Q210.737 735.992 216.547 735.992 Z" fill="#000000" fill-rule="evenodd" fill-opacity="1" /><path clip-path="url(#clip660)" d="M116.871 72.2634 L124.51 72.2634 L124.51 45.8978 L116.2 47.5645 L116.2 43.3053 L124.464 41.6386 L129.14 41.6386 L129.14 72.2634 L136.779 72.2634 L136.779 76.1986 L116.871 76.1986 L116.871 72.2634 Z" fill="#000000" fill-rule="evenodd" fill-opacity="1" /><path clip-path="url(#clip660)" d="M146.269 41.6386 L164.626 41.6386 L164.626 45.5738 L150.552 45.5738 L150.552 54.046 Q151.57 53.6987 152.589 53.5367 Q153.607 53.3515 154.626 53.3515 Q160.413 53.3515 163.792 56.5228 Q167.172 59.6941 167.172 65.1107 Q167.172 70.6894 163.7 73.7912 Q160.228 76.8699 153.908 76.8699 Q151.732 76.8699 149.464 76.4995 Q147.219 76.1292 144.811 75.3884 L144.811 70.6894 Q146.894 71.8236 149.117 72.3792 Q151.339 72.9347 153.816 72.9347 Q157.82 72.9347 160.158 70.8283 Q162.496 68.7218 162.496 65.1107 Q162.496 61.4996 160.158 59.3931 Q157.82 57.2867 153.816 57.2867 Q151.941 57.2867 150.066 57.7033 Q148.214 58.12 146.269 58.9996 L146.269 41.6386 Z" fill="#000000" fill-rule="evenodd" fill-opacity="1" /><path clip-path="url(#clip660)" d="M186.385 44.7173 Q182.774 44.7173 180.945 48.2821 Q179.14 51.8237 179.14 58.9533 Q179.14 66.0598 180.945 69.6246 Q182.774 73.1662 186.385 73.1662 Q190.019 73.1662 191.825 69.6246 Q193.653 66.0598 193.653 58.9533 Q193.653 51.8237 191.825 48.2821 Q190.019 44.7173 186.385 44.7173 M186.385 41.0136 Q192.195 41.0136 195.251 45.6201 Q198.329 50.2034 198.329 58.9533 Q198.329 67.6801 195.251 72.2866 Q192.195 76.8699 186.385 76.8699 Q180.575 76.8699 177.496 72.2866 Q174.441 67.6801 174.441 58.9533 Q174.441 50.2034 177.496 45.6201 Q180.575 41.0136 186.385 41.0136 Z" fill="#000000" fill-rule="evenodd" fill-opacity="1" /><path clip-path="url(#clip660)" d="M216.547 44.7173 Q212.936 44.7173 211.107 48.2821 Q209.302 51.8237 209.302 58.9533 Q209.302 66.0598 211.107 69.6246 Q212.936 73.1662 216.547 73.1662 Q220.181 73.1662 221.987 69.6246 Q223.815 66.0598 223.815 58.9533 Q223.815 51.8237 221.987 48.2821 Q220.181 44.7173 216.547 44.7173 M216.547 41.0136 Q222.357 41.0136 225.413 45.6201 Q228.491 50.2034 228.491 58.9533 Q228.491 67.6801 225.413 72.2866 Q222.357 76.8699 216.547 76.8699 Q210.737 76.8699 207.658 72.2866 Q204.602 67.6801 204.602 58.9533 Q204.602 50.2034 207.658 45.6201 Q210.737 41.0136 216.547 41.0136 Z" fill="#000000" fill-rule="evenodd" fill-opacity="1" /><path clip-path="url(#clip660)" d="M6.42416 1490.25 L6.42416 1481.59 L46.178 1460.52 L6.42416 1460.52 L6.42416 1454.28 L53.9442 1454.28 L53.9442 1462.94 L14.1903 1484.01 L53.9442 1484.01 L53.9442 1490.25 L6.42416 1490.25 Z" fill="#000000" fill-rule="evenodd" fill-opacity="1" /><path clip-path="url(#clip660)" d="M34.6561 1411.25 L37.5206 1411.25 L37.5206 1438.18 Q43.5681 1437.79 46.7509 1434.55 Q49.9019 1431.27 49.9019 1425.45 Q49.9019 1422.07 49.0744 1418.92 Q48.2469 1415.74 46.5918 1412.62 L52.1299 1412.62 Q53.4667 1415.77 54.167 1419.08 Q54.8672 1422.39 54.8672 1425.8 Q54.8672 1434.33 49.9019 1439.32 Q44.9367 1444.29 36.4703 1444.29 Q27.7174 1444.29 22.5931 1439.58 Q17.4368 1434.83 17.4368 1426.81 Q17.4368 1419.62 22.0838 1415.45 Q26.6989 1411.25 34.6561 1411.25 M32.9373 1417.11 Q28.1312 1417.17 25.2666 1419.81 Q22.4021 1422.42 22.4021 1426.75 Q22.4021 1431.65 25.1712 1434.61 Q27.9402 1437.54 32.9692 1437.99 L32.9373 1417.11 Z" fill="#000000" fill-rule="evenodd" fill-opacity="1" /><path clip-path="url(#clip660)" d="M18.2962 1405.04 L18.2962 1399.19 L46.1143 1391.87 L18.2962 1384.58 L18.2962 1377.67 L46.1143 1370.35 L18.2962 1363.06 L18.2962 1357.2 L53.9442 1366.53 L53.9442 1373.44 L24.7256 1381.11 L53.9442 1388.81 L53.9442 1395.72 L18.2962 1405.04 Z" fill="#000000" fill-rule="evenodd" fill-opacity="1" /><path clip-path="url(#clip660)" d="M36.152 1302.01 Q29.6908 1302.01 26.0305 1304.69 Q22.3384 1307.33 22.3384 1311.98 Q22.3384 1316.62 26.0305 1319.3 Q29.6908 1321.94 36.152 1321.94 Q42.6132 1321.94 46.3053 1319.3 Q49.9656 1316.62 49.9656 1311.98 Q49.9656 1307.33 46.3053 1304.69 Q42.6132 1302.01 36.152 1302.01 M23.7071 1321.94 Q20.5242 1320.09 18.9964 1317.29 Q17.4368 1314.46 17.4368 1310.54 Q17.4368 1304.05 22.5931 1300.01 Q27.7493 1295.93 36.152 1295.93 Q44.5547 1295.93 49.711 1300.01 Q54.8672 1304.05 54.8672 1310.54 Q54.8672 1314.46 53.3394 1317.29 Q51.7798 1320.09 48.597 1321.94 L53.9442 1321.94 L53.9442 1327.83 L4.41896 1327.83 L4.41896 1321.94 L23.7071 1321.94 Z" fill="#000000" fill-rule="evenodd" fill-opacity="1" /><path clip-path="url(#clip660)" d="M18.2962 1286.23 L18.2962 1280.37 L53.9442 1280.37 L53.9442 1286.23 L18.2962 1286.23 M4.41896 1286.23 L4.41896 1280.37 L11.835 1280.37 L11.835 1286.23 L4.41896 1286.23 Z" fill="#000000" fill-rule="evenodd" fill-opacity="1" /><path clip-path="url(#clip660)" d="M4.41896 1268.34 L4.41896 1262.45 L33.6694 1262.45 L18.2962 1244.98 L18.2962 1237.5 L34.9744 1256.4 L53.9442 1236.7 L53.9442 1244.34 L36.5339 1262.45 L53.9442 1262.45 L53.9442 1268.34 L4.41896 1268.34 Z" fill="#000000" fill-rule="evenodd" fill-opacity="1" /><path clip-path="url(#clip660)" d="M34.6561 1202.2 L37.5206 1202.2 L37.5206 1229.13 Q43.5681 1228.74 46.7509 1225.5 Q49.9019 1222.22 49.9019 1216.4 Q49.9019 1213.02 49.0744 1209.87 Q48.2469 1206.69 46.5918 1203.57 L52.1299 1203.57 Q53.4667 1206.72 54.167 1210.03 Q54.8672 1213.34 54.8672 1216.75 Q54.8672 1225.28 49.9019 1230.27 Q44.9367 1235.24 36.4703 1235.24 Q27.7174 1235.24 22.5931 1230.53 Q17.4368 1225.78 17.4368 1217.76 Q17.4368 1210.57 22.0838 1206.4 Q26.6989 1202.2 34.6561 1202.2 M32.9373 1208.06 Q28.1312 1208.12 25.2666 1210.76 Q22.4021 1213.37 22.4021 1217.7 Q22.4021 1222.6 25.1712 1225.56 Q27.9402 1228.49 32.9692 1228.94 L32.9373 1208.06 Z" fill="#000000" fill-rule="evenodd" fill-opacity="1" /><path clip-path="url(#clip660)" d="M19.3465 1149.14 L24.8847 1149.14 Q23.6116 1151.62 22.975 1154.3 Q22.3384 1156.97 22.3384 1159.84 Q22.3384 1164.2 23.6752 1166.39 Q25.012 1168.56 27.6856 1168.56 Q29.7226 1168.56 30.9003 1167 Q32.0461 1165.44 33.0965 1160.73 L33.5421 1158.72 Q34.8789 1152.48 37.3297 1149.87 Q39.7486 1147.23 44.1091 1147.23 Q49.0744 1147.23 51.9708 1151.18 Q54.8672 1155.09 54.8672 1161.97 Q54.8672 1164.83 54.2943 1167.95 Q53.7532 1171.04 52.6392 1174.48 L46.5918 1174.48 Q48.2787 1171.23 49.138 1168.08 Q49.9656 1164.93 49.9656 1161.84 Q49.9656 1157.7 48.5651 1155.48 Q47.1329 1153.25 44.5547 1153.25 Q42.1676 1153.25 40.8945 1154.87 Q39.6213 1156.46 38.4437 1161.9 L37.9662 1163.94 Q36.8204 1169.38 34.4651 1171.8 Q32.078 1174.22 27.9402 1174.22 Q22.9113 1174.22 20.1741 1170.66 Q17.4368 1167.09 17.4368 1160.54 Q17.4368 1157.29 17.9143 1154.43 Q18.3917 1151.56 19.3465 1149.14 Z" fill="#000000" fill-rule="evenodd" fill-opacity="1" /><path clip-path="url(#clip660)" d="M32.4281 1108.27 L53.9442 1108.27 L53.9442 1114.13 L32.619 1114.13 Q27.5583 1114.13 25.0438 1116.1 Q22.5294 1118.08 22.5294 1122.02 Q22.5294 1126.77 25.5531 1129.5 Q28.5768 1132.24 33.7967 1132.24 L53.9442 1132.24 L53.9442 1138.13 L4.41896 1138.13 L4.41896 1132.24 L23.8344 1132.24 Q20.6197 1130.14 19.0283 1127.31 Q17.4368 1124.44 17.4368 1120.72 Q17.4368 1114.58 21.2563 1111.42 Q25.0438 1108.27 32.4281 1108.27 Z" fill="#000000" fill-rule="evenodd" fill-opacity="1" /><path clip-path="url(#clip660)" d="M36.0247 1080.39 Q36.0247 1087.49 37.6479 1090.23 Q39.2712 1092.96 43.1861 1092.96 Q46.3053 1092.96 48.1514 1090.93 Q49.9656 1088.86 49.9656 1085.33 Q49.9656 1080.46 46.5281 1077.53 Q43.0588 1074.57 37.3297 1074.57 L36.0247 1074.57 L36.0247 1080.39 M33.6057 1068.71 L53.9442 1068.71 L53.9442 1074.57 L48.5333 1074.57 Q51.7798 1076.57 53.3394 1079.56 Q54.8672 1082.56 54.8672 1086.89 Q54.8672 1092.36 51.8116 1095.61 Q48.7243 1098.82 43.5681 1098.82 Q37.5525 1098.82 34.4969 1094.81 Q31.4414 1090.77 31.4414 1082.78 L31.4414 1074.57 L30.8685 1074.57 Q26.8262 1074.57 24.6301 1077.24 Q22.4021 1079.88 22.4021 1084.69 Q22.4021 1087.74 23.1341 1090.64 Q23.8662 1093.54 25.3303 1096.21 L19.9195 1096.21 Q18.6781 1093 18.0734 1089.97 Q17.4368 1086.95 17.4368 1084.08 Q17.4368 1076.35 21.4472 1072.53 Q25.4576 1068.71 33.6057 1068.71 Z" fill="#000000" fill-rule="evenodd" fill-opacity="1" /><path clip-path="url(#clip660)" d="M23.7707 1035.99 Q23.1978 1036.98 22.9432 1038.16 Q22.6567 1039.3 22.6567 1040.7 Q22.6567 1045.67 25.9032 1048.34 Q29.1179 1050.98 35.1653 1050.98 L53.9442 1050.98 L53.9442 1056.87 L18.2962 1056.87 L18.2962 1050.98 L23.8344 1050.98 Q20.5879 1049.14 19.0283 1046.18 Q17.4368 1043.22 17.4368 1038.98 Q17.4368 1038.38 17.5323 1037.65 Q17.596 1036.91 17.7551 1036.02 L23.7707 1035.99 Z" fill="#000000" fill-rule="evenodd" fill-opacity="1" /><path clip-path="url(#clip660)" d="M34.6561 1000.79 L37.5206 1000.79 L37.5206 1027.72 Q43.5681 1027.33 46.7509 1024.09 Q49.9019 1020.81 49.9019 1014.98 Q49.9019 1011.61 49.0744 1008.46 Q48.2469 1005.28 46.5918 1002.16 L52.1299 1002.16 Q53.4667 1005.31 54.167 1008.62 Q54.8672 1011.93 54.8672 1015.33 Q54.8672 1023.86 49.9019 1028.86 Q44.9367 1033.83 36.4703 1033.83 Q27.7174 1033.83 22.5931 1029.12 Q17.4368 1024.37 17.4368 1016.35 Q17.4368 1009.16 22.0838 1004.99 Q26.6989 1000.79 34.6561 1000.79 M32.9373 1006.65 Q28.1312 1006.71 25.2666 1009.35 Q22.4021 1011.96 22.4021 1016.29 Q22.4021 1021.19 25.1712 1024.15 Q27.9402 1027.08 32.9692 1027.52 L32.9373 1006.65 Z" fill="#000000" fill-rule="evenodd" fill-opacity="1" /><path clip-path="url(#clip660)" d="M19.6648 944.803 L25.1393 944.803 Q23.7707 947.285 23.1023 949.8 Q22.4021 952.282 22.4021 954.829 Q22.4021 960.526 26.0305 963.677 Q29.6272 966.828 36.152 966.828 Q42.6769 966.828 46.3053 963.677 Q49.9019 960.526 49.9019 954.829 Q49.9019 952.282 49.2335 949.8 Q48.5333 947.285 47.1647 944.803 L52.5755 944.803 Q53.7214 947.253 54.2943 949.895 Q54.8672 952.505 54.8672 955.465 Q54.8672 963.518 49.8064 968.26 Q44.7457 973.003 36.152 973.003 Q27.431 973.003 22.4339 968.228 Q17.4368 963.422 17.4368 955.083 Q17.4368 952.378 18.0097 949.8 Q18.5508 947.222 19.6648 944.803 Z" fill="#000000" fill-rule="evenodd" fill-opacity="1" /><path clip-path="url(#clip660)" d="M22.4021 920.804 Q22.4021 925.514 26.0942 928.252 Q29.7545 930.989 36.152 930.989 Q42.5495 930.989 46.2417 928.284 Q49.9019 925.546 49.9019 920.804 Q49.9019 916.125 46.2098 913.388 Q42.5177 910.651 36.152 910.651 Q29.8181 910.651 26.126 913.388 Q22.4021 916.125 22.4021 920.804 M17.4368 920.804 Q17.4368 913.165 22.4021 908.804 Q27.3673 904.444 36.152 904.444 Q44.9049 904.444 49.9019 908.804 Q54.8672 913.165 54.8672 920.804 Q54.8672 928.475 49.9019 932.835 Q44.9049 937.164 36.152 937.164 Q27.3673 937.164 22.4021 932.835 Q17.4368 928.475 17.4368 920.804 Z" fill="#000000" fill-rule="evenodd" fill-opacity="1" /><path clip-path="url(#clip660)" d="M39.8759 895.341 L18.2962 895.341 L18.2962 889.485 L39.6531 889.485 Q44.7139 889.485 47.2602 887.511 Q49.7746 885.538 49.7746 881.591 Q49.7746 876.849 46.7509 874.111 Q43.7272 871.342 38.5073 871.342 L18.2962 871.342 L18.2962 865.486 L53.9442 865.486 L53.9442 871.342 L48.4696 871.342 Q51.7162 873.475 53.3076 876.308 Q54.8672 879.108 54.8672 882.832 Q54.8672 888.975 51.0478 892.158 Q47.2283 895.341 39.8759 895.341 M17.4368 880.604 L17.4368 880.604 Z" fill="#000000" fill-rule="evenodd" fill-opacity="1" /><path clip-path="url(#clip660)" d="M32.4281 823.79 L53.9442 823.79 L53.9442 829.647 L32.619 829.647 Q27.5583 829.647 25.0438 831.62 Q22.5294 833.594 22.5294 837.54 Q22.5294 842.283 25.5531 845.02 Q28.5768 847.757 33.7967 847.757 L53.9442 847.757 L53.9442 853.646 L18.2962 853.646 L18.2962 847.757 L23.8344 847.757 Q20.6197 845.657 19.0283 842.824 Q17.4368 839.959 17.4368 836.235 Q17.4368 830.093 21.2563 826.941 Q25.0438 823.79 32.4281 823.79 Z" fill="#000000" fill-rule="evenodd" fill-opacity="1" /><path clip-path="url(#clip660)" d="M8.17473 806.317 L18.2962 806.317 L18.2962 794.254 L22.8477 794.254 L22.8477 806.317 L42.1994 806.317 Q46.5599 806.317 47.8013 805.139 Q49.0426 803.929 49.0426 800.269 L49.0426 794.254 L53.9442 794.254 L53.9442 800.269 Q53.9442 807.049 51.4297 809.627 Q48.8834 812.205 42.1994 812.205 L22.8477 812.205 L22.8477 816.502 L18.2962 816.502 L18.2962 812.205 L8.17473 812.205 L8.17473 806.317 Z" fill="#000000" fill-rule="evenodd" fill-opacity="1" /><path clip-path="url(#clip660)" d="M19.3465 763.826 L24.8847 763.826 Q23.6116 766.308 22.975 768.982 Q22.3384 771.655 22.3384 774.52 Q22.3384 778.88 23.6752 781.077 Q25.012 783.241 27.6856 783.241 Q29.7226 783.241 30.9003 781.681 Q32.0461 780.122 33.0965 775.411 L33.5421 773.406 Q34.8789 767.168 37.3297 764.558 Q39.7486 761.916 44.1091 761.916 Q49.0744 761.916 51.9708 765.863 Q54.8672 769.777 54.8672 776.652 Q54.8672 779.517 54.2943 782.636 Q53.7532 785.724 52.6392 789.161 L46.5918 789.161 Q48.2787 785.915 49.138 782.763 Q49.9656 779.612 49.9656 776.525 Q49.9656 772.387 48.5651 770.159 Q47.1329 767.931 44.5547 767.931 Q42.1676 767.931 40.8945 769.555 Q39.6213 771.146 38.4437 776.589 L37.9662 778.626 Q36.8204 784.068 34.4651 786.487 Q32.078 788.906 27.9402 788.906 Q22.9113 788.906 20.1741 785.342 Q17.4368 781.777 17.4368 775.22 Q17.4368 771.974 17.9143 769.109 Q18.3917 766.244 19.3465 763.826 Z" fill="#000000" fill-rule="evenodd" fill-opacity="1" /><path clip-path="url(#clip662)" d="
M434.691 609.576 L434.691 2143.85 L973.61 2143.85 L973.61 609.576 L434.691 609.576 L434.691 609.576  Z
  " fill="#009af9" fill-rule="evenodd" fill-opacity="1"/>
<polyline clip-path="url(#clip662)" style="stroke:#000000; stroke-linecap:round; stroke-linejoin:round; stroke-width:4; stroke-opacity:1; fill:none" points="
  434.691,609.576 434.691,2143.85 973.61,2143.85 973.61,609.576 434.691,609.576 
  "/>
<path clip-path="url(#clip662)" d="
M1108.34 108.31 L1108.34 2143.85 L1647.26 2143.85 L1647.26 108.31 L1108.34 108.31 L1108.34 108.31  Z
  " fill="#009af9" fill-rule="evenodd" fill-opacity="1"/>
<polyline clip-path="url(#clip662)" style="stroke:#000000; stroke-linecap:round; stroke-linejoin:round; stroke-width:4; stroke-opacity:1; fill:none" points="
  1108.34,108.31 1108.34,2143.85 1647.26,2143.85 1647.26,108.31 1108.34,108.31 
  "/>
<path clip-path="url(#clip662)" d="
M1781.99 505.158 L1781.99 2143.85 L2320.91 2143.85 L2320.91 505.158 L1781.99 505.158 L1781.99 505.158  Z
  " fill="#009af9" fill-rule="evenodd" fill-opacity="1"/>
<polyline clip-path="url(#clip662)" style="stroke:#000000; stroke-linecap:round; stroke-linejoin:round; stroke-width:4; stroke-opacity:1; fill:none" points="
  1781.99,505.158 1781.99,2143.85 2320.91,2143.85 2320.91,505.158 1781.99,505.158 
  "/>
<path clip-path="url(#clip662)" d="
M2455.64 1001.69 L2455.64 2143.85 L2994.56 2143.85 L2994.56 1001.69 L2455.64 1001.69 L2455.64 1001.69  Z
  " fill="#009af9" fill-rule="evenodd" fill-opacity="1"/>
<polyline clip-path="url(#clip662)" style="stroke:#000000; stroke-linecap:round; stroke-linejoin:round; stroke-width:4; stroke-opacity:1; fill:none" points="
  2455.64,1001.69 2455.64,2143.85 2994.56,2143.85 2994.56,1001.69 2455.64,1001.69 
  "/>
<circle clip-path="url(#clip662)" style="fill:#009af9; stroke:none; fill-opacity:0" cx="704.15" cy="609.576" r="2"/>
<circle clip-path="url(#clip662)" style="fill:#009af9; stroke:none; fill-opacity:0" cx="1377.8" cy="108.31" r="2"/>
<circle clip-path="url(#clip662)" style="fill:#009af9; stroke:none; fill-opacity:0" cx="2051.45" cy="505.158" r="2"/>
<circle clip-path="url(#clip662)" style="fill:#009af9; stroke:none; fill-opacity:0" cx="2725.1" cy="1001.69" r="2"/>
</svg>
