<?xml version="1.0" encoding="utf-8"?>
<svg xmlns="http://www.w3.org/2000/svg" xmlns:xlink="http://www.w3.org/1999/xlink" width="600" height="300" viewBox="0 0 2400 1200">
<defs>
  <clipPath id="clip590">
    <rect x="0" y="0" width="2400" height="1200"/>
  </clipPath>
</defs>
<path clip-path="url(#clip590)" d="
M0 1200 L2400 1200 L2400 0 L0 0  Z
  " fill="#ffffff" fill-rule="evenodd" fill-opacity="1"/>
<defs>
  <clipPath id="clip591">
    <rect x="480" y="0" width="1681" height="1200"/>
  </clipPath>
</defs>
<path clip-path="url(#clip590)" d="
M252.407 1047.7 L2352.76 1047.7 L2352.76 108.352 L252.407 108.352  Z
  " fill="#ffffff" fill-rule="evenodd" fill-opacity="1"/>
<defs>
  <clipPath id="clip592">
    <rect x="252" y="108" width="2101" height="940"/>
  </clipPath>
</defs>
<polyline clip-path="url(#clip592)" style="stroke:#000000; stroke-linecap:round; stroke-linejoin:round; stroke-width:2; stroke-opacity:0.1; fill:none" points="
  399.347,1047.7 399.347,108.352 
  "/>
<polyline clip-path="url(#clip592)" style="stroke:#000000; stroke-linecap:round; stroke-linejoin:round; stroke-width:2; stroke-opacity:0.1; fill:none" points="
  835.692,1047.7 835.692,108.352 
  "/>
<polyline clip-path="url(#clip592)" style="stroke:#000000; stroke-linecap:round; stroke-linejoin:round; stroke-width:2; stroke-opacity:0.1; fill:none" points="
  1272.04,1047.7 1272.04,108.352 
  "/>
<polyline clip-path="url(#clip592)" style="stroke:#000000; stroke-linecap:round; stroke-linejoin:round; stroke-width:2; stroke-opacity:0.1; fill:none" points="
  1708.38,1047.7 1708.38,108.352 
  "/>
<polyline clip-path="url(#clip592)" style="stroke:#000000; stroke-linecap:round; stroke-linejoin:round; stroke-width:2; stroke-opacity:0.1; fill:none" points="
  2144.73,1047.7 2144.73,108.352 
  "/>
<polyline clip-path="url(#clip590)" style="stroke:#000000; stroke-linecap:round; stroke-linejoin:round; stroke-width:4; stroke-opacity:1; fill:none" points="
  252.407,1047.7 2352.76,1047.7 
  "/>
<polyline clip-path="url(#clip590)" style="stroke:#000000; stroke-linecap:round; stroke-linejoin:round; stroke-width:4; stroke-opacity:1; fill:none" points="
  399.347,1047.7 399.347,1028.8 
  "/>
<polyline clip-path="url(#clip590)" style="stroke:#000000; stroke-linecap:round; stroke-linejoin:round; stroke-width:4; stroke-opacity:1; fill:none" points="
  835.692,1047.7 835.692,1028.8 
  "/>
<polyline clip-path="url(#clip590)" style="stroke:#000000; stroke-linecap:round; stroke-linejoin:round; stroke-width:4; stroke-opacity:1; fill:none" points="
  1272.04,1047.7 1272.04,1028.8 
  "/>
<polyline clip-path="url(#clip590)" style="stroke:#000000; stroke-linecap:round; stroke-linejoin:round; stroke-width:4; stroke-opacity:1; fill:none" points="
  1708.38,1047.7 1708.38,1028.8 
  "/>
<polyline clip-path="url(#clip590)" style="stroke:#000000; stroke-linecap:round; stroke-linejoin:round; stroke-width:4; stroke-opacity:1; fill:none" points="
  2144.73,1047.7 2144.73,1028.8 
  "/>
<path clip-path="url(#clip590)" d="M307.97 1078.62 Q304.359 1078.62 302.53 1082.18 Q300.725 1085.72 300.725 1092.85 Q300.725 1099.96 302.53 1103.53 Q304.359 1107.07 307.97 1107.07 Q311.605 1107.07 313.41 1103.53 Q315.239 1099.96 315.239 1092.85 Q315.239 1085.72 313.41 1082.18 Q311.605 1078.62 307.97 1078.62 M307.97 1074.91 Q313.78 1074.91 316.836 1079.52 Q319.915 1084.1 319.915 1092.85 Q319.915 1101.58 316.836 1106.19 Q313.78 1110.77 307.97 1110.77 Q302.16 1110.77 299.081 1106.19 Q296.026 1101.58 296.026 1092.85 Q296.026 1084.1 299.081 1079.52 Q302.16 1074.91 307.97 1074.91 Z" fill="#000000" fill-rule="evenodd" fill-opacity="1" /><path clip-path="url(#clip590)" d="M338.132 1078.62 Q334.521 1078.62 332.692 1082.18 Q330.887 1085.72 330.887 1092.85 Q330.887 1099.96 332.692 1103.53 Q334.521 1107.07 338.132 1107.07 Q341.766 1107.07 343.572 1103.53 Q345.401 1099.96 345.401 1092.85 Q345.401 1085.72 343.572 1082.18 Q341.766 1078.62 338.132 1078.62 M338.132 1074.91 Q343.942 1074.91 346.998 1079.52 Q350.077 1084.1 350.077 1092.85 Q350.077 1101.58 346.998 1106.19 Q343.942 1110.77 338.132 1110.77 Q332.322 1110.77 329.243 1106.19 Q326.188 1101.58 326.188 1092.85 Q326.188 1084.1 329.243 1079.52 Q332.322 1074.91 338.132 1074.91 Z" fill="#000000" fill-rule="evenodd" fill-opacity="1" /><path clip-path="url(#clip590)" d="M358.78 1104.22 L363.664 1104.22 L363.664 1110.1 L358.78 1110.1 L358.78 1104.22 M358.78 1085.59 L363.664 1085.59 L363.664 1091.47 L358.78 1091.47 L358.78 1085.59 Z" fill="#000000" fill-rule="evenodd" fill-opacity="1" /><path clip-path="url(#clip590)" d="M384.266 1078.62 Q380.655 1078.62 378.826 1082.18 Q377.021 1085.72 377.021 1092.85 Q377.021 1099.96 378.826 1103.53 Q380.655 1107.07 384.266 1107.07 Q387.9 1107.07 389.706 1103.53 Q391.535 1099.96 391.535 1092.85 Q391.535 1085.72 389.706 1082.18 Q387.9 1078.62 384.266 1078.62 M384.266 1074.91 Q390.076 1074.91 393.132 1079.52 Q396.211 1084.1 396.211 1092.85 Q396.211 1101.58 393.132 1106.19 Q390.076 1110.77 384.266 1110.77 Q378.456 1110.77 375.377 1106.19 Q372.322 1101.58 372.322 1092.85 Q372.322 1084.1 375.377 1079.52 Q378.456 1074.91 384.266 1074.91 Z" fill="#000000" fill-rule="evenodd" fill-opacity="1" /><path clip-path="url(#clip590)" d="M414.428 1078.62 Q410.817 1078.62 408.988 1082.18 Q407.183 1085.72 407.183 1092.85 Q407.183 1099.96 408.988 1103.53 Q410.817 1107.07 414.428 1107.07 Q418.062 1107.07 419.868 1103.53 Q421.697 1099.96 421.697 1092.85 Q421.697 1085.72 419.868 1082.18 Q418.062 1078.62 414.428 1078.62 M414.428 1074.91 Q420.238 1074.91 423.294 1079.52 Q426.372 1084.1 426.372 1092.85 Q426.372 1101.58 423.294 1106.19 Q420.238 1110.77 414.428 1110.77 Q408.618 1110.77 405.539 1106.19 Q402.484 1101.58 402.484 1092.85 Q402.484 1084.1 405.539 1079.52 Q408.618 1074.91 414.428 1074.91 Z" fill="#000000" fill-rule="evenodd" fill-opacity="1" /><path clip-path="url(#clip590)" d="M435.076 1104.22 L439.96 1104.22 L439.96 1110.1 L435.076 1110.1 L435.076 1104.22 M435.076 1085.59 L439.96 1085.59 L439.96 1091.47 L435.076 1091.47 L435.076 1085.59 Z" fill="#000000" fill-rule="evenodd" fill-opacity="1" /><path clip-path="url(#clip590)" d="M460.562 1078.62 Q456.951 1078.62 455.122 1082.18 Q453.317 1085.72 453.317 1092.85 Q453.317 1099.96 455.122 1103.53 Q456.951 1107.07 460.562 1107.07 Q464.196 1107.07 466.002 1103.53 Q467.831 1099.96 467.831 1092.85 Q467.831 1085.72 466.002 1082.18 Q464.196 1078.62 460.562 1078.62 M460.562 1074.91 Q466.372 1074.91 469.428 1079.52 Q472.506 1084.1 472.506 1092.85 Q472.506 1101.58 469.428 1106.19 Q466.372 1110.77 460.562 1110.77 Q454.752 1110.77 451.673 1106.19 Q448.618 1101.58 448.618 1092.85 Q448.618 1084.1 451.673 1079.52 Q454.752 1074.91 460.562 1074.91 Z" fill="#000000" fill-rule="evenodd" fill-opacity="1" /><path clip-path="url(#clip590)" d="M490.724 1078.62 Q487.113 1078.62 485.284 1082.18 Q483.479 1085.72 483.479 1092.85 Q483.479 1099.96 485.284 1103.53 Q487.113 1107.07 490.724 1107.07 Q494.358 1107.07 496.164 1103.53 Q497.992 1099.96 497.992 1092.85 Q497.992 1085.72 496.164 1082.18 Q494.358 1078.62 490.724 1078.62 M490.724 1074.91 Q496.534 1074.91 499.59 1079.52 Q502.668 1084.1 502.668 1092.85 Q502.668 1101.58 499.59 1106.19 Q496.534 1110.77 490.724 1110.77 Q484.914 1110.77 481.835 1106.19 Q478.78 1101.58 478.78 1092.85 Q478.78 1084.1 481.835 1079.52 Q484.914 1074.91 490.724 1074.91 Z" fill="#000000" fill-rule="evenodd" fill-opacity="1" /><path clip-path="url(#clip590)" d="M744.315 1078.62 Q740.704 1078.62 738.876 1082.18 Q737.07 1085.72 737.07 1092.85 Q737.07 1099.96 738.876 1103.53 Q740.704 1107.07 744.315 1107.07 Q747.95 1107.07 749.755 1103.53 Q751.584 1099.96 751.584 1092.85 Q751.584 1085.72 749.755 1082.18 Q747.95 1078.62 744.315 1078.62 M744.315 1074.91 Q750.126 1074.91 753.181 1079.52 Q756.26 1084.1 756.26 1092.85 Q756.26 1101.58 753.181 1106.19 Q750.126 1110.77 744.315 1110.77 Q738.505 1110.77 735.427 1106.19 Q732.371 1101.58 732.371 1092.85 Q732.371 1084.1 735.427 1079.52 Q738.505 1074.91 744.315 1074.91 Z" fill="#000000" fill-rule="evenodd" fill-opacity="1" /><path clip-path="url(#clip590)" d="M764.524 1075.54 L782.88 1075.54 L782.88 1079.48 L768.806 1079.48 L768.806 1087.95 Q769.825 1087.6 770.843 1087.44 Q771.862 1087.25 772.88 1087.25 Q778.667 1087.25 782.047 1090.42 Q785.426 1093.6 785.426 1099.01 Q785.426 1104.59 781.954 1107.69 Q778.482 1110.77 772.163 1110.77 Q769.987 1110.77 767.718 1110.4 Q765.473 1110.03 763.065 1109.29 L763.065 1104.59 Q765.149 1105.72 767.371 1106.28 Q769.593 1106.84 772.07 1106.84 Q776.075 1106.84 778.412 1104.73 Q780.75 1102.62 780.75 1099.01 Q780.75 1095.4 778.412 1093.29 Q776.075 1091.19 772.07 1091.19 Q770.195 1091.19 768.32 1091.6 Q766.468 1092.02 764.524 1092.9 L764.524 1075.54 Z" fill="#000000" fill-rule="evenodd" fill-opacity="1" /><path clip-path="url(#clip590)" d="M795.125 1104.22 L800.01 1104.22 L800.01 1110.1 L795.125 1110.1 L795.125 1104.22 M795.125 1085.59 L800.01 1085.59 L800.01 1091.47 L795.125 1091.47 L795.125 1085.59 Z" fill="#000000" fill-rule="evenodd" fill-opacity="1" /><path clip-path="url(#clip590)" d="M824.778 1091.47 Q828.134 1092.18 830.009 1094.45 Q831.908 1096.72 831.908 1100.05 Q831.908 1105.17 828.389 1107.97 Q824.871 1110.77 818.389 1110.77 Q816.213 1110.77 813.898 1110.33 Q811.607 1109.91 809.153 1109.06 L809.153 1104.54 Q811.097 1105.68 813.412 1106.26 Q815.727 1106.84 818.25 1106.84 Q822.648 1106.84 824.94 1105.1 Q827.255 1103.36 827.255 1100.05 Q827.255 1097 825.102 1095.29 Q822.972 1093.55 819.153 1093.55 L815.125 1093.55 L815.125 1089.71 L819.338 1089.71 Q822.787 1089.71 824.616 1088.34 Q826.445 1086.95 826.445 1084.36 Q826.445 1081.7 824.546 1080.29 Q822.672 1078.85 819.153 1078.85 Q817.232 1078.85 815.033 1079.27 Q812.834 1079.68 810.195 1080.56 L810.195 1076.4 Q812.857 1075.66 815.172 1075.29 Q817.509 1074.91 819.57 1074.91 Q824.894 1074.91 827.996 1077.35 Q831.097 1079.75 831.097 1083.87 Q831.097 1086.74 829.454 1088.73 Q827.81 1090.7 824.778 1091.47 Z" fill="#000000" fill-rule="evenodd" fill-opacity="1" /><path clip-path="url(#clip590)" d="M854.94 1091.47 Q858.296 1092.18 860.171 1094.45 Q862.069 1096.72 862.069 1100.05 Q862.069 1105.17 858.551 1107.97 Q855.032 1110.77 848.551 1110.77 Q846.375 1110.77 844.06 1110.33 Q841.769 1109.91 839.315 1109.06 L839.315 1104.54 Q841.259 1105.68 843.574 1106.26 Q845.889 1106.84 848.412 1106.84 Q852.81 1106.84 855.102 1105.1 Q857.417 1103.36 857.417 1100.05 Q857.417 1097 855.264 1095.29 Q853.134 1093.55 849.315 1093.55 L845.287 1093.55 L845.287 1089.71 L849.5 1089.71 Q852.949 1089.71 854.778 1088.34 Q856.607 1086.95 856.607 1084.36 Q856.607 1081.7 854.708 1080.29 Q852.833 1078.85 849.315 1078.85 Q847.394 1078.85 845.195 1079.27 Q842.995 1079.68 840.357 1080.56 L840.357 1076.4 Q843.019 1075.66 845.333 1075.29 Q847.671 1074.91 849.732 1074.91 Q855.056 1074.91 858.157 1077.35 Q861.259 1079.75 861.259 1083.87 Q861.259 1086.74 859.616 1088.73 Q857.972 1090.7 854.94 1091.47 Z" fill="#000000" fill-rule="evenodd" fill-opacity="1" /><path clip-path="url(#clip590)" d="M871.421 1104.22 L876.305 1104.22 L876.305 1110.1 L871.421 1110.1 L871.421 1104.22 M871.421 1085.59 L876.305 1085.59 L876.305 1091.47 L871.421 1091.47 L871.421 1085.59 Z" fill="#000000" fill-rule="evenodd" fill-opacity="1" /><path clip-path="url(#clip590)" d="M890.935 1106.16 L907.254 1106.16 L907.254 1110.1 L885.31 1110.1 L885.31 1106.16 Q887.972 1103.41 892.555 1098.78 Q897.162 1094.13 898.342 1092.79 Q900.588 1090.26 901.467 1088.53 Q902.37 1086.77 902.37 1085.08 Q902.37 1082.32 900.426 1080.59 Q898.504 1078.85 895.403 1078.85 Q893.204 1078.85 890.75 1079.61 Q888.319 1080.38 885.542 1081.93 L885.542 1077.21 Q888.366 1076.07 890.819 1075.49 Q893.273 1074.91 895.31 1074.91 Q900.68 1074.91 903.875 1077.6 Q907.069 1080.29 907.069 1084.78 Q907.069 1086.91 906.259 1088.83 Q905.472 1090.72 903.366 1093.32 Q902.787 1093.99 899.685 1097.21 Q896.583 1100.4 890.935 1106.16 Z" fill="#000000" fill-rule="evenodd" fill-opacity="1" /><path clip-path="url(#clip590)" d="M927.069 1078.62 Q923.458 1078.62 921.629 1082.18 Q919.824 1085.72 919.824 1092.85 Q919.824 1099.96 921.629 1103.53 Q923.458 1107.07 927.069 1107.07 Q930.703 1107.07 932.509 1103.53 Q934.338 1099.96 934.338 1092.85 Q934.338 1085.72 932.509 1082.18 Q930.703 1078.62 927.069 1078.62 M927.069 1074.91 Q932.879 1074.91 935.935 1079.52 Q939.013 1084.1 939.013 1092.85 Q939.013 1101.58 935.935 1106.19 Q932.879 1110.77 927.069 1110.77 Q921.259 1110.77 918.18 1106.19 Q915.125 1101.58 915.125 1092.85 Q915.125 1084.1 918.18 1079.52 Q921.259 1074.91 927.069 1074.91 Z" fill="#000000" fill-rule="evenodd" fill-opacity="1" /><path clip-path="url(#clip590)" d="M1170.43 1106.16 L1178.07 1106.16 L1178.07 1079.8 L1169.76 1081.47 L1169.76 1077.21 L1178.02 1075.54 L1182.7 1075.54 L1182.7 1106.16 L1190.34 1106.16 L1190.34 1110.1 L1170.43 1110.1 L1170.43 1106.16 Z" fill="#000000" fill-rule="evenodd" fill-opacity="1" /><path clip-path="url(#clip590)" d="M1200.59 1106.16 L1208.23 1106.16 L1208.23 1079.8 L1199.92 1081.47 L1199.92 1077.21 L1208.18 1075.54 L1212.86 1075.54 L1212.86 1106.16 L1220.5 1106.16 L1220.5 1110.1 L1200.59 1110.1 L1200.59 1106.16 Z" fill="#000000" fill-rule="evenodd" fill-opacity="1" /><path clip-path="url(#clip590)" d="M1230.43 1104.22 L1235.31 1104.22 L1235.31 1110.1 L1230.43 1110.1 L1230.43 1104.22 M1230.43 1085.59 L1235.31 1085.59 L1235.31 1091.47 L1230.43 1091.47 L1230.43 1085.59 Z" fill="#000000" fill-rule="evenodd" fill-opacity="1" /><path clip-path="url(#clip590)" d="M1255.91 1078.62 Q1252.3 1078.62 1250.48 1082.18 Q1248.67 1085.72 1248.67 1092.85 Q1248.67 1099.96 1250.48 1103.53 Q1252.3 1107.07 1255.91 1107.07 Q1259.55 1107.07 1261.35 1103.53 Q1263.18 1099.96 1263.18 1092.85 Q1263.18 1085.72 1261.35 1082.18 Q1259.55 1078.62 1255.91 1078.62 M1255.91 1074.91 Q1261.73 1074.91 1264.78 1079.52 Q1267.86 1084.1 1267.86 1092.85 Q1267.86 1101.58 1264.78 1106.19 Q1261.73 1110.77 1255.91 1110.77 Q1250.1 1110.77 1247.03 1106.19 Q1243.97 1101.58 1243.97 1092.85 Q1243.97 1084.1 1247.03 1079.52 Q1250.1 1074.91 1255.91 1074.91 Z" fill="#000000" fill-rule="evenodd" fill-opacity="1" /><path clip-path="url(#clip590)" d="M1286.66 1090.96 Q1283.51 1090.96 1281.66 1093.11 Q1279.83 1095.26 1279.83 1099.01 Q1279.83 1102.74 1281.66 1104.91 Q1283.51 1107.07 1286.66 1107.07 Q1289.8 1107.07 1291.63 1104.91 Q1293.48 1102.74 1293.48 1099.01 Q1293.48 1095.26 1291.63 1093.11 Q1289.8 1090.96 1286.66 1090.96 M1295.94 1076.3 L1295.94 1080.56 Q1294.18 1079.73 1292.37 1079.29 Q1290.59 1078.85 1288.83 1078.85 Q1284.2 1078.85 1281.75 1081.97 Q1279.32 1085.1 1278.97 1091.42 Q1280.34 1089.41 1282.4 1088.34 Q1284.46 1087.25 1286.93 1087.25 Q1292.14 1087.25 1295.15 1090.42 Q1298.18 1093.57 1298.18 1099.01 Q1298.18 1104.34 1295.04 1107.55 Q1291.89 1110.77 1286.66 1110.77 Q1280.66 1110.77 1277.49 1106.19 Q1274.32 1101.58 1274.32 1092.85 Q1274.32 1084.66 1278.21 1079.8 Q1282.1 1074.91 1288.65 1074.91 Q1290.41 1074.91 1292.19 1075.26 Q1293.99 1075.61 1295.94 1076.3 Z" fill="#000000" fill-rule="evenodd" fill-opacity="1" /><path clip-path="url(#clip590)" d="M1306.72 1104.22 L1311.61 1104.22 L1311.61 1110.1 L1306.72 1110.1 L1306.72 1104.22 M1306.72 1085.59 L1311.61 1085.59 L1311.61 1091.47 L1306.72 1091.47 L1306.72 1085.59 Z" fill="#000000" fill-rule="evenodd" fill-opacity="1" /><path clip-path="url(#clip590)" d="M1335.06 1079.61 L1323.25 1098.06 L1335.06 1098.06 L1335.06 1079.61 M1333.83 1075.54 L1339.71 1075.54 L1339.71 1098.06 L1344.64 1098.06 L1344.64 1101.95 L1339.71 1101.95 L1339.71 1110.1 L1335.06 1110.1 L1335.06 1101.95 L1319.46 1101.95 L1319.46 1097.44 L1333.83 1075.54 Z" fill="#000000" fill-rule="evenodd" fill-opacity="1" /><path clip-path="url(#clip590)" d="M1362.37 1078.62 Q1358.76 1078.62 1356.93 1082.18 Q1355.13 1085.72 1355.13 1092.85 Q1355.13 1099.96 1356.93 1103.53 Q1358.76 1107.07 1362.37 1107.07 Q1366.01 1107.07 1367.81 1103.53 Q1369.64 1099.96 1369.64 1092.85 Q1369.64 1085.72 1367.81 1082.18 Q1366.01 1078.62 1362.37 1078.62 M1362.37 1074.91 Q1368.18 1074.91 1371.24 1079.52 Q1374.32 1084.1 1374.32 1092.85 Q1374.32 1101.58 1371.24 1106.19 Q1368.18 1110.77 1362.37 1110.77 Q1356.56 1110.77 1353.48 1106.19 Q1350.43 1101.58 1350.43 1092.85 Q1350.43 1084.1 1353.48 1079.52 Q1356.56 1074.91 1362.37 1074.91 Z" fill="#000000" fill-rule="evenodd" fill-opacity="1" /><path clip-path="url(#clip590)" d="M1606.77 1106.16 L1614.41 1106.16 L1614.41 1079.8 L1606.1 1081.47 L1606.1 1077.21 L1614.37 1075.54 L1619.04 1075.54 L1619.04 1106.16 L1626.68 1106.16 L1626.68 1110.1 L1606.77 1110.1 L1606.77 1106.16 Z" fill="#000000" fill-rule="evenodd" fill-opacity="1" /><path clip-path="url(#clip590)" d="M1646.7 1090.96 Q1643.56 1090.96 1641.7 1093.11 Q1639.88 1095.26 1639.88 1099.01 Q1639.88 1102.74 1641.7 1104.91 Q1643.56 1107.07 1646.7 1107.07 Q1649.85 1107.07 1651.68 1104.91 Q1653.53 1102.74 1653.53 1099.01 Q1653.53 1095.26 1651.68 1093.11 Q1649.85 1090.96 1646.7 1090.96 M1655.99 1076.3 L1655.99 1080.56 Q1654.23 1079.73 1652.42 1079.29 Q1650.64 1078.85 1648.88 1078.85 Q1644.25 1078.85 1641.8 1081.97 Q1639.37 1085.1 1639.02 1091.42 Q1640.39 1089.41 1642.45 1088.34 Q1644.51 1087.25 1646.98 1087.25 Q1652.19 1087.25 1655.2 1090.42 Q1658.23 1093.57 1658.23 1099.01 Q1658.23 1104.34 1655.08 1107.55 Q1651.94 1110.77 1646.7 1110.77 Q1640.71 1110.77 1637.54 1106.19 Q1634.37 1101.58 1634.37 1092.85 Q1634.37 1084.66 1638.26 1079.8 Q1642.14 1074.91 1648.7 1074.91 Q1650.45 1074.91 1652.24 1075.26 Q1654.04 1075.61 1655.99 1076.3 Z" fill="#000000" fill-rule="evenodd" fill-opacity="1" /><path clip-path="url(#clip590)" d="M1666.77 1104.22 L1671.66 1104.22 L1671.66 1110.1 L1666.77 1110.1 L1666.77 1104.22 M1666.77 1085.59 L1671.66 1085.59 L1671.66 1091.47 L1666.77 1091.47 L1666.77 1085.59 Z" fill="#000000" fill-rule="evenodd" fill-opacity="1" /><path clip-path="url(#clip590)" d="M1695.11 1079.61 L1683.3 1098.06 L1695.11 1098.06 L1695.11 1079.61 M1693.88 1075.54 L1699.76 1075.54 L1699.76 1098.06 L1704.69 1098.06 L1704.69 1101.95 L1699.76 1101.95 L1699.76 1110.1 L1695.11 1110.1 L1695.11 1101.95 L1679.51 1101.95 L1679.51 1097.44 L1693.88 1075.54 Z" fill="#000000" fill-rule="evenodd" fill-opacity="1" /><path clip-path="url(#clip590)" d="M1722.42 1078.62 Q1718.81 1078.62 1716.98 1082.18 Q1715.18 1085.72 1715.18 1092.85 Q1715.18 1099.96 1716.98 1103.53 Q1718.81 1107.07 1722.42 1107.07 Q1726.06 1107.07 1727.86 1103.53 Q1729.69 1099.96 1729.69 1092.85 Q1729.69 1085.72 1727.86 1082.18 Q1726.06 1078.62 1722.42 1078.62 M1722.42 1074.91 Q1728.23 1074.91 1731.29 1079.52 Q1734.37 1084.1 1734.37 1092.85 Q1734.37 1101.58 1731.29 1106.19 Q1728.23 1110.77 1722.42 1110.77 Q1716.61 1110.77 1713.53 1106.19 Q1710.48 1101.58 1710.48 1092.85 Q1710.48 1084.1 1713.53 1079.52 Q1716.61 1074.91 1722.42 1074.91 Z" fill="#000000" fill-rule="evenodd" fill-opacity="1" /><path clip-path="url(#clip590)" d="M1743.07 1104.22 L1747.95 1104.22 L1747.95 1110.1 L1743.07 1110.1 L1743.07 1104.22 M1743.07 1085.59 L1747.95 1085.59 L1747.95 1091.47 L1743.07 1091.47 L1743.07 1085.59 Z" fill="#000000" fill-rule="evenodd" fill-opacity="1" /><path clip-path="url(#clip590)" d="M1768.56 1078.62 Q1764.94 1078.62 1763.12 1082.18 Q1761.31 1085.72 1761.31 1092.85 Q1761.31 1099.96 1763.12 1103.53 Q1764.94 1107.07 1768.56 1107.07 Q1772.19 1107.07 1774 1103.53 Q1775.82 1099.96 1775.82 1092.85 Q1775.82 1085.72 1774 1082.18 Q1772.19 1078.62 1768.56 1078.62 M1768.56 1074.91 Q1774.37 1074.91 1777.42 1079.52 Q1780.5 1084.1 1780.5 1092.85 Q1780.5 1101.58 1777.42 1106.19 Q1774.37 1110.77 1768.56 1110.77 Q1762.75 1110.77 1759.67 1106.19 Q1756.61 1101.58 1756.61 1092.85 Q1756.61 1084.1 1759.67 1079.52 Q1762.75 1074.91 1768.56 1074.91 Z" fill="#000000" fill-rule="evenodd" fill-opacity="1" /><path clip-path="url(#clip590)" d="M1798.72 1078.62 Q1795.11 1078.62 1793.28 1082.18 Q1791.47 1085.72 1791.47 1092.85 Q1791.47 1099.96 1793.28 1103.53 Q1795.11 1107.07 1798.72 1107.07 Q1802.35 1107.07 1804.16 1103.53 Q1805.99 1099.96 1805.99 1092.85 Q1805.99 1085.72 1804.16 1082.18 Q1802.35 1078.62 1798.72 1078.62 M1798.72 1074.91 Q1804.53 1074.91 1807.58 1079.52 Q1810.66 1084.1 1810.66 1092.85 Q1810.66 1101.58 1807.58 1106.19 Q1804.53 1110.77 1798.72 1110.77 Q1792.91 1110.77 1789.83 1106.19 Q1786.77 1101.58 1786.77 1092.85 Q1786.77 1084.1 1789.83 1079.52 Q1792.91 1074.91 1798.72 1074.91 Z" fill="#000000" fill-rule="evenodd" fill-opacity="1" /><path clip-path="url(#clip590)" d="M2047.21 1106.16 L2063.52 1106.16 L2063.52 1110.1 L2041.58 1110.1 L2041.58 1106.16 Q2044.24 1103.41 2048.83 1098.78 Q2053.43 1094.13 2054.61 1092.79 Q2056.86 1090.26 2057.74 1088.53 Q2058.64 1086.77 2058.64 1085.08 Q2058.64 1082.32 2056.7 1080.59 Q2054.77 1078.85 2051.67 1078.85 Q2049.47 1078.85 2047.02 1079.61 Q2044.59 1080.38 2041.81 1081.93 L2041.81 1077.21 Q2044.64 1076.07 2047.09 1075.49 Q2049.54 1074.91 2051.58 1074.91 Q2056.95 1074.91 2060.14 1077.6 Q2063.34 1080.29 2063.34 1084.78 Q2063.34 1086.91 2062.53 1088.83 Q2061.74 1090.72 2059.64 1093.32 Q2059.06 1093.99 2055.96 1097.21 Q2052.85 1100.4 2047.21 1106.16 Z" fill="#000000" fill-rule="evenodd" fill-opacity="1" /><path clip-path="url(#clip590)" d="M2077.37 1106.16 L2093.69 1106.16 L2093.69 1110.1 L2071.74 1110.1 L2071.74 1106.16 Q2074.4 1103.41 2078.99 1098.78 Q2083.59 1094.13 2084.77 1092.79 Q2087.02 1090.26 2087.9 1088.53 Q2088.8 1086.77 2088.8 1085.08 Q2088.8 1082.32 2086.86 1080.59 Q2084.94 1078.85 2081.83 1078.85 Q2079.64 1078.85 2077.18 1079.61 Q2074.75 1080.38 2071.97 1081.93 L2071.97 1077.21 Q2074.8 1076.07 2077.25 1075.49 Q2079.71 1074.91 2081.74 1074.91 Q2087.11 1074.91 2090.31 1077.6 Q2093.5 1080.29 2093.5 1084.78 Q2093.5 1086.91 2092.69 1088.83 Q2091.9 1090.72 2089.8 1093.32 Q2089.22 1093.99 2086.12 1097.21 Q2083.02 1100.4 2077.37 1106.16 Z" fill="#000000" fill-rule="evenodd" fill-opacity="1" /><path clip-path="url(#clip590)" d="M2103.99 1104.22 L2108.87 1104.22 L2108.87 1110.1 L2103.99 1110.1 L2103.99 1104.22 M2103.99 1085.59 L2108.87 1085.59 L2108.87 1091.47 L2103.99 1091.47 L2103.99 1085.59 Z" fill="#000000" fill-rule="evenodd" fill-opacity="1" /><path clip-path="url(#clip590)" d="M2120.28 1106.16 L2127.92 1106.16 L2127.92 1079.8 L2119.61 1081.47 L2119.61 1077.21 L2127.88 1075.54 L2132.55 1075.54 L2132.55 1106.16 L2140.19 1106.16 L2140.19 1110.1 L2120.28 1110.1 L2120.28 1106.16 Z" fill="#000000" fill-rule="evenodd" fill-opacity="1" /><path clip-path="url(#clip590)" d="M2163.8 1091.47 Q2167.16 1092.18 2169.03 1094.45 Q2170.93 1096.72 2170.93 1100.05 Q2170.93 1105.17 2167.41 1107.97 Q2163.89 1110.77 2157.41 1110.77 Q2155.24 1110.77 2152.92 1110.33 Q2150.63 1109.91 2148.18 1109.06 L2148.18 1104.54 Q2150.12 1105.68 2152.44 1106.26 Q2154.75 1106.84 2157.27 1106.84 Q2161.67 1106.84 2163.96 1105.1 Q2166.28 1103.36 2166.28 1100.05 Q2166.28 1097 2164.13 1095.29 Q2162 1093.55 2158.18 1093.55 L2154.15 1093.55 L2154.15 1089.71 L2158.36 1089.71 Q2161.81 1089.71 2163.64 1088.34 Q2165.47 1086.95 2165.47 1084.36 Q2165.47 1081.7 2163.57 1080.29 Q2161.7 1078.85 2158.18 1078.85 Q2156.26 1078.85 2154.06 1079.27 Q2151.86 1079.68 2149.22 1080.56 L2149.22 1076.4 Q2151.88 1075.66 2154.2 1075.29 Q2156.53 1074.91 2158.59 1074.91 Q2163.92 1074.91 2167.02 1077.35 Q2170.12 1079.75 2170.12 1083.87 Q2170.12 1086.74 2168.48 1088.73 Q2166.83 1090.7 2163.8 1091.47 Z" fill="#000000" fill-rule="evenodd" fill-opacity="1" /><path clip-path="url(#clip590)" d="M2180.28 1104.22 L2185.17 1104.22 L2185.17 1110.1 L2180.28 1110.1 L2180.28 1104.22 M2180.28 1085.59 L2185.17 1085.59 L2185.17 1091.47 L2180.28 1091.47 L2180.28 1085.59 Z" fill="#000000" fill-rule="evenodd" fill-opacity="1" /><path clip-path="url(#clip590)" d="M2199.8 1106.16 L2216.12 1106.16 L2216.12 1110.1 L2194.17 1110.1 L2194.17 1106.16 Q2196.83 1103.41 2201.42 1098.78 Q2206.02 1094.13 2207.2 1092.79 Q2209.45 1090.26 2210.33 1088.53 Q2211.23 1086.77 2211.23 1085.08 Q2211.23 1082.32 2209.29 1080.59 Q2207.37 1078.85 2204.26 1078.85 Q2202.07 1078.85 2199.61 1079.61 Q2197.18 1080.38 2194.4 1081.93 L2194.4 1077.21 Q2197.23 1076.07 2199.68 1075.49 Q2202.13 1074.91 2204.17 1074.91 Q2209.54 1074.91 2212.74 1077.6 Q2215.93 1080.29 2215.93 1084.78 Q2215.93 1086.91 2215.12 1088.83 Q2214.33 1090.72 2212.23 1093.32 Q2211.65 1093.99 2208.55 1097.21 Q2205.45 1100.4 2199.8 1106.16 Z" fill="#000000" fill-rule="evenodd" fill-opacity="1" /><path clip-path="url(#clip590)" d="M2235.93 1078.62 Q2232.32 1078.62 2230.49 1082.18 Q2228.69 1085.72 2228.69 1092.85 Q2228.69 1099.96 2230.49 1103.53 Q2232.32 1107.07 2235.93 1107.07 Q2239.57 1107.07 2241.37 1103.53 Q2243.2 1099.96 2243.2 1092.85 Q2243.2 1085.72 2241.37 1082.18 Q2239.57 1078.62 2235.93 1078.62 M2235.93 1074.91 Q2241.74 1074.91 2244.8 1079.52 Q2247.88 1084.1 2247.88 1092.85 Q2247.88 1101.58 2244.8 1106.19 Q2241.74 1110.77 2235.93 1110.77 Q2230.12 1110.77 2227.04 1106.19 Q2223.99 1101.58 2223.99 1092.85 Q2223.99 1084.1 2227.04 1079.52 Q2230.12 1074.91 2235.93 1074.91 Z" fill="#000000" fill-rule="evenodd" fill-opacity="1" /><path clip-path="url(#clip590)" d="M1227.28 1145.04 L1233.7 1145.04 L1233.7 1164.52 L1257.07 1164.52 L1257.07 1145.04 L1263.5 1145.04 L1263.5 1192.56 L1257.07 1192.56 L1257.07 1169.93 L1233.7 1169.93 L1233.7 1192.56 L1227.28 1192.56 L1227.28 1145.04 Z" fill="#000000" fill-rule="evenodd" fill-opacity="1" /><path clip-path="url(#clip590)" d="M1289.85 1161.02 Q1285.14 1161.02 1282.4 1164.71 Q1279.67 1168.37 1279.67 1174.77 Q1279.67 1181.17 1282.37 1184.86 Q1285.11 1188.52 1289.85 1188.52 Q1294.53 1188.52 1297.27 1184.83 Q1300 1181.14 1300 1174.77 Q1300 1168.44 1297.27 1164.75 Q1294.53 1161.02 1289.85 1161.02 M1289.85 1156.06 Q1297.49 1156.06 1301.85 1161.02 Q1306.21 1165.99 1306.21 1174.77 Q1306.21 1183.52 1301.85 1188.52 Q1297.49 1193.49 1289.85 1193.49 Q1282.18 1193.49 1277.82 1188.52 Q1273.49 1183.52 1273.49 1174.77 Q1273.49 1165.99 1277.82 1161.02 Q1282.18 1156.06 1289.85 1156.06 Z" fill="#000000" fill-rule="evenodd" fill-opacity="1" /><path clip-path="url(#clip590)" d="M1315.31 1178.5 L1315.31 1156.92 L1321.17 1156.92 L1321.17 1178.27 Q1321.17 1183.33 1323.14 1185.88 Q1325.12 1188.39 1329.06 1188.39 Q1333.81 1188.39 1336.54 1185.37 Q1339.31 1182.35 1339.31 1177.13 L1339.31 1156.92 L1345.17 1156.92 L1345.17 1192.56 L1339.31 1192.56 L1339.31 1187.09 Q1337.18 1190.34 1334.35 1191.93 Q1331.55 1193.49 1327.82 1193.49 Q1321.68 1193.49 1318.5 1189.67 Q1315.31 1185.85 1315.31 1178.5 M1330.05 1156.06 L1330.05 1156.06 Z" fill="#000000" fill-rule="evenodd" fill-opacity="1" /><path clip-path="url(#clip590)" d="M1377.89 1162.39 Q1376.9 1161.82 1375.72 1161.56 Q1374.58 1161.28 1373.18 1161.28 Q1368.21 1161.28 1365.54 1164.52 Q1362.9 1167.74 1362.9 1173.79 L1362.9 1192.56 L1357.01 1192.56 L1357.01 1156.92 L1362.9 1156.92 L1362.9 1162.45 Q1364.74 1159.21 1367.7 1157.65 Q1370.66 1156.06 1374.9 1156.06 Q1375.5 1156.06 1376.23 1156.15 Q1376.96 1156.22 1377.86 1156.37 L1377.89 1162.39 Z" fill="#000000" fill-rule="evenodd" fill-opacity="1" /><polyline clip-path="url(#clip592)" style="stroke:#000000; stroke-linecap:round; stroke-linejoin:round; stroke-width:2; stroke-opacity:0.1; fill:none" points="
  252.407,1021.11 2352.76,1021.11 
  "/>
<polyline clip-path="url(#clip592)" style="stroke:#000000; stroke-linecap:round; stroke-linejoin:round; stroke-width:2; stroke-opacity:0.1; fill:none" points="
  252.407,814.807 2352.76,814.807 
  "/>
<polyline clip-path="url(#clip592)" style="stroke:#000000; stroke-linecap:round; stroke-linejoin:round; stroke-width:2; stroke-opacity:0.1; fill:none" points="
  252.407,608.499 2352.76,608.499 
  "/>
<polyline clip-path="url(#clip592)" style="stroke:#000000; stroke-linecap:round; stroke-linejoin:round; stroke-width:2; stroke-opacity:0.1; fill:none" points="
  252.407,402.192 2352.76,402.192 
  "/>
<polyline clip-path="url(#clip592)" style="stroke:#000000; stroke-linecap:round; stroke-linejoin:round; stroke-width:2; stroke-opacity:0.1; fill:none" points="
  252.407,195.884 2352.76,195.884 
  "/>
<polyline clip-path="url(#clip590)" style="stroke:#000000; stroke-linecap:round; stroke-linejoin:round; stroke-width:4; stroke-opacity:1; fill:none" points="
  252.407,1047.7 252.407,108.352 
  "/>
<polyline clip-path="url(#clip590)" style="stroke:#000000; stroke-linecap:round; stroke-linejoin:round; stroke-width:4; stroke-opacity:1; fill:none" points="
  252.407,1021.11 271.305,1021.11 
  "/>
<polyline clip-path="url(#clip590)" style="stroke:#000000; stroke-linecap:round; stroke-linejoin:round; stroke-width:4; stroke-opacity:1; fill:none" points="
  252.407,814.807 271.305,814.807 
  "/>
<polyline clip-path="url(#clip590)" style="stroke:#000000; stroke-linecap:round; stroke-linejoin:round; stroke-width:4; stroke-opacity:1; fill:none" points="
  252.407,608.499 271.305,608.499 
  "/>
<polyline clip-path="url(#clip590)" style="stroke:#000000; stroke-linecap:round; stroke-linejoin:round; stroke-width:4; stroke-opacity:1; fill:none" points="
  252.407,402.192 271.305,402.192 
  "/>
<polyline clip-path="url(#clip590)" style="stroke:#000000; stroke-linecap:round; stroke-linejoin:round; stroke-width:4; stroke-opacity:1; fill:none" points="
  252.407,195.884 271.305,195.884 
  "/>
<path clip-path="url(#clip590)" d="M204.463 1006.91 Q200.852 1006.91 199.023 1010.48 Q197.218 1014.02 197.218 1021.15 Q197.218 1028.26 199.023 1031.82 Q200.852 1035.36 204.463 1035.36 Q208.097 1035.36 209.903 1031.82 Q211.731 1028.26 211.731 1021.15 Q211.731 1014.02 209.903 1010.48 Q208.097 1006.91 204.463 1006.91 M204.463 1003.21 Q210.273 1003.21 213.329 1007.82 Q216.407 1012.4 216.407 1021.15 Q216.407 1029.88 213.329 1034.48 Q210.273 1039.07 204.463 1039.07 Q198.653 1039.07 195.574 1034.48 Q192.519 1029.88 192.519 1021.15 Q192.519 1012.4 195.574 1007.82 Q198.653 1003.21 204.463 1003.21 Z" fill="#000000" fill-rule="evenodd" fill-opacity="1" /><path clip-path="url(#clip590)" d="M134.186 797.527 L152.542 797.527 L152.542 801.462 L138.468 801.462 L138.468 809.934 Q139.486 809.587 140.505 809.425 Q141.523 809.24 142.542 809.24 Q148.329 809.24 151.709 812.411 Q155.088 815.582 155.088 820.999 Q155.088 826.578 151.616 829.68 Q148.144 832.758 141.824 832.758 Q139.648 832.758 137.38 832.388 Q135.135 832.017 132.727 831.277 L132.727 826.578 Q134.811 827.712 137.033 828.267 Q139.255 828.823 141.732 828.823 Q145.736 828.823 148.074 826.717 Q150.412 824.61 150.412 820.999 Q150.412 817.388 148.074 815.281 Q145.736 813.175 141.732 813.175 Q139.857 813.175 137.982 813.592 Q136.13 814.008 134.186 814.888 L134.186 797.527 Z" fill="#000000" fill-rule="evenodd" fill-opacity="1" /><path clip-path="url(#clip590)" d="M174.301 800.606 Q170.69 800.606 168.861 804.17 Q167.056 807.712 167.056 814.842 Q167.056 821.948 168.861 825.513 Q170.69 829.055 174.301 829.055 Q177.935 829.055 179.741 825.513 Q181.57 821.948 181.57 814.842 Q181.57 807.712 179.741 804.17 Q177.935 800.606 174.301 800.606 M174.301 796.902 Q180.111 796.902 183.167 801.508 Q186.245 806.092 186.245 814.842 Q186.245 823.568 183.167 828.175 Q180.111 832.758 174.301 832.758 Q168.491 832.758 165.412 828.175 Q162.357 823.568 162.357 814.842 Q162.357 806.092 165.412 801.508 Q168.491 796.902 174.301 796.902 Z" fill="#000000" fill-rule="evenodd" fill-opacity="1" /><path clip-path="url(#clip590)" d="M204.463 800.606 Q200.852 800.606 199.023 804.17 Q197.218 807.712 197.218 814.842 Q197.218 821.948 199.023 825.513 Q200.852 829.055 204.463 829.055 Q208.097 829.055 209.903 825.513 Q211.731 821.948 211.731 814.842 Q211.731 807.712 209.903 804.17 Q208.097 800.606 204.463 800.606 M204.463 796.902 Q210.273 796.902 213.329 801.508 Q216.407 806.092 216.407 814.842 Q216.407 823.568 213.329 828.175 Q210.273 832.758 204.463 832.758 Q198.653 832.758 195.574 828.175 Q192.519 823.568 192.519 814.842 Q192.519 806.092 195.574 801.508 Q198.653 796.902 204.463 796.902 Z" fill="#000000" fill-rule="evenodd" fill-opacity="1" /><path clip-path="url(#clip590)" d="M104.788 621.844 L112.426 621.844 L112.426 595.479 L104.116 597.145 L104.116 592.886 L112.38 591.219 L117.056 591.219 L117.056 621.844 L124.695 621.844 L124.695 625.779 L104.788 625.779 L104.788 621.844 Z" fill="#000000" fill-rule="evenodd" fill-opacity="1" /><path clip-path="url(#clip590)" d="M144.139 594.298 Q140.528 594.298 138.699 597.863 Q136.894 601.404 136.894 608.534 Q136.894 615.64 138.699 619.205 Q140.528 622.747 144.139 622.747 Q147.773 622.747 149.579 619.205 Q151.408 615.64 151.408 608.534 Q151.408 601.404 149.579 597.863 Q147.773 594.298 144.139 594.298 M144.139 590.594 Q149.949 590.594 153.005 595.201 Q156.084 599.784 156.084 608.534 Q156.084 617.261 153.005 621.867 Q149.949 626.451 144.139 626.451 Q138.329 626.451 135.25 621.867 Q132.195 617.261 132.195 608.534 Q132.195 599.784 135.25 595.201 Q138.329 590.594 144.139 590.594 Z" fill="#000000" fill-rule="evenodd" fill-opacity="1" /><path clip-path="url(#clip590)" d="M174.301 594.298 Q170.69 594.298 168.861 597.863 Q167.056 601.404 167.056 608.534 Q167.056 615.64 168.861 619.205 Q170.69 622.747 174.301 622.747 Q177.935 622.747 179.741 619.205 Q181.57 615.64 181.57 608.534 Q181.57 601.404 179.741 597.863 Q177.935 594.298 174.301 594.298 M174.301 590.594 Q180.111 590.594 183.167 595.201 Q186.245 599.784 186.245 608.534 Q186.245 617.261 183.167 621.867 Q180.111 626.451 174.301 626.451 Q168.491 626.451 165.412 621.867 Q162.357 617.261 162.357 608.534 Q162.357 599.784 165.412 595.201 Q168.491 590.594 174.301 590.594 Z" fill="#000000" fill-rule="evenodd" fill-opacity="1" /><path clip-path="url(#clip590)" d="M204.463 594.298 Q200.852 594.298 199.023 597.863 Q197.218 601.404 197.218 608.534 Q197.218 615.64 199.023 619.205 Q200.852 622.747 204.463 622.747 Q208.097 622.747 209.903 619.205 Q211.731 615.64 211.731 608.534 Q211.731 601.404 209.903 597.863 Q208.097 594.298 204.463 594.298 M204.463 590.594 Q210.273 590.594 213.329 595.201 Q216.407 599.784 216.407 608.534 Q216.407 617.261 213.329 621.867 Q210.273 626.451 204.463 626.451 Q198.653 626.451 195.574 621.867 Q192.519 617.261 192.519 608.534 Q192.519 599.784 195.574 595.201 Q198.653 590.594 204.463 590.594 Z" fill="#000000" fill-rule="evenodd" fill-opacity="1" /><path clip-path="url(#clip590)" d="M104.788 415.537 L112.426 415.537 L112.426 389.171 L104.116 390.838 L104.116 386.578 L112.38 384.912 L117.056 384.912 L117.056 415.537 L124.695 415.537 L124.695 419.472 L104.788 419.472 L104.788 415.537 Z" fill="#000000" fill-rule="evenodd" fill-opacity="1" /><path clip-path="url(#clip590)" d="M134.186 384.912 L152.542 384.912 L152.542 388.847 L138.468 388.847 L138.468 397.319 Q139.486 396.972 140.505 396.81 Q141.523 396.625 142.542 396.625 Q148.329 396.625 151.709 399.796 Q155.088 402.967 155.088 408.384 Q155.088 413.962 151.616 417.064 Q148.144 420.143 141.824 420.143 Q139.648 420.143 137.38 419.773 Q135.135 419.402 132.727 418.662 L132.727 413.962 Q134.811 415.097 137.033 415.652 Q139.255 416.208 141.732 416.208 Q145.736 416.208 148.074 414.101 Q150.412 411.995 150.412 408.384 Q150.412 404.773 148.074 402.666 Q145.736 400.56 141.732 400.56 Q139.857 400.56 137.982 400.976 Q136.13 401.393 134.186 402.273 L134.186 384.912 Z" fill="#000000" fill-rule="evenodd" fill-opacity="1" /><path clip-path="url(#clip590)" d="M174.301 387.99 Q170.69 387.99 168.861 391.555 Q167.056 395.097 167.056 402.226 Q167.056 409.333 168.861 412.898 Q170.69 416.439 174.301 416.439 Q177.935 416.439 179.741 412.898 Q181.57 409.333 181.57 402.226 Q181.57 395.097 179.741 391.555 Q177.935 387.99 174.301 387.99 M174.301 384.287 Q180.111 384.287 183.167 388.893 Q186.245 393.476 186.245 402.226 Q186.245 410.953 183.167 415.56 Q180.111 420.143 174.301 420.143 Q168.491 420.143 165.412 415.56 Q162.357 410.953 162.357 402.226 Q162.357 393.476 165.412 388.893 Q168.491 384.287 174.301 384.287 Z" fill="#000000" fill-rule="evenodd" fill-opacity="1" /><path clip-path="url(#clip590)" d="M204.463 387.99 Q200.852 387.99 199.023 391.555 Q197.218 395.097 197.218 402.226 Q197.218 409.333 199.023 412.898 Q200.852 416.439 204.463 416.439 Q208.097 416.439 209.903 412.898 Q211.731 409.333 211.731 402.226 Q211.731 395.097 209.903 391.555 Q208.097 387.99 204.463 387.99 M204.463 384.287 Q210.273 384.287 213.329 388.893 Q216.407 393.476 216.407 402.226 Q216.407 410.953 213.329 415.56 Q210.273 420.143 204.463 420.143 Q198.653 420.143 195.574 415.56 Q192.519 410.953 192.519 402.226 Q192.519 393.476 195.574 388.893 Q198.653 384.287 204.463 384.287 Z" fill="#000000" fill-rule="evenodd" fill-opacity="1" /><path clip-path="url(#clip590)" d="M108.005 209.229 L124.324 209.229 L124.324 213.164 L102.38 213.164 L102.38 209.229 Q105.042 206.474 109.625 201.845 Q114.232 197.192 115.412 195.849 Q117.658 193.326 118.537 191.59 Q119.44 189.831 119.44 188.141 Q119.44 185.386 117.496 183.65 Q115.575 181.914 112.473 181.914 Q110.274 181.914 107.82 182.678 Q105.389 183.442 102.612 184.993 L102.612 180.271 Q105.436 179.136 107.889 178.558 Q110.343 177.979 112.38 177.979 Q117.75 177.979 120.945 180.664 Q124.139 183.349 124.139 187.84 Q124.139 189.97 123.329 191.891 Q122.542 193.789 120.436 196.382 Q119.857 197.053 116.755 200.271 Q113.653 203.465 108.005 209.229 Z" fill="#000000" fill-rule="evenodd" fill-opacity="1" /><path clip-path="url(#clip590)" d="M144.139 181.683 Q140.528 181.683 138.699 185.248 Q136.894 188.789 136.894 195.919 Q136.894 203.025 138.699 206.59 Q140.528 210.132 144.139 210.132 Q147.773 210.132 149.579 206.59 Q151.408 203.025 151.408 195.919 Q151.408 188.789 149.579 185.248 Q147.773 181.683 144.139 181.683 M144.139 177.979 Q149.949 177.979 153.005 182.586 Q156.084 187.169 156.084 195.919 Q156.084 204.646 153.005 209.252 Q149.949 213.835 144.139 213.835 Q138.329 213.835 135.25 209.252 Q132.195 204.646 132.195 195.919 Q132.195 187.169 135.25 182.586 Q138.329 177.979 144.139 177.979 Z" fill="#000000" fill-rule="evenodd" fill-opacity="1" /><path clip-path="url(#clip590)" d="M174.301 181.683 Q170.69 181.683 168.861 185.248 Q167.056 188.789 167.056 195.919 Q167.056 203.025 168.861 206.59 Q170.69 210.132 174.301 210.132 Q177.935 210.132 179.741 206.59 Q181.57 203.025 181.57 195.919 Q181.57 188.789 179.741 185.248 Q177.935 181.683 174.301 181.683 M174.301 177.979 Q180.111 177.979 183.167 182.586 Q186.245 187.169 186.245 195.919 Q186.245 204.646 183.167 209.252 Q180.111 213.835 174.301 213.835 Q168.491 213.835 165.412 209.252 Q162.357 204.646 162.357 195.919 Q162.357 187.169 165.412 182.586 Q168.491 177.979 174.301 177.979 Z" fill="#000000" fill-rule="evenodd" fill-opacity="1" /><path clip-path="url(#clip590)" d="M204.463 181.683 Q200.852 181.683 199.023 185.248 Q197.218 188.789 197.218 195.919 Q197.218 203.025 199.023 206.59 Q200.852 210.132 204.463 210.132 Q208.097 210.132 209.903 206.59 Q211.731 203.025 211.731 195.919 Q211.731 188.789 209.903 185.248 Q208.097 181.683 204.463 181.683 M204.463 177.979 Q210.273 177.979 213.329 182.586 Q216.407 187.169 216.407 195.919 Q216.407 204.646 213.329 209.252 Q210.273 213.835 204.463 213.835 Q198.653 213.835 195.574 209.252 Q192.519 204.646 192.519 195.919 Q192.519 187.169 195.574 182.586 Q198.653 177.979 204.463 177.979 Z" fill="#000000" fill-rule="evenodd" fill-opacity="1" /><path clip-path="url(#clip590)" d="M4.60416 921.535 L4.60416 912.878 L44.358 891.808 L4.60416 891.808 L4.60416 885.569 L52.1242 885.569 L52.1242 894.227 L12.3703 915.297 L52.1242 915.297 L52.1242 921.535 L4.60416 921.535 Z" fill="#000000" fill-rule="evenodd" fill-opacity="1" /><path clip-path="url(#clip590)" d="M32.8361 842.537 L35.7006 842.537 L35.7006 869.464 Q41.7481 869.082 44.9309 865.835 Q48.0819 862.557 48.0819 856.733 Q48.0819 853.359 47.2544 850.208 Q46.4269 847.025 44.7718 843.906 L50.3099 843.906 Q51.6467 847.057 52.347 850.367 Q53.0472 853.677 53.0472 857.083 Q53.0472 865.613 48.0819 870.61 Q43.1167 875.575 34.6503 875.575 Q25.8974 875.575 20.7731 870.864 Q15.6168 866.122 15.6168 858.101 Q15.6168 850.908 20.2638 846.738 Q24.8789 842.537 32.8361 842.537 M31.1173 848.393 Q26.3112 848.457 23.4466 851.099 Q20.5821 853.709 20.5821 858.038 Q20.5821 862.939 23.3512 865.899 Q26.1202 868.827 31.1492 869.273 L31.1173 848.393 Z" fill="#000000" fill-rule="evenodd" fill-opacity="1" /><path clip-path="url(#clip590)" d="M16.4762 836.33 L16.4762 830.474 L44.2943 823.153 L16.4762 815.865 L16.4762 808.958 L44.2943 801.637 L16.4762 794.349 L16.4762 788.492 L52.1242 797.818 L52.1242 804.725 L22.9056 812.395 L52.1242 820.098 L52.1242 827.005 L16.4762 836.33 Z" fill="#000000" fill-rule="evenodd" fill-opacity="1" /><path clip-path="url(#clip590)" d="M34.332 733.301 Q27.8708 733.301 24.2105 735.975 Q20.5184 738.617 20.5184 743.264 Q20.5184 747.911 24.2105 750.584 Q27.8708 753.226 34.332 753.226 Q40.7932 753.226 44.4853 750.584 Q48.1456 747.911 48.1456 743.264 Q48.1456 738.617 44.4853 735.975 Q40.7932 733.301 34.332 733.301 M21.8871 753.226 Q18.7042 751.38 17.1764 748.579 Q15.6168 745.746 15.6168 741.832 Q15.6168 735.339 20.7731 731.296 Q25.9293 727.222 34.332 727.222 Q42.7347 727.222 47.891 731.296 Q53.0472 735.339 53.0472 741.832 Q53.0472 745.746 51.5194 748.579 Q49.9598 751.38 46.777 753.226 L52.1242 753.226 L52.1242 759.114 L2.59896 759.114 L2.59896 753.226 L21.8871 753.226 Z" fill="#000000" fill-rule="evenodd" fill-opacity="1" /><path clip-path="url(#clip590)" d="M16.4762 717.515 L16.4762 711.658 L52.1242 711.658 L52.1242 717.515 L16.4762 717.515 M2.59896 717.515 L2.59896 711.658 L10.015 711.658 L10.015 717.515 L2.59896 717.515 Z" fill="#000000" fill-rule="evenodd" fill-opacity="1" /><path clip-path="url(#clip590)" d="M2.59896 699.627 L2.59896 693.739 L31.8494 693.739 L16.4762 676.265 L16.4762 668.785 L33.1544 687.691 L52.1242 667.989 L52.1242 675.628 L34.7139 693.739 L52.1242 693.739 L52.1242 699.627 L2.59896 699.627 Z" fill="#000000" fill-rule="evenodd" fill-opacity="1" /><path clip-path="url(#clip590)" d="M32.8361 633.487 L35.7006 633.487 L35.7006 660.414 Q41.7481 660.032 44.9309 656.786 Q48.0819 653.507 48.0819 647.683 Q48.0819 644.309 47.2544 641.158 Q46.4269 637.975 44.7718 634.856 L50.3099 634.856 Q51.6467 638.007 52.347 641.317 Q53.0472 644.627 53.0472 648.033 Q53.0472 656.563 48.0819 661.56 Q43.1167 666.525 34.6503 666.525 Q25.8974 666.525 20.7731 661.815 Q15.6168 657.072 15.6168 649.051 Q15.6168 641.858 20.2638 637.689 Q24.8789 633.487 32.8361 633.487 M31.1173 639.344 Q26.3112 639.407 23.4466 642.049 Q20.5821 644.659 20.5821 648.988 Q20.5821 653.889 23.3512 656.849 Q26.1202 659.778 31.1492 660.223 L31.1173 639.344 Z" fill="#000000" fill-rule="evenodd" fill-opacity="1" /><path clip-path="url(#clip590)" d="M17.5265 580.429 L23.0647 580.429 Q21.7916 582.912 21.155 585.585 Q20.5184 588.259 20.5184 591.123 Q20.5184 595.484 21.8552 597.68 Q23.192 599.844 25.8656 599.844 Q27.9026 599.844 29.0803 598.285 Q30.2261 596.725 31.2765 592.015 L31.7221 590.009 Q33.0589 583.771 35.5097 581.161 Q37.9286 578.519 42.2891 578.519 Q47.2544 578.519 50.1508 582.466 Q53.0472 586.381 53.0472 593.256 Q53.0472 596.121 52.4743 599.24 Q51.9332 602.327 50.8192 605.765 L44.7718 605.765 Q46.4587 602.518 47.318 599.367 Q48.1456 596.216 48.1456 593.129 Q48.1456 588.991 46.7451 586.763 Q45.3129 584.535 42.7347 584.535 Q40.3476 584.535 39.0745 586.158 Q37.8013 587.75 36.6237 593.192 L36.1462 595.229 Q35.0004 600.672 32.6451 603.091 Q30.258 605.51 26.1202 605.51 Q21.0913 605.51 18.3541 601.945 Q15.6168 598.38 15.6168 591.824 Q15.6168 588.577 16.0943 585.713 Q16.5717 582.848 17.5265 580.429 Z" fill="#000000" fill-rule="evenodd" fill-opacity="1" /><path clip-path="url(#clip590)" d="M30.6081 539.561 L52.1242 539.561 L52.1242 545.418 L30.799 545.418 Q25.7383 545.418 23.2238 547.391 Q20.7094 549.364 20.7094 553.311 Q20.7094 558.054 23.7331 560.791 Q26.7568 563.528 31.9767 563.528 L52.1242 563.528 L52.1242 569.416 L2.59896 569.416 L2.59896 563.528 L22.0144 563.528 Q18.7997 561.427 17.2083 558.595 Q15.6168 555.73 15.6168 552.006 Q15.6168 545.863 19.4363 542.712 Q23.2238 539.561 30.6081 539.561 Z" fill="#000000" fill-rule="evenodd" fill-opacity="1" /><path clip-path="url(#clip590)" d="M34.2047 511.679 Q34.2047 518.777 35.8279 521.514 Q37.4512 524.252 41.3661 524.252 Q44.4853 524.252 46.3314 522.215 Q48.1456 520.146 48.1456 516.613 Q48.1456 511.743 44.7081 508.815 Q41.2388 505.855 35.5097 505.855 L34.2047 505.855 L34.2047 511.679 M31.7857 499.998 L52.1242 499.998 L52.1242 505.855 L46.7133 505.855 Q49.9598 507.86 51.5194 510.852 Q53.0472 513.844 53.0472 518.172 Q53.0472 523.647 49.9916 526.893 Q46.9043 530.108 41.7481 530.108 Q35.7325 530.108 32.6769 526.098 Q29.6214 522.056 29.6214 514.067 L29.6214 505.855 L29.0485 505.855 Q25.0062 505.855 22.8101 508.528 Q20.5821 511.17 20.5821 515.976 Q20.5821 519.032 21.3141 521.928 Q22.0462 524.825 23.5103 527.498 L18.0995 527.498 Q16.8581 524.284 16.2534 521.26 Q15.6168 518.236 15.6168 515.372 Q15.6168 507.637 19.6272 503.818 Q23.6376 499.998 31.7857 499.998 Z" fill="#000000" fill-rule="evenodd" fill-opacity="1" /><path clip-path="url(#clip590)" d="M21.9507 467.279 Q21.3778 468.265 21.1232 469.443 Q20.8367 470.589 20.8367 471.989 Q20.8367 476.954 24.0832 479.628 Q27.2979 482.27 33.3453 482.27 L52.1242 482.27 L52.1242 488.158 L16.4762 488.158 L16.4762 482.27 L22.0144 482.27 Q18.7679 480.424 17.2083 477.464 Q15.6168 474.504 15.6168 470.27 Q15.6168 469.666 15.7123 468.934 Q15.776 468.202 15.9351 467.31 L21.9507 467.279 Z" fill="#000000" fill-rule="evenodd" fill-opacity="1" /><path clip-path="url(#clip590)" d="M32.8361 432.076 L35.7006 432.076 L35.7006 459.003 Q41.7481 458.621 44.9309 455.375 Q48.0819 452.096 48.0819 446.272 Q48.0819 442.898 47.2544 439.747 Q46.4269 436.564 44.7718 433.445 L50.3099 433.445 Q51.6467 436.596 52.347 439.906 Q53.0472 443.216 53.0472 446.622 Q53.0472 455.152 48.0819 460.149 Q43.1167 465.114 34.6503 465.114 Q25.8974 465.114 20.7731 460.404 Q15.6168 455.661 15.6168 447.64 Q15.6168 440.447 20.2638 436.278 Q24.8789 432.076 32.8361 432.076 M31.1173 437.933 Q26.3112 437.996 23.4466 440.638 Q20.5821 443.248 20.5821 447.577 Q20.5821 452.478 23.3512 455.438 Q26.1202 458.367 31.1492 458.812 L31.1173 437.933 Z" fill="#000000" fill-rule="evenodd" fill-opacity="1" /><path clip-path="url(#clip590)" d="M17.8448 376.09 L23.3193 376.09 Q21.9507 378.572 21.2823 381.087 Q20.5821 383.57 20.5821 386.116 Q20.5821 391.813 24.2105 394.964 Q27.8072 398.115 34.332 398.115 Q40.8569 398.115 44.4853 394.964 Q48.0819 391.813 48.0819 386.116 Q48.0819 383.57 47.4135 381.087 Q46.7133 378.572 45.3447 376.09 L50.7555 376.09 Q51.9014 378.541 52.4743 381.182 Q53.0472 383.792 53.0472 386.752 Q53.0472 394.805 47.9864 399.547 Q42.9257 404.29 34.332 404.29 Q25.611 404.29 20.6139 399.516 Q15.6168 394.71 15.6168 386.37 Q15.6168 383.665 16.1897 381.087 Q16.7308 378.509 17.8448 376.09 Z" fill="#000000" fill-rule="evenodd" fill-opacity="1" /><path clip-path="url(#clip590)" d="M20.5821 352.091 Q20.5821 356.802 24.2742 359.539 Q27.9345 362.276 34.332 362.276 Q40.7295 362.276 44.4217 359.571 Q48.0819 356.834 48.0819 352.091 Q48.0819 347.412 44.3898 344.675 Q40.6977 341.938 34.332 341.938 Q27.9981 341.938 24.306 344.675 Q20.5821 347.412 20.5821 352.091 M15.6168 352.091 Q15.6168 344.452 20.5821 340.092 Q25.5473 335.731 34.332 335.731 Q43.0849 335.731 48.0819 340.092 Q53.0472 344.452 53.0472 352.091 Q53.0472 359.762 48.0819 364.122 Q43.0849 368.451 34.332 368.451 Q25.5473 368.451 20.5821 364.122 Q15.6168 359.762 15.6168 352.091 Z" fill="#000000" fill-rule="evenodd" fill-opacity="1" /><path clip-path="url(#clip590)" d="M38.0559 326.628 L16.4762 326.628 L16.4762 320.772 L37.8331 320.772 Q42.8939 320.772 45.4402 318.798 Q47.9546 316.825 47.9546 312.878 Q47.9546 308.136 44.9309 305.399 Q41.9072 302.63 36.6873 302.63 L16.4762 302.63 L16.4762 296.773 L52.1242 296.773 L52.1242 302.63 L46.6496 302.63 Q49.8962 304.762 51.4876 307.595 Q53.0472 310.396 53.0472 314.12 Q53.0472 320.263 49.2278 323.445 Q45.4083 326.628 38.0559 326.628 M15.6168 311.892 L15.6168 311.892 Z" fill="#000000" fill-rule="evenodd" fill-opacity="1" /><path clip-path="url(#clip590)" d="M6.35473 278.917 L16.4762 278.917 L16.4762 266.854 L21.0277 266.854 L21.0277 278.917 L40.3794 278.917 Q44.7399 278.917 45.9813 277.74 Q47.2226 276.53 47.2226 272.87 L47.2226 266.854 L52.1242 266.854 L52.1242 272.87 Q52.1242 279.649 49.6097 282.228 Q47.0634 284.806 40.3794 284.806 L21.0277 284.806 L21.0277 289.102 L16.4762 289.102 L16.4762 284.806 L6.35473 284.806 L6.35473 278.917 Z" fill="#000000" fill-rule="evenodd" fill-opacity="1" /><path clip-path="url(#clip590)" d="M17.5265 236.426 L23.0647 236.426 Q21.7916 238.909 21.155 241.582 Q20.5184 244.256 20.5184 247.121 Q20.5184 251.481 21.8552 253.677 Q23.192 255.842 25.8656 255.842 Q27.9026 255.842 29.0803 254.282 Q30.2261 252.722 31.2765 248.012 L31.7221 246.007 Q33.0589 239.768 35.5097 237.158 Q37.9286 234.517 42.2891 234.517 Q47.2544 234.517 50.1508 238.463 Q53.0472 242.378 53.0472 249.253 Q53.0472 252.118 52.4743 255.237 Q51.9332 258.324 50.8192 261.762 L44.7718 261.762 Q46.4587 258.515 47.318 255.364 Q48.1456 252.213 48.1456 249.126 Q48.1456 244.988 46.7451 242.76 Q45.3129 240.532 42.7347 240.532 Q40.3476 240.532 39.0745 242.155 Q37.8013 243.747 36.6237 249.189 L36.1462 251.227 Q35.0004 256.669 32.6451 259.088 Q30.258 261.507 26.1202 261.507 Q21.0913 261.507 18.3541 257.942 Q15.6168 254.378 15.6168 247.821 Q15.6168 244.574 16.0943 241.71 Q16.5717 238.845 17.5265 236.426 Z" fill="#000000" fill-rule="evenodd" fill-opacity="1" /><path clip-path="url(#clip590)" d="M402.43 18.8205 L402.43 65.8515 L412.314 65.8515 Q424.832 65.8515 430.624 60.1802 Q436.458 54.509 436.458 42.2752 Q436.458 30.1225 430.624 24.4918 Q424.832 18.8205 412.314 18.8205 L402.43 18.8205 M394.247 12.096 L411.059 12.096 Q428.64 12.096 436.863 19.4281 Q445.086 26.7198 445.086 42.2752 Q445.086 57.9117 436.822 65.2439 Q428.559 72.576 411.059 72.576 L394.247 72.576 L394.247 12.096 Z" fill="#000000" fill-rule="evenodd" fill-opacity="1" /><path clip-path="url(#clip590)" d="M457.806 27.2059 L465.26 27.2059 L465.26 72.576 L457.806 72.576 L457.806 27.2059 M457.806 9.54393 L465.26 9.54393 L465.26 18.9825 L457.806 18.9825 L457.806 9.54393 Z" fill="#000000" fill-rule="evenodd" fill-opacity="1" /><path clip-path="url(#clip590)" d="M509.779 28.5427 L509.779 35.5912 Q506.619 33.9709 503.217 33.1607 Q499.814 32.3505 496.168 32.3505 Q490.618 32.3505 487.823 34.0519 Q485.069 35.7533 485.069 39.156 Q485.069 41.7486 487.054 43.2475 Q489.039 44.7058 495.034 46.0426 L497.586 46.6097 Q505.526 48.3111 508.847 51.4303 Q512.21 54.509 512.21 60.0587 Q512.21 66.3781 507.187 70.0644 Q502.204 73.7508 493.454 73.7508 Q489.808 73.7508 485.838 73.0216 Q481.909 72.3329 477.534 70.9151 L477.534 63.2184 Q481.666 65.3654 485.676 66.4591 Q489.687 67.5124 493.616 67.5124 Q498.882 67.5124 501.718 65.73 Q504.553 63.9071 504.553 60.6258 Q504.553 57.5877 502.488 55.9673 Q500.462 54.3469 493.535 52.8481 L490.942 52.2405 Q484.015 50.7821 480.937 47.7845 Q477.858 44.7463 477.858 39.4801 Q477.858 33.0797 482.395 29.5959 Q486.932 26.1121 495.277 26.1121 Q499.409 26.1121 503.055 26.7198 Q506.7 27.3274 509.779 28.5427 Z" fill="#000000" fill-rule="evenodd" fill-opacity="1" /><path clip-path="url(#clip590)" d="M531.451 14.324 L531.451 27.2059 L546.804 27.2059 L546.804 32.9987 L531.451 32.9987 L531.451 57.6282 Q531.451 63.1779 532.95 64.7578 Q534.49 66.3376 539.148 66.3376 L546.804 66.3376 L546.804 72.576 L539.148 72.576 Q530.52 72.576 527.239 69.3758 Q523.957 66.1351 523.957 57.6282 L523.957 32.9987 L518.489 32.9987 L518.489 27.2059 L523.957 27.2059 L523.957 14.324 L531.451 14.324 Z" fill="#000000" fill-rule="evenodd" fill-opacity="1" /><path clip-path="url(#clip590)" d="M582.898 34.1734 Q581.642 33.4443 580.143 33.1202 Q578.685 32.7556 576.903 32.7556 Q570.583 32.7556 567.18 36.8875 Q563.818 40.9789 563.818 48.6757 L563.818 72.576 L556.324 72.576 L556.324 27.2059 L563.818 27.2059 L563.818 34.2544 Q566.168 30.1225 569.935 28.1376 Q573.702 26.1121 579.09 26.1121 Q579.86 26.1121 580.792 26.2337 Q581.723 26.3147 582.857 26.5172 L582.898 34.1734 Z" fill="#000000" fill-rule="evenodd" fill-opacity="1" /><path clip-path="url(#clip590)" d="M590.716 27.2059 L598.17 27.2059 L598.17 72.576 L590.716 72.576 L590.716 27.2059 M590.716 9.54393 L598.17 9.54393 L598.17 18.9825 L590.716 18.9825 L590.716 9.54393 Z" fill="#000000" fill-rule="evenodd" fill-opacity="1" /><path clip-path="url(#clip590)" d="M646.335 49.9314 Q646.335 41.7081 642.932 37.0496 Q639.57 32.3505 633.656 32.3505 Q627.741 32.3505 624.339 37.0496 Q620.976 41.7081 620.976 49.9314 Q620.976 58.1548 624.339 62.8538 Q627.741 67.5124 633.656 67.5124 Q639.57 67.5124 642.932 62.8538 Q646.335 58.1548 646.335 49.9314 M620.976 34.0924 Q623.326 30.0415 626.891 28.0971 Q630.496 26.1121 635.479 26.1121 Q643.743 26.1121 648.887 32.6746 Q654.072 39.2371 654.072 49.9314 Q654.072 60.6258 648.887 67.1883 Q643.743 73.7508 635.479 73.7508 Q630.496 73.7508 626.891 71.8063 Q623.326 69.8214 620.976 65.7705 L620.976 72.576 L613.482 72.576 L613.482 9.54393 L620.976 9.54393 L620.976 34.0924 Z" fill="#000000" fill-rule="evenodd" fill-opacity="1" /><path clip-path="url(#clip590)" d="M665.658 54.671 L665.658 27.2059 L673.112 27.2059 L673.112 54.3874 Q673.112 60.8284 675.623 64.0691 Q678.135 67.2693 683.158 67.2693 Q689.194 67.2693 692.677 63.421 Q696.202 59.5726 696.202 52.9291 L696.202 27.2059 L703.655 27.2059 L703.655 72.576 L696.202 72.576 L696.202 65.6084 Q693.488 69.7404 689.882 71.7658 Q686.318 73.7508 681.578 73.7508 Q673.76 73.7508 669.709 68.8897 Q665.658 64.0286 665.658 54.671 M684.414 26.1121 L684.414 26.1121 Z" fill="#000000" fill-rule="evenodd" fill-opacity="1" /><path clip-path="url(#clip590)" d="M726.381 14.324 L726.381 27.2059 L741.734 27.2059 L741.734 32.9987 L726.381 32.9987 L726.381 57.6282 Q726.381 63.1779 727.88 64.7578 Q729.419 66.3376 734.078 66.3376 L741.734 66.3376 L741.734 72.576 L734.078 72.576 Q725.449 72.576 722.168 69.3758 Q718.887 66.1351 718.887 57.6282 L718.887 32.9987 L713.418 32.9987 L713.418 27.2059 L718.887 27.2059 L718.887 14.324 L726.381 14.324 Z" fill="#000000" fill-rule="evenodd" fill-opacity="1" /><path clip-path="url(#clip590)" d="M751.537 27.2059 L758.991 27.2059 L758.991 72.576 L751.537 72.576 L751.537 27.2059 M751.537 9.54393 L758.991 9.54393 L758.991 18.9825 L751.537 18.9825 L751.537 9.54393 Z" fill="#000000" fill-rule="evenodd" fill-opacity="1" /><path clip-path="url(#clip590)" d="M792.168 32.4315 Q786.172 32.4315 782.689 37.1306 Q779.205 41.7891 779.205 49.9314 Q779.205 58.0738 782.648 62.7728 Q786.132 67.4314 792.168 67.4314 Q798.123 67.4314 801.606 62.7323 Q805.09 58.0333 805.09 49.9314 Q805.09 41.8701 801.606 37.1711 Q798.123 32.4315 792.168 32.4315 M792.168 26.1121 Q801.89 26.1121 807.44 32.4315 Q812.989 38.7509 812.989 49.9314 Q812.989 61.0714 807.44 67.4314 Q801.89 73.7508 792.168 73.7508 Q782.405 73.7508 776.855 67.4314 Q771.346 61.0714 771.346 49.9314 Q771.346 38.7509 776.855 32.4315 Q782.405 26.1121 792.168 26.1121 Z" fill="#000000" fill-rule="evenodd" fill-opacity="1" /><path clip-path="url(#clip590)" d="M863.059 45.1919 L863.059 72.576 L855.605 72.576 L855.605 45.4349 Q855.605 38.994 853.093 35.7938 Q850.582 32.5936 845.559 32.5936 Q839.523 32.5936 836.039 36.4419 Q832.555 40.2903 832.555 46.9338 L832.555 72.576 L825.061 72.576 L825.061 27.2059 L832.555 27.2059 L832.555 34.2544 Q835.229 30.163 838.834 28.1376 Q842.48 26.1121 847.219 26.1121 Q855.038 26.1121 859.048 30.9732 Q863.059 35.7938 863.059 45.1919 Z" fill="#000000" fill-rule="evenodd" fill-opacity="1" /><path clip-path="url(#clip590)" d="M921.878 32.4315 Q915.882 32.4315 912.399 37.1306 Q908.915 41.7891 908.915 49.9314 Q908.915 58.0738 912.358 62.7728 Q915.842 67.4314 921.878 67.4314 Q927.832 67.4314 931.316 62.7323 Q934.8 58.0333 934.8 49.9314 Q934.8 41.8701 931.316 37.1711 Q927.832 32.4315 921.878 32.4315 M921.878 26.1121 Q931.6 26.1121 937.15 32.4315 Q942.699 38.7509 942.699 49.9314 Q942.699 61.0714 937.15 67.4314 Q931.6 73.7508 921.878 73.7508 Q912.115 73.7508 906.565 67.4314 Q901.056 61.0714 901.056 49.9314 Q901.056 38.7509 906.565 32.4315 Q912.115 26.1121 921.878 26.1121 Z" fill="#000000" fill-rule="evenodd" fill-opacity="1" /><path clip-path="url(#clip590)" d="M978.023 9.54393 L978.023 15.7418 L970.894 15.7418 Q966.883 15.7418 965.303 17.3622 Q963.764 18.9825 963.764 23.1955 L963.764 27.2059 L976.038 27.2059 L976.038 32.9987 L963.764 32.9987 L963.764 72.576 L956.27 72.576 L956.27 32.9987 L949.14 32.9987 L949.14 27.2059 L956.27 27.2059 L956.27 24.0462 Q956.27 16.471 959.794 13.0277 Q963.318 9.54393 970.975 9.54393 L978.023 9.54393 Z" fill="#000000" fill-rule="evenodd" fill-opacity="1" /><path clip-path="url(#clip590)" d="M1048.35 45.1919 L1048.35 72.576 L1040.89 72.576 L1040.89 45.4349 Q1040.89 38.994 1038.38 35.7938 Q1035.87 32.5936 1030.85 32.5936 Q1024.81 32.5936 1021.33 36.4419 Q1017.84 40.2903 1017.84 46.9338 L1017.84 72.576 L1010.35 72.576 L1010.35 27.2059 L1017.84 27.2059 L1017.84 34.2544 Q1020.52 30.163 1024.12 28.1376 Q1027.77 26.1121 1032.51 26.1121 Q1040.33 26.1121 1044.34 30.9732 Q1048.35 35.7938 1048.35 45.1919 Z" fill="#000000" fill-rule="evenodd" fill-opacity="1" /><path clip-path="url(#clip590)" d="M1102.02 48.0275 L1102.02 51.6733 L1067.75 51.6733 Q1068.24 59.3701 1072.37 63.421 Q1076.54 67.4314 1083.95 67.4314 Q1088.25 67.4314 1092.26 66.3781 Q1096.31 65.3249 1100.28 63.2184 L1100.28 70.267 Q1096.27 71.9684 1092.06 72.8596 Q1087.84 73.7508 1083.51 73.7508 Q1072.65 73.7508 1066.29 67.4314 Q1059.97 61.1119 1059.97 50.3365 Q1059.97 39.1965 1065.97 32.6746 Q1072 26.1121 1082.21 26.1121 Q1091.37 26.1121 1096.67 32.0264 Q1102.02 37.9003 1102.02 48.0275 M1094.57 45.84 Q1094.49 39.7232 1091.12 36.0774 Q1087.8 32.4315 1082.29 32.4315 Q1076.06 32.4315 1072.29 35.9558 Q1068.56 39.4801 1067.99 45.8805 L1094.57 45.84 Z" fill="#000000" fill-rule="evenodd" fill-opacity="1" /><path clip-path="url(#clip590)" d="M1109.92 27.2059 L1117.37 27.2059 L1126.69 62.6108 L1135.97 27.2059 L1144.76 27.2059 L1154.08 62.6108 L1163.35 27.2059 L1170.81 27.2059 L1158.94 72.576 L1150.15 72.576 L1140.38 35.3887 L1130.58 72.576 L1121.79 72.576 L1109.92 27.2059 Z" fill="#000000" fill-rule="evenodd" fill-opacity="1" /><path clip-path="url(#clip590)" d="M1241.05 49.9314 Q1241.05 41.7081 1237.65 37.0496 Q1234.28 32.3505 1228.37 32.3505 Q1222.45 32.3505 1219.05 37.0496 Q1215.69 41.7081 1215.69 49.9314 Q1215.69 58.1548 1219.05 62.8538 Q1222.45 67.5124 1228.37 67.5124 Q1234.28 67.5124 1237.65 62.8538 Q1241.05 58.1548 1241.05 49.9314 M1215.69 34.0924 Q1218.04 30.0415 1221.6 28.0971 Q1225.21 26.1121 1230.19 26.1121 Q1238.46 26.1121 1243.6 32.6746 Q1248.79 39.2371 1248.79 49.9314 Q1248.79 60.6258 1243.6 67.1883 Q1238.46 73.7508 1230.19 73.7508 Q1225.21 73.7508 1221.6 71.8063 Q1218.04 69.8214 1215.69 65.7705 L1215.69 72.576 L1208.2 72.576 L1208.2 9.54393 L1215.69 9.54393 L1215.69 34.0924 Z" fill="#000000" fill-rule="evenodd" fill-opacity="1" /><path clip-path="url(#clip590)" d="M1261.14 27.2059 L1268.59 27.2059 L1268.59 72.576 L1261.14 72.576 L1261.14 27.2059 M1261.14 9.54393 L1268.59 9.54393 L1268.59 18.9825 L1261.14 18.9825 L1261.14 9.54393 Z" fill="#000000" fill-rule="evenodd" fill-opacity="1" /><path clip-path="url(#clip590)" d="M1283.91 9.54393 L1291.4 9.54393 L1291.4 46.7717 L1313.64 27.2059 L1323.16 27.2059 L1299.1 48.4326 L1324.17 72.576 L1314.45 72.576 L1291.4 50.4176 L1291.4 72.576 L1283.91 72.576 L1283.91 9.54393 Z" fill="#000000" fill-rule="evenodd" fill-opacity="1" /><path clip-path="url(#clip590)" d="M1368.08 48.0275 L1368.08 51.6733 L1333.81 51.6733 Q1334.3 59.3701 1338.43 63.421 Q1342.6 67.4314 1350.02 67.4314 Q1354.31 67.4314 1358.32 66.3781 Q1362.37 65.3249 1366.34 63.2184 L1366.34 70.267 Q1362.33 71.9684 1358.12 72.8596 Q1353.91 73.7508 1349.57 73.7508 Q1338.72 73.7508 1332.36 67.4314 Q1326.04 61.1119 1326.04 50.3365 Q1326.04 39.1965 1332.03 32.6746 Q1338.07 26.1121 1348.28 26.1121 Q1357.43 26.1121 1362.74 32.0264 Q1368.08 37.9003 1368.08 48.0275 M1360.63 45.84 Q1360.55 39.7232 1357.19 36.0774 Q1353.87 32.4315 1348.36 32.4315 Q1342.12 32.4315 1338.35 35.9558 Q1334.62 39.4801 1334.06 45.8805 L1360.63 45.84 Z" fill="#000000" fill-rule="evenodd" fill-opacity="1" /><path clip-path="url(#clip590)" d="M1435.61 28.5427 L1435.61 35.5912 Q1432.45 33.9709 1429.05 33.1607 Q1425.65 32.3505 1422 32.3505 Q1416.45 32.3505 1413.66 34.0519 Q1410.9 35.7533 1410.9 39.156 Q1410.9 41.7486 1412.89 43.2475 Q1414.87 44.7058 1420.87 46.0426 L1423.42 46.6097 Q1431.36 48.3111 1434.68 51.4303 Q1438.04 54.509 1438.04 60.0587 Q1438.04 66.3781 1433.02 70.0644 Q1428.04 73.7508 1419.29 73.7508 Q1415.64 73.7508 1411.67 73.0216 Q1407.74 72.3329 1403.37 70.9151 L1403.37 63.2184 Q1407.5 65.3654 1411.51 66.4591 Q1415.52 67.5124 1419.45 67.5124 Q1424.72 67.5124 1427.55 65.73 Q1430.39 63.9071 1430.39 60.6258 Q1430.39 57.5877 1428.32 55.9673 Q1426.3 54.3469 1419.37 52.8481 L1416.78 52.2405 Q1409.85 50.7821 1406.77 47.7845 Q1403.69 44.7463 1403.69 39.4801 Q1403.69 33.0797 1408.23 29.5959 Q1412.77 26.1121 1421.11 26.1121 Q1425.24 26.1121 1428.89 26.7198 Q1432.53 27.3274 1435.61 28.5427 Z" fill="#000000" fill-rule="evenodd" fill-opacity="1" /><path clip-path="url(#clip590)" d="M1487.63 45.1919 L1487.63 72.576 L1480.17 72.576 L1480.17 45.4349 Q1480.17 38.994 1477.66 35.7938 Q1475.15 32.5936 1470.13 32.5936 Q1464.09 32.5936 1460.61 36.4419 Q1457.12 40.2903 1457.12 46.9338 L1457.12 72.576 L1449.63 72.576 L1449.63 9.54393 L1457.12 9.54393 L1457.12 34.2544 Q1459.8 30.163 1463.4 28.1376 Q1467.05 26.1121 1471.79 26.1121 Q1479.61 26.1121 1483.62 30.9732 Q1487.63 35.7938 1487.63 45.1919 Z" fill="#000000" fill-rule="evenodd" fill-opacity="1" /><path clip-path="url(#clip590)" d="M1523.11 49.7694 Q1514.08 49.7694 1510.6 51.8354 Q1507.11 53.9013 1507.11 58.8839 Q1507.11 62.8538 1509.7 65.2034 Q1512.34 67.5124 1516.83 67.5124 Q1523.03 67.5124 1526.76 63.1374 Q1530.53 58.7219 1530.53 51.4303 L1530.53 49.7694 L1523.11 49.7694 M1537.98 46.6907 L1537.98 72.576 L1530.53 72.576 L1530.53 65.6895 Q1527.97 69.8214 1524.17 71.8063 Q1520.36 73.7508 1514.85 73.7508 Q1507.88 73.7508 1503.75 69.8619 Q1499.66 65.9325 1499.66 59.3701 Q1499.66 51.7138 1504.76 47.825 Q1509.91 43.9361 1520.07 43.9361 L1530.53 43.9361 L1530.53 43.2069 Q1530.53 38.0623 1527.12 35.2672 Q1523.76 32.4315 1517.64 32.4315 Q1513.76 32.4315 1510.07 33.3632 Q1506.38 34.295 1502.98 36.1584 L1502.98 29.2718 Q1507.07 27.692 1510.92 26.9223 Q1514.77 26.1121 1518.41 26.1121 Q1528.26 26.1121 1533.12 31.2163 Q1537.98 36.3204 1537.98 46.6907 Z" fill="#000000" fill-rule="evenodd" fill-opacity="1" /><path clip-path="url(#clip590)" d="M1579.62 34.1734 Q1578.37 33.4443 1576.87 33.1202 Q1575.41 32.7556 1573.63 32.7556 Q1567.31 32.7556 1563.91 36.8875 Q1560.54 40.9789 1560.54 48.6757 L1560.54 72.576 L1553.05 72.576 L1553.05 27.2059 L1560.54 27.2059 L1560.54 34.2544 Q1562.89 30.1225 1566.66 28.1376 Q1570.43 26.1121 1575.82 26.1121 Q1576.58 26.1121 1577.52 26.2337 Q1578.45 26.3147 1579.58 26.5172 L1579.62 34.1734 Z" fill="#000000" fill-rule="evenodd" fill-opacity="1" /><path clip-path="url(#clip590)" d="M1624.43 48.0275 L1624.43 51.6733 L1590.16 51.6733 Q1590.64 59.3701 1594.77 63.421 Q1598.95 67.4314 1606.36 67.4314 Q1610.65 67.4314 1614.66 66.3781 Q1618.71 65.3249 1622.68 63.2184 L1622.68 70.267 Q1618.67 71.9684 1614.46 72.8596 Q1610.25 73.7508 1605.91 73.7508 Q1595.06 73.7508 1588.7 67.4314 Q1582.38 61.1119 1582.38 50.3365 Q1582.38 39.1965 1588.37 32.6746 Q1594.41 26.1121 1604.62 26.1121 Q1613.77 26.1121 1619.08 32.0264 Q1624.43 37.9003 1624.43 48.0275 M1616.97 45.84 Q1616.89 39.7232 1613.53 36.0774 Q1610.21 32.4315 1604.7 32.4315 Q1598.46 32.4315 1594.69 35.9558 Q1590.97 39.4801 1590.4 45.8805 L1616.97 45.84 Z" fill="#000000" fill-rule="evenodd" fill-opacity="1" /><path clip-path="url(#clip590)" d="M1665.58 28.5427 L1665.58 35.5912 Q1662.42 33.9709 1659.02 33.1607 Q1655.62 32.3505 1651.97 32.3505 Q1646.42 32.3505 1643.63 34.0519 Q1640.87 35.7533 1640.87 39.156 Q1640.87 41.7486 1642.86 43.2475 Q1644.84 44.7058 1650.84 46.0426 L1653.39 46.6097 Q1661.33 48.3111 1664.65 51.4303 Q1668.01 54.509 1668.01 60.0587 Q1668.01 66.3781 1662.99 70.0644 Q1658.01 73.7508 1649.26 73.7508 Q1645.61 73.7508 1641.64 73.0216 Q1637.71 72.3329 1633.34 70.9151 L1633.34 63.2184 Q1637.47 65.3654 1641.48 66.4591 Q1645.49 67.5124 1649.42 67.5124 Q1654.69 67.5124 1657.52 65.73 Q1660.36 63.9071 1660.36 60.6258 Q1660.36 57.5877 1658.29 55.9673 Q1656.27 54.3469 1649.34 52.8481 L1646.75 52.2405 Q1639.82 50.7821 1636.74 47.7845 Q1633.66 44.7463 1633.66 39.4801 Q1633.66 33.0797 1638.2 29.5959 Q1642.74 26.1121 1651.08 26.1121 Q1655.21 26.1121 1658.86 26.7198 Q1662.5 27.3274 1665.58 28.5427 Z" fill="#000000" fill-rule="evenodd" fill-opacity="1" /><path clip-path="url(#clip590)" d="M1706.25 27.2059 L1713.71 27.2059 L1713.71 72.576 L1706.25 72.576 L1706.25 27.2059 M1706.25 9.54393 L1713.71 9.54393 L1713.71 18.9825 L1706.25 18.9825 L1706.25 9.54393 Z" fill="#000000" fill-rule="evenodd" fill-opacity="1" /><path clip-path="url(#clip590)" d="M1767.02 45.1919 L1767.02 72.576 L1759.56 72.576 L1759.56 45.4349 Q1759.56 38.994 1757.05 35.7938 Q1754.54 32.5936 1749.52 32.5936 Q1743.48 32.5936 1740 36.4419 Q1736.51 40.2903 1736.51 46.9338 L1736.51 72.576 L1729.02 72.576 L1729.02 27.2059 L1736.51 27.2059 L1736.51 34.2544 Q1739.19 30.163 1742.79 28.1376 Q1746.44 26.1121 1751.18 26.1121 Q1759 26.1121 1763.01 30.9732 Q1767.02 35.7938 1767.02 45.1919 Z" fill="#000000" fill-rule="evenodd" fill-opacity="1" /><path clip-path="url(#clip590)" d="M1803.92 27.2059 L1811.38 27.2059 L1820.69 62.6108 L1829.97 27.2059 L1838.76 27.2059 L1848.08 62.6108 L1857.35 27.2059 L1864.81 27.2059 L1852.94 72.576 L1844.15 72.576 L1834.38 35.3887 L1824.58 72.576 L1815.79 72.576 L1803.92 27.2059 Z" fill="#000000" fill-rule="evenodd" fill-opacity="1" /><path clip-path="url(#clip590)" d="M1914.92 48.0275 L1914.92 51.6733 L1880.65 51.6733 Q1881.13 59.3701 1885.26 63.421 Q1889.44 67.4314 1896.85 67.4314 Q1901.14 67.4314 1905.15 66.3781 Q1909.2 65.3249 1913.17 63.2184 L1913.17 70.267 Q1909.16 71.9684 1904.95 72.8596 Q1900.74 73.7508 1896.4 73.7508 Q1885.55 73.7508 1879.19 67.4314 Q1872.87 61.1119 1872.87 50.3365 Q1872.87 39.1965 1878.86 32.6746 Q1884.9 26.1121 1895.11 26.1121 Q1904.26 26.1121 1909.57 32.0264 Q1914.92 37.9003 1914.92 48.0275 M1907.46 45.84 Q1907.38 39.7232 1904.02 36.0774 Q1900.7 32.4315 1895.19 32.4315 Q1888.95 32.4315 1885.18 35.9558 Q1881.46 39.4801 1880.89 45.8805 L1907.46 45.84 Z" fill="#000000" fill-rule="evenodd" fill-opacity="1" /><path clip-path="url(#clip590)" d="M1965.96 48.0275 L1965.96 51.6733 L1931.69 51.6733 Q1932.17 59.3701 1936.31 63.421 Q1940.48 67.4314 1947.89 67.4314 Q1952.18 67.4314 1956.2 66.3781 Q1960.25 65.3249 1964.22 63.2184 L1964.22 70.267 Q1960.21 71.9684 1955.99 72.8596 Q1951.78 73.7508 1947.45 73.7508 Q1936.59 73.7508 1930.23 67.4314 Q1923.91 61.1119 1923.91 50.3365 Q1923.91 39.1965 1929.9 32.6746 Q1935.94 26.1121 1946.15 26.1121 Q1955.3 26.1121 1960.61 32.0264 Q1965.96 37.9003 1965.96 48.0275 M1958.5 45.84 Q1958.42 39.7232 1955.06 36.0774 Q1951.74 32.4315 1946.23 32.4315 Q1939.99 32.4315 1936.22 35.9558 Q1932.5 39.4801 1931.93 45.8805 L1958.5 45.84 Z" fill="#000000" fill-rule="evenodd" fill-opacity="1" /><path clip-path="url(#clip590)" d="M1977.91 9.54393 L1985.4 9.54393 L1985.4 46.7717 L2007.64 27.2059 L2017.16 27.2059 L1993.1 48.4326 L2018.17 72.576 L2008.45 72.576 L1985.4 50.4176 L1985.4 72.576 L1977.91 72.576 L1977.91 9.54393 Z" fill="#000000" fill-rule="evenodd" fill-opacity="1" /><path clip-path="url(#clip590)" d="M2062.09 48.0275 L2062.09 51.6733 L2027.81 51.6733 Q2028.3 59.3701 2032.43 63.421 Q2036.61 67.4314 2044.02 67.4314 Q2048.31 67.4314 2052.32 66.3781 Q2056.37 65.3249 2060.34 63.2184 L2060.34 70.267 Q2056.33 71.9684 2052.12 72.8596 Q2047.91 73.7508 2043.57 73.7508 Q2032.72 73.7508 2026.36 67.4314 Q2020.04 61.1119 2020.04 50.3365 Q2020.04 39.1965 2026.03 32.6746 Q2032.07 26.1121 2042.28 26.1121 Q2051.43 26.1121 2056.74 32.0264 Q2062.09 37.9003 2062.09 48.0275 M2054.63 45.84 Q2054.55 39.7232 2051.19 36.0774 Q2047.87 32.4315 2042.36 32.4315 Q2036.12 32.4315 2032.35 35.9558 Q2028.63 39.4801 2028.06 45.8805 L2054.63 45.84 Z" fill="#000000" fill-rule="evenodd" fill-opacity="1" /><path clip-path="url(#clip590)" d="M2112.03 45.1919 L2112.03 72.576 L2104.58 72.576 L2104.58 45.4349 Q2104.58 38.994 2102.07 35.7938 Q2099.56 32.5936 2094.53 32.5936 Q2088.5 32.5936 2085.01 36.4419 Q2081.53 40.2903 2081.53 46.9338 L2081.53 72.576 L2074.04 72.576 L2074.04 27.2059 L2081.53 27.2059 L2081.53 34.2544 Q2084.2 30.163 2087.81 28.1376 Q2091.45 26.1121 2096.19 26.1121 Q2104.01 26.1121 2108.02 30.9732 Q2112.03 35.7938 2112.03 45.1919 Z" fill="#000000" fill-rule="evenodd" fill-opacity="1" /><path clip-path="url(#clip590)" d="M2156.76 34.0924 L2156.76 9.54393 L2164.21 9.54393 L2164.21 72.576 L2156.76 72.576 L2156.76 65.7705 Q2154.41 69.8214 2150.8 71.8063 Q2147.24 73.7508 2142.21 73.7508 Q2133.99 73.7508 2128.8 67.1883 Q2123.66 60.6258 2123.66 49.9314 Q2123.66 39.2371 2128.8 32.6746 Q2133.99 26.1121 2142.21 26.1121 Q2147.24 26.1121 2150.8 28.0971 Q2154.41 30.0415 2156.76 34.0924 M2131.36 49.9314 Q2131.36 58.1548 2134.72 62.8538 Q2138.12 67.5124 2144.04 67.5124 Q2149.95 67.5124 2153.35 62.8538 Q2156.76 58.1548 2156.76 49.9314 Q2156.76 41.7081 2153.35 37.0496 Q2149.95 32.3505 2144.04 32.3505 Q2138.12 32.3505 2134.72 37.0496 Q2131.36 41.7081 2131.36 49.9314 Z" fill="#000000" fill-rule="evenodd" fill-opacity="1" /><path clip-path="url(#clip590)" d="M2208.49 28.5427 L2208.49 35.5912 Q2205.33 33.9709 2201.92 33.1607 Q2198.52 32.3505 2194.87 32.3505 Q2189.32 32.3505 2186.53 34.0519 Q2183.77 35.7533 2183.77 39.156 Q2183.77 41.7486 2185.76 43.2475 Q2187.74 44.7058 2193.74 46.0426 L2196.29 46.6097 Q2204.23 48.3111 2207.55 51.4303 Q2210.92 54.509 2210.92 60.0587 Q2210.92 66.3781 2205.89 70.0644 Q2200.91 73.7508 2192.16 73.7508 Q2188.51 73.7508 2184.54 73.0216 Q2180.62 72.3329 2176.24 70.9151 L2176.24 63.2184 Q2180.37 65.3654 2184.38 66.4591 Q2188.39 67.5124 2192.32 67.5124 Q2197.59 67.5124 2200.42 65.73 Q2203.26 63.9071 2203.26 60.6258 Q2203.26 57.5877 2201.19 55.9673 Q2199.17 54.3469 2192.24 52.8481 L2189.65 52.2405 Q2182.72 50.7821 2179.64 47.7845 Q2176.56 44.7463 2176.56 39.4801 Q2176.56 33.0797 2181.1 29.5959 Q2185.64 26.1121 2193.98 26.1121 Q2198.12 26.1121 2201.76 26.7198 Q2205.41 27.3274 2208.49 28.5427 Z" fill="#000000" fill-rule="evenodd" fill-opacity="1" /><path clip-path="url(#clip592)" d="
M367.93 823.137 L367.93 1021.11 L430.764 1021.11 L430.764 823.137 L367.93 823.137 L367.93 823.137  Z
  " fill="#009af9" fill-rule="evenodd" fill-opacity="1"/>
<polyline clip-path="url(#clip592)" style="stroke:#000000; stroke-linecap:round; stroke-linejoin:round; stroke-width:4; stroke-opacity:1; fill:none" points="
  367.93,823.137 367.93,1021.11 430.764,1021.11 430.764,823.137 367.93,823.137 
  "/>
<path clip-path="url(#clip592)" d="
M446.472 862.975 L446.472 1021.11 L509.306 1021.11 L509.306 862.975 L446.472 862.975 L446.472 862.975  Z
  " fill="#009af9" fill-rule="evenodd" fill-opacity="1"/>
<polyline clip-path="url(#clip592)" style="stroke:#000000; stroke-linecap:round; stroke-linejoin:round; stroke-width:4; stroke-opacity:1; fill:none" points="
  446.472,862.975 446.472,1021.11 509.306,1021.11 509.306,862.975 446.472,862.975 
  "/>
<path clip-path="url(#clip592)" d="
M525.015 907.051 L525.015 1021.11 L587.848 1021.11 L587.848 907.051 L525.015 907.051 L525.015 907.051  Z
  " fill="#009af9" fill-rule="evenodd" fill-opacity="1"/>
<polyline clip-path="url(#clip592)" style="stroke:#000000; stroke-linecap:round; stroke-linejoin:round; stroke-width:4; stroke-opacity:1; fill:none" points="
  525.015,907.051 525.015,1021.11 587.848,1021.11 587.848,907.051 525.015,907.051 
  "/>
<path clip-path="url(#clip592)" d="
M603.557 939.65 L603.557 1021.11 L666.39 1021.11 L666.39 939.65 L603.557 939.65 L603.557 939.65  Z
  " fill="#009af9" fill-rule="evenodd" fill-opacity="1"/>
<polyline clip-path="url(#clip592)" style="stroke:#000000; stroke-linecap:round; stroke-linejoin:round; stroke-width:4; stroke-opacity:1; fill:none" points="
  603.557,939.65 603.557,1021.11 666.39,1021.11 666.39,939.65 603.557,939.65 
  "/>
<path clip-path="url(#clip592)" d="
M682.099 968.986 L682.099 1021.11 L744.932 1021.11 L744.932 968.986 L682.099 968.986 L682.099 968.986  Z
  " fill="#009af9" fill-rule="evenodd" fill-opacity="1"/>
<polyline clip-path="url(#clip592)" style="stroke:#000000; stroke-linecap:round; stroke-linejoin:round; stroke-width:4; stroke-opacity:1; fill:none" points="
  682.099,968.986 682.099,1021.11 744.932,1021.11 744.932,968.986 682.099,968.986 
  "/>
<path clip-path="url(#clip592)" d="
M760.641 980.986 L760.641 1021.11 L823.475 1021.11 L823.475 980.986 L760.641 980.986 L760.641 980.986  Z
  " fill="#009af9" fill-rule="evenodd" fill-opacity="1"/>
<polyline clip-path="url(#clip592)" style="stroke:#000000; stroke-linecap:round; stroke-linejoin:round; stroke-width:4; stroke-opacity:1; fill:none" points="
  760.641,980.986 760.641,1021.11 823.475,1021.11 823.475,980.986 760.641,980.986 
  "/>
<path clip-path="url(#clip592)" d="
M839.183 971.371 L839.183 1021.11 L902.017 1021.11 L902.017 971.371 L839.183 971.371 L839.183 971.371  Z
  " fill="#009af9" fill-rule="evenodd" fill-opacity="1"/>
<polyline clip-path="url(#clip592)" style="stroke:#000000; stroke-linecap:round; stroke-linejoin:round; stroke-width:4; stroke-opacity:1; fill:none" points="
  839.183,971.371 839.183,1021.11 902.017,1021.11 902.017,971.371 839.183,971.371 
  "/>
<path clip-path="url(#clip592)" d="
M917.725 933.152 L917.725 1021.11 L980.559 1021.11 L980.559 933.152 L917.725 933.152 L917.725 933.152  Z
  " fill="#009af9" fill-rule="evenodd" fill-opacity="1"/>
<polyline clip-path="url(#clip592)" style="stroke:#000000; stroke-linecap:round; stroke-linejoin:round; stroke-width:4; stroke-opacity:1; fill:none" points="
  917.725,933.152 917.725,1021.11 980.559,1021.11 980.559,933.152 917.725,933.152 
  "/>
<path clip-path="url(#clip592)" d="
M996.267 849.555 L996.267 1021.11 L1059.1 1021.11 L1059.1 849.555 L996.267 849.555 L996.267 849.555  Z
  " fill="#009af9" fill-rule="evenodd" fill-opacity="1"/>
<polyline clip-path="url(#clip592)" style="stroke:#000000; stroke-linecap:round; stroke-linejoin:round; stroke-width:4; stroke-opacity:1; fill:none" points="
  996.267,849.555 996.267,1021.11 1059.1,1021.11 1059.1,849.555 996.267,849.555 
  "/>
<path clip-path="url(#clip592)" d="
M1074.81 696.225 L1074.81 1021.11 L1137.64 1021.11 L1137.64 696.225 L1074.81 696.225 L1074.81 696.225  Z
  " fill="#009af9" fill-rule="evenodd" fill-opacity="1"/>
<polyline clip-path="url(#clip592)" style="stroke:#000000; stroke-linecap:round; stroke-linejoin:round; stroke-width:4; stroke-opacity:1; fill:none" points="
  1074.81,696.225 1074.81,1021.11 1137.64,1021.11 1137.64,696.225 1074.81,696.225 
  "/>
<path clip-path="url(#clip592)" d="
M1153.35 518.155 L1153.35 1021.11 L1216.19 1021.11 L1216.19 518.155 L1153.35 518.155 L1153.35 518.155  Z
  " fill="#009af9" fill-rule="evenodd" fill-opacity="1"/>
<polyline clip-path="url(#clip592)" style="stroke:#000000; stroke-linecap:round; stroke-linejoin:round; stroke-width:4; stroke-opacity:1; fill:none" points="
  1153.35,518.155 1153.35,1021.11 1216.19,1021.11 1216.19,518.155 1153.35,518.155 
  "/>
<path clip-path="url(#clip592)" d="
M1231.89 356.593 L1231.89 1021.11 L1294.73 1021.11 L1294.73 356.593 L1231.89 356.593 L1231.89 356.593  Z
  " fill="#009af9" fill-rule="evenodd" fill-opacity="1"/>
<polyline clip-path="url(#clip592)" style="stroke:#000000; stroke-linecap:round; stroke-linejoin:round; stroke-width:4; stroke-opacity:1; fill:none" points="
  1231.89,356.593 1231.89,1021.11 1294.73,1021.11 1294.73,356.593 1231.89,356.593 
  "/>
<path clip-path="url(#clip592)" d="
M1310.44 224.447 L1310.44 1021.11 L1373.27 1021.11 L1373.27 224.447 L1310.44 224.447 L1310.44 224.447  Z
  " fill="#009af9" fill-rule="evenodd" fill-opacity="1"/>
<polyline clip-path="url(#clip592)" style="stroke:#000000; stroke-linecap:round; stroke-linejoin:round; stroke-width:4; stroke-opacity:1; fill:none" points="
  1310.44,224.447 1310.44,1021.11 1373.27,1021.11 1373.27,224.447 1310.44,224.447 
  "/>
<path clip-path="url(#clip592)" d="
M1388.98 164.997 L1388.98 1021.11 L1451.81 1021.11 L1451.81 164.997 L1388.98 164.997 L1388.98 164.997  Z
  " fill="#009af9" fill-rule="evenodd" fill-opacity="1"/>
<polyline clip-path="url(#clip592)" style="stroke:#000000; stroke-linecap:round; stroke-linejoin:round; stroke-width:4; stroke-opacity:1; fill:none" points="
  1388.98,164.997 1388.98,1021.11 1451.81,1021.11 1451.81,164.997 1388.98,164.997 
  "/>
<path clip-path="url(#clip592)" d="
M1467.52 147.126 L1467.52 1021.11 L1530.35 1021.11 L1530.35 147.126 L1467.52 147.126 L1467.52 147.126  Z
  " fill="#009af9" fill-rule="evenodd" fill-opacity="1"/>
<polyline clip-path="url(#clip592)" style="stroke:#000000; stroke-linecap:round; stroke-linejoin:round; stroke-width:4; stroke-opacity:1; fill:none" points="
  1467.52,147.126 1467.52,1021.11 1530.35,1021.11 1530.35,147.126 1467.52,147.126 
  "/>
<path clip-path="url(#clip592)" d="
M1546.06 134.937 L1546.06 1021.11 L1608.9 1021.11 L1608.9 134.937 L1546.06 134.937 L1546.06 134.937  Z
  " fill="#009af9" fill-rule="evenodd" fill-opacity="1"/>
<polyline clip-path="url(#clip592)" style="stroke:#000000; stroke-linecap:round; stroke-linejoin:round; stroke-width:4; stroke-opacity:1; fill:none" points="
  1546.06,134.937 1546.06,1021.11 1608.9,1021.11 1608.9,134.937 1546.06,134.937 
  "/>
<path clip-path="url(#clip592)" d="
M1624.6 179.551 L1624.6 1021.11 L1687.44 1021.11 L1687.44 179.551 L1624.6 179.551 L1624.6 179.551  Z
  " fill="#009af9" fill-rule="evenodd" fill-opacity="1"/>
<polyline clip-path="url(#clip592)" style="stroke:#000000; stroke-linecap:round; stroke-linejoin:round; stroke-width:4; stroke-opacity:1; fill:none" points="
  1624.6,179.551 1624.6,1021.11 1687.44,1021.11 1687.44,179.551 1624.6,179.551 
  "/>
<path clip-path="url(#clip592)" d="
M1703.15 266.017 L1703.15 1021.11 L1765.98 1021.11 L1765.98 266.017 L1703.15 266.017 L1703.15 266.017  Z
  " fill="#009af9" fill-rule="evenodd" fill-opacity="1"/>
<polyline clip-path="url(#clip592)" style="stroke:#000000; stroke-linecap:round; stroke-linejoin:round; stroke-width:4; stroke-opacity:1; fill:none" points="
  1703.15,266.017 1703.15,1021.11 1765.98,1021.11 1765.98,266.017 1703.15,266.017 
  "/>
<path clip-path="url(#clip592)" d="
M1781.69 369.508 L1781.69 1021.11 L1844.52 1021.11 L1844.52 369.508 L1781.69 369.508 L1781.69 369.508  Z
  " fill="#009af9" fill-rule="evenodd" fill-opacity="1"/>
<polyline clip-path="url(#clip592)" style="stroke:#000000; stroke-linecap:round; stroke-linejoin:round; stroke-width:4; stroke-opacity:1; fill:none" points="
  1781.69,369.508 1781.69,1021.11 1844.52,1021.11 1844.52,369.508 1781.69,369.508 
  "/>
<path clip-path="url(#clip592)" d="
M1860.23 518.996 L1860.23 1021.11 L1923.06 1021.11 L1923.06 518.996 L1860.23 518.996 L1860.23 518.996  Z
  " fill="#009af9" fill-rule="evenodd" fill-opacity="1"/>
<polyline clip-path="url(#clip592)" style="stroke:#000000; stroke-linecap:round; stroke-linejoin:round; stroke-width:4; stroke-opacity:1; fill:none" points="
  1860.23,518.996 1860.23,1021.11 1923.06,1021.11 1923.06,518.996 1860.23,518.996 
  "/>
<path clip-path="url(#clip592)" d="
M1938.77 660.209 L1938.77 1021.11 L2001.61 1021.11 L2001.61 660.209 L1938.77 660.209 L1938.77 660.209  Z
  " fill="#009af9" fill-rule="evenodd" fill-opacity="1"/>
<polyline clip-path="url(#clip592)" style="stroke:#000000; stroke-linecap:round; stroke-linejoin:round; stroke-width:4; stroke-opacity:1; fill:none" points="
  1938.77,660.209 1938.77,1021.11 2001.61,1021.11 2001.61,660.209 1938.77,660.209 
  "/>
<path clip-path="url(#clip592)" d="
M2017.32 764.466 L2017.32 1021.11 L2080.15 1021.11 L2080.15 764.466 L2017.32 764.466 L2017.32 764.466  Z
  " fill="#009af9" fill-rule="evenodd" fill-opacity="1"/>
<polyline clip-path="url(#clip592)" style="stroke:#000000; stroke-linecap:round; stroke-linejoin:round; stroke-width:4; stroke-opacity:1; fill:none" points="
  2017.32,764.466 2017.32,1021.11 2080.15,1021.11 2080.15,764.466 2017.32,764.466 
  "/>
<path clip-path="url(#clip592)" d="
M2095.86 799.524 L2095.86 1021.11 L2158.69 1021.11 L2158.69 799.524 L2095.86 799.524 L2095.86 799.524  Z
  " fill="#009af9" fill-rule="evenodd" fill-opacity="1"/>
<polyline clip-path="url(#clip592)" style="stroke:#000000; stroke-linecap:round; stroke-linejoin:round; stroke-width:4; stroke-opacity:1; fill:none" points="
  2095.86,799.524 2095.86,1021.11 2158.69,1021.11 2158.69,799.524 2095.86,799.524 
  "/>
<path clip-path="url(#clip592)" d="
M2174.4 834.755 L2174.4 1021.11 L2237.23 1021.11 L2237.23 834.755 L2174.4 834.755 L2174.4 834.755  Z
  " fill="#009af9" fill-rule="evenodd" fill-opacity="1"/>
<polyline clip-path="url(#clip592)" style="stroke:#000000; stroke-linecap:round; stroke-linejoin:round; stroke-width:4; stroke-opacity:1; fill:none" points="
  2174.4,834.755 2174.4,1021.11 2237.23,1021.11 2237.23,834.755 2174.4,834.755 
  "/>
<circle clip-path="url(#clip592)" style="fill:#009af9; stroke:none; fill-opacity:0" cx="399.347" cy="823.137" r="2"/>
<circle clip-path="url(#clip592)" style="fill:#009af9; stroke:none; fill-opacity:0" cx="477.889" cy="862.975" r="2"/>
<circle clip-path="url(#clip592)" style="fill:#009af9; stroke:none; fill-opacity:0" cx="556.431" cy="907.051" r="2"/>
<circle clip-path="url(#clip592)" style="fill:#009af9; stroke:none; fill-opacity:0" cx="634.973" cy="939.65" r="2"/>
<circle clip-path="url(#clip592)" style="fill:#009af9; stroke:none; fill-opacity:0" cx="713.516" cy="968.986" r="2"/>
<circle clip-path="url(#clip592)" style="fill:#009af9; stroke:none; fill-opacity:0" cx="792.058" cy="980.986" r="2"/>
<circle clip-path="url(#clip592)" style="fill:#009af9; stroke:none; fill-opacity:0" cx="870.6" cy="971.371" r="2"/>
<circle clip-path="url(#clip592)" style="fill:#009af9; stroke:none; fill-opacity:0" cx="949.142" cy="933.152" r="2"/>
<circle clip-path="url(#clip592)" style="fill:#009af9; stroke:none; fill-opacity:0" cx="1027.68" cy="849.555" r="2"/>
<circle clip-path="url(#clip592)" style="fill:#009af9; stroke:none; fill-opacity:0" cx="1106.23" cy="696.225" r="2"/>
<circle clip-path="url(#clip592)" style="fill:#009af9; stroke:none; fill-opacity:0" cx="1184.77" cy="518.155" r="2"/>
<circle clip-path="url(#clip592)" style="fill:#009af9; stroke:none; fill-opacity:0" cx="1263.31" cy="356.593" r="2"/>
<circle clip-path="url(#clip592)" style="fill:#009af9; stroke:none; fill-opacity:0" cx="1341.85" cy="224.447" r="2"/>
<circle clip-path="url(#clip592)" style="fill:#009af9; stroke:none; fill-opacity:0" cx="1420.39" cy="164.997" r="2"/>
<circle clip-path="url(#clip592)" style="fill:#009af9; stroke:none; fill-opacity:0" cx="1498.94" cy="147.126" r="2"/>
<circle clip-path="url(#clip592)" style="fill:#009af9; stroke:none; fill-opacity:0" cx="1577.48" cy="134.937" r="2"/>
<circle clip-path="url(#clip592)" style="fill:#009af9; stroke:none; fill-opacity:0" cx="1656.02" cy="179.551" r="2"/>
<circle clip-path="url(#clip592)" style="fill:#009af9; stroke:none; fill-opacity:0" cx="1734.56" cy="266.017" r="2"/>
<circle clip-path="url(#clip592)" style="fill:#009af9; stroke:none; fill-opacity:0" cx="1813.11" cy="369.508" r="2"/>
<circle clip-path="url(#clip592)" style="fill:#009af9; stroke:none; fill-opacity:0" cx="1891.65" cy="518.996" r="2"/>
<circle clip-path="url(#clip592)" style="fill:#009af9; stroke:none; fill-opacity:0" cx="1970.19" cy="660.209" r="2"/>
<circle clip-path="url(#clip592)" style="fill:#009af9; stroke:none; fill-opacity:0" cx="2048.73" cy="764.466" r="2"/>
<circle clip-path="url(#clip592)" style="fill:#009af9; stroke:none; fill-opacity:0" cx="2127.27" cy="799.524" r="2"/>
<circle clip-path="url(#clip592)" style="fill:#009af9; stroke:none; fill-opacity:0" cx="2205.82" cy="834.755" r="2"/>
<path clip-path="url(#clip590)" d="
M1978.42 243.344 L2282.74 243.344 L2282.74 139.664 L1978.42 139.664  Z
  " fill="#ffffff" fill-rule="evenodd" fill-opacity="1"/>
<polyline clip-path="url(#clip590)" style="stroke:#000000; stroke-linecap:round; stroke-linejoin:round; stroke-width:4; stroke-opacity:1; fill:none" points="
  1978.42,243.344 2282.74,243.344 2282.74,139.664 1978.42,139.664 1978.42,243.344 
  "/>
<path clip-path="url(#clip590)" d="
M2001.76 212.24 L2141.78 212.24 L2141.78 170.768 L2001.76 170.768 L2001.76 212.24  Z
  " fill="#009af9" fill-rule="evenodd" fill-opacity="1"/>
<polyline clip-path="url(#clip590)" style="stroke:#000000; stroke-linecap:round; stroke-linejoin:round; stroke-width:4; stroke-opacity:1; fill:none" points="
  2001.76,212.24 2141.78,212.24 2141.78,170.768 2001.76,170.768 2001.76,212.24 
  "/>
<path clip-path="url(#clip590)" d="M2185.63 183.853 L2185.63 187.835 Q2183.82 186.839 2182 186.353 Q2180.19 185.844 2178.34 185.844 Q2174.2 185.844 2171.9 188.483 Q2169.61 191.099 2169.61 195.844 Q2169.61 200.589 2171.9 203.228 Q2174.2 205.844 2178.34 205.844 Q2180.19 205.844 2182 205.358 Q2183.82 204.849 2185.63 203.853 L2185.63 207.788 Q2183.85 208.622 2181.93 209.038 Q2180.03 209.455 2177.88 209.455 Q2172.02 209.455 2168.57 205.774 Q2165.12 202.094 2165.12 195.844 Q2165.12 189.501 2168.59 185.867 Q2172.09 182.233 2178.15 182.233 Q2180.12 182.233 2182 182.65 Q2183.87 183.043 2185.63 183.853 Z" fill="#000000" fill-rule="evenodd" fill-opacity="1" /><path clip-path="url(#clip590)" d="M2214.59 193.136 L2214.59 208.784 L2210.33 208.784 L2210.33 193.275 Q2210.33 189.594 2208.89 187.765 Q2207.46 185.937 2204.59 185.937 Q2201.14 185.937 2199.15 188.136 Q2197.16 190.335 2197.16 194.131 L2197.16 208.784 L2192.88 208.784 L2192.88 182.858 L2197.16 182.858 L2197.16 186.886 Q2198.69 184.548 2200.75 183.39 Q2202.83 182.233 2205.54 182.233 Q2210.01 182.233 2212.3 185.011 Q2214.59 187.765 2214.59 193.136 Z" fill="#000000" fill-rule="evenodd" fill-opacity="1" /><path clip-path="url(#clip590)" d="M2227.3 175.497 L2227.3 182.858 L2236.07 182.858 L2236.07 186.168 L2227.3 186.168 L2227.3 200.242 Q2227.3 203.413 2228.15 204.316 Q2229.03 205.219 2231.69 205.219 L2236.07 205.219 L2236.07 208.784 L2231.69 208.784 Q2226.76 208.784 2224.89 206.955 Q2223.01 205.103 2223.01 200.242 L2223.01 186.168 L2219.89 186.168 L2219.89 182.858 L2223.01 182.858 L2223.01 175.497 L2227.3 175.497 Z" fill="#000000" fill-rule="evenodd" fill-opacity="1" /></svg>
