<?xml version="1.0" encoding="utf-8"?>
<svg xmlns="http://www.w3.org/2000/svg" xmlns:xlink="http://www.w3.org/1999/xlink" width="2000" height="800" viewBox="0 0 8000 3200">
<defs>
  <clipPath id="clip060">
    <rect x="0" y="0" width="8000" height="3200"/>
  </clipPath>
</defs>
<path clip-path="url(#clip060)" d="
M0 3200 L8000 3200 L8000 0 L0 0  Z
  " fill="#ffffff" fill-rule="evenodd" fill-opacity="1"/>
<defs>
  <clipPath id="clip061">
    <rect x="1600" y="0" width="5601" height="3200"/>
  </clipPath>
</defs>
<path clip-path="url(#clip060)" d="
M603.69 2854.22 L7811.02 2854.22 L7811.02 188.976 L603.69 188.976  Z
  " fill="#ffffff" fill-rule="evenodd" fill-opacity="1"/>
<defs>
  <clipPath id="clip062">
    <rect x="603" y="188" width="7208" height="2666"/>
  </clipPath>
</defs>
<polyline clip-path="url(#clip062)" style="stroke:#000000; stroke-linecap:round; stroke-linejoin:round; stroke-width:2; stroke-opacity:0.1; fill:none" points="
  968.532,2854.22 968.532,188.976 
  "/>
<polyline clip-path="url(#clip062)" style="stroke:#000000; stroke-linecap:round; stroke-linejoin:round; stroke-width:2; stroke-opacity:0.1; fill:none" points="
  2048.14,2854.22 2048.14,188.976 
  "/>
<polyline clip-path="url(#clip062)" style="stroke:#000000; stroke-linecap:round; stroke-linejoin:round; stroke-width:2; stroke-opacity:0.1; fill:none" points="
  3127.75,2854.22 3127.75,188.976 
  "/>
<polyline clip-path="url(#clip062)" style="stroke:#000000; stroke-linecap:round; stroke-linejoin:round; stroke-width:2; stroke-opacity:0.1; fill:none" points="
  4207.36,2854.22 4207.36,188.976 
  "/>
<polyline clip-path="url(#clip062)" style="stroke:#000000; stroke-linecap:round; stroke-linejoin:round; stroke-width:2; stroke-opacity:0.1; fill:none" points="
  5286.96,2854.22 5286.96,188.976 
  "/>
<polyline clip-path="url(#clip062)" style="stroke:#000000; stroke-linecap:round; stroke-linejoin:round; stroke-width:2; stroke-opacity:0.1; fill:none" points="
  6366.57,2854.22 6366.57,188.976 
  "/>
<polyline clip-path="url(#clip060)" style="stroke:#000000; stroke-linecap:round; stroke-linejoin:round; stroke-width:4; stroke-opacity:1; fill:none" points="
  603.69,2854.22 7811.02,2854.22 
  "/>
<polyline clip-path="url(#clip060)" style="stroke:#000000; stroke-linecap:round; stroke-linejoin:round; stroke-width:4; stroke-opacity:1; fill:none" points="
  968.532,2854.22 968.532,2835.32 
  "/>
<polyline clip-path="url(#clip060)" style="stroke:#000000; stroke-linecap:round; stroke-linejoin:round; stroke-width:4; stroke-opacity:1; fill:none" points="
  2048.14,2854.22 2048.14,2835.32 
  "/>
<polyline clip-path="url(#clip060)" style="stroke:#000000; stroke-linecap:round; stroke-linejoin:round; stroke-width:4; stroke-opacity:1; fill:none" points="
  3127.75,2854.22 3127.75,2835.32 
  "/>
<polyline clip-path="url(#clip060)" style="stroke:#000000; stroke-linecap:round; stroke-linejoin:round; stroke-width:4; stroke-opacity:1; fill:none" points="
  4207.36,2854.22 4207.36,2835.32 
  "/>
<polyline clip-path="url(#clip060)" style="stroke:#000000; stroke-linecap:round; stroke-linejoin:round; stroke-width:4; stroke-opacity:1; fill:none" points="
  5286.96,2854.22 5286.96,2835.32 
  "/>
<polyline clip-path="url(#clip060)" style="stroke:#000000; stroke-linecap:round; stroke-linejoin:round; stroke-width:4; stroke-opacity:1; fill:none" points="
  6366.57,2854.22 6366.57,2835.32 
  "/>
<path clip-path="url(#clip060)" d="M968.532 2944.58 Q960.407 2944.58 956.293 2952.6 Q952.23 2960.57 952.23 2976.61 Q952.23 2992.6 956.293 3000.62 Q960.407 3008.59 968.532 3008.59 Q976.709 3008.59 980.772 3000.62 Q984.886 2992.6 984.886 2976.61 Q984.886 2960.57 980.772 2952.6 Q976.709 2944.58 968.532 2944.58 M968.532 2936.25 Q981.605 2936.25 988.48 2946.61 Q995.407 2956.93 995.407 2976.61 Q995.407 2996.25 988.48 3006.61 Q981.605 3016.93 968.532 3016.93 Q955.459 3016.93 948.532 3006.61 Q941.657 2996.25 941.657 2976.61 Q941.657 2956.93 948.532 2946.61 Q955.459 2936.25 968.532 2936.25 Z" fill="#000000" fill-rule="evenodd" fill-opacity="1" /><path clip-path="url(#clip060)" d="M2054.91 2946.82 L2028.35 2988.33 L2054.91 2988.33 L2054.91 2946.82 M2052.15 2937.66 L2065.38 2937.66 L2065.38 2988.33 L2076.47 2988.33 L2076.47 2997.08 L2065.38 2997.08 L2065.38 3015.42 L2054.91 3015.42 L2054.91 2997.08 L2019.81 2997.08 L2019.81 2986.93 L2052.15 2937.66 Z" fill="#000000" fill-rule="evenodd" fill-opacity="1" /><path clip-path="url(#clip060)" d="M3127.75 2978.49 Q3120.25 2978.49 3115.93 2982.5 Q3111.65 2986.51 3111.65 2993.54 Q3111.65 3000.57 3115.93 3004.58 Q3120.25 3008.59 3127.75 3008.59 Q3135.25 3008.59 3139.57 3004.58 Q3143.89 3000.52 3143.89 2993.54 Q3143.89 2986.51 3139.57 2982.5 Q3135.3 2978.49 3127.75 2978.49 M3117.23 2974.01 Q3110.46 2972.34 3106.65 2967.71 Q3102.9 2963.07 3102.9 2956.41 Q3102.9 2947.08 3109.52 2941.67 Q3116.19 2936.25 3127.75 2936.25 Q3139.36 2936.25 3145.98 2941.67 Q3152.59 2947.08 3152.59 2956.41 Q3152.59 2963.07 3148.79 2967.71 Q3145.04 2972.34 3138.32 2974.01 Q3145.93 2975.78 3150.14 2980.94 Q3154.42 2986.09 3154.42 2993.54 Q3154.42 3004.84 3147.49 3010.88 Q3140.61 3016.93 3127.75 3016.93 Q3114.88 3016.93 3107.96 3010.88 Q3101.08 3004.84 3101.08 2993.54 Q3101.08 2986.09 3105.35 2980.94 Q3109.62 2975.78 3117.23 2974.01 M3113.37 2957.4 Q3113.37 2963.44 3117.12 2966.82 Q3120.93 2970.21 3127.75 2970.21 Q3134.52 2970.21 3138.32 2966.82 Q3142.18 2963.44 3142.18 2957.4 Q3142.18 2951.35 3138.32 2947.97 Q3134.52 2944.58 3127.75 2944.58 Q3120.93 2944.58 3117.12 2947.97 Q3113.37 2951.35 3113.37 2957.4 Z" fill="#000000" fill-rule="evenodd" fill-opacity="1" /><path clip-path="url(#clip060)" d="M4152.2 3006.56 L4169.39 3006.56 L4169.39 2947.24 L4150.69 2950.99 L4150.69 2941.41 L4169.28 2937.66 L4179.8 2937.66 L4179.8 3006.56 L4196.99 3006.56 L4196.99 3015.42 L4152.2 3015.42 L4152.2 3006.56 Z" fill="#000000" fill-rule="evenodd" fill-opacity="1" /><path clip-path="url(#clip060)" d="M4227.3 3006.56 L4264.02 3006.56 L4264.02 3015.42 L4214.65 3015.42 L4214.65 3006.56 Q4220.64 3000.36 4230.95 2989.95 Q4241.31 2979.48 4243.97 2976.46 Q4249.02 2970.78 4251 2966.87 Q4253.03 2962.92 4253.03 2959.11 Q4253.03 2952.92 4248.66 2949.01 Q4244.34 2945.1 4237.36 2945.1 Q4232.41 2945.1 4226.89 2946.82 Q4221.42 2948.54 4215.17 2952.03 L4215.17 2941.41 Q4221.52 2938.85 4227.04 2937.55 Q4232.56 2936.25 4237.15 2936.25 Q4249.23 2936.25 4256.42 2942.29 Q4263.61 2948.33 4263.61 2958.44 Q4263.61 2963.23 4261.78 2967.55 Q4260.01 2971.82 4255.27 2977.66 Q4253.97 2979.17 4246.99 2986.41 Q4240.01 2993.59 4227.3 3006.56 Z" fill="#000000" fill-rule="evenodd" fill-opacity="1" /><path clip-path="url(#clip060)" d="M5229.83 3006.56 L5247.02 3006.56 L5247.02 2947.24 L5228.32 2950.99 L5228.32 2941.41 L5246.91 2937.66 L5257.43 2937.66 L5257.43 3006.56 L5274.62 3006.56 L5274.62 3015.42 L5229.83 3015.42 L5229.83 3006.56 Z" fill="#000000" fill-rule="evenodd" fill-opacity="1" /><path clip-path="url(#clip060)" d="M5319.67 2972.34 Q5312.59 2972.34 5308.42 2977.19 Q5304.31 2982.03 5304.31 2990.47 Q5304.31 2998.85 5308.42 3003.75 Q5312.59 3008.59 5319.67 3008.59 Q5326.76 3008.59 5330.87 3003.75 Q5335.04 2998.85 5335.04 2990.47 Q5335.04 2982.03 5330.87 2977.19 Q5326.76 2972.34 5319.67 2972.34 M5340.56 2939.37 L5340.56 2948.96 Q5336.6 2947.08 5332.54 2946.09 Q5328.53 2945.1 5324.57 2945.1 Q5314.15 2945.1 5308.63 2952.13 Q5303.16 2959.17 5302.38 2973.38 Q5305.45 2968.85 5310.09 2966.46 Q5314.72 2964.01 5320.3 2964.01 Q5332.02 2964.01 5338.79 2971.14 Q5345.61 2978.23 5345.61 2990.47 Q5345.61 3002.45 5338.53 3009.69 Q5331.44 3016.93 5319.67 3016.93 Q5306.18 3016.93 5299.05 3006.61 Q5291.91 2996.25 5291.91 2976.61 Q5291.91 2958.18 5300.66 2947.24 Q5309.41 2936.25 5324.15 2936.25 Q5328.11 2936.25 5332.12 2937.03 Q5336.18 2937.81 5340.56 2939.37 Z" fill="#000000" fill-rule="evenodd" fill-opacity="1" /><path clip-path="url(#clip060)" d="M6318.81 3006.56 L6355.53 3006.56 L6355.53 3015.42 L6306.16 3015.42 L6306.16 3006.56 Q6312.15 3000.36 6322.46 2989.95 Q6332.82 2979.48 6335.48 2976.46 Q6340.53 2970.78 6342.51 2966.87 Q6344.54 2962.92 6344.54 2959.11 Q6344.54 2952.92 6340.17 2949.01 Q6335.84 2945.1 6328.86 2945.1 Q6323.92 2945.1 6318.4 2946.82 Q6312.93 2948.54 6306.68 2952.03 L6306.68 2941.41 Q6313.03 2938.85 6318.55 2937.55 Q6324.07 2936.25 6328.66 2936.25 Q6340.74 2936.25 6347.93 2942.29 Q6355.11 2948.33 6355.11 2958.44 Q6355.11 2963.23 6353.29 2967.55 Q6351.52 2971.82 6346.78 2977.66 Q6345.48 2979.17 6338.5 2986.41 Q6331.52 2993.59 6318.81 3006.56 Z" fill="#000000" fill-rule="evenodd" fill-opacity="1" /><path clip-path="url(#clip060)" d="M6400.11 2944.58 Q6391.99 2944.58 6387.87 2952.6 Q6383.81 2960.57 6383.81 2976.61 Q6383.81 2992.6 6387.87 3000.62 Q6391.99 3008.59 6400.11 3008.59 Q6408.29 3008.59 6412.35 3000.62 Q6416.47 2992.6 6416.47 2976.61 Q6416.47 2960.57 6412.35 2952.6 Q6408.29 2944.58 6400.11 2944.58 M6400.11 2936.25 Q6413.19 2936.25 6420.06 2946.61 Q6426.99 2956.93 6426.99 2976.61 Q6426.99 2996.25 6420.06 3006.61 Q6413.19 3016.93 6400.11 3016.93 Q6387.04 3016.93 6380.11 3006.61 Q6373.24 2996.25 6373.24 2976.61 Q6373.24 2956.93 6380.11 2946.61 Q6387.04 2936.25 6400.11 2936.25 Z" fill="#000000" fill-rule="evenodd" fill-opacity="1" /><path clip-path="url(#clip060)" d="M4084.13 3106.41 L4094.65 3106.41 L4094.65 3138.28 L4132.88 3138.28 L4132.88 3106.41 L4143.4 3106.41 L4143.4 3184.17 L4132.88 3184.17 L4132.88 3147.14 L4094.65 3147.14 L4094.65 3184.17 L4084.13 3184.17 L4084.13 3106.41 Z" fill="#000000" fill-rule="evenodd" fill-opacity="1" /><path clip-path="url(#clip060)" d="M4186.52 3132.55 Q4178.82 3132.55 4174.34 3138.59 Q4169.86 3144.58 4169.86 3155.05 Q4169.86 3165.52 4174.28 3171.56 Q4178.76 3177.55 4186.52 3177.55 Q4194.18 3177.55 4198.66 3171.51 Q4203.14 3165.47 4203.14 3155.05 Q4203.14 3144.69 4198.66 3138.65 Q4194.18 3132.55 4186.52 3132.55 M4186.52 3124.43 Q4199.02 3124.43 4206.16 3132.55 Q4213.29 3140.68 4213.29 3155.05 Q4213.29 3169.38 4206.16 3177.55 Q4199.02 3185.68 4186.52 3185.68 Q4173.97 3185.68 4166.84 3177.55 Q4159.75 3169.38 4159.75 3155.05 Q4159.75 3140.68 4166.84 3132.55 Q4173.97 3124.43 4186.52 3124.43 Z" fill="#000000" fill-rule="evenodd" fill-opacity="1" /><path clip-path="url(#clip060)" d="M4228.19 3161.15 L4228.19 3125.83 L4237.77 3125.83 L4237.77 3160.78 Q4237.77 3169.06 4241 3173.23 Q4244.23 3177.34 4250.69 3177.34 Q4258.45 3177.34 4262.93 3172.4 Q4267.46 3167.45 4267.46 3158.91 L4267.46 3125.83 L4277.04 3125.83 L4277.04 3184.17 L4267.46 3184.17 L4267.46 3175.21 Q4263.97 3180.52 4259.34 3183.13 Q4254.75 3185.68 4248.66 3185.68 Q4238.61 3185.68 4233.4 3179.43 Q4228.19 3173.18 4228.19 3161.15 M4252.3 3124.43 L4252.3 3124.43 Z" fill="#000000" fill-rule="evenodd" fill-opacity="1" /><path clip-path="url(#clip060)" d="M4330.59 3134.79 Q4328.97 3133.86 4327.04 3133.44 Q4325.17 3132.97 4322.88 3132.97 Q4314.75 3132.97 4310.38 3138.28 Q4306.05 3143.54 4306.05 3153.44 L4306.05 3184.17 L4296.42 3184.17 L4296.42 3125.83 L4306.05 3125.83 L4306.05 3134.9 Q4309.07 3129.58 4313.92 3127.03 Q4318.76 3124.43 4325.69 3124.43 Q4326.68 3124.43 4327.88 3124.58 Q4329.07 3124.69 4330.53 3124.95 L4330.59 3134.79 Z" fill="#000000" fill-rule="evenodd" fill-opacity="1" /><polyline clip-path="url(#clip062)" style="stroke:#000000; stroke-linecap:round; stroke-linejoin:round; stroke-width:2; stroke-opacity:0.1; fill:none" points="
  603.69,2778.78 7811.02,2778.78 
  "/>
<polyline clip-path="url(#clip062)" style="stroke:#000000; stroke-linecap:round; stroke-linejoin:round; stroke-width:2; stroke-opacity:0.1; fill:none" points="
  603.69,2093.43 7811.02,2093.43 
  "/>
<polyline clip-path="url(#clip062)" style="stroke:#000000; stroke-linecap:round; stroke-linejoin:round; stroke-width:2; stroke-opacity:0.1; fill:none" points="
  603.69,1408.07 7811.02,1408.07 
  "/>
<polyline clip-path="url(#clip062)" style="stroke:#000000; stroke-linecap:round; stroke-linejoin:round; stroke-width:2; stroke-opacity:0.1; fill:none" points="
  603.69,722.71 7811.02,722.71 
  "/>
<polyline clip-path="url(#clip060)" style="stroke:#000000; stroke-linecap:round; stroke-linejoin:round; stroke-width:4; stroke-opacity:1; fill:none" points="
  603.69,2854.22 603.69,188.976 
  "/>
<polyline clip-path="url(#clip060)" style="stroke:#000000; stroke-linecap:round; stroke-linejoin:round; stroke-width:4; stroke-opacity:1; fill:none" points="
  603.69,2778.78 622.587,2778.78 
  "/>
<polyline clip-path="url(#clip060)" style="stroke:#000000; stroke-linecap:round; stroke-linejoin:round; stroke-width:4; stroke-opacity:1; fill:none" points="
  603.69,2093.43 622.587,2093.43 
  "/>
<polyline clip-path="url(#clip060)" style="stroke:#000000; stroke-linecap:round; stroke-linejoin:round; stroke-width:4; stroke-opacity:1; fill:none" points="
  603.69,1408.07 622.587,1408.07 
  "/>
<polyline clip-path="url(#clip060)" style="stroke:#000000; stroke-linecap:round; stroke-linejoin:round; stroke-width:4; stroke-opacity:1; fill:none" points="
  603.69,722.71 622.587,722.71 
  "/>
<path clip-path="url(#clip060)" d="M456.815 2746.83 Q448.69 2746.83 444.575 2754.85 Q440.513 2762.82 440.513 2778.86 Q440.513 2794.85 444.575 2802.87 Q448.69 2810.84 456.815 2810.84 Q464.992 2810.84 469.054 2802.87 Q473.169 2794.85 473.169 2778.86 Q473.169 2762.82 469.054 2754.85 Q464.992 2746.83 456.815 2746.83 M456.815 2738.5 Q469.888 2738.5 476.763 2748.86 Q483.69 2759.17 483.69 2778.86 Q483.69 2798.5 476.763 2808.86 Q469.888 2819.17 456.815 2819.17 Q443.742 2819.17 436.815 2808.86 Q429.94 2798.5 429.94 2778.86 Q429.94 2759.17 436.815 2748.86 Q443.742 2738.5 456.815 2738.5 Z" fill="#000000" fill-rule="evenodd" fill-opacity="1" /><path clip-path="url(#clip060)" d="M232.545 2123.45 L249.732 2123.45 L249.732 2064.13 L231.035 2067.88 L231.035 2058.3 L249.628 2054.55 L260.149 2054.55 L260.149 2123.45 L277.337 2123.45 L277.337 2132.31 L232.545 2132.31 L232.545 2123.45 Z" fill="#000000" fill-rule="evenodd" fill-opacity="1" /><path clip-path="url(#clip060)" d="M321.086 2061.47 Q312.961 2061.47 308.847 2069.49 Q304.784 2077.46 304.784 2093.5 Q304.784 2109.49 308.847 2117.51 Q312.961 2125.48 321.086 2125.48 Q329.263 2125.48 333.326 2117.51 Q337.44 2109.49 337.44 2093.5 Q337.44 2077.46 333.326 2069.49 Q329.263 2061.47 321.086 2061.47 M321.086 2053.14 Q334.159 2053.14 341.034 2063.5 Q347.961 2073.82 347.961 2093.5 Q347.961 2113.14 341.034 2123.5 Q334.159 2133.82 321.086 2133.82 Q308.013 2133.82 301.086 2123.5 Q294.211 2113.14 294.211 2093.5 Q294.211 2073.82 301.086 2063.5 Q308.013 2053.14 321.086 2053.14 Z" fill="#000000" fill-rule="evenodd" fill-opacity="1" /><path clip-path="url(#clip060)" d="M388.95 2061.47 Q380.826 2061.47 376.711 2069.49 Q372.648 2077.46 372.648 2093.5 Q372.648 2109.49 376.711 2117.51 Q380.826 2125.48 388.95 2125.48 Q397.128 2125.48 401.19 2117.51 Q405.305 2109.49 405.305 2093.5 Q405.305 2077.46 401.19 2069.49 Q397.128 2061.47 388.95 2061.47 M388.95 2053.14 Q402.023 2053.14 408.898 2063.5 Q415.825 2073.82 415.825 2093.5 Q415.825 2113.14 408.898 2123.5 Q402.023 2133.82 388.95 2133.82 Q375.878 2133.82 368.951 2123.5 Q362.076 2113.14 362.076 2093.5 Q362.076 2073.82 368.951 2063.5 Q375.878 2053.14 388.95 2053.14 Z" fill="#000000" fill-rule="evenodd" fill-opacity="1" /><path clip-path="url(#clip060)" d="M456.815 2061.47 Q448.69 2061.47 444.575 2069.49 Q440.513 2077.46 440.513 2093.5 Q440.513 2109.49 444.575 2117.51 Q448.69 2125.48 456.815 2125.48 Q464.992 2125.48 469.054 2117.51 Q473.169 2109.49 473.169 2093.5 Q473.169 2077.46 469.054 2069.49 Q464.992 2061.47 456.815 2061.47 M456.815 2053.14 Q469.888 2053.14 476.763 2063.5 Q483.69 2073.82 483.69 2093.5 Q483.69 2113.14 476.763 2123.5 Q469.888 2133.82 456.815 2133.82 Q443.742 2133.82 436.815 2123.5 Q429.94 2113.14 429.94 2093.5 Q429.94 2073.82 436.815 2063.5 Q443.742 2053.14 456.815 2053.14 Z" fill="#000000" fill-rule="evenodd" fill-opacity="1" /><path clip-path="url(#clip060)" d="M239.785 1438.09 L276.503 1438.09 L276.503 1446.95 L227.128 1446.95 L227.128 1438.09 Q233.118 1431.9 243.43 1421.48 Q253.795 1411.01 256.451 1407.99 Q261.503 1402.31 263.482 1398.41 Q265.514 1394.45 265.514 1390.65 Q265.514 1384.45 261.139 1380.54 Q256.816 1376.64 249.837 1376.64 Q244.889 1376.64 239.368 1378.35 Q233.899 1380.07 227.649 1383.56 L227.649 1372.94 Q234.003 1370.39 239.524 1369.08 Q245.045 1367.78 249.628 1367.78 Q261.712 1367.78 268.899 1373.82 Q276.087 1379.87 276.087 1389.97 Q276.087 1394.76 274.264 1399.08 Q272.493 1403.35 267.753 1409.19 Q266.451 1410.7 259.472 1417.94 Q252.493 1425.13 239.785 1438.09 Z" fill="#000000" fill-rule="evenodd" fill-opacity="1" /><path clip-path="url(#clip060)" d="M321.086 1376.12 Q312.961 1376.12 308.847 1384.14 Q304.784 1392.1 304.784 1408.15 Q304.784 1424.14 308.847 1432.16 Q312.961 1440.13 321.086 1440.13 Q329.263 1440.13 333.326 1432.16 Q337.44 1424.14 337.44 1408.15 Q337.44 1392.1 333.326 1384.14 Q329.263 1376.12 321.086 1376.12 M321.086 1367.78 Q334.159 1367.78 341.034 1378.15 Q347.961 1388.46 347.961 1408.15 Q347.961 1427.78 341.034 1438.15 Q334.159 1448.46 321.086 1448.46 Q308.013 1448.46 301.086 1438.15 Q294.211 1427.78 294.211 1408.15 Q294.211 1388.46 301.086 1378.15 Q308.013 1367.78 321.086 1367.78 Z" fill="#000000" fill-rule="evenodd" fill-opacity="1" /><path clip-path="url(#clip060)" d="M388.95 1376.12 Q380.826 1376.12 376.711 1384.14 Q372.648 1392.1 372.648 1408.15 Q372.648 1424.14 376.711 1432.16 Q380.826 1440.13 388.95 1440.13 Q397.128 1440.13 401.19 1432.16 Q405.305 1424.14 405.305 1408.15 Q405.305 1392.1 401.19 1384.14 Q397.128 1376.12 388.95 1376.12 M388.95 1367.78 Q402.023 1367.78 408.898 1378.15 Q415.825 1388.46 415.825 1408.15 Q415.825 1427.78 408.898 1438.15 Q402.023 1448.46 388.95 1448.46 Q375.878 1448.46 368.951 1438.15 Q362.076 1427.78 362.076 1408.15 Q362.076 1388.46 368.951 1378.15 Q375.878 1367.78 388.95 1367.78 Z" fill="#000000" fill-rule="evenodd" fill-opacity="1" /><path clip-path="url(#clip060)" d="M456.815 1376.12 Q448.69 1376.12 444.575 1384.14 Q440.513 1392.1 440.513 1408.15 Q440.513 1424.14 444.575 1432.16 Q448.69 1440.13 456.815 1440.13 Q464.992 1440.13 469.054 1432.16 Q473.169 1424.14 473.169 1408.15 Q473.169 1392.1 469.054 1384.14 Q464.992 1376.12 456.815 1376.12 M456.815 1367.78 Q469.888 1367.78 476.763 1378.15 Q483.69 1388.46 483.69 1408.15 Q483.69 1427.78 476.763 1438.15 Q469.888 1448.46 456.815 1448.46 Q443.742 1448.46 436.815 1438.15 Q429.94 1427.78 429.94 1408.15 Q429.94 1388.46 436.815 1378.15 Q443.742 1367.78 456.815 1367.78 Z" fill="#000000" fill-rule="evenodd" fill-opacity="1" /><path clip-path="url(#clip060)" d="M262.597 719.663 Q270.149 721.278 274.368 726.382 Q278.639 731.486 278.639 738.986 Q278.639 750.496 270.722 756.798 Q262.805 763.1 248.222 763.1 Q243.326 763.1 238.118 762.111 Q232.962 761.173 227.441 759.246 L227.441 749.09 Q231.816 751.642 237.024 752.944 Q242.233 754.246 247.91 754.246 Q257.805 754.246 262.962 750.34 Q268.17 746.434 268.17 738.986 Q268.17 732.111 263.326 728.257 Q258.535 724.351 249.941 724.351 L240.878 724.351 L240.878 715.705 L250.357 715.705 Q258.118 715.705 262.232 712.632 Q266.347 709.507 266.347 703.674 Q266.347 697.684 262.076 694.507 Q257.857 691.278 249.941 691.278 Q245.618 691.278 240.67 692.215 Q235.722 693.153 229.785 695.132 L229.785 685.757 Q235.774 684.09 240.983 683.257 Q246.243 682.424 250.878 682.424 Q262.857 682.424 269.837 687.892 Q276.816 693.309 276.816 702.58 Q276.816 709.038 273.118 713.517 Q269.42 717.944 262.597 719.663 Z" fill="#000000" fill-rule="evenodd" fill-opacity="1" /><path clip-path="url(#clip060)" d="M321.086 690.757 Q312.961 690.757 308.847 698.778 Q304.784 706.747 304.784 722.788 Q304.784 738.778 308.847 746.798 Q312.961 754.767 321.086 754.767 Q329.263 754.767 333.326 746.798 Q337.44 738.778 337.44 722.788 Q337.44 706.747 333.326 698.778 Q329.263 690.757 321.086 690.757 M321.086 682.424 Q334.159 682.424 341.034 692.788 Q347.961 703.101 347.961 722.788 Q347.961 742.423 341.034 752.788 Q334.159 763.1 321.086 763.1 Q308.013 763.1 301.086 752.788 Q294.211 742.423 294.211 722.788 Q294.211 703.101 301.086 692.788 Q308.013 682.424 321.086 682.424 Z" fill="#000000" fill-rule="evenodd" fill-opacity="1" /><path clip-path="url(#clip060)" d="M388.95 690.757 Q380.826 690.757 376.711 698.778 Q372.648 706.747 372.648 722.788 Q372.648 738.778 376.711 746.798 Q380.826 754.767 388.95 754.767 Q397.128 754.767 401.19 746.798 Q405.305 738.778 405.305 722.788 Q405.305 706.747 401.19 698.778 Q397.128 690.757 388.95 690.757 M388.95 682.424 Q402.023 682.424 408.898 692.788 Q415.825 703.101 415.825 722.788 Q415.825 742.423 408.898 752.788 Q402.023 763.1 388.95 763.1 Q375.878 763.1 368.951 752.788 Q362.076 742.423 362.076 722.788 Q362.076 703.101 368.951 692.788 Q375.878 682.424 388.95 682.424 Z" fill="#000000" fill-rule="evenodd" fill-opacity="1" /><path clip-path="url(#clip060)" d="M456.815 690.757 Q448.69 690.757 444.575 698.778 Q440.513 706.747 440.513 722.788 Q440.513 738.778 444.575 746.798 Q448.69 754.767 456.815 754.767 Q464.992 754.767 469.054 746.798 Q473.169 738.778 473.169 722.788 Q473.169 706.747 469.054 698.778 Q464.992 690.757 456.815 690.757 M456.815 682.424 Q469.888 682.424 476.763 692.788 Q483.69 703.101 483.69 722.788 Q483.69 742.423 476.763 752.788 Q469.888 763.1 456.815 763.1 Q443.742 763.1 436.815 752.788 Q429.94 742.423 429.94 722.788 Q429.94 703.101 436.815 692.788 Q443.742 682.424 456.815 682.424 Z" fill="#000000" fill-rule="evenodd" fill-opacity="1" /><path clip-path="url(#clip060)" d="M6.04044 2083.7 L6.04044 2069.54 L71.0922 2035.06 L6.04044 2035.06 L6.04044 2024.85 L83.8004 2024.85 L83.8004 2039.02 L18.7487 2073.49 L83.8004 2073.49 L83.8004 2083.7 L6.04044 2083.7 Z" fill="#000000" fill-rule="evenodd" fill-opacity="1" /><path clip-path="url(#clip060)" d="M52.2381 1954.43 L56.9256 1954.43 L56.9256 1998.49 Q66.8214 1997.87 72.0297 1992.56 Q77.1859 1987.19 77.1859 1977.66 Q77.1859 1972.14 75.8317 1966.98 Q74.4776 1961.78 71.7693 1956.67 L80.8317 1956.67 Q83.0192 1961.83 84.165 1967.24 Q85.3108 1972.66 85.3108 1978.23 Q85.3108 1992.19 77.1859 2000.37 Q69.0609 2008.49 55.2068 2008.49 Q40.884 2008.49 32.4986 2000.79 Q24.0612 1993.03 24.0612 1979.9 Q24.0612 1968.13 31.6653 1961.31 Q39.2173 1954.43 52.2381 1954.43 M49.4256 1964.02 Q41.5611 1964.12 36.8736 1968.44 Q32.1861 1972.71 32.1861 1979.8 Q32.1861 1987.82 36.7174 1992.66 Q41.2486 1997.45 49.4777 1998.18 L49.4256 1964.02 Z" fill="#000000" fill-rule="evenodd" fill-opacity="1" /><path clip-path="url(#clip060)" d="M25.4674 1944.28 L25.4674 1934.69 L70.988 1922.71 L25.4674 1910.79 L25.4674 1899.48 L70.988 1887.51 L25.4674 1875.58 L25.4674 1866 L83.8004 1881.26 L83.8004 1892.56 L35.9882 1905.11 L83.8004 1917.71 L83.8004 1929.02 L25.4674 1944.28 Z" fill="#000000" fill-rule="evenodd" fill-opacity="1" /><path clip-path="url(#clip060)" d="M54.686 1775.68 Q44.1132 1775.68 38.1236 1780.06 Q32.082 1784.38 32.082 1791.99 Q32.082 1799.59 38.1236 1803.96 Q44.1132 1808.29 54.686 1808.29 Q65.2589 1808.29 71.3005 1803.96 Q77.2901 1799.59 77.2901 1791.99 Q77.2901 1784.38 71.3005 1780.06 Q65.2589 1775.68 54.686 1775.68 M34.3215 1808.29 Q29.1132 1805.27 26.6132 1800.68 Q24.0612 1796.05 24.0612 1789.64 Q24.0612 1779.02 32.4986 1772.4 Q40.9361 1765.74 54.686 1765.74 Q68.4359 1765.74 76.8734 1772.4 Q85.3108 1779.02 85.3108 1789.64 Q85.3108 1796.05 82.8109 1800.68 Q80.2588 1805.27 75.0505 1808.29 L83.8004 1808.29 L83.8004 1817.92 L2.75921 1817.92 L2.75921 1808.29 L34.3215 1808.29 Z" fill="#000000" fill-rule="evenodd" fill-opacity="1" /><path clip-path="url(#clip060)" d="M25.4674 1749.85 L25.4674 1740.27 L83.8004 1740.27 L83.8004 1749.85 L25.4674 1749.85 M2.75921 1749.85 L2.75921 1740.27 L14.8946 1740.27 L14.8946 1749.85 L2.75921 1749.85 Z" fill="#000000" fill-rule="evenodd" fill-opacity="1" /><path clip-path="url(#clip060)" d="M2.75921 1720.58 L2.75921 1710.94 L50.6235 1710.94 L25.4674 1682.35 L25.4674 1670.11 L52.7589 1701.05 L83.8004 1668.81 L83.8004 1681.31 L55.311 1710.94 L83.8004 1710.94 L83.8004 1720.58 L2.75921 1720.58 Z" fill="#000000" fill-rule="evenodd" fill-opacity="1" /><path clip-path="url(#clip060)" d="M52.2381 1612.35 L56.9256 1612.35 L56.9256 1656.41 Q66.8214 1655.79 72.0297 1650.48 Q77.1859 1645.11 77.1859 1635.58 Q77.1859 1630.06 75.8317 1624.9 Q74.4776 1619.69 71.7693 1614.59 L80.8317 1614.59 Q83.0192 1619.75 84.165 1625.16 Q85.3108 1630.58 85.3108 1636.15 Q85.3108 1650.11 77.1859 1658.29 Q69.0609 1666.41 55.2068 1666.41 Q40.884 1666.41 32.4986 1658.7 Q24.0612 1650.94 24.0612 1637.82 Q24.0612 1626.05 31.6653 1619.23 Q39.2173 1612.35 52.2381 1612.35 M49.4256 1621.93 Q41.5611 1622.04 36.8736 1626.36 Q32.1861 1630.63 32.1861 1637.72 Q32.1861 1645.74 36.7174 1650.58 Q41.2486 1655.37 49.4777 1656.1 L49.4256 1621.93 Z" fill="#000000" fill-rule="evenodd" fill-opacity="1" /><path clip-path="url(#clip060)" d="M27.1862 1525.53 L36.2486 1525.53 Q34.1653 1529.59 33.1236 1533.97 Q32.082 1538.34 32.082 1543.03 Q32.082 1550.16 34.2695 1553.76 Q36.4569 1557.3 40.8319 1557.3 Q44.1652 1557.3 46.0923 1554.75 Q47.9673 1552.19 49.686 1544.49 L50.4152 1541.21 Q52.6027 1531 56.6131 1526.73 Q60.5714 1522.4 67.7068 1522.4 Q75.8317 1522.4 80.5713 1528.86 Q85.3108 1535.27 85.3108 1546.52 Q85.3108 1551.21 84.3734 1556.31 Q83.4879 1561.36 81.665 1566.99 L71.7693 1566.99 Q74.5297 1561.67 75.9359 1556.52 Q77.2901 1551.36 77.2901 1546.31 Q77.2901 1539.54 74.9984 1535.89 Q72.6547 1532.25 68.4359 1532.25 Q64.5297 1532.25 62.4464 1534.9 Q60.3631 1537.51 58.436 1546.41 L57.6547 1549.75 Q55.7798 1558.65 51.9256 1562.61 Q48.0194 1566.57 41.2486 1566.57 Q33.0195 1566.57 28.5403 1560.74 Q24.0612 1554.9 24.0612 1544.17 Q24.0612 1538.86 24.8424 1534.17 Q25.6237 1529.49 27.1862 1525.53 Z" fill="#000000" fill-rule="evenodd" fill-opacity="1" /><path clip-path="url(#clip060)" d="M48.5923 1458.65 L83.8004 1458.65 L83.8004 1468.24 L48.9048 1468.24 Q40.6236 1468.24 36.509 1471.47 Q32.3945 1474.7 32.3945 1481.15 Q32.3945 1488.91 37.3424 1493.39 Q42.2902 1497.87 50.8319 1497.87 L83.8004 1497.87 L83.8004 1507.51 L2.75921 1507.51 L2.75921 1497.87 L34.5299 1497.87 Q29.2695 1494.43 26.6653 1489.8 Q24.0612 1485.11 24.0612 1479.02 Q24.0612 1468.97 30.3111 1463.81 Q36.509 1458.65 48.5923 1458.65 Z" fill="#000000" fill-rule="evenodd" fill-opacity="1" /><path clip-path="url(#clip060)" d="M54.4777 1413.03 Q54.4777 1424.64 57.1339 1429.12 Q59.7902 1433.6 66.1964 1433.6 Q71.3005 1433.6 74.3213 1430.27 Q77.2901 1426.88 77.2901 1421.1 Q77.2901 1413.13 71.6651 1408.34 Q65.988 1403.5 56.6131 1403.5 L54.4777 1403.5 L54.4777 1413.03 M50.5194 1393.91 L83.8004 1393.91 L83.8004 1403.5 L74.9463 1403.5 Q80.2588 1406.78 82.8109 1411.67 Q85.3108 1416.57 85.3108 1423.65 Q85.3108 1432.61 80.3109 1437.92 Q75.2588 1443.18 66.8214 1443.18 Q56.9777 1443.18 51.9777 1436.62 Q46.9777 1430.01 46.9777 1416.94 L46.9777 1403.5 L46.0402 1403.5 Q39.4257 1403.5 35.8319 1407.87 Q32.1861 1412.2 32.1861 1420.06 Q32.1861 1425.06 33.384 1429.8 Q34.582 1434.54 36.9778 1438.91 L28.1237 1438.91 Q26.0924 1433.65 25.1028 1428.71 Q24.0612 1423.76 24.0612 1419.07 Q24.0612 1406.41 30.6236 1400.16 Q37.1861 1393.91 50.5194 1393.91 Z" fill="#000000" fill-rule="evenodd" fill-opacity="1" /><path clip-path="url(#clip060)" d="M34.4257 1340.37 Q33.4882 1341.99 33.0715 1343.91 Q32.6028 1345.79 32.6028 1348.08 Q32.6028 1356.21 37.9153 1360.58 Q43.1757 1364.9 53.0714 1364.9 L83.8004 1364.9 L83.8004 1374.54 L25.4674 1374.54 L25.4674 1364.9 L34.5299 1364.9 Q29.2174 1361.88 26.6653 1357.04 Q24.0612 1352.2 24.0612 1345.27 Q24.0612 1344.28 24.2174 1343.08 Q24.3216 1341.88 24.582 1340.43 L34.4257 1340.37 Z" fill="#000000" fill-rule="evenodd" fill-opacity="1" /><path clip-path="url(#clip060)" d="M52.2381 1282.77 L56.9256 1282.77 L56.9256 1326.83 Q66.8214 1326.21 72.0297 1320.89 Q77.1859 1315.53 77.1859 1306 Q77.1859 1300.48 75.8317 1295.32 Q74.4776 1290.11 71.7693 1285.01 L80.8317 1285.01 Q83.0192 1290.16 84.165 1295.58 Q85.3108 1301 85.3108 1306.57 Q85.3108 1320.53 77.1859 1328.71 Q69.0609 1336.83 55.2068 1336.83 Q40.884 1336.83 32.4986 1329.12 Q24.0612 1321.36 24.0612 1308.24 Q24.0612 1296.47 31.6653 1289.64 Q39.2173 1282.77 52.2381 1282.77 M49.4256 1292.35 Q41.5611 1292.46 36.8736 1296.78 Q32.1861 1301.05 32.1861 1308.13 Q32.1861 1316.15 36.7174 1321 Q41.2486 1325.79 49.4777 1326.52 L49.4256 1292.35 Z" fill="#000000" fill-rule="evenodd" fill-opacity="1" /><path clip-path="url(#clip060)" d="M27.707 1191.16 L36.6653 1191.16 Q34.4257 1195.22 33.332 1199.33 Q32.1861 1203.39 32.1861 1207.56 Q32.1861 1216.88 38.1236 1222.04 Q44.009 1227.2 54.686 1227.2 Q65.363 1227.2 71.3005 1222.04 Q77.1859 1216.88 77.1859 1207.56 Q77.1859 1203.39 76.0921 1199.33 Q74.9463 1195.22 72.7068 1191.16 L81.5609 1191.16 Q83.4359 1195.17 84.3734 1199.49 Q85.3108 1203.76 85.3108 1208.6 Q85.3108 1221.78 77.0296 1229.54 Q68.7484 1237.3 54.686 1237.3 Q40.4153 1237.3 32.2382 1229.49 Q24.0612 1221.62 24.0612 1207.98 Q24.0612 1203.55 24.9987 1199.33 Q25.8841 1195.11 27.707 1191.16 Z" fill="#000000" fill-rule="evenodd" fill-opacity="1" /><path clip-path="url(#clip060)" d="M32.1861 1151.88 Q32.1861 1159.59 38.2278 1164.07 Q44.2173 1168.55 54.686 1168.55 Q65.1547 1168.55 71.1963 1164.12 Q77.1859 1159.64 77.1859 1151.88 Q77.1859 1144.23 71.1443 1139.75 Q65.1026 1135.27 54.686 1135.27 Q44.3215 1135.27 38.2799 1139.75 Q32.1861 1144.23 32.1861 1151.88 M24.0612 1151.88 Q24.0612 1139.38 32.1861 1132.25 Q40.3111 1125.11 54.686 1125.11 Q69.0089 1125.11 77.1859 1132.25 Q85.3108 1139.38 85.3108 1151.88 Q85.3108 1164.44 77.1859 1171.57 Q69.0089 1178.66 54.686 1178.66 Q40.3111 1178.66 32.1861 1171.57 Q24.0612 1164.44 24.0612 1151.88 Z" fill="#000000" fill-rule="evenodd" fill-opacity="1" /><path clip-path="url(#clip060)" d="M60.7797 1110.22 L25.4674 1110.22 L25.4674 1100.63 L60.4151 1100.63 Q68.6964 1100.63 72.863 1097.41 Q76.9776 1094.18 76.9776 1087.72 Q76.9776 1079.96 72.0297 1075.48 Q67.0818 1070.95 58.5402 1070.95 L25.4674 1070.95 L25.4674 1061.36 L83.8004 1061.36 L83.8004 1070.95 L74.8422 1070.95 Q80.1546 1074.44 82.7588 1079.07 Q85.3108 1083.66 85.3108 1089.75 Q85.3108 1099.8 79.0609 1105.01 Q72.8109 1110.22 60.7797 1110.22 M24.0612 1086.1 L24.0612 1086.1 Z" fill="#000000" fill-rule="evenodd" fill-opacity="1" /><path clip-path="url(#clip060)" d="M8.90501 1032.15 L25.4674 1032.15 L25.4674 1012.41 L32.9153 1012.41 L32.9153 1032.15 L64.5818 1032.15 Q71.7172 1032.15 73.7484 1030.22 Q75.7797 1028.24 75.7797 1022.25 L75.7797 1012.41 L83.8004 1012.41 L83.8004 1022.25 Q83.8004 1033.34 79.6859 1037.56 Q75.5192 1041.78 64.5818 1041.78 L32.9153 1041.78 L32.9153 1048.81 L25.4674 1048.81 L25.4674 1041.78 L8.90501 1041.78 L8.90501 1032.15 Z" fill="#000000" fill-rule="evenodd" fill-opacity="1" /><path clip-path="url(#clip060)" d="M27.1862 962.615 L36.2486 962.615 Q34.1653 966.677 33.1236 971.052 Q32.082 975.427 32.082 980.114 Q32.082 987.25 34.2695 990.844 Q36.4569 994.385 40.8319 994.385 Q44.1652 994.385 46.0923 991.833 Q47.9673 989.281 49.686 981.573 L50.4152 978.292 Q52.6027 968.083 56.6131 963.812 Q60.5714 959.49 67.7068 959.49 Q75.8317 959.49 80.5713 965.948 Q85.3108 972.354 85.3108 983.604 Q85.3108 988.292 84.3734 993.396 Q83.4879 998.448 81.665 1004.07 L71.7693 1004.07 Q74.5297 998.76 75.9359 993.604 Q77.2901 988.448 77.2901 983.396 Q77.2901 976.625 74.9984 972.979 Q72.6547 969.333 68.4359 969.333 Q64.5297 969.333 62.4464 971.99 Q60.3631 974.594 58.436 983.5 L57.6547 986.833 Q55.7798 995.739 51.9256 999.698 Q48.0194 1003.66 41.2486 1003.66 Q33.0195 1003.66 28.5403 997.823 Q24.0612 991.989 24.0612 981.26 Q24.0612 975.948 24.8424 971.26 Q25.6237 966.573 27.1862 962.615 Z" fill="#000000" fill-rule="evenodd" fill-opacity="1" /><path clip-path="url(#clip062)" d="
M995.523 2609.1 L995.523 2778.78 L1049.5 2778.78 L1049.5 2609.1 L995.523 2609.1 L995.523 2609.1  Z
  " fill="#009af9" fill-rule="evenodd" fill-opacity="1"/>
<polyline clip-path="url(#clip062)" style="stroke:#000000; stroke-linecap:round; stroke-linejoin:round; stroke-width:4; stroke-opacity:1; fill:none" points="
  995.523,2609.1 995.523,2778.78 1049.5,2778.78 1049.5,2609.1 995.523,2609.1 
  "/>
<path clip-path="url(#clip062)" d="
M1265.42 2667.96 L1265.42 2778.78 L1319.4 2778.78 L1319.4 2667.96 L1265.42 2667.96 L1265.42 2667.96  Z
  " fill="#009af9" fill-rule="evenodd" fill-opacity="1"/>
<polyline clip-path="url(#clip062)" style="stroke:#000000; stroke-linecap:round; stroke-linejoin:round; stroke-width:4; stroke-opacity:1; fill:none" points="
  1265.42,2667.96 1265.42,2778.78 1319.4,2778.78 1319.4,2667.96 1265.42,2667.96 
  "/>
<path clip-path="url(#clip062)" d="
M1535.33 2702.6 L1535.33 2778.78 L1589.31 2778.78 L1589.31 2702.6 L1535.33 2702.6 L1535.33 2702.6  Z
  " fill="#009af9" fill-rule="evenodd" fill-opacity="1"/>
<polyline clip-path="url(#clip062)" style="stroke:#000000; stroke-linecap:round; stroke-linejoin:round; stroke-width:4; stroke-opacity:1; fill:none" points="
  1535.33,2702.6 1535.33,2778.78 1589.31,2778.78 1589.31,2702.6 1535.33,2702.6 
  "/>
<path clip-path="url(#clip062)" d="
M1805.23 2724.5 L1805.23 2778.78 L1859.21 2778.78 L1859.21 2724.5 L1805.23 2724.5 L1805.23 2724.5  Z
  " fill="#009af9" fill-rule="evenodd" fill-opacity="1"/>
<polyline clip-path="url(#clip062)" style="stroke:#000000; stroke-linecap:round; stroke-linejoin:round; stroke-width:4; stroke-opacity:1; fill:none" points="
  1805.23,2724.5 1805.23,2778.78 1859.21,2778.78 1859.21,2724.5 1805.23,2724.5 
  "/>
<path clip-path="url(#clip062)" d="
M2075.13 2735.72 L2075.13 2778.78 L2129.11 2778.78 L2129.11 2735.72 L2075.13 2735.72 L2075.13 2735.72  Z
  " fill="#009af9" fill-rule="evenodd" fill-opacity="1"/>
<polyline clip-path="url(#clip062)" style="stroke:#000000; stroke-linecap:round; stroke-linejoin:round; stroke-width:4; stroke-opacity:1; fill:none" points="
  2075.13,2735.72 2075.13,2778.78 2129.11,2778.78 2129.11,2735.72 2075.13,2735.72 
  "/>
<path clip-path="url(#clip062)" d="
M2345.03 2711.65 L2345.03 2778.78 L2399.01 2778.78 L2399.01 2711.65 L2345.03 2711.65 L2345.03 2711.65  Z
  " fill="#009af9" fill-rule="evenodd" fill-opacity="1"/>
<polyline clip-path="url(#clip062)" style="stroke:#000000; stroke-linecap:round; stroke-linejoin:round; stroke-width:4; stroke-opacity:1; fill:none" points="
  2345.03,2711.65 2345.03,2778.78 2399.01,2778.78 2399.01,2711.65 2345.03,2711.65 
  "/>
<path clip-path="url(#clip062)" d="
M2614.93 2472.4 L2614.93 2778.78 L2668.92 2778.78 L2668.92 2472.4 L2614.93 2472.4 L2614.93 2472.4  Z
  " fill="#009af9" fill-rule="evenodd" fill-opacity="1"/>
<polyline clip-path="url(#clip062)" style="stroke:#000000; stroke-linecap:round; stroke-linejoin:round; stroke-width:4; stroke-opacity:1; fill:none" points="
  2614.93,2472.4 2614.93,2778.78 2668.92,2778.78 2668.92,2472.4 2614.93,2472.4 
  "/>
<path clip-path="url(#clip062)" d="
M2884.84 1795.4 L2884.84 2778.78 L2938.82 2778.78 L2938.82 1795.4 L2884.84 1795.4 L2884.84 1795.4  Z
  " fill="#009af9" fill-rule="evenodd" fill-opacity="1"/>
<polyline clip-path="url(#clip062)" style="stroke:#000000; stroke-linecap:round; stroke-linejoin:round; stroke-width:4; stroke-opacity:1; fill:none" points="
  2884.84,1795.4 2884.84,2778.78 2938.82,2778.78 2938.82,1795.4 2884.84,1795.4 
  "/>
<path clip-path="url(#clip062)" d="
M3154.74 887.991 L3154.74 2778.78 L3208.72 2778.78 L3208.72 887.991 L3154.74 887.991 L3154.74 887.991  Z
  " fill="#009af9" fill-rule="evenodd" fill-opacity="1"/>
<polyline clip-path="url(#clip062)" style="stroke:#000000; stroke-linecap:round; stroke-linejoin:round; stroke-width:4; stroke-opacity:1; fill:none" points="
  3154.74,887.991 3154.74,2778.78 3208.72,2778.78 3208.72,887.991 3154.74,887.991 
  "/>
<path clip-path="url(#clip062)" d="
M3424.64 1704.95 L3424.64 2778.78 L3478.62 2778.78 L3478.62 1704.95 L3424.64 1704.95 L3424.64 1704.95  Z
  " fill="#009af9" fill-rule="evenodd" fill-opacity="1"/>
<polyline clip-path="url(#clip062)" style="stroke:#000000; stroke-linecap:round; stroke-linejoin:round; stroke-width:4; stroke-opacity:1; fill:none" points="
  3424.64,1704.95 3424.64,2778.78 3478.62,2778.78 3478.62,1704.95 3424.64,1704.95 
  "/>
<path clip-path="url(#clip062)" d="
M3694.54 2068.96 L3694.54 2778.78 L3748.52 2778.78 L3748.52 2068.96 L3694.54 2068.96 L3694.54 2068.96  Z
  " fill="#009af9" fill-rule="evenodd" fill-opacity="1"/>
<polyline clip-path="url(#clip062)" style="stroke:#000000; stroke-linecap:round; stroke-linejoin:round; stroke-width:4; stroke-opacity:1; fill:none" points="
  3694.54,2068.96 3694.54,2778.78 3748.52,2778.78 3748.52,2068.96 3694.54,2068.96 
  "/>
<path clip-path="url(#clip062)" d="
M3964.44 2004.34 L3964.44 2778.78 L4018.43 2778.78 L4018.43 2004.34 L3964.44 2004.34 L3964.44 2004.34  Z
  " fill="#009af9" fill-rule="evenodd" fill-opacity="1"/>
<polyline clip-path="url(#clip062)" style="stroke:#000000; stroke-linecap:round; stroke-linejoin:round; stroke-width:4; stroke-opacity:1; fill:none" points="
  3964.44,2004.34 3964.44,2778.78 4018.43,2778.78 4018.43,2004.34 3964.44,2004.34 
  "/>
<path clip-path="url(#clip062)" d="
M4234.35 1805.29 L4234.35 2778.78 L4288.33 2778.78 L4288.33 1805.29 L4234.35 1805.29 L4234.35 1805.29  Z
  " fill="#009af9" fill-rule="evenodd" fill-opacity="1"/>
<polyline clip-path="url(#clip062)" style="stroke:#000000; stroke-linecap:round; stroke-linejoin:round; stroke-width:4; stroke-opacity:1; fill:none" points="
  4234.35,1805.29 4234.35,2778.78 4288.33,2778.78 4288.33,1805.29 4234.35,1805.29 
  "/>
<path clip-path="url(#clip062)" d="
M4504.25 1753.53 L4504.25 2778.78 L4558.23 2778.78 L4558.23 1753.53 L4504.25 1753.53 L4504.25 1753.53  Z
  " fill="#009af9" fill-rule="evenodd" fill-opacity="1"/>
<polyline clip-path="url(#clip062)" style="stroke:#000000; stroke-linecap:round; stroke-linejoin:round; stroke-width:4; stroke-opacity:1; fill:none" points="
  4504.25,1753.53 4504.25,2778.78 4558.23,2778.78 4558.23,1753.53 4504.25,1753.53 
  "/>
<path clip-path="url(#clip062)" d="
M4774.15 1767.45 L4774.15 2778.78 L4828.13 2778.78 L4828.13 1767.45 L4774.15 1767.45 L4774.15 1767.45  Z
  " fill="#009af9" fill-rule="evenodd" fill-opacity="1"/>
<polyline clip-path="url(#clip062)" style="stroke:#000000; stroke-linecap:round; stroke-linejoin:round; stroke-width:4; stroke-opacity:1; fill:none" points="
  4774.15,1767.45 4774.15,2778.78 4828.13,2778.78 4828.13,1767.45 4774.15,1767.45 
  "/>
<path clip-path="url(#clip062)" d="
M5044.05 1701.69 L5044.05 2778.78 L5098.03 2778.78 L5098.03 1701.69 L5044.05 1701.69 L5044.05 1701.69  Z
  " fill="#009af9" fill-rule="evenodd" fill-opacity="1"/>
<polyline clip-path="url(#clip062)" style="stroke:#000000; stroke-linecap:round; stroke-linejoin:round; stroke-width:4; stroke-opacity:1; fill:none" points="
  5044.05,1701.69 5044.05,2778.78 5098.03,2778.78 5098.03,1701.69 5044.05,1701.69 
  "/>
<path clip-path="url(#clip062)" d="
M5313.95 1499.66 L5313.95 2778.78 L5367.94 2778.78 L5367.94 1499.66 L5313.95 1499.66 L5313.95 1499.66  Z
  " fill="#009af9" fill-rule="evenodd" fill-opacity="1"/>
<polyline clip-path="url(#clip062)" style="stroke:#000000; stroke-linecap:round; stroke-linejoin:round; stroke-width:4; stroke-opacity:1; fill:none" points="
  5313.95,1499.66 5313.95,2778.78 5367.94,2778.78 5367.94,1499.66 5313.95,1499.66 
  "/>
<path clip-path="url(#clip062)" d="
M5583.86 880.048 L5583.86 2778.78 L5637.84 2778.78 L5637.84 880.048 L5583.86 880.048 L5583.86 880.048  Z
  " fill="#009af9" fill-rule="evenodd" fill-opacity="1"/>
<polyline clip-path="url(#clip062)" style="stroke:#000000; stroke-linecap:round; stroke-linejoin:round; stroke-width:4; stroke-opacity:1; fill:none" points="
  5583.86,880.048 5583.86,2778.78 5637.84,2778.78 5637.84,880.048 5583.86,880.048 
  "/>
<path clip-path="url(#clip062)" d="
M5853.76 1025.62 L5853.76 2778.78 L5907.74 2778.78 L5907.74 1025.62 L5853.76 1025.62 L5853.76 1025.62  Z
  " fill="#009af9" fill-rule="evenodd" fill-opacity="1"/>
<polyline clip-path="url(#clip062)" style="stroke:#000000; stroke-linecap:round; stroke-linejoin:round; stroke-width:4; stroke-opacity:1; fill:none" points="
  5853.76,1025.62 5853.76,2778.78 5907.74,2778.78 5907.74,1025.62 5853.76,1025.62 
  "/>
<path clip-path="url(#clip062)" d="
M6123.66 1687.24 L6123.66 2778.78 L6177.64 2778.78 L6177.64 1687.24 L6123.66 1687.24 L6123.66 1687.24  Z
  " fill="#009af9" fill-rule="evenodd" fill-opacity="1"/>
<polyline clip-path="url(#clip062)" style="stroke:#000000; stroke-linecap:round; stroke-linejoin:round; stroke-width:4; stroke-opacity:1; fill:none" points="
  6123.66,1687.24 6123.66,2778.78 6177.64,2778.78 6177.64,1687.24 6123.66,1687.24 
  "/>
<path clip-path="url(#clip062)" d="
M6393.56 2096.55 L6393.56 2778.78 L6447.54 2778.78 L6447.54 2096.55 L6393.56 2096.55 L6393.56 2096.55  Z
  " fill="#009af9" fill-rule="evenodd" fill-opacity="1"/>
<polyline clip-path="url(#clip062)" style="stroke:#000000; stroke-linecap:round; stroke-linejoin:round; stroke-width:4; stroke-opacity:1; fill:none" points="
  6393.56,2096.55 6393.56,2778.78 6447.54,2778.78 6447.54,2096.55 6393.56,2096.55 
  "/>
<path clip-path="url(#clip062)" d="
M6663.46 2320.03 L6663.46 2778.78 L6717.45 2778.78 L6717.45 2320.03 L6663.46 2320.03 L6663.46 2320.03  Z
  " fill="#009af9" fill-rule="evenodd" fill-opacity="1"/>
<polyline clip-path="url(#clip062)" style="stroke:#000000; stroke-linecap:round; stroke-linejoin:round; stroke-width:4; stroke-opacity:1; fill:none" points="
  6663.46,2320.03 6663.46,2778.78 6717.45,2778.78 6717.45,2320.03 6663.46,2320.03 
  "/>
<path clip-path="url(#clip062)" d="
M6933.37 2422.73 L6933.37 2778.78 L6987.35 2778.78 L6987.35 2422.73 L6933.37 2422.73 L6933.37 2422.73  Z
  " fill="#009af9" fill-rule="evenodd" fill-opacity="1"/>
<polyline clip-path="url(#clip062)" style="stroke:#000000; stroke-linecap:round; stroke-linejoin:round; stroke-width:4; stroke-opacity:1; fill:none" points="
  6933.37,2422.73 6933.37,2778.78 6987.35,2778.78 6987.35,2422.73 6933.37,2422.73 
  "/>
<path clip-path="url(#clip062)" d="
M7203.27 2519.19 L7203.27 2778.78 L7257.25 2778.78 L7257.25 2519.19 L7203.27 2519.19 L7203.27 2519.19  Z
  " fill="#009af9" fill-rule="evenodd" fill-opacity="1"/>
<polyline clip-path="url(#clip062)" style="stroke:#000000; stroke-linecap:round; stroke-linejoin:round; stroke-width:4; stroke-opacity:1; fill:none" points="
  7203.27,2519.19 7203.27,2778.78 7257.25,2778.78 7257.25,2519.19 7203.27,2519.19 
  "/>
<circle clip-path="url(#clip062)" style="fill:#009af9; stroke:none; fill-opacity:0" cx="1022.51" cy="2609.1" r="2"/>
<circle clip-path="url(#clip062)" style="fill:#009af9; stroke:none; fill-opacity:0" cx="1292.41" cy="2667.96" r="2"/>
<circle clip-path="url(#clip062)" style="fill:#009af9; stroke:none; fill-opacity:0" cx="1562.32" cy="2702.6" r="2"/>
<circle clip-path="url(#clip062)" style="fill:#009af9; stroke:none; fill-opacity:0" cx="1832.22" cy="2724.5" r="2"/>
<circle clip-path="url(#clip062)" style="fill:#009af9; stroke:none; fill-opacity:0" cx="2102.12" cy="2735.72" r="2"/>
<circle clip-path="url(#clip062)" style="fill:#009af9; stroke:none; fill-opacity:0" cx="2372.02" cy="2711.65" r="2"/>
<circle clip-path="url(#clip062)" style="fill:#009af9; stroke:none; fill-opacity:0" cx="2641.92" cy="2472.4" r="2"/>
<circle clip-path="url(#clip062)" style="fill:#009af9; stroke:none; fill-opacity:0" cx="2911.83" cy="1795.4" r="2"/>
<circle clip-path="url(#clip062)" style="fill:#009af9; stroke:none; fill-opacity:0" cx="3181.73" cy="887.991" r="2"/>
<circle clip-path="url(#clip062)" style="fill:#009af9; stroke:none; fill-opacity:0" cx="3451.63" cy="1704.95" r="2"/>
<circle clip-path="url(#clip062)" style="fill:#009af9; stroke:none; fill-opacity:0" cx="3721.53" cy="2068.96" r="2"/>
<circle clip-path="url(#clip062)" style="fill:#009af9; stroke:none; fill-opacity:0" cx="3991.43" cy="2004.34" r="2"/>
<circle clip-path="url(#clip062)" style="fill:#009af9; stroke:none; fill-opacity:0" cx="4261.34" cy="1805.29" r="2"/>
<circle clip-path="url(#clip062)" style="fill:#009af9; stroke:none; fill-opacity:0" cx="4531.24" cy="1753.53" r="2"/>
<circle clip-path="url(#clip062)" style="fill:#009af9; stroke:none; fill-opacity:0" cx="4801.14" cy="1767.45" r="2"/>
<circle clip-path="url(#clip062)" style="fill:#009af9; stroke:none; fill-opacity:0" cx="5071.04" cy="1701.69" r="2"/>
<circle clip-path="url(#clip062)" style="fill:#009af9; stroke:none; fill-opacity:0" cx="5340.95" cy="1499.66" r="2"/>
<circle clip-path="url(#clip062)" style="fill:#009af9; stroke:none; fill-opacity:0" cx="5610.85" cy="880.048" r="2"/>
<circle clip-path="url(#clip062)" style="fill:#009af9; stroke:none; fill-opacity:0" cx="5880.75" cy="1025.62" r="2"/>
<circle clip-path="url(#clip062)" style="fill:#009af9; stroke:none; fill-opacity:0" cx="6150.65" cy="1687.24" r="2"/>
<circle clip-path="url(#clip062)" style="fill:#009af9; stroke:none; fill-opacity:0" cx="6420.55" cy="2096.55" r="2"/>
<circle clip-path="url(#clip062)" style="fill:#009af9; stroke:none; fill-opacity:0" cx="6690.46" cy="2320.03" r="2"/>
<circle clip-path="url(#clip062)" style="fill:#009af9; stroke:none; fill-opacity:0" cx="6960.36" cy="2422.73" r="2"/>
<circle clip-path="url(#clip062)" style="fill:#009af9; stroke:none; fill-opacity:0" cx="7230.26" cy="2519.19" r="2"/>
<path clip-path="url(#clip062)" d="
M1049.5 2495.24 L1049.5 2778.78 L1103.48 2778.78 L1103.48 2495.24 L1049.5 2495.24 L1049.5 2495.24  Z
  " fill="#e26f46" fill-rule="evenodd" fill-opacity="1"/>
<polyline clip-path="url(#clip062)" style="stroke:#000000; stroke-linecap:round; stroke-linejoin:round; stroke-width:4; stroke-opacity:1; fill:none" points="
  1049.5,2495.24 1049.5,2778.78 1103.48,2778.78 1103.48,2495.24 1049.5,2495.24 
  "/>
<path clip-path="url(#clip062)" d="
M1319.4 2587.96 L1319.4 2778.78 L1373.39 2778.78 L1373.39 2587.96 L1319.4 2587.96 L1319.4 2587.96  Z
  " fill="#e26f46" fill-rule="evenodd" fill-opacity="1"/>
<polyline clip-path="url(#clip062)" style="stroke:#000000; stroke-linecap:round; stroke-linejoin:round; stroke-width:4; stroke-opacity:1; fill:none" points="
  1319.4,2587.96 1319.4,2778.78 1373.39,2778.78 1373.39,2587.96 1319.4,2587.96 
  "/>
<path clip-path="url(#clip062)" d="
M1589.31 2650.47 L1589.31 2778.78 L1643.29 2778.78 L1643.29 2650.47 L1589.31 2650.47 L1589.31 2650.47  Z
  " fill="#e26f46" fill-rule="evenodd" fill-opacity="1"/>
<polyline clip-path="url(#clip062)" style="stroke:#000000; stroke-linecap:round; stroke-linejoin:round; stroke-width:4; stroke-opacity:1; fill:none" points="
  1589.31,2650.47 1589.31,2778.78 1643.29,2778.78 1643.29,2650.47 1589.31,2650.47 
  "/>
<path clip-path="url(#clip062)" d="
M1859.21 2690.4 L1859.21 2778.78 L1913.19 2778.78 L1913.19 2690.4 L1859.21 2690.4 L1859.21 2690.4  Z
  " fill="#e26f46" fill-rule="evenodd" fill-opacity="1"/>
<polyline clip-path="url(#clip062)" style="stroke:#000000; stroke-linecap:round; stroke-linejoin:round; stroke-width:4; stroke-opacity:1; fill:none" points="
  1859.21,2690.4 1859.21,2778.78 1913.19,2778.78 1913.19,2690.4 1859.21,2690.4 
  "/>
<path clip-path="url(#clip062)" d="
M2129.11 2710.83 L2129.11 2778.78 L2183.09 2778.78 L2183.09 2710.83 L2129.11 2710.83 L2129.11 2710.83  Z
  " fill="#e26f46" fill-rule="evenodd" fill-opacity="1"/>
<polyline clip-path="url(#clip062)" style="stroke:#000000; stroke-linecap:round; stroke-linejoin:round; stroke-width:4; stroke-opacity:1; fill:none" points="
  2129.11,2710.83 2129.11,2778.78 2183.09,2778.78 2183.09,2710.83 2129.11,2710.83 
  "/>
<path clip-path="url(#clip062)" d="
M2399.01 2680.64 L2399.01 2778.78 L2452.99 2778.78 L2452.99 2680.64 L2399.01 2680.64 L2399.01 2680.64  Z
  " fill="#e26f46" fill-rule="evenodd" fill-opacity="1"/>
<polyline clip-path="url(#clip062)" style="stroke:#000000; stroke-linecap:round; stroke-linejoin:round; stroke-width:4; stroke-opacity:1; fill:none" points="
  2399.01,2680.64 2399.01,2778.78 2452.99,2778.78 2452.99,2680.64 2399.01,2680.64 
  "/>
<path clip-path="url(#clip062)" d="
M2668.92 2390.72 L2668.92 2778.78 L2722.9 2778.78 L2722.9 2390.72 L2668.92 2390.72 L2668.92 2390.72  Z
  " fill="#e26f46" fill-rule="evenodd" fill-opacity="1"/>
<polyline clip-path="url(#clip062)" style="stroke:#000000; stroke-linecap:round; stroke-linejoin:round; stroke-width:4; stroke-opacity:1; fill:none" points="
  2668.92,2390.72 2668.92,2778.78 2722.9,2778.78 2722.9,2390.72 2668.92,2390.72 
  "/>
<path clip-path="url(#clip062)" d="
M2938.82 1620.01 L2938.82 2778.78 L2992.8 2778.78 L2992.8 1620.01 L2938.82 1620.01 L2938.82 1620.01  Z
  " fill="#e26f46" fill-rule="evenodd" fill-opacity="1"/>
<polyline clip-path="url(#clip062)" style="stroke:#000000; stroke-linecap:round; stroke-linejoin:round; stroke-width:4; stroke-opacity:1; fill:none" points="
  2938.82,1620.01 2938.82,2778.78 2992.8,2778.78 2992.8,1620.01 2938.82,1620.01 
  "/>
<path clip-path="url(#clip062)" d="
M3208.72 601.552 L3208.72 2778.78 L3262.7 2778.78 L3262.7 601.552 L3208.72 601.552 L3208.72 601.552  Z
  " fill="#e26f46" fill-rule="evenodd" fill-opacity="1"/>
<polyline clip-path="url(#clip062)" style="stroke:#000000; stroke-linecap:round; stroke-linejoin:round; stroke-width:4; stroke-opacity:1; fill:none" points="
  3208.72,601.552 3208.72,2778.78 3262.7,2778.78 3262.7,601.552 3208.72,601.552 
  "/>
<path clip-path="url(#clip062)" d="
M3478.62 1482.76 L3478.62 2778.78 L3532.6 2778.78 L3532.6 1482.76 L3478.62 1482.76 L3478.62 1482.76  Z
  " fill="#e26f46" fill-rule="evenodd" fill-opacity="1"/>
<polyline clip-path="url(#clip062)" style="stroke:#000000; stroke-linecap:round; stroke-linejoin:round; stroke-width:4; stroke-opacity:1; fill:none" points="
  3478.62,1482.76 3478.62,2778.78 3532.6,2778.78 3532.6,1482.76 3478.62,1482.76 
  "/>
<path clip-path="url(#clip062)" d="
M3748.52 1888.62 L3748.52 2778.78 L3802.5 2778.78 L3802.5 1888.62 L3748.52 1888.62 L3748.52 1888.62  Z
  " fill="#e26f46" fill-rule="evenodd" fill-opacity="1"/>
<polyline clip-path="url(#clip062)" style="stroke:#000000; stroke-linecap:round; stroke-linejoin:round; stroke-width:4; stroke-opacity:1; fill:none" points="
  3748.52,1888.62 3748.52,2778.78 3802.5,2778.78 3802.5,1888.62 3748.52,1888.62 
  "/>
<path clip-path="url(#clip062)" d="
M4018.43 1793.58 L4018.43 2778.78 L4072.41 2778.78 L4072.41 1793.58 L4018.43 1793.58 L4018.43 1793.58  Z
  " fill="#e26f46" fill-rule="evenodd" fill-opacity="1"/>
<polyline clip-path="url(#clip062)" style="stroke:#000000; stroke-linecap:round; stroke-linejoin:round; stroke-width:4; stroke-opacity:1; fill:none" points="
  4018.43,1793.58 4018.43,2778.78 4072.41,2778.78 4072.41,1793.58 4018.43,1793.58 
  "/>
<path clip-path="url(#clip062)" d="
M4288.33 1555.86 L4288.33 2778.78 L4342.31 2778.78 L4342.31 1555.86 L4288.33 1555.86 L4288.33 1555.86  Z
  " fill="#e26f46" fill-rule="evenodd" fill-opacity="1"/>
<polyline clip-path="url(#clip062)" style="stroke:#000000; stroke-linecap:round; stroke-linejoin:round; stroke-width:4; stroke-opacity:1; fill:none" points="
  4288.33,1555.86 4288.33,2778.78 4342.31,2778.78 4342.31,1555.86 4288.33,1555.86 
  "/>
<path clip-path="url(#clip062)" d="
M4558.23 1471.69 L4558.23 2778.78 L4612.21 2778.78 L4612.21 1471.69 L4558.23 1471.69 L4558.23 1471.69  Z
  " fill="#e26f46" fill-rule="evenodd" fill-opacity="1"/>
<polyline clip-path="url(#clip062)" style="stroke:#000000; stroke-linecap:round; stroke-linejoin:round; stroke-width:4; stroke-opacity:1; fill:none" points="
  4558.23,1471.69 4558.23,2778.78 4612.21,2778.78 4612.21,1471.69 4558.23,1471.69 
  "/>
<path clip-path="url(#clip062)" d="
M4828.13 1473.77 L4828.13 2778.78 L4882.11 2778.78 L4882.11 1473.77 L4828.13 1473.77 L4828.13 1473.77  Z
  " fill="#e26f46" fill-rule="evenodd" fill-opacity="1"/>
<polyline clip-path="url(#clip062)" style="stroke:#000000; stroke-linecap:round; stroke-linejoin:round; stroke-width:4; stroke-opacity:1; fill:none" points="
  4828.13,1473.77 4828.13,2778.78 4882.11,2778.78 4882.11,1473.77 4828.13,1473.77 
  "/>
<path clip-path="url(#clip062)" d="
M5098.03 1371.98 L5098.03 2778.78 L5152.01 2778.78 L5152.01 1371.98 L5098.03 1371.98 L5098.03 1371.98  Z
  " fill="#e26f46" fill-rule="evenodd" fill-opacity="1"/>
<polyline clip-path="url(#clip062)" style="stroke:#000000; stroke-linecap:round; stroke-linejoin:round; stroke-width:4; stroke-opacity:1; fill:none" points="
  5098.03,1371.98 5098.03,2778.78 5152.01,2778.78 5152.01,1371.98 5098.03,1371.98 
  "/>
<path clip-path="url(#clip062)" d="
M5367.94 1084.58 L5367.94 2778.78 L5421.92 2778.78 L5421.92 1084.58 L5367.94 1084.58 L5367.94 1084.58  Z
  " fill="#e26f46" fill-rule="evenodd" fill-opacity="1"/>
<polyline clip-path="url(#clip062)" style="stroke:#000000; stroke-linecap:round; stroke-linejoin:round; stroke-width:4; stroke-opacity:1; fill:none" points="
  5367.94,1084.58 5367.94,2778.78 5421.92,2778.78 5421.92,1084.58 5367.94,1084.58 
  "/>
<path clip-path="url(#clip062)" d="
M5637.84 264.408 L5637.84 2778.78 L5691.82 2778.78 L5691.82 264.408 L5637.84 264.408 L5637.84 264.408  Z
  " fill="#e26f46" fill-rule="evenodd" fill-opacity="1"/>
<polyline clip-path="url(#clip062)" style="stroke:#000000; stroke-linecap:round; stroke-linejoin:round; stroke-width:4; stroke-opacity:1; fill:none" points="
  5637.84,264.408 5637.84,2778.78 5691.82,2778.78 5691.82,264.408 5637.84,264.408 
  "/>
<path clip-path="url(#clip062)" d="
M5907.74 367.369 L5907.74 2778.78 L5961.72 2778.78 L5961.72 367.369 L5907.74 367.369 L5907.74 367.369  Z
  " fill="#e26f46" fill-rule="evenodd" fill-opacity="1"/>
<polyline clip-path="url(#clip062)" style="stroke:#000000; stroke-linecap:round; stroke-linejoin:round; stroke-width:4; stroke-opacity:1; fill:none" points="
  5907.74,367.369 5907.74,2778.78 5961.72,2778.78 5961.72,367.369 5907.74,367.369 
  "/>
<path clip-path="url(#clip062)" d="
M6177.64 1170.95 L6177.64 2778.78 L6231.62 2778.78 L6231.62 1170.95 L6177.64 1170.95 L6177.64 1170.95  Z
  " fill="#e26f46" fill-rule="evenodd" fill-opacity="1"/>
<polyline clip-path="url(#clip062)" style="stroke:#000000; stroke-linecap:round; stroke-linejoin:round; stroke-width:4; stroke-opacity:1; fill:none" points="
  6177.64,1170.95 6177.64,2778.78 6231.62,2778.78 6231.62,1170.95 6177.64,1170.95 
  "/>
<path clip-path="url(#clip062)" d="
M6447.54 1700.69 L6447.54 2778.78 L6501.52 2778.78 L6501.52 1700.69 L6447.54 1700.69 L6447.54 1700.69  Z
  " fill="#e26f46" fill-rule="evenodd" fill-opacity="1"/>
<polyline clip-path="url(#clip062)" style="stroke:#000000; stroke-linecap:round; stroke-linejoin:round; stroke-width:4; stroke-opacity:1; fill:none" points="
  6447.54,1700.69 6447.54,2778.78 6501.52,2778.78 6501.52,1700.69 6447.54,1700.69 
  "/>
<path clip-path="url(#clip062)" d="
M6717.45 2032.94 L6717.45 2778.78 L6771.43 2778.78 L6771.43 2032.94 L6717.45 2032.94 L6717.45 2032.94  Z
  " fill="#e26f46" fill-rule="evenodd" fill-opacity="1"/>
<polyline clip-path="url(#clip062)" style="stroke:#000000; stroke-linecap:round; stroke-linejoin:round; stroke-width:4; stroke-opacity:1; fill:none" points="
  6717.45,2032.94 6717.45,2778.78 6771.43,2778.78 6771.43,2032.94 6717.45,2032.94 
  "/>
<path clip-path="url(#clip062)" d="
M6987.35 2191.45 L6987.35 2778.78 L7041.33 2778.78 L7041.33 2191.45 L6987.35 2191.45 L6987.35 2191.45  Z
  " fill="#e26f46" fill-rule="evenodd" fill-opacity="1"/>
<polyline clip-path="url(#clip062)" style="stroke:#000000; stroke-linecap:round; stroke-linejoin:round; stroke-width:4; stroke-opacity:1; fill:none" points="
  6987.35,2191.45 6987.35,2778.78 7041.33,2778.78 7041.33,2191.45 6987.35,2191.45 
  "/>
<path clip-path="url(#clip062)" d="
M7257.25 2344.09 L7257.25 2778.78 L7311.23 2778.78 L7311.23 2344.09 L7257.25 2344.09 L7257.25 2344.09  Z
  " fill="#e26f46" fill-rule="evenodd" fill-opacity="1"/>
<polyline clip-path="url(#clip062)" style="stroke:#000000; stroke-linecap:round; stroke-linejoin:round; stroke-width:4; stroke-opacity:1; fill:none" points="
  7257.25,2344.09 7257.25,2778.78 7311.23,2778.78 7311.23,2344.09 7257.25,2344.09 
  "/>
<circle clip-path="url(#clip062)" style="fill:#e26f46; stroke:none; fill-opacity:0" cx="1076.49" cy="2495.24" r="2"/>
<circle clip-path="url(#clip062)" style="fill:#e26f46; stroke:none; fill-opacity:0" cx="1346.4" cy="2587.96" r="2"/>
<circle clip-path="url(#clip062)" style="fill:#e26f46; stroke:none; fill-opacity:0" cx="1616.3" cy="2650.47" r="2"/>
<circle clip-path="url(#clip062)" style="fill:#e26f46; stroke:none; fill-opacity:0" cx="1886.2" cy="2690.4" r="2"/>
<circle clip-path="url(#clip062)" style="fill:#e26f46; stroke:none; fill-opacity:0" cx="2156.1" cy="2710.83" r="2"/>
<circle clip-path="url(#clip062)" style="fill:#e26f46; stroke:none; fill-opacity:0" cx="2426" cy="2680.64" r="2"/>
<circle clip-path="url(#clip062)" style="fill:#e26f46; stroke:none; fill-opacity:0" cx="2695.91" cy="2390.72" r="2"/>
<circle clip-path="url(#clip062)" style="fill:#e26f46; stroke:none; fill-opacity:0" cx="2965.81" cy="1620.01" r="2"/>
<circle clip-path="url(#clip062)" style="fill:#e26f46; stroke:none; fill-opacity:0" cx="3235.71" cy="601.552" r="2"/>
<circle clip-path="url(#clip062)" style="fill:#e26f46; stroke:none; fill-opacity:0" cx="3505.61" cy="1482.76" r="2"/>
<circle clip-path="url(#clip062)" style="fill:#e26f46; stroke:none; fill-opacity:0" cx="3775.51" cy="1888.62" r="2"/>
<circle clip-path="url(#clip062)" style="fill:#e26f46; stroke:none; fill-opacity:0" cx="4045.42" cy="1793.58" r="2"/>
<circle clip-path="url(#clip062)" style="fill:#e26f46; stroke:none; fill-opacity:0" cx="4315.32" cy="1555.86" r="2"/>
<circle clip-path="url(#clip062)" style="fill:#e26f46; stroke:none; fill-opacity:0" cx="4585.22" cy="1471.69" r="2"/>
<circle clip-path="url(#clip062)" style="fill:#e26f46; stroke:none; fill-opacity:0" cx="4855.12" cy="1473.77" r="2"/>
<circle clip-path="url(#clip062)" style="fill:#e26f46; stroke:none; fill-opacity:0" cx="5125.02" cy="1371.98" r="2"/>
<circle clip-path="url(#clip062)" style="fill:#e26f46; stroke:none; fill-opacity:0" cx="5394.93" cy="1084.58" r="2"/>
<circle clip-path="url(#clip062)" style="fill:#e26f46; stroke:none; fill-opacity:0" cx="5664.83" cy="264.408" r="2"/>
<circle clip-path="url(#clip062)" style="fill:#e26f46; stroke:none; fill-opacity:0" cx="5934.73" cy="367.369" r="2"/>
<circle clip-path="url(#clip062)" style="fill:#e26f46; stroke:none; fill-opacity:0" cx="6204.63" cy="1170.95" r="2"/>
<circle clip-path="url(#clip062)" style="fill:#e26f46; stroke:none; fill-opacity:0" cx="6474.53" cy="1700.69" r="2"/>
<circle clip-path="url(#clip062)" style="fill:#e26f46; stroke:none; fill-opacity:0" cx="6744.44" cy="2032.94" r="2"/>
<circle clip-path="url(#clip062)" style="fill:#e26f46; stroke:none; fill-opacity:0" cx="7014.34" cy="2191.45" r="2"/>
<circle clip-path="url(#clip062)" style="fill:#e26f46; stroke:none; fill-opacity:0" cx="7284.24" cy="2344.09" r="2"/>
<path clip-path="url(#clip062)" d="
M1103.48 2578.44 L1103.48 2778.78 L1157.46 2778.78 L1157.46 2578.44 L1103.48 2578.44 L1103.48 2578.44  Z
  " fill="#3da44d" fill-rule="evenodd" fill-opacity="1"/>
<polyline clip-path="url(#clip062)" style="stroke:#000000; stroke-linecap:round; stroke-linejoin:round; stroke-width:4; stroke-opacity:1; fill:none" points="
  1103.48,2578.44 1103.48,2778.78 1157.46,2778.78 1157.46,2578.44 1103.48,2578.44 
  "/>
<path clip-path="url(#clip062)" d="
M1373.39 2632.69 L1373.39 2778.78 L1427.37 2778.78 L1427.37 2632.69 L1373.39 2632.69 L1373.39 2632.69  Z
  " fill="#3da44d" fill-rule="evenodd" fill-opacity="1"/>
<polyline clip-path="url(#clip062)" style="stroke:#000000; stroke-linecap:round; stroke-linejoin:round; stroke-width:4; stroke-opacity:1; fill:none" points="
  1373.39,2632.69 1373.39,2778.78 1427.37,2778.78 1427.37,2632.69 1373.39,2632.69 
  "/>
<path clip-path="url(#clip062)" d="
M1643.29 2678.9 L1643.29 2778.78 L1697.27 2778.78 L1697.27 2678.9 L1643.29 2678.9 L1643.29 2678.9  Z
  " fill="#3da44d" fill-rule="evenodd" fill-opacity="1"/>
<polyline clip-path="url(#clip062)" style="stroke:#000000; stroke-linecap:round; stroke-linejoin:round; stroke-width:4; stroke-opacity:1; fill:none" points="
  1643.29,2678.9 1643.29,2778.78 1697.27,2778.78 1697.27,2678.9 1643.29,2678.9 
  "/>
<path clip-path="url(#clip062)" d="
M1913.19 2711.28 L1913.19 2778.78 L1967.17 2778.78 L1967.17 2711.28 L1913.19 2711.28 L1913.19 2711.28  Z
  " fill="#3da44d" fill-rule="evenodd" fill-opacity="1"/>
<polyline clip-path="url(#clip062)" style="stroke:#000000; stroke-linecap:round; stroke-linejoin:round; stroke-width:4; stroke-opacity:1; fill:none" points="
  1913.19,2711.28 1913.19,2778.78 1967.17,2778.78 1967.17,2711.28 1913.19,2711.28 
  "/>
<path clip-path="url(#clip062)" d="
M2183.09 2726.64 L2183.09 2778.78 L2237.07 2778.78 L2237.07 2726.64 L2183.09 2726.64 L2183.09 2726.64  Z
  " fill="#3da44d" fill-rule="evenodd" fill-opacity="1"/>
<polyline clip-path="url(#clip062)" style="stroke:#000000; stroke-linecap:round; stroke-linejoin:round; stroke-width:4; stroke-opacity:1; fill:none" points="
  2183.09,2726.64 2183.09,2778.78 2237.07,2778.78 2237.07,2726.64 2183.09,2726.64 
  "/>
<path clip-path="url(#clip062)" d="
M2452.99 2697.74 L2452.99 2778.78 L2506.97 2778.78 L2506.97 2697.74 L2452.99 2697.74 L2452.99 2697.74  Z
  " fill="#3da44d" fill-rule="evenodd" fill-opacity="1"/>
<polyline clip-path="url(#clip062)" style="stroke:#000000; stroke-linecap:round; stroke-linejoin:round; stroke-width:4; stroke-opacity:1; fill:none" points="
  2452.99,2697.74 2452.99,2778.78 2506.97,2778.78 2506.97,2697.74 2452.99,2697.74 
  "/>
<path clip-path="url(#clip062)" d="
M2722.9 2437.18 L2722.9 2778.78 L2776.88 2778.78 L2776.88 2437.18 L2722.9 2437.18 L2722.9 2437.18  Z
  " fill="#3da44d" fill-rule="evenodd" fill-opacity="1"/>
<polyline clip-path="url(#clip062)" style="stroke:#000000; stroke-linecap:round; stroke-linejoin:round; stroke-width:4; stroke-opacity:1; fill:none" points="
  2722.9,2437.18 2722.9,2778.78 2776.88,2778.78 2776.88,2437.18 2722.9,2437.18 
  "/>
<path clip-path="url(#clip062)" d="
M2992.8 1678.85 L2992.8 2778.78 L3046.78 2778.78 L3046.78 1678.85 L2992.8 1678.85 L2992.8 1678.85  Z
  " fill="#3da44d" fill-rule="evenodd" fill-opacity="1"/>
<polyline clip-path="url(#clip062)" style="stroke:#000000; stroke-linecap:round; stroke-linejoin:round; stroke-width:4; stroke-opacity:1; fill:none" points="
  2992.8,1678.85 2992.8,2778.78 3046.78,2778.78 3046.78,1678.85 2992.8,1678.85 
  "/>
<path clip-path="url(#clip062)" d="
M3262.7 601.512 L3262.7 2778.78 L3316.68 2778.78 L3316.68 601.512 L3262.7 601.512 L3262.7 601.512  Z
  " fill="#3da44d" fill-rule="evenodd" fill-opacity="1"/>
<polyline clip-path="url(#clip062)" style="stroke:#000000; stroke-linecap:round; stroke-linejoin:round; stroke-width:4; stroke-opacity:1; fill:none" points="
  3262.7,601.512 3262.7,2778.78 3316.68,2778.78 3316.68,601.512 3262.7,601.512 
  "/>
<path clip-path="url(#clip062)" d="
M3532.6 1560.62 L3532.6 2778.78 L3586.58 2778.78 L3586.58 1560.62 L3532.6 1560.62 L3532.6 1560.62  Z
  " fill="#3da44d" fill-rule="evenodd" fill-opacity="1"/>
<polyline clip-path="url(#clip062)" style="stroke:#000000; stroke-linecap:round; stroke-linejoin:round; stroke-width:4; stroke-opacity:1; fill:none" points="
  3532.6,1560.62 3532.6,2778.78 3586.58,2778.78 3586.58,1560.62 3532.6,1560.62 
  "/>
<path clip-path="url(#clip062)" d="
M3802.5 2025.5 L3802.5 2778.78 L3856.48 2778.78 L3856.48 2025.5 L3802.5 2025.5 L3802.5 2025.5  Z
  " fill="#3da44d" fill-rule="evenodd" fill-opacity="1"/>
<polyline clip-path="url(#clip062)" style="stroke:#000000; stroke-linecap:round; stroke-linejoin:round; stroke-width:4; stroke-opacity:1; fill:none" points="
  3802.5,2025.5 3802.5,2778.78 3856.48,2778.78 3856.48,2025.5 3802.5,2025.5 
  "/>
<path clip-path="url(#clip062)" d="
M4072.41 1968.44 L4072.41 2778.78 L4126.39 2778.78 L4126.39 1968.44 L4072.41 1968.44 L4072.41 1968.44  Z
  " fill="#3da44d" fill-rule="evenodd" fill-opacity="1"/>
<polyline clip-path="url(#clip062)" style="stroke:#000000; stroke-linecap:round; stroke-linejoin:round; stroke-width:4; stroke-opacity:1; fill:none" points="
  4072.41,1968.44 4072.41,2778.78 4126.39,2778.78 4126.39,1968.44 4072.41,1968.44 
  "/>
<path clip-path="url(#clip062)" d="
M4342.31 1772.41 L4342.31 2778.78 L4396.29 2778.78 L4396.29 1772.41 L4342.31 1772.41 L4342.31 1772.41  Z
  " fill="#3da44d" fill-rule="evenodd" fill-opacity="1"/>
<polyline clip-path="url(#clip062)" style="stroke:#000000; stroke-linecap:round; stroke-linejoin:round; stroke-width:4; stroke-opacity:1; fill:none" points="
  4342.31,1772.41 4342.31,2778.78 4396.29,2778.78 4396.29,1772.41 4342.31,1772.41 
  "/>
<path clip-path="url(#clip062)" d="
M4612.21 1734.8 L4612.21 2778.78 L4666.19 2778.78 L4666.19 1734.8 L4612.21 1734.8 L4612.21 1734.8  Z
  " fill="#3da44d" fill-rule="evenodd" fill-opacity="1"/>
<polyline clip-path="url(#clip062)" style="stroke:#000000; stroke-linecap:round; stroke-linejoin:round; stroke-width:4; stroke-opacity:1; fill:none" points="
  4612.21,1734.8 4612.21,2778.78 4666.19,2778.78 4666.19,1734.8 4612.21,1734.8 
  "/>
<path clip-path="url(#clip062)" d="
M4882.11 1767.24 L4882.11 2778.78 L4936.09 2778.78 L4936.09 1767.24 L4882.11 1767.24 L4882.11 1767.24  Z
  " fill="#3da44d" fill-rule="evenodd" fill-opacity="1"/>
<polyline clip-path="url(#clip062)" style="stroke:#000000; stroke-linecap:round; stroke-linejoin:round; stroke-width:4; stroke-opacity:1; fill:none" points="
  4882.11,1767.24 4882.11,2778.78 4936.09,2778.78 4936.09,1767.24 4882.11,1767.24 
  "/>
<path clip-path="url(#clip062)" d="
M5152.01 1699.26 L5152.01 2778.78 L5205.99 2778.78 L5205.99 1699.26 L5152.01 1699.26 L5152.01 1699.26  Z
  " fill="#3da44d" fill-rule="evenodd" fill-opacity="1"/>
<polyline clip-path="url(#clip062)" style="stroke:#000000; stroke-linecap:round; stroke-linejoin:round; stroke-width:4; stroke-opacity:1; fill:none" points="
  5152.01,1699.26 5152.01,2778.78 5205.99,2778.78 5205.99,1699.26 5152.01,1699.26 
  "/>
<path clip-path="url(#clip062)" d="
M5421.92 1478.48 L5421.92 2778.78 L5475.9 2778.78 L5475.9 1478.48 L5421.92 1478.48 L5421.92 1478.48  Z
  " fill="#3da44d" fill-rule="evenodd" fill-opacity="1"/>
<polyline clip-path="url(#clip062)" style="stroke:#000000; stroke-linecap:round; stroke-linejoin:round; stroke-width:4; stroke-opacity:1; fill:none" points="
  5421.92,1478.48 5421.92,2778.78 5475.9,2778.78 5475.9,1478.48 5421.92,1478.48 
  "/>
<path clip-path="url(#clip062)" d="
M5691.82 766.885 L5691.82 2778.78 L5745.8 2778.78 L5745.8 766.885 L5691.82 766.885 L5691.82 766.885  Z
  " fill="#3da44d" fill-rule="evenodd" fill-opacity="1"/>
<polyline clip-path="url(#clip062)" style="stroke:#000000; stroke-linecap:round; stroke-linejoin:round; stroke-width:4; stroke-opacity:1; fill:none" points="
  5691.82,766.885 5691.82,2778.78 5745.8,2778.78 5745.8,766.885 5691.82,766.885 
  "/>
<path clip-path="url(#clip062)" d="
M5961.72 935.605 L5961.72 2778.78 L6015.7 2778.78 L6015.7 935.605 L5961.72 935.605 L5961.72 935.605  Z
  " fill="#3da44d" fill-rule="evenodd" fill-opacity="1"/>
<polyline clip-path="url(#clip062)" style="stroke:#000000; stroke-linecap:round; stroke-linejoin:round; stroke-width:4; stroke-opacity:1; fill:none" points="
  5961.72,935.605 5961.72,2778.78 6015.7,2778.78 6015.7,935.605 5961.72,935.605 
  "/>
<path clip-path="url(#clip062)" d="
M6231.62 1680.65 L6231.62 2778.78 L6285.6 2778.78 L6285.6 1680.65 L6231.62 1680.65 L6231.62 1680.65  Z
  " fill="#3da44d" fill-rule="evenodd" fill-opacity="1"/>
<polyline clip-path="url(#clip062)" style="stroke:#000000; stroke-linecap:round; stroke-linejoin:round; stroke-width:4; stroke-opacity:1; fill:none" points="
  6231.62,1680.65 6231.62,2778.78 6285.6,2778.78 6285.6,1680.65 6231.62,1680.65 
  "/>
<path clip-path="url(#clip062)" d="
M6501.52 2099.05 L6501.52 2778.78 L6555.5 2778.78 L6555.5 2099.05 L6501.52 2099.05 L6501.52 2099.05  Z
  " fill="#3da44d" fill-rule="evenodd" fill-opacity="1"/>
<polyline clip-path="url(#clip062)" style="stroke:#000000; stroke-linecap:round; stroke-linejoin:round; stroke-width:4; stroke-opacity:1; fill:none" points="
  6501.52,2099.05 6501.52,2778.78 6555.5,2778.78 6555.5,2099.05 6501.52,2099.05 
  "/>
<path clip-path="url(#clip062)" d="
M6771.43 2284.47 L6771.43 2778.78 L6825.41 2778.78 L6825.41 2284.47 L6771.43 2284.47 L6771.43 2284.47  Z
  " fill="#3da44d" fill-rule="evenodd" fill-opacity="1"/>
<polyline clip-path="url(#clip062)" style="stroke:#000000; stroke-linecap:round; stroke-linejoin:round; stroke-width:4; stroke-opacity:1; fill:none" points="
  6771.43,2284.47 6771.43,2778.78 6825.41,2778.78 6825.41,2284.47 6771.43,2284.47 
  "/>
<path clip-path="url(#clip062)" d="
M7041.33 2374.29 L7041.33 2778.78 L7095.31 2778.78 L7095.31 2374.29 L7041.33 2374.29 L7041.33 2374.29  Z
  " fill="#3da44d" fill-rule="evenodd" fill-opacity="1"/>
<polyline clip-path="url(#clip062)" style="stroke:#000000; stroke-linecap:round; stroke-linejoin:round; stroke-width:4; stroke-opacity:1; fill:none" points="
  7041.33,2374.29 7041.33,2778.78 7095.31,2778.78 7095.31,2374.29 7041.33,2374.29 
  "/>
<path clip-path="url(#clip062)" d="
M7311.23 2477.34 L7311.23 2778.78 L7365.21 2778.78 L7365.21 2477.34 L7311.23 2477.34 L7311.23 2477.34  Z
  " fill="#3da44d" fill-rule="evenodd" fill-opacity="1"/>
<polyline clip-path="url(#clip062)" style="stroke:#000000; stroke-linecap:round; stroke-linejoin:round; stroke-width:4; stroke-opacity:1; fill:none" points="
  7311.23,2477.34 7311.23,2778.78 7365.21,2778.78 7365.21,2477.34 7311.23,2477.34 
  "/>
<circle clip-path="url(#clip062)" style="fill:#3da44d; stroke:none; fill-opacity:0" cx="1130.47" cy="2578.44" r="2"/>
<circle clip-path="url(#clip062)" style="fill:#3da44d; stroke:none; fill-opacity:0" cx="1400.38" cy="2632.69" r="2"/>
<circle clip-path="url(#clip062)" style="fill:#3da44d; stroke:none; fill-opacity:0" cx="1670.28" cy="2678.9" r="2"/>
<circle clip-path="url(#clip062)" style="fill:#3da44d; stroke:none; fill-opacity:0" cx="1940.18" cy="2711.28" r="2"/>
<circle clip-path="url(#clip062)" style="fill:#3da44d; stroke:none; fill-opacity:0" cx="2210.08" cy="2726.64" r="2"/>
<circle clip-path="url(#clip062)" style="fill:#3da44d; stroke:none; fill-opacity:0" cx="2479.98" cy="2697.74" r="2"/>
<circle clip-path="url(#clip062)" style="fill:#3da44d; stroke:none; fill-opacity:0" cx="2749.89" cy="2437.18" r="2"/>
<circle clip-path="url(#clip062)" style="fill:#3da44d; stroke:none; fill-opacity:0" cx="3019.79" cy="1678.85" r="2"/>
<circle clip-path="url(#clip062)" style="fill:#3da44d; stroke:none; fill-opacity:0" cx="3289.69" cy="601.512" r="2"/>
<circle clip-path="url(#clip062)" style="fill:#3da44d; stroke:none; fill-opacity:0" cx="3559.59" cy="1560.62" r="2"/>
<circle clip-path="url(#clip062)" style="fill:#3da44d; stroke:none; fill-opacity:0" cx="3829.49" cy="2025.5" r="2"/>
<circle clip-path="url(#clip062)" style="fill:#3da44d; stroke:none; fill-opacity:0" cx="4099.4" cy="1968.44" r="2"/>
<circle clip-path="url(#clip062)" style="fill:#3da44d; stroke:none; fill-opacity:0" cx="4369.3" cy="1772.41" r="2"/>
<circle clip-path="url(#clip062)" style="fill:#3da44d; stroke:none; fill-opacity:0" cx="4639.2" cy="1734.8" r="2"/>
<circle clip-path="url(#clip062)" style="fill:#3da44d; stroke:none; fill-opacity:0" cx="4909.1" cy="1767.24" r="2"/>
<circle clip-path="url(#clip062)" style="fill:#3da44d; stroke:none; fill-opacity:0" cx="5179" cy="1699.26" r="2"/>
<circle clip-path="url(#clip062)" style="fill:#3da44d; stroke:none; fill-opacity:0" cx="5448.91" cy="1478.48" r="2"/>
<circle clip-path="url(#clip062)" style="fill:#3da44d; stroke:none; fill-opacity:0" cx="5718.81" cy="766.885" r="2"/>
<circle clip-path="url(#clip062)" style="fill:#3da44d; stroke:none; fill-opacity:0" cx="5988.71" cy="935.605" r="2"/>
<circle clip-path="url(#clip062)" style="fill:#3da44d; stroke:none; fill-opacity:0" cx="6258.61" cy="1680.65" r="2"/>
<circle clip-path="url(#clip062)" style="fill:#3da44d; stroke:none; fill-opacity:0" cx="6528.51" cy="2099.05" r="2"/>
<circle clip-path="url(#clip062)" style="fill:#3da44d; stroke:none; fill-opacity:0" cx="6798.42" cy="2284.47" r="2"/>
<circle clip-path="url(#clip062)" style="fill:#3da44d; stroke:none; fill-opacity:0" cx="7068.32" cy="2374.29" r="2"/>
<circle clip-path="url(#clip062)" style="fill:#3da44d; stroke:none; fill-opacity:0" cx="7338.22" cy="2477.34" r="2"/>
<path clip-path="url(#clip062)" d="
M1157.46 2635.94 L1157.46 2778.78 L1211.44 2778.78 L1211.44 2635.94 L1157.46 2635.94 L1157.46 2635.94  Z
  " fill="#c271d2" fill-rule="evenodd" fill-opacity="1"/>
<polyline clip-path="url(#clip062)" style="stroke:#000000; stroke-linecap:round; stroke-linejoin:round; stroke-width:4; stroke-opacity:1; fill:none" points="
  1157.46,2635.94 1157.46,2778.78 1211.44,2778.78 1211.44,2635.94 1157.46,2635.94 
  "/>
<path clip-path="url(#clip062)" d="
M1427.37 2676.86 L1427.37 2778.78 L1481.35 2778.78 L1481.35 2676.86 L1427.37 2676.86 L1427.37 2676.86  Z
  " fill="#c271d2" fill-rule="evenodd" fill-opacity="1"/>
<polyline clip-path="url(#clip062)" style="stroke:#000000; stroke-linecap:round; stroke-linejoin:round; stroke-width:4; stroke-opacity:1; fill:none" points="
  1427.37,2676.86 1427.37,2778.78 1481.35,2778.78 1481.35,2676.86 1427.37,2676.86 
  "/>
<path clip-path="url(#clip062)" d="
M1697.27 2710.05 L1697.27 2778.78 L1751.25 2778.78 L1751.25 2710.05 L1697.27 2710.05 L1697.27 2710.05  Z
  " fill="#c271d2" fill-rule="evenodd" fill-opacity="1"/>
<polyline clip-path="url(#clip062)" style="stroke:#000000; stroke-linecap:round; stroke-linejoin:round; stroke-width:4; stroke-opacity:1; fill:none" points="
  1697.27,2710.05 1697.27,2778.78 1751.25,2778.78 1751.25,2710.05 1697.27,2710.05 
  "/>
<path clip-path="url(#clip062)" d="
M1967.17 2730.8 L1967.17 2778.78 L2021.15 2778.78 L2021.15 2730.8 L1967.17 2730.8 L1967.17 2730.8  Z
  " fill="#c271d2" fill-rule="evenodd" fill-opacity="1"/>
<polyline clip-path="url(#clip062)" style="stroke:#000000; stroke-linecap:round; stroke-linejoin:round; stroke-width:4; stroke-opacity:1; fill:none" points="
  1967.17,2730.8 1967.17,2778.78 2021.15,2778.78 2021.15,2730.8 1967.17,2730.8 
  "/>
<path clip-path="url(#clip062)" d="
M2237.07 2741.14 L2237.07 2778.78 L2291.05 2778.78 L2291.05 2741.14 L2237.07 2741.14 L2237.07 2741.14  Z
  " fill="#c271d2" fill-rule="evenodd" fill-opacity="1"/>
<polyline clip-path="url(#clip062)" style="stroke:#000000; stroke-linecap:round; stroke-linejoin:round; stroke-width:4; stroke-opacity:1; fill:none" points="
  2237.07,2741.14 2237.07,2778.78 2291.05,2778.78 2291.05,2741.14 2237.07,2741.14 
  "/>
<path clip-path="url(#clip062)" d="
M2506.97 2721.81 L2506.97 2778.78 L2560.95 2778.78 L2560.95 2721.81 L2506.97 2721.81 L2506.97 2721.81  Z
  " fill="#c271d2" fill-rule="evenodd" fill-opacity="1"/>
<polyline clip-path="url(#clip062)" style="stroke:#000000; stroke-linecap:round; stroke-linejoin:round; stroke-width:4; stroke-opacity:1; fill:none" points="
  2506.97,2721.81 2506.97,2778.78 2560.95,2778.78 2560.95,2721.81 2506.97,2721.81 
  "/>
<path clip-path="url(#clip062)" d="
M2776.88 2535.72 L2776.88 2778.78 L2830.86 2778.78 L2830.86 2535.72 L2776.88 2535.72 L2776.88 2535.72  Z
  " fill="#c271d2" fill-rule="evenodd" fill-opacity="1"/>
<polyline clip-path="url(#clip062)" style="stroke:#000000; stroke-linecap:round; stroke-linejoin:round; stroke-width:4; stroke-opacity:1; fill:none" points="
  2776.88,2535.72 2776.88,2778.78 2830.86,2778.78 2830.86,2535.72 2776.88,2535.72 
  "/>
<path clip-path="url(#clip062)" d="
M3046.78 1994.81 L3046.78 2778.78 L3100.76 2778.78 L3100.76 1994.81 L3046.78 1994.81 L3046.78 1994.81  Z
  " fill="#c271d2" fill-rule="evenodd" fill-opacity="1"/>
<polyline clip-path="url(#clip062)" style="stroke:#000000; stroke-linecap:round; stroke-linejoin:round; stroke-width:4; stroke-opacity:1; fill:none" points="
  3046.78,1994.81 3046.78,2778.78 3100.76,2778.78 3100.76,1994.81 3046.78,1994.81 
  "/>
<path clip-path="url(#clip062)" d="
M3316.68 1122.31 L3316.68 2778.78 L3370.66 2778.78 L3370.66 1122.31 L3316.68 1122.31 L3316.68 1122.31  Z
  " fill="#c271d2" fill-rule="evenodd" fill-opacity="1"/>
<polyline clip-path="url(#clip062)" style="stroke:#000000; stroke-linecap:round; stroke-linejoin:round; stroke-width:4; stroke-opacity:1; fill:none" points="
  3316.68,1122.31 3316.68,2778.78 3370.66,2778.78 3370.66,1122.31 3316.68,1122.31 
  "/>
<path clip-path="url(#clip062)" d="
M3586.58 1835.85 L3586.58 2778.78 L3640.56 2778.78 L3640.56 1835.85 L3586.58 1835.85 L3586.58 1835.85  Z
  " fill="#c271d2" fill-rule="evenodd" fill-opacity="1"/>
<polyline clip-path="url(#clip062)" style="stroke:#000000; stroke-linecap:round; stroke-linejoin:round; stroke-width:4; stroke-opacity:1; fill:none" points="
  3586.58,1835.85 3586.58,2778.78 3640.56,2778.78 3640.56,1835.85 3586.58,1835.85 
  "/>
<path clip-path="url(#clip062)" d="
M3856.48 2214.76 L3856.48 2778.78 L3910.46 2778.78 L3910.46 2214.76 L3856.48 2214.76 L3856.48 2214.76  Z
  " fill="#c271d2" fill-rule="evenodd" fill-opacity="1"/>
<polyline clip-path="url(#clip062)" style="stroke:#000000; stroke-linecap:round; stroke-linejoin:round; stroke-width:4; stroke-opacity:1; fill:none" points="
  3856.48,2214.76 3856.48,2778.78 3910.46,2778.78 3910.46,2214.76 3856.48,2214.76 
  "/>
<path clip-path="url(#clip062)" d="
M4126.39 2194.48 L4126.39 2778.78 L4180.37 2778.78 L4180.37 2194.48 L4126.39 2194.48 L4126.39 2194.48  Z
  " fill="#c271d2" fill-rule="evenodd" fill-opacity="1"/>
<polyline clip-path="url(#clip062)" style="stroke:#000000; stroke-linecap:round; stroke-linejoin:round; stroke-width:4; stroke-opacity:1; fill:none" points="
  4126.39,2194.48 4126.39,2778.78 4180.37,2778.78 4180.37,2194.48 4126.39,2194.48 
  "/>
<path clip-path="url(#clip062)" d="
M4396.29 2053.65 L4396.29 2778.78 L4450.27 2778.78 L4450.27 2053.65 L4396.29 2053.65 L4396.29 2053.65  Z
  " fill="#c271d2" fill-rule="evenodd" fill-opacity="1"/>
<polyline clip-path="url(#clip062)" style="stroke:#000000; stroke-linecap:round; stroke-linejoin:round; stroke-width:4; stroke-opacity:1; fill:none" points="
  4396.29,2053.65 4396.29,2778.78 4450.27,2778.78 4450.27,2053.65 4396.29,2053.65 
  "/>
<path clip-path="url(#clip062)" d="
M4666.19 2028.64 L4666.19 2778.78 L4720.17 2778.78 L4720.17 2028.64 L4666.19 2028.64 L4666.19 2028.64  Z
  " fill="#c271d2" fill-rule="evenodd" fill-opacity="1"/>
<polyline clip-path="url(#clip062)" style="stroke:#000000; stroke-linecap:round; stroke-linejoin:round; stroke-width:4; stroke-opacity:1; fill:none" points="
  4666.19,2028.64 4666.19,2778.78 4720.17,2778.78 4720.17,2028.64 4666.19,2028.64 
  "/>
<path clip-path="url(#clip062)" d="
M4936.09 2072.96 L4936.09 2778.78 L4990.07 2778.78 L4990.07 2072.96 L4936.09 2072.96 L4936.09 2072.96  Z
  " fill="#c271d2" fill-rule="evenodd" fill-opacity="1"/>
<polyline clip-path="url(#clip062)" style="stroke:#000000; stroke-linecap:round; stroke-linejoin:round; stroke-width:4; stroke-opacity:1; fill:none" points="
  4936.09,2072.96 4936.09,2778.78 4990.07,2778.78 4990.07,2072.96 4936.09,2072.96 
  "/>
<path clip-path="url(#clip062)" d="
M5205.99 2056.68 L5205.99 2778.78 L5259.97 2778.78 L5259.97 2056.68 L5205.99 2056.68 L5205.99 2056.68  Z
  " fill="#c271d2" fill-rule="evenodd" fill-opacity="1"/>
<polyline clip-path="url(#clip062)" style="stroke:#000000; stroke-linecap:round; stroke-linejoin:round; stroke-width:4; stroke-opacity:1; fill:none" points="
  5205.99,2056.68 5205.99,2778.78 5259.97,2778.78 5259.97,2056.68 5205.99,2056.68 
  "/>
<path clip-path="url(#clip062)" d="
M5475.9 1933.29 L5475.9 2778.78 L5529.88 2778.78 L5529.88 1933.29 L5475.9 1933.29 L5475.9 1933.29  Z
  " fill="#c271d2" fill-rule="evenodd" fill-opacity="1"/>
<polyline clip-path="url(#clip062)" style="stroke:#000000; stroke-linecap:round; stroke-linejoin:round; stroke-width:4; stroke-opacity:1; fill:none" points="
  5475.9,1933.29 5475.9,2778.78 5529.88,2778.78 5529.88,1933.29 5475.9,1933.29 
  "/>
<path clip-path="url(#clip062)" d="
M5745.8 1451.96 L5745.8 2778.78 L5799.78 2778.78 L5799.78 1451.96 L5745.8 1451.96 L5745.8 1451.96  Z
  " fill="#c271d2" fill-rule="evenodd" fill-opacity="1"/>
<polyline clip-path="url(#clip062)" style="stroke:#000000; stroke-linecap:round; stroke-linejoin:round; stroke-width:4; stroke-opacity:1; fill:none" points="
  5745.8,1451.96 5745.8,2778.78 5799.78,2778.78 5799.78,1451.96 5745.8,1451.96 
  "/>
<path clip-path="url(#clip062)" d="
M6015.7 1584.9 L6015.7 2778.78 L6069.68 2778.78 L6069.68 1584.9 L6015.7 1584.9 L6015.7 1584.9  Z
  " fill="#c271d2" fill-rule="evenodd" fill-opacity="1"/>
<polyline clip-path="url(#clip062)" style="stroke:#000000; stroke-linecap:round; stroke-linejoin:round; stroke-width:4; stroke-opacity:1; fill:none" points="
  6015.7,1584.9 6015.7,2778.78 6069.68,2778.78 6069.68,1584.9 6015.7,1584.9 
  "/>
<path clip-path="url(#clip062)" d="
M6285.6 2058.7 L6285.6 2778.78 L6339.58 2778.78 L6339.58 2058.7 L6285.6 2058.7 L6285.6 2058.7  Z
  " fill="#c271d2" fill-rule="evenodd" fill-opacity="1"/>
<polyline clip-path="url(#clip062)" style="stroke:#000000; stroke-linecap:round; stroke-linejoin:round; stroke-width:4; stroke-opacity:1; fill:none" points="
  6285.6,2058.7 6285.6,2778.78 6339.58,2778.78 6339.58,2058.7 6285.6,2058.7 
  "/>
<path clip-path="url(#clip062)" d="
M6555.5 2319.39 L6555.5 2778.78 L6609.48 2778.78 L6609.48 2319.39 L6555.5 2319.39 L6555.5 2319.39  Z
  " fill="#c271d2" fill-rule="evenodd" fill-opacity="1"/>
<polyline clip-path="url(#clip062)" style="stroke:#000000; stroke-linecap:round; stroke-linejoin:round; stroke-width:4; stroke-opacity:1; fill:none" points="
  6555.5,2319.39 6555.5,2778.78 6609.48,2778.78 6609.48,2319.39 6555.5,2319.39 
  "/>
<path clip-path="url(#clip062)" d="
M6825.41 2448.76 L6825.41 2778.78 L6879.39 2778.78 L6879.39 2448.76 L6825.41 2448.76 L6825.41 2448.76  Z
  " fill="#c271d2" fill-rule="evenodd" fill-opacity="1"/>
<polyline clip-path="url(#clip062)" style="stroke:#000000; stroke-linecap:round; stroke-linejoin:round; stroke-width:4; stroke-opacity:1; fill:none" points="
  6825.41,2448.76 6825.41,2778.78 6879.39,2778.78 6879.39,2448.76 6825.41,2448.76 
  "/>
<path clip-path="url(#clip062)" d="
M7095.31 2504.09 L7095.31 2778.78 L7149.29 2778.78 L7149.29 2504.09 L7095.31 2504.09 L7095.31 2504.09  Z
  " fill="#c271d2" fill-rule="evenodd" fill-opacity="1"/>
<polyline clip-path="url(#clip062)" style="stroke:#000000; stroke-linecap:round; stroke-linejoin:round; stroke-width:4; stroke-opacity:1; fill:none" points="
  7095.31,2504.09 7095.31,2778.78 7149.29,2778.78 7149.29,2504.09 7095.31,2504.09 
  "/>
<path clip-path="url(#clip062)" d="
M7365.21 2570.77 L7365.21 2778.78 L7419.19 2778.78 L7419.19 2570.77 L7365.21 2570.77 L7365.21 2570.77  Z
  " fill="#c271d2" fill-rule="evenodd" fill-opacity="1"/>
<polyline clip-path="url(#clip062)" style="stroke:#000000; stroke-linecap:round; stroke-linejoin:round; stroke-width:4; stroke-opacity:1; fill:none" points="
  7365.21,2570.77 7365.21,2778.78 7419.19,2778.78 7419.19,2570.77 7365.21,2570.77 
  "/>
<circle clip-path="url(#clip062)" style="fill:#c271d2; stroke:none; fill-opacity:0" cx="1184.45" cy="2635.94" r="2"/>
<circle clip-path="url(#clip062)" style="fill:#c271d2; stroke:none; fill-opacity:0" cx="1454.36" cy="2676.86" r="2"/>
<circle clip-path="url(#clip062)" style="fill:#c271d2; stroke:none; fill-opacity:0" cx="1724.26" cy="2710.05" r="2"/>
<circle clip-path="url(#clip062)" style="fill:#c271d2; stroke:none; fill-opacity:0" cx="1994.16" cy="2730.8" r="2"/>
<circle clip-path="url(#clip062)" style="fill:#c271d2; stroke:none; fill-opacity:0" cx="2264.06" cy="2741.14" r="2"/>
<circle clip-path="url(#clip062)" style="fill:#c271d2; stroke:none; fill-opacity:0" cx="2533.96" cy="2721.81" r="2"/>
<circle clip-path="url(#clip062)" style="fill:#c271d2; stroke:none; fill-opacity:0" cx="2803.87" cy="2535.72" r="2"/>
<circle clip-path="url(#clip062)" style="fill:#c271d2; stroke:none; fill-opacity:0" cx="3073.77" cy="1994.81" r="2"/>
<circle clip-path="url(#clip062)" style="fill:#c271d2; stroke:none; fill-opacity:0" cx="3343.67" cy="1122.31" r="2"/>
<circle clip-path="url(#clip062)" style="fill:#c271d2; stroke:none; fill-opacity:0" cx="3613.57" cy="1835.85" r="2"/>
<circle clip-path="url(#clip062)" style="fill:#c271d2; stroke:none; fill-opacity:0" cx="3883.47" cy="2214.76" r="2"/>
<circle clip-path="url(#clip062)" style="fill:#c271d2; stroke:none; fill-opacity:0" cx="4153.38" cy="2194.48" r="2"/>
<circle clip-path="url(#clip062)" style="fill:#c271d2; stroke:none; fill-opacity:0" cx="4423.28" cy="2053.65" r="2"/>
<circle clip-path="url(#clip062)" style="fill:#c271d2; stroke:none; fill-opacity:0" cx="4693.18" cy="2028.64" r="2"/>
<circle clip-path="url(#clip062)" style="fill:#c271d2; stroke:none; fill-opacity:0" cx="4963.08" cy="2072.96" r="2"/>
<circle clip-path="url(#clip062)" style="fill:#c271d2; stroke:none; fill-opacity:0" cx="5232.98" cy="2056.68" r="2"/>
<circle clip-path="url(#clip062)" style="fill:#c271d2; stroke:none; fill-opacity:0" cx="5502.89" cy="1933.29" r="2"/>
<circle clip-path="url(#clip062)" style="fill:#c271d2; stroke:none; fill-opacity:0" cx="5772.79" cy="1451.96" r="2"/>
<circle clip-path="url(#clip062)" style="fill:#c271d2; stroke:none; fill-opacity:0" cx="6042.69" cy="1584.9" r="2"/>
<circle clip-path="url(#clip062)" style="fill:#c271d2; stroke:none; fill-opacity:0" cx="6312.59" cy="2058.7" r="2"/>
<circle clip-path="url(#clip062)" style="fill:#c271d2; stroke:none; fill-opacity:0" cx="6582.49" cy="2319.39" r="2"/>
<circle clip-path="url(#clip062)" style="fill:#c271d2; stroke:none; fill-opacity:0" cx="6852.4" cy="2448.76" r="2"/>
<circle clip-path="url(#clip062)" style="fill:#c271d2; stroke:none; fill-opacity:0" cx="7122.3" cy="2504.09" r="2"/>
<circle clip-path="url(#clip062)" style="fill:#c271d2; stroke:none; fill-opacity:0" cx="7392.2" cy="2570.77" r="2"/>
</svg>
