<?xml version="1.0" encoding="utf-8"?>
<svg xmlns="http://www.w3.org/2000/svg" xmlns:xlink="http://www.w3.org/1999/xlink" width="600" height="400" viewBox="0 0 2400 1600">
<defs>
  <clipPath id="clip070">
    <rect x="0" y="0" width="2400" height="1600"/>
  </clipPath>
</defs>
<path clip-path="url(#clip070)" d="
M0 1600 L2400 1600 L2400 0 L0 0  Z
  " fill="#ffffff" fill-rule="evenodd" fill-opacity="1"/>
<defs>
  <clipPath id="clip071">
    <rect x="480" y="0" width="1681" height="1600"/>
  </clipPath>
</defs>
<path clip-path="url(#clip070)" d="
M304.699 1423.18 L2352.76 1423.18 L2352.76 47.2441 L304.699 47.2441  Z
  " fill="#ffffff" fill-rule="evenodd" fill-opacity="1"/>
<defs>
  <clipPath id="clip072">
    <rect x="304" y="47" width="2049" height="1377"/>
  </clipPath>
</defs>
<polyline clip-path="url(#clip072)" style="stroke:#000000; stroke-linecap:round; stroke-linejoin:round; stroke-width:2; stroke-opacity:0.1; fill:none" points="
  479.135,1423.18 479.135,47.2441 
  "/>
<polyline clip-path="url(#clip072)" style="stroke:#000000; stroke-linecap:round; stroke-linejoin:round; stroke-width:2; stroke-opacity:0.1; fill:none" points="
  633.606,1423.18 633.606,47.2441 
  "/>
<polyline clip-path="url(#clip072)" style="stroke:#000000; stroke-linecap:round; stroke-linejoin:round; stroke-width:2; stroke-opacity:0.1; fill:none" points="
  788.078,1423.18 788.078,47.2441 
  "/>
<polyline clip-path="url(#clip072)" style="stroke:#000000; stroke-linecap:round; stroke-linejoin:round; stroke-width:2; stroke-opacity:0.1; fill:none" points="
  942.549,1423.18 942.549,47.2441 
  "/>
<polyline clip-path="url(#clip072)" style="stroke:#000000; stroke-linecap:round; stroke-linejoin:round; stroke-width:2; stroke-opacity:0.1; fill:none" points="
  1097.02,1423.18 1097.02,47.2441 
  "/>
<polyline clip-path="url(#clip072)" style="stroke:#000000; stroke-linecap:round; stroke-linejoin:round; stroke-width:2; stroke-opacity:0.1; fill:none" points="
  1251.49,1423.18 1251.49,47.2441 
  "/>
<polyline clip-path="url(#clip072)" style="stroke:#000000; stroke-linecap:round; stroke-linejoin:round; stroke-width:2; stroke-opacity:0.1; fill:none" points="
  1405.96,1423.18 1405.96,47.2441 
  "/>
<polyline clip-path="url(#clip072)" style="stroke:#000000; stroke-linecap:round; stroke-linejoin:round; stroke-width:2; stroke-opacity:0.1; fill:none" points="
  1560.43,1423.18 1560.43,47.2441 
  "/>
<polyline clip-path="url(#clip072)" style="stroke:#000000; stroke-linecap:round; stroke-linejoin:round; stroke-width:2; stroke-opacity:0.1; fill:none" points="
  1714.91,1423.18 1714.91,47.2441 
  "/>
<polyline clip-path="url(#clip072)" style="stroke:#000000; stroke-linecap:round; stroke-linejoin:round; stroke-width:2; stroke-opacity:0.1; fill:none" points="
  1869.38,1423.18 1869.38,47.2441 
  "/>
<polyline clip-path="url(#clip072)" style="stroke:#000000; stroke-linecap:round; stroke-linejoin:round; stroke-width:2; stroke-opacity:0.1; fill:none" points="
  2023.85,1423.18 2023.85,47.2441 
  "/>
<polyline clip-path="url(#clip072)" style="stroke:#000000; stroke-linecap:round; stroke-linejoin:round; stroke-width:2; stroke-opacity:0.1; fill:none" points="
  2178.32,1423.18 2178.32,47.2441 
  "/>
<polyline clip-path="url(#clip070)" style="stroke:#000000; stroke-linecap:round; stroke-linejoin:round; stroke-width:4; stroke-opacity:1; fill:none" points="
  304.699,1423.18 2352.76,1423.18 
  "/>
<polyline clip-path="url(#clip070)" style="stroke:#000000; stroke-linecap:round; stroke-linejoin:round; stroke-width:4; stroke-opacity:1; fill:none" points="
  479.135,1423.18 479.135,1404.28 
  "/>
<polyline clip-path="url(#clip070)" style="stroke:#000000; stroke-linecap:round; stroke-linejoin:round; stroke-width:4; stroke-opacity:1; fill:none" points="
  633.606,1423.18 633.606,1404.28 
  "/>
<polyline clip-path="url(#clip070)" style="stroke:#000000; stroke-linecap:round; stroke-linejoin:round; stroke-width:4; stroke-opacity:1; fill:none" points="
  788.078,1423.18 788.078,1404.28 
  "/>
<polyline clip-path="url(#clip070)" style="stroke:#000000; stroke-linecap:round; stroke-linejoin:round; stroke-width:4; stroke-opacity:1; fill:none" points="
  942.549,1423.18 942.549,1404.28 
  "/>
<polyline clip-path="url(#clip070)" style="stroke:#000000; stroke-linecap:round; stroke-linejoin:round; stroke-width:4; stroke-opacity:1; fill:none" points="
  1097.02,1423.18 1097.02,1404.28 
  "/>
<polyline clip-path="url(#clip070)" style="stroke:#000000; stroke-linecap:round; stroke-linejoin:round; stroke-width:4; stroke-opacity:1; fill:none" points="
  1251.49,1423.18 1251.49,1404.28 
  "/>
<polyline clip-path="url(#clip070)" style="stroke:#000000; stroke-linecap:round; stroke-linejoin:round; stroke-width:4; stroke-opacity:1; fill:none" points="
  1405.96,1423.18 1405.96,1404.28 
  "/>
<polyline clip-path="url(#clip070)" style="stroke:#000000; stroke-linecap:round; stroke-linejoin:round; stroke-width:4; stroke-opacity:1; fill:none" points="
  1560.43,1423.18 1560.43,1404.28 
  "/>
<polyline clip-path="url(#clip070)" style="stroke:#000000; stroke-linecap:round; stroke-linejoin:round; stroke-width:4; stroke-opacity:1; fill:none" points="
  1714.91,1423.18 1714.91,1404.28 
  "/>
<polyline clip-path="url(#clip070)" style="stroke:#000000; stroke-linecap:round; stroke-linejoin:round; stroke-width:4; stroke-opacity:1; fill:none" points="
  1869.38,1423.18 1869.38,1404.28 
  "/>
<polyline clip-path="url(#clip070)" style="stroke:#000000; stroke-linecap:round; stroke-linejoin:round; stroke-width:4; stroke-opacity:1; fill:none" points="
  2023.85,1423.18 2023.85,1404.28 
  "/>
<polyline clip-path="url(#clip070)" style="stroke:#000000; stroke-linecap:round; stroke-linejoin:round; stroke-width:4; stroke-opacity:1; fill:none" points="
  2178.32,1423.18 2178.32,1404.28 
  "/>
<path clip-path="url(#clip070)" d="M469.517 1481.64 L477.155 1481.64 L477.155 1455.28 L468.845 1456.95 L468.845 1452.69 L477.109 1451.02 L481.785 1451.02 L481.785 1481.64 L489.424 1481.64 L489.424 1485.58 L469.517 1485.58 L469.517 1481.64 Z" fill="#000000" fill-rule="evenodd" fill-opacity="1" /><path clip-path="url(#clip070)" d="M628.259 1481.64 L644.578 1481.64 L644.578 1485.58 L622.634 1485.58 L622.634 1481.64 Q625.296 1478.89 629.879 1474.26 Q634.486 1469.61 635.666 1468.27 Q637.912 1465.74 638.791 1464.01 Q639.694 1462.25 639.694 1460.56 Q639.694 1457.8 637.75 1456.07 Q635.828 1454.33 632.726 1454.33 Q630.527 1454.33 628.074 1455.09 Q625.643 1455.86 622.865 1457.41 L622.865 1452.69 Q625.689 1451.55 628.143 1450.97 Q630.597 1450.39 632.634 1450.39 Q638.004 1450.39 641.199 1453.08 Q644.393 1455.77 644.393 1460.26 Q644.393 1462.39 643.583 1464.31 Q642.796 1466.2 640.689 1468.8 Q640.111 1469.47 637.009 1472.69 Q633.907 1475.88 628.259 1481.64 Z" fill="#000000" fill-rule="evenodd" fill-opacity="1" /><path clip-path="url(#clip070)" d="M792.325 1466.95 Q795.682 1467.66 797.557 1469.93 Q799.455 1472.2 799.455 1475.53 Q799.455 1480.65 795.936 1483.45 Q792.418 1486.25 785.936 1486.25 Q783.76 1486.25 781.446 1485.81 Q779.154 1485.39 776.7 1484.54 L776.7 1480.02 Q778.645 1481.16 780.96 1481.74 Q783.274 1482.32 785.797 1482.32 Q790.196 1482.32 792.487 1480.58 Q794.802 1478.84 794.802 1475.53 Q794.802 1472.48 792.649 1470.77 Q790.52 1469.03 786.7 1469.03 L782.672 1469.03 L782.672 1465.19 L786.885 1465.19 Q790.334 1465.19 792.163 1463.82 Q793.992 1462.43 793.992 1459.84 Q793.992 1457.18 792.094 1455.77 Q790.219 1454.33 786.7 1454.33 Q784.779 1454.33 782.58 1454.75 Q780.381 1455.16 777.742 1456.04 L777.742 1451.88 Q780.404 1451.14 782.719 1450.77 Q785.057 1450.39 787.117 1450.39 Q792.441 1450.39 795.543 1452.83 Q798.645 1455.23 798.645 1459.35 Q798.645 1462.22 797.001 1464.21 Q795.358 1466.18 792.325 1466.95 Z" fill="#000000" fill-rule="evenodd" fill-opacity="1" /><path clip-path="url(#clip070)" d="M945.558 1455.09 L933.753 1473.54 L945.558 1473.54 L945.558 1455.09 M944.331 1451.02 L950.211 1451.02 L950.211 1473.54 L955.142 1473.54 L955.142 1477.43 L950.211 1477.43 L950.211 1485.58 L945.558 1485.58 L945.558 1477.43 L929.956 1477.43 L929.956 1472.92 L944.331 1451.02 Z" fill="#000000" fill-rule="evenodd" fill-opacity="1" /><path clip-path="url(#clip070)" d="M1087.3 1451.02 L1105.65 1451.02 L1105.65 1454.96 L1091.58 1454.96 L1091.58 1463.43 Q1092.6 1463.08 1093.62 1462.92 Q1094.64 1462.73 1095.65 1462.73 Q1101.44 1462.73 1104.82 1465.9 Q1108.2 1469.08 1108.2 1474.49 Q1108.2 1480.07 1104.73 1483.17 Q1101.26 1486.25 1094.94 1486.25 Q1092.76 1486.25 1090.49 1485.88 Q1088.25 1485.51 1085.84 1484.77 L1085.84 1480.07 Q1087.92 1481.2 1090.15 1481.76 Q1092.37 1482.32 1094.84 1482.32 Q1098.85 1482.32 1101.19 1480.21 Q1103.53 1478.1 1103.53 1474.49 Q1103.53 1470.88 1101.19 1468.77 Q1098.85 1466.67 1094.84 1466.67 Q1092.97 1466.67 1091.09 1467.08 Q1089.24 1467.5 1087.3 1468.38 L1087.3 1451.02 Z" fill="#000000" fill-rule="evenodd" fill-opacity="1" /><path clip-path="url(#clip070)" d="M1251.9 1466.44 Q1248.75 1466.44 1246.9 1468.59 Q1245.07 1470.74 1245.07 1474.49 Q1245.07 1478.22 1246.9 1480.39 Q1248.75 1482.55 1251.9 1482.55 Q1255.05 1482.55 1256.87 1480.39 Q1258.73 1478.22 1258.73 1474.49 Q1258.73 1470.74 1256.87 1468.59 Q1255.05 1466.44 1251.9 1466.44 M1261.18 1451.78 L1261.18 1456.04 Q1259.42 1455.21 1257.61 1454.77 Q1255.83 1454.33 1254.07 1454.33 Q1249.44 1454.33 1246.99 1457.45 Q1244.56 1460.58 1244.21 1466.9 Q1245.58 1464.89 1247.64 1463.82 Q1249.7 1462.73 1252.17 1462.73 Q1257.38 1462.73 1260.39 1465.9 Q1263.42 1469.05 1263.42 1474.49 Q1263.42 1479.82 1260.28 1483.03 Q1257.13 1486.25 1251.9 1486.25 Q1245.9 1486.25 1242.73 1481.67 Q1239.56 1477.06 1239.56 1468.33 Q1239.56 1460.14 1243.45 1455.28 Q1247.34 1450.39 1253.89 1450.39 Q1255.65 1450.39 1257.43 1450.74 Q1259.23 1451.09 1261.18 1451.78 Z" fill="#000000" fill-rule="evenodd" fill-opacity="1" /><path clip-path="url(#clip070)" d="M1394.85 1451.02 L1417.07 1451.02 L1417.07 1453.01 L1404.53 1485.58 L1399.64 1485.58 L1411.45 1454.96 L1394.85 1454.96 L1394.85 1451.02 Z" fill="#000000" fill-rule="evenodd" fill-opacity="1" /><path clip-path="url(#clip070)" d="M1560.43 1469.17 Q1557.1 1469.17 1555.18 1470.95 Q1553.28 1472.73 1553.28 1475.86 Q1553.28 1478.98 1555.18 1480.77 Q1557.1 1482.55 1560.43 1482.55 Q1563.77 1482.55 1565.69 1480.77 Q1567.61 1478.96 1567.61 1475.86 Q1567.61 1472.73 1565.69 1470.95 Q1563.79 1469.17 1560.43 1469.17 M1555.76 1467.18 Q1552.75 1466.44 1551.06 1464.38 Q1549.39 1462.32 1549.39 1459.35 Q1549.39 1455.21 1552.33 1452.8 Q1555.3 1450.39 1560.43 1450.39 Q1565.6 1450.39 1568.54 1452.8 Q1571.48 1455.21 1571.48 1459.35 Q1571.48 1462.32 1569.79 1464.38 Q1568.12 1466.44 1565.13 1467.18 Q1568.51 1467.96 1570.39 1470.26 Q1572.29 1472.55 1572.29 1475.86 Q1572.29 1480.88 1569.21 1483.57 Q1566.15 1486.25 1560.43 1486.25 Q1554.72 1486.25 1551.64 1483.57 Q1548.58 1480.88 1548.58 1475.86 Q1548.58 1472.55 1550.48 1470.26 Q1552.38 1467.96 1555.76 1467.18 M1554.05 1459.79 Q1554.05 1462.48 1555.71 1463.98 Q1557.4 1465.49 1560.43 1465.49 Q1563.44 1465.49 1565.13 1463.98 Q1566.85 1462.48 1566.85 1459.79 Q1566.85 1457.11 1565.13 1455.6 Q1563.44 1454.1 1560.43 1454.1 Q1557.4 1454.1 1555.71 1455.6 Q1554.05 1457.11 1554.05 1459.79 Z" fill="#000000" fill-rule="evenodd" fill-opacity="1" /><path clip-path="url(#clip070)" d="M1705.21 1484.86 L1705.21 1480.6 Q1706.97 1481.44 1708.77 1481.88 Q1710.58 1482.32 1712.31 1482.32 Q1716.94 1482.32 1719.37 1479.21 Q1721.83 1476.09 1722.17 1469.75 Q1720.83 1471.74 1718.77 1472.8 Q1716.71 1473.87 1714.21 1473.87 Q1709.03 1473.87 1705.99 1470.74 Q1702.98 1467.59 1702.98 1462.15 Q1702.98 1456.83 1706.13 1453.61 Q1709.28 1450.39 1714.51 1450.39 Q1720.51 1450.39 1723.66 1455 Q1726.83 1459.58 1726.83 1468.33 Q1726.83 1476.51 1722.94 1481.39 Q1719.07 1486.25 1712.52 1486.25 Q1710.76 1486.25 1708.96 1485.9 Q1707.15 1485.56 1705.21 1484.86 M1714.51 1470.21 Q1717.66 1470.21 1719.49 1468.06 Q1721.34 1465.9 1721.34 1462.15 Q1721.34 1458.43 1719.49 1456.27 Q1717.66 1454.1 1714.51 1454.1 Q1711.36 1454.1 1709.51 1456.27 Q1707.68 1458.43 1707.68 1462.15 Q1707.68 1465.9 1709.51 1468.06 Q1711.36 1470.21 1714.51 1470.21 Z" fill="#000000" fill-rule="evenodd" fill-opacity="1" /><path clip-path="url(#clip070)" d="M1844.07 1481.64 L1851.7 1481.64 L1851.7 1455.28 L1843.39 1456.95 L1843.39 1452.69 L1851.66 1451.02 L1856.33 1451.02 L1856.33 1481.64 L1863.97 1481.64 L1863.97 1485.58 L1844.07 1485.58 L1844.07 1481.64 Z" fill="#000000" fill-rule="evenodd" fill-opacity="1" /><path clip-path="url(#clip070)" d="M1883.42 1454.1 Q1879.81 1454.1 1877.98 1457.66 Q1876.17 1461.2 1876.17 1468.33 Q1876.17 1475.44 1877.98 1479.01 Q1879.81 1482.55 1883.42 1482.55 Q1887.05 1482.55 1888.86 1479.01 Q1890.69 1475.44 1890.69 1468.33 Q1890.69 1461.2 1888.86 1457.66 Q1887.05 1454.1 1883.42 1454.1 M1883.42 1450.39 Q1889.23 1450.39 1892.28 1455 Q1895.36 1459.58 1895.36 1468.33 Q1895.36 1477.06 1892.28 1481.67 Q1889.23 1486.25 1883.42 1486.25 Q1877.61 1486.25 1874.53 1481.67 Q1871.47 1477.06 1871.47 1468.33 Q1871.47 1459.58 1874.53 1455 Q1877.61 1450.39 1883.42 1450.39 Z" fill="#000000" fill-rule="evenodd" fill-opacity="1" /><path clip-path="url(#clip070)" d="M1999.15 1481.64 L2006.79 1481.64 L2006.79 1455.28 L1998.48 1456.95 L1998.48 1452.69 L2006.74 1451.02 L2011.42 1451.02 L2011.42 1481.64 L2019.06 1481.64 L2019.06 1485.58 L1999.15 1485.58 L1999.15 1481.64 Z" fill="#000000" fill-rule="evenodd" fill-opacity="1" /><path clip-path="url(#clip070)" d="M2029.31 1481.64 L2036.95 1481.64 L2036.95 1455.28 L2028.64 1456.95 L2028.64 1452.69 L2036.9 1451.02 L2041.58 1451.02 L2041.58 1481.64 L2049.22 1481.64 L2049.22 1485.58 L2029.31 1485.58 L2029.31 1481.64 Z" fill="#000000" fill-rule="evenodd" fill-opacity="1" /><path clip-path="url(#clip070)" d="M2153.81 1481.64 L2161.45 1481.64 L2161.45 1455.28 L2153.14 1456.95 L2153.14 1452.69 L2161.4 1451.02 L2166.08 1451.02 L2166.08 1481.64 L2173.71 1481.64 L2173.71 1485.58 L2153.81 1485.58 L2153.81 1481.64 Z" fill="#000000" fill-rule="evenodd" fill-opacity="1" /><path clip-path="url(#clip070)" d="M2187.19 1481.64 L2203.51 1481.64 L2203.51 1485.58 L2181.56 1485.58 L2181.56 1481.64 Q2184.22 1478.89 2188.81 1474.26 Q2193.41 1469.61 2194.59 1468.27 Q2196.84 1465.74 2197.72 1464.01 Q2198.62 1462.25 2198.62 1460.56 Q2198.62 1457.8 2196.68 1456.07 Q2194.76 1454.33 2191.65 1454.33 Q2189.45 1454.33 2187 1455.09 Q2184.57 1455.86 2181.79 1457.41 L2181.79 1452.69 Q2184.62 1451.55 2187.07 1450.97 Q2189.52 1450.39 2191.56 1450.39 Q2196.93 1450.39 2200.13 1453.08 Q2203.32 1455.77 2203.32 1460.26 Q2203.32 1462.39 2202.51 1464.31 Q2201.72 1466.2 2199.62 1468.8 Q2199.04 1469.47 2195.94 1472.69 Q2192.83 1475.88 2187.19 1481.64 Z" fill="#000000" fill-rule="evenodd" fill-opacity="1" /><path clip-path="url(#clip070)" d="M1094.45 1520.52 L1104.03 1520.52 L1116.16 1552.86 L1128.35 1520.52 L1137.93 1520.52 L1137.93 1568.04 L1131.66 1568.04 L1131.66 1526.32 L1119.41 1558.91 L1112.95 1558.91 L1100.69 1526.32 L1100.69 1568.04 L1094.45 1568.04 L1094.45 1520.52 Z" fill="#000000" fill-rule="evenodd" fill-opacity="1" /><path clip-path="url(#clip070)" d="M1164.25 1536.5 Q1159.54 1536.5 1156.81 1540.19 Q1154.07 1543.85 1154.07 1550.25 Q1154.07 1556.65 1156.77 1560.34 Q1159.51 1564 1164.25 1564 Q1168.93 1564 1171.67 1560.31 Q1174.41 1556.62 1174.41 1550.25 Q1174.41 1543.92 1171.67 1540.23 Q1168.93 1536.5 1164.25 1536.5 M1164.25 1531.54 Q1171.89 1531.54 1176.25 1536.5 Q1180.61 1541.47 1180.61 1550.25 Q1180.61 1559 1176.25 1564 Q1171.89 1568.97 1164.25 1568.97 Q1156.58 1568.97 1152.22 1564 Q1147.89 1559 1147.89 1550.25 Q1147.89 1541.47 1152.22 1536.5 Q1156.58 1531.54 1164.25 1531.54 Z" fill="#000000" fill-rule="evenodd" fill-opacity="1" /><path clip-path="url(#clip070)" d="M1219.95 1546.53 L1219.95 1568.04 L1214.1 1568.04 L1214.1 1546.72 Q1214.1 1541.66 1212.12 1539.14 Q1210.15 1536.63 1206.2 1536.63 Q1201.46 1536.63 1198.72 1539.65 Q1195.99 1542.68 1195.99 1547.9 L1195.99 1568.04 L1190.1 1568.04 L1190.1 1532.4 L1195.99 1532.4 L1195.99 1537.93 Q1198.09 1534.72 1200.92 1533.13 Q1203.78 1531.54 1207.51 1531.54 Q1213.65 1531.54 1216.8 1535.36 Q1219.95 1539.14 1219.95 1546.53 Z" fill="#000000" fill-rule="evenodd" fill-opacity="1" /><path clip-path="url(#clip070)" d="M1237.43 1522.27 L1237.43 1532.4 L1249.49 1532.4 L1249.49 1536.95 L1237.43 1536.95 L1237.43 1556.3 Q1237.43 1560.66 1238.61 1561.9 Q1239.81 1563.14 1243.47 1563.14 L1249.49 1563.14 L1249.49 1568.04 L1243.47 1568.04 Q1236.7 1568.04 1234.12 1565.53 Q1231.54 1562.98 1231.54 1556.3 L1231.54 1536.95 L1227.24 1536.95 L1227.24 1532.4 L1231.54 1532.4 L1231.54 1522.27 L1237.43 1522.27 Z" fill="#000000" fill-rule="evenodd" fill-opacity="1" /><path clip-path="url(#clip070)" d="M1286.83 1546.53 L1286.83 1568.04 L1280.97 1568.04 L1280.97 1546.72 Q1280.97 1541.66 1279 1539.14 Q1277.02 1536.63 1273.08 1536.63 Q1268.33 1536.63 1265.6 1539.65 Q1262.86 1542.68 1262.86 1547.9 L1262.86 1568.04 L1256.97 1568.04 L1256.97 1518.52 L1262.86 1518.52 L1262.86 1537.93 Q1264.96 1534.72 1267.79 1533.13 Q1270.66 1531.54 1274.38 1531.54 Q1280.52 1531.54 1283.67 1535.36 Q1286.83 1539.14 1286.83 1546.53 Z" fill="#000000" fill-rule="evenodd" fill-opacity="1" /><path clip-path="url(#clip070)" d="M1298.51 1518.52 L1304.36 1518.52 L1304.36 1568.04 L1298.51 1568.04 L1298.51 1518.52 Z" fill="#000000" fill-rule="evenodd" fill-opacity="1" /><path clip-path="url(#clip070)" d="M1331.45 1571.35 Q1328.97 1577.72 1326.61 1579.66 Q1324.26 1581.6 1320.31 1581.6 L1315.63 1581.6 L1315.63 1576.7 L1319.07 1576.7 Q1321.49 1576.7 1322.82 1575.56 Q1324.16 1574.41 1325.78 1570.14 L1326.83 1567.47 L1312.42 1532.4 L1318.62 1532.4 L1329.76 1560.28 L1340.9 1532.4 L1347.11 1532.4 L1331.45 1571.35 Z" fill="#000000" fill-rule="evenodd" fill-opacity="1" /><path clip-path="url(#clip070)" d="M1375.31 1553.98 L1375.31 1532.4 L1381.17 1532.4 L1381.17 1553.75 Q1381.17 1558.81 1383.14 1561.36 Q1385.11 1563.87 1389.06 1563.87 Q1393.8 1563.87 1396.54 1560.85 Q1399.31 1557.83 1399.31 1552.61 L1399.31 1532.4 L1405.16 1532.4 L1405.16 1568.04 L1399.31 1568.04 L1399.31 1562.57 Q1397.17 1565.82 1394.34 1567.41 Q1391.54 1568.97 1387.82 1568.97 Q1381.67 1568.97 1378.49 1565.15 Q1375.31 1561.33 1375.31 1553.98 M1390.05 1531.54 L1390.05 1531.54 Z" fill="#000000" fill-rule="evenodd" fill-opacity="1" /><path clip-path="url(#clip070)" d="M1439.95 1533.45 L1439.95 1538.98 Q1437.47 1537.71 1434.8 1537.07 Q1432.12 1536.44 1429.26 1536.44 Q1424.9 1536.44 1422.7 1537.77 Q1420.54 1539.11 1420.54 1541.79 Q1420.54 1543.82 1422.1 1545 Q1423.66 1546.15 1428.37 1547.2 L1430.37 1547.64 Q1436.61 1548.98 1439.22 1551.43 Q1441.86 1553.85 1441.86 1558.21 Q1441.86 1563.17 1437.92 1566.07 Q1434 1568.97 1427.13 1568.97 Q1424.26 1568.97 1421.14 1568.39 Q1418.05 1567.85 1414.62 1566.74 L1414.62 1560.69 Q1417.86 1562.38 1421.01 1563.24 Q1424.17 1564.07 1427.25 1564.07 Q1431.39 1564.07 1433.62 1562.66 Q1435.85 1561.23 1435.85 1558.65 Q1435.85 1556.27 1434.22 1554.99 Q1432.63 1553.72 1427.19 1552.54 L1425.15 1552.07 Q1419.71 1550.92 1417.29 1548.56 Q1414.87 1546.18 1414.87 1542.04 Q1414.87 1537.01 1418.44 1534.27 Q1422 1531.54 1428.56 1531.54 Q1431.8 1531.54 1434.67 1532.01 Q1437.53 1532.49 1439.95 1533.45 Z" fill="#000000" fill-rule="evenodd" fill-opacity="1" /><path clip-path="url(#clip070)" d="M1467.39 1550.12 Q1460.29 1550.12 1457.55 1551.75 Q1454.82 1553.37 1454.82 1557.29 Q1454.82 1560.4 1456.85 1562.25 Q1458.92 1564.07 1462.46 1564.07 Q1467.32 1564.07 1470.25 1560.63 Q1473.21 1557.16 1473.21 1551.43 L1473.21 1550.12 L1467.39 1550.12 M1479.07 1547.71 L1479.07 1568.04 L1473.21 1568.04 L1473.21 1562.63 Q1471.21 1565.88 1468.22 1567.44 Q1465.22 1568.97 1460.9 1568.97 Q1455.42 1568.97 1452.17 1565.91 Q1448.96 1562.82 1448.96 1557.67 Q1448.96 1551.65 1452.97 1548.6 Q1457.01 1545.54 1465 1545.54 L1473.21 1545.54 L1473.21 1544.97 Q1473.21 1540.93 1470.54 1538.73 Q1467.9 1536.5 1463.09 1536.5 Q1460.04 1536.5 1457.14 1537.23 Q1454.24 1537.97 1451.57 1539.43 L1451.57 1534.02 Q1454.78 1532.78 1457.81 1532.17 Q1460.83 1531.54 1463.7 1531.54 Q1471.43 1531.54 1475.25 1535.55 Q1479.07 1539.56 1479.07 1547.71 Z" fill="#000000" fill-rule="evenodd" fill-opacity="1" /><path clip-path="url(#clip070)" d="M1514.59 1549.81 Q1514.59 1543.44 1511.95 1539.94 Q1509.34 1536.44 1504.6 1536.44 Q1499.89 1536.44 1497.24 1539.94 Q1494.63 1543.44 1494.63 1549.81 Q1494.63 1556.14 1497.24 1559.64 Q1499.89 1563.14 1504.6 1563.14 Q1509.34 1563.14 1511.95 1559.64 Q1514.59 1556.14 1514.59 1549.81 M1520.45 1563.62 Q1520.45 1572.72 1516.4 1577.15 Q1512.36 1581.6 1504.02 1581.6 Q1500.94 1581.6 1498.2 1581.13 Q1495.46 1580.68 1492.88 1579.72 L1492.88 1574.03 Q1495.46 1575.43 1497.98 1576.1 Q1500.49 1576.76 1503.1 1576.76 Q1508.86 1576.76 1511.73 1573.74 Q1514.59 1570.75 1514.59 1564.67 L1514.59 1561.77 Q1512.78 1564.92 1509.94 1566.48 Q1507.11 1568.04 1503.16 1568.04 Q1496.61 1568.04 1492.6 1563.05 Q1488.59 1558.05 1488.59 1549.81 Q1488.59 1541.53 1492.6 1536.53 Q1496.61 1531.54 1503.16 1531.54 Q1507.11 1531.54 1509.94 1533.1 Q1512.78 1534.66 1514.59 1537.81 L1514.59 1532.4 L1520.45 1532.4 L1520.45 1563.62 Z" fill="#000000" fill-rule="evenodd" fill-opacity="1" /><path clip-path="url(#clip070)" d="M1563 1548.76 L1563 1551.62 L1536.07 1551.62 Q1536.46 1557.67 1539.7 1560.85 Q1542.98 1564 1548.81 1564 Q1552.18 1564 1555.33 1563.17 Q1558.51 1562.35 1561.63 1560.69 L1561.63 1566.23 Q1558.48 1567.57 1555.17 1568.27 Q1551.86 1568.97 1548.46 1568.97 Q1539.93 1568.97 1534.93 1564 Q1529.96 1559.04 1529.96 1550.57 Q1529.96 1541.82 1534.67 1536.69 Q1539.42 1531.54 1547.44 1531.54 Q1554.63 1531.54 1558.8 1536.18 Q1563 1540.8 1563 1548.76 M1557.15 1547.04 Q1557.08 1542.23 1554.44 1539.37 Q1551.83 1536.5 1547.5 1536.5 Q1542.6 1536.5 1539.64 1539.27 Q1536.71 1542.04 1536.27 1547.07 L1557.15 1547.04 Z" fill="#000000" fill-rule="evenodd" fill-opacity="1" /><polyline clip-path="url(#clip072)" style="stroke:#000000; stroke-linecap:round; stroke-linejoin:round; stroke-width:2; stroke-opacity:0.1; fill:none" points="
  304.699,1384.24 2352.76,1384.24 
  "/>
<polyline clip-path="url(#clip072)" style="stroke:#000000; stroke-linecap:round; stroke-linejoin:round; stroke-width:2; stroke-opacity:0.1; fill:none" points="
  304.699,984 2352.76,984 
  "/>
<polyline clip-path="url(#clip072)" style="stroke:#000000; stroke-linecap:round; stroke-linejoin:round; stroke-width:2; stroke-opacity:0.1; fill:none" points="
  304.699,583.762 2352.76,583.762 
  "/>
<polyline clip-path="url(#clip072)" style="stroke:#000000; stroke-linecap:round; stroke-linejoin:round; stroke-width:2; stroke-opacity:0.1; fill:none" points="
  304.699,183.524 2352.76,183.524 
  "/>
<polyline clip-path="url(#clip070)" style="stroke:#000000; stroke-linecap:round; stroke-linejoin:round; stroke-width:4; stroke-opacity:1; fill:none" points="
  304.699,1423.18 304.699,47.2441 
  "/>
<polyline clip-path="url(#clip070)" style="stroke:#000000; stroke-linecap:round; stroke-linejoin:round; stroke-width:4; stroke-opacity:1; fill:none" points="
  304.699,1384.24 323.597,1384.24 
  "/>
<polyline clip-path="url(#clip070)" style="stroke:#000000; stroke-linecap:round; stroke-linejoin:round; stroke-width:4; stroke-opacity:1; fill:none" points="
  304.699,984 323.597,984 
  "/>
<polyline clip-path="url(#clip070)" style="stroke:#000000; stroke-linecap:round; stroke-linejoin:round; stroke-width:4; stroke-opacity:1; fill:none" points="
  304.699,583.762 323.597,583.762 
  "/>
<polyline clip-path="url(#clip070)" style="stroke:#000000; stroke-linecap:round; stroke-linejoin:round; stroke-width:4; stroke-opacity:1; fill:none" points="
  304.699,183.524 323.597,183.524 
  "/>
<path clip-path="url(#clip070)" d="M256.755 1370.04 Q253.144 1370.04 251.315 1373.6 Q249.51 1377.14 249.51 1384.27 Q249.51 1391.38 251.315 1394.94 Q253.144 1398.49 256.755 1398.49 Q260.389 1398.49 262.195 1394.94 Q264.023 1391.38 264.023 1384.27 Q264.023 1377.14 262.195 1373.6 Q260.389 1370.04 256.755 1370.04 M256.755 1366.33 Q262.565 1366.33 265.621 1370.94 Q268.699 1375.52 268.699 1384.27 Q268.699 1393 265.621 1397.61 Q262.565 1402.19 256.755 1402.19 Q250.945 1402.19 247.866 1397.61 Q244.811 1393 244.811 1384.27 Q244.811 1375.52 247.866 1370.94 Q250.945 1366.33 256.755 1366.33 Z" fill="#000000" fill-rule="evenodd" fill-opacity="1" /><path clip-path="url(#clip070)" d="M52.8743 973.168 L71.2307 973.168 L71.2307 977.103 L57.1567 977.103 L57.1567 985.575 Q58.1752 985.228 59.1938 985.066 Q60.2123 984.881 61.2308 984.881 Q67.0178 984.881 70.3974 988.052 Q73.777 991.223 73.777 996.64 Q73.777 1002.22 70.3048 1005.32 Q66.8326 1008.4 60.5132 1008.4 Q58.3373 1008.4 56.0688 1008.03 Q53.8234 1007.66 51.416 1006.92 L51.416 1002.22 Q53.4993 1003.35 55.7216 1003.91 Q57.9438 1004.46 60.4206 1004.46 Q64.4252 1004.46 66.7632 1002.36 Q69.1011 1000.25 69.1011 996.64 Q69.1011 993.029 66.7632 990.922 Q64.4252 988.816 60.4206 988.816 Q58.5456 988.816 56.6706 989.232 Q54.8188 989.649 52.8743 990.529 L52.8743 973.168 Z" fill="#000000" fill-rule="evenodd" fill-opacity="1" /><path clip-path="url(#clip070)" d="M82.9899 1001.85 L87.8742 1001.85 L87.8742 1007.73 L82.9899 1007.73 L82.9899 1001.85 Z" fill="#000000" fill-rule="evenodd" fill-opacity="1" /><path clip-path="url(#clip070)" d="M108.059 976.246 Q104.448 976.246 102.619 979.811 Q100.814 983.353 100.814 990.482 Q100.814 997.589 102.619 1001.15 Q104.448 1004.7 108.059 1004.7 Q111.693 1004.7 113.499 1001.15 Q115.328 997.589 115.328 990.482 Q115.328 983.353 113.499 979.811 Q111.693 976.246 108.059 976.246 M108.059 972.543 Q113.869 972.543 116.925 977.149 Q120.004 981.732 120.004 990.482 Q120.004 999.209 116.925 1003.82 Q113.869 1008.4 108.059 1008.4 Q102.249 1008.4 99.1704 1003.82 Q96.1149 999.209 96.1149 990.482 Q96.1149 981.732 99.1704 977.149 Q102.249 972.543 108.059 972.543 Z" fill="#000000" fill-rule="evenodd" fill-opacity="1" /><path clip-path="url(#clip070)" d="M138.221 976.246 Q134.61 976.246 132.781 979.811 Q130.976 983.353 130.976 990.482 Q130.976 997.589 132.781 1001.15 Q134.61 1004.7 138.221 1004.7 Q141.855 1004.7 143.661 1001.15 Q145.49 997.589 145.49 990.482 Q145.49 983.353 143.661 979.811 Q141.855 976.246 138.221 976.246 M138.221 972.543 Q144.031 972.543 147.087 977.149 Q150.165 981.732 150.165 990.482 Q150.165 999.209 147.087 1003.82 Q144.031 1008.4 138.221 1008.4 Q132.411 1008.4 129.332 1003.82 Q126.277 999.209 126.277 990.482 Q126.277 981.732 129.332 977.149 Q132.411 972.543 138.221 972.543 Z" fill="#000000" fill-rule="evenodd" fill-opacity="1" /><path clip-path="url(#clip070)" d="M186.554 982.265 L175.976 992.89 L186.554 1003.47 L183.8 1006.27 L173.175 995.644 L162.55 1006.27 L159.818 1003.47 L170.374 992.89 L159.818 982.265 L162.55 979.464 L173.175 990.089 L183.8 979.464 L186.554 982.265 Z" fill="#000000" fill-rule="evenodd" fill-opacity="1" /><path clip-path="url(#clip070)" d="M198.915 1003.79 L206.554 1003.79 L206.554 977.427 L198.244 979.094 L198.244 974.834 L206.508 973.168 L211.184 973.168 L211.184 1003.79 L218.823 1003.79 L218.823 1007.73 L198.915 1007.73 L198.915 1003.79 Z" fill="#000000" fill-rule="evenodd" fill-opacity="1" /><path clip-path="url(#clip070)" d="M238.267 976.246 Q234.656 976.246 232.827 979.811 Q231.022 983.353 231.022 990.482 Q231.022 997.589 232.827 1001.15 Q234.656 1004.7 238.267 1004.7 Q241.901 1004.7 243.707 1001.15 Q245.535 997.589 245.535 990.482 Q245.535 983.353 243.707 979.811 Q241.901 976.246 238.267 976.246 M238.267 972.543 Q244.077 972.543 247.133 977.149 Q250.211 981.732 250.211 990.482 Q250.211 999.209 247.133 1003.82 Q244.077 1008.4 238.267 1008.4 Q232.457 1008.4 229.378 1003.82 Q226.322 999.209 226.322 990.482 Q226.322 981.732 229.378 977.149 Q232.457 972.543 238.267 972.543 Z" fill="#000000" fill-rule="evenodd" fill-opacity="1" /><path clip-path="url(#clip070)" d="M262.906 965.177 Q265.634 965.76 267.157 967.603 Q268.699 969.446 268.699 972.155 Q268.699 976.311 265.841 978.587 Q262.982 980.863 257.716 980.863 Q255.948 980.863 254.067 980.505 Q252.205 980.167 250.211 979.471 L250.211 975.803 Q251.791 976.725 253.672 977.195 Q255.553 977.665 257.603 977.665 Q261.176 977.665 263.038 976.255 Q264.919 974.844 264.919 972.155 Q264.919 969.672 263.17 968.28 Q261.439 966.87 258.336 966.87 L255.064 966.87 L255.064 963.748 L258.487 963.748 Q261.289 963.748 262.775 962.638 Q264.261 961.509 264.261 959.403 Q264.261 957.24 262.718 956.093 Q261.195 954.927 258.336 954.927 Q256.775 954.927 254.988 955.265 Q253.202 955.604 251.058 956.319 L251.058 952.933 Q253.22 952.331 255.101 952.03 Q257.001 951.729 258.675 951.729 Q263.001 951.729 265.521 953.704 Q268.041 955.66 268.041 959.008 Q268.041 961.34 266.706 962.958 Q265.37 964.556 262.906 965.177 Z" fill="#000000" fill-rule="evenodd" fill-opacity="1" /><path clip-path="url(#clip070)" d="M51.6634 603.554 L59.3023 603.554 L59.3023 577.189 L50.9921 578.855 L50.9921 574.596 L59.256 572.929 L63.9319 572.929 L63.9319 603.554 L71.5707 603.554 L71.5707 607.489 L51.6634 607.489 L51.6634 603.554 Z" fill="#000000" fill-rule="evenodd" fill-opacity="1" /><path clip-path="url(#clip070)" d="M81.0151 601.61 L85.8993 601.61 L85.8993 607.489 L81.0151 607.489 L81.0151 601.61 Z" fill="#000000" fill-rule="evenodd" fill-opacity="1" /><path clip-path="url(#clip070)" d="M106.084 576.008 Q102.473 576.008 100.645 579.573 Q98.8391 583.115 98.8391 590.244 Q98.8391 597.351 100.645 600.915 Q102.473 604.457 106.084 604.457 Q109.719 604.457 111.524 600.915 Q113.353 597.351 113.353 590.244 Q113.353 583.115 111.524 579.573 Q109.719 576.008 106.084 576.008 M106.084 572.304 Q111.895 572.304 114.95 576.911 Q118.029 581.494 118.029 590.244 Q118.029 598.971 114.95 603.577 Q111.895 608.161 106.084 608.161 Q100.274 608.161 97.1956 603.577 Q94.14 598.971 94.14 590.244 Q94.14 581.494 97.1956 576.911 Q100.274 572.304 106.084 572.304 Z" fill="#000000" fill-rule="evenodd" fill-opacity="1" /><path clip-path="url(#clip070)" d="M136.246 576.008 Q132.635 576.008 130.807 579.573 Q129.001 583.115 129.001 590.244 Q129.001 597.351 130.807 600.915 Q132.635 604.457 136.246 604.457 Q139.881 604.457 141.686 600.915 Q143.515 597.351 143.515 590.244 Q143.515 583.115 141.686 579.573 Q139.881 576.008 136.246 576.008 M136.246 572.304 Q142.056 572.304 145.112 576.911 Q148.191 581.494 148.191 590.244 Q148.191 598.971 145.112 603.577 Q142.056 608.161 136.246 608.161 Q130.436 608.161 127.357 603.577 Q124.302 598.971 124.302 590.244 Q124.302 581.494 127.357 576.911 Q130.436 572.304 136.246 572.304 Z" fill="#000000" fill-rule="evenodd" fill-opacity="1" /><path clip-path="url(#clip070)" d="M184.579 582.027 L174.001 592.652 L184.579 603.23 L181.825 606.031 L171.2 595.406 L160.575 606.031 L157.843 603.23 L168.399 592.652 L157.843 582.027 L160.575 579.226 L171.2 589.851 L181.825 579.226 L184.579 582.027 Z" fill="#000000" fill-rule="evenodd" fill-opacity="1" /><path clip-path="url(#clip070)" d="M196.94 603.554 L204.579 603.554 L204.579 577.189 L196.269 578.855 L196.269 574.596 L204.533 572.929 L209.209 572.929 L209.209 603.554 L216.848 603.554 L216.848 607.489 L196.94 607.489 L196.94 603.554 Z" fill="#000000" fill-rule="evenodd" fill-opacity="1" /><path clip-path="url(#clip070)" d="M236.292 576.008 Q232.681 576.008 230.852 579.573 Q229.047 583.115 229.047 590.244 Q229.047 597.351 230.852 600.915 Q232.681 604.457 236.292 604.457 Q239.926 604.457 241.732 600.915 Q243.561 597.351 243.561 590.244 Q243.561 583.115 241.732 579.573 Q239.926 576.008 236.292 576.008 M236.292 572.304 Q242.102 572.304 245.158 576.911 Q248.236 581.494 248.236 590.244 Q248.236 598.971 245.158 603.577 Q242.102 608.161 236.292 608.161 Q230.482 608.161 227.403 603.577 Q224.348 598.971 224.348 590.244 Q224.348 581.494 227.403 576.911 Q230.482 572.304 236.292 572.304 Z" fill="#000000" fill-rule="evenodd" fill-opacity="1" /><path clip-path="url(#clip070)" d="M260.913 555.309 L251.321 570.299 L260.913 570.299 L260.913 555.309 M259.916 551.999 L264.693 551.999 L264.693 570.299 L268.699 570.299 L268.699 573.459 L264.693 573.459 L264.693 580.079 L260.913 580.079 L260.913 573.459 L248.236 573.459 L248.236 569.791 L259.916 551.999 Z" fill="#000000" fill-rule="evenodd" fill-opacity="1" /><path clip-path="url(#clip070)" d="M51.6634 203.316 L59.3023 203.316 L59.3023 176.95 L50.9921 178.617 L50.9921 174.358 L59.256 172.691 L63.9319 172.691 L63.9319 203.316 L71.5707 203.316 L71.5707 207.251 L51.6634 207.251 L51.6634 203.316 Z" fill="#000000" fill-rule="evenodd" fill-opacity="1" /><path clip-path="url(#clip070)" d="M81.0151 201.372 L85.8993 201.372 L85.8993 207.251 L81.0151 207.251 L81.0151 201.372 Z" fill="#000000" fill-rule="evenodd" fill-opacity="1" /><path clip-path="url(#clip070)" d="M96.1308 172.691 L114.487 172.691 L114.487 176.626 L100.413 176.626 L100.413 185.099 Q101.432 184.751 102.45 184.589 Q103.469 184.404 104.487 184.404 Q110.274 184.404 113.654 187.575 Q117.033 190.747 117.033 196.163 Q117.033 201.742 113.561 204.844 Q110.089 207.922 103.77 207.922 Q101.594 207.922 99.3252 207.552 Q97.0798 207.182 94.6724 206.441 L94.6724 201.742 Q96.7558 202.876 98.978 203.432 Q101.2 203.987 103.677 203.987 Q107.682 203.987 110.02 201.881 Q112.358 199.774 112.358 196.163 Q112.358 192.552 110.02 190.446 Q107.682 188.339 103.677 188.339 Q101.802 188.339 99.927 188.756 Q98.0752 189.173 96.1308 190.052 L96.1308 172.691 Z" fill="#000000" fill-rule="evenodd" fill-opacity="1" /><path clip-path="url(#clip070)" d="M136.246 175.77 Q132.635 175.77 130.807 179.335 Q129.001 182.876 129.001 190.006 Q129.001 197.112 130.807 200.677 Q132.635 204.219 136.246 204.219 Q139.881 204.219 141.686 200.677 Q143.515 197.112 143.515 190.006 Q143.515 182.876 141.686 179.335 Q139.881 175.77 136.246 175.77 M136.246 172.066 Q142.056 172.066 145.112 176.673 Q148.191 181.256 148.191 190.006 Q148.191 198.733 145.112 203.339 Q142.056 207.922 136.246 207.922 Q130.436 207.922 127.357 203.339 Q124.302 198.733 124.302 190.006 Q124.302 181.256 127.357 176.673 Q130.436 172.066 136.246 172.066 Z" fill="#000000" fill-rule="evenodd" fill-opacity="1" /><path clip-path="url(#clip070)" d="M184.579 181.788 L174.001 192.413 L184.579 202.992 L181.825 205.793 L171.2 195.168 L160.575 205.793 L157.843 202.992 L168.399 192.413 L157.843 181.788 L160.575 178.987 L171.2 189.612 L181.825 178.987 L184.579 181.788 Z" fill="#000000" fill-rule="evenodd" fill-opacity="1" /><path clip-path="url(#clip070)" d="M196.94 203.316 L204.579 203.316 L204.579 176.95 L196.269 178.617 L196.269 174.358 L204.533 172.691 L209.209 172.691 L209.209 203.316 L216.848 203.316 L216.848 207.251 L196.94 207.251 L196.94 203.316 Z" fill="#000000" fill-rule="evenodd" fill-opacity="1" /><path clip-path="url(#clip070)" d="M236.292 175.77 Q232.681 175.77 230.852 179.335 Q229.047 182.876 229.047 190.006 Q229.047 197.112 230.852 200.677 Q232.681 204.219 236.292 204.219 Q239.926 204.219 241.732 200.677 Q243.561 197.112 243.561 190.006 Q243.561 182.876 241.732 179.335 Q239.926 175.77 236.292 175.77 M236.292 172.066 Q242.102 172.066 245.158 176.673 Q248.236 181.256 248.236 190.006 Q248.236 198.733 245.158 203.339 Q242.102 207.922 236.292 207.922 Q230.482 207.922 227.403 203.339 Q224.348 198.733 224.348 190.006 Q224.348 181.256 227.403 176.673 Q230.482 172.066 236.292 172.066 Z" fill="#000000" fill-rule="evenodd" fill-opacity="1" /><path clip-path="url(#clip070)" d="M260.913 155.071 L251.321 170.061 L260.913 170.061 L260.913 155.071 M259.916 151.761 L264.693 151.761 L264.693 170.061 L268.699 170.061 L268.699 173.22 L264.693 173.22 L264.693 179.841 L260.913 179.841 L260.913 173.22 L248.236 173.22 L248.236 169.553 L259.916 151.761 Z" fill="#000000" fill-rule="evenodd" fill-opacity="1" /><path clip-path="url(#clip072)" d="
M417.346 900.991 L417.346 1384.24 L540.923 1384.24 L540.923 900.991 L417.346 900.991 L417.346 900.991  Z
  " fill="#009af9" fill-rule="evenodd" fill-opacity="1"/>
<polyline clip-path="url(#clip072)" style="stroke:#000000; stroke-linecap:round; stroke-linejoin:round; stroke-width:4; stroke-opacity:1; fill:none" points="
  417.346,900.991 417.346,1384.24 540.923,1384.24 540.923,900.991 417.346,900.991 
  "/>
<path clip-path="url(#clip072)" d="
M571.818 888.103 L571.818 1384.24 L695.395 1384.24 L695.395 888.103 L571.818 888.103 L571.818 888.103  Z
  " fill="#009af9" fill-rule="evenodd" fill-opacity="1"/>
<polyline clip-path="url(#clip072)" style="stroke:#000000; stroke-linecap:round; stroke-linejoin:round; stroke-width:4; stroke-opacity:1; fill:none" points="
  571.818,888.103 571.818,1384.24 695.395,1384.24 695.395,888.103 571.818,888.103 
  "/>
<path clip-path="url(#clip072)" d="
M726.289 716.801 L726.289 1384.24 L849.866 1384.24 L849.866 716.801 L726.289 716.801 L726.289 716.801  Z
  " fill="#009af9" fill-rule="evenodd" fill-opacity="1"/>
<polyline clip-path="url(#clip072)" style="stroke:#000000; stroke-linecap:round; stroke-linejoin:round; stroke-width:4; stroke-opacity:1; fill:none" points="
  726.289,716.801 726.289,1384.24 849.866,1384.24 849.866,716.801 726.289,716.801 
  "/>
<path clip-path="url(#clip072)" d="
M880.76 563.35 L880.76 1384.24 L1004.34 1384.24 L1004.34 563.35 L880.76 563.35 L880.76 563.35  Z
  " fill="#009af9" fill-rule="evenodd" fill-opacity="1"/>
<polyline clip-path="url(#clip072)" style="stroke:#000000; stroke-linecap:round; stroke-linejoin:round; stroke-width:4; stroke-opacity:1; fill:none" points="
  880.76,563.35 880.76,1384.24 1004.34,1384.24 1004.34,563.35 880.76,563.35 
  "/>
<path clip-path="url(#clip072)" d="
M1035.23 338.816 L1035.23 1384.24 L1158.81 1384.24 L1158.81 338.816 L1035.23 338.816 L1035.23 338.816  Z
  " fill="#009af9" fill-rule="evenodd" fill-opacity="1"/>
<polyline clip-path="url(#clip072)" style="stroke:#000000; stroke-linecap:round; stroke-linejoin:round; stroke-width:4; stroke-opacity:1; fill:none" points="
  1035.23,338.816 1035.23,1384.24 1158.81,1384.24 1158.81,338.816 1035.23,338.816 
  "/>
<path clip-path="url(#clip072)" d="
M1189.7 297.992 L1189.7 1384.24 L1313.28 1384.24 L1313.28 297.992 L1189.7 297.992 L1189.7 297.992  Z
  " fill="#009af9" fill-rule="evenodd" fill-opacity="1"/>
<polyline clip-path="url(#clip072)" style="stroke:#000000; stroke-linecap:round; stroke-linejoin:round; stroke-width:4; stroke-opacity:1; fill:none" points="
  1189.7,297.992 1189.7,1384.24 1313.28,1384.24 1313.28,297.992 1189.7,297.992 
  "/>
<path clip-path="url(#clip072)" d="
M1344.17 86.1857 L1344.17 1384.24 L1467.75 1384.24 L1467.75 86.1857 L1344.17 86.1857 L1344.17 86.1857  Z
  " fill="#009af9" fill-rule="evenodd" fill-opacity="1"/>
<polyline clip-path="url(#clip072)" style="stroke:#000000; stroke-linecap:round; stroke-linejoin:round; stroke-width:4; stroke-opacity:1; fill:none" points="
  1344.17,86.1857 1344.17,1384.24 1467.75,1384.24 1467.75,86.1857 1344.17,86.1857 
  "/>
<path clip-path="url(#clip072)" d="
M1498.65 324.648 L1498.65 1384.24 L1622.22 1384.24 L1622.22 324.648 L1498.65 324.648 L1498.65 324.648  Z
  " fill="#009af9" fill-rule="evenodd" fill-opacity="1"/>
<polyline clip-path="url(#clip072)" style="stroke:#000000; stroke-linecap:round; stroke-linejoin:round; stroke-width:4; stroke-opacity:1; fill:none" points="
  1498.65,324.648 1498.65,1384.24 1622.22,1384.24 1622.22,324.648 1498.65,324.648 
  "/>
<path clip-path="url(#clip072)" d="
M1653.12 448.801 L1653.12 1384.24 L1776.69 1384.24 L1776.69 448.801 L1653.12 448.801 L1653.12 448.801  Z
  " fill="#009af9" fill-rule="evenodd" fill-opacity="1"/>
<polyline clip-path="url(#clip072)" style="stroke:#000000; stroke-linecap:round; stroke-linejoin:round; stroke-width:4; stroke-opacity:1; fill:none" points="
  1653.12,448.801 1653.12,1384.24 1776.69,1384.24 1776.69,448.801 1653.12,448.801 
  "/>
<path clip-path="url(#clip072)" d="
M1807.59 611.458 L1807.59 1384.24 L1931.17 1384.24 L1931.17 611.458 L1807.59 611.458 L1807.59 611.458  Z
  " fill="#009af9" fill-rule="evenodd" fill-opacity="1"/>
<polyline clip-path="url(#clip072)" style="stroke:#000000; stroke-linecap:round; stroke-linejoin:round; stroke-width:4; stroke-opacity:1; fill:none" points="
  1807.59,611.458 1807.59,1384.24 1931.17,1384.24 1931.17,611.458 1807.59,611.458 
  "/>
<path clip-path="url(#clip072)" d="
M1962.06 822.944 L1962.06 1384.24 L2085.64 1384.24 L2085.64 822.944 L1962.06 822.944 L1962.06 822.944  Z
  " fill="#009af9" fill-rule="evenodd" fill-opacity="1"/>
<polyline clip-path="url(#clip072)" style="stroke:#000000; stroke-linecap:round; stroke-linejoin:round; stroke-width:4; stroke-opacity:1; fill:none" points="
  1962.06,822.944 1962.06,1384.24 2085.64,1384.24 2085.64,822.944 1962.06,822.944 
  "/>
<path clip-path="url(#clip072)" d="
M2116.53 951.661 L2116.53 1384.24 L2240.11 1384.24 L2240.11 951.661 L2116.53 951.661 L2116.53 951.661  Z
  " fill="#009af9" fill-rule="evenodd" fill-opacity="1"/>
<polyline clip-path="url(#clip072)" style="stroke:#000000; stroke-linecap:round; stroke-linejoin:round; stroke-width:4; stroke-opacity:1; fill:none" points="
  2116.53,951.661 2116.53,1384.24 2240.11,1384.24 2240.11,951.661 2116.53,951.661 
  "/>
<circle clip-path="url(#clip072)" style="fill:#009af9; stroke:none; fill-opacity:0" cx="479.135" cy="900.991" r="2"/>
<circle clip-path="url(#clip072)" style="fill:#009af9; stroke:none; fill-opacity:0" cx="633.606" cy="888.103" r="2"/>
<circle clip-path="url(#clip072)" style="fill:#009af9; stroke:none; fill-opacity:0" cx="788.078" cy="716.801" r="2"/>
<circle clip-path="url(#clip072)" style="fill:#009af9; stroke:none; fill-opacity:0" cx="942.549" cy="563.35" r="2"/>
<circle clip-path="url(#clip072)" style="fill:#009af9; stroke:none; fill-opacity:0" cx="1097.02" cy="338.816" r="2"/>
<circle clip-path="url(#clip072)" style="fill:#009af9; stroke:none; fill-opacity:0" cx="1251.49" cy="297.992" r="2"/>
<circle clip-path="url(#clip072)" style="fill:#009af9; stroke:none; fill-opacity:0" cx="1405.96" cy="86.1857" r="2"/>
<circle clip-path="url(#clip072)" style="fill:#009af9; stroke:none; fill-opacity:0" cx="1560.43" cy="324.648" r="2"/>
<circle clip-path="url(#clip072)" style="fill:#009af9; stroke:none; fill-opacity:0" cx="1714.91" cy="448.801" r="2"/>
<circle clip-path="url(#clip072)" style="fill:#009af9; stroke:none; fill-opacity:0" cx="1869.38" cy="611.458" r="2"/>
<circle clip-path="url(#clip072)" style="fill:#009af9; stroke:none; fill-opacity:0" cx="2023.85" cy="822.944" r="2"/>
<circle clip-path="url(#clip072)" style="fill:#009af9; stroke:none; fill-opacity:0" cx="2178.32" cy="951.661" r="2"/>
</svg>
