<?xml version="1.0" encoding="utf-8"?>
<svg xmlns="http://www.w3.org/2000/svg" xmlns:xlink="http://www.w3.org/1999/xlink" width="1000" height="400" viewBox="0 0 4000 1600">
<defs>
  <clipPath id="clip370">
    <rect x="0" y="0" width="4000" height="1600"/>
  </clipPath>
</defs>
<path clip-path="url(#clip370)" d="
M0 1600 L4000 1600 L4000 0 L0 0  Z
  " fill="#ffffff" fill-rule="evenodd" fill-opacity="1"/>
<defs>
  <clipPath id="clip371">
    <rect x="800" y="0" width="2801" height="1600"/>
  </clipPath>
</defs>
<path clip-path="url(#clip370)" d="
M322.535 1393.02 L3889.76 1393.02 L3889.76 162.272 L322.535 162.272  Z
  " fill="#ffffff" fill-rule="evenodd" fill-opacity="1"/>
<defs>
  <clipPath id="clip372">
    <rect x="322" y="162" width="3568" height="1232"/>
  </clipPath>
</defs>
<polyline clip-path="url(#clip372)" style="stroke:#000000; stroke-linecap:round; stroke-linejoin:round; stroke-width:2; stroke-opacity:0.1; fill:none" points="
  353.946,1393.02 353.946,162.272 
  "/>
<polyline clip-path="url(#clip372)" style="stroke:#000000; stroke-linecap:round; stroke-linejoin:round; stroke-width:2; stroke-opacity:0.1; fill:none" points="
  893.085,1393.02 893.085,162.272 
  "/>
<polyline clip-path="url(#clip372)" style="stroke:#000000; stroke-linecap:round; stroke-linejoin:round; stroke-width:2; stroke-opacity:0.1; fill:none" points="
  1432.22,1393.02 1432.22,162.272 
  "/>
<polyline clip-path="url(#clip372)" style="stroke:#000000; stroke-linecap:round; stroke-linejoin:round; stroke-width:2; stroke-opacity:0.1; fill:none" points="
  1971.36,1393.02 1971.36,162.272 
  "/>
<polyline clip-path="url(#clip372)" style="stroke:#000000; stroke-linecap:round; stroke-linejoin:round; stroke-width:2; stroke-opacity:0.1; fill:none" points="
  2510.5,1393.02 2510.5,162.272 
  "/>
<polyline clip-path="url(#clip372)" style="stroke:#000000; stroke-linecap:round; stroke-linejoin:round; stroke-width:2; stroke-opacity:0.1; fill:none" points="
  3049.64,1393.02 3049.64,162.272 
  "/>
<polyline clip-path="url(#clip372)" style="stroke:#000000; stroke-linecap:round; stroke-linejoin:round; stroke-width:2; stroke-opacity:0.1; fill:none" points="
  3588.78,1393.02 3588.78,162.272 
  "/>
<polyline clip-path="url(#clip370)" style="stroke:#000000; stroke-linecap:round; stroke-linejoin:round; stroke-width:4; stroke-opacity:1; fill:none" points="
  322.535,1393.02 3889.76,1393.02 
  "/>
<polyline clip-path="url(#clip370)" style="stroke:#000000; stroke-linecap:round; stroke-linejoin:round; stroke-width:4; stroke-opacity:1; fill:none" points="
  353.946,1393.02 353.946,1374.12 
  "/>
<polyline clip-path="url(#clip370)" style="stroke:#000000; stroke-linecap:round; stroke-linejoin:round; stroke-width:4; stroke-opacity:1; fill:none" points="
  893.085,1393.02 893.085,1374.12 
  "/>
<polyline clip-path="url(#clip370)" style="stroke:#000000; stroke-linecap:round; stroke-linejoin:round; stroke-width:4; stroke-opacity:1; fill:none" points="
  1432.22,1393.02 1432.22,1374.12 
  "/>
<polyline clip-path="url(#clip370)" style="stroke:#000000; stroke-linecap:round; stroke-linejoin:round; stroke-width:4; stroke-opacity:1; fill:none" points="
  1971.36,1393.02 1971.36,1374.12 
  "/>
<polyline clip-path="url(#clip370)" style="stroke:#000000; stroke-linecap:round; stroke-linejoin:round; stroke-width:4; stroke-opacity:1; fill:none" points="
  2510.5,1393.02 2510.5,1374.12 
  "/>
<polyline clip-path="url(#clip370)" style="stroke:#000000; stroke-linecap:round; stroke-linejoin:round; stroke-width:4; stroke-opacity:1; fill:none" points="
  3049.64,1393.02 3049.64,1374.12 
  "/>
<polyline clip-path="url(#clip370)" style="stroke:#000000; stroke-linecap:round; stroke-linejoin:round; stroke-width:4; stroke-opacity:1; fill:none" points="
  3588.78,1393.02 3588.78,1374.12 
  "/>
<path clip-path="url(#clip370)" d="M353.946 1436.74 Q350.335 1436.74 348.506 1440.3 Q346.7 1443.84 346.7 1450.97 Q346.7 1458.08 348.506 1461.65 Q350.335 1465.19 353.946 1465.19 Q357.58 1465.19 359.385 1461.65 Q361.214 1458.08 361.214 1450.97 Q361.214 1443.84 359.385 1440.3 Q357.58 1436.74 353.946 1436.74 M353.946 1433.03 Q359.756 1433.03 362.811 1437.64 Q365.89 1442.22 365.89 1450.97 Q365.89 1459.7 362.811 1464.31 Q359.756 1468.89 353.946 1468.89 Q348.135 1468.89 345.057 1464.31 Q342.001 1459.7 342.001 1450.97 Q342.001 1442.22 345.057 1437.64 Q348.135 1433.03 353.946 1433.03 Z" fill="#000000" fill-rule="evenodd" fill-opacity="1" /><path clip-path="url(#clip370)" d="M887.738 1464.28 L904.057 1464.28 L904.057 1468.22 L882.113 1468.22 L882.113 1464.28 Q884.775 1461.53 889.358 1456.9 Q893.965 1452.25 895.145 1450.9 Q897.391 1448.38 898.27 1446.65 Q899.173 1444.89 899.173 1443.2 Q899.173 1440.44 897.229 1438.71 Q895.308 1436.97 892.206 1436.97 Q890.007 1436.97 887.553 1437.73 Q885.122 1438.5 882.345 1440.05 L882.345 1435.33 Q885.169 1434.19 887.622 1433.61 Q890.076 1433.03 892.113 1433.03 Q897.483 1433.03 900.678 1435.72 Q903.872 1438.41 903.872 1442.9 Q903.872 1445.03 903.062 1446.95 Q902.275 1448.84 900.169 1451.44 Q899.59 1452.11 896.488 1455.33 Q893.386 1458.52 887.738 1464.28 Z" fill="#000000" fill-rule="evenodd" fill-opacity="1" /><path clip-path="url(#clip370)" d="M1435.23 1437.73 L1423.43 1456.18 L1435.23 1456.18 L1435.23 1437.73 M1434.01 1433.66 L1439.89 1433.66 L1439.89 1456.18 L1444.82 1456.18 L1444.82 1460.07 L1439.89 1460.07 L1439.89 1468.22 L1435.23 1468.22 L1435.23 1460.07 L1419.63 1460.07 L1419.63 1455.56 L1434.01 1433.66 Z" fill="#000000" fill-rule="evenodd" fill-opacity="1" /><path clip-path="url(#clip370)" d="M1971.77 1449.08 Q1968.62 1449.08 1966.77 1451.23 Q1964.94 1453.38 1964.94 1457.13 Q1964.94 1460.86 1966.77 1463.03 Q1968.62 1465.19 1971.77 1465.19 Q1974.92 1465.19 1976.75 1463.03 Q1978.6 1460.86 1978.6 1457.13 Q1978.6 1453.38 1976.75 1451.23 Q1974.92 1449.08 1971.77 1449.08 M1981.05 1434.42 L1981.05 1438.68 Q1979.29 1437.85 1977.49 1437.41 Q1975.7 1436.97 1973.95 1436.97 Q1969.32 1436.97 1966.86 1440.09 Q1964.43 1443.22 1964.08 1449.54 Q1965.45 1447.53 1967.51 1446.46 Q1969.57 1445.37 1972.05 1445.37 Q1977.26 1445.37 1980.27 1448.54 Q1983.3 1451.69 1983.3 1457.13 Q1983.3 1462.46 1980.15 1465.67 Q1977 1468.89 1971.77 1468.89 Q1965.77 1468.89 1962.6 1464.31 Q1959.43 1459.7 1959.43 1450.97 Q1959.43 1442.78 1963.32 1437.92 Q1967.21 1433.03 1973.76 1433.03 Q1975.52 1433.03 1977.3 1433.38 Q1979.11 1433.73 1981.05 1434.42 Z" fill="#000000" fill-rule="evenodd" fill-opacity="1" /><path clip-path="url(#clip370)" d="M2510.5 1451.81 Q2507.17 1451.81 2505.25 1453.59 Q2503.35 1455.37 2503.35 1458.5 Q2503.35 1461.62 2505.25 1463.4 Q2507.17 1465.19 2510.5 1465.19 Q2513.84 1465.19 2515.76 1463.4 Q2517.68 1461.6 2517.68 1458.5 Q2517.68 1455.37 2515.76 1453.59 Q2513.86 1451.81 2510.5 1451.81 M2505.83 1449.82 Q2502.82 1449.08 2501.13 1447.02 Q2499.46 1444.96 2499.46 1441.99 Q2499.46 1437.85 2502.4 1435.44 Q2505.37 1433.03 2510.5 1433.03 Q2515.67 1433.03 2518.61 1435.44 Q2521.55 1437.85 2521.55 1441.99 Q2521.55 1444.96 2519.86 1447.02 Q2518.19 1449.08 2515.2 1449.82 Q2518.58 1450.6 2520.46 1452.9 Q2522.36 1455.19 2522.36 1458.5 Q2522.36 1463.52 2519.28 1466.21 Q2516.22 1468.89 2510.5 1468.89 Q2504.79 1468.89 2501.71 1466.21 Q2498.65 1463.52 2498.65 1458.5 Q2498.65 1455.19 2500.55 1452.9 Q2502.45 1450.6 2505.83 1449.82 M2504.12 1442.43 Q2504.12 1445.12 2505.78 1446.62 Q2507.47 1448.13 2510.5 1448.13 Q2513.51 1448.13 2515.2 1446.62 Q2516.92 1445.12 2516.92 1442.43 Q2516.92 1439.75 2515.2 1438.24 Q2513.51 1436.74 2510.5 1436.74 Q2507.47 1436.74 2505.78 1438.24 Q2504.12 1439.75 2504.12 1442.43 Z" fill="#000000" fill-rule="evenodd" fill-opacity="1" /><path clip-path="url(#clip370)" d="M3024.33 1464.28 L3031.97 1464.28 L3031.97 1437.92 L3023.66 1439.59 L3023.66 1435.33 L3031.92 1433.66 L3036.6 1433.66 L3036.6 1464.28 L3044.24 1464.28 L3044.24 1468.22 L3024.33 1468.22 L3024.33 1464.28 Z" fill="#000000" fill-rule="evenodd" fill-opacity="1" /><path clip-path="url(#clip370)" d="M3063.68 1436.74 Q3060.07 1436.74 3058.24 1440.3 Q3056.44 1443.84 3056.44 1450.97 Q3056.44 1458.08 3058.24 1461.65 Q3060.07 1465.19 3063.68 1465.19 Q3067.32 1465.19 3069.12 1461.65 Q3070.95 1458.08 3070.95 1450.97 Q3070.95 1443.84 3069.12 1440.3 Q3067.32 1436.74 3063.68 1436.74 M3063.68 1433.03 Q3069.49 1433.03 3072.55 1437.64 Q3075.63 1442.22 3075.63 1450.97 Q3075.63 1459.7 3072.55 1464.31 Q3069.49 1468.89 3063.68 1468.89 Q3057.87 1468.89 3054.79 1464.31 Q3051.74 1459.7 3051.74 1450.97 Q3051.74 1442.22 3054.79 1437.64 Q3057.87 1433.03 3063.68 1433.03 Z" fill="#000000" fill-rule="evenodd" fill-opacity="1" /><path clip-path="url(#clip370)" d="M3564.27 1464.28 L3571.91 1464.28 L3571.91 1437.92 L3563.6 1439.59 L3563.6 1435.33 L3571.86 1433.66 L3576.54 1433.66 L3576.54 1464.28 L3584.18 1464.28 L3584.18 1468.22 L3564.27 1468.22 L3564.27 1464.28 Z" fill="#000000" fill-rule="evenodd" fill-opacity="1" /><path clip-path="url(#clip370)" d="M3597.65 1464.28 L3613.97 1464.28 L3613.97 1468.22 L3592.02 1468.22 L3592.02 1464.28 Q3594.69 1461.53 3599.27 1456.9 Q3603.88 1452.25 3605.06 1450.9 Q3607.3 1448.38 3608.18 1446.65 Q3609.08 1444.89 3609.08 1443.2 Q3609.08 1440.44 3607.14 1438.71 Q3605.22 1436.97 3602.12 1436.97 Q3599.92 1436.97 3597.46 1437.73 Q3595.03 1438.5 3592.26 1440.05 L3592.26 1435.33 Q3595.08 1434.19 3597.53 1433.61 Q3599.99 1433.03 3602.02 1433.03 Q3607.39 1433.03 3610.59 1435.72 Q3613.78 1438.41 3613.78 1442.9 Q3613.78 1445.03 3612.97 1446.95 Q3612.19 1448.84 3610.08 1451.44 Q3609.5 1452.11 3606.4 1455.33 Q3603.3 1458.52 3597.65 1464.28 Z" fill="#000000" fill-rule="evenodd" fill-opacity="1" /><path clip-path="url(#clip370)" d="M2009.96 1514.36 L2019.54 1514.36 L2031.67 1546.7 L2043.86 1514.36 L2053.44 1514.36 L2053.44 1561.88 L2047.17 1561.88 L2047.17 1520.16 L2034.92 1552.75 L2028.46 1552.75 L2016.2 1520.16 L2016.2 1561.88 L2009.96 1561.88 L2009.96 1514.36 Z" fill="#000000" fill-rule="evenodd" fill-opacity="1" /><path clip-path="url(#clip370)" d="M2079.76 1530.34 Q2075.05 1530.34 2072.32 1534.03 Q2069.58 1537.69 2069.58 1544.09 Q2069.58 1550.49 2072.28 1554.18 Q2075.02 1557.84 2079.76 1557.84 Q2084.44 1557.84 2087.18 1554.15 Q2089.92 1550.46 2089.92 1544.09 Q2089.92 1537.76 2087.18 1534.07 Q2084.44 1530.34 2079.76 1530.34 M2079.76 1525.38 Q2087.4 1525.38 2091.76 1530.34 Q2096.12 1535.31 2096.12 1544.09 Q2096.12 1552.84 2091.76 1557.84 Q2087.4 1562.81 2079.76 1562.81 Q2072.09 1562.81 2067.73 1557.84 Q2063.4 1552.84 2063.4 1544.09 Q2063.4 1535.31 2067.73 1530.34 Q2072.09 1525.38 2079.76 1525.38 Z" fill="#000000" fill-rule="evenodd" fill-opacity="1" /><path clip-path="url(#clip370)" d="M2135.46 1540.37 L2135.46 1561.88 L2129.61 1561.88 L2129.61 1540.56 Q2129.61 1535.5 2127.63 1532.98 Q2125.66 1530.47 2121.71 1530.47 Q2116.97 1530.47 2114.23 1533.49 Q2111.5 1536.52 2111.5 1541.74 L2111.5 1561.88 L2105.61 1561.88 L2105.61 1526.24 L2111.5 1526.24 L2111.5 1531.77 Q2113.6 1528.56 2116.43 1526.97 Q2119.29 1525.38 2123.02 1525.38 Q2129.16 1525.38 2132.31 1529.2 Q2135.46 1532.98 2135.46 1540.37 Z" fill="#000000" fill-rule="evenodd" fill-opacity="1" /><path clip-path="url(#clip370)" d="M2152.94 1516.11 L2152.94 1526.24 L2165 1526.24 L2165 1530.79 L2152.94 1530.79 L2152.94 1550.14 Q2152.94 1554.5 2154.12 1555.74 Q2155.32 1556.98 2158.98 1556.98 L2165 1556.98 L2165 1561.88 L2158.98 1561.88 Q2152.21 1561.88 2149.63 1559.37 Q2147.05 1556.82 2147.05 1550.14 L2147.05 1530.79 L2142.75 1530.79 L2142.75 1526.24 L2147.05 1526.24 L2147.05 1516.11 L2152.94 1516.11 Z" fill="#000000" fill-rule="evenodd" fill-opacity="1" /><path clip-path="url(#clip370)" d="M2202.34 1540.37 L2202.34 1561.88 L2196.48 1561.88 L2196.48 1540.56 Q2196.48 1535.5 2194.51 1532.98 Q2192.53 1530.47 2188.59 1530.47 Q2183.84 1530.47 2181.11 1533.49 Q2178.37 1536.52 2178.37 1541.74 L2178.37 1561.88 L2172.48 1561.88 L2172.48 1512.36 L2178.37 1512.36 L2178.37 1531.77 Q2180.47 1528.56 2183.3 1526.97 Q2186.17 1525.38 2189.89 1525.38 Q2196.03 1525.38 2199.18 1529.2 Q2202.34 1532.98 2202.34 1540.37 Z" fill="#000000" fill-rule="evenodd" fill-opacity="1" /><polyline clip-path="url(#clip372)" style="stroke:#000000; stroke-linecap:round; stroke-linejoin:round; stroke-width:2; stroke-opacity:0.1; fill:none" points="
  322.535,1358.19 3889.76,1358.19 
  "/>
<polyline clip-path="url(#clip372)" style="stroke:#000000; stroke-linecap:round; stroke-linejoin:round; stroke-width:2; stroke-opacity:0.1; fill:none" points="
  322.535,989.1 3889.76,989.1 
  "/>
<polyline clip-path="url(#clip372)" style="stroke:#000000; stroke-linecap:round; stroke-linejoin:round; stroke-width:2; stroke-opacity:0.1; fill:none" points="
  322.535,620.013 3889.76,620.013 
  "/>
<polyline clip-path="url(#clip372)" style="stroke:#000000; stroke-linecap:round; stroke-linejoin:round; stroke-width:2; stroke-opacity:0.1; fill:none" points="
  322.535,250.926 3889.76,250.926 
  "/>
<polyline clip-path="url(#clip370)" style="stroke:#000000; stroke-linecap:round; stroke-linejoin:round; stroke-width:4; stroke-opacity:1; fill:none" points="
  322.535,1393.02 322.535,162.272 
  "/>
<polyline clip-path="url(#clip370)" style="stroke:#000000; stroke-linecap:round; stroke-linejoin:round; stroke-width:4; stroke-opacity:1; fill:none" points="
  322.535,1358.19 341.433,1358.19 
  "/>
<polyline clip-path="url(#clip370)" style="stroke:#000000; stroke-linecap:round; stroke-linejoin:round; stroke-width:4; stroke-opacity:1; fill:none" points="
  322.535,989.1 341.433,989.1 
  "/>
<polyline clip-path="url(#clip370)" style="stroke:#000000; stroke-linecap:round; stroke-linejoin:round; stroke-width:4; stroke-opacity:1; fill:none" points="
  322.535,620.013 341.433,620.013 
  "/>
<polyline clip-path="url(#clip370)" style="stroke:#000000; stroke-linecap:round; stroke-linejoin:round; stroke-width:4; stroke-opacity:1; fill:none" points="
  322.535,250.926 341.433,250.926 
  "/>
<path clip-path="url(#clip370)" d="M250.591 1343.99 Q246.98 1343.99 245.151 1347.55 Q243.346 1351.09 243.346 1358.22 Q243.346 1365.33 245.151 1368.89 Q246.98 1372.43 250.591 1372.43 Q254.225 1372.43 256.031 1368.89 Q257.859 1365.33 257.859 1358.22 Q257.859 1351.09 256.031 1347.55 Q254.225 1343.99 250.591 1343.99 M250.591 1340.28 Q256.401 1340.28 259.457 1344.89 Q262.535 1349.47 262.535 1358.22 Q262.535 1366.95 259.457 1371.56 Q256.401 1376.14 250.591 1376.14 Q244.781 1376.14 241.702 1371.56 Q238.647 1366.95 238.647 1358.22 Q238.647 1349.47 241.702 1344.89 Q244.781 1340.28 250.591 1340.28 Z" fill="#000000" fill-rule="evenodd" fill-opacity="1" /><path clip-path="url(#clip370)" d="M180.314 971.82 L198.67 971.82 L198.67 975.755 L184.596 975.755 L184.596 984.227 Q185.614 983.88 186.633 983.718 Q187.651 983.533 188.67 983.533 Q194.457 983.533 197.837 986.704 Q201.216 989.876 201.216 995.292 Q201.216 1000.87 197.744 1003.97 Q194.272 1007.05 187.952 1007.05 Q185.777 1007.05 183.508 1006.68 Q181.263 1006.31 178.855 1005.57 L178.855 1000.87 Q180.939 1002.01 183.161 1002.56 Q185.383 1003.12 187.86 1003.12 Q191.864 1003.12 194.202 1001.01 Q196.54 998.903 196.54 995.292 Q196.54 991.681 194.202 989.575 Q191.864 987.468 187.86 987.468 Q185.985 987.468 184.11 987.885 Q182.258 988.301 180.314 989.181 L180.314 971.82 Z" fill="#000000" fill-rule="evenodd" fill-opacity="1" /><path clip-path="url(#clip370)" d="M220.429 974.899 Q216.818 974.899 214.989 978.464 Q213.184 982.005 213.184 989.135 Q213.184 996.241 214.989 999.806 Q216.818 1003.35 220.429 1003.35 Q224.063 1003.35 225.869 999.806 Q227.698 996.241 227.698 989.135 Q227.698 982.005 225.869 978.464 Q224.063 974.899 220.429 974.899 M220.429 971.195 Q226.239 971.195 229.295 975.802 Q232.373 980.385 232.373 989.135 Q232.373 997.862 229.295 1002.47 Q226.239 1007.05 220.429 1007.05 Q214.619 1007.05 211.54 1002.47 Q208.485 997.862 208.485 989.135 Q208.485 980.385 211.54 975.802 Q214.619 971.195 220.429 971.195 Z" fill="#000000" fill-rule="evenodd" fill-opacity="1" /><path clip-path="url(#clip370)" d="M250.591 974.899 Q246.98 974.899 245.151 978.464 Q243.346 982.005 243.346 989.135 Q243.346 996.241 245.151 999.806 Q246.98 1003.35 250.591 1003.35 Q254.225 1003.35 256.031 999.806 Q257.859 996.241 257.859 989.135 Q257.859 982.005 256.031 978.464 Q254.225 974.899 250.591 974.899 M250.591 971.195 Q256.401 971.195 259.457 975.802 Q262.535 980.385 262.535 989.135 Q262.535 997.862 259.457 1002.47 Q256.401 1007.05 250.591 1007.05 Q244.781 1007.05 241.702 1002.47 Q238.647 997.862 238.647 989.135 Q238.647 980.385 241.702 975.802 Q244.781 971.195 250.591 971.195 Z" fill="#000000" fill-rule="evenodd" fill-opacity="1" /><path clip-path="url(#clip370)" d="M150.916 633.358 L158.554 633.358 L158.554 606.992 L150.244 608.659 L150.244 604.4 L158.508 602.733 L163.184 602.733 L163.184 633.358 L170.823 633.358 L170.823 637.293 L150.916 637.293 L150.916 633.358 Z" fill="#000000" fill-rule="evenodd" fill-opacity="1" /><path clip-path="url(#clip370)" d="M190.267 605.812 Q186.656 605.812 184.827 609.376 Q183.022 612.918 183.022 620.048 Q183.022 627.154 184.827 630.719 Q186.656 634.26 190.267 634.26 Q193.901 634.26 195.707 630.719 Q197.536 627.154 197.536 620.048 Q197.536 612.918 195.707 609.376 Q193.901 605.812 190.267 605.812 M190.267 602.108 Q196.077 602.108 199.133 606.714 Q202.212 611.298 202.212 620.048 Q202.212 628.774 199.133 633.381 Q196.077 637.964 190.267 637.964 Q184.457 637.964 181.378 633.381 Q178.323 628.774 178.323 620.048 Q178.323 611.298 181.378 606.714 Q184.457 602.108 190.267 602.108 Z" fill="#000000" fill-rule="evenodd" fill-opacity="1" /><path clip-path="url(#clip370)" d="M220.429 605.812 Q216.818 605.812 214.989 609.376 Q213.184 612.918 213.184 620.048 Q213.184 627.154 214.989 630.719 Q216.818 634.26 220.429 634.26 Q224.063 634.26 225.869 630.719 Q227.698 627.154 227.698 620.048 Q227.698 612.918 225.869 609.376 Q224.063 605.812 220.429 605.812 M220.429 602.108 Q226.239 602.108 229.295 606.714 Q232.373 611.298 232.373 620.048 Q232.373 628.774 229.295 633.381 Q226.239 637.964 220.429 637.964 Q214.619 637.964 211.54 633.381 Q208.485 628.774 208.485 620.048 Q208.485 611.298 211.54 606.714 Q214.619 602.108 220.429 602.108 Z" fill="#000000" fill-rule="evenodd" fill-opacity="1" /><path clip-path="url(#clip370)" d="M250.591 605.812 Q246.98 605.812 245.151 609.376 Q243.346 612.918 243.346 620.048 Q243.346 627.154 245.151 630.719 Q246.98 634.26 250.591 634.26 Q254.225 634.26 256.031 630.719 Q257.859 627.154 257.859 620.048 Q257.859 612.918 256.031 609.376 Q254.225 605.812 250.591 605.812 M250.591 602.108 Q256.401 602.108 259.457 606.714 Q262.535 611.298 262.535 620.048 Q262.535 628.774 259.457 633.381 Q256.401 637.964 250.591 637.964 Q244.781 637.964 241.702 633.381 Q238.647 628.774 238.647 620.048 Q238.647 611.298 241.702 606.714 Q244.781 602.108 250.591 602.108 Z" fill="#000000" fill-rule="evenodd" fill-opacity="1" /><path clip-path="url(#clip370)" d="M150.916 264.271 L158.554 264.271 L158.554 237.905 L150.244 239.572 L150.244 235.312 L158.508 233.646 L163.184 233.646 L163.184 264.271 L170.823 264.271 L170.823 268.206 L150.916 268.206 L150.916 264.271 Z" fill="#000000" fill-rule="evenodd" fill-opacity="1" /><path clip-path="url(#clip370)" d="M180.314 233.646 L198.67 233.646 L198.67 237.581 L184.596 237.581 L184.596 246.053 Q185.614 245.706 186.633 245.544 Q187.651 245.359 188.67 245.359 Q194.457 245.359 197.837 248.53 Q201.216 251.701 201.216 257.118 Q201.216 262.696 197.744 265.798 Q194.272 268.877 187.952 268.877 Q185.777 268.877 183.508 268.507 Q181.263 268.136 178.855 267.396 L178.855 262.696 Q180.939 263.831 183.161 264.386 Q185.383 264.942 187.86 264.942 Q191.864 264.942 194.202 262.835 Q196.54 260.729 196.54 257.118 Q196.54 253.507 194.202 251.4 Q191.864 249.294 187.86 249.294 Q185.985 249.294 184.11 249.71 Q182.258 250.127 180.314 251.007 L180.314 233.646 Z" fill="#000000" fill-rule="evenodd" fill-opacity="1" /><path clip-path="url(#clip370)" d="M220.429 236.724 Q216.818 236.724 214.989 240.289 Q213.184 243.831 213.184 250.96 Q213.184 258.067 214.989 261.632 Q216.818 265.173 220.429 265.173 Q224.063 265.173 225.869 261.632 Q227.698 258.067 227.698 250.96 Q227.698 243.831 225.869 240.289 Q224.063 236.724 220.429 236.724 M220.429 233.021 Q226.239 233.021 229.295 237.627 Q232.373 242.21 232.373 250.96 Q232.373 259.687 229.295 264.294 Q226.239 268.877 220.429 268.877 Q214.619 268.877 211.54 264.294 Q208.485 259.687 208.485 250.96 Q208.485 242.21 211.54 237.627 Q214.619 233.021 220.429 233.021 Z" fill="#000000" fill-rule="evenodd" fill-opacity="1" /><path clip-path="url(#clip370)" d="M250.591 236.724 Q246.98 236.724 245.151 240.289 Q243.346 243.831 243.346 250.96 Q243.346 258.067 245.151 261.632 Q246.98 265.173 250.591 265.173 Q254.225 265.173 256.031 261.632 Q257.859 258.067 257.859 250.96 Q257.859 243.831 256.031 240.289 Q254.225 236.724 250.591 236.724 M250.591 233.021 Q256.401 233.021 259.457 237.627 Q262.535 242.21 262.535 250.96 Q262.535 259.687 259.457 264.294 Q256.401 268.877 250.591 268.877 Q244.781 268.877 241.702 264.294 Q238.647 259.687 238.647 250.96 Q238.647 242.21 241.702 237.627 Q244.781 233.021 250.591 233.021 Z" fill="#000000" fill-rule="evenodd" fill-opacity="1" /><path clip-path="url(#clip370)" d="M28.4683 1121.16 L28.4683 1112.5 L68.2221 1091.43 L28.4683 1091.43 L28.4683 1085.19 L75.9883 1085.19 L75.9883 1093.85 L36.2344 1114.92 L75.9883 1114.92 L75.9883 1121.16 L28.4683 1121.16 Z" fill="#000000" fill-rule="evenodd" fill-opacity="1" /><path clip-path="url(#clip370)" d="M56.7002 1042.16 L59.5648 1042.16 L59.5648 1069.08 Q65.6122 1068.7 68.795 1065.46 Q71.9461 1062.18 71.9461 1056.35 Q71.9461 1052.98 71.1185 1049.83 Q70.291 1046.64 68.6359 1043.53 L74.1741 1043.53 Q75.5109 1046.68 76.2111 1049.99 Q76.9113 1053.3 76.9113 1056.7 Q76.9113 1065.23 71.9461 1070.23 Q66.9808 1075.2 58.5144 1075.2 Q49.7616 1075.2 44.6372 1070.48 Q39.481 1065.74 39.481 1057.72 Q39.481 1050.53 44.1279 1046.36 Q48.7431 1042.16 56.7002 1042.16 M54.9815 1048.01 Q50.1753 1048.08 47.3108 1050.72 Q44.4462 1053.33 44.4462 1057.66 Q44.4462 1062.56 47.2153 1065.52 Q49.9844 1068.45 55.0133 1068.89 L54.9815 1048.01 Z" fill="#000000" fill-rule="evenodd" fill-opacity="1" /><path clip-path="url(#clip370)" d="M40.3403 1035.95 L40.3403 1030.09 L68.1585 1022.77 L40.3403 1015.48 L40.3403 1008.58 L68.1585 1001.26 L40.3403 993.969 L40.3403 988.112 L75.9883 997.438 L75.9883 1004.34 L46.7697 1012.02 L75.9883 1019.72 L75.9883 1026.62 L40.3403 1035.95 Z" fill="#000000" fill-rule="evenodd" fill-opacity="1" /><path clip-path="url(#clip370)" d="M58.1961 932.921 Q51.7349 932.921 48.0747 935.595 Q44.3826 938.237 44.3826 942.884 Q44.3826 947.531 48.0747 950.204 Q51.7349 952.846 58.1961 952.846 Q64.6573 952.846 68.3494 950.204 Q72.0097 947.531 72.0097 942.884 Q72.0097 938.237 68.3494 935.595 Q64.6573 932.921 58.1961 932.921 M45.7512 952.846 Q42.5683 951 41.0406 948.199 Q39.481 945.366 39.481 941.452 Q39.481 934.959 44.6372 930.916 Q49.7934 926.842 58.1961 926.842 Q66.5989 926.842 71.7551 930.916 Q76.9113 934.959 76.9113 941.452 Q76.9113 945.366 75.3835 948.199 Q73.8239 951 70.6411 952.846 L75.9883 952.846 L75.9883 958.734 L26.4631 958.734 L26.4631 952.846 L45.7512 952.846 Z" fill="#000000" fill-rule="evenodd" fill-opacity="1" /><path clip-path="url(#clip370)" d="M40.3403 917.135 L40.3403 911.278 L75.9883 911.278 L75.9883 917.135 L40.3403 917.135 M26.4631 917.135 L26.4631 911.278 L33.8791 911.278 L33.8791 917.135 L26.4631 917.135 Z" fill="#000000" fill-rule="evenodd" fill-opacity="1" /><path clip-path="url(#clip370)" d="M26.4631 899.247 L26.4631 893.359 L55.7135 893.359 L40.3403 875.885 L40.3403 868.405 L57.0185 887.311 L75.9883 867.609 L75.9883 875.248 L58.5781 893.359 L75.9883 893.359 L75.9883 899.247 L26.4631 899.247 Z" fill="#000000" fill-rule="evenodd" fill-opacity="1" /><path clip-path="url(#clip370)" d="M56.7002 833.107 L59.5648 833.107 L59.5648 860.034 Q65.6122 859.652 68.795 856.406 Q71.9461 853.127 71.9461 847.303 Q71.9461 843.929 71.1185 840.778 Q70.291 837.595 68.6359 834.476 L74.1741 834.476 Q75.5109 837.627 76.2111 840.937 Q76.9113 844.247 76.9113 847.653 Q76.9113 856.183 71.9461 861.18 Q66.9808 866.145 58.5144 866.145 Q49.7616 866.145 44.6372 861.435 Q39.481 856.692 39.481 848.671 Q39.481 841.478 44.1279 837.309 Q48.7431 833.107 56.7002 833.107 M54.9815 838.964 Q50.1753 839.027 47.3108 841.669 Q44.4462 844.279 44.4462 848.608 Q44.4462 853.509 47.2153 856.469 Q49.9844 859.398 55.0133 859.843 L54.9815 838.964 Z" fill="#000000" fill-rule="evenodd" fill-opacity="1" /><path clip-path="url(#clip370)" d="M41.3907 780.049 L46.9288 780.049 Q45.6557 782.532 45.0191 785.205 Q44.3826 787.879 44.3826 790.743 Q44.3826 795.104 45.7193 797.3 Q47.0561 799.464 49.7297 799.464 Q51.7668 799.464 52.9444 797.905 Q54.0903 796.345 55.1406 791.635 L55.5862 789.629 Q56.923 783.391 59.3738 780.781 Q61.7928 778.139 66.1533 778.139 Q71.1185 778.139 74.0149 782.086 Q76.9113 786.001 76.9113 792.876 Q76.9113 795.741 76.3384 798.86 Q75.7973 801.947 74.6833 805.385 L68.6359 805.385 Q70.3228 802.138 71.1822 798.987 Q72.0097 795.836 72.0097 792.749 Q72.0097 788.611 70.6093 786.383 Q69.177 784.155 66.5989 784.155 Q64.2117 784.155 62.9386 785.778 Q61.6654 787.37 60.4878 792.812 L60.0104 794.849 Q58.8645 800.292 56.5092 802.711 Q54.1221 805.13 49.9844 805.13 Q44.9555 805.13 42.2182 801.565 Q39.481 798 39.481 791.444 Q39.481 788.197 39.9584 785.333 Q40.4358 782.468 41.3907 780.049 Z" fill="#000000" fill-rule="evenodd" fill-opacity="1" /><path clip-path="url(#clip370)" d="M54.4722 739.181 L75.9883 739.181 L75.9883 745.038 L54.6632 745.038 Q49.6024 745.038 47.088 747.011 Q44.5735 748.984 44.5735 752.931 Q44.5735 757.674 47.5972 760.411 Q50.6209 763.148 55.8408 763.148 L75.9883 763.148 L75.9883 769.036 L26.4631 769.036 L26.4631 763.148 L45.8785 763.148 Q42.6638 761.047 41.0724 758.215 Q39.481 755.35 39.481 751.626 Q39.481 745.483 43.3004 742.332 Q47.088 739.181 54.4722 739.181 Z" fill="#000000" fill-rule="evenodd" fill-opacity="1" /><path clip-path="url(#clip370)" d="M58.0688 711.299 Q58.0688 718.397 59.6921 721.134 Q61.3153 723.872 65.2302 723.872 Q68.3494 723.872 70.1955 721.835 Q72.0097 719.766 72.0097 716.233 Q72.0097 711.363 68.5722 708.435 Q65.1029 705.475 59.3738 705.475 L58.0688 705.475 L58.0688 711.299 M55.6499 699.618 L75.9883 699.618 L75.9883 705.475 L70.5774 705.475 Q73.8239 707.48 75.3835 710.472 Q76.9113 713.464 76.9113 717.792 Q76.9113 723.267 73.8558 726.513 Q70.7684 729.728 65.6122 729.728 Q59.5966 729.728 56.541 725.718 Q53.4855 721.676 53.4855 713.687 L53.4855 705.475 L52.9126 705.475 Q48.8704 705.475 46.6742 708.148 Q44.4462 710.79 44.4462 715.596 Q44.4462 718.652 45.1783 721.548 Q45.9103 724.445 47.3744 727.118 L41.9636 727.118 Q40.7223 723.904 40.1175 720.88 Q39.481 717.856 39.481 714.992 Q39.481 707.257 43.4914 703.438 Q47.5017 699.618 55.6499 699.618 Z" fill="#000000" fill-rule="evenodd" fill-opacity="1" /><path clip-path="url(#clip370)" d="M45.8148 666.899 Q45.2419 667.885 44.9873 669.063 Q44.7008 670.209 44.7008 671.609 Q44.7008 676.574 47.9473 679.248 Q51.162 681.89 57.2094 681.89 L75.9883 681.89 L75.9883 687.778 L40.3403 687.778 L40.3403 681.89 L45.8785 681.89 Q42.632 680.044 41.0724 677.084 Q39.481 674.124 39.481 669.89 Q39.481 669.286 39.5764 668.554 Q39.6401 667.822 39.7992 666.93 L45.8148 666.899 Z" fill="#000000" fill-rule="evenodd" fill-opacity="1" /><path clip-path="url(#clip370)" d="M56.7002 631.696 L59.5648 631.696 L59.5648 658.623 Q65.6122 658.241 68.795 654.995 Q71.9461 651.716 71.9461 645.892 Q71.9461 642.518 71.1185 639.367 Q70.291 636.184 68.6359 633.065 L74.1741 633.065 Q75.5109 636.216 76.2111 639.526 Q76.9113 642.836 76.9113 646.242 Q76.9113 654.772 71.9461 659.769 Q66.9808 664.734 58.5144 664.734 Q49.7616 664.734 44.6372 660.024 Q39.481 655.281 39.481 647.26 Q39.481 640.067 44.1279 635.898 Q48.7431 631.696 56.7002 631.696 M54.9815 637.553 Q50.1753 637.616 47.3108 640.258 Q44.4462 642.868 44.4462 647.197 Q44.4462 652.098 47.2153 655.058 Q49.9844 657.987 55.0133 658.432 L54.9815 637.553 Z" fill="#000000" fill-rule="evenodd" fill-opacity="1" /><path clip-path="url(#clip370)" d="M41.709 575.71 L47.1835 575.71 Q45.8148 578.192 45.1464 580.707 Q44.4462 583.19 44.4462 585.736 Q44.4462 591.433 48.0747 594.584 Q51.6713 597.735 58.1961 597.735 Q64.721 597.735 68.3494 594.584 Q71.9461 591.433 71.9461 585.736 Q71.9461 583.19 71.2777 580.707 Q70.5774 578.192 69.2088 575.71 L74.6197 575.71 Q75.7655 578.161 76.3384 580.802 Q76.9113 583.412 76.9113 586.372 Q76.9113 594.425 71.8506 599.167 Q66.7898 603.91 58.1961 603.91 Q49.4751 603.91 44.478 599.136 Q39.481 594.33 39.481 585.99 Q39.481 583.285 40.0539 580.707 Q40.595 578.129 41.709 575.71 Z" fill="#000000" fill-rule="evenodd" fill-opacity="1" /><path clip-path="url(#clip370)" d="M44.4462 551.711 Q44.4462 556.422 48.1383 559.159 Q51.7986 561.896 58.1961 561.896 Q64.5937 561.896 68.2858 559.191 Q71.9461 556.454 71.9461 551.711 Q71.9461 547.032 68.2539 544.295 Q64.5618 541.558 58.1961 541.558 Q51.8623 541.558 48.1701 544.295 Q44.4462 547.032 44.4462 551.711 M39.481 551.711 Q39.481 544.072 44.4462 539.712 Q49.4115 535.351 58.1961 535.351 Q66.949 535.351 71.9461 539.712 Q76.9113 544.072 76.9113 551.711 Q76.9113 559.382 71.9461 563.742 Q66.949 568.071 58.1961 568.071 Q49.4115 568.071 44.4462 563.742 Q39.481 559.382 39.481 551.711 Z" fill="#000000" fill-rule="evenodd" fill-opacity="1" /><path clip-path="url(#clip370)" d="M61.9201 526.248 L40.3403 526.248 L40.3403 520.392 L61.6973 520.392 Q66.758 520.392 69.3043 518.418 Q71.8187 516.445 71.8187 512.498 Q71.8187 507.756 68.795 505.019 Q65.7713 502.25 60.5514 502.25 L40.3403 502.25 L40.3403 496.393 L75.9883 496.393 L75.9883 502.25 L70.5138 502.25 Q73.7603 504.382 75.3517 507.215 Q76.9113 510.016 76.9113 513.74 Q76.9113 519.883 73.0919 523.065 Q69.2725 526.248 61.9201 526.248 M39.481 511.512 L39.481 511.512 Z" fill="#000000" fill-rule="evenodd" fill-opacity="1" /><path clip-path="url(#clip370)" d="M30.2189 478.537 L40.3403 478.537 L40.3403 466.474 L44.8918 466.474 L44.8918 478.537 L64.2436 478.537 Q68.6041 478.537 69.8454 477.36 Q71.0867 476.15 71.0867 472.49 L71.0867 466.474 L75.9883 466.474 L75.9883 472.49 Q75.9883 479.269 73.4738 481.848 Q70.9275 484.426 64.2436 484.426 L44.8918 484.426 L44.8918 488.722 L40.3403 488.722 L40.3403 484.426 L30.2189 484.426 L30.2189 478.537 Z" fill="#000000" fill-rule="evenodd" fill-opacity="1" /><path clip-path="url(#clip370)" d="M41.3907 436.046 L46.9288 436.046 Q45.6557 438.529 45.0191 441.202 Q44.3826 443.876 44.3826 446.741 Q44.3826 451.101 45.7193 453.297 Q47.0561 455.462 49.7297 455.462 Q51.7668 455.462 52.9444 453.902 Q54.0903 452.342 55.1406 447.632 L55.5862 445.627 Q56.923 439.388 59.3738 436.778 Q61.7928 434.137 66.1533 434.137 Q71.1185 434.137 74.0149 438.083 Q76.9113 441.998 76.9113 448.873 Q76.9113 451.738 76.3384 454.857 Q75.7973 457.944 74.6833 461.382 L68.6359 461.382 Q70.3228 458.135 71.1822 454.984 Q72.0097 451.833 72.0097 448.746 Q72.0097 444.608 70.6093 442.38 Q69.177 440.152 66.5989 440.152 Q64.2117 440.152 62.9386 441.775 Q61.6654 443.367 60.4878 448.809 L60.0104 450.847 Q58.8645 456.289 56.5092 458.708 Q54.1221 461.127 49.9844 461.127 Q44.9555 461.127 42.2182 457.562 Q39.481 453.998 39.481 447.441 Q39.481 444.194 39.9584 441.33 Q40.4358 438.465 41.3907 436.046 Z" fill="#000000" fill-rule="evenodd" fill-opacity="1" /><path clip-path="url(#clip370)" d="M1263.42 18.8205 L1263.42 65.8515 L1273.3 65.8515 Q1285.82 65.8515 1291.61 60.1802 Q1297.45 54.509 1297.45 42.2752 Q1297.45 30.1225 1291.61 24.4918 Q1285.82 18.8205 1273.3 18.8205 L1263.42 18.8205 M1255.24 12.096 L1272.05 12.096 Q1289.63 12.096 1297.85 19.4281 Q1306.08 26.7198 1306.08 42.2752 Q1306.08 57.9117 1297.81 65.2439 Q1289.55 72.576 1272.05 72.576 L1255.24 72.576 L1255.24 12.096 Z" fill="#000000" fill-rule="evenodd" fill-opacity="1" /><path clip-path="url(#clip370)" d="M1318.8 27.2059 L1326.25 27.2059 L1326.25 72.576 L1318.8 72.576 L1318.8 27.2059 M1318.8 9.54393 L1326.25 9.54393 L1326.25 18.9825 L1318.8 18.9825 L1318.8 9.54393 Z" fill="#000000" fill-rule="evenodd" fill-opacity="1" /><path clip-path="url(#clip370)" d="M1370.77 28.5427 L1370.77 35.5912 Q1367.61 33.9709 1364.21 33.1607 Q1360.8 32.3505 1357.16 32.3505 Q1351.61 32.3505 1348.81 34.0519 Q1346.06 35.7533 1346.06 39.156 Q1346.06 41.7486 1348.04 43.2475 Q1350.03 44.7058 1356.02 46.0426 L1358.58 46.6097 Q1366.52 48.3111 1369.84 51.4303 Q1373.2 54.509 1373.2 60.0587 Q1373.2 66.3781 1368.18 70.0644 Q1363.19 73.7508 1354.44 73.7508 Q1350.8 73.7508 1346.83 73.0216 Q1342.9 72.3329 1338.52 70.9151 L1338.52 63.2184 Q1342.66 65.3654 1346.67 66.4591 Q1350.68 67.5124 1354.61 67.5124 Q1359.87 67.5124 1362.71 65.73 Q1365.54 63.9071 1365.54 60.6258 Q1365.54 57.5877 1363.48 55.9673 Q1361.45 54.3469 1354.52 52.8481 L1351.93 52.2405 Q1345 50.7821 1341.93 47.7845 Q1338.85 44.7463 1338.85 39.4801 Q1338.85 33.0797 1343.38 29.5959 Q1347.92 26.1121 1356.27 26.1121 Q1360.4 26.1121 1364.04 26.7198 Q1367.69 27.3274 1370.77 28.5427 Z" fill="#000000" fill-rule="evenodd" fill-opacity="1" /><path clip-path="url(#clip370)" d="M1392.44 14.324 L1392.44 27.2059 L1407.79 27.2059 L1407.79 32.9987 L1392.44 32.9987 L1392.44 57.6282 Q1392.44 63.1779 1393.94 64.7578 Q1395.48 66.3376 1400.14 66.3376 L1407.79 66.3376 L1407.79 72.576 L1400.14 72.576 Q1391.51 72.576 1388.23 69.3758 Q1384.95 66.1351 1384.95 57.6282 L1384.95 32.9987 L1379.48 32.9987 L1379.48 27.2059 L1384.95 27.2059 L1384.95 14.324 L1392.44 14.324 Z" fill="#000000" fill-rule="evenodd" fill-opacity="1" /><path clip-path="url(#clip370)" d="M1443.89 34.1734 Q1442.63 33.4443 1441.13 33.1202 Q1439.67 32.7556 1437.89 32.7556 Q1431.57 32.7556 1428.17 36.8875 Q1424.81 40.9789 1424.81 48.6757 L1424.81 72.576 L1417.31 72.576 L1417.31 27.2059 L1424.81 27.2059 L1424.81 34.2544 Q1427.16 30.1225 1430.92 28.1376 Q1434.69 26.1121 1440.08 26.1121 Q1440.85 26.1121 1441.78 26.2337 Q1442.71 26.3147 1443.85 26.5172 L1443.89 34.1734 Z" fill="#000000" fill-rule="evenodd" fill-opacity="1" /><path clip-path="url(#clip370)" d="M1451.71 27.2059 L1459.16 27.2059 L1459.16 72.576 L1451.71 72.576 L1451.71 27.2059 M1451.71 9.54393 L1459.16 9.54393 L1459.16 18.9825 L1451.71 18.9825 L1451.71 9.54393 Z" fill="#000000" fill-rule="evenodd" fill-opacity="1" /><path clip-path="url(#clip370)" d="M1507.32 49.9314 Q1507.32 41.7081 1503.92 37.0496 Q1500.56 32.3505 1494.65 32.3505 Q1488.73 32.3505 1485.33 37.0496 Q1481.97 41.7081 1481.97 49.9314 Q1481.97 58.1548 1485.33 62.8538 Q1488.73 67.5124 1494.65 67.5124 Q1500.56 67.5124 1503.92 62.8538 Q1507.32 58.1548 1507.32 49.9314 M1481.97 34.0924 Q1484.32 30.0415 1487.88 28.0971 Q1491.49 26.1121 1496.47 26.1121 Q1504.73 26.1121 1509.88 32.6746 Q1515.06 39.2371 1515.06 49.9314 Q1515.06 60.6258 1509.88 67.1883 Q1504.73 73.7508 1496.47 73.7508 Q1491.49 73.7508 1487.88 71.8063 Q1484.32 69.8214 1481.97 65.7705 L1481.97 72.576 L1474.47 72.576 L1474.47 9.54393 L1481.97 9.54393 L1481.97 34.0924 Z" fill="#000000" fill-rule="evenodd" fill-opacity="1" /><path clip-path="url(#clip370)" d="M1526.65 54.671 L1526.65 27.2059 L1534.1 27.2059 L1534.1 54.3874 Q1534.1 60.8284 1536.61 64.0691 Q1539.12 67.2693 1544.15 67.2693 Q1550.18 67.2693 1553.67 63.421 Q1557.19 59.5726 1557.19 52.9291 L1557.19 27.2059 L1564.64 27.2059 L1564.64 72.576 L1557.19 72.576 L1557.19 65.6084 Q1554.48 69.7404 1550.87 71.7658 Q1547.31 73.7508 1542.57 73.7508 Q1534.75 73.7508 1530.7 68.8897 Q1526.65 64.0286 1526.65 54.671 M1545.4 26.1121 L1545.4 26.1121 Z" fill="#000000" fill-rule="evenodd" fill-opacity="1" /><path clip-path="url(#clip370)" d="M1587.37 14.324 L1587.37 27.2059 L1602.72 27.2059 L1602.72 32.9987 L1587.37 32.9987 L1587.37 57.6282 Q1587.37 63.1779 1588.87 64.7578 Q1590.41 66.3376 1595.07 66.3376 L1602.72 66.3376 L1602.72 72.576 L1595.07 72.576 Q1586.44 72.576 1583.16 69.3758 Q1579.88 66.1351 1579.88 57.6282 L1579.88 32.9987 L1574.41 32.9987 L1574.41 27.2059 L1579.88 27.2059 L1579.88 14.324 L1587.37 14.324 Z" fill="#000000" fill-rule="evenodd" fill-opacity="1" /><path clip-path="url(#clip370)" d="M1612.53 27.2059 L1619.98 27.2059 L1619.98 72.576 L1612.53 72.576 L1612.53 27.2059 M1612.53 9.54393 L1619.98 9.54393 L1619.98 18.9825 L1612.53 18.9825 L1612.53 9.54393 Z" fill="#000000" fill-rule="evenodd" fill-opacity="1" /><path clip-path="url(#clip370)" d="M1653.16 32.4315 Q1647.16 32.4315 1643.68 37.1306 Q1640.19 41.7891 1640.19 49.9314 Q1640.19 58.0738 1643.64 62.7728 Q1647.12 67.4314 1653.16 67.4314 Q1659.11 67.4314 1662.6 62.7323 Q1666.08 58.0333 1666.08 49.9314 Q1666.08 41.8701 1662.6 37.1711 Q1659.11 32.4315 1653.16 32.4315 M1653.16 26.1121 Q1662.88 26.1121 1668.43 32.4315 Q1673.98 38.7509 1673.98 49.9314 Q1673.98 61.0714 1668.43 67.4314 Q1662.88 73.7508 1653.16 73.7508 Q1643.39 73.7508 1637.84 67.4314 Q1632.34 61.0714 1632.34 49.9314 Q1632.34 38.7509 1637.84 32.4315 Q1643.39 26.1121 1653.16 26.1121 Z" fill="#000000" fill-rule="evenodd" fill-opacity="1" /><path clip-path="url(#clip370)" d="M1724.05 45.1919 L1724.05 72.576 L1716.59 72.576 L1716.59 45.4349 Q1716.59 38.994 1714.08 35.7938 Q1711.57 32.5936 1706.55 32.5936 Q1700.51 32.5936 1697.03 36.4419 Q1693.54 40.2903 1693.54 46.9338 L1693.54 72.576 L1686.05 72.576 L1686.05 27.2059 L1693.54 27.2059 L1693.54 34.2544 Q1696.22 30.163 1699.82 28.1376 Q1703.47 26.1121 1708.21 26.1121 Q1716.03 26.1121 1720.04 30.9732 Q1724.05 35.7938 1724.05 45.1919 Z" fill="#000000" fill-rule="evenodd" fill-opacity="1" /><path clip-path="url(#clip370)" d="M1782.87 32.4315 Q1776.87 32.4315 1773.39 37.1306 Q1769.9 41.7891 1769.9 49.9314 Q1769.9 58.0738 1773.35 62.7728 Q1776.83 67.4314 1782.87 67.4314 Q1788.82 67.4314 1792.31 62.7323 Q1795.79 58.0333 1795.79 49.9314 Q1795.79 41.8701 1792.31 37.1711 Q1788.82 32.4315 1782.87 32.4315 M1782.87 26.1121 Q1792.59 26.1121 1798.14 32.4315 Q1803.69 38.7509 1803.69 49.9314 Q1803.69 61.0714 1798.14 67.4314 Q1792.59 73.7508 1782.87 73.7508 Q1773.1 73.7508 1767.55 67.4314 Q1762.05 61.0714 1762.05 49.9314 Q1762.05 38.7509 1767.55 32.4315 Q1773.1 26.1121 1782.87 26.1121 Z" fill="#000000" fill-rule="evenodd" fill-opacity="1" /><path clip-path="url(#clip370)" d="M1839.01 9.54393 L1839.01 15.7418 L1831.88 15.7418 Q1827.87 15.7418 1826.29 17.3622 Q1824.75 18.9825 1824.75 23.1955 L1824.75 27.2059 L1837.03 27.2059 L1837.03 32.9987 L1824.75 32.9987 L1824.75 72.576 L1817.26 72.576 L1817.26 32.9987 L1810.13 32.9987 L1810.13 27.2059 L1817.26 27.2059 L1817.26 24.0462 Q1817.26 16.471 1820.78 13.0277 Q1824.31 9.54393 1831.96 9.54393 L1839.01 9.54393 Z" fill="#000000" fill-rule="evenodd" fill-opacity="1" /><path clip-path="url(#clip370)" d="M1909.34 45.1919 L1909.34 72.576 L1901.88 72.576 L1901.88 45.4349 Q1901.88 38.994 1899.37 35.7938 Q1896.86 32.5936 1891.84 32.5936 Q1885.8 32.5936 1882.32 36.4419 Q1878.83 40.2903 1878.83 46.9338 L1878.83 72.576 L1871.34 72.576 L1871.34 27.2059 L1878.83 27.2059 L1878.83 34.2544 Q1881.51 30.163 1885.11 28.1376 Q1888.76 26.1121 1893.5 26.1121 Q1901.32 26.1121 1905.33 30.9732 Q1909.34 35.7938 1909.34 45.1919 Z" fill="#000000" fill-rule="evenodd" fill-opacity="1" /><path clip-path="url(#clip370)" d="M1963.01 48.0275 L1963.01 51.6733 L1928.74 51.6733 Q1929.23 59.3701 1933.36 63.421 Q1937.53 67.4314 1944.94 67.4314 Q1949.24 67.4314 1953.25 66.3781 Q1957.3 65.3249 1961.27 63.2184 L1961.27 70.267 Q1957.26 71.9684 1953.05 72.8596 Q1948.83 73.7508 1944.5 73.7508 Q1933.64 73.7508 1927.28 67.4314 Q1920.96 61.1119 1920.96 50.3365 Q1920.96 39.1965 1926.96 32.6746 Q1932.99 26.1121 1943.2 26.1121 Q1952.36 26.1121 1957.66 32.0264 Q1963.01 37.9003 1963.01 48.0275 M1955.56 45.84 Q1955.48 39.7232 1952.11 36.0774 Q1948.79 32.4315 1943.28 32.4315 Q1937.04 32.4315 1933.28 35.9558 Q1929.55 39.4801 1928.98 45.8805 L1955.56 45.84 Z" fill="#000000" fill-rule="evenodd" fill-opacity="1" /><path clip-path="url(#clip370)" d="M1970.91 27.2059 L1978.36 27.2059 L1987.68 62.6108 L1996.96 27.2059 L2005.75 27.2059 L2015.06 62.6108 L2024.34 27.2059 L2031.8 27.2059 L2019.93 72.576 L2011.14 72.576 L2001.37 35.3887 L1991.57 72.576 L1982.78 72.576 L1970.91 27.2059 Z" fill="#000000" fill-rule="evenodd" fill-opacity="1" /><path clip-path="url(#clip370)" d="M2102.04 49.9314 Q2102.04 41.7081 2098.64 37.0496 Q2095.27 32.3505 2089.36 32.3505 Q2083.44 32.3505 2080.04 37.0496 Q2076.68 41.7081 2076.68 49.9314 Q2076.68 58.1548 2080.04 62.8538 Q2083.44 67.5124 2089.36 67.5124 Q2095.27 67.5124 2098.64 62.8538 Q2102.04 58.1548 2102.04 49.9314 M2076.68 34.0924 Q2079.03 30.0415 2082.59 28.0971 Q2086.2 26.1121 2091.18 26.1121 Q2099.45 26.1121 2104.59 32.6746 Q2109.78 39.2371 2109.78 49.9314 Q2109.78 60.6258 2104.59 67.1883 Q2099.45 73.7508 2091.18 73.7508 Q2086.2 73.7508 2082.59 71.8063 Q2079.03 69.8214 2076.68 65.7705 L2076.68 72.576 L2069.19 72.576 L2069.19 9.54393 L2076.68 9.54393 L2076.68 34.0924 Z" fill="#000000" fill-rule="evenodd" fill-opacity="1" /><path clip-path="url(#clip370)" d="M2122.13 27.2059 L2129.58 27.2059 L2129.58 72.576 L2122.13 72.576 L2122.13 27.2059 M2122.13 9.54393 L2129.58 9.54393 L2129.58 18.9825 L2122.13 18.9825 L2122.13 9.54393 Z" fill="#000000" fill-rule="evenodd" fill-opacity="1" /><path clip-path="url(#clip370)" d="M2144.9 9.54393 L2152.39 9.54393 L2152.39 46.7717 L2174.63 27.2059 L2184.15 27.2059 L2160.09 48.4326 L2185.16 72.576 L2175.44 72.576 L2152.39 50.4176 L2152.39 72.576 L2144.9 72.576 L2144.9 9.54393 Z" fill="#000000" fill-rule="evenodd" fill-opacity="1" /><path clip-path="url(#clip370)" d="M2229.07 48.0275 L2229.07 51.6733 L2194.8 51.6733 Q2195.29 59.3701 2199.42 63.421 Q2203.59 67.4314 2211.01 67.4314 Q2215.3 67.4314 2219.31 66.3781 Q2223.36 65.3249 2227.33 63.2184 L2227.33 70.267 Q2223.32 71.9684 2219.11 72.8596 Q2214.9 73.7508 2210.56 73.7508 Q2199.71 73.7508 2193.35 67.4314 Q2187.03 61.1119 2187.03 50.3365 Q2187.03 39.1965 2193.02 32.6746 Q2199.06 26.1121 2209.27 26.1121 Q2218.42 26.1121 2223.73 32.0264 Q2229.07 37.9003 2229.07 48.0275 M2221.62 45.84 Q2221.54 39.7232 2218.18 36.0774 Q2214.86 32.4315 2209.35 32.4315 Q2203.11 32.4315 2199.34 35.9558 Q2195.61 39.4801 2195.05 45.8805 L2221.62 45.84 Z" fill="#000000" fill-rule="evenodd" fill-opacity="1" /><path clip-path="url(#clip370)" d="M2296.6 28.5427 L2296.6 35.5912 Q2293.44 33.9709 2290.04 33.1607 Q2286.64 32.3505 2282.99 32.3505 Q2277.44 32.3505 2274.65 34.0519 Q2271.89 35.7533 2271.89 39.156 Q2271.89 41.7486 2273.88 43.2475 Q2275.86 44.7058 2281.86 46.0426 L2284.41 46.6097 Q2292.35 48.3111 2295.67 51.4303 Q2299.03 54.509 2299.03 60.0587 Q2299.03 66.3781 2294.01 70.0644 Q2289.03 73.7508 2280.28 73.7508 Q2276.63 73.7508 2272.66 73.0216 Q2268.73 72.3329 2264.36 70.9151 L2264.36 63.2184 Q2268.49 65.3654 2272.5 66.4591 Q2276.51 67.5124 2280.44 67.5124 Q2285.71 67.5124 2288.54 65.73 Q2291.38 63.9071 2291.38 60.6258 Q2291.38 57.5877 2289.31 55.9673 Q2287.29 54.3469 2280.36 52.8481 L2277.77 52.2405 Q2270.84 50.7821 2267.76 47.7845 Q2264.68 44.7463 2264.68 39.4801 Q2264.68 33.0797 2269.22 29.5959 Q2273.76 26.1121 2282.1 26.1121 Q2286.23 26.1121 2289.88 26.7198 Q2293.52 27.3274 2296.6 28.5427 Z" fill="#000000" fill-rule="evenodd" fill-opacity="1" /><path clip-path="url(#clip370)" d="M2348.62 45.1919 L2348.62 72.576 L2341.16 72.576 L2341.16 45.4349 Q2341.16 38.994 2338.65 35.7938 Q2336.14 32.5936 2331.12 32.5936 Q2325.08 32.5936 2321.6 36.4419 Q2318.11 40.2903 2318.11 46.9338 L2318.11 72.576 L2310.62 72.576 L2310.62 9.54393 L2318.11 9.54393 L2318.11 34.2544 Q2320.79 30.163 2324.39 28.1376 Q2328.04 26.1121 2332.78 26.1121 Q2340.6 26.1121 2344.61 30.9732 Q2348.62 35.7938 2348.62 45.1919 Z" fill="#000000" fill-rule="evenodd" fill-opacity="1" /><path clip-path="url(#clip370)" d="M2384.1 49.7694 Q2375.07 49.7694 2371.59 51.8354 Q2368.1 53.9013 2368.1 58.8839 Q2368.1 62.8538 2370.69 65.2034 Q2373.33 67.5124 2377.82 67.5124 Q2384.02 67.5124 2387.75 63.1374 Q2391.52 58.7219 2391.52 51.4303 L2391.52 49.7694 L2384.1 49.7694 M2398.97 46.6907 L2398.97 72.576 L2391.52 72.576 L2391.52 65.6895 Q2388.96 69.8214 2385.16 71.8063 Q2381.35 73.7508 2375.84 73.7508 Q2368.87 73.7508 2364.74 69.8619 Q2360.65 65.9325 2360.65 59.3701 Q2360.65 51.7138 2365.75 47.825 Q2370.9 43.9361 2381.06 43.9361 L2391.52 43.9361 L2391.52 43.2069 Q2391.52 38.0623 2388.11 35.2672 Q2384.75 32.4315 2378.63 32.4315 Q2374.74 32.4315 2371.06 33.3632 Q2367.37 34.295 2363.97 36.1584 L2363.97 29.2718 Q2368.06 27.692 2371.91 26.9223 Q2375.76 26.1121 2379.4 26.1121 Q2389.25 26.1121 2394.11 31.2163 Q2398.97 36.3204 2398.97 46.6907 Z" fill="#000000" fill-rule="evenodd" fill-opacity="1" /><path clip-path="url(#clip370)" d="M2440.61 34.1734 Q2439.36 33.4443 2437.86 33.1202 Q2436.4 32.7556 2434.62 32.7556 Q2428.3 32.7556 2424.89 36.8875 Q2421.53 40.9789 2421.53 48.6757 L2421.53 72.576 L2414.04 72.576 L2414.04 27.2059 L2421.53 27.2059 L2421.53 34.2544 Q2423.88 30.1225 2427.65 28.1376 Q2431.42 26.1121 2436.8 26.1121 Q2437.57 26.1121 2438.51 26.2337 Q2439.44 26.3147 2440.57 26.5172 L2440.61 34.1734 Z" fill="#000000" fill-rule="evenodd" fill-opacity="1" /><path clip-path="url(#clip370)" d="M2485.42 48.0275 L2485.42 51.6733 L2451.14 51.6733 Q2451.63 59.3701 2455.76 63.421 Q2459.94 67.4314 2467.35 67.4314 Q2471.64 67.4314 2475.65 66.3781 Q2479.7 65.3249 2483.67 63.2184 L2483.67 70.267 Q2479.66 71.9684 2475.45 72.8596 Q2471.24 73.7508 2466.9 73.7508 Q2456.05 73.7508 2449.69 67.4314 Q2443.37 61.1119 2443.37 50.3365 Q2443.37 39.1965 2449.36 32.6746 Q2455.4 26.1121 2465.61 26.1121 Q2474.76 26.1121 2480.07 32.0264 Q2485.42 37.9003 2485.42 48.0275 M2477.96 45.84 Q2477.88 39.7232 2474.52 36.0774 Q2471.2 32.4315 2465.69 32.4315 Q2459.45 32.4315 2455.68 35.9558 Q2451.96 39.4801 2451.39 45.8805 L2477.96 45.84 Z" fill="#000000" fill-rule="evenodd" fill-opacity="1" /><path clip-path="url(#clip370)" d="M2526.57 28.5427 L2526.57 35.5912 Q2523.41 33.9709 2520.01 33.1607 Q2516.61 32.3505 2512.96 32.3505 Q2507.41 32.3505 2504.62 34.0519 Q2501.86 35.7533 2501.86 39.156 Q2501.86 41.7486 2503.85 43.2475 Q2505.83 44.7058 2511.83 46.0426 L2514.38 46.6097 Q2522.32 48.3111 2525.64 51.4303 Q2529 54.509 2529 60.0587 Q2529 66.3781 2523.98 70.0644 Q2519 73.7508 2510.25 73.7508 Q2506.6 73.7508 2502.63 73.0216 Q2498.7 72.3329 2494.33 70.9151 L2494.33 63.2184 Q2498.46 65.3654 2502.47 66.4591 Q2506.48 67.5124 2510.41 67.5124 Q2515.68 67.5124 2518.51 65.73 Q2521.35 63.9071 2521.35 60.6258 Q2521.35 57.5877 2519.28 55.9673 Q2517.26 54.3469 2510.33 52.8481 L2507.74 52.2405 Q2500.81 50.7821 2497.73 47.7845 Q2494.65 44.7463 2494.65 39.4801 Q2494.65 33.0797 2499.19 29.5959 Q2503.73 26.1121 2512.07 26.1121 Q2516.2 26.1121 2519.85 26.7198 Q2523.49 27.3274 2526.57 28.5427 Z" fill="#000000" fill-rule="evenodd" fill-opacity="1" /><path clip-path="url(#clip370)" d="M2567.24 27.2059 L2574.7 27.2059 L2574.7 72.576 L2567.24 72.576 L2567.24 27.2059 M2567.24 9.54393 L2574.7 9.54393 L2574.7 18.9825 L2567.24 18.9825 L2567.24 9.54393 Z" fill="#000000" fill-rule="evenodd" fill-opacity="1" /><path clip-path="url(#clip370)" d="M2628.01 45.1919 L2628.01 72.576 L2620.55 72.576 L2620.55 45.4349 Q2620.55 38.994 2618.04 35.7938 Q2615.53 32.5936 2610.51 32.5936 Q2604.47 32.5936 2600.99 36.4419 Q2597.5 40.2903 2597.5 46.9338 L2597.5 72.576 L2590.01 72.576 L2590.01 27.2059 L2597.5 27.2059 L2597.5 34.2544 Q2600.18 30.163 2603.78 28.1376 Q2607.43 26.1121 2612.17 26.1121 Q2619.99 26.1121 2624 30.9732 Q2628.01 35.7938 2628.01 45.1919 Z" fill="#000000" fill-rule="evenodd" fill-opacity="1" /><path clip-path="url(#clip370)" d="M2704.57 35.9153 Q2707.36 30.8922 2711.25 28.5022 Q2715.14 26.1121 2720.41 26.1121 Q2727.5 26.1121 2731.35 31.0947 Q2735.19 36.0368 2735.19 45.1919 L2735.19 72.576 L2727.7 72.576 L2727.7 45.4349 Q2727.7 38.913 2725.39 35.7533 Q2723.08 32.5936 2718.34 32.5936 Q2712.55 32.5936 2709.19 36.4419 Q2705.83 40.2903 2705.83 46.9338 L2705.83 72.576 L2698.33 72.576 L2698.33 45.4349 Q2698.33 38.8725 2696.02 35.7533 Q2693.71 32.5936 2688.89 32.5936 Q2683.18 32.5936 2679.82 36.4824 Q2676.46 40.3308 2676.46 46.9338 L2676.46 72.576 L2668.96 72.576 L2668.96 27.2059 L2676.46 27.2059 L2676.46 34.2544 Q2679.01 30.082 2682.57 28.0971 Q2686.14 26.1121 2691.04 26.1121 Q2695.98 26.1121 2699.42 28.6237 Q2702.91 31.1352 2704.57 35.9153 Z" fill="#000000" fill-rule="evenodd" fill-opacity="1" /><path clip-path="url(#clip370)" d="M2767.64 32.4315 Q2761.65 32.4315 2758.16 37.1306 Q2754.68 41.7891 2754.68 49.9314 Q2754.68 58.0738 2758.12 62.7728 Q2761.61 67.4314 2767.64 67.4314 Q2773.6 67.4314 2777.08 62.7323 Q2780.56 58.0333 2780.56 49.9314 Q2780.56 41.8701 2777.08 37.1711 Q2773.6 32.4315 2767.64 32.4315 M2767.64 26.1121 Q2777.36 26.1121 2782.91 32.4315 Q2788.46 38.7509 2788.46 49.9314 Q2788.46 61.0714 2782.91 67.4314 Q2777.36 73.7508 2767.64 73.7508 Q2757.88 73.7508 2752.33 67.4314 Q2746.82 61.0714 2746.82 49.9314 Q2746.82 38.7509 2752.33 32.4315 Q2757.88 26.1121 2767.64 26.1121 Z" fill="#000000" fill-rule="evenodd" fill-opacity="1" /><path clip-path="url(#clip370)" d="M2838.53 45.1919 L2838.53 72.576 L2831.08 72.576 L2831.08 45.4349 Q2831.08 38.994 2828.57 35.7938 Q2826.06 32.5936 2821.03 32.5936 Q2815 32.5936 2811.51 36.4419 Q2808.03 40.2903 2808.03 46.9338 L2808.03 72.576 L2800.54 72.576 L2800.54 27.2059 L2808.03 27.2059 L2808.03 34.2544 Q2810.7 30.163 2814.31 28.1376 Q2817.95 26.1121 2822.69 26.1121 Q2830.51 26.1121 2834.52 30.9732 Q2838.53 35.7938 2838.53 45.1919 Z" fill="#000000" fill-rule="evenodd" fill-opacity="1" /><path clip-path="url(#clip370)" d="M2860.77 14.324 L2860.77 27.2059 L2876.13 27.2059 L2876.13 32.9987 L2860.77 32.9987 L2860.77 57.6282 Q2860.77 63.1779 2862.27 64.7578 Q2863.81 66.3376 2868.47 66.3376 L2876.13 66.3376 L2876.13 72.576 L2868.47 72.576 Q2859.84 72.576 2856.56 69.3758 Q2853.28 66.1351 2853.28 57.6282 L2853.28 32.9987 L2847.81 32.9987 L2847.81 27.2059 L2853.28 27.2059 L2853.28 14.324 L2860.77 14.324 Z" fill="#000000" fill-rule="evenodd" fill-opacity="1" /><path clip-path="url(#clip370)" d="M2923.64 45.1919 L2923.64 72.576 L2916.19 72.576 L2916.19 45.4349 Q2916.19 38.994 2913.68 35.7938 Q2911.17 32.5936 2906.14 32.5936 Q2900.11 32.5936 2896.62 36.4419 Q2893.14 40.2903 2893.14 46.9338 L2893.14 72.576 L2885.64 72.576 L2885.64 9.54393 L2893.14 9.54393 L2893.14 34.2544 Q2895.81 30.163 2899.42 28.1376 Q2903.06 26.1121 2907.8 26.1121 Q2915.62 26.1121 2919.63 30.9732 Q2923.64 35.7938 2923.64 45.1919 Z" fill="#000000" fill-rule="evenodd" fill-opacity="1" /><path clip-path="url(#clip372)" d="
M515.688 756.824 L515.688 1358.19 L623.515 1358.19 L623.515 756.824 L515.688 756.824 L515.688 756.824  Z
  " fill="#009af9" fill-rule="evenodd" fill-opacity="1"/>
<polyline clip-path="url(#clip372)" style="stroke:#000000; stroke-linecap:round; stroke-linejoin:round; stroke-width:4; stroke-opacity:1; fill:none" points="
  515.688,756.824 515.688,1358.19 623.515,1358.19 623.515,756.824 515.688,756.824 
  "/>
<path clip-path="url(#clip372)" d="
M785.257 760.174 L785.257 1358.19 L893.085 1358.19 L893.085 760.174 L785.257 760.174 L785.257 760.174  Z
  " fill="#009af9" fill-rule="evenodd" fill-opacity="1"/>
<polyline clip-path="url(#clip372)" style="stroke:#000000; stroke-linecap:round; stroke-linejoin:round; stroke-width:4; stroke-opacity:1; fill:none" points="
  785.257,760.174 785.257,1358.19 893.085,1358.19 893.085,760.174 785.257,760.174 
  "/>
<path clip-path="url(#clip372)" d="
M1054.83 663.031 L1054.83 1358.19 L1162.66 1358.19 L1162.66 663.031 L1054.83 663.031 L1054.83 663.031  Z
  " fill="#009af9" fill-rule="evenodd" fill-opacity="1"/>
<polyline clip-path="url(#clip372)" style="stroke:#000000; stroke-linecap:round; stroke-linejoin:round; stroke-width:4; stroke-opacity:1; fill:none" points="
  1054.83,663.031 1054.83,1358.19 1162.66,1358.19 1162.66,663.031 1054.83,663.031 
  "/>
<path clip-path="url(#clip372)" d="
M1324.4 504.429 L1324.4 1358.19 L1432.22 1358.19 L1432.22 504.429 L1324.4 504.429 L1324.4 504.429  Z
  " fill="#009af9" fill-rule="evenodd" fill-opacity="1"/>
<polyline clip-path="url(#clip372)" style="stroke:#000000; stroke-linecap:round; stroke-linejoin:round; stroke-width:4; stroke-opacity:1; fill:none" points="
  1324.4,504.429 1324.4,1358.19 1432.22,1358.19 1432.22,504.429 1324.4,504.429 
  "/>
<path clip-path="url(#clip372)" d="
M1593.97 469.785 L1593.97 1358.19 L1701.79 1358.19 L1701.79 469.785 L1593.97 469.785 L1593.97 469.785  Z
  " fill="#009af9" fill-rule="evenodd" fill-opacity="1"/>
<polyline clip-path="url(#clip372)" style="stroke:#000000; stroke-linecap:round; stroke-linejoin:round; stroke-width:4; stroke-opacity:1; fill:none" points="
  1593.97,469.785 1593.97,1358.19 1701.79,1358.19 1701.79,469.785 1593.97,469.785 
  "/>
<path clip-path="url(#clip372)" d="
M1863.54 294.421 L1863.54 1358.19 L1971.36 1358.19 L1971.36 294.421 L1863.54 294.421 L1863.54 294.421  Z
  " fill="#009af9" fill-rule="evenodd" fill-opacity="1"/>
<polyline clip-path="url(#clip372)" style="stroke:#000000; stroke-linecap:round; stroke-linejoin:round; stroke-width:4; stroke-opacity:1; fill:none" points="
  1863.54,294.421 1863.54,1358.19 1971.36,1358.19 1971.36,294.421 1863.54,294.421 
  "/>
<path clip-path="url(#clip372)" d="
M2133.11 240.265 L2133.11 1358.19 L2240.93 1358.19 L2240.93 240.265 L2133.11 240.265 L2133.11 240.265  Z
  " fill="#009af9" fill-rule="evenodd" fill-opacity="1"/>
<polyline clip-path="url(#clip372)" style="stroke:#000000; stroke-linecap:round; stroke-linejoin:round; stroke-width:4; stroke-opacity:1; fill:none" points="
  2133.11,240.265 2133.11,1358.19 2240.93,1358.19 2240.93,240.265 2133.11,240.265 
  "/>
<path clip-path="url(#clip372)" d="
M2402.68 332.332 L2402.68 1358.19 L2510.5 1358.19 L2510.5 332.332 L2402.68 332.332 L2402.68 332.332  Z
  " fill="#009af9" fill-rule="evenodd" fill-opacity="1"/>
<polyline clip-path="url(#clip372)" style="stroke:#000000; stroke-linecap:round; stroke-linejoin:round; stroke-width:4; stroke-opacity:1; fill:none" points="
  2402.68,332.332 2402.68,1358.19 2510.5,1358.19 2510.5,332.332 2402.68,332.332 
  "/>
<path clip-path="url(#clip372)" d="
M2672.25 431.599 L2672.25 1358.19 L2780.07 1358.19 L2780.07 431.599 L2672.25 431.599 L2672.25 431.599  Z
  " fill="#009af9" fill-rule="evenodd" fill-opacity="1"/>
<polyline clip-path="url(#clip372)" style="stroke:#000000; stroke-linecap:round; stroke-linejoin:round; stroke-width:4; stroke-opacity:1; fill:none" points="
  2672.25,431.599 2672.25,1358.19 2780.07,1358.19 2780.07,431.599 2672.25,431.599 
  "/>
<path clip-path="url(#clip372)" d="
M2941.82 490.586 L2941.82 1358.19 L3049.64 1358.19 L3049.64 490.586 L2941.82 490.586 L2941.82 490.586  Z
  " fill="#009af9" fill-rule="evenodd" fill-opacity="1"/>
<polyline clip-path="url(#clip372)" style="stroke:#000000; stroke-linecap:round; stroke-linejoin:round; stroke-width:4; stroke-opacity:1; fill:none" points="
  2941.82,490.586 2941.82,1358.19 3049.64,1358.19 3049.64,490.586 2941.82,490.586 
  "/>
<path clip-path="url(#clip372)" d="
M3211.39 654.968 L3211.39 1358.19 L3319.21 1358.19 L3319.21 654.968 L3211.39 654.968 L3211.39 654.968  Z
  " fill="#009af9" fill-rule="evenodd" fill-opacity="1"/>
<polyline clip-path="url(#clip372)" style="stroke:#000000; stroke-linecap:round; stroke-linejoin:round; stroke-width:4; stroke-opacity:1; fill:none" points="
  3211.39,654.968 3211.39,1358.19 3319.21,1358.19 3319.21,654.968 3211.39,654.968 
  "/>
<path clip-path="url(#clip372)" d="
M3480.96 756.836 L3480.96 1358.19 L3588.78 1358.19 L3588.78 756.836 L3480.96 756.836 L3480.96 756.836  Z
  " fill="#009af9" fill-rule="evenodd" fill-opacity="1"/>
<polyline clip-path="url(#clip372)" style="stroke:#000000; stroke-linecap:round; stroke-linejoin:round; stroke-width:4; stroke-opacity:1; fill:none" points="
  3480.96,756.836 3480.96,1358.19 3588.78,1358.19 3588.78,756.836 3480.96,756.836 
  "/>
<circle clip-path="url(#clip372)" style="fill:#009af9; stroke:none; fill-opacity:0" cx="569.601" cy="756.824" r="2"/>
<circle clip-path="url(#clip372)" style="fill:#009af9; stroke:none; fill-opacity:0" cx="839.171" cy="760.174" r="2"/>
<circle clip-path="url(#clip372)" style="fill:#009af9; stroke:none; fill-opacity:0" cx="1108.74" cy="663.031" r="2"/>
<circle clip-path="url(#clip372)" style="fill:#009af9; stroke:none; fill-opacity:0" cx="1378.31" cy="504.429" r="2"/>
<circle clip-path="url(#clip372)" style="fill:#009af9; stroke:none; fill-opacity:0" cx="1647.88" cy="469.785" r="2"/>
<circle clip-path="url(#clip372)" style="fill:#009af9; stroke:none; fill-opacity:0" cx="1917.45" cy="294.421" r="2"/>
<circle clip-path="url(#clip372)" style="fill:#009af9; stroke:none; fill-opacity:0" cx="2187.02" cy="240.265" r="2"/>
<circle clip-path="url(#clip372)" style="fill:#009af9; stroke:none; fill-opacity:0" cx="2456.59" cy="332.332" r="2"/>
<circle clip-path="url(#clip372)" style="fill:#009af9; stroke:none; fill-opacity:0" cx="2726.16" cy="431.599" r="2"/>
<circle clip-path="url(#clip372)" style="fill:#009af9; stroke:none; fill-opacity:0" cx="2995.73" cy="490.586" r="2"/>
<circle clip-path="url(#clip372)" style="fill:#009af9; stroke:none; fill-opacity:0" cx="3265.3" cy="654.968" r="2"/>
<circle clip-path="url(#clip372)" style="fill:#009af9; stroke:none; fill-opacity:0" cx="3534.87" cy="756.836" r="2"/>
<path clip-path="url(#clip372)" d="
M623.515 780.23 L623.515 1358.19 L731.343 1358.19 L731.343 780.23 L623.515 780.23 L623.515 780.23  Z
  " fill="#e26f46" fill-rule="evenodd" fill-opacity="1"/>
<polyline clip-path="url(#clip372)" style="stroke:#000000; stroke-linecap:round; stroke-linejoin:round; stroke-width:4; stroke-opacity:1; fill:none" points="
  623.515,780.23 623.515,1358.19 731.343,1358.19 731.343,780.23 623.515,780.23 
  "/>
<path clip-path="url(#clip372)" d="
M893.085 722.038 L893.085 1358.19 L1000.91 1358.19 L1000.91 722.038 L893.085 722.038 L893.085 722.038  Z
  " fill="#e26f46" fill-rule="evenodd" fill-opacity="1"/>
<polyline clip-path="url(#clip372)" style="stroke:#000000; stroke-linecap:round; stroke-linejoin:round; stroke-width:4; stroke-opacity:1; fill:none" points="
  893.085,722.038 893.085,1358.19 1000.91,1358.19 1000.91,722.038 893.085,722.038 
  "/>
<path clip-path="url(#clip372)" d="
M1162.66 693.398 L1162.66 1358.19 L1270.48 1358.19 L1270.48 693.398 L1162.66 693.398 L1162.66 693.398  Z
  " fill="#e26f46" fill-rule="evenodd" fill-opacity="1"/>
<polyline clip-path="url(#clip372)" style="stroke:#000000; stroke-linecap:round; stroke-linejoin:round; stroke-width:4; stroke-opacity:1; fill:none" points="
  1162.66,693.398 1162.66,1358.19 1270.48,1358.19 1270.48,693.398 1162.66,693.398 
  "/>
<path clip-path="url(#clip372)" d="
M1432.22 568.839 L1432.22 1358.19 L1540.05 1358.19 L1540.05 568.839 L1432.22 568.839 L1432.22 568.839  Z
  " fill="#e26f46" fill-rule="evenodd" fill-opacity="1"/>
<polyline clip-path="url(#clip372)" style="stroke:#000000; stroke-linecap:round; stroke-linejoin:round; stroke-width:4; stroke-opacity:1; fill:none" points="
  1432.22,568.839 1432.22,1358.19 1540.05,1358.19 1540.05,568.839 1432.22,568.839 
  "/>
<path clip-path="url(#clip372)" d="
M1701.79 364.098 L1701.79 1358.19 L1809.62 1358.19 L1809.62 364.098 L1701.79 364.098 L1701.79 364.098  Z
  " fill="#e26f46" fill-rule="evenodd" fill-opacity="1"/>
<polyline clip-path="url(#clip372)" style="stroke:#000000; stroke-linecap:round; stroke-linejoin:round; stroke-width:4; stroke-opacity:1; fill:none" points="
  1701.79,364.098 1701.79,1358.19 1809.62,1358.19 1809.62,364.098 1701.79,364.098 
  "/>
<path clip-path="url(#clip372)" d="
M1971.36 380.365 L1971.36 1358.19 L2079.19 1358.19 L2079.19 380.365 L1971.36 380.365 L1971.36 380.365  Z
  " fill="#e26f46" fill-rule="evenodd" fill-opacity="1"/>
<polyline clip-path="url(#clip372)" style="stroke:#000000; stroke-linecap:round; stroke-linejoin:round; stroke-width:4; stroke-opacity:1; fill:none" points="
  1971.36,380.365 1971.36,1358.19 2079.19,1358.19 2079.19,380.365 1971.36,380.365 
  "/>
<path clip-path="url(#clip372)" d="
M2240.93 197.105 L2240.93 1358.19 L2348.76 1358.19 L2348.76 197.105 L2240.93 197.105 L2240.93 197.105  Z
  " fill="#e26f46" fill-rule="evenodd" fill-opacity="1"/>
<polyline clip-path="url(#clip372)" style="stroke:#000000; stroke-linecap:round; stroke-linejoin:round; stroke-width:4; stroke-opacity:1; fill:none" points="
  2240.93,197.105 2240.93,1358.19 2348.76,1358.19 2348.76,197.105 2240.93,197.105 
  "/>
<path clip-path="url(#clip372)" d="
M2510.5 223.679 L2510.5 1358.19 L2618.33 1358.19 L2618.33 223.679 L2510.5 223.679 L2510.5 223.679  Z
  " fill="#e26f46" fill-rule="evenodd" fill-opacity="1"/>
<polyline clip-path="url(#clip372)" style="stroke:#000000; stroke-linecap:round; stroke-linejoin:round; stroke-width:4; stroke-opacity:1; fill:none" points="
  2510.5,223.679 2510.5,1358.19 2618.33,1358.19 2618.33,223.679 2510.5,223.679 
  "/>
<path clip-path="url(#clip372)" d="
M2780.07 278.897 L2780.07 1358.19 L2887.9 1358.19 L2887.9 278.897 L2780.07 278.897 L2780.07 278.897  Z
  " fill="#e26f46" fill-rule="evenodd" fill-opacity="1"/>
<polyline clip-path="url(#clip372)" style="stroke:#000000; stroke-linecap:round; stroke-linejoin:round; stroke-width:4; stroke-opacity:1; fill:none" points="
  2780.07,278.897 2780.07,1358.19 2887.9,1358.19 2887.9,278.897 2780.07,278.897 
  "/>
<path clip-path="url(#clip372)" d="
M3049.64 428.558 L3049.64 1358.19 L3157.47 1358.19 L3157.47 428.558 L3049.64 428.558 L3049.64 428.558  Z
  " fill="#e26f46" fill-rule="evenodd" fill-opacity="1"/>
<polyline clip-path="url(#clip372)" style="stroke:#000000; stroke-linecap:round; stroke-linejoin:round; stroke-width:4; stroke-opacity:1; fill:none" points="
  3049.64,428.558 3049.64,1358.19 3157.47,1358.19 3157.47,428.558 3049.64,428.558 
  "/>
<path clip-path="url(#clip372)" d="
M3319.21 635.558 L3319.21 1358.19 L3427.04 1358.19 L3427.04 635.558 L3319.21 635.558 L3319.21 635.558  Z
  " fill="#e26f46" fill-rule="evenodd" fill-opacity="1"/>
<polyline clip-path="url(#clip372)" style="stroke:#000000; stroke-linecap:round; stroke-linejoin:round; stroke-width:4; stroke-opacity:1; fill:none" points="
  3319.21,635.558 3319.21,1358.19 3427.04,1358.19 3427.04,635.558 3319.21,635.558 
  "/>
<path clip-path="url(#clip372)" d="
M3588.78 711.384 L3588.78 1358.19 L3696.61 1358.19 L3696.61 711.384 L3588.78 711.384 L3588.78 711.384  Z
  " fill="#e26f46" fill-rule="evenodd" fill-opacity="1"/>
<polyline clip-path="url(#clip372)" style="stroke:#000000; stroke-linecap:round; stroke-linejoin:round; stroke-width:4; stroke-opacity:1; fill:none" points="
  3588.78,711.384 3588.78,1358.19 3696.61,1358.19 3696.61,711.384 3588.78,711.384 
  "/>
<circle clip-path="url(#clip372)" style="fill:#e26f46; stroke:none; fill-opacity:0" cx="677.429" cy="780.23" r="2"/>
<circle clip-path="url(#clip372)" style="fill:#e26f46; stroke:none; fill-opacity:0" cx="946.999" cy="722.038" r="2"/>
<circle clip-path="url(#clip372)" style="fill:#e26f46; stroke:none; fill-opacity:0" cx="1216.57" cy="693.398" r="2"/>
<circle clip-path="url(#clip372)" style="fill:#e26f46; stroke:none; fill-opacity:0" cx="1486.14" cy="568.839" r="2"/>
<circle clip-path="url(#clip372)" style="fill:#e26f46; stroke:none; fill-opacity:0" cx="1755.71" cy="364.098" r="2"/>
<circle clip-path="url(#clip372)" style="fill:#e26f46; stroke:none; fill-opacity:0" cx="2025.28" cy="380.365" r="2"/>
<circle clip-path="url(#clip372)" style="fill:#e26f46; stroke:none; fill-opacity:0" cx="2294.85" cy="197.105" r="2"/>
<circle clip-path="url(#clip372)" style="fill:#e26f46; stroke:none; fill-opacity:0" cx="2564.42" cy="223.679" r="2"/>
<circle clip-path="url(#clip372)" style="fill:#e26f46; stroke:none; fill-opacity:0" cx="2833.99" cy="278.897" r="2"/>
<circle clip-path="url(#clip372)" style="fill:#e26f46; stroke:none; fill-opacity:0" cx="3103.56" cy="428.558" r="2"/>
<circle clip-path="url(#clip372)" style="fill:#e26f46; stroke:none; fill-opacity:0" cx="3373.13" cy="635.558" r="2"/>
<circle clip-path="url(#clip372)" style="fill:#e26f46; stroke:none; fill-opacity:0" cx="3642.7" cy="711.384" r="2"/>
<path clip-path="url(#clip370)" d="
M3236.36 488.417 L3770.86 488.417 L3770.86 203.297 L3236.36 203.297  Z
  " fill="#ffffff" fill-rule="evenodd" fill-opacity="1"/>
<polyline clip-path="url(#clip370)" style="stroke:#000000; stroke-linecap:round; stroke-linejoin:round; stroke-width:4; stroke-opacity:1; fill:none" points="
  3236.36,488.417 3770.86,488.417 3770.86,203.297 3236.36,203.297 3236.36,488.417 
  "/>
<path clip-path="url(#clip370)" d="M3433.45 250.817 L3440.36 250.817 L3453.53 270.36 L3466.61 250.817 L3473.52 250.817 L3456.72 275.707 L3456.72 298.337 L3450.25 298.337 L3450.25 275.707 L3433.45 250.817 Z" fill="#000000" fill-rule="evenodd" fill-opacity="1" /><path clip-path="url(#clip370)" d="M3501.37 279.049 L3501.37 281.914 L3474.44 281.914 Q3474.83 287.961 3478.07 291.144 Q3481.35 294.295 3487.18 294.295 Q3490.55 294.295 3493.7 293.467 Q3496.88 292.64 3500 290.985 L3500 296.523 Q3496.85 297.86 3493.54 298.56 Q3490.23 299.26 3486.83 299.26 Q3478.29 299.26 3473.3 294.295 Q3468.33 289.33 3468.33 280.863 Q3468.33 272.11 3473.04 266.986 Q3477.79 261.83 3485.81 261.83 Q3493 261.83 3497.17 266.477 Q3501.37 271.092 3501.37 279.049 M3495.51 277.33 Q3495.45 272.524 3492.81 269.66 Q3490.2 266.795 3485.87 266.795 Q3480.97 266.795 3478.01 269.564 Q3475.08 272.333 3474.63 277.362 L3495.51 277.33 Z" fill="#000000" fill-rule="evenodd" fill-opacity="1" /><path clip-path="url(#clip370)" d="M3527.18 280.418 Q3520.09 280.418 3517.35 282.041 Q3514.61 283.664 3514.61 287.579 Q3514.61 290.698 3516.65 292.544 Q3518.72 294.359 3522.25 294.359 Q3527.12 294.359 3530.05 290.921 Q3533.01 287.452 3533.01 281.723 L3533.01 280.418 L3527.18 280.418 M3538.86 277.999 L3538.86 298.337 L3533.01 298.337 L3533.01 292.926 Q3531 296.173 3528.01 297.732 Q3525.02 299.26 3520.69 299.26 Q3515.22 299.26 3511.97 296.205 Q3508.75 293.117 3508.75 287.961 Q3508.75 281.945 3512.77 278.89 Q3516.81 275.834 3524.8 275.834 L3533.01 275.834 L3533.01 275.261 Q3533.01 271.219 3530.33 269.023 Q3527.69 266.795 3522.89 266.795 Q3519.83 266.795 3516.93 267.527 Q3514.04 268.259 3511.36 269.723 L3511.36 264.312 Q3514.58 263.071 3517.6 262.466 Q3520.63 261.83 3523.49 261.83 Q3531.23 261.83 3535.05 265.84 Q3538.86 269.851 3538.86 277.999 Z" fill="#000000" fill-rule="evenodd" fill-opacity="1" /><path clip-path="url(#clip370)" d="M3571.58 268.164 Q3570.6 267.591 3569.42 267.336 Q3568.27 267.05 3566.87 267.05 Q3561.91 267.05 3559.23 270.296 Q3556.59 273.511 3556.59 279.558 L3556.59 298.337 L3550.7 298.337 L3550.7 262.689 L3556.59 262.689 L3556.59 268.227 Q3558.44 264.981 3561.4 263.421 Q3564.36 261.83 3568.59 261.83 Q3569.2 261.83 3569.93 261.925 Q3570.66 261.989 3571.55 262.148 L3571.58 268.164 Z" fill="#000000" fill-rule="evenodd" fill-opacity="1" /><path clip-path="url(#clip370)" d="
M3276 374.369 L3513.81 374.369 L3513.81 317.345 L3276 317.345 L3276 374.369  Z
  " fill="#009af9" fill-rule="evenodd" fill-opacity="1"/>
<polyline clip-path="url(#clip370)" style="stroke:#000000; stroke-linecap:round; stroke-linejoin:round; stroke-width:4; stroke-opacity:1; fill:none" points="
  3276,374.369 3513.81,374.369 3513.81,317.345 3276,317.345 3276,374.369 
  "/>
<path clip-path="url(#clip370)" d="M3559.07 359.202 L3575.39 359.202 L3575.39 363.137 L3553.45 363.137 L3553.45 359.202 Q3556.11 356.447 3560.69 351.818 Q3565.3 347.165 3566.48 345.822 Q3568.73 343.299 3569.61 341.563 Q3570.51 339.804 3570.51 338.114 Q3570.51 335.36 3568.56 333.623 Q3566.64 331.887 3563.54 331.887 Q3561.34 331.887 3558.89 332.651 Q3556.46 333.415 3553.68 334.966 L3553.68 330.244 Q3556.5 329.11 3558.96 328.531 Q3561.41 327.952 3563.45 327.952 Q3568.82 327.952 3572.01 330.637 Q3575.21 333.323 3575.21 337.813 Q3575.21 339.943 3574.4 341.864 Q3573.61 343.762 3571.5 346.355 Q3570.93 347.026 3567.82 350.244 Q3564.72 353.438 3559.07 359.202 Z" fill="#000000" fill-rule="evenodd" fill-opacity="1" /><path clip-path="url(#clip370)" d="M3595.21 331.656 Q3591.6 331.656 3589.77 335.221 Q3587.96 338.762 3587.96 345.892 Q3587.96 352.998 3589.77 356.563 Q3591.6 360.105 3595.21 360.105 Q3598.84 360.105 3600.65 356.563 Q3602.48 352.998 3602.48 345.892 Q3602.48 338.762 3600.65 335.221 Q3598.84 331.656 3595.21 331.656 M3595.21 327.952 Q3601.02 327.952 3604.07 332.559 Q3607.15 337.142 3607.15 345.892 Q3607.15 354.619 3604.07 359.225 Q3601.02 363.808 3595.21 363.808 Q3589.4 363.808 3586.32 359.225 Q3583.26 354.619 3583.26 345.892 Q3583.26 337.142 3586.32 332.559 Q3589.4 327.952 3595.21 327.952 Z" fill="#000000" fill-rule="evenodd" fill-opacity="1" /><path clip-path="url(#clip370)" d="M3616.18 359.202 L3623.82 359.202 L3623.82 332.836 L3615.51 334.503 L3615.51 330.244 L3623.77 328.577 L3628.45 328.577 L3628.45 359.202 L3636.09 359.202 L3636.09 363.137 L3616.18 363.137 L3616.18 359.202 Z" fill="#000000" fill-rule="evenodd" fill-opacity="1" /><path clip-path="url(#clip370)" d="M3645.58 328.577 L3663.93 328.577 L3663.93 332.512 L3649.86 332.512 L3649.86 340.985 Q3650.88 340.637 3651.9 340.475 Q3652.92 340.29 3653.93 340.29 Q3659.72 340.29 3663.1 343.461 Q3666.48 346.633 3666.48 352.049 Q3666.48 357.628 3663.01 360.73 Q3659.54 363.808 3653.22 363.808 Q3651.04 363.808 3648.77 363.438 Q3646.53 363.068 3644.12 362.327 L3644.12 357.628 Q3646.2 358.762 3648.42 359.318 Q3650.65 359.873 3653.12 359.873 Q3657.13 359.873 3659.47 357.767 Q3661.8 355.66 3661.8 352.049 Q3661.8 348.438 3659.47 346.332 Q3657.13 344.225 3653.12 344.225 Q3651.25 344.225 3649.37 344.642 Q3647.52 345.059 3645.58 345.938 L3645.58 328.577 Z" fill="#000000" fill-rule="evenodd" fill-opacity="1" /><path clip-path="url(#clip370)" d="
M3276 445.649 L3513.81 445.649 L3513.81 388.625 L3276 388.625 L3276 445.649  Z
  " fill="#e26f46" fill-rule="evenodd" fill-opacity="1"/>
<polyline clip-path="url(#clip370)" style="stroke:#000000; stroke-linecap:round; stroke-linejoin:round; stroke-width:4; stroke-opacity:1; fill:none" points="
  3276,445.649 3513.81,445.649 3513.81,388.625 3276,388.625 3276,445.649 
  "/>
<path clip-path="url(#clip370)" d="M3559.07 430.482 L3575.39 430.482 L3575.39 434.417 L3553.45 434.417 L3553.45 430.482 Q3556.11 427.727 3560.69 423.098 Q3565.3 418.445 3566.48 417.102 Q3568.73 414.579 3569.61 412.843 Q3570.51 411.084 3570.51 409.394 Q3570.51 406.64 3568.56 404.903 Q3566.64 403.167 3563.54 403.167 Q3561.34 403.167 3558.89 403.931 Q3556.46 404.695 3553.68 406.246 L3553.68 401.524 Q3556.5 400.39 3558.96 399.811 Q3561.41 399.232 3563.45 399.232 Q3568.82 399.232 3572.01 401.917 Q3575.21 404.603 3575.21 409.093 Q3575.21 411.223 3574.4 413.144 Q3573.61 415.042 3571.5 417.635 Q3570.93 418.306 3567.82 421.524 Q3564.72 424.718 3559.07 430.482 Z" fill="#000000" fill-rule="evenodd" fill-opacity="1" /><path clip-path="url(#clip370)" d="M3595.21 402.936 Q3591.6 402.936 3589.77 406.501 Q3587.96 410.042 3587.96 417.172 Q3587.96 424.278 3589.77 427.843 Q3591.6 431.385 3595.21 431.385 Q3598.84 431.385 3600.65 427.843 Q3602.48 424.278 3602.48 417.172 Q3602.48 410.042 3600.65 406.501 Q3598.84 402.936 3595.21 402.936 M3595.21 399.232 Q3601.02 399.232 3604.07 403.839 Q3607.15 408.422 3607.15 417.172 Q3607.15 425.899 3604.07 430.505 Q3601.02 435.088 3595.21 435.088 Q3589.4 435.088 3586.32 430.505 Q3583.26 425.899 3583.26 417.172 Q3583.26 408.422 3586.32 403.839 Q3589.4 399.232 3595.21 399.232 Z" fill="#000000" fill-rule="evenodd" fill-opacity="1" /><path clip-path="url(#clip370)" d="M3616.18 430.482 L3623.82 430.482 L3623.82 404.116 L3615.51 405.783 L3615.51 401.524 L3623.77 399.857 L3628.45 399.857 L3628.45 430.482 L3636.09 430.482 L3636.09 434.417 L3616.18 434.417 L3616.18 430.482 Z" fill="#000000" fill-rule="evenodd" fill-opacity="1" /><path clip-path="url(#clip370)" d="M3656.11 415.274 Q3652.96 415.274 3651.11 417.427 Q3649.28 419.579 3649.28 423.329 Q3649.28 427.056 3651.11 429.232 Q3652.96 431.385 3656.11 431.385 Q3659.26 431.385 3661.09 429.232 Q3662.94 427.056 3662.94 423.329 Q3662.94 419.579 3661.09 417.427 Q3659.26 415.274 3656.11 415.274 M3665.39 400.621 L3665.39 404.88 Q3663.63 404.047 3661.83 403.607 Q3660.05 403.167 3658.29 403.167 Q3653.66 403.167 3651.2 406.292 Q3648.77 409.417 3648.42 415.737 Q3649.79 413.723 3651.85 412.658 Q3653.91 411.57 3656.39 411.57 Q3661.6 411.57 3664.61 414.741 Q3667.64 417.889 3667.64 423.329 Q3667.64 428.653 3664.49 431.871 Q3661.34 435.088 3656.11 435.088 Q3650.11 435.088 3646.94 430.505 Q3643.77 425.899 3643.77 417.172 Q3643.77 408.977 3647.66 404.116 Q3651.55 399.232 3658.1 399.232 Q3659.86 399.232 3661.64 399.579 Q3663.45 399.927 3665.39 400.621 Z" fill="#000000" fill-rule="evenodd" fill-opacity="1" /></svg>
