<?xml version="1.0" encoding="utf-8"?>
<svg xmlns="http://www.w3.org/2000/svg" xmlns:xlink="http://www.w3.org/1999/xlink" width="800" height="400" viewBox="0 0 3200 1600">
<defs>
  <clipPath id="clip100">
    <rect x="0" y="0" width="3200" height="1600"/>
  </clipPath>
</defs>
<path clip-path="url(#clip100)" d="
M0 1600 L3200 1600 L3200 0 L0 0  Z
  " fill="#ffffff" fill-rule="evenodd" fill-opacity="1"/>
<defs>
  <clipPath id="clip101">
    <rect x="640" y="0" width="2241" height="1600"/>
  </clipPath>
</defs>
<path clip-path="url(#clip100)" d="
M323.399 1380.71 L3089.76 1380.71 L3089.76 110.236 L323.399 110.236  Z
  " fill="#ffffff" fill-rule="evenodd" fill-opacity="1"/>
<defs>
  <clipPath id="clip102">
    <rect x="323" y="110" width="2767" height="1271"/>
  </clipPath>
</defs>
<polyline clip-path="url(#clip102)" style="stroke:#000000; stroke-linecap:round; stroke-linejoin:round; stroke-width:2; stroke-opacity:0.1; fill:none" points="
  516.933,1380.71 516.933,110.236 
  "/>
<polyline clip-path="url(#clip102)" style="stroke:#000000; stroke-linecap:round; stroke-linejoin:round; stroke-width:2; stroke-opacity:0.1; fill:none" points="
  930.724,1380.71 930.724,110.236 
  "/>
<polyline clip-path="url(#clip102)" style="stroke:#000000; stroke-linecap:round; stroke-linejoin:round; stroke-width:2; stroke-opacity:0.1; fill:none" points="
  1344.51,1380.71 1344.51,110.236 
  "/>
<polyline clip-path="url(#clip102)" style="stroke:#000000; stroke-linecap:round; stroke-linejoin:round; stroke-width:2; stroke-opacity:0.1; fill:none" points="
  1758.31,1380.71 1758.31,110.236 
  "/>
<polyline clip-path="url(#clip102)" style="stroke:#000000; stroke-linecap:round; stroke-linejoin:round; stroke-width:2; stroke-opacity:0.1; fill:none" points="
  2172.1,1380.71 2172.1,110.236 
  "/>
<polyline clip-path="url(#clip102)" style="stroke:#000000; stroke-linecap:round; stroke-linejoin:round; stroke-width:2; stroke-opacity:0.1; fill:none" points="
  2585.89,1380.71 2585.89,110.236 
  "/>
<polyline clip-path="url(#clip100)" style="stroke:#000000; stroke-linecap:round; stroke-linejoin:round; stroke-width:4; stroke-opacity:1; fill:none" points="
  323.399,1380.71 3089.76,1380.71 
  "/>
<polyline clip-path="url(#clip100)" style="stroke:#000000; stroke-linecap:round; stroke-linejoin:round; stroke-width:4; stroke-opacity:1; fill:none" points="
  516.933,1380.71 516.933,1361.81 
  "/>
<polyline clip-path="url(#clip100)" style="stroke:#000000; stroke-linecap:round; stroke-linejoin:round; stroke-width:4; stroke-opacity:1; fill:none" points="
  930.724,1380.71 930.724,1361.81 
  "/>
<polyline clip-path="url(#clip100)" style="stroke:#000000; stroke-linecap:round; stroke-linejoin:round; stroke-width:4; stroke-opacity:1; fill:none" points="
  1344.51,1380.71 1344.51,1361.81 
  "/>
<polyline clip-path="url(#clip100)" style="stroke:#000000; stroke-linecap:round; stroke-linejoin:round; stroke-width:4; stroke-opacity:1; fill:none" points="
  1758.31,1380.71 1758.31,1361.81 
  "/>
<polyline clip-path="url(#clip100)" style="stroke:#000000; stroke-linecap:round; stroke-linejoin:round; stroke-width:4; stroke-opacity:1; fill:none" points="
  2172.1,1380.71 2172.1,1361.81 
  "/>
<polyline clip-path="url(#clip100)" style="stroke:#000000; stroke-linecap:round; stroke-linejoin:round; stroke-width:4; stroke-opacity:1; fill:none" points="
  2585.89,1380.71 2585.89,1361.81 
  "/>
<path clip-path="url(#clip100)" d="M425.557 1418.03 Q421.946 1418.03 420.117 1421.59 Q418.311 1425.13 418.311 1432.26 Q418.311 1439.37 420.117 1442.93 Q421.946 1446.48 425.557 1446.48 Q429.191 1446.48 430.996 1442.93 Q432.825 1439.37 432.825 1432.26 Q432.825 1425.13 430.996 1421.59 Q429.191 1418.03 425.557 1418.03 M425.557 1414.32 Q431.367 1414.32 434.422 1418.93 Q437.501 1423.51 437.501 1432.26 Q437.501 1440.99 434.422 1445.6 Q431.367 1450.18 425.557 1450.18 Q419.746 1450.18 416.668 1445.6 Q413.612 1440.99 413.612 1432.26 Q413.612 1423.51 416.668 1418.93 Q419.746 1414.32 425.557 1414.32 Z" fill="#000000" fill-rule="evenodd" fill-opacity="1" /><path clip-path="url(#clip100)" d="M455.719 1418.03 Q452.107 1418.03 450.279 1421.59 Q448.473 1425.13 448.473 1432.26 Q448.473 1439.37 450.279 1442.93 Q452.107 1446.48 455.719 1446.48 Q459.353 1446.48 461.158 1442.93 Q462.987 1439.37 462.987 1432.26 Q462.987 1425.13 461.158 1421.59 Q459.353 1418.03 455.719 1418.03 M455.719 1414.32 Q461.529 1414.32 464.584 1418.93 Q467.663 1423.51 467.663 1432.26 Q467.663 1440.99 464.584 1445.6 Q461.529 1450.18 455.719 1450.18 Q449.908 1450.18 446.83 1445.6 Q443.774 1440.99 443.774 1432.26 Q443.774 1423.51 446.83 1418.93 Q449.908 1414.32 455.719 1414.32 Z" fill="#000000" fill-rule="evenodd" fill-opacity="1" /><path clip-path="url(#clip100)" d="M476.367 1443.63 L481.251 1443.63 L481.251 1449.51 L476.367 1449.51 L476.367 1443.63 M476.367 1424.99 L481.251 1424.99 L481.251 1430.87 L476.367 1430.87 L476.367 1424.99 Z" fill="#000000" fill-rule="evenodd" fill-opacity="1" /><path clip-path="url(#clip100)" d="M501.853 1418.03 Q498.241 1418.03 496.413 1421.59 Q494.607 1425.13 494.607 1432.26 Q494.607 1439.37 496.413 1442.93 Q498.241 1446.48 501.853 1446.48 Q505.487 1446.48 507.292 1442.93 Q509.121 1439.37 509.121 1432.26 Q509.121 1425.13 507.292 1421.59 Q505.487 1418.03 501.853 1418.03 M501.853 1414.32 Q507.663 1414.32 510.718 1418.93 Q513.797 1423.51 513.797 1432.26 Q513.797 1440.99 510.718 1445.6 Q507.663 1450.18 501.853 1450.18 Q496.042 1450.18 492.964 1445.6 Q489.908 1440.99 489.908 1432.26 Q489.908 1423.51 492.964 1418.93 Q496.042 1414.32 501.853 1414.32 Z" fill="#000000" fill-rule="evenodd" fill-opacity="1" /><path clip-path="url(#clip100)" d="M532.014 1418.03 Q528.403 1418.03 526.575 1421.59 Q524.769 1425.13 524.769 1432.26 Q524.769 1439.37 526.575 1442.93 Q528.403 1446.48 532.014 1446.48 Q535.649 1446.48 537.454 1442.93 Q539.283 1439.37 539.283 1432.26 Q539.283 1425.13 537.454 1421.59 Q535.649 1418.03 532.014 1418.03 M532.014 1414.32 Q537.825 1414.32 540.88 1418.93 Q543.959 1423.51 543.959 1432.26 Q543.959 1440.99 540.88 1445.6 Q537.825 1450.18 532.014 1450.18 Q526.204 1450.18 523.126 1445.6 Q520.07 1440.99 520.07 1432.26 Q520.07 1423.51 523.126 1418.93 Q526.204 1414.32 532.014 1414.32 Z" fill="#000000" fill-rule="evenodd" fill-opacity="1" /><path clip-path="url(#clip100)" d="M552.662 1443.63 L557.547 1443.63 L557.547 1449.51 L552.662 1449.51 L552.662 1443.63 M552.662 1424.99 L557.547 1424.99 L557.547 1430.87 L552.662 1430.87 L552.662 1424.99 Z" fill="#000000" fill-rule="evenodd" fill-opacity="1" /><path clip-path="url(#clip100)" d="M578.148 1418.03 Q574.537 1418.03 572.709 1421.59 Q570.903 1425.13 570.903 1432.26 Q570.903 1439.37 572.709 1442.93 Q574.537 1446.48 578.148 1446.48 Q581.783 1446.48 583.588 1442.93 Q585.417 1439.37 585.417 1432.26 Q585.417 1425.13 583.588 1421.59 Q581.783 1418.03 578.148 1418.03 M578.148 1414.32 Q583.959 1414.32 587.014 1418.93 Q590.093 1423.51 590.093 1432.26 Q590.093 1440.99 587.014 1445.6 Q583.959 1450.18 578.148 1450.18 Q572.338 1450.18 569.26 1445.6 Q566.204 1440.99 566.204 1432.26 Q566.204 1423.51 569.26 1418.93 Q572.338 1414.32 578.148 1414.32 Z" fill="#000000" fill-rule="evenodd" fill-opacity="1" /><path clip-path="url(#clip100)" d="M608.31 1418.03 Q604.699 1418.03 602.871 1421.59 Q601.065 1425.13 601.065 1432.26 Q601.065 1439.37 602.871 1442.93 Q604.699 1446.48 608.31 1446.48 Q611.945 1446.48 613.75 1442.93 Q615.579 1439.37 615.579 1432.26 Q615.579 1425.13 613.75 1421.59 Q611.945 1418.03 608.31 1418.03 M608.31 1414.32 Q614.12 1414.32 617.176 1418.93 Q620.255 1423.51 620.255 1432.26 Q620.255 1440.99 617.176 1445.6 Q614.12 1450.18 608.31 1450.18 Q602.5 1450.18 599.421 1445.6 Q596.366 1440.99 596.366 1432.26 Q596.366 1423.51 599.421 1418.93 Q602.5 1414.32 608.31 1414.32 Z" fill="#000000" fill-rule="evenodd" fill-opacity="1" /><path clip-path="url(#clip100)" d="M839.347 1418.03 Q835.736 1418.03 833.908 1421.59 Q832.102 1425.13 832.102 1432.26 Q832.102 1439.37 833.908 1442.93 Q835.736 1446.48 839.347 1446.48 Q842.982 1446.48 844.787 1442.93 Q846.616 1439.37 846.616 1432.26 Q846.616 1425.13 844.787 1421.59 Q842.982 1418.03 839.347 1418.03 M839.347 1414.32 Q845.157 1414.32 848.213 1418.93 Q851.292 1423.51 851.292 1432.26 Q851.292 1440.99 848.213 1445.6 Q845.157 1450.18 839.347 1450.18 Q833.537 1450.18 830.458 1445.6 Q827.403 1440.99 827.403 1432.26 Q827.403 1423.51 830.458 1418.93 Q833.537 1414.32 839.347 1414.32 Z" fill="#000000" fill-rule="evenodd" fill-opacity="1" /><path clip-path="url(#clip100)" d="M872.356 1419.02 L860.551 1437.47 L872.356 1437.47 L872.356 1419.02 M871.13 1414.95 L877.009 1414.95 L877.009 1437.47 L881.94 1437.47 L881.94 1441.36 L877.009 1441.36 L877.009 1449.51 L872.356 1449.51 L872.356 1441.36 L856.755 1441.36 L856.755 1436.85 L871.13 1414.95 Z" fill="#000000" fill-rule="evenodd" fill-opacity="1" /><path clip-path="url(#clip100)" d="M890.157 1443.63 L895.041 1443.63 L895.041 1449.51 L890.157 1449.51 L890.157 1443.63 M890.157 1424.99 L895.041 1424.99 L895.041 1430.87 L890.157 1430.87 L890.157 1424.99 Z" fill="#000000" fill-rule="evenodd" fill-opacity="1" /><path clip-path="url(#clip100)" d="M915.643 1418.03 Q912.032 1418.03 910.203 1421.59 Q908.398 1425.13 908.398 1432.26 Q908.398 1439.37 910.203 1442.93 Q912.032 1446.48 915.643 1446.48 Q919.277 1446.48 921.083 1442.93 Q922.912 1439.37 922.912 1432.26 Q922.912 1425.13 921.083 1421.59 Q919.277 1418.03 915.643 1418.03 M915.643 1414.32 Q921.453 1414.32 924.509 1418.93 Q927.588 1423.51 927.588 1432.26 Q927.588 1440.99 924.509 1445.6 Q921.453 1450.18 915.643 1450.18 Q909.833 1450.18 906.754 1445.6 Q903.699 1440.99 903.699 1432.26 Q903.699 1423.51 906.754 1418.93 Q909.833 1414.32 915.643 1414.32 Z" fill="#000000" fill-rule="evenodd" fill-opacity="1" /><path clip-path="url(#clip100)" d="M945.805 1418.03 Q942.194 1418.03 940.365 1421.59 Q938.56 1425.13 938.56 1432.26 Q938.56 1439.37 940.365 1442.93 Q942.194 1446.48 945.805 1446.48 Q949.439 1446.48 951.245 1442.93 Q953.074 1439.37 953.074 1432.26 Q953.074 1425.13 951.245 1421.59 Q949.439 1418.03 945.805 1418.03 M945.805 1414.32 Q951.615 1414.32 954.671 1418.93 Q957.749 1423.51 957.749 1432.26 Q957.749 1440.99 954.671 1445.6 Q951.615 1450.18 945.805 1450.18 Q939.995 1450.18 936.916 1445.6 Q933.861 1440.99 933.861 1432.26 Q933.861 1423.51 936.916 1418.93 Q939.995 1414.32 945.805 1414.32 Z" fill="#000000" fill-rule="evenodd" fill-opacity="1" /><path clip-path="url(#clip100)" d="M966.453 1443.63 L971.337 1443.63 L971.337 1449.51 L966.453 1449.51 L966.453 1443.63 M966.453 1424.99 L971.337 1424.99 L971.337 1430.87 L966.453 1430.87 L966.453 1424.99 Z" fill="#000000" fill-rule="evenodd" fill-opacity="1" /><path clip-path="url(#clip100)" d="M991.939 1418.03 Q988.328 1418.03 986.499 1421.59 Q984.694 1425.13 984.694 1432.26 Q984.694 1439.37 986.499 1442.93 Q988.328 1446.48 991.939 1446.48 Q995.573 1446.48 997.379 1442.93 Q999.208 1439.37 999.208 1432.26 Q999.208 1425.13 997.379 1421.59 Q995.573 1418.03 991.939 1418.03 M991.939 1414.32 Q997.749 1414.32 1000.8 1418.93 Q1003.88 1423.51 1003.88 1432.26 Q1003.88 1440.99 1000.8 1445.6 Q997.749 1450.18 991.939 1450.18 Q986.129 1450.18 983.05 1445.6 Q979.995 1440.99 979.995 1432.26 Q979.995 1423.51 983.05 1418.93 Q986.129 1414.32 991.939 1414.32 Z" fill="#000000" fill-rule="evenodd" fill-opacity="1" /><path clip-path="url(#clip100)" d="M1022.1 1418.03 Q1018.49 1418.03 1016.66 1421.59 Q1014.86 1425.13 1014.86 1432.26 Q1014.86 1439.37 1016.66 1442.93 Q1018.49 1446.48 1022.1 1446.48 Q1025.74 1446.48 1027.54 1442.93 Q1029.37 1439.37 1029.37 1432.26 Q1029.37 1425.13 1027.54 1421.59 Q1025.74 1418.03 1022.1 1418.03 M1022.1 1414.32 Q1027.91 1414.32 1030.97 1418.93 Q1034.05 1423.51 1034.05 1432.26 Q1034.05 1440.99 1030.97 1445.6 Q1027.91 1450.18 1022.1 1450.18 Q1016.29 1450.18 1013.21 1445.6 Q1010.16 1440.99 1010.16 1432.26 Q1010.16 1423.51 1013.21 1418.93 Q1016.29 1414.32 1022.1 1414.32 Z" fill="#000000" fill-rule="evenodd" fill-opacity="1" /><path clip-path="url(#clip100)" d="M1253.14 1418.03 Q1249.53 1418.03 1247.7 1421.59 Q1245.89 1425.13 1245.89 1432.26 Q1245.89 1439.37 1247.7 1442.93 Q1249.53 1446.48 1253.14 1446.48 Q1256.77 1446.48 1258.58 1442.93 Q1260.41 1439.37 1260.41 1432.26 Q1260.41 1425.13 1258.58 1421.59 Q1256.77 1418.03 1253.14 1418.03 M1253.14 1414.32 Q1258.95 1414.32 1262 1418.93 Q1265.08 1423.51 1265.08 1432.26 Q1265.08 1440.99 1262 1445.6 Q1258.95 1450.18 1253.14 1450.18 Q1247.33 1450.18 1244.25 1445.6 Q1241.19 1440.99 1241.19 1432.26 Q1241.19 1423.51 1244.25 1418.93 Q1247.33 1414.32 1253.14 1414.32 Z" fill="#000000" fill-rule="evenodd" fill-opacity="1" /><path clip-path="url(#clip100)" d="M1283.3 1433.1 Q1279.97 1433.1 1278.05 1434.88 Q1276.15 1436.66 1276.15 1439.79 Q1276.15 1442.91 1278.05 1444.69 Q1279.97 1446.48 1283.3 1446.48 Q1286.63 1446.48 1288.55 1444.69 Q1290.48 1442.89 1290.48 1439.79 Q1290.48 1436.66 1288.55 1434.88 Q1286.66 1433.1 1283.3 1433.1 M1278.62 1431.11 Q1275.61 1430.36 1273.92 1428.3 Q1272.26 1426.24 1272.26 1423.28 Q1272.26 1419.14 1275.2 1416.73 Q1278.16 1414.32 1283.3 1414.32 Q1288.46 1414.32 1291.4 1416.73 Q1294.34 1419.14 1294.34 1423.28 Q1294.34 1426.24 1292.65 1428.3 Q1290.98 1430.36 1288 1431.11 Q1291.38 1431.89 1293.25 1434.18 Q1295.15 1436.48 1295.15 1439.79 Q1295.15 1444.81 1292.07 1447.49 Q1289.02 1450.18 1283.3 1450.18 Q1277.58 1450.18 1274.5 1447.49 Q1271.45 1444.81 1271.45 1439.79 Q1271.45 1436.48 1273.35 1434.18 Q1275.24 1431.89 1278.62 1431.11 M1276.91 1423.72 Q1276.91 1426.41 1278.58 1427.91 Q1280.27 1429.42 1283.3 1429.42 Q1286.31 1429.42 1288 1427.91 Q1289.71 1426.41 1289.71 1423.72 Q1289.71 1421.04 1288 1419.53 Q1286.31 1418.03 1283.3 1418.03 Q1280.27 1418.03 1278.58 1419.53 Q1276.91 1421.04 1276.91 1423.72 Z" fill="#000000" fill-rule="evenodd" fill-opacity="1" /><path clip-path="url(#clip100)" d="M1303.95 1443.63 L1308.83 1443.63 L1308.83 1449.51 L1303.95 1449.51 L1303.95 1443.63 M1303.95 1424.99 L1308.83 1424.99 L1308.83 1430.87 L1303.95 1430.87 L1303.95 1424.99 Z" fill="#000000" fill-rule="evenodd" fill-opacity="1" /><path clip-path="url(#clip100)" d="M1329.43 1418.03 Q1325.82 1418.03 1323.99 1421.59 Q1322.19 1425.13 1322.19 1432.26 Q1322.19 1439.37 1323.99 1442.93 Q1325.82 1446.48 1329.43 1446.48 Q1333.07 1446.48 1334.87 1442.93 Q1336.7 1439.37 1336.7 1432.26 Q1336.7 1425.13 1334.87 1421.59 Q1333.07 1418.03 1329.43 1418.03 M1329.43 1414.32 Q1335.24 1414.32 1338.3 1418.93 Q1341.38 1423.51 1341.38 1432.26 Q1341.38 1440.99 1338.3 1445.6 Q1335.24 1450.18 1329.43 1450.18 Q1323.62 1450.18 1320.55 1445.6 Q1317.49 1440.99 1317.49 1432.26 Q1317.49 1423.51 1320.55 1418.93 Q1323.62 1414.32 1329.43 1414.32 Z" fill="#000000" fill-rule="evenodd" fill-opacity="1" /><path clip-path="url(#clip100)" d="M1359.6 1418.03 Q1355.98 1418.03 1354.16 1421.59 Q1352.35 1425.13 1352.35 1432.26 Q1352.35 1439.37 1354.16 1442.93 Q1355.98 1446.48 1359.6 1446.48 Q1363.23 1446.48 1365.04 1442.93 Q1366.86 1439.37 1366.86 1432.26 Q1366.86 1425.13 1365.04 1421.59 Q1363.23 1418.03 1359.6 1418.03 M1359.6 1414.32 Q1365.41 1414.32 1368.46 1418.93 Q1371.54 1423.51 1371.54 1432.26 Q1371.54 1440.99 1368.46 1445.6 Q1365.41 1450.18 1359.6 1450.18 Q1353.79 1450.18 1350.71 1445.6 Q1347.65 1440.99 1347.65 1432.26 Q1347.65 1423.51 1350.71 1418.93 Q1353.79 1414.32 1359.6 1414.32 Z" fill="#000000" fill-rule="evenodd" fill-opacity="1" /><path clip-path="url(#clip100)" d="M1380.24 1443.63 L1385.13 1443.63 L1385.13 1449.51 L1380.24 1449.51 L1380.24 1443.63 M1380.24 1424.99 L1385.13 1424.99 L1385.13 1430.87 L1380.24 1430.87 L1380.24 1424.99 Z" fill="#000000" fill-rule="evenodd" fill-opacity="1" /><path clip-path="url(#clip100)" d="M1405.73 1418.03 Q1402.12 1418.03 1400.29 1421.59 Q1398.48 1425.13 1398.48 1432.26 Q1398.48 1439.37 1400.29 1442.93 Q1402.12 1446.48 1405.73 1446.48 Q1409.36 1446.48 1411.17 1442.93 Q1413 1439.37 1413 1432.26 Q1413 1425.13 1411.17 1421.59 Q1409.36 1418.03 1405.73 1418.03 M1405.73 1414.32 Q1411.54 1414.32 1414.6 1418.93 Q1417.67 1423.51 1417.67 1432.26 Q1417.67 1440.99 1414.6 1445.6 Q1411.54 1450.18 1405.73 1450.18 Q1399.92 1450.18 1396.84 1445.6 Q1393.79 1440.99 1393.79 1432.26 Q1393.79 1423.51 1396.84 1418.93 Q1399.92 1414.32 1405.73 1414.32 Z" fill="#000000" fill-rule="evenodd" fill-opacity="1" /><path clip-path="url(#clip100)" d="M1435.89 1418.03 Q1432.28 1418.03 1430.45 1421.59 Q1428.65 1425.13 1428.65 1432.26 Q1428.65 1439.37 1430.45 1442.93 Q1432.28 1446.48 1435.89 1446.48 Q1439.53 1446.48 1441.33 1442.93 Q1443.16 1439.37 1443.16 1432.26 Q1443.16 1425.13 1441.33 1421.59 Q1439.53 1418.03 1435.89 1418.03 M1435.89 1414.32 Q1441.7 1414.32 1444.76 1418.93 Q1447.84 1423.51 1447.84 1432.26 Q1447.84 1440.99 1444.76 1445.6 Q1441.7 1450.18 1435.89 1450.18 Q1430.08 1450.18 1427 1445.6 Q1423.95 1440.99 1423.95 1432.26 Q1423.95 1423.51 1427 1418.93 Q1430.08 1414.32 1435.89 1414.32 Z" fill="#000000" fill-rule="evenodd" fill-opacity="1" /><path clip-path="url(#clip100)" d="M1656.7 1445.57 L1664.34 1445.57 L1664.34 1419.21 L1656.03 1420.87 L1656.03 1416.61 L1664.29 1414.95 L1668.97 1414.95 L1668.97 1445.57 L1676.6 1445.57 L1676.6 1449.51 L1656.7 1449.51 L1656.7 1445.57 Z" fill="#000000" fill-rule="evenodd" fill-opacity="1" /><path clip-path="url(#clip100)" d="M1690.08 1445.57 L1706.4 1445.57 L1706.4 1449.51 L1684.45 1449.51 L1684.45 1445.57 Q1687.11 1442.82 1691.7 1438.19 Q1696.3 1433.54 1697.48 1432.19 Q1699.73 1429.67 1700.61 1427.93 Q1701.51 1426.17 1701.51 1424.48 Q1701.51 1421.73 1699.57 1419.99 Q1697.65 1418.26 1694.54 1418.26 Q1692.35 1418.26 1689.89 1419.02 Q1687.46 1419.79 1684.68 1421.34 L1684.68 1416.61 Q1687.51 1415.48 1689.96 1414.9 Q1692.41 1414.32 1694.45 1414.32 Q1699.82 1414.32 1703.02 1417.01 Q1706.21 1419.69 1706.21 1424.18 Q1706.21 1426.31 1705.4 1428.23 Q1704.61 1430.13 1702.51 1432.73 Q1701.93 1433.4 1698.83 1436.61 Q1695.72 1439.81 1690.08 1445.57 Z" fill="#000000" fill-rule="evenodd" fill-opacity="1" /><path clip-path="url(#clip100)" d="M1716.7 1443.63 L1721.58 1443.63 L1721.58 1449.51 L1716.7 1449.51 L1716.7 1443.63 M1716.7 1424.99 L1721.58 1424.99 L1721.58 1430.87 L1716.7 1430.87 L1716.7 1424.99 Z" fill="#000000" fill-rule="evenodd" fill-opacity="1" /><path clip-path="url(#clip100)" d="M1742.18 1418.03 Q1738.57 1418.03 1736.74 1421.59 Q1734.94 1425.13 1734.94 1432.26 Q1734.94 1439.37 1736.74 1442.93 Q1738.57 1446.48 1742.18 1446.48 Q1745.82 1446.48 1747.62 1442.93 Q1749.45 1439.37 1749.45 1432.26 Q1749.45 1425.13 1747.62 1421.59 Q1745.82 1418.03 1742.18 1418.03 M1742.18 1414.32 Q1747.99 1414.32 1751.05 1418.93 Q1754.13 1423.51 1754.13 1432.26 Q1754.13 1440.99 1751.05 1445.6 Q1747.99 1450.18 1742.18 1450.18 Q1736.37 1450.18 1733.29 1445.6 Q1730.24 1440.99 1730.24 1432.26 Q1730.24 1423.51 1733.29 1418.93 Q1736.37 1414.32 1742.18 1414.32 Z" fill="#000000" fill-rule="evenodd" fill-opacity="1" /><path clip-path="url(#clip100)" d="M1772.34 1418.03 Q1768.73 1418.03 1766.9 1421.59 Q1765.1 1425.13 1765.1 1432.26 Q1765.1 1439.37 1766.9 1442.93 Q1768.73 1446.48 1772.34 1446.48 Q1775.98 1446.48 1777.78 1442.93 Q1779.61 1439.37 1779.61 1432.26 Q1779.61 1425.13 1777.78 1421.59 Q1775.98 1418.03 1772.34 1418.03 M1772.34 1414.32 Q1778.15 1414.32 1781.21 1418.93 Q1784.29 1423.51 1784.29 1432.26 Q1784.29 1440.99 1781.21 1445.6 Q1778.15 1450.18 1772.34 1450.18 Q1766.53 1450.18 1763.46 1445.6 Q1760.4 1440.99 1760.4 1432.26 Q1760.4 1423.51 1763.46 1418.93 Q1766.53 1414.32 1772.34 1414.32 Z" fill="#000000" fill-rule="evenodd" fill-opacity="1" /><path clip-path="url(#clip100)" d="M1792.99 1443.63 L1797.88 1443.63 L1797.88 1449.51 L1792.99 1449.51 L1792.99 1443.63 M1792.99 1424.99 L1797.88 1424.99 L1797.88 1430.87 L1792.99 1430.87 L1792.99 1424.99 Z" fill="#000000" fill-rule="evenodd" fill-opacity="1" /><path clip-path="url(#clip100)" d="M1818.48 1418.03 Q1814.87 1418.03 1813.04 1421.59 Q1811.23 1425.13 1811.23 1432.26 Q1811.23 1439.37 1813.04 1442.93 Q1814.87 1446.48 1818.48 1446.48 Q1822.11 1446.48 1823.92 1442.93 Q1825.75 1439.37 1825.75 1432.26 Q1825.75 1425.13 1823.92 1421.59 Q1822.11 1418.03 1818.48 1418.03 M1818.48 1414.32 Q1824.29 1414.32 1827.34 1418.93 Q1830.42 1423.51 1830.42 1432.26 Q1830.42 1440.99 1827.34 1445.6 Q1824.29 1450.18 1818.48 1450.18 Q1812.67 1450.18 1809.59 1445.6 Q1806.53 1440.99 1806.53 1432.26 Q1806.53 1423.51 1809.59 1418.93 Q1812.67 1414.32 1818.48 1414.32 Z" fill="#000000" fill-rule="evenodd" fill-opacity="1" /><path clip-path="url(#clip100)" d="M1848.64 1418.03 Q1845.03 1418.03 1843.2 1421.59 Q1841.4 1425.13 1841.4 1432.26 Q1841.4 1439.37 1843.2 1442.93 Q1845.03 1446.48 1848.64 1446.48 Q1852.27 1446.48 1854.08 1442.93 Q1855.91 1439.37 1855.91 1432.26 Q1855.91 1425.13 1854.08 1421.59 Q1852.27 1418.03 1848.64 1418.03 M1848.64 1414.32 Q1854.45 1414.32 1857.51 1418.93 Q1860.58 1423.51 1860.58 1432.26 Q1860.58 1440.99 1857.51 1445.6 Q1854.45 1450.18 1848.64 1450.18 Q1842.83 1450.18 1839.75 1445.6 Q1836.7 1440.99 1836.7 1432.26 Q1836.7 1423.51 1839.75 1418.93 Q1842.83 1414.32 1848.64 1414.32 Z" fill="#000000" fill-rule="evenodd" fill-opacity="1" /><path clip-path="url(#clip100)" d="M2070.49 1445.57 L2078.13 1445.57 L2078.13 1419.21 L2069.82 1420.87 L2069.82 1416.61 L2078.08 1414.95 L2082.76 1414.95 L2082.76 1445.57 L2090.4 1445.57 L2090.4 1449.51 L2070.49 1449.51 L2070.49 1445.57 Z" fill="#000000" fill-rule="evenodd" fill-opacity="1" /><path clip-path="url(#clip100)" d="M2110.42 1430.36 Q2107.27 1430.36 2105.42 1432.52 Q2103.59 1434.67 2103.59 1438.42 Q2103.59 1442.15 2105.42 1444.32 Q2107.27 1446.48 2110.42 1446.48 Q2113.57 1446.48 2115.4 1444.32 Q2117.25 1442.15 2117.25 1438.42 Q2117.25 1434.67 2115.4 1432.52 Q2113.57 1430.36 2110.42 1430.36 M2119.7 1415.71 L2119.7 1419.97 Q2117.94 1419.14 2116.14 1418.7 Q2114.35 1418.26 2112.59 1418.26 Q2107.96 1418.26 2105.51 1421.38 Q2103.08 1424.51 2102.73 1430.83 Q2104.1 1428.81 2106.16 1427.75 Q2108.22 1426.66 2110.7 1426.66 Q2115.9 1426.66 2118.91 1429.83 Q2121.95 1432.98 2121.95 1438.42 Q2121.95 1443.74 2118.8 1446.96 Q2115.65 1450.18 2110.42 1450.18 Q2104.42 1450.18 2101.25 1445.6 Q2098.08 1440.99 2098.08 1432.26 Q2098.08 1424.07 2101.97 1419.21 Q2105.86 1414.32 2112.41 1414.32 Q2114.17 1414.32 2115.95 1414.67 Q2117.76 1415.02 2119.7 1415.71 Z" fill="#000000" fill-rule="evenodd" fill-opacity="1" /><path clip-path="url(#clip100)" d="M2130.49 1443.63 L2135.37 1443.63 L2135.37 1449.51 L2130.49 1449.51 L2130.49 1443.63 M2130.49 1424.99 L2135.37 1424.99 L2135.37 1430.87 L2130.49 1430.87 L2130.49 1424.99 Z" fill="#000000" fill-rule="evenodd" fill-opacity="1" /><path clip-path="url(#clip100)" d="M2155.97 1418.03 Q2152.36 1418.03 2150.53 1421.59 Q2148.73 1425.13 2148.73 1432.26 Q2148.73 1439.37 2150.53 1442.93 Q2152.36 1446.48 2155.97 1446.48 Q2159.61 1446.48 2161.41 1442.93 Q2163.24 1439.37 2163.24 1432.26 Q2163.24 1425.13 2161.41 1421.59 Q2159.61 1418.03 2155.97 1418.03 M2155.97 1414.32 Q2161.78 1414.32 2164.84 1418.93 Q2167.92 1423.51 2167.92 1432.26 Q2167.92 1440.99 2164.84 1445.6 Q2161.78 1450.18 2155.97 1450.18 Q2150.16 1450.18 2147.08 1445.6 Q2144.03 1440.99 2144.03 1432.26 Q2144.03 1423.51 2147.08 1418.93 Q2150.16 1414.32 2155.97 1414.32 Z" fill="#000000" fill-rule="evenodd" fill-opacity="1" /><path clip-path="url(#clip100)" d="M2186.14 1418.03 Q2182.52 1418.03 2180.7 1421.59 Q2178.89 1425.13 2178.89 1432.26 Q2178.89 1439.37 2180.7 1442.93 Q2182.52 1446.48 2186.14 1446.48 Q2189.77 1446.48 2191.58 1442.93 Q2193.4 1439.37 2193.4 1432.26 Q2193.4 1425.13 2191.58 1421.59 Q2189.77 1418.03 2186.14 1418.03 M2186.14 1414.32 Q2191.95 1414.32 2195 1418.93 Q2198.08 1423.51 2198.08 1432.26 Q2198.08 1440.99 2195 1445.6 Q2191.95 1450.18 2186.14 1450.18 Q2180.33 1450.18 2177.25 1445.6 Q2174.19 1440.99 2174.19 1432.26 Q2174.19 1423.51 2177.25 1418.93 Q2180.33 1414.32 2186.14 1414.32 Z" fill="#000000" fill-rule="evenodd" fill-opacity="1" /><path clip-path="url(#clip100)" d="M2206.78 1443.63 L2211.67 1443.63 L2211.67 1449.51 L2206.78 1449.51 L2206.78 1443.63 M2206.78 1424.99 L2211.67 1424.99 L2211.67 1430.87 L2206.78 1430.87 L2206.78 1424.99 Z" fill="#000000" fill-rule="evenodd" fill-opacity="1" /><path clip-path="url(#clip100)" d="M2232.27 1418.03 Q2228.66 1418.03 2226.83 1421.59 Q2225.02 1425.13 2225.02 1432.26 Q2225.02 1439.37 2226.83 1442.93 Q2228.66 1446.48 2232.27 1446.48 Q2235.9 1446.48 2237.71 1442.93 Q2239.54 1439.37 2239.54 1432.26 Q2239.54 1425.13 2237.71 1421.59 Q2235.9 1418.03 2232.27 1418.03 M2232.27 1414.32 Q2238.08 1414.32 2241.14 1418.93 Q2244.21 1423.51 2244.21 1432.26 Q2244.21 1440.99 2241.14 1445.6 Q2238.08 1450.18 2232.27 1450.18 Q2226.46 1450.18 2223.38 1445.6 Q2220.33 1440.99 2220.33 1432.26 Q2220.33 1423.51 2223.38 1418.93 Q2226.46 1414.32 2232.27 1414.32 Z" fill="#000000" fill-rule="evenodd" fill-opacity="1" /><path clip-path="url(#clip100)" d="M2262.43 1418.03 Q2258.82 1418.03 2256.99 1421.59 Q2255.19 1425.13 2255.19 1432.26 Q2255.19 1439.37 2256.99 1442.93 Q2258.82 1446.48 2262.43 1446.48 Q2266.07 1446.48 2267.87 1442.93 Q2269.7 1439.37 2269.7 1432.26 Q2269.7 1425.13 2267.87 1421.59 Q2266.07 1418.03 2262.43 1418.03 M2262.43 1414.32 Q2268.24 1414.32 2271.3 1418.93 Q2274.38 1423.51 2274.38 1432.26 Q2274.38 1440.99 2271.3 1445.6 Q2268.24 1450.18 2262.43 1450.18 Q2256.62 1450.18 2253.54 1445.6 Q2250.49 1440.99 2250.49 1432.26 Q2250.49 1423.51 2253.54 1418.93 Q2256.62 1414.32 2262.43 1414.32 Z" fill="#000000" fill-rule="evenodd" fill-opacity="1" /><path clip-path="url(#clip100)" d="M2488.36 1445.57 L2504.68 1445.57 L2504.68 1449.51 L2482.74 1449.51 L2482.74 1445.57 Q2485.4 1442.82 2489.98 1438.19 Q2494.59 1433.54 2495.77 1432.19 Q2498.02 1429.67 2498.9 1427.93 Q2499.8 1426.17 2499.8 1424.48 Q2499.8 1421.73 2497.85 1419.99 Q2495.93 1418.26 2492.83 1418.26 Q2490.63 1418.26 2488.18 1419.02 Q2485.75 1419.79 2482.97 1421.34 L2482.97 1416.61 Q2485.79 1415.48 2488.25 1414.9 Q2490.7 1414.32 2492.74 1414.32 Q2498.11 1414.32 2501.3 1417.01 Q2504.5 1419.69 2504.5 1424.18 Q2504.5 1426.31 2503.69 1428.23 Q2502.9 1430.13 2500.79 1432.73 Q2500.22 1433.4 2497.11 1436.61 Q2494.01 1439.81 2488.36 1445.57 Z" fill="#000000" fill-rule="evenodd" fill-opacity="1" /><path clip-path="url(#clip100)" d="M2524.5 1418.03 Q2520.89 1418.03 2519.06 1421.59 Q2517.25 1425.13 2517.25 1432.26 Q2517.25 1439.37 2519.06 1442.93 Q2520.89 1446.48 2524.5 1446.48 Q2528.13 1446.48 2529.94 1442.93 Q2531.77 1439.37 2531.77 1432.26 Q2531.77 1425.13 2529.94 1421.59 Q2528.13 1418.03 2524.5 1418.03 M2524.5 1414.32 Q2530.31 1414.32 2533.36 1418.93 Q2536.44 1423.51 2536.44 1432.26 Q2536.44 1440.99 2533.36 1445.6 Q2530.31 1450.18 2524.5 1450.18 Q2518.69 1450.18 2515.61 1445.6 Q2512.55 1440.99 2512.55 1432.26 Q2512.55 1423.51 2515.61 1418.93 Q2518.69 1414.32 2524.5 1414.32 Z" fill="#000000" fill-rule="evenodd" fill-opacity="1" /><path clip-path="url(#clip100)" d="M2545.15 1443.63 L2550.03 1443.63 L2550.03 1449.51 L2545.15 1449.51 L2545.15 1443.63 M2545.15 1424.99 L2550.03 1424.99 L2550.03 1430.87 L2545.15 1430.87 L2545.15 1424.99 Z" fill="#000000" fill-rule="evenodd" fill-opacity="1" /><path clip-path="url(#clip100)" d="M2570.63 1418.03 Q2567.02 1418.03 2565.19 1421.59 Q2563.39 1425.13 2563.39 1432.26 Q2563.39 1439.37 2565.19 1442.93 Q2567.02 1446.48 2570.63 1446.48 Q2574.27 1446.48 2576.07 1442.93 Q2577.9 1439.37 2577.9 1432.26 Q2577.9 1425.13 2576.07 1421.59 Q2574.27 1418.03 2570.63 1418.03 M2570.63 1414.32 Q2576.44 1414.32 2579.5 1418.93 Q2582.58 1423.51 2582.58 1432.26 Q2582.58 1440.99 2579.5 1445.6 Q2576.44 1450.18 2570.63 1450.18 Q2564.82 1450.18 2561.74 1445.6 Q2558.69 1440.99 2558.69 1432.26 Q2558.69 1423.51 2561.74 1418.93 Q2564.82 1414.32 2570.63 1414.32 Z" fill="#000000" fill-rule="evenodd" fill-opacity="1" /><path clip-path="url(#clip100)" d="M2600.79 1418.03 Q2597.18 1418.03 2595.35 1421.59 Q2593.55 1425.13 2593.55 1432.26 Q2593.55 1439.37 2595.35 1442.93 Q2597.18 1446.48 2600.79 1446.48 Q2604.43 1446.48 2606.23 1442.93 Q2608.06 1439.37 2608.06 1432.26 Q2608.06 1425.13 2606.23 1421.59 Q2604.43 1418.03 2600.79 1418.03 M2600.79 1414.32 Q2606.6 1414.32 2609.66 1418.93 Q2612.74 1423.51 2612.74 1432.26 Q2612.74 1440.99 2609.66 1445.6 Q2606.6 1450.18 2600.79 1450.18 Q2594.98 1450.18 2591.91 1445.6 Q2588.85 1440.99 2588.85 1432.26 Q2588.85 1423.51 2591.91 1418.93 Q2594.98 1414.32 2600.79 1414.32 Z" fill="#000000" fill-rule="evenodd" fill-opacity="1" /><path clip-path="url(#clip100)" d="M2621.44 1443.63 L2626.33 1443.63 L2626.33 1449.51 L2621.44 1449.51 L2621.44 1443.63 M2621.44 1424.99 L2626.33 1424.99 L2626.33 1430.87 L2621.44 1430.87 L2621.44 1424.99 Z" fill="#000000" fill-rule="evenodd" fill-opacity="1" /><path clip-path="url(#clip100)" d="M2646.93 1418.03 Q2643.32 1418.03 2641.49 1421.59 Q2639.68 1425.13 2639.68 1432.26 Q2639.68 1439.37 2641.49 1442.93 Q2643.32 1446.48 2646.93 1446.48 Q2650.56 1446.48 2652.37 1442.93 Q2654.2 1439.37 2654.2 1432.26 Q2654.2 1425.13 2652.37 1421.59 Q2650.56 1418.03 2646.93 1418.03 M2646.93 1414.32 Q2652.74 1414.32 2655.79 1418.93 Q2658.87 1423.51 2658.87 1432.26 Q2658.87 1440.99 2655.79 1445.6 Q2652.74 1450.18 2646.93 1450.18 Q2641.12 1450.18 2638.04 1445.6 Q2634.98 1440.99 2634.98 1432.26 Q2634.98 1423.51 2638.04 1418.93 Q2641.12 1414.32 2646.93 1414.32 Z" fill="#000000" fill-rule="evenodd" fill-opacity="1" /><path clip-path="url(#clip100)" d="M2677.09 1418.03 Q2673.48 1418.03 2671.65 1421.59 Q2669.84 1425.13 2669.84 1432.26 Q2669.84 1439.37 2671.65 1442.93 Q2673.48 1446.48 2677.09 1446.48 Q2680.72 1446.48 2682.53 1442.93 Q2684.36 1439.37 2684.36 1432.26 Q2684.36 1425.13 2682.53 1421.59 Q2680.72 1418.03 2677.09 1418.03 M2677.09 1414.32 Q2682.9 1414.32 2685.96 1418.93 Q2689.03 1423.51 2689.03 1432.26 Q2689.03 1440.99 2685.96 1445.6 Q2682.9 1450.18 2677.09 1450.18 Q2671.28 1450.18 2668.2 1445.6 Q2665.15 1440.99 2665.15 1432.26 Q2665.15 1423.51 2668.2 1418.93 Q2671.28 1414.32 2677.09 1414.32 Z" fill="#000000" fill-rule="evenodd" fill-opacity="1" /><path clip-path="url(#clip100)" d="M1631.28 1490.05 L1637.7 1490.05 L1637.7 1509.53 L1661.07 1509.53 L1661.07 1490.05 L1667.5 1490.05 L1667.5 1537.57 L1661.07 1537.57 L1661.07 1514.94 L1637.7 1514.94 L1637.7 1537.57 L1631.28 1537.57 L1631.28 1490.05 Z" fill="#000000" fill-rule="evenodd" fill-opacity="1" /><path clip-path="url(#clip100)" d="M1693.85 1506.03 Q1689.14 1506.03 1686.4 1509.72 Q1683.67 1513.38 1683.67 1519.78 Q1683.67 1526.18 1686.37 1529.87 Q1689.11 1533.53 1693.85 1533.53 Q1698.53 1533.53 1701.27 1529.84 Q1704 1526.15 1704 1519.78 Q1704 1513.45 1701.27 1509.75 Q1698.53 1506.03 1693.85 1506.03 M1693.85 1501.06 Q1701.49 1501.06 1705.85 1506.03 Q1710.21 1510.99 1710.21 1519.78 Q1710.21 1528.53 1705.85 1533.53 Q1701.49 1538.49 1693.85 1538.49 Q1686.18 1538.49 1681.82 1533.53 Q1677.49 1528.53 1677.49 1519.78 Q1677.49 1510.99 1681.82 1506.03 Q1686.18 1501.06 1693.85 1501.06 Z" fill="#000000" fill-rule="evenodd" fill-opacity="1" /><path clip-path="url(#clip100)" d="M1719.31 1523.5 L1719.31 1501.92 L1725.17 1501.92 L1725.17 1523.28 Q1725.17 1528.34 1727.14 1530.89 Q1729.12 1533.4 1733.06 1533.4 Q1737.81 1533.4 1740.54 1530.38 Q1743.31 1527.35 1743.31 1522.13 L1743.31 1501.92 L1749.17 1501.92 L1749.17 1537.57 L1743.31 1537.57 L1743.31 1532.1 Q1741.18 1535.34 1738.35 1536.94 Q1735.55 1538.49 1731.82 1538.49 Q1725.68 1538.49 1722.5 1534.68 Q1719.31 1530.86 1719.31 1523.5 M1734.05 1501.06 L1734.05 1501.06 Z" fill="#000000" fill-rule="evenodd" fill-opacity="1" /><path clip-path="url(#clip100)" d="M1781.89 1507.4 Q1780.9 1506.83 1779.72 1506.57 Q1778.58 1506.28 1777.18 1506.28 Q1772.21 1506.28 1769.54 1509.53 Q1766.9 1512.75 1766.9 1518.79 L1766.9 1537.57 L1761.01 1537.57 L1761.01 1501.92 L1766.9 1501.92 L1766.9 1507.46 Q1768.74 1504.22 1771.7 1502.66 Q1774.66 1501.06 1778.9 1501.06 Q1779.5 1501.06 1780.23 1501.16 Q1780.96 1501.22 1781.86 1501.38 L1781.89 1507.4 Z" fill="#000000" fill-rule="evenodd" fill-opacity="1" /><polyline clip-path="url(#clip102)" style="stroke:#000000; stroke-linecap:round; stroke-linejoin:round; stroke-width:2; stroke-opacity:0.1; fill:none" points="
  323.399,1344.75 3089.76,1344.75 
  "/>
<polyline clip-path="url(#clip102)" style="stroke:#000000; stroke-linecap:round; stroke-linejoin:round; stroke-width:2; stroke-opacity:0.1; fill:none" points="
  323.399,1034.56 3089.76,1034.56 
  "/>
<polyline clip-path="url(#clip102)" style="stroke:#000000; stroke-linecap:round; stroke-linejoin:round; stroke-width:2; stroke-opacity:0.1; fill:none" points="
  323.399,724.367 3089.76,724.367 
  "/>
<polyline clip-path="url(#clip102)" style="stroke:#000000; stroke-linecap:round; stroke-linejoin:round; stroke-width:2; stroke-opacity:0.1; fill:none" points="
  323.399,414.175 3089.76,414.175 
  "/>
<polyline clip-path="url(#clip100)" style="stroke:#000000; stroke-linecap:round; stroke-linejoin:round; stroke-width:4; stroke-opacity:1; fill:none" points="
  323.399,1380.71 323.399,110.236 
  "/>
<polyline clip-path="url(#clip100)" style="stroke:#000000; stroke-linecap:round; stroke-linejoin:round; stroke-width:4; stroke-opacity:1; fill:none" points="
  323.399,1344.75 342.297,1344.75 
  "/>
<polyline clip-path="url(#clip100)" style="stroke:#000000; stroke-linecap:round; stroke-linejoin:round; stroke-width:4; stroke-opacity:1; fill:none" points="
  323.399,1034.56 342.297,1034.56 
  "/>
<polyline clip-path="url(#clip100)" style="stroke:#000000; stroke-linecap:round; stroke-linejoin:round; stroke-width:4; stroke-opacity:1; fill:none" points="
  323.399,724.367 342.297,724.367 
  "/>
<polyline clip-path="url(#clip100)" style="stroke:#000000; stroke-linecap:round; stroke-linejoin:round; stroke-width:4; stroke-opacity:1; fill:none" points="
  323.399,414.175 342.297,414.175 
  "/>
<path clip-path="url(#clip100)" d="M263.455 1330.55 Q259.844 1330.55 258.015 1334.11 Q256.21 1337.66 256.21 1344.79 Q256.21 1351.89 258.015 1355.46 Q259.844 1359 263.455 1359 Q267.089 1359 268.895 1355.46 Q270.724 1351.89 270.724 1344.79 Q270.724 1337.66 268.895 1334.11 Q267.089 1330.55 263.455 1330.55 M263.455 1326.85 Q269.265 1326.85 272.321 1331.45 Q275.399 1336.04 275.399 1344.79 Q275.399 1353.51 272.321 1358.12 Q269.265 1362.7 263.455 1362.7 Q257.645 1362.7 254.566 1358.12 Q251.511 1353.51 251.511 1344.79 Q251.511 1336.04 254.566 1331.45 Q257.645 1326.85 263.455 1326.85 Z" fill="#000000" fill-rule="evenodd" fill-opacity="1" /><path clip-path="url(#clip100)" d="M163.78 1047.9 L171.419 1047.9 L171.419 1021.54 L163.108 1023.2 L163.108 1018.95 L171.372 1017.28 L176.048 1017.28 L176.048 1047.9 L183.687 1047.9 L183.687 1051.84 L163.78 1051.84 L163.78 1047.9 Z" fill="#000000" fill-rule="evenodd" fill-opacity="1" /><path clip-path="url(#clip100)" d="M203.131 1020.36 Q199.52 1020.36 197.692 1023.92 Q195.886 1027.46 195.886 1034.59 Q195.886 1041.7 197.692 1045.26 Q199.52 1048.81 203.131 1048.81 Q206.766 1048.81 208.571 1045.26 Q210.4 1041.7 210.4 1034.59 Q210.4 1027.46 208.571 1023.92 Q206.766 1020.36 203.131 1020.36 M203.131 1016.65 Q208.941 1016.65 211.997 1021.26 Q215.076 1025.84 215.076 1034.59 Q215.076 1043.32 211.997 1047.93 Q208.941 1052.51 203.131 1052.51 Q197.321 1052.51 194.242 1047.93 Q191.187 1043.32 191.187 1034.59 Q191.187 1025.84 194.242 1021.26 Q197.321 1016.65 203.131 1016.65 Z" fill="#000000" fill-rule="evenodd" fill-opacity="1" /><path clip-path="url(#clip100)" d="M233.293 1020.36 Q229.682 1020.36 227.853 1023.92 Q226.048 1027.46 226.048 1034.59 Q226.048 1041.7 227.853 1045.26 Q229.682 1048.81 233.293 1048.81 Q236.927 1048.81 238.733 1045.26 Q240.562 1041.7 240.562 1034.59 Q240.562 1027.46 238.733 1023.92 Q236.927 1020.36 233.293 1020.36 M233.293 1016.65 Q239.103 1016.65 242.159 1021.26 Q245.238 1025.84 245.238 1034.59 Q245.238 1043.32 242.159 1047.93 Q239.103 1052.51 233.293 1052.51 Q227.483 1052.51 224.404 1047.93 Q221.349 1043.32 221.349 1034.59 Q221.349 1025.84 224.404 1021.26 Q227.483 1016.65 233.293 1016.65 Z" fill="#000000" fill-rule="evenodd" fill-opacity="1" /><path clip-path="url(#clip100)" d="M263.455 1020.36 Q259.844 1020.36 258.015 1023.92 Q256.21 1027.46 256.21 1034.59 Q256.21 1041.7 258.015 1045.26 Q259.844 1048.81 263.455 1048.81 Q267.089 1048.81 268.895 1045.26 Q270.724 1041.7 270.724 1034.59 Q270.724 1027.46 268.895 1023.92 Q267.089 1020.36 263.455 1020.36 M263.455 1016.65 Q269.265 1016.65 272.321 1021.26 Q275.399 1025.84 275.399 1034.59 Q275.399 1043.32 272.321 1047.93 Q269.265 1052.51 263.455 1052.51 Q257.645 1052.51 254.566 1047.93 Q251.511 1043.32 251.511 1034.59 Q251.511 1025.84 254.566 1021.26 Q257.645 1016.65 263.455 1016.65 Z" fill="#000000" fill-rule="evenodd" fill-opacity="1" /><path clip-path="url(#clip100)" d="M166.997 737.712 L183.317 737.712 L183.317 741.647 L161.372 741.647 L161.372 737.712 Q164.034 734.957 168.618 730.328 Q173.224 725.675 174.405 724.332 Q176.65 721.809 177.53 720.073 Q178.432 718.314 178.432 716.624 Q178.432 713.869 176.488 712.133 Q174.567 710.397 171.465 710.397 Q169.266 710.397 166.812 711.161 Q164.382 711.925 161.604 713.476 L161.604 708.754 Q164.428 707.619 166.882 707.041 Q169.335 706.462 171.372 706.462 Q176.743 706.462 179.937 709.147 Q183.131 711.832 183.131 716.323 Q183.131 718.453 182.321 720.374 Q181.534 722.272 179.428 724.865 Q178.849 725.536 175.747 728.753 Q172.645 731.948 166.997 737.712 Z" fill="#000000" fill-rule="evenodd" fill-opacity="1" /><path clip-path="url(#clip100)" d="M203.131 710.166 Q199.52 710.166 197.692 713.73 Q195.886 717.272 195.886 724.402 Q195.886 731.508 197.692 735.073 Q199.52 738.615 203.131 738.615 Q206.766 738.615 208.571 735.073 Q210.4 731.508 210.4 724.402 Q210.4 717.272 208.571 713.73 Q206.766 710.166 203.131 710.166 M203.131 706.462 Q208.941 706.462 211.997 711.068 Q215.076 715.652 215.076 724.402 Q215.076 733.128 211.997 737.735 Q208.941 742.318 203.131 742.318 Q197.321 742.318 194.242 737.735 Q191.187 733.128 191.187 724.402 Q191.187 715.652 194.242 711.068 Q197.321 706.462 203.131 706.462 Z" fill="#000000" fill-rule="evenodd" fill-opacity="1" /><path clip-path="url(#clip100)" d="M233.293 710.166 Q229.682 710.166 227.853 713.73 Q226.048 717.272 226.048 724.402 Q226.048 731.508 227.853 735.073 Q229.682 738.615 233.293 738.615 Q236.927 738.615 238.733 735.073 Q240.562 731.508 240.562 724.402 Q240.562 717.272 238.733 713.73 Q236.927 710.166 233.293 710.166 M233.293 706.462 Q239.103 706.462 242.159 711.068 Q245.238 715.652 245.238 724.402 Q245.238 733.128 242.159 737.735 Q239.103 742.318 233.293 742.318 Q227.483 742.318 224.404 737.735 Q221.349 733.128 221.349 724.402 Q221.349 715.652 224.404 711.068 Q227.483 706.462 233.293 706.462 Z" fill="#000000" fill-rule="evenodd" fill-opacity="1" /><path clip-path="url(#clip100)" d="M263.455 710.166 Q259.844 710.166 258.015 713.73 Q256.21 717.272 256.21 724.402 Q256.21 731.508 258.015 735.073 Q259.844 738.615 263.455 738.615 Q267.089 738.615 268.895 735.073 Q270.724 731.508 270.724 724.402 Q270.724 717.272 268.895 713.73 Q267.089 710.166 263.455 710.166 M263.455 706.462 Q269.265 706.462 272.321 711.068 Q275.399 715.652 275.399 724.402 Q275.399 733.128 272.321 737.735 Q269.265 742.318 263.455 742.318 Q257.645 742.318 254.566 737.735 Q251.511 733.128 251.511 724.402 Q251.511 715.652 254.566 711.068 Q257.645 706.462 263.455 706.462 Z" fill="#000000" fill-rule="evenodd" fill-opacity="1" /><path clip-path="url(#clip100)" d="M177.136 412.821 Q180.493 413.538 182.368 415.807 Q184.266 418.075 184.266 421.409 Q184.266 426.524 180.747 429.325 Q177.229 432.126 170.747 432.126 Q168.571 432.126 166.257 431.686 Q163.965 431.27 161.511 430.413 L161.511 425.899 Q163.456 427.034 165.77 427.612 Q168.085 428.191 170.608 428.191 Q175.006 428.191 177.298 426.455 Q179.613 424.719 179.613 421.409 Q179.613 418.353 177.46 416.64 Q175.331 414.904 171.511 414.904 L167.483 414.904 L167.483 411.062 L171.696 411.062 Q175.145 411.062 176.974 409.696 Q178.803 408.307 178.803 405.714 Q178.803 403.052 176.905 401.64 Q175.03 400.205 171.511 400.205 Q169.59 400.205 167.391 400.622 Q165.192 401.038 162.553 401.918 L162.553 397.751 Q165.215 397.011 167.53 396.64 Q169.868 396.27 171.928 396.27 Q177.252 396.27 180.354 398.7 Q183.455 401.108 183.455 405.228 Q183.455 408.099 181.812 410.089 Q180.168 412.057 177.136 412.821 Z" fill="#000000" fill-rule="evenodd" fill-opacity="1" /><path clip-path="url(#clip100)" d="M203.131 399.974 Q199.52 399.974 197.692 403.538 Q195.886 407.08 195.886 414.21 Q195.886 421.316 197.692 424.881 Q199.52 428.423 203.131 428.423 Q206.766 428.423 208.571 424.881 Q210.4 421.316 210.4 414.21 Q210.4 407.08 208.571 403.538 Q206.766 399.974 203.131 399.974 M203.131 396.27 Q208.941 396.27 211.997 400.876 Q215.076 405.46 215.076 414.21 Q215.076 422.936 211.997 427.543 Q208.941 432.126 203.131 432.126 Q197.321 432.126 194.242 427.543 Q191.187 422.936 191.187 414.21 Q191.187 405.46 194.242 400.876 Q197.321 396.27 203.131 396.27 Z" fill="#000000" fill-rule="evenodd" fill-opacity="1" /><path clip-path="url(#clip100)" d="M233.293 399.974 Q229.682 399.974 227.853 403.538 Q226.048 407.08 226.048 414.21 Q226.048 421.316 227.853 424.881 Q229.682 428.423 233.293 428.423 Q236.927 428.423 238.733 424.881 Q240.562 421.316 240.562 414.21 Q240.562 407.08 238.733 403.538 Q236.927 399.974 233.293 399.974 M233.293 396.27 Q239.103 396.27 242.159 400.876 Q245.238 405.46 245.238 414.21 Q245.238 422.936 242.159 427.543 Q239.103 432.126 233.293 432.126 Q227.483 432.126 224.404 427.543 Q221.349 422.936 221.349 414.21 Q221.349 405.46 224.404 400.876 Q227.483 396.27 233.293 396.27 Z" fill="#000000" fill-rule="evenodd" fill-opacity="1" /><path clip-path="url(#clip100)" d="M263.455 399.974 Q259.844 399.974 258.015 403.538 Q256.21 407.08 256.21 414.21 Q256.21 421.316 258.015 424.881 Q259.844 428.423 263.455 428.423 Q267.089 428.423 268.895 424.881 Q270.724 421.316 270.724 414.21 Q270.724 407.08 268.895 403.538 Q267.089 399.974 263.455 399.974 M263.455 396.27 Q269.265 396.27 272.321 400.876 Q275.399 405.46 275.399 414.21 Q275.399 422.936 272.321 427.543 Q269.265 432.126 263.455 432.126 Q257.645 432.126 254.566 427.543 Q251.511 422.936 251.511 414.21 Q251.511 405.46 254.566 400.876 Q257.645 396.27 263.455 396.27 Z" fill="#000000" fill-rule="evenodd" fill-opacity="1" /><path clip-path="url(#clip100)" d="M51.5963 1088.98 L51.5963 1080.32 L91.3501 1059.25 L51.5963 1059.25 L51.5963 1053.02 L99.1163 1053.02 L99.1163 1061.67 L59.3624 1082.74 L99.1163 1082.74 L99.1163 1088.98 L51.5963 1088.98 Z" fill="#000000" fill-rule="evenodd" fill-opacity="1" /><path clip-path="url(#clip100)" d="M79.8282 1009.98 L82.6928 1009.98 L82.6928 1036.91 Q88.7402 1036.53 91.923 1033.28 Q95.0741 1030 95.0741 1024.18 Q95.0741 1020.8 94.2465 1017.65 Q93.419 1014.47 91.7639 1011.35 L97.3021 1011.35 Q98.6389 1014.5 99.3391 1017.81 Q100.039 1021.12 100.039 1024.53 Q100.039 1033.06 95.0741 1038.06 Q90.1088 1043.02 81.6424 1043.02 Q72.8896 1043.02 67.7652 1038.31 Q62.609 1033.57 62.609 1025.55 Q62.609 1018.35 67.2559 1014.18 Q71.8711 1009.98 79.8282 1009.98 M78.1095 1015.84 Q73.3033 1015.9 70.4388 1018.54 Q67.5742 1021.15 67.5742 1025.48 Q67.5742 1030.39 70.3433 1033.35 Q73.1124 1036.27 78.1413 1036.72 L78.1095 1015.84 Z" fill="#000000" fill-rule="evenodd" fill-opacity="1" /><path clip-path="url(#clip100)" d="M63.4683 1003.78 L63.4683 997.92 L91.2865 990.599 L63.4683 983.311 L63.4683 976.404 L91.2865 969.083 L63.4683 961.795 L63.4683 955.938 L99.1163 965.264 L99.1163 972.171 L69.8977 979.841 L99.1163 987.544 L99.1163 994.451 L63.4683 1003.78 Z" fill="#000000" fill-rule="evenodd" fill-opacity="1" /><path clip-path="url(#clip100)" d="M81.3241 900.747 Q74.8629 900.747 71.2027 903.421 Q67.5106 906.063 67.5106 910.71 Q67.5106 915.357 71.2027 918.03 Q74.8629 920.672 81.3241 920.672 Q87.7853 920.672 91.4774 918.03 Q95.1377 915.357 95.1377 910.71 Q95.1377 906.063 91.4774 903.421 Q87.7853 900.747 81.3241 900.747 M68.8792 920.672 Q65.6963 918.826 64.1686 916.025 Q62.609 913.192 62.609 909.278 Q62.609 902.784 67.7652 898.742 Q72.9214 894.668 81.3241 894.668 Q89.7269 894.668 94.8831 898.742 Q100.039 902.784 100.039 909.278 Q100.039 913.192 98.5115 916.025 Q96.9519 918.826 93.7691 920.672 L99.1163 920.672 L99.1163 926.56 L49.5911 926.56 L49.5911 920.672 L68.8792 920.672 Z" fill="#000000" fill-rule="evenodd" fill-opacity="1" /><path clip-path="url(#clip100)" d="M63.4683 884.961 L63.4683 879.104 L99.1163 879.104 L99.1163 884.961 L63.4683 884.961 M49.5911 884.961 L49.5911 879.104 L57.0071 879.104 L57.0071 884.961 L49.5911 884.961 Z" fill="#000000" fill-rule="evenodd" fill-opacity="1" /><path clip-path="url(#clip100)" d="M49.5911 867.073 L49.5911 861.185 L78.8415 861.185 L63.4683 843.711 L63.4683 836.231 L80.1465 855.137 L99.1163 835.435 L99.1163 843.074 L81.7061 861.185 L99.1163 861.185 L99.1163 867.073 L49.5911 867.073 Z" fill="#000000" fill-rule="evenodd" fill-opacity="1" /><path clip-path="url(#clip100)" d="M79.8282 800.933 L82.6928 800.933 L82.6928 827.86 Q88.7402 827.478 91.923 824.232 Q95.0741 820.953 95.0741 815.129 Q95.0741 811.755 94.2465 808.604 Q93.419 805.421 91.7639 802.302 L97.3021 802.302 Q98.6389 805.453 99.3391 808.763 Q100.039 812.073 100.039 815.479 Q100.039 824.009 95.0741 829.006 Q90.1088 833.971 81.6424 833.971 Q72.8896 833.971 67.7652 829.261 Q62.609 824.518 62.609 816.497 Q62.609 809.304 67.2559 805.135 Q71.8711 800.933 79.8282 800.933 M78.1095 806.79 Q73.3033 806.853 70.4388 809.495 Q67.5742 812.105 67.5742 816.434 Q67.5742 821.335 70.3433 824.295 Q73.1124 827.224 78.1413 827.669 L78.1095 806.79 Z" fill="#000000" fill-rule="evenodd" fill-opacity="1" /><path clip-path="url(#clip100)" d="M64.5187 747.875 L70.0568 747.875 Q68.7837 750.358 68.1471 753.031 Q67.5106 755.705 67.5106 758.569 Q67.5106 762.93 68.8473 765.126 Q70.1841 767.29 72.8577 767.29 Q74.8948 767.29 76.0724 765.731 Q77.2183 764.171 78.2686 759.461 L78.7142 757.455 Q80.051 751.217 82.5018 748.607 Q84.9208 745.965 89.2813 745.965 Q94.2465 745.965 97.1429 749.912 Q100.039 753.827 100.039 760.702 Q100.039 763.566 99.4664 766.686 Q98.9253 769.773 97.8113 773.211 L91.7639 773.211 Q93.4508 769.964 94.3102 766.813 Q95.1377 763.662 95.1377 760.575 Q95.1377 756.437 93.7373 754.209 Q92.305 751.981 89.7269 751.981 Q87.3397 751.981 86.0666 753.604 Q84.7934 755.196 83.6158 760.638 L83.1384 762.675 Q81.9925 768.118 79.6372 770.537 Q77.2501 772.956 73.1124 772.956 Q68.0835 772.956 65.3462 769.391 Q62.609 765.826 62.609 759.27 Q62.609 756.023 63.0864 753.159 Q63.5638 750.294 64.5187 747.875 Z" fill="#000000" fill-rule="evenodd" fill-opacity="1" /><path clip-path="url(#clip100)" d="M77.6002 707.007 L99.1163 707.007 L99.1163 712.864 L77.7912 712.864 Q72.7304 712.864 70.216 714.837 Q67.7015 716.81 67.7015 720.757 Q67.7015 725.5 70.7252 728.237 Q73.7489 730.974 78.9688 730.974 L99.1163 730.974 L99.1163 736.862 L49.5911 736.862 L49.5911 730.974 L69.0065 730.974 Q65.7918 728.873 64.2004 726.041 Q62.609 723.176 62.609 719.452 Q62.609 713.309 66.4284 710.158 Q70.216 707.007 77.6002 707.007 Z" fill="#000000" fill-rule="evenodd" fill-opacity="1" /><path clip-path="url(#clip100)" d="M81.1968 679.125 Q81.1968 686.223 82.8201 688.96 Q84.4433 691.698 88.3582 691.698 Q91.4774 691.698 93.3235 689.661 Q95.1377 687.592 95.1377 684.059 Q95.1377 679.189 91.7002 676.261 Q88.2309 673.301 82.5018 673.301 L81.1968 673.301 L81.1968 679.125 M78.7779 667.444 L99.1163 667.444 L99.1163 673.301 L93.7054 673.301 Q96.9519 675.306 98.5115 678.298 Q100.039 681.29 100.039 685.618 Q100.039 691.093 96.9838 694.339 Q93.8964 697.554 88.7402 697.554 Q82.7246 697.554 79.669 693.544 Q76.6135 689.501 76.6135 681.513 L76.6135 673.301 L76.0406 673.301 Q71.9984 673.301 69.8022 675.974 Q67.5742 678.616 67.5742 683.422 Q67.5742 686.478 68.3063 689.374 Q69.0383 692.271 70.5024 694.944 L65.0916 694.944 Q63.8503 691.729 63.2455 688.706 Q62.609 685.682 62.609 682.818 Q62.609 675.083 66.6194 671.264 Q70.6297 667.444 78.7779 667.444 Z" fill="#000000" fill-rule="evenodd" fill-opacity="1" /><path clip-path="url(#clip100)" d="M68.9428 634.725 Q68.3699 635.711 68.1153 636.889 Q67.8288 638.035 67.8288 639.435 Q67.8288 644.4 71.0753 647.074 Q74.29 649.716 80.3374 649.716 L99.1163 649.716 L99.1163 655.604 L63.4683 655.604 L63.4683 649.716 L69.0065 649.716 Q65.76 647.87 64.2004 644.91 Q62.609 641.95 62.609 637.716 Q62.609 637.112 62.7044 636.38 Q62.7681 635.648 62.9272 634.756 L68.9428 634.725 Z" fill="#000000" fill-rule="evenodd" fill-opacity="1" /><path clip-path="url(#clip100)" d="M79.8282 599.522 L82.6928 599.522 L82.6928 626.449 Q88.7402 626.067 91.923 622.821 Q95.0741 619.542 95.0741 613.718 Q95.0741 610.344 94.2465 607.193 Q93.419 604.01 91.7639 600.891 L97.3021 600.891 Q98.6389 604.042 99.3391 607.352 Q100.039 610.662 100.039 614.068 Q100.039 622.598 95.0741 627.595 Q90.1088 632.56 81.6424 632.56 Q72.8896 632.56 67.7652 627.85 Q62.609 623.107 62.609 615.086 Q62.609 607.893 67.2559 603.724 Q71.8711 599.522 79.8282 599.522 M78.1095 605.379 Q73.3033 605.442 70.4388 608.084 Q67.5742 610.694 67.5742 615.023 Q67.5742 619.924 70.3433 622.884 Q73.1124 625.813 78.1413 626.258 L78.1095 605.379 Z" fill="#000000" fill-rule="evenodd" fill-opacity="1" /><path clip-path="url(#clip100)" d="M64.837 543.536 L70.3115 543.536 Q68.9428 546.018 68.2744 548.533 Q67.5742 551.016 67.5742 553.562 Q67.5742 559.259 71.2027 562.41 Q74.7993 565.561 81.3241 565.561 Q87.849 565.561 91.4774 562.41 Q95.0741 559.259 95.0741 553.562 Q95.0741 551.016 94.4057 548.533 Q93.7054 546.018 92.3368 543.536 L97.7477 543.536 Q98.8935 545.987 99.4664 548.628 Q100.039 551.238 100.039 554.198 Q100.039 562.251 94.9786 566.993 Q89.9178 571.736 81.3241 571.736 Q72.6031 571.736 67.606 566.962 Q62.609 562.156 62.609 553.816 Q62.609 551.111 63.1819 548.533 Q63.723 545.955 64.837 543.536 Z" fill="#000000" fill-rule="evenodd" fill-opacity="1" /><path clip-path="url(#clip100)" d="M67.5742 519.537 Q67.5742 524.248 71.2663 526.985 Q74.9266 529.722 81.3241 529.722 Q87.7217 529.722 91.4138 527.017 Q95.0741 524.28 95.0741 519.537 Q95.0741 514.858 91.3819 512.121 Q87.6898 509.384 81.3241 509.384 Q74.9903 509.384 71.2981 512.121 Q67.5742 514.858 67.5742 519.537 M62.609 519.537 Q62.609 511.898 67.5742 507.538 Q72.5395 503.177 81.3241 503.177 Q90.077 503.177 95.0741 507.538 Q100.039 511.898 100.039 519.537 Q100.039 527.208 95.0741 531.568 Q90.077 535.897 81.3241 535.897 Q72.5395 535.897 67.5742 531.568 Q62.609 527.208 62.609 519.537 Z" fill="#000000" fill-rule="evenodd" fill-opacity="1" /><path clip-path="url(#clip100)" d="M85.0481 494.074 L63.4683 494.074 L63.4683 488.218 L84.8253 488.218 Q89.886 488.218 92.4323 486.244 Q94.9467 484.271 94.9467 480.324 Q94.9467 475.582 91.923 472.845 Q88.8993 470.076 83.6794 470.076 L63.4683 470.076 L63.4683 464.219 L99.1163 464.219 L99.1163 470.076 L93.6418 470.076 Q96.8883 472.208 98.4797 475.041 Q100.039 477.842 100.039 481.566 Q100.039 487.709 96.2199 490.891 Q92.4005 494.074 85.0481 494.074 M62.609 479.338 L62.609 479.338 Z" fill="#000000" fill-rule="evenodd" fill-opacity="1" /><path clip-path="url(#clip100)" d="M53.3469 446.363 L63.4683 446.363 L63.4683 434.3 L68.0198 434.3 L68.0198 446.363 L87.3716 446.363 Q91.7321 446.363 92.9734 445.186 Q94.2147 443.976 94.2147 440.316 L94.2147 434.3 L99.1163 434.3 L99.1163 440.316 Q99.1163 447.095 96.6018 449.673 Q94.0555 452.252 87.3716 452.252 L68.0198 452.252 L68.0198 456.548 L63.4683 456.548 L63.4683 452.252 L53.3469 452.252 L53.3469 446.363 Z" fill="#000000" fill-rule="evenodd" fill-opacity="1" /><path clip-path="url(#clip100)" d="M64.5187 403.872 L70.0568 403.872 Q68.7837 406.355 68.1471 409.028 Q67.5106 411.702 67.5106 414.567 Q67.5106 418.927 68.8473 421.123 Q70.1841 423.288 72.8577 423.288 Q74.8948 423.288 76.0724 421.728 Q77.2183 420.168 78.2686 415.458 L78.7142 413.453 Q80.051 407.214 82.5018 404.604 Q84.9208 401.963 89.2813 401.963 Q94.2465 401.963 97.1429 405.909 Q100.039 409.824 100.039 416.699 Q100.039 419.564 99.4664 422.683 Q98.9253 425.77 97.8113 429.208 L91.7639 429.208 Q93.4508 425.961 94.3102 422.81 Q95.1377 419.659 95.1377 416.572 Q95.1377 412.434 93.7373 410.206 Q92.305 407.978 89.7269 407.978 Q87.3397 407.978 86.0666 409.601 Q84.7934 411.193 83.6158 416.635 L83.1384 418.673 Q81.9925 424.115 79.6372 426.534 Q77.2501 428.953 73.1124 428.953 Q68.0835 428.953 65.3462 425.388 Q62.609 421.824 62.609 415.267 Q62.609 412.02 63.0864 409.156 Q63.5638 406.291 64.5187 403.872 Z" fill="#000000" fill-rule="evenodd" fill-opacity="1" /><path clip-path="url(#clip102)" d="
M475.554 1277.95 L475.554 1344.75 L558.313 1344.75 L558.313 1277.95 L475.554 1277.95 L475.554 1277.95  Z
  " fill="#009af9" fill-rule="evenodd" fill-opacity="1"/>
<polyline clip-path="url(#clip102)" style="stroke:#000000; stroke-linecap:round; stroke-linejoin:round; stroke-width:4; stroke-opacity:1; fill:none" points="
  475.554,1277.95 475.554,1344.75 558.313,1344.75 558.313,1277.95 475.554,1277.95 
  "/>
<path clip-path="url(#clip102)" d="
M579.002 1305.05 L579.002 1344.75 L661.76 1344.75 L661.76 1305.05 L579.002 1305.05 L579.002 1305.05  Z
  " fill="#009af9" fill-rule="evenodd" fill-opacity="1"/>
<polyline clip-path="url(#clip102)" style="stroke:#000000; stroke-linecap:round; stroke-linejoin:round; stroke-width:4; stroke-opacity:1; fill:none" points="
  579.002,1305.05 579.002,1344.75 661.76,1344.75 661.76,1305.05 579.002,1305.05 
  "/>
<path clip-path="url(#clip102)" d="
M682.45 1319.62 L682.45 1344.75 L765.208 1344.75 L765.208 1319.62 L682.45 1319.62 L682.45 1319.62  Z
  " fill="#009af9" fill-rule="evenodd" fill-opacity="1"/>
<polyline clip-path="url(#clip102)" style="stroke:#000000; stroke-linecap:round; stroke-linejoin:round; stroke-width:4; stroke-opacity:1; fill:none" points="
  682.45,1319.62 682.45,1344.75 765.208,1344.75 765.208,1319.62 682.45,1319.62 
  "/>
<path clip-path="url(#clip102)" d="
M785.897 1328.23 L785.897 1344.75 L868.656 1344.75 L868.656 1328.23 L785.897 1328.23 L785.897 1328.23  Z
  " fill="#009af9" fill-rule="evenodd" fill-opacity="1"/>
<polyline clip-path="url(#clip102)" style="stroke:#000000; stroke-linecap:round; stroke-linejoin:round; stroke-width:4; stroke-opacity:1; fill:none" points="
  785.897,1328.23 785.897,1344.75 868.656,1344.75 868.656,1328.23 785.897,1328.23 
  "/>
<path clip-path="url(#clip102)" d="
M889.345 1328.54 L889.345 1344.75 L972.103 1344.75 L972.103 1328.54 L889.345 1328.54 L889.345 1328.54  Z
  " fill="#009af9" fill-rule="evenodd" fill-opacity="1"/>
<polyline clip-path="url(#clip102)" style="stroke:#000000; stroke-linecap:round; stroke-linejoin:round; stroke-width:4; stroke-opacity:1; fill:none" points="
  889.345,1328.54 889.345,1344.75 972.103,1344.75 972.103,1328.54 889.345,1328.54 
  "/>
<path clip-path="url(#clip102)" d="
M992.793 1308.75 L992.793 1344.75 L1075.55 1344.75 L1075.55 1308.75 L992.793 1308.75 L992.793 1308.75  Z
  " fill="#009af9" fill-rule="evenodd" fill-opacity="1"/>
<polyline clip-path="url(#clip102)" style="stroke:#000000; stroke-linecap:round; stroke-linejoin:round; stroke-width:4; stroke-opacity:1; fill:none" points="
  992.793,1308.75 992.793,1344.75 1075.55,1344.75 1075.55,1308.75 992.793,1308.75 
  "/>
<path clip-path="url(#clip102)" d="
M1096.24 1157.19 L1096.24 1344.75 L1179 1344.75 L1179 1157.19 L1096.24 1157.19 L1096.24 1157.19  Z
  " fill="#009af9" fill-rule="evenodd" fill-opacity="1"/>
<polyline clip-path="url(#clip102)" style="stroke:#000000; stroke-linecap:round; stroke-linejoin:round; stroke-width:4; stroke-opacity:1; fill:none" points="
  1096.24,1157.19 1096.24,1344.75 1179,1344.75 1179,1157.19 1096.24,1157.19 
  "/>
<path clip-path="url(#clip102)" d="
M1199.69 733.822 L1199.69 1344.75 L1282.45 1344.75 L1282.45 733.822 L1199.69 733.822 L1199.69 733.822  Z
  " fill="#009af9" fill-rule="evenodd" fill-opacity="1"/>
<polyline clip-path="url(#clip102)" style="stroke:#000000; stroke-linecap:round; stroke-linejoin:round; stroke-width:4; stroke-opacity:1; fill:none" points="
  1199.69,733.822 1199.69,1344.75 1282.45,1344.75 1282.45,733.822 1199.69,733.822 
  "/>
<path clip-path="url(#clip102)" d="
M1303.14 146.193 L1303.14 1344.75 L1385.89 1344.75 L1385.89 146.193 L1303.14 146.193 L1303.14 146.193  Z
  " fill="#009af9" fill-rule="evenodd" fill-opacity="1"/>
<polyline clip-path="url(#clip102)" style="stroke:#000000; stroke-linecap:round; stroke-linejoin:round; stroke-width:4; stroke-opacity:1; fill:none" points="
  1303.14,146.193 1303.14,1344.75 1385.89,1344.75 1385.89,146.193 1303.14,146.193 
  "/>
<path clip-path="url(#clip102)" d="
M1406.58 725.11 L1406.58 1344.75 L1489.34 1344.75 L1489.34 725.11 L1406.58 725.11 L1406.58 725.11  Z
  " fill="#009af9" fill-rule="evenodd" fill-opacity="1"/>
<polyline clip-path="url(#clip102)" style="stroke:#000000; stroke-linecap:round; stroke-linejoin:round; stroke-width:4; stroke-opacity:1; fill:none" points="
  1406.58,725.11 1406.58,1344.75 1489.34,1344.75 1489.34,725.11 1406.58,725.11 
  "/>
<path clip-path="url(#clip102)" d="
M1510.03 1033.37 L1510.03 1344.75 L1592.79 1344.75 L1592.79 1033.37 L1510.03 1033.37 L1510.03 1033.37  Z
  " fill="#009af9" fill-rule="evenodd" fill-opacity="1"/>
<polyline clip-path="url(#clip102)" style="stroke:#000000; stroke-linecap:round; stroke-linejoin:round; stroke-width:4; stroke-opacity:1; fill:none" points="
  1510.03,1033.37 1510.03,1344.75 1592.79,1344.75 1592.79,1033.37 1510.03,1033.37 
  "/>
<path clip-path="url(#clip102)" d="
M1613.48 1044.37 L1613.48 1344.75 L1696.24 1344.75 L1696.24 1044.37 L1613.48 1044.37 L1613.48 1044.37  Z
  " fill="#009af9" fill-rule="evenodd" fill-opacity="1"/>
<polyline clip-path="url(#clip102)" style="stroke:#000000; stroke-linecap:round; stroke-linejoin:round; stroke-width:4; stroke-opacity:1; fill:none" points="
  1613.48,1044.37 1613.48,1344.75 1696.24,1344.75 1696.24,1044.37 1613.48,1044.37 
  "/>
<path clip-path="url(#clip102)" d="
M1716.93 961.993 L1716.93 1344.75 L1799.68 1344.75 L1799.68 961.993 L1716.93 961.993 L1716.93 961.993  Z
  " fill="#009af9" fill-rule="evenodd" fill-opacity="1"/>
<polyline clip-path="url(#clip102)" style="stroke:#000000; stroke-linecap:round; stroke-linejoin:round; stroke-width:4; stroke-opacity:1; fill:none" points="
  1716.93,961.993 1716.93,1344.75 1799.68,1344.75 1799.68,961.993 1716.93,961.993 
  "/>
<path clip-path="url(#clip102)" d="
M1820.37 948.773 L1820.37 1344.75 L1903.13 1344.75 L1903.13 948.773 L1820.37 948.773 L1820.37 948.773  Z
  " fill="#009af9" fill-rule="evenodd" fill-opacity="1"/>
<polyline clip-path="url(#clip102)" style="stroke:#000000; stroke-linecap:round; stroke-linejoin:round; stroke-width:4; stroke-opacity:1; fill:none" points="
  1820.37,948.773 1820.37,1344.75 1903.13,1344.75 1903.13,948.773 1820.37,948.773 
  "/>
<path clip-path="url(#clip102)" d="
M1923.82 968.862 L1923.82 1344.75 L2006.58 1344.75 L2006.58 968.862 L1923.82 968.862 L1923.82 968.862  Z
  " fill="#009af9" fill-rule="evenodd" fill-opacity="1"/>
<polyline clip-path="url(#clip102)" style="stroke:#000000; stroke-linecap:round; stroke-linejoin:round; stroke-width:4; stroke-opacity:1; fill:none" points="
  1923.82,968.862 1923.82,1344.75 2006.58,1344.75 2006.58,968.862 1923.82,968.862 
  "/>
<path clip-path="url(#clip102)" d="
M2027.27 932.113 L2027.27 1344.75 L2110.03 1344.75 L2110.03 932.113 L2027.27 932.113 L2027.27 932.113  Z
  " fill="#009af9" fill-rule="evenodd" fill-opacity="1"/>
<polyline clip-path="url(#clip102)" style="stroke:#000000; stroke-linecap:round; stroke-linejoin:round; stroke-width:4; stroke-opacity:1; fill:none" points="
  2027.27,932.113 2027.27,1344.75 2110.03,1344.75 2110.03,932.113 2027.27,932.113 
  "/>
<path clip-path="url(#clip102)" d="
M2130.72 785.88 L2130.72 1344.75 L2213.48 1344.75 L2213.48 785.88 L2130.72 785.88 L2130.72 785.88  Z
  " fill="#009af9" fill-rule="evenodd" fill-opacity="1"/>
<polyline clip-path="url(#clip102)" style="stroke:#000000; stroke-linecap:round; stroke-linejoin:round; stroke-width:4; stroke-opacity:1; fill:none" points="
  2130.72,785.88 2130.72,1344.75 2213.48,1344.75 2213.48,785.88 2130.72,785.88 
  "/>
<path clip-path="url(#clip102)" d="
M2234.16 342.178 L2234.16 1344.75 L2316.92 1344.75 L2316.92 342.178 L2234.16 342.178 L2234.16 342.178  Z
  " fill="#009af9" fill-rule="evenodd" fill-opacity="1"/>
<polyline clip-path="url(#clip102)" style="stroke:#000000; stroke-linecap:round; stroke-linejoin:round; stroke-width:4; stroke-opacity:1; fill:none" points="
  2234.16,342.178 2234.16,1344.75 2316.92,1344.75 2316.92,342.178 2234.16,342.178 
  "/>
<path clip-path="url(#clip102)" d="
M2337.61 398.104 L2337.61 1344.75 L2420.37 1344.75 L2420.37 398.104 L2337.61 398.104 L2337.61 398.104  Z
  " fill="#009af9" fill-rule="evenodd" fill-opacity="1"/>
<polyline clip-path="url(#clip102)" style="stroke:#000000; stroke-linecap:round; stroke-linejoin:round; stroke-width:4; stroke-opacity:1; fill:none" points="
  2337.61,398.104 2337.61,1344.75 2420.37,1344.75 2420.37,398.104 2337.61,398.104 
  "/>
<path clip-path="url(#clip102)" d="
M2441.06 778.439 L2441.06 1344.75 L2523.82 1344.75 L2523.82 778.439 L2441.06 778.439 L2441.06 778.439  Z
  " fill="#009af9" fill-rule="evenodd" fill-opacity="1"/>
<polyline clip-path="url(#clip102)" style="stroke:#000000; stroke-linecap:round; stroke-linejoin:round; stroke-width:4; stroke-opacity:1; fill:none" points="
  2441.06,778.439 2441.06,1344.75 2523.82,1344.75 2523.82,778.439 2441.06,778.439 
  "/>
<path clip-path="url(#clip102)" d="
M2544.51 993.004 L2544.51 1344.75 L2627.27 1344.75 L2627.27 993.004 L2544.51 993.004 L2544.51 993.004  Z
  " fill="#009af9" fill-rule="evenodd" fill-opacity="1"/>
<polyline clip-path="url(#clip102)" style="stroke:#000000; stroke-linecap:round; stroke-linejoin:round; stroke-width:4; stroke-opacity:1; fill:none" points="
  2544.51,993.004 2544.51,1344.75 2627.27,1344.75 2627.27,993.004 2544.51,993.004 
  "/>
<path clip-path="url(#clip102)" d="
M2647.96 1099.97 L2647.96 1344.75 L2730.71 1344.75 L2730.71 1099.97 L2647.96 1099.97 L2647.96 1099.97  Z
  " fill="#009af9" fill-rule="evenodd" fill-opacity="1"/>
<polyline clip-path="url(#clip102)" style="stroke:#000000; stroke-linecap:round; stroke-linejoin:round; stroke-width:4; stroke-opacity:1; fill:none" points="
  2647.96,1099.97 2647.96,1344.75 2730.71,1344.75 2730.71,1099.97 2647.96,1099.97 
  "/>
<path clip-path="url(#clip102)" d="
M2751.4 1154.08 L2751.4 1344.75 L2834.16 1344.75 L2834.16 1154.08 L2751.4 1154.08 L2751.4 1154.08  Z
  " fill="#009af9" fill-rule="evenodd" fill-opacity="1"/>
<polyline clip-path="url(#clip102)" style="stroke:#000000; stroke-linecap:round; stroke-linejoin:round; stroke-width:4; stroke-opacity:1; fill:none" points="
  2751.4,1154.08 2751.4,1344.75 2834.16,1344.75 2834.16,1154.08 2751.4,1154.08 
  "/>
<path clip-path="url(#clip102)" d="
M2854.85 1209.85 L2854.85 1344.75 L2937.61 1344.75 L2937.61 1209.85 L2854.85 1209.85 L2854.85 1209.85  Z
  " fill="#009af9" fill-rule="evenodd" fill-opacity="1"/>
<polyline clip-path="url(#clip102)" style="stroke:#000000; stroke-linecap:round; stroke-linejoin:round; stroke-width:4; stroke-opacity:1; fill:none" points="
  2854.85,1209.85 2854.85,1344.75 2937.61,1344.75 2937.61,1209.85 2854.85,1209.85 
  "/>
<circle clip-path="url(#clip102)" style="fill:#009af9; stroke:none; fill-opacity:0" cx="516.933" cy="1277.95" r="2"/>
<circle clip-path="url(#clip102)" style="fill:#009af9; stroke:none; fill-opacity:0" cx="620.381" cy="1305.05" r="2"/>
<circle clip-path="url(#clip102)" style="fill:#009af9; stroke:none; fill-opacity:0" cx="723.829" cy="1319.62" r="2"/>
<circle clip-path="url(#clip102)" style="fill:#009af9; stroke:none; fill-opacity:0" cx="827.276" cy="1328.23" r="2"/>
<circle clip-path="url(#clip102)" style="fill:#009af9; stroke:none; fill-opacity:0" cx="930.724" cy="1328.54" r="2"/>
<circle clip-path="url(#clip102)" style="fill:#009af9; stroke:none; fill-opacity:0" cx="1034.17" cy="1308.75" r="2"/>
<circle clip-path="url(#clip102)" style="fill:#009af9; stroke:none; fill-opacity:0" cx="1137.62" cy="1157.19" r="2"/>
<circle clip-path="url(#clip102)" style="fill:#009af9; stroke:none; fill-opacity:0" cx="1241.07" cy="733.822" r="2"/>
<circle clip-path="url(#clip102)" style="fill:#009af9; stroke:none; fill-opacity:0" cx="1344.51" cy="146.193" r="2"/>
<circle clip-path="url(#clip102)" style="fill:#009af9; stroke:none; fill-opacity:0" cx="1447.96" cy="725.11" r="2"/>
<circle clip-path="url(#clip102)" style="fill:#009af9; stroke:none; fill-opacity:0" cx="1551.41" cy="1033.37" r="2"/>
<circle clip-path="url(#clip102)" style="fill:#009af9; stroke:none; fill-opacity:0" cx="1654.86" cy="1044.37" r="2"/>
<circle clip-path="url(#clip102)" style="fill:#009af9; stroke:none; fill-opacity:0" cx="1758.31" cy="961.993" r="2"/>
<circle clip-path="url(#clip102)" style="fill:#009af9; stroke:none; fill-opacity:0" cx="1861.75" cy="948.773" r="2"/>
<circle clip-path="url(#clip102)" style="fill:#009af9; stroke:none; fill-opacity:0" cx="1965.2" cy="968.862" r="2"/>
<circle clip-path="url(#clip102)" style="fill:#009af9; stroke:none; fill-opacity:0" cx="2068.65" cy="932.113" r="2"/>
<circle clip-path="url(#clip102)" style="fill:#009af9; stroke:none; fill-opacity:0" cx="2172.1" cy="785.88" r="2"/>
<circle clip-path="url(#clip102)" style="fill:#009af9; stroke:none; fill-opacity:0" cx="2275.54" cy="342.178" r="2"/>
<circle clip-path="url(#clip102)" style="fill:#009af9; stroke:none; fill-opacity:0" cx="2378.99" cy="398.104" r="2"/>
<circle clip-path="url(#clip102)" style="fill:#009af9; stroke:none; fill-opacity:0" cx="2482.44" cy="778.439" r="2"/>
<circle clip-path="url(#clip102)" style="fill:#009af9; stroke:none; fill-opacity:0" cx="2585.89" cy="993.004" r="2"/>
<circle clip-path="url(#clip102)" style="fill:#009af9; stroke:none; fill-opacity:0" cx="2689.33" cy="1099.97" r="2"/>
<circle clip-path="url(#clip102)" style="fill:#009af9; stroke:none; fill-opacity:0" cx="2792.78" cy="1154.08" r="2"/>
<circle clip-path="url(#clip102)" style="fill:#009af9; stroke:none; fill-opacity:0" cx="2896.23" cy="1209.85" r="2"/>
<path clip-path="url(#clip100)" d="
M2668.48 256.265 L2997.55 256.265 L2997.55 152.585 L2668.48 152.585  Z
  " fill="#ffffff" fill-rule="evenodd" fill-opacity="1"/>
<polyline clip-path="url(#clip100)" style="stroke:#000000; stroke-linecap:round; stroke-linejoin:round; stroke-width:4; stroke-opacity:1; fill:none" points="
  2668.48,256.265 2997.55,256.265 2997.55,152.585 2668.48,152.585 2668.48,256.265 
  "/>
<path clip-path="url(#clip100)" d="
M2699.22 225.161 L2883.65 225.161 L2883.65 183.689 L2699.22 183.689 L2699.22 225.161  Z
  " fill="#009af9" fill-rule="evenodd" fill-opacity="1"/>
<polyline clip-path="url(#clip100)" style="stroke:#000000; stroke-linecap:round; stroke-linejoin:round; stroke-width:4; stroke-opacity:1; fill:none" points="
  2699.22,225.161 2883.65,225.161 2883.65,183.689 2699.22,183.689 2699.22,225.161 
  "/>
<path clip-path="url(#clip100)" d="M2928.23 224.113 Q2926.42 228.742 2924.71 230.154 Q2923 231.566 2920.12 231.566 L2916.72 231.566 L2916.72 228.002 L2919.22 228.002 Q2920.98 228.002 2921.95 227.168 Q2922.93 226.335 2924.11 223.233 L2924.87 221.289 L2914.38 195.779 L2918.9 195.779 L2927 216.057 L2935.1 195.779 L2939.62 195.779 L2928.23 224.113 Z" fill="#000000" fill-rule="evenodd" fill-opacity="1" /><path clip-path="url(#clip100)" d="M2946.91 217.77 L2954.55 217.77 L2954.55 191.405 L2946.24 193.071 L2946.24 188.812 L2954.5 187.145 L2959.18 187.145 L2959.18 217.77 L2966.81 217.77 L2966.81 221.705 L2946.91 221.705 L2946.91 217.77 Z" fill="#000000" fill-rule="evenodd" fill-opacity="1" /></svg>
