<?xml version="1.0" encoding="utf-8"?>
<svg xmlns="http://www.w3.org/2000/svg" xmlns:xlink="http://www.w3.org/1999/xlink" width="600" height="400" viewBox="0 0 2400 1600">
<defs>
  <clipPath id="clip580">
    <rect x="0" y="0" width="2400" height="1600"/>
  </clipPath>
</defs>
<path clip-path="url(#clip580)" d="
M0 1600 L2400 1600 L2400 0 L0 0  Z
  " fill="#ffffff" fill-rule="evenodd" fill-opacity="1"/>
<defs>
  <clipPath id="clip581">
    <rect x="480" y="0" width="1681" height="1600"/>
  </clipPath>
</defs>
<path clip-path="url(#clip580)" d="
M170.857 1423.18 L1152.76 1423.18 L1152.76 47.2441 L170.857 47.2441  Z
  " fill="#ffffff" fill-rule="evenodd" fill-opacity="1"/>
<defs>
  <clipPath id="clip582">
    <rect x="170" y="47" width="983" height="1377"/>
  </clipPath>
</defs>
<polyline clip-path="url(#clip582)" style="stroke:#000000; stroke-linecap:round; stroke-linejoin:round; stroke-width:2; stroke-opacity:0.1; fill:none" points="
  276.269,1423.18 276.269,47.2441 
  "/>
<polyline clip-path="url(#clip582)" style="stroke:#000000; stroke-linecap:round; stroke-linejoin:round; stroke-width:2; stroke-opacity:0.1; fill:none" points="
  404.781,1423.18 404.781,47.2441 
  "/>
<polyline clip-path="url(#clip582)" style="stroke:#000000; stroke-linecap:round; stroke-linejoin:round; stroke-width:2; stroke-opacity:0.1; fill:none" points="
  533.294,1423.18 533.294,47.2441 
  "/>
<polyline clip-path="url(#clip582)" style="stroke:#000000; stroke-linecap:round; stroke-linejoin:round; stroke-width:2; stroke-opacity:0.1; fill:none" points="
  661.807,1423.18 661.807,47.2441 
  "/>
<polyline clip-path="url(#clip582)" style="stroke:#000000; stroke-linecap:round; stroke-linejoin:round; stroke-width:2; stroke-opacity:0.1; fill:none" points="
  790.319,1423.18 790.319,47.2441 
  "/>
<polyline clip-path="url(#clip582)" style="stroke:#000000; stroke-linecap:round; stroke-linejoin:round; stroke-width:2; stroke-opacity:0.1; fill:none" points="
  918.832,1423.18 918.832,47.2441 
  "/>
<polyline clip-path="url(#clip582)" style="stroke:#000000; stroke-linecap:round; stroke-linejoin:round; stroke-width:2; stroke-opacity:0.1; fill:none" points="
  1047.34,1423.18 1047.34,47.2441 
  "/>
<polyline clip-path="url(#clip580)" style="stroke:#000000; stroke-linecap:round; stroke-linejoin:round; stroke-width:4; stroke-opacity:1; fill:none" points="
  170.857,1423.18 1152.76,1423.18 
  "/>
<polyline clip-path="url(#clip580)" style="stroke:#000000; stroke-linecap:round; stroke-linejoin:round; stroke-width:4; stroke-opacity:1; fill:none" points="
  276.269,1423.18 276.269,1404.28 
  "/>
<polyline clip-path="url(#clip580)" style="stroke:#000000; stroke-linecap:round; stroke-linejoin:round; stroke-width:4; stroke-opacity:1; fill:none" points="
  404.781,1423.18 404.781,1404.28 
  "/>
<polyline clip-path="url(#clip580)" style="stroke:#000000; stroke-linecap:round; stroke-linejoin:round; stroke-width:4; stroke-opacity:1; fill:none" points="
  533.294,1423.18 533.294,1404.28 
  "/>
<polyline clip-path="url(#clip580)" style="stroke:#000000; stroke-linecap:round; stroke-linejoin:round; stroke-width:4; stroke-opacity:1; fill:none" points="
  661.807,1423.18 661.807,1404.28 
  "/>
<polyline clip-path="url(#clip580)" style="stroke:#000000; stroke-linecap:round; stroke-linejoin:round; stroke-width:4; stroke-opacity:1; fill:none" points="
  790.319,1423.18 790.319,1404.28 
  "/>
<polyline clip-path="url(#clip580)" style="stroke:#000000; stroke-linecap:round; stroke-linejoin:round; stroke-width:4; stroke-opacity:1; fill:none" points="
  918.832,1423.18 918.832,1404.28 
  "/>
<polyline clip-path="url(#clip580)" style="stroke:#000000; stroke-linecap:round; stroke-linejoin:round; stroke-width:4; stroke-opacity:1; fill:none" points="
  1047.34,1423.18 1047.34,1404.28 
  "/>
<path clip-path="url(#clip580)" d="M260.459 1451.02 L267.426 1451.02 L276.246 1474.54 L285.111 1451.02 L292.079 1451.02 L292.079 1485.58 L287.519 1485.58 L287.519 1455.23 L278.607 1478.94 L273.908 1478.94 L264.996 1455.23 L264.996 1485.58 L260.459 1485.58 L260.459 1451.02 Z" fill="#000000" fill-rule="evenodd" fill-opacity="1" /><path clip-path="url(#clip580)" d="M390.163 1451.02 L419.399 1451.02 L419.399 1454.96 L407.131 1454.96 L407.131 1485.58 L402.432 1485.58 L402.432 1454.96 L390.163 1454.96 L390.163 1451.02 Z" fill="#000000" fill-rule="evenodd" fill-opacity="1" /><path clip-path="url(#clip580)" d="M511.419 1451.02 L516.141 1451.02 L523.41 1480.23 L530.655 1451.02 L535.91 1451.02 L543.178 1480.23 L550.424 1451.02 L555.169 1451.02 L546.488 1485.58 L540.609 1485.58 L533.317 1455.58 L525.956 1485.58 L520.076 1485.58 L511.419 1451.02 Z" fill="#000000" fill-rule="evenodd" fill-opacity="1" /><path clip-path="url(#clip580)" d="M631.471 1451.02 L660.707 1451.02 L660.707 1454.96 L648.439 1454.96 L648.439 1485.58 L643.74 1485.58 L643.74 1454.96 L631.471 1454.96 L631.471 1451.02 Z" fill="#000000" fill-rule="evenodd" fill-opacity="1" /><path clip-path="url(#clip580)" d="M681.61 1469.38 Q683.114 1469.89 684.526 1471.55 Q685.962 1473.22 687.397 1476.14 L692.142 1485.58 L687.119 1485.58 L682.698 1476.71 Q680.985 1473.24 679.364 1472.11 Q677.767 1470.97 674.989 1470.97 L669.897 1470.97 L669.897 1485.58 L665.221 1485.58 L665.221 1451.02 L675.776 1451.02 Q681.702 1451.02 684.619 1453.5 Q687.536 1455.97 687.536 1460.97 Q687.536 1464.24 686.008 1466.39 Q684.503 1468.54 681.61 1469.38 M669.897 1454.86 L669.897 1467.13 L675.776 1467.13 Q679.156 1467.13 680.869 1465.58 Q682.605 1464.01 682.605 1460.97 Q682.605 1457.94 680.869 1456.41 Q679.156 1454.86 675.776 1454.86 L669.897 1454.86 Z" fill="#000000" fill-rule="evenodd" fill-opacity="1" /><path clip-path="url(#clip580)" d="M780.389 1451.02 L800.25 1451.02 L800.25 1454.96 L785.065 1454.96 L785.065 1465.14 L798.768 1465.14 L798.768 1469.08 L785.065 1469.08 L785.065 1485.58 L780.389 1485.58 L780.389 1451.02 Z" fill="#000000" fill-rule="evenodd" fill-opacity="1" /><path clip-path="url(#clip580)" d="M904.341 1452.15 L904.341 1456.71 Q901.679 1455.44 899.318 1454.82 Q896.957 1454.19 894.758 1454.19 Q890.939 1454.19 888.855 1455.67 Q886.795 1457.15 886.795 1459.89 Q886.795 1462.18 888.161 1463.36 Q889.55 1464.52 893.392 1465.23 L896.216 1465.81 Q901.448 1466.81 903.925 1469.33 Q906.425 1471.83 906.425 1476.04 Q906.425 1481.07 903.045 1483.66 Q899.689 1486.25 893.184 1486.25 Q890.73 1486.25 887.953 1485.7 Q885.198 1485.14 882.235 1484.05 L882.235 1479.24 Q885.082 1480.83 887.814 1481.64 Q890.545 1482.45 893.184 1482.45 Q897.189 1482.45 899.365 1480.88 Q901.54 1479.31 901.54 1476.39 Q901.54 1473.84 899.966 1472.41 Q898.415 1470.97 894.851 1470.26 L892.003 1469.7 Q886.772 1468.66 884.434 1466.44 Q882.096 1464.21 882.096 1460.26 Q882.096 1455.67 885.314 1453.03 Q888.554 1450.39 894.226 1450.39 Q896.656 1450.39 899.179 1450.83 Q901.702 1451.27 904.341 1452.15 Z" fill="#000000" fill-rule="evenodd" fill-opacity="1" /><path clip-path="url(#clip580)" d="M925.313 1472.55 Q920.151 1472.55 918.161 1473.73 Q916.17 1474.91 916.17 1477.76 Q916.17 1480.02 917.651 1481.37 Q919.156 1482.69 921.726 1482.69 Q925.267 1482.69 927.397 1480.19 Q929.55 1477.66 929.55 1473.5 L929.55 1472.55 L925.313 1472.55 M933.809 1470.79 L933.809 1485.58 L929.55 1485.58 L929.55 1481.64 Q928.091 1484.01 925.915 1485.14 Q923.739 1486.25 920.591 1486.25 Q916.61 1486.25 914.249 1484.03 Q911.911 1481.78 911.911 1478.03 Q911.911 1473.66 914.827 1471.44 Q917.767 1469.21 923.577 1469.21 L929.55 1469.21 L929.55 1468.8 Q929.55 1465.86 927.605 1464.26 Q925.684 1462.64 922.188 1462.64 Q919.966 1462.64 917.86 1463.17 Q915.753 1463.7 913.809 1464.77 L913.809 1460.83 Q916.147 1459.93 918.346 1459.49 Q920.545 1459.03 922.628 1459.03 Q928.253 1459.03 931.031 1461.95 Q933.809 1464.86 933.809 1470.79 Z" fill="#000000" fill-rule="evenodd" fill-opacity="1" /><path clip-path="url(#clip580)" d="M946.795 1452.29 L946.795 1459.65 L955.568 1459.65 L955.568 1462.96 L946.795 1462.96 L946.795 1477.04 Q946.795 1480.21 947.651 1481.11 Q948.531 1482.02 951.193 1482.02 L955.568 1482.02 L955.568 1485.58 L951.193 1485.58 Q946.262 1485.58 944.387 1483.75 Q942.512 1481.9 942.512 1477.04 L942.512 1462.96 L939.387 1462.96 L939.387 1459.65 L942.512 1459.65 L942.512 1452.29 L946.795 1452.29 Z" fill="#000000" fill-rule="evenodd" fill-opacity="1" /><path clip-path="url(#clip580)" d="M1028.07 1452.15 L1028.07 1456.71 Q1025.41 1455.44 1023.05 1454.82 Q1020.69 1454.19 1018.49 1454.19 Q1014.67 1454.19 1012.59 1455.67 Q1010.53 1457.15 1010.53 1459.89 Q1010.53 1462.18 1011.89 1463.36 Q1013.28 1464.52 1017.12 1465.23 L1019.95 1465.81 Q1025.18 1466.81 1027.66 1469.33 Q1030.16 1471.83 1030.16 1476.04 Q1030.16 1481.07 1026.78 1483.66 Q1023.42 1486.25 1016.92 1486.25 Q1014.46 1486.25 1011.69 1485.7 Q1008.93 1485.14 1005.97 1484.05 L1005.97 1479.24 Q1008.81 1480.83 1011.55 1481.64 Q1014.28 1482.45 1016.92 1482.45 Q1020.92 1482.45 1023.1 1480.88 Q1025.27 1479.31 1025.27 1476.39 Q1025.27 1473.84 1023.7 1472.41 Q1022.15 1470.97 1018.58 1470.26 L1015.74 1469.7 Q1010.5 1468.66 1008.17 1466.44 Q1005.83 1464.21 1005.83 1460.26 Q1005.83 1455.67 1009.05 1453.03 Q1012.29 1450.39 1017.96 1450.39 Q1020.39 1450.39 1022.91 1450.83 Q1025.44 1451.27 1028.07 1452.15 Z" fill="#000000" fill-rule="evenodd" fill-opacity="1" /><path clip-path="url(#clip580)" d="M1036.82 1475.35 L1036.82 1459.65 L1041.08 1459.65 L1041.08 1475.19 Q1041.08 1478.87 1042.52 1480.72 Q1043.95 1482.55 1046.82 1482.55 Q1050.27 1482.55 1052.26 1480.35 Q1054.28 1478.15 1054.28 1474.35 L1054.28 1459.65 L1058.54 1459.65 L1058.54 1485.58 L1054.28 1485.58 L1054.28 1481.6 Q1052.73 1483.96 1050.67 1485.12 Q1048.63 1486.25 1045.92 1486.25 Q1041.45 1486.25 1039.14 1483.47 Q1036.82 1480.7 1036.82 1475.35 M1047.54 1459.03 L1047.54 1459.03 Z" fill="#000000" fill-rule="evenodd" fill-opacity="1" /><path clip-path="url(#clip580)" d="M1088.86 1469.93 L1088.86 1485.58 L1084.6 1485.58 L1084.6 1470.07 Q1084.6 1466.39 1083.17 1464.56 Q1081.73 1462.73 1078.86 1462.73 Q1075.41 1462.73 1073.42 1464.93 Q1071.43 1467.13 1071.43 1470.93 L1071.43 1485.58 L1067.15 1485.58 L1067.15 1459.65 L1071.43 1459.65 L1071.43 1463.68 Q1072.96 1461.34 1075.02 1460.19 Q1077.1 1459.03 1079.81 1459.03 Q1084.28 1459.03 1086.57 1461.81 Q1088.86 1464.56 1088.86 1469.93 Z" fill="#000000" fill-rule="evenodd" fill-opacity="1" /><path clip-path="url(#clip580)" d="M421.04 1520.52 L427.469 1520.52 L427.469 1540 L450.831 1540 L450.831 1520.52 L457.261 1520.52 L457.261 1568.04 L450.831 1568.04 L450.831 1545.41 L427.469 1545.41 L427.469 1568.04 L421.04 1568.04 L421.04 1520.52 Z" fill="#000000" fill-rule="evenodd" fill-opacity="1" /><path clip-path="url(#clip580)" d="M484.633 1571.35 Q482.151 1577.72 479.795 1579.66 Q477.44 1581.6 473.493 1581.6 L468.814 1581.6 L468.814 1576.7 L472.252 1576.7 Q474.671 1576.7 476.008 1575.56 Q477.344 1574.41 478.968 1570.14 L480.018 1567.47 L465.6 1532.4 L471.806 1532.4 L482.946 1560.28 L494.086 1532.4 L500.293 1532.4 L484.633 1571.35 Z" fill="#000000" fill-rule="evenodd" fill-opacity="1" /><path clip-path="url(#clip580)" d="M531.835 1537.81 L531.835 1518.52 L537.691 1518.52 L537.691 1568.04 L531.835 1568.04 L531.835 1562.7 Q529.989 1565.88 527.156 1567.44 Q524.355 1568.97 520.408 1568.97 Q513.947 1568.97 509.873 1563.81 Q505.831 1558.65 505.831 1550.25 Q505.831 1541.85 509.873 1536.69 Q513.947 1531.54 520.408 1531.54 Q524.355 1531.54 527.156 1533.1 Q529.989 1534.62 531.835 1537.81 M511.878 1550.25 Q511.878 1556.71 514.52 1560.4 Q517.194 1564.07 521.841 1564.07 Q526.488 1564.07 529.161 1560.4 Q531.835 1556.71 531.835 1550.25 Q531.835 1543.79 529.161 1540.13 Q526.488 1536.44 521.841 1536.44 Q517.194 1536.44 514.52 1540.13 Q511.878 1543.79 511.878 1550.25 Z" fill="#000000" fill-rule="evenodd" fill-opacity="1" /><path clip-path="url(#clip580)" d="M580.246 1548.76 L580.246 1551.62 L553.319 1551.62 Q553.701 1557.67 556.948 1560.85 Q560.226 1564 566.051 1564 Q569.424 1564 572.575 1563.17 Q575.758 1562.35 578.877 1560.69 L578.877 1566.23 Q575.726 1567.57 572.416 1568.27 Q569.106 1568.97 565.7 1568.97 Q557.17 1568.97 552.173 1564 Q547.208 1559.04 547.208 1550.57 Q547.208 1541.82 551.919 1536.69 Q556.661 1531.54 564.682 1531.54 Q571.875 1531.54 576.045 1536.18 Q580.246 1540.8 580.246 1548.76 M574.39 1547.04 Q574.326 1542.23 571.684 1539.37 Q569.074 1536.5 564.746 1536.5 Q559.844 1536.5 556.884 1539.27 Q553.956 1542.04 553.51 1547.07 L574.39 1547.04 Z" fill="#000000" fill-rule="evenodd" fill-opacity="1" /><path clip-path="url(#clip580)" d="M591.354 1559.96 L598.07 1559.96 L598.07 1565.43 L592.85 1575.62 L588.744 1575.62 L591.354 1565.43 L591.354 1559.96 Z" fill="#000000" fill-rule="evenodd" fill-opacity="1" /><path clip-path="url(#clip580)" d="M645.876 1524.76 Q640.911 1524.76 638.397 1529.66 Q635.914 1534.53 635.914 1544.33 Q635.914 1554.1 638.397 1559 Q640.911 1563.87 645.876 1563.87 Q650.874 1563.87 653.356 1559 Q655.871 1554.1 655.871 1544.33 Q655.871 1534.53 653.356 1529.66 Q650.874 1524.76 645.876 1524.76 M645.876 1519.66 Q653.865 1519.66 658.067 1526 Q662.3 1532.3 662.3 1544.33 Q662.3 1556.33 658.067 1562.66 Q653.865 1568.97 645.876 1568.97 Q637.888 1568.97 633.654 1562.66 Q629.453 1556.33 629.453 1544.33 Q629.453 1532.3 633.654 1526 Q637.888 1519.66 645.876 1519.66 Z" fill="#000000" fill-rule="evenodd" fill-opacity="1" /><path clip-path="url(#clip580)" d="M673.663 1520.52 L698.903 1520.52 L698.903 1525.93 L679.551 1525.93 L679.551 1537.58 Q680.952 1537.11 682.352 1536.88 Q683.752 1536.63 685.153 1536.63 Q693.11 1536.63 697.757 1540.99 Q702.404 1545.35 702.404 1552.8 Q702.404 1560.47 697.63 1564.73 Q692.855 1568.97 684.166 1568.97 Q681.174 1568.97 678.055 1568.46 Q674.968 1567.95 671.658 1566.93 L671.658 1560.47 Q674.522 1562.03 677.578 1562.79 Q680.633 1563.56 684.039 1563.56 Q689.545 1563.56 692.76 1560.66 Q695.975 1557.76 695.975 1552.8 Q695.975 1547.83 692.76 1544.94 Q689.545 1542.04 684.039 1542.04 Q681.461 1542.04 678.883 1542.61 Q676.336 1543.19 673.663 1544.4 L673.663 1520.52 Z" fill="#000000" fill-rule="evenodd" fill-opacity="1" /><path clip-path="url(#clip580)" d="M724.652 1520.52 L730.063 1520.52 L713.512 1574.09 L708.101 1574.09 L724.652 1520.52 Z" fill="#000000" fill-rule="evenodd" fill-opacity="1" /><path clip-path="url(#clip580)" d="M751.579 1541.72 Q747.25 1541.72 744.704 1544.68 Q742.19 1547.64 742.19 1552.8 Q742.19 1557.92 744.704 1560.91 Q747.25 1563.87 751.579 1563.87 Q755.908 1563.87 758.422 1560.91 Q760.968 1557.92 760.968 1552.8 Q760.968 1547.64 758.422 1544.68 Q755.908 1541.72 751.579 1541.72 M764.342 1521.57 L764.342 1527.43 Q761.923 1526.28 759.441 1525.68 Q756.99 1525.08 754.571 1525.08 Q748.205 1525.08 744.831 1529.37 Q741.489 1533.67 741.012 1542.36 Q742.89 1539.59 745.723 1538.13 Q748.555 1536.63 751.961 1536.63 Q759.122 1536.63 763.26 1540.99 Q767.43 1545.32 767.43 1552.8 Q767.43 1560.12 763.101 1564.54 Q758.772 1568.97 751.579 1568.97 Q743.335 1568.97 738.975 1562.66 Q734.614 1556.33 734.614 1544.33 Q734.614 1533.06 739.962 1526.38 Q745.309 1519.66 754.316 1519.66 Q756.735 1519.66 759.186 1520.14 Q761.669 1520.62 764.342 1521.57 Z" fill="#000000" fill-rule="evenodd" fill-opacity="1" /><path clip-path="url(#clip580)" d="M819.247 1542.04 L819.247 1547.71 Q815.905 1550.22 813.04 1551.3 Q810.207 1552.38 807.12 1552.38 Q803.619 1552.38 798.972 1550.51 Q798.622 1550.38 798.462 1550.32 Q798.24 1550.22 797.762 1550.06 Q792.829 1548.09 789.837 1548.09 Q787.036 1548.09 784.299 1549.33 Q781.562 1550.54 778.442 1553.18 L778.442 1547.51 Q781.784 1545 784.617 1543.92 Q787.482 1542.8 790.569 1542.8 Q794.07 1542.8 798.749 1544.71 Q799.067 1544.84 799.226 1544.9 Q799.481 1545 799.927 1545.16 Q804.86 1547.13 807.852 1547.13 Q810.589 1547.13 813.263 1545.92 Q815.968 1544.71 819.247 1542.04 Z" fill="#000000" fill-rule="evenodd" fill-opacity="1" /><path clip-path="url(#clip580)" d="M834.238 1562.63 L844.741 1562.63 L844.741 1526.38 L833.315 1528.67 L833.315 1522.82 L844.677 1520.52 L851.107 1520.52 L851.107 1562.63 L861.61 1562.63 L861.61 1568.04 L834.238 1568.04 L834.238 1562.63 Z" fill="#000000" fill-rule="evenodd" fill-opacity="1" /><path clip-path="url(#clip580)" d="M880.134 1562.63 L902.574 1562.63 L902.574 1568.04 L872.4 1568.04 L872.4 1562.63 Q876.06 1558.85 882.362 1552.48 Q888.696 1546.08 890.32 1544.24 Q893.407 1540.77 894.616 1538.38 Q895.858 1535.96 895.858 1533.64 Q895.858 1529.85 893.184 1527.46 Q890.542 1525.08 886.277 1525.08 Q883.254 1525.08 879.88 1526.13 Q876.538 1527.18 872.718 1529.31 L872.718 1522.82 Q876.602 1521.26 879.975 1520.46 Q883.349 1519.66 886.15 1519.66 Q893.534 1519.66 897.927 1523.36 Q902.319 1527.05 902.319 1533.22 Q902.319 1536.15 901.205 1538.79 Q900.123 1541.4 897.226 1544.97 Q896.431 1545.89 892.166 1550.32 Q887.901 1554.71 880.134 1562.63 Z" fill="#000000" fill-rule="evenodd" fill-opacity="1" /><polyline clip-path="url(#clip582)" style="stroke:#000000; stroke-linecap:round; stroke-linejoin:round; stroke-width:2; stroke-opacity:0.1; fill:none" points="
  170.857,1384.24 1152.76,1384.24 
  "/>
<polyline clip-path="url(#clip582)" style="stroke:#000000; stroke-linecap:round; stroke-linejoin:round; stroke-width:2; stroke-opacity:0.1; fill:none" points="
  170.857,1091.88 1152.76,1091.88 
  "/>
<polyline clip-path="url(#clip582)" style="stroke:#000000; stroke-linecap:round; stroke-linejoin:round; stroke-width:2; stroke-opacity:0.1; fill:none" points="
  170.857,799.53 1152.76,799.53 
  "/>
<polyline clip-path="url(#clip582)" style="stroke:#000000; stroke-linecap:round; stroke-linejoin:round; stroke-width:2; stroke-opacity:0.1; fill:none" points="
  170.857,507.176 1152.76,507.176 
  "/>
<polyline clip-path="url(#clip582)" style="stroke:#000000; stroke-linecap:round; stroke-linejoin:round; stroke-width:2; stroke-opacity:0.1; fill:none" points="
  170.857,214.822 1152.76,214.822 
  "/>
<polyline clip-path="url(#clip580)" style="stroke:#000000; stroke-linecap:round; stroke-linejoin:round; stroke-width:4; stroke-opacity:1; fill:none" points="
  170.857,1423.18 170.857,47.2441 
  "/>
<polyline clip-path="url(#clip580)" style="stroke:#000000; stroke-linecap:round; stroke-linejoin:round; stroke-width:4; stroke-opacity:1; fill:none" points="
  170.857,1384.24 189.755,1384.24 
  "/>
<polyline clip-path="url(#clip580)" style="stroke:#000000; stroke-linecap:round; stroke-linejoin:round; stroke-width:4; stroke-opacity:1; fill:none" points="
  170.857,1091.88 189.755,1091.88 
  "/>
<polyline clip-path="url(#clip580)" style="stroke:#000000; stroke-linecap:round; stroke-linejoin:round; stroke-width:4; stroke-opacity:1; fill:none" points="
  170.857,799.53 189.755,799.53 
  "/>
<polyline clip-path="url(#clip580)" style="stroke:#000000; stroke-linecap:round; stroke-linejoin:round; stroke-width:4; stroke-opacity:1; fill:none" points="
  170.857,507.176 189.755,507.176 
  "/>
<polyline clip-path="url(#clip580)" style="stroke:#000000; stroke-linecap:round; stroke-linejoin:round; stroke-width:4; stroke-opacity:1; fill:none" points="
  170.857,214.822 189.755,214.822 
  "/>
<path clip-path="url(#clip580)" d="M122.913 1370.04 Q119.302 1370.04 117.473 1373.6 Q115.668 1377.14 115.668 1384.27 Q115.668 1391.38 117.473 1394.94 Q119.302 1398.49 122.913 1398.49 Q126.547 1398.49 128.353 1394.94 Q130.182 1391.38 130.182 1384.27 Q130.182 1377.14 128.353 1373.6 Q126.547 1370.04 122.913 1370.04 M122.913 1366.33 Q128.723 1366.33 131.779 1370.94 Q134.857 1375.52 134.857 1384.27 Q134.857 1393 131.779 1397.61 Q128.723 1402.19 122.913 1402.19 Q117.103 1402.19 114.024 1397.61 Q110.969 1393 110.969 1384.27 Q110.969 1375.52 114.024 1370.94 Q117.103 1366.33 122.913 1366.33 Z" fill="#000000" fill-rule="evenodd" fill-opacity="1" /><path clip-path="url(#clip580)" d="M82.7975 1074.6 L101.154 1074.6 L101.154 1078.54 L87.0799 1078.54 L87.0799 1087.01 Q88.0984 1086.66 89.1169 1086.5 Q90.1354 1086.32 91.1539 1086.32 Q96.941 1086.32 100.321 1089.49 Q103.7 1092.66 103.7 1098.08 Q103.7 1103.65 100.228 1106.76 Q96.7558 1109.84 90.4364 1109.84 Q88.2604 1109.84 85.9919 1109.47 Q83.7466 1109.09 81.3392 1108.35 L81.3392 1103.65 Q83.4225 1104.79 85.6447 1105.34 Q87.8669 1105.9 90.3438 1105.9 Q94.3484 1105.9 96.6863 1103.79 Q99.0243 1101.69 99.0243 1098.08 Q99.0243 1094.47 96.6863 1092.36 Q94.3484 1090.25 90.3438 1090.25 Q88.4688 1090.25 86.5938 1090.67 Q84.7419 1091.09 82.7975 1091.97 L82.7975 1074.6 Z" fill="#000000" fill-rule="evenodd" fill-opacity="1" /><path clip-path="url(#clip580)" d="M122.913 1077.68 Q119.302 1077.68 117.473 1081.25 Q115.668 1084.79 115.668 1091.92 Q115.668 1099.03 117.473 1102.59 Q119.302 1106.13 122.913 1106.13 Q126.547 1106.13 128.353 1102.59 Q130.182 1099.03 130.182 1091.92 Q130.182 1084.79 128.353 1081.25 Q126.547 1077.68 122.913 1077.68 M122.913 1073.98 Q128.723 1073.98 131.779 1078.59 Q134.857 1083.17 134.857 1091.92 Q134.857 1100.65 131.779 1105.25 Q128.723 1109.84 122.913 1109.84 Q117.103 1109.84 114.024 1105.25 Q110.969 1100.65 110.969 1091.92 Q110.969 1083.17 114.024 1078.59 Q117.103 1073.98 122.913 1073.98 Z" fill="#000000" fill-rule="evenodd" fill-opacity="1" /><path clip-path="url(#clip580)" d="M53.3995 812.875 L61.0384 812.875 L61.0384 786.509 L52.7282 788.176 L52.7282 783.917 L60.9921 782.25 L65.668 782.25 L65.668 812.875 L73.3068 812.875 L73.3068 816.81 L53.3995 816.81 L53.3995 812.875 Z" fill="#000000" fill-rule="evenodd" fill-opacity="1" /><path clip-path="url(#clip580)" d="M92.7512 785.329 Q89.1401 785.329 87.3114 788.893 Q85.5058 792.435 85.5058 799.565 Q85.5058 806.671 87.3114 810.236 Q89.1401 813.777 92.7512 813.777 Q96.3854 813.777 98.1909 810.236 Q100.02 806.671 100.02 799.565 Q100.02 792.435 98.1909 788.893 Q96.3854 785.329 92.7512 785.329 M92.7512 781.625 Q98.5613 781.625 101.617 786.231 Q104.696 790.815 104.696 799.565 Q104.696 808.291 101.617 812.898 Q98.5613 817.481 92.7512 817.481 Q86.941 817.481 83.8623 812.898 Q80.8068 808.291 80.8068 799.565 Q80.8068 790.815 83.8623 786.231 Q86.941 781.625 92.7512 781.625 Z" fill="#000000" fill-rule="evenodd" fill-opacity="1" /><path clip-path="url(#clip580)" d="M122.913 785.329 Q119.302 785.329 117.473 788.893 Q115.668 792.435 115.668 799.565 Q115.668 806.671 117.473 810.236 Q119.302 813.777 122.913 813.777 Q126.547 813.777 128.353 810.236 Q130.182 806.671 130.182 799.565 Q130.182 792.435 128.353 788.893 Q126.547 785.329 122.913 785.329 M122.913 781.625 Q128.723 781.625 131.779 786.231 Q134.857 790.815 134.857 799.565 Q134.857 808.291 131.779 812.898 Q128.723 817.481 122.913 817.481 Q117.103 817.481 114.024 812.898 Q110.969 808.291 110.969 799.565 Q110.969 790.815 114.024 786.231 Q117.103 781.625 122.913 781.625 Z" fill="#000000" fill-rule="evenodd" fill-opacity="1" /><path clip-path="url(#clip580)" d="M53.3995 520.521 L61.0384 520.521 L61.0384 494.155 L52.7282 495.822 L52.7282 491.562 L60.9921 489.896 L65.668 489.896 L65.668 520.521 L73.3068 520.521 L73.3068 524.456 L53.3995 524.456 L53.3995 520.521 Z" fill="#000000" fill-rule="evenodd" fill-opacity="1" /><path clip-path="url(#clip580)" d="M82.7975 489.896 L101.154 489.896 L101.154 493.831 L87.0799 493.831 L87.0799 502.303 Q88.0984 501.956 89.1169 501.794 Q90.1354 501.609 91.1539 501.609 Q96.941 501.609 100.321 504.78 Q103.7 507.951 103.7 513.368 Q103.7 518.946 100.228 522.048 Q96.7558 525.127 90.4364 525.127 Q88.2604 525.127 85.9919 524.757 Q83.7466 524.386 81.3392 523.646 L81.3392 518.946 Q83.4225 520.081 85.6447 520.636 Q87.8669 521.192 90.3438 521.192 Q94.3484 521.192 96.6863 519.085 Q99.0243 516.979 99.0243 513.368 Q99.0243 509.757 96.6863 507.65 Q94.3484 505.544 90.3438 505.544 Q88.4688 505.544 86.5938 505.96 Q84.7419 506.377 82.7975 507.257 L82.7975 489.896 Z" fill="#000000" fill-rule="evenodd" fill-opacity="1" /><path clip-path="url(#clip580)" d="M122.913 492.974 Q119.302 492.974 117.473 496.539 Q115.668 500.081 115.668 507.21 Q115.668 514.317 117.473 517.882 Q119.302 521.423 122.913 521.423 Q126.547 521.423 128.353 517.882 Q130.182 514.317 130.182 507.21 Q130.182 500.081 128.353 496.539 Q126.547 492.974 122.913 492.974 M122.913 489.271 Q128.723 489.271 131.779 493.877 Q134.857 498.46 134.857 507.21 Q134.857 515.937 131.779 520.544 Q128.723 525.127 122.913 525.127 Q117.103 525.127 114.024 520.544 Q110.969 515.937 110.969 507.21 Q110.969 498.46 114.024 493.877 Q117.103 489.271 122.913 489.271 Z" fill="#000000" fill-rule="evenodd" fill-opacity="1" /><path clip-path="url(#clip580)" d="M56.6171 228.166 L72.9365 228.166 L72.9365 232.102 L50.9921 232.102 L50.9921 228.166 Q53.6541 225.412 58.2375 220.782 Q62.8439 216.129 64.0245 214.787 Q66.2698 212.264 67.1494 210.528 Q68.0522 208.768 68.0522 207.079 Q68.0522 204.324 66.1078 202.588 Q64.1865 200.852 61.0847 200.852 Q58.8856 200.852 56.4319 201.616 Q54.0014 202.379 51.2236 203.93 L51.2236 199.208 Q54.0477 198.074 56.5014 197.495 Q58.955 196.917 60.9921 196.917 Q66.3624 196.917 69.5568 199.602 Q72.7513 202.287 72.7513 206.778 Q72.7513 208.907 71.9411 210.828 Q71.1541 212.727 69.0476 215.319 Q68.4689 215.99 65.367 219.208 Q62.2652 222.402 56.6171 228.166 Z" fill="#000000" fill-rule="evenodd" fill-opacity="1" /><path clip-path="url(#clip580)" d="M92.7512 200.62 Q89.1401 200.62 87.3114 204.185 Q85.5058 207.727 85.5058 214.856 Q85.5058 221.963 87.3114 225.527 Q89.1401 229.069 92.7512 229.069 Q96.3854 229.069 98.1909 225.527 Q100.02 221.963 100.02 214.856 Q100.02 207.727 98.1909 204.185 Q96.3854 200.62 92.7512 200.62 M92.7512 196.917 Q98.5613 196.917 101.617 201.523 Q104.696 206.106 104.696 214.856 Q104.696 223.583 101.617 228.189 Q98.5613 232.773 92.7512 232.773 Q86.941 232.773 83.8623 228.189 Q80.8068 223.583 80.8068 214.856 Q80.8068 206.106 83.8623 201.523 Q86.941 196.917 92.7512 196.917 Z" fill="#000000" fill-rule="evenodd" fill-opacity="1" /><path clip-path="url(#clip580)" d="M122.913 200.62 Q119.302 200.62 117.473 204.185 Q115.668 207.727 115.668 214.856 Q115.668 221.963 117.473 225.527 Q119.302 229.069 122.913 229.069 Q126.547 229.069 128.353 225.527 Q130.182 221.963 130.182 214.856 Q130.182 207.727 128.353 204.185 Q126.547 200.62 122.913 200.62 M122.913 196.917 Q128.723 196.917 131.779 201.523 Q134.857 206.106 134.857 214.856 Q134.857 223.583 131.779 228.189 Q128.723 232.773 122.913 232.773 Q117.103 232.773 114.024 228.189 Q110.969 223.583 110.969 214.856 Q110.969 206.106 114.024 201.523 Q117.103 196.917 122.913 196.917 Z" fill="#000000" fill-rule="evenodd" fill-opacity="1" /><path clip-path="url(#clip582)" d="
M224.864 548.105 L224.864 1384.24 L327.674 1384.24 L327.674 548.105 L224.864 548.105 L224.864 548.105  Z
  " fill="#009af9" fill-rule="evenodd" fill-opacity="1"/>
<polyline clip-path="url(#clip582)" style="stroke:#000000; stroke-linecap:round; stroke-linejoin:round; stroke-width:4; stroke-opacity:1; fill:none" points="
  224.864,548.105 224.864,1384.24 327.674,1384.24 327.674,548.105 224.864,548.105 
  "/>
<path clip-path="url(#clip582)" d="
M353.376 898.93 L353.376 1384.24 L456.186 1384.24 L456.186 898.93 L353.376 898.93 L353.376 898.93  Z
  " fill="#009af9" fill-rule="evenodd" fill-opacity="1"/>
<polyline clip-path="url(#clip582)" style="stroke:#000000; stroke-linecap:round; stroke-linejoin:round; stroke-width:4; stroke-opacity:1; fill:none" points="
  353.376,898.93 353.376,1384.24 456.186,1384.24 456.186,898.93 353.376,898.93 
  "/>
<path clip-path="url(#clip582)" d="
M481.889 1267.3 L481.889 1384.24 L584.699 1384.24 L584.699 1267.3 L481.889 1267.3 L481.889 1267.3  Z
  " fill="#009af9" fill-rule="evenodd" fill-opacity="1"/>
<polyline clip-path="url(#clip582)" style="stroke:#000000; stroke-linecap:round; stroke-linejoin:round; stroke-width:4; stroke-opacity:1; fill:none" points="
  481.889,1267.3 481.889,1384.24 584.699,1384.24 584.699,1267.3 481.889,1267.3 
  "/>
<path clip-path="url(#clip582)" d="
M610.402 1202.98 L610.402 1384.24 L713.212 1384.24 L713.212 1202.98 L610.402 1202.98 L610.402 1202.98  Z
  " fill="#009af9" fill-rule="evenodd" fill-opacity="1"/>
<polyline clip-path="url(#clip582)" style="stroke:#000000; stroke-linecap:round; stroke-linejoin:round; stroke-width:4; stroke-opacity:1; fill:none" points="
  610.402,1202.98 610.402,1384.24 713.212,1384.24 713.212,1202.98 610.402,1202.98 
  "/>
<path clip-path="url(#clip582)" d="
M738.914 770.294 L738.914 1384.24 L841.724 1384.24 L841.724 770.294 L738.914 770.294 L738.914 770.294  Z
  " fill="#009af9" fill-rule="evenodd" fill-opacity="1"/>
<polyline clip-path="url(#clip582)" style="stroke:#000000; stroke-linecap:round; stroke-linejoin:round; stroke-width:4; stroke-opacity:1; fill:none" points="
  738.914,770.294 738.914,1384.24 841.724,1384.24 841.724,770.294 738.914,770.294 
  "/>
<path clip-path="url(#clip582)" d="
M867.427 612.423 L867.427 1384.24 L970.237 1384.24 L970.237 612.423 L867.427 612.423 L867.427 612.423  Z
  " fill="#009af9" fill-rule="evenodd" fill-opacity="1"/>
<polyline clip-path="url(#clip582)" style="stroke:#000000; stroke-linecap:round; stroke-linejoin:round; stroke-width:4; stroke-opacity:1; fill:none" points="
  867.427,612.423 867.427,1384.24 970.237,1384.24 970.237,612.423 867.427,612.423 
  "/>
<path clip-path="url(#clip582)" d="
M995.94 86.1857 L995.94 1384.24 L1098.75 1384.24 L1098.75 86.1857 L995.94 86.1857 L995.94 86.1857  Z
  " fill="#009af9" fill-rule="evenodd" fill-opacity="1"/>
<polyline clip-path="url(#clip582)" style="stroke:#000000; stroke-linecap:round; stroke-linejoin:round; stroke-width:4; stroke-opacity:1; fill:none" points="
  995.94,86.1857 995.94,1384.24 1098.75,1384.24 1098.75,86.1857 995.94,86.1857 
  "/>
<circle clip-path="url(#clip582)" style="fill:#009af9; stroke:none; fill-opacity:0" cx="276.269" cy="548.105" r="2"/>
<circle clip-path="url(#clip582)" style="fill:#009af9; stroke:none; fill-opacity:0" cx="404.781" cy="898.93" r="2"/>
<circle clip-path="url(#clip582)" style="fill:#009af9; stroke:none; fill-opacity:0" cx="533.294" cy="1267.3" r="2"/>
<circle clip-path="url(#clip582)" style="fill:#009af9; stroke:none; fill-opacity:0" cx="661.807" cy="1202.98" r="2"/>
<circle clip-path="url(#clip582)" style="fill:#009af9; stroke:none; fill-opacity:0" cx="790.319" cy="770.294" r="2"/>
<circle clip-path="url(#clip582)" style="fill:#009af9; stroke:none; fill-opacity:0" cx="918.832" cy="612.423" r="2"/>
<circle clip-path="url(#clip582)" style="fill:#009af9; stroke:none; fill-opacity:0" cx="1047.34" cy="86.1857" r="2"/>
<path clip-path="url(#clip580)" d="
M1370.86 1423.18 L2352.76 1423.18 L2352.76 47.2441 L1370.86 47.2441  Z
  " fill="#ffffff" fill-rule="evenodd" fill-opacity="1"/>
<defs>
  <clipPath id="clip583">
    <rect x="1370" y="47" width="983" height="1377"/>
  </clipPath>
</defs>
<polyline clip-path="url(#clip583)" style="stroke:#000000; stroke-linecap:round; stroke-linejoin:round; stroke-width:2; stroke-opacity:0.1; fill:none" points="
  1476.27,1423.18 1476.27,47.2441 
  "/>
<polyline clip-path="url(#clip583)" style="stroke:#000000; stroke-linecap:round; stroke-linejoin:round; stroke-width:2; stroke-opacity:0.1; fill:none" points="
  1604.78,1423.18 1604.78,47.2441 
  "/>
<polyline clip-path="url(#clip583)" style="stroke:#000000; stroke-linecap:round; stroke-linejoin:round; stroke-width:2; stroke-opacity:0.1; fill:none" points="
  1733.29,1423.18 1733.29,47.2441 
  "/>
<polyline clip-path="url(#clip583)" style="stroke:#000000; stroke-linecap:round; stroke-linejoin:round; stroke-width:2; stroke-opacity:0.1; fill:none" points="
  1861.81,1423.18 1861.81,47.2441 
  "/>
<polyline clip-path="url(#clip583)" style="stroke:#000000; stroke-linecap:round; stroke-linejoin:round; stroke-width:2; stroke-opacity:0.1; fill:none" points="
  1990.32,1423.18 1990.32,47.2441 
  "/>
<polyline clip-path="url(#clip583)" style="stroke:#000000; stroke-linecap:round; stroke-linejoin:round; stroke-width:2; stroke-opacity:0.1; fill:none" points="
  2118.83,1423.18 2118.83,47.2441 
  "/>
<polyline clip-path="url(#clip583)" style="stroke:#000000; stroke-linecap:round; stroke-linejoin:round; stroke-width:2; stroke-opacity:0.1; fill:none" points="
  2247.34,1423.18 2247.34,47.2441 
  "/>
<polyline clip-path="url(#clip580)" style="stroke:#000000; stroke-linecap:round; stroke-linejoin:round; stroke-width:4; stroke-opacity:1; fill:none" points="
  1370.86,1423.18 2352.76,1423.18 
  "/>
<polyline clip-path="url(#clip580)" style="stroke:#000000; stroke-linecap:round; stroke-linejoin:round; stroke-width:4; stroke-opacity:1; fill:none" points="
  1476.27,1423.18 1476.27,1404.28 
  "/>
<polyline clip-path="url(#clip580)" style="stroke:#000000; stroke-linecap:round; stroke-linejoin:round; stroke-width:4; stroke-opacity:1; fill:none" points="
  1604.78,1423.18 1604.78,1404.28 
  "/>
<polyline clip-path="url(#clip580)" style="stroke:#000000; stroke-linecap:round; stroke-linejoin:round; stroke-width:4; stroke-opacity:1; fill:none" points="
  1733.29,1423.18 1733.29,1404.28 
  "/>
<polyline clip-path="url(#clip580)" style="stroke:#000000; stroke-linecap:round; stroke-linejoin:round; stroke-width:4; stroke-opacity:1; fill:none" points="
  1861.81,1423.18 1861.81,1404.28 
  "/>
<polyline clip-path="url(#clip580)" style="stroke:#000000; stroke-linecap:round; stroke-linejoin:round; stroke-width:4; stroke-opacity:1; fill:none" points="
  1990.32,1423.18 1990.32,1404.28 
  "/>
<polyline clip-path="url(#clip580)" style="stroke:#000000; stroke-linecap:round; stroke-linejoin:round; stroke-width:4; stroke-opacity:1; fill:none" points="
  2118.83,1423.18 2118.83,1404.28 
  "/>
<polyline clip-path="url(#clip580)" style="stroke:#000000; stroke-linecap:round; stroke-linejoin:round; stroke-width:4; stroke-opacity:1; fill:none" points="
  2247.34,1423.18 2247.34,1404.28 
  "/>
<path clip-path="url(#clip580)" d="M1460.46 1451.02 L1467.43 1451.02 L1476.25 1474.54 L1485.11 1451.02 L1492.08 1451.02 L1492.08 1485.58 L1487.52 1485.58 L1487.52 1455.23 L1478.61 1478.94 L1473.91 1478.94 L1465 1455.23 L1465 1485.58 L1460.46 1485.58 L1460.46 1451.02 Z" fill="#000000" fill-rule="evenodd" fill-opacity="1" /><path clip-path="url(#clip580)" d="M1590.16 1451.02 L1619.4 1451.02 L1619.4 1454.96 L1607.13 1454.96 L1607.13 1485.58 L1602.43 1485.58 L1602.43 1454.96 L1590.16 1454.96 L1590.16 1451.02 Z" fill="#000000" fill-rule="evenodd" fill-opacity="1" /><path clip-path="url(#clip580)" d="M1711.42 1451.02 L1716.14 1451.02 L1723.41 1480.23 L1730.66 1451.02 L1735.91 1451.02 L1743.18 1480.23 L1750.42 1451.02 L1755.17 1451.02 L1746.49 1485.58 L1740.61 1485.58 L1733.32 1455.58 L1725.96 1485.58 L1720.08 1485.58 L1711.42 1451.02 Z" fill="#000000" fill-rule="evenodd" fill-opacity="1" /><path clip-path="url(#clip580)" d="M1831.47 1451.02 L1860.71 1451.02 L1860.71 1454.96 L1848.44 1454.96 L1848.44 1485.58 L1843.74 1485.58 L1843.74 1454.96 L1831.47 1454.96 L1831.47 1451.02 Z" fill="#000000" fill-rule="evenodd" fill-opacity="1" /><path clip-path="url(#clip580)" d="M1881.61 1469.38 Q1883.11 1469.89 1884.53 1471.55 Q1885.96 1473.22 1887.4 1476.14 L1892.14 1485.58 L1887.12 1485.58 L1882.7 1476.71 Q1880.98 1473.24 1879.36 1472.11 Q1877.77 1470.97 1874.99 1470.97 L1869.9 1470.97 L1869.9 1485.58 L1865.22 1485.58 L1865.22 1451.02 L1875.78 1451.02 Q1881.7 1451.02 1884.62 1453.5 Q1887.54 1455.97 1887.54 1460.97 Q1887.54 1464.24 1886.01 1466.39 Q1884.5 1468.54 1881.61 1469.38 M1869.9 1454.86 L1869.9 1467.13 L1875.78 1467.13 Q1879.16 1467.13 1880.87 1465.58 Q1882.61 1464.01 1882.61 1460.97 Q1882.61 1457.94 1880.87 1456.41 Q1879.16 1454.86 1875.78 1454.86 L1869.9 1454.86 Z" fill="#000000" fill-rule="evenodd" fill-opacity="1" /><path clip-path="url(#clip580)" d="M1980.39 1451.02 L2000.25 1451.02 L2000.25 1454.96 L1985.06 1454.96 L1985.06 1465.14 L1998.77 1465.14 L1998.77 1469.08 L1985.06 1469.08 L1985.06 1485.58 L1980.39 1485.58 L1980.39 1451.02 Z" fill="#000000" fill-rule="evenodd" fill-opacity="1" /><path clip-path="url(#clip580)" d="M2104.34 1452.15 L2104.34 1456.71 Q2101.68 1455.44 2099.32 1454.82 Q2096.96 1454.19 2094.76 1454.19 Q2090.94 1454.19 2088.86 1455.67 Q2086.8 1457.15 2086.8 1459.89 Q2086.8 1462.18 2088.16 1463.36 Q2089.55 1464.52 2093.39 1465.23 L2096.22 1465.81 Q2101.45 1466.81 2103.92 1469.33 Q2106.42 1471.83 2106.42 1476.04 Q2106.42 1481.07 2103.05 1483.66 Q2099.69 1486.25 2093.18 1486.25 Q2090.73 1486.25 2087.95 1485.7 Q2085.2 1485.14 2082.23 1484.05 L2082.23 1479.24 Q2085.08 1480.83 2087.81 1481.64 Q2090.55 1482.45 2093.18 1482.45 Q2097.19 1482.45 2099.36 1480.88 Q2101.54 1479.31 2101.54 1476.39 Q2101.54 1473.84 2099.97 1472.41 Q2098.42 1470.97 2094.85 1470.26 L2092 1469.7 Q2086.77 1468.66 2084.43 1466.44 Q2082.1 1464.21 2082.1 1460.26 Q2082.1 1455.67 2085.31 1453.03 Q2088.55 1450.39 2094.23 1450.39 Q2096.66 1450.39 2099.18 1450.83 Q2101.7 1451.27 2104.34 1452.15 Z" fill="#000000" fill-rule="evenodd" fill-opacity="1" /><path clip-path="url(#clip580)" d="M2125.31 1472.55 Q2120.15 1472.55 2118.16 1473.73 Q2116.17 1474.91 2116.17 1477.76 Q2116.17 1480.02 2117.65 1481.37 Q2119.16 1482.69 2121.73 1482.69 Q2125.27 1482.69 2127.4 1480.19 Q2129.55 1477.66 2129.55 1473.5 L2129.55 1472.55 L2125.31 1472.55 M2133.81 1470.79 L2133.81 1485.58 L2129.55 1485.58 L2129.55 1481.64 Q2128.09 1484.01 2125.92 1485.14 Q2123.74 1486.25 2120.59 1486.25 Q2116.61 1486.25 2114.25 1484.03 Q2111.91 1481.78 2111.91 1478.03 Q2111.91 1473.66 2114.83 1471.44 Q2117.77 1469.21 2123.58 1469.21 L2129.55 1469.21 L2129.55 1468.8 Q2129.55 1465.86 2127.61 1464.26 Q2125.68 1462.64 2122.19 1462.64 Q2119.97 1462.64 2117.86 1463.17 Q2115.75 1463.7 2113.81 1464.77 L2113.81 1460.83 Q2116.15 1459.93 2118.35 1459.49 Q2120.54 1459.03 2122.63 1459.03 Q2128.25 1459.03 2131.03 1461.95 Q2133.81 1464.86 2133.81 1470.79 Z" fill="#000000" fill-rule="evenodd" fill-opacity="1" /><path clip-path="url(#clip580)" d="M2146.79 1452.29 L2146.79 1459.65 L2155.57 1459.65 L2155.57 1462.96 L2146.79 1462.96 L2146.79 1477.04 Q2146.79 1480.21 2147.65 1481.11 Q2148.53 1482.02 2151.19 1482.02 L2155.57 1482.02 L2155.57 1485.58 L2151.19 1485.58 Q2146.26 1485.58 2144.39 1483.75 Q2142.51 1481.9 2142.51 1477.04 L2142.51 1462.96 L2139.39 1462.96 L2139.39 1459.65 L2142.51 1459.65 L2142.51 1452.29 L2146.79 1452.29 Z" fill="#000000" fill-rule="evenodd" fill-opacity="1" /><path clip-path="url(#clip580)" d="M2228.07 1452.15 L2228.07 1456.71 Q2225.41 1455.44 2223.05 1454.82 Q2220.69 1454.19 2218.49 1454.19 Q2214.67 1454.19 2212.59 1455.67 Q2210.53 1457.15 2210.53 1459.89 Q2210.53 1462.18 2211.89 1463.36 Q2213.28 1464.52 2217.12 1465.23 L2219.95 1465.81 Q2225.18 1466.81 2227.66 1469.33 Q2230.16 1471.83 2230.16 1476.04 Q2230.16 1481.07 2226.78 1483.66 Q2223.42 1486.25 2216.92 1486.25 Q2214.46 1486.25 2211.69 1485.7 Q2208.93 1485.14 2205.97 1484.05 L2205.97 1479.24 Q2208.81 1480.83 2211.55 1481.64 Q2214.28 1482.45 2216.92 1482.45 Q2220.92 1482.45 2223.1 1480.88 Q2225.27 1479.31 2225.27 1476.39 Q2225.27 1473.84 2223.7 1472.41 Q2222.15 1470.97 2218.58 1470.26 L2215.74 1469.7 Q2210.5 1468.66 2208.17 1466.44 Q2205.83 1464.21 2205.83 1460.26 Q2205.83 1455.67 2209.05 1453.03 Q2212.29 1450.39 2217.96 1450.39 Q2220.39 1450.39 2222.91 1450.83 Q2225.44 1451.27 2228.07 1452.15 Z" fill="#000000" fill-rule="evenodd" fill-opacity="1" /><path clip-path="url(#clip580)" d="M2236.82 1475.35 L2236.82 1459.65 L2241.08 1459.65 L2241.08 1475.19 Q2241.08 1478.87 2242.52 1480.72 Q2243.95 1482.55 2246.82 1482.55 Q2250.27 1482.55 2252.26 1480.35 Q2254.28 1478.15 2254.28 1474.35 L2254.28 1459.65 L2258.54 1459.65 L2258.54 1485.58 L2254.28 1485.58 L2254.28 1481.6 Q2252.73 1483.96 2250.67 1485.12 Q2248.63 1486.25 2245.92 1486.25 Q2241.45 1486.25 2239.14 1483.47 Q2236.82 1480.7 2236.82 1475.35 M2247.54 1459.03 L2247.54 1459.03 Z" fill="#000000" fill-rule="evenodd" fill-opacity="1" /><path clip-path="url(#clip580)" d="M2288.86 1469.93 L2288.86 1485.58 L2284.6 1485.58 L2284.6 1470.07 Q2284.6 1466.39 2283.17 1464.56 Q2281.73 1462.73 2278.86 1462.73 Q2275.41 1462.73 2273.42 1464.93 Q2271.43 1467.13 2271.43 1470.93 L2271.43 1485.58 L2267.15 1485.58 L2267.15 1459.65 L2271.43 1459.65 L2271.43 1463.68 Q2272.96 1461.34 2275.02 1460.19 Q2277.1 1459.03 2279.81 1459.03 Q2284.28 1459.03 2286.57 1461.81 Q2288.86 1464.56 2288.86 1469.93 Z" fill="#000000" fill-rule="evenodd" fill-opacity="1" /><path clip-path="url(#clip580)" d="M1621.04 1520.52 L1627.47 1520.52 L1627.47 1540 L1650.83 1540 L1650.83 1520.52 L1657.26 1520.52 L1657.26 1568.04 L1650.83 1568.04 L1650.83 1545.41 L1627.47 1545.41 L1627.47 1568.04 L1621.04 1568.04 L1621.04 1520.52 Z" fill="#000000" fill-rule="evenodd" fill-opacity="1" /><path clip-path="url(#clip580)" d="M1684.63 1571.35 Q1682.15 1577.72 1679.8 1579.66 Q1677.44 1581.6 1673.49 1581.6 L1668.81 1581.6 L1668.81 1576.7 L1672.25 1576.7 Q1674.67 1576.7 1676.01 1575.56 Q1677.34 1574.41 1678.97 1570.14 L1680.02 1567.47 L1665.6 1532.4 L1671.81 1532.4 L1682.95 1560.28 L1694.09 1532.4 L1700.29 1532.4 L1684.63 1571.35 Z" fill="#000000" fill-rule="evenodd" fill-opacity="1" /><path clip-path="url(#clip580)" d="M1731.83 1537.81 L1731.83 1518.52 L1737.69 1518.52 L1737.69 1568.04 L1731.83 1568.04 L1731.83 1562.7 Q1729.99 1565.88 1727.16 1567.44 Q1724.36 1568.97 1720.41 1568.97 Q1713.95 1568.97 1709.87 1563.81 Q1705.83 1558.65 1705.83 1550.25 Q1705.83 1541.85 1709.87 1536.69 Q1713.95 1531.54 1720.41 1531.54 Q1724.36 1531.54 1727.16 1533.1 Q1729.99 1534.62 1731.83 1537.81 M1711.88 1550.25 Q1711.88 1556.71 1714.52 1560.4 Q1717.19 1564.07 1721.84 1564.07 Q1726.49 1564.07 1729.16 1560.4 Q1731.83 1556.71 1731.83 1550.25 Q1731.83 1543.79 1729.16 1540.13 Q1726.49 1536.44 1721.84 1536.44 Q1717.19 1536.44 1714.52 1540.13 Q1711.88 1543.79 1711.88 1550.25 Z" fill="#000000" fill-rule="evenodd" fill-opacity="1" /><path clip-path="url(#clip580)" d="M1780.25 1548.76 L1780.25 1551.62 L1753.32 1551.62 Q1753.7 1557.67 1756.95 1560.85 Q1760.23 1564 1766.05 1564 Q1769.42 1564 1772.58 1563.17 Q1775.76 1562.35 1778.88 1560.69 L1778.88 1566.23 Q1775.73 1567.57 1772.42 1568.27 Q1769.11 1568.97 1765.7 1568.97 Q1757.17 1568.97 1752.17 1564 Q1747.21 1559.04 1747.21 1550.57 Q1747.21 1541.82 1751.92 1536.69 Q1756.66 1531.54 1764.68 1531.54 Q1771.88 1531.54 1776.04 1536.18 Q1780.25 1540.8 1780.25 1548.76 M1774.39 1547.04 Q1774.33 1542.23 1771.68 1539.37 Q1769.07 1536.5 1764.75 1536.5 Q1759.84 1536.5 1756.88 1539.27 Q1753.96 1542.04 1753.51 1547.07 L1774.39 1547.04 Z" fill="#000000" fill-rule="evenodd" fill-opacity="1" /><path clip-path="url(#clip580)" d="M1791.35 1559.96 L1798.07 1559.96 L1798.07 1565.43 L1792.85 1575.62 L1788.74 1575.62 L1791.35 1565.43 L1791.35 1559.96 Z" fill="#000000" fill-rule="evenodd" fill-opacity="1" /><path clip-path="url(#clip580)" d="M1845.88 1524.76 Q1840.91 1524.76 1838.4 1529.66 Q1835.91 1534.53 1835.91 1544.33 Q1835.91 1554.1 1838.4 1559 Q1840.91 1563.87 1845.88 1563.87 Q1850.87 1563.87 1853.36 1559 Q1855.87 1554.1 1855.87 1544.33 Q1855.87 1534.53 1853.36 1529.66 Q1850.87 1524.76 1845.88 1524.76 M1845.88 1519.66 Q1853.87 1519.66 1858.07 1526 Q1862.3 1532.3 1862.3 1544.33 Q1862.3 1556.33 1858.07 1562.66 Q1853.87 1568.97 1845.88 1568.97 Q1837.89 1568.97 1833.65 1562.66 Q1829.45 1556.33 1829.45 1544.33 Q1829.45 1532.3 1833.65 1526 Q1837.89 1519.66 1845.88 1519.66 Z" fill="#000000" fill-rule="evenodd" fill-opacity="1" /><path clip-path="url(#clip580)" d="M1873.66 1520.52 L1898.9 1520.52 L1898.9 1525.93 L1879.55 1525.93 L1879.55 1537.58 Q1880.95 1537.11 1882.35 1536.88 Q1883.75 1536.63 1885.15 1536.63 Q1893.11 1536.63 1897.76 1540.99 Q1902.4 1545.35 1902.4 1552.8 Q1902.4 1560.47 1897.63 1564.73 Q1892.86 1568.97 1884.17 1568.97 Q1881.17 1568.97 1878.06 1568.46 Q1874.97 1567.95 1871.66 1566.93 L1871.66 1560.47 Q1874.52 1562.03 1877.58 1562.79 Q1880.63 1563.56 1884.04 1563.56 Q1889.55 1563.56 1892.76 1560.66 Q1895.97 1557.76 1895.97 1552.8 Q1895.97 1547.83 1892.76 1544.94 Q1889.55 1542.04 1884.04 1542.04 Q1881.46 1542.04 1878.88 1542.61 Q1876.34 1543.19 1873.66 1544.4 L1873.66 1520.52 Z" fill="#000000" fill-rule="evenodd" fill-opacity="1" /><path clip-path="url(#clip580)" d="M1924.65 1520.52 L1930.06 1520.52 L1913.51 1574.09 L1908.1 1574.09 L1924.65 1520.52 Z" fill="#000000" fill-rule="evenodd" fill-opacity="1" /><path clip-path="url(#clip580)" d="M1951.58 1541.72 Q1947.25 1541.72 1944.7 1544.68 Q1942.19 1547.64 1942.19 1552.8 Q1942.19 1557.92 1944.7 1560.91 Q1947.25 1563.87 1951.58 1563.87 Q1955.91 1563.87 1958.42 1560.91 Q1960.97 1557.92 1960.97 1552.8 Q1960.97 1547.64 1958.42 1544.68 Q1955.91 1541.72 1951.58 1541.72 M1964.34 1521.57 L1964.34 1527.43 Q1961.92 1526.28 1959.44 1525.68 Q1956.99 1525.08 1954.57 1525.08 Q1948.21 1525.08 1944.83 1529.37 Q1941.49 1533.67 1941.01 1542.36 Q1942.89 1539.59 1945.72 1538.13 Q1948.56 1536.63 1951.96 1536.63 Q1959.12 1536.63 1963.26 1540.99 Q1967.43 1545.32 1967.43 1552.8 Q1967.43 1560.12 1963.1 1564.54 Q1958.77 1568.97 1951.58 1568.97 Q1943.34 1568.97 1938.97 1562.66 Q1934.61 1556.33 1934.61 1544.33 Q1934.61 1533.06 1939.96 1526.38 Q1945.31 1519.66 1954.32 1519.66 Q1956.74 1519.66 1959.19 1520.14 Q1961.67 1520.62 1964.34 1521.57 Z" fill="#000000" fill-rule="evenodd" fill-opacity="1" /><path clip-path="url(#clip580)" d="M2019.25 1542.04 L2019.25 1547.71 Q2015.9 1550.22 2013.04 1551.3 Q2010.21 1552.38 2007.12 1552.38 Q2003.62 1552.38 1998.97 1550.51 Q1998.62 1550.38 1998.46 1550.32 Q1998.24 1550.22 1997.76 1550.06 Q1992.83 1548.09 1989.84 1548.09 Q1987.04 1548.09 1984.3 1549.33 Q1981.56 1550.54 1978.44 1553.18 L1978.44 1547.51 Q1981.78 1545 1984.62 1543.92 Q1987.48 1542.8 1990.57 1542.8 Q1994.07 1542.8 1998.75 1544.71 Q1999.07 1544.84 1999.23 1544.9 Q1999.48 1545 1999.93 1545.16 Q2004.86 1547.13 2007.85 1547.13 Q2010.59 1547.13 2013.26 1545.92 Q2015.97 1544.71 2019.25 1542.04 Z" fill="#000000" fill-rule="evenodd" fill-opacity="1" /><path clip-path="url(#clip580)" d="M2034.24 1562.63 L2044.74 1562.63 L2044.74 1526.38 L2033.31 1528.67 L2033.31 1522.82 L2044.68 1520.52 L2051.11 1520.52 L2051.11 1562.63 L2061.61 1562.63 L2061.61 1568.04 L2034.24 1568.04 L2034.24 1562.63 Z" fill="#000000" fill-rule="evenodd" fill-opacity="1" /><path clip-path="url(#clip580)" d="M2080.13 1562.63 L2102.57 1562.63 L2102.57 1568.04 L2072.4 1568.04 L2072.4 1562.63 Q2076.06 1558.85 2082.36 1552.48 Q2088.7 1546.08 2090.32 1544.24 Q2093.41 1540.77 2094.62 1538.38 Q2095.86 1535.96 2095.86 1533.64 Q2095.86 1529.85 2093.18 1527.46 Q2090.54 1525.08 2086.28 1525.08 Q2083.25 1525.08 2079.88 1526.13 Q2076.54 1527.18 2072.72 1529.31 L2072.72 1522.82 Q2076.6 1521.26 2079.98 1520.46 Q2083.35 1519.66 2086.15 1519.66 Q2093.53 1519.66 2097.93 1523.36 Q2102.32 1527.05 2102.32 1533.22 Q2102.32 1536.15 2101.2 1538.79 Q2100.12 1541.4 2097.23 1544.97 Q2096.43 1545.89 2092.17 1550.32 Q2087.9 1554.71 2080.13 1562.63 Z" fill="#000000" fill-rule="evenodd" fill-opacity="1" /><polyline clip-path="url(#clip583)" style="stroke:#000000; stroke-linecap:round; stroke-linejoin:round; stroke-width:2; stroke-opacity:0.1; fill:none" points="
  1370.86,1384.24 2352.76,1384.24 
  "/>
<polyline clip-path="url(#clip583)" style="stroke:#000000; stroke-linecap:round; stroke-linejoin:round; stroke-width:2; stroke-opacity:0.1; fill:none" points="
  1370.86,1090.56 2352.76,1090.56 
  "/>
<polyline clip-path="url(#clip583)" style="stroke:#000000; stroke-linecap:round; stroke-linejoin:round; stroke-width:2; stroke-opacity:0.1; fill:none" points="
  1370.86,796.884 2352.76,796.884 
  "/>
<polyline clip-path="url(#clip583)" style="stroke:#000000; stroke-linecap:round; stroke-linejoin:round; stroke-width:2; stroke-opacity:0.1; fill:none" points="
  1370.86,503.207 2352.76,503.207 
  "/>
<polyline clip-path="url(#clip583)" style="stroke:#000000; stroke-linecap:round; stroke-linejoin:round; stroke-width:2; stroke-opacity:0.1; fill:none" points="
  1370.86,209.53 2352.76,209.53 
  "/>
<polyline clip-path="url(#clip580)" style="stroke:#000000; stroke-linecap:round; stroke-linejoin:round; stroke-width:4; stroke-opacity:1; fill:none" points="
  1370.86,1423.18 1370.86,47.2441 
  "/>
<polyline clip-path="url(#clip580)" style="stroke:#000000; stroke-linecap:round; stroke-linejoin:round; stroke-width:4; stroke-opacity:1; fill:none" points="
  1370.86,1384.24 1389.76,1384.24 
  "/>
<polyline clip-path="url(#clip580)" style="stroke:#000000; stroke-linecap:round; stroke-linejoin:round; stroke-width:4; stroke-opacity:1; fill:none" points="
  1370.86,1090.56 1389.76,1090.56 
  "/>
<polyline clip-path="url(#clip580)" style="stroke:#000000; stroke-linecap:round; stroke-linejoin:round; stroke-width:4; stroke-opacity:1; fill:none" points="
  1370.86,796.884 1389.76,796.884 
  "/>
<polyline clip-path="url(#clip580)" style="stroke:#000000; stroke-linecap:round; stroke-linejoin:round; stroke-width:4; stroke-opacity:1; fill:none" points="
  1370.86,503.207 1389.76,503.207 
  "/>
<polyline clip-path="url(#clip580)" style="stroke:#000000; stroke-linecap:round; stroke-linejoin:round; stroke-width:4; stroke-opacity:1; fill:none" points="
  1370.86,209.53 1389.76,209.53 
  "/>
<path clip-path="url(#clip580)" d="M1322.91 1370.04 Q1319.3 1370.04 1317.47 1373.6 Q1315.67 1377.14 1315.67 1384.27 Q1315.67 1391.38 1317.47 1394.94 Q1319.3 1398.49 1322.91 1398.49 Q1326.55 1398.49 1328.35 1394.94 Q1330.18 1391.38 1330.18 1384.27 Q1330.18 1377.14 1328.35 1373.6 Q1326.55 1370.04 1322.91 1370.04 M1322.91 1366.33 Q1328.72 1366.33 1331.78 1370.94 Q1334.86 1375.52 1334.86 1384.27 Q1334.86 1393 1331.78 1397.61 Q1328.72 1402.19 1322.91 1402.19 Q1317.1 1402.19 1314.02 1397.61 Q1310.97 1393 1310.97 1384.27 Q1310.97 1375.52 1314.02 1370.94 Q1317.1 1366.33 1322.91 1366.33 Z" fill="#000000" fill-rule="evenodd" fill-opacity="1" /><path clip-path="url(#clip580)" d="M1282.8 1073.28 L1301.15 1073.28 L1301.15 1077.22 L1287.08 1077.22 L1287.08 1085.69 Q1288.1 1085.34 1289.12 1085.18 Q1290.14 1084.99 1291.15 1084.99 Q1296.94 1084.99 1300.32 1088.17 Q1303.7 1091.34 1303.7 1096.75 Q1303.7 1102.33 1300.23 1105.43 Q1296.76 1108.51 1290.44 1108.51 Q1288.26 1108.51 1285.99 1108.14 Q1283.75 1107.77 1281.34 1107.03 L1281.34 1102.33 Q1283.42 1103.47 1285.64 1104.02 Q1287.87 1104.58 1290.34 1104.58 Q1294.35 1104.58 1296.69 1102.47 Q1299.02 1100.36 1299.02 1096.75 Q1299.02 1093.14 1296.69 1091.04 Q1294.35 1088.93 1290.34 1088.93 Q1288.47 1088.93 1286.59 1089.35 Q1284.74 1089.76 1282.8 1090.64 L1282.8 1073.28 Z" fill="#000000" fill-rule="evenodd" fill-opacity="1" /><path clip-path="url(#clip580)" d="M1322.91 1076.36 Q1319.3 1076.36 1317.47 1079.92 Q1315.67 1083.47 1315.67 1090.6 Q1315.67 1097.7 1317.47 1101.27 Q1319.3 1104.81 1322.91 1104.81 Q1326.55 1104.81 1328.35 1101.27 Q1330.18 1097.7 1330.18 1090.6 Q1330.18 1083.47 1328.35 1079.92 Q1326.55 1076.36 1322.91 1076.36 M1322.91 1072.66 Q1328.72 1072.66 1331.78 1077.26 Q1334.86 1081.85 1334.86 1090.6 Q1334.86 1099.32 1331.78 1103.93 Q1328.72 1108.51 1322.91 1108.51 Q1317.1 1108.51 1314.02 1103.93 Q1310.97 1099.32 1310.97 1090.6 Q1310.97 1081.85 1314.02 1077.26 Q1317.1 1072.66 1322.91 1072.66 Z" fill="#000000" fill-rule="evenodd" fill-opacity="1" /><path clip-path="url(#clip580)" d="M1253.4 810.229 L1261.04 810.229 L1261.04 783.863 L1252.73 785.53 L1252.73 781.271 L1260.99 779.604 L1265.67 779.604 L1265.67 810.229 L1273.31 810.229 L1273.31 814.164 L1253.4 814.164 L1253.4 810.229 Z" fill="#000000" fill-rule="evenodd" fill-opacity="1" /><path clip-path="url(#clip580)" d="M1292.75 782.683 Q1289.14 782.683 1287.31 786.248 Q1285.51 789.789 1285.51 796.919 Q1285.51 804.025 1287.31 807.59 Q1289.14 811.132 1292.75 811.132 Q1296.39 811.132 1298.19 807.59 Q1300.02 804.025 1300.02 796.919 Q1300.02 789.789 1298.19 786.248 Q1296.39 782.683 1292.75 782.683 M1292.75 778.979 Q1298.56 778.979 1301.62 783.586 Q1304.7 788.169 1304.7 796.919 Q1304.7 805.646 1301.62 810.252 Q1298.56 814.835 1292.75 814.835 Q1286.94 814.835 1283.86 810.252 Q1280.81 805.646 1280.81 796.919 Q1280.81 788.169 1283.86 783.586 Q1286.94 778.979 1292.75 778.979 Z" fill="#000000" fill-rule="evenodd" fill-opacity="1" /><path clip-path="url(#clip580)" d="M1322.91 782.683 Q1319.3 782.683 1317.47 786.248 Q1315.67 789.789 1315.67 796.919 Q1315.67 804.025 1317.47 807.59 Q1319.3 811.132 1322.91 811.132 Q1326.55 811.132 1328.35 807.59 Q1330.18 804.025 1330.18 796.919 Q1330.18 789.789 1328.35 786.248 Q1326.55 782.683 1322.91 782.683 M1322.91 778.979 Q1328.72 778.979 1331.78 783.586 Q1334.86 788.169 1334.86 796.919 Q1334.86 805.646 1331.78 810.252 Q1328.72 814.835 1322.91 814.835 Q1317.1 814.835 1314.02 810.252 Q1310.97 805.646 1310.97 796.919 Q1310.97 788.169 1314.02 783.586 Q1317.1 778.979 1322.91 778.979 Z" fill="#000000" fill-rule="evenodd" fill-opacity="1" /><path clip-path="url(#clip580)" d="M1253.4 516.552 L1261.04 516.552 L1261.04 490.186 L1252.73 491.853 L1252.73 487.594 L1260.99 485.927 L1265.67 485.927 L1265.67 516.552 L1273.31 516.552 L1273.31 520.487 L1253.4 520.487 L1253.4 516.552 Z" fill="#000000" fill-rule="evenodd" fill-opacity="1" /><path clip-path="url(#clip580)" d="M1282.8 485.927 L1301.15 485.927 L1301.15 489.862 L1287.08 489.862 L1287.08 498.334 Q1288.1 497.987 1289.12 497.825 Q1290.14 497.64 1291.15 497.64 Q1296.94 497.64 1300.32 500.811 Q1303.7 503.983 1303.7 509.399 Q1303.7 514.978 1300.23 518.08 Q1296.76 521.158 1290.44 521.158 Q1288.26 521.158 1285.99 520.788 Q1283.75 520.418 1281.34 519.677 L1281.34 514.978 Q1283.42 516.112 1285.64 516.668 Q1287.87 517.223 1290.34 517.223 Q1294.35 517.223 1296.69 515.117 Q1299.02 513.01 1299.02 509.399 Q1299.02 505.788 1296.69 503.682 Q1294.35 501.575 1290.34 501.575 Q1288.47 501.575 1286.59 501.992 Q1284.74 502.408 1282.8 503.288 L1282.8 485.927 Z" fill="#000000" fill-rule="evenodd" fill-opacity="1" /><path clip-path="url(#clip580)" d="M1322.91 489.006 Q1319.3 489.006 1317.47 492.571 Q1315.67 496.112 1315.67 503.242 Q1315.67 510.348 1317.47 513.913 Q1319.3 517.455 1322.91 517.455 Q1326.55 517.455 1328.35 513.913 Q1330.18 510.348 1330.18 503.242 Q1330.18 496.112 1328.35 492.571 Q1326.55 489.006 1322.91 489.006 M1322.91 485.302 Q1328.72 485.302 1331.78 489.909 Q1334.86 494.492 1334.86 503.242 Q1334.86 511.969 1331.78 516.575 Q1328.72 521.158 1322.91 521.158 Q1317.1 521.158 1314.02 516.575 Q1310.97 511.969 1310.97 503.242 Q1310.97 494.492 1314.02 489.909 Q1317.1 485.302 1322.91 485.302 Z" fill="#000000" fill-rule="evenodd" fill-opacity="1" /><path clip-path="url(#clip580)" d="M1256.62 222.875 L1272.94 222.875 L1272.94 226.81 L1250.99 226.81 L1250.99 222.875 Q1253.65 220.12 1258.24 215.491 Q1262.84 210.838 1264.02 209.495 Q1266.27 206.972 1267.15 205.236 Q1268.05 203.477 1268.05 201.787 Q1268.05 199.032 1266.11 197.296 Q1264.19 195.56 1261.08 195.56 Q1258.89 195.56 1256.43 196.324 Q1254 197.088 1251.22 198.639 L1251.22 193.917 Q1254.05 192.782 1256.5 192.204 Q1258.96 191.625 1260.99 191.625 Q1266.36 191.625 1269.56 194.31 Q1272.75 196.995 1272.75 201.486 Q1272.75 203.616 1271.94 205.537 Q1271.15 207.435 1269.05 210.028 Q1268.47 210.699 1265.37 213.917 Q1262.27 217.111 1256.62 222.875 Z" fill="#000000" fill-rule="evenodd" fill-opacity="1" /><path clip-path="url(#clip580)" d="M1292.75 195.329 Q1289.14 195.329 1287.31 198.894 Q1285.51 202.435 1285.51 209.565 Q1285.51 216.671 1287.31 220.236 Q1289.14 223.778 1292.75 223.778 Q1296.39 223.778 1298.19 220.236 Q1300.02 216.671 1300.02 209.565 Q1300.02 202.435 1298.19 198.894 Q1296.39 195.329 1292.75 195.329 M1292.75 191.625 Q1298.56 191.625 1301.62 196.231 Q1304.7 200.815 1304.7 209.565 Q1304.7 218.292 1301.62 222.898 Q1298.56 227.481 1292.75 227.481 Q1286.94 227.481 1283.86 222.898 Q1280.81 218.292 1280.81 209.565 Q1280.81 200.815 1283.86 196.231 Q1286.94 191.625 1292.75 191.625 Z" fill="#000000" fill-rule="evenodd" fill-opacity="1" /><path clip-path="url(#clip580)" d="M1322.91 195.329 Q1319.3 195.329 1317.47 198.894 Q1315.67 202.435 1315.67 209.565 Q1315.67 216.671 1317.47 220.236 Q1319.3 223.778 1322.91 223.778 Q1326.55 223.778 1328.35 220.236 Q1330.18 216.671 1330.18 209.565 Q1330.18 202.435 1328.35 198.894 Q1326.55 195.329 1322.91 195.329 M1322.91 191.625 Q1328.72 191.625 1331.78 196.231 Q1334.86 200.815 1334.86 209.565 Q1334.86 218.292 1331.78 222.898 Q1328.72 227.481 1322.91 227.481 Q1317.1 227.481 1314.02 222.898 Q1310.97 218.292 1310.97 209.565 Q1310.97 200.815 1314.02 196.231 Q1317.1 191.625 1322.91 191.625 Z" fill="#000000" fill-rule="evenodd" fill-opacity="1" /><path clip-path="url(#clip583)" d="
M1424.86 714.655 L1424.86 1384.24 L1527.67 1384.24 L1527.67 714.655 L1424.86 714.655 L1424.86 714.655  Z
  " fill="#009af9" fill-rule="evenodd" fill-opacity="1"/>
<polyline clip-path="url(#clip583)" style="stroke:#000000; stroke-linecap:round; stroke-linejoin:round; stroke-width:4; stroke-opacity:1; fill:none" points="
  1424.86,714.655 1424.86,1384.24 1527.67,1384.24 1527.67,714.655 1424.86,714.655 
  "/>
<path clip-path="url(#clip583)" d="
M1553.38 1014.21 L1553.38 1384.24 L1656.19 1384.24 L1656.19 1014.21 L1553.38 1014.21 L1553.38 1014.21  Z
  " fill="#009af9" fill-rule="evenodd" fill-opacity="1"/>
<polyline clip-path="url(#clip583)" style="stroke:#000000; stroke-linecap:round; stroke-linejoin:round; stroke-width:4; stroke-opacity:1; fill:none" points="
  1553.38,1014.21 1553.38,1384.24 1656.19,1384.24 1656.19,1014.21 1553.38,1014.21 
  "/>
<path clip-path="url(#clip583)" d="
M1681.89 814.505 L1681.89 1384.24 L1784.7 1384.24 L1784.7 814.505 L1681.89 814.505 L1681.89 814.505  Z
  " fill="#009af9" fill-rule="evenodd" fill-opacity="1"/>
<polyline clip-path="url(#clip583)" style="stroke:#000000; stroke-linecap:round; stroke-linejoin:round; stroke-width:4; stroke-opacity:1; fill:none" points="
  1681.89,814.505 1681.89,1384.24 1784.7,1384.24 1784.7,814.505 1681.89,814.505 
  "/>
<path clip-path="url(#clip583)" d="
M1810.4 1078.81 L1810.4 1384.24 L1913.21 1384.24 L1913.21 1078.81 L1810.4 1078.81 L1810.4 1078.81  Z
  " fill="#009af9" fill-rule="evenodd" fill-opacity="1"/>
<polyline clip-path="url(#clip583)" style="stroke:#000000; stroke-linecap:round; stroke-linejoin:round; stroke-width:4; stroke-opacity:1; fill:none" points="
  1810.4,1078.81 1810.4,1384.24 1913.21,1384.24 1913.21,1078.81 1810.4,1078.81 
  "/>
<path clip-path="url(#clip583)" d="
M1938.91 1161.04 L1938.91 1384.24 L2041.72 1384.24 L2041.72 1161.04 L1938.91 1161.04 L1938.91 1161.04  Z
  " fill="#009af9" fill-rule="evenodd" fill-opacity="1"/>
<polyline clip-path="url(#clip583)" style="stroke:#000000; stroke-linecap:round; stroke-linejoin:round; stroke-width:4; stroke-opacity:1; fill:none" points="
  1938.91,1161.04 1938.91,1384.24 2041.72,1384.24 2041.72,1161.04 1938.91,1161.04 
  "/>
<path clip-path="url(#clip583)" d="
M2067.43 362.242 L2067.43 1384.24 L2170.24 1384.24 L2170.24 362.242 L2067.43 362.242 L2067.43 362.242  Z
  " fill="#009af9" fill-rule="evenodd" fill-opacity="1"/>
<polyline clip-path="url(#clip583)" style="stroke:#000000; stroke-linecap:round; stroke-linejoin:round; stroke-width:4; stroke-opacity:1; fill:none" points="
  2067.43,362.242 2067.43,1384.24 2170.24,1384.24 2170.24,362.242 2067.43,362.242 
  "/>
<path clip-path="url(#clip583)" d="
M2195.94 86.1857 L2195.94 1384.24 L2298.75 1384.24 L2298.75 86.1857 L2195.94 86.1857 L2195.94 86.1857  Z
  " fill="#009af9" fill-rule="evenodd" fill-opacity="1"/>
<polyline clip-path="url(#clip583)" style="stroke:#000000; stroke-linecap:round; stroke-linejoin:round; stroke-width:4; stroke-opacity:1; fill:none" points="
  2195.94,86.1857 2195.94,1384.24 2298.75,1384.24 2298.75,86.1857 2195.94,86.1857 
  "/>
<circle clip-path="url(#clip583)" style="fill:#009af9; stroke:none; fill-opacity:0" cx="1476.27" cy="714.655" r="2"/>
<circle clip-path="url(#clip583)" style="fill:#009af9; stroke:none; fill-opacity:0" cx="1604.78" cy="1014.21" r="2"/>
<circle clip-path="url(#clip583)" style="fill:#009af9; stroke:none; fill-opacity:0" cx="1733.29" cy="814.505" r="2"/>
<circle clip-path="url(#clip583)" style="fill:#009af9; stroke:none; fill-opacity:0" cx="1861.81" cy="1078.81" r="2"/>
<circle clip-path="url(#clip583)" style="fill:#009af9; stroke:none; fill-opacity:0" cx="1990.32" cy="1161.04" r="2"/>
<circle clip-path="url(#clip583)" style="fill:#009af9; stroke:none; fill-opacity:0" cx="2118.83" cy="362.242" r="2"/>
<circle clip-path="url(#clip583)" style="fill:#009af9; stroke:none; fill-opacity:0" cx="2247.34" cy="86.1857" r="2"/>
</svg>
