<?xml version="1.0" encoding="utf-8"?>
<svg xmlns="http://www.w3.org/2000/svg" xmlns:xlink="http://www.w3.org/1999/xlink" width="1000" height="400" viewBox="0 0 4000 1600">
<defs>
  <clipPath id="clip150">
    <rect x="0" y="0" width="4000" height="1600"/>
  </clipPath>
</defs>
<path clip-path="url(#clip150)" d="
M0 1600 L4000 1600 L4000 0 L0 0  Z
  " fill="#ffffff" fill-rule="evenodd" fill-opacity="1"/>
<defs>
  <clipPath id="clip151">
    <rect x="800" y="0" width="2801" height="1600"/>
  </clipPath>
</defs>
<path clip-path="url(#clip150)" d="
M322.535 1393.02 L3889.76 1393.02 L3889.76 110.236 L322.535 110.236  Z
  " fill="#ffffff" fill-rule="evenodd" fill-opacity="1"/>
<defs>
  <clipPath id="clip152">
    <rect x="322" y="110" width="3568" height="1284"/>
  </clipPath>
</defs>
<polyline clip-path="url(#clip152)" style="stroke:#000000; stroke-linecap:round; stroke-linejoin:round; stroke-width:2; stroke-opacity:0.1; fill:none" points="
  353.946,1393.02 353.946,110.236 
  "/>
<polyline clip-path="url(#clip152)" style="stroke:#000000; stroke-linecap:round; stroke-linejoin:round; stroke-width:2; stroke-opacity:0.1; fill:none" points="
  893.085,1393.02 893.085,110.236 
  "/>
<polyline clip-path="url(#clip152)" style="stroke:#000000; stroke-linecap:round; stroke-linejoin:round; stroke-width:2; stroke-opacity:0.1; fill:none" points="
  1432.22,1393.02 1432.22,110.236 
  "/>
<polyline clip-path="url(#clip152)" style="stroke:#000000; stroke-linecap:round; stroke-linejoin:round; stroke-width:2; stroke-opacity:0.1; fill:none" points="
  1971.36,1393.02 1971.36,110.236 
  "/>
<polyline clip-path="url(#clip152)" style="stroke:#000000; stroke-linecap:round; stroke-linejoin:round; stroke-width:2; stroke-opacity:0.1; fill:none" points="
  2510.5,1393.02 2510.5,110.236 
  "/>
<polyline clip-path="url(#clip152)" style="stroke:#000000; stroke-linecap:round; stroke-linejoin:round; stroke-width:2; stroke-opacity:0.1; fill:none" points="
  3049.64,1393.02 3049.64,110.236 
  "/>
<polyline clip-path="url(#clip152)" style="stroke:#000000; stroke-linecap:round; stroke-linejoin:round; stroke-width:2; stroke-opacity:0.1; fill:none" points="
  3588.78,1393.02 3588.78,110.236 
  "/>
<polyline clip-path="url(#clip150)" style="stroke:#000000; stroke-linecap:round; stroke-linejoin:round; stroke-width:4; stroke-opacity:1; fill:none" points="
  322.535,1393.02 3889.76,1393.02 
  "/>
<polyline clip-path="url(#clip150)" style="stroke:#000000; stroke-linecap:round; stroke-linejoin:round; stroke-width:4; stroke-opacity:1; fill:none" points="
  353.946,1393.02 353.946,1374.12 
  "/>
<polyline clip-path="url(#clip150)" style="stroke:#000000; stroke-linecap:round; stroke-linejoin:round; stroke-width:4; stroke-opacity:1; fill:none" points="
  893.085,1393.02 893.085,1374.12 
  "/>
<polyline clip-path="url(#clip150)" style="stroke:#000000; stroke-linecap:round; stroke-linejoin:round; stroke-width:4; stroke-opacity:1; fill:none" points="
  1432.22,1393.02 1432.22,1374.12 
  "/>
<polyline clip-path="url(#clip150)" style="stroke:#000000; stroke-linecap:round; stroke-linejoin:round; stroke-width:4; stroke-opacity:1; fill:none" points="
  1971.36,1393.02 1971.36,1374.12 
  "/>
<polyline clip-path="url(#clip150)" style="stroke:#000000; stroke-linecap:round; stroke-linejoin:round; stroke-width:4; stroke-opacity:1; fill:none" points="
  2510.5,1393.02 2510.5,1374.12 
  "/>
<polyline clip-path="url(#clip150)" style="stroke:#000000; stroke-linecap:round; stroke-linejoin:round; stroke-width:4; stroke-opacity:1; fill:none" points="
  3049.64,1393.02 3049.64,1374.12 
  "/>
<polyline clip-path="url(#clip150)" style="stroke:#000000; stroke-linecap:round; stroke-linejoin:round; stroke-width:4; stroke-opacity:1; fill:none" points="
  3588.78,1393.02 3588.78,1374.12 
  "/>
<path clip-path="url(#clip150)" d="M353.946 1436.74 Q350.335 1436.74 348.506 1440.3 Q346.7 1443.84 346.7 1450.97 Q346.7 1458.08 348.506 1461.65 Q350.335 1465.19 353.946 1465.19 Q357.58 1465.19 359.385 1461.65 Q361.214 1458.08 361.214 1450.97 Q361.214 1443.84 359.385 1440.3 Q357.58 1436.74 353.946 1436.74 M353.946 1433.03 Q359.756 1433.03 362.811 1437.64 Q365.89 1442.22 365.89 1450.97 Q365.89 1459.7 362.811 1464.31 Q359.756 1468.89 353.946 1468.89 Q348.135 1468.89 345.057 1464.31 Q342.001 1459.7 342.001 1450.97 Q342.001 1442.22 345.057 1437.64 Q348.135 1433.03 353.946 1433.03 Z" fill="#000000" fill-rule="evenodd" fill-opacity="1" /><path clip-path="url(#clip150)" d="M887.738 1464.28 L904.057 1464.28 L904.057 1468.22 L882.113 1468.22 L882.113 1464.28 Q884.775 1461.53 889.358 1456.9 Q893.965 1452.25 895.145 1450.9 Q897.391 1448.38 898.27 1446.65 Q899.173 1444.89 899.173 1443.2 Q899.173 1440.44 897.229 1438.71 Q895.308 1436.97 892.206 1436.97 Q890.007 1436.97 887.553 1437.73 Q885.122 1438.5 882.345 1440.05 L882.345 1435.33 Q885.169 1434.19 887.622 1433.61 Q890.076 1433.03 892.113 1433.03 Q897.483 1433.03 900.678 1435.72 Q903.872 1438.41 903.872 1442.9 Q903.872 1445.03 903.062 1446.95 Q902.275 1448.84 900.169 1451.44 Q899.59 1452.11 896.488 1455.33 Q893.386 1458.52 887.738 1464.28 Z" fill="#000000" fill-rule="evenodd" fill-opacity="1" /><path clip-path="url(#clip150)" d="M1435.23 1437.73 L1423.43 1456.18 L1435.23 1456.18 L1435.23 1437.73 M1434.01 1433.66 L1439.89 1433.66 L1439.89 1456.18 L1444.82 1456.18 L1444.82 1460.07 L1439.89 1460.07 L1439.89 1468.22 L1435.23 1468.22 L1435.23 1460.07 L1419.63 1460.07 L1419.63 1455.56 L1434.01 1433.66 Z" fill="#000000" fill-rule="evenodd" fill-opacity="1" /><path clip-path="url(#clip150)" d="M1971.77 1449.08 Q1968.62 1449.08 1966.77 1451.23 Q1964.94 1453.38 1964.94 1457.13 Q1964.94 1460.86 1966.77 1463.03 Q1968.62 1465.19 1971.77 1465.19 Q1974.92 1465.19 1976.75 1463.03 Q1978.6 1460.86 1978.6 1457.13 Q1978.6 1453.38 1976.75 1451.23 Q1974.92 1449.08 1971.77 1449.08 M1981.05 1434.42 L1981.05 1438.68 Q1979.29 1437.85 1977.49 1437.41 Q1975.7 1436.97 1973.95 1436.97 Q1969.32 1436.97 1966.86 1440.09 Q1964.43 1443.22 1964.08 1449.54 Q1965.45 1447.53 1967.51 1446.46 Q1969.57 1445.37 1972.05 1445.37 Q1977.26 1445.37 1980.27 1448.54 Q1983.3 1451.69 1983.3 1457.13 Q1983.3 1462.46 1980.15 1465.67 Q1977 1468.89 1971.77 1468.89 Q1965.77 1468.89 1962.6 1464.31 Q1959.43 1459.7 1959.43 1450.97 Q1959.43 1442.78 1963.32 1437.92 Q1967.21 1433.03 1973.76 1433.03 Q1975.52 1433.03 1977.3 1433.38 Q1979.11 1433.73 1981.05 1434.42 Z" fill="#000000" fill-rule="evenodd" fill-opacity="1" /><path clip-path="url(#clip150)" d="M2510.5 1451.81 Q2507.17 1451.81 2505.25 1453.59 Q2503.35 1455.37 2503.35 1458.5 Q2503.35 1461.62 2505.25 1463.4 Q2507.17 1465.19 2510.5 1465.19 Q2513.84 1465.19 2515.76 1463.4 Q2517.68 1461.6 2517.68 1458.5 Q2517.68 1455.37 2515.76 1453.59 Q2513.86 1451.81 2510.5 1451.81 M2505.83 1449.82 Q2502.82 1449.08 2501.13 1447.02 Q2499.46 1444.96 2499.46 1441.99 Q2499.46 1437.85 2502.4 1435.44 Q2505.37 1433.03 2510.5 1433.03 Q2515.67 1433.03 2518.61 1435.44 Q2521.55 1437.85 2521.55 1441.99 Q2521.55 1444.96 2519.86 1447.02 Q2518.19 1449.08 2515.2 1449.82 Q2518.58 1450.6 2520.46 1452.9 Q2522.36 1455.19 2522.36 1458.5 Q2522.36 1463.52 2519.28 1466.21 Q2516.22 1468.89 2510.5 1468.89 Q2504.79 1468.89 2501.71 1466.21 Q2498.65 1463.52 2498.65 1458.5 Q2498.65 1455.19 2500.55 1452.9 Q2502.45 1450.6 2505.83 1449.82 M2504.12 1442.43 Q2504.12 1445.12 2505.78 1446.62 Q2507.47 1448.13 2510.5 1448.13 Q2513.51 1448.13 2515.2 1446.62 Q2516.92 1445.12 2516.92 1442.43 Q2516.92 1439.75 2515.2 1438.24 Q2513.51 1436.74 2510.5 1436.74 Q2507.47 1436.74 2505.78 1438.24 Q2504.12 1439.75 2504.12 1442.43 Z" fill="#000000" fill-rule="evenodd" fill-opacity="1" /><path clip-path="url(#clip150)" d="M3024.33 1464.28 L3031.97 1464.28 L3031.97 1437.92 L3023.66 1439.59 L3023.66 1435.33 L3031.92 1433.66 L3036.6 1433.66 L3036.6 1464.28 L3044.24 1464.28 L3044.24 1468.22 L3024.33 1468.22 L3024.33 1464.28 Z" fill="#000000" fill-rule="evenodd" fill-opacity="1" /><path clip-path="url(#clip150)" d="M3063.68 1436.74 Q3060.07 1436.74 3058.24 1440.3 Q3056.44 1443.84 3056.44 1450.97 Q3056.44 1458.08 3058.24 1461.65 Q3060.07 1465.19 3063.68 1465.19 Q3067.32 1465.19 3069.12 1461.65 Q3070.95 1458.08 3070.95 1450.97 Q3070.95 1443.84 3069.12 1440.3 Q3067.32 1436.74 3063.68 1436.74 M3063.68 1433.03 Q3069.49 1433.03 3072.55 1437.64 Q3075.63 1442.22 3075.63 1450.97 Q3075.63 1459.7 3072.55 1464.31 Q3069.49 1468.89 3063.68 1468.89 Q3057.87 1468.89 3054.79 1464.31 Q3051.74 1459.7 3051.74 1450.97 Q3051.74 1442.22 3054.79 1437.64 Q3057.87 1433.03 3063.68 1433.03 Z" fill="#000000" fill-rule="evenodd" fill-opacity="1" /><path clip-path="url(#clip150)" d="M3564.27 1464.28 L3571.91 1464.28 L3571.91 1437.92 L3563.6 1439.59 L3563.6 1435.33 L3571.86 1433.66 L3576.54 1433.66 L3576.54 1464.28 L3584.18 1464.28 L3584.18 1468.22 L3564.27 1468.22 L3564.27 1464.28 Z" fill="#000000" fill-rule="evenodd" fill-opacity="1" /><path clip-path="url(#clip150)" d="M3597.65 1464.28 L3613.97 1464.28 L3613.97 1468.22 L3592.02 1468.22 L3592.02 1464.28 Q3594.69 1461.53 3599.27 1456.9 Q3603.88 1452.25 3605.06 1450.9 Q3607.3 1448.38 3608.18 1446.65 Q3609.08 1444.89 3609.08 1443.2 Q3609.08 1440.44 3607.14 1438.71 Q3605.22 1436.97 3602.12 1436.97 Q3599.92 1436.97 3597.46 1437.73 Q3595.03 1438.5 3592.26 1440.05 L3592.26 1435.33 Q3595.08 1434.19 3597.53 1433.61 Q3599.99 1433.03 3602.02 1433.03 Q3607.39 1433.03 3610.59 1435.72 Q3613.78 1438.41 3613.78 1442.9 Q3613.78 1445.03 3612.97 1446.95 Q3612.19 1448.84 3610.08 1451.44 Q3609.5 1452.11 3606.4 1455.33 Q3603.3 1458.52 3597.65 1464.28 Z" fill="#000000" fill-rule="evenodd" fill-opacity="1" /><path clip-path="url(#clip150)" d="M2009.96 1514.36 L2019.54 1514.36 L2031.67 1546.7 L2043.86 1514.36 L2053.44 1514.36 L2053.44 1561.88 L2047.17 1561.88 L2047.17 1520.16 L2034.92 1552.75 L2028.46 1552.75 L2016.2 1520.16 L2016.2 1561.88 L2009.96 1561.88 L2009.96 1514.36 Z" fill="#000000" fill-rule="evenodd" fill-opacity="1" /><path clip-path="url(#clip150)" d="M2079.76 1530.34 Q2075.05 1530.34 2072.32 1534.03 Q2069.58 1537.69 2069.58 1544.09 Q2069.58 1550.49 2072.28 1554.18 Q2075.02 1557.84 2079.76 1557.84 Q2084.44 1557.84 2087.18 1554.15 Q2089.92 1550.46 2089.92 1544.09 Q2089.92 1537.76 2087.18 1534.07 Q2084.44 1530.34 2079.76 1530.34 M2079.76 1525.38 Q2087.4 1525.38 2091.76 1530.34 Q2096.12 1535.31 2096.12 1544.09 Q2096.12 1552.84 2091.76 1557.84 Q2087.4 1562.81 2079.76 1562.81 Q2072.09 1562.81 2067.73 1557.84 Q2063.4 1552.84 2063.4 1544.09 Q2063.4 1535.31 2067.73 1530.34 Q2072.09 1525.38 2079.76 1525.38 Z" fill="#000000" fill-rule="evenodd" fill-opacity="1" /><path clip-path="url(#clip150)" d="M2135.46 1540.37 L2135.46 1561.88 L2129.61 1561.88 L2129.61 1540.56 Q2129.61 1535.5 2127.63 1532.98 Q2125.66 1530.47 2121.71 1530.47 Q2116.97 1530.47 2114.23 1533.49 Q2111.5 1536.52 2111.5 1541.74 L2111.5 1561.88 L2105.61 1561.88 L2105.61 1526.24 L2111.5 1526.24 L2111.5 1531.77 Q2113.6 1528.56 2116.43 1526.97 Q2119.29 1525.38 2123.02 1525.38 Q2129.16 1525.38 2132.31 1529.2 Q2135.46 1532.98 2135.46 1540.37 Z" fill="#000000" fill-rule="evenodd" fill-opacity="1" /><path clip-path="url(#clip150)" d="M2152.94 1516.11 L2152.94 1526.24 L2165 1526.24 L2165 1530.79 L2152.94 1530.79 L2152.94 1550.14 Q2152.94 1554.5 2154.12 1555.74 Q2155.32 1556.98 2158.98 1556.98 L2165 1556.98 L2165 1561.88 L2158.98 1561.88 Q2152.21 1561.88 2149.63 1559.37 Q2147.05 1556.82 2147.05 1550.14 L2147.05 1530.79 L2142.75 1530.79 L2142.75 1526.24 L2147.05 1526.24 L2147.05 1516.11 L2152.94 1516.11 Z" fill="#000000" fill-rule="evenodd" fill-opacity="1" /><path clip-path="url(#clip150)" d="M2202.34 1540.37 L2202.34 1561.88 L2196.48 1561.88 L2196.48 1540.56 Q2196.48 1535.5 2194.51 1532.98 Q2192.53 1530.47 2188.59 1530.47 Q2183.84 1530.47 2181.11 1533.49 Q2178.37 1536.52 2178.37 1541.74 L2178.37 1561.88 L2172.48 1561.88 L2172.48 1512.36 L2178.37 1512.36 L2178.37 1531.77 Q2180.47 1528.56 2183.3 1526.97 Q2186.17 1525.38 2189.89 1525.38 Q2196.03 1525.38 2199.18 1529.2 Q2202.34 1532.98 2202.34 1540.37 Z" fill="#000000" fill-rule="evenodd" fill-opacity="1" /><polyline clip-path="url(#clip152)" style="stroke:#000000; stroke-linecap:round; stroke-linejoin:round; stroke-width:2; stroke-opacity:0.1; fill:none" points="
  322.535,1356.71 3889.76,1356.71 
  "/>
<polyline clip-path="url(#clip152)" style="stroke:#000000; stroke-linecap:round; stroke-linejoin:round; stroke-width:2; stroke-opacity:0.1; fill:none" points="
  322.535,972.022 3889.76,972.022 
  "/>
<polyline clip-path="url(#clip152)" style="stroke:#000000; stroke-linecap:round; stroke-linejoin:round; stroke-width:2; stroke-opacity:0.1; fill:none" points="
  322.535,587.33 3889.76,587.33 
  "/>
<polyline clip-path="url(#clip152)" style="stroke:#000000; stroke-linecap:round; stroke-linejoin:round; stroke-width:2; stroke-opacity:0.1; fill:none" points="
  322.535,202.638 3889.76,202.638 
  "/>
<polyline clip-path="url(#clip150)" style="stroke:#000000; stroke-linecap:round; stroke-linejoin:round; stroke-width:4; stroke-opacity:1; fill:none" points="
  322.535,1393.02 322.535,110.236 
  "/>
<polyline clip-path="url(#clip150)" style="stroke:#000000; stroke-linecap:round; stroke-linejoin:round; stroke-width:4; stroke-opacity:1; fill:none" points="
  322.535,1356.71 341.433,1356.71 
  "/>
<polyline clip-path="url(#clip150)" style="stroke:#000000; stroke-linecap:round; stroke-linejoin:round; stroke-width:4; stroke-opacity:1; fill:none" points="
  322.535,972.022 341.433,972.022 
  "/>
<polyline clip-path="url(#clip150)" style="stroke:#000000; stroke-linecap:round; stroke-linejoin:round; stroke-width:4; stroke-opacity:1; fill:none" points="
  322.535,587.33 341.433,587.33 
  "/>
<polyline clip-path="url(#clip150)" style="stroke:#000000; stroke-linecap:round; stroke-linejoin:round; stroke-width:4; stroke-opacity:1; fill:none" points="
  322.535,202.638 341.433,202.638 
  "/>
<path clip-path="url(#clip150)" d="M250.591 1342.51 Q246.98 1342.51 245.151 1346.08 Q243.346 1349.62 243.346 1356.75 Q243.346 1363.86 245.151 1367.42 Q246.98 1370.96 250.591 1370.96 Q254.225 1370.96 256.031 1367.42 Q257.859 1363.86 257.859 1356.75 Q257.859 1349.62 256.031 1346.08 Q254.225 1342.51 250.591 1342.51 M250.591 1338.81 Q256.401 1338.81 259.457 1343.42 Q262.535 1348 262.535 1356.75 Q262.535 1365.48 259.457 1370.08 Q256.401 1374.67 250.591 1374.67 Q244.781 1374.67 241.702 1370.08 Q238.647 1365.48 238.647 1356.75 Q238.647 1348 241.702 1343.42 Q244.781 1338.81 250.591 1338.81 Z" fill="#000000" fill-rule="evenodd" fill-opacity="1" /><path clip-path="url(#clip150)" d="M180.314 954.742 L198.67 954.742 L198.67 958.677 L184.596 958.677 L184.596 967.15 Q185.614 966.802 186.633 966.64 Q187.651 966.455 188.67 966.455 Q194.457 966.455 197.837 969.627 Q201.216 972.798 201.216 978.214 Q201.216 983.793 197.744 986.895 Q194.272 989.974 187.952 989.974 Q185.777 989.974 183.508 989.603 Q181.263 989.233 178.855 988.492 L178.855 983.793 Q180.939 984.927 183.161 985.483 Q185.383 986.038 187.86 986.038 Q191.864 986.038 194.202 983.932 Q196.54 981.826 196.54 978.214 Q196.54 974.603 194.202 972.497 Q191.864 970.39 187.86 970.39 Q185.985 970.39 184.11 970.807 Q182.258 971.224 180.314 972.103 L180.314 954.742 Z" fill="#000000" fill-rule="evenodd" fill-opacity="1" /><path clip-path="url(#clip150)" d="M220.429 957.821 Q216.818 957.821 214.989 961.386 Q213.184 964.927 213.184 972.057 Q213.184 979.163 214.989 982.728 Q216.818 986.27 220.429 986.27 Q224.063 986.27 225.869 982.728 Q227.698 979.163 227.698 972.057 Q227.698 964.927 225.869 961.386 Q224.063 957.821 220.429 957.821 M220.429 954.117 Q226.239 954.117 229.295 958.724 Q232.373 963.307 232.373 972.057 Q232.373 980.784 229.295 985.39 Q226.239 989.974 220.429 989.974 Q214.619 989.974 211.54 985.39 Q208.485 980.784 208.485 972.057 Q208.485 963.307 211.54 958.724 Q214.619 954.117 220.429 954.117 Z" fill="#000000" fill-rule="evenodd" fill-opacity="1" /><path clip-path="url(#clip150)" d="M250.591 957.821 Q246.98 957.821 245.151 961.386 Q243.346 964.927 243.346 972.057 Q243.346 979.163 245.151 982.728 Q246.98 986.27 250.591 986.27 Q254.225 986.27 256.031 982.728 Q257.859 979.163 257.859 972.057 Q257.859 964.927 256.031 961.386 Q254.225 957.821 250.591 957.821 M250.591 954.117 Q256.401 954.117 259.457 958.724 Q262.535 963.307 262.535 972.057 Q262.535 980.784 259.457 985.39 Q256.401 989.974 250.591 989.974 Q244.781 989.974 241.702 985.39 Q238.647 980.784 238.647 972.057 Q238.647 963.307 241.702 958.724 Q244.781 954.117 250.591 954.117 Z" fill="#000000" fill-rule="evenodd" fill-opacity="1" /><path clip-path="url(#clip150)" d="M150.916 600.675 L158.554 600.675 L158.554 574.309 L150.244 575.976 L150.244 571.717 L158.508 570.05 L163.184 570.05 L163.184 600.675 L170.823 600.675 L170.823 604.61 L150.916 604.61 L150.916 600.675 Z" fill="#000000" fill-rule="evenodd" fill-opacity="1" /><path clip-path="url(#clip150)" d="M190.267 573.129 Q186.656 573.129 184.827 576.694 Q183.022 580.235 183.022 587.365 Q183.022 594.471 184.827 598.036 Q186.656 601.578 190.267 601.578 Q193.901 601.578 195.707 598.036 Q197.536 594.471 197.536 587.365 Q197.536 580.235 195.707 576.694 Q193.901 573.129 190.267 573.129 M190.267 569.425 Q196.077 569.425 199.133 574.032 Q202.212 578.615 202.212 587.365 Q202.212 596.092 199.133 600.698 Q196.077 605.281 190.267 605.281 Q184.457 605.281 181.378 600.698 Q178.323 596.092 178.323 587.365 Q178.323 578.615 181.378 574.032 Q184.457 569.425 190.267 569.425 Z" fill="#000000" fill-rule="evenodd" fill-opacity="1" /><path clip-path="url(#clip150)" d="M220.429 573.129 Q216.818 573.129 214.989 576.694 Q213.184 580.235 213.184 587.365 Q213.184 594.471 214.989 598.036 Q216.818 601.578 220.429 601.578 Q224.063 601.578 225.869 598.036 Q227.698 594.471 227.698 587.365 Q227.698 580.235 225.869 576.694 Q224.063 573.129 220.429 573.129 M220.429 569.425 Q226.239 569.425 229.295 574.032 Q232.373 578.615 232.373 587.365 Q232.373 596.092 229.295 600.698 Q226.239 605.281 220.429 605.281 Q214.619 605.281 211.54 600.698 Q208.485 596.092 208.485 587.365 Q208.485 578.615 211.54 574.032 Q214.619 569.425 220.429 569.425 Z" fill="#000000" fill-rule="evenodd" fill-opacity="1" /><path clip-path="url(#clip150)" d="M250.591 573.129 Q246.98 573.129 245.151 576.694 Q243.346 580.235 243.346 587.365 Q243.346 594.471 245.151 598.036 Q246.98 601.578 250.591 601.578 Q254.225 601.578 256.031 598.036 Q257.859 594.471 257.859 587.365 Q257.859 580.235 256.031 576.694 Q254.225 573.129 250.591 573.129 M250.591 569.425 Q256.401 569.425 259.457 574.032 Q262.535 578.615 262.535 587.365 Q262.535 596.092 259.457 600.698 Q256.401 605.281 250.591 605.281 Q244.781 605.281 241.702 600.698 Q238.647 596.092 238.647 587.365 Q238.647 578.615 241.702 574.032 Q244.781 569.425 250.591 569.425 Z" fill="#000000" fill-rule="evenodd" fill-opacity="1" /><path clip-path="url(#clip150)" d="M150.916 215.983 L158.554 215.983 L158.554 189.617 L150.244 191.284 L150.244 187.025 L158.508 185.358 L163.184 185.358 L163.184 215.983 L170.823 215.983 L170.823 219.918 L150.916 219.918 L150.916 215.983 Z" fill="#000000" fill-rule="evenodd" fill-opacity="1" /><path clip-path="url(#clip150)" d="M180.314 185.358 L198.67 185.358 L198.67 189.293 L184.596 189.293 L184.596 197.765 Q185.614 197.418 186.633 197.256 Q187.651 197.071 188.67 197.071 Q194.457 197.071 197.837 200.242 Q201.216 203.413 201.216 208.83 Q201.216 214.409 197.744 217.511 Q194.272 220.589 187.952 220.589 Q185.777 220.589 183.508 220.219 Q181.263 219.849 178.855 219.108 L178.855 214.409 Q180.939 215.543 183.161 216.099 Q185.383 216.654 187.86 216.654 Q191.864 216.654 194.202 214.548 Q196.54 212.441 196.54 208.83 Q196.54 205.219 194.202 203.112 Q191.864 201.006 187.86 201.006 Q185.985 201.006 184.11 201.423 Q182.258 201.839 180.314 202.719 L180.314 185.358 Z" fill="#000000" fill-rule="evenodd" fill-opacity="1" /><path clip-path="url(#clip150)" d="M220.429 188.437 Q216.818 188.437 214.989 192.001 Q213.184 195.543 213.184 202.673 Q213.184 209.779 214.989 213.344 Q216.818 216.886 220.429 216.886 Q224.063 216.886 225.869 213.344 Q227.698 209.779 227.698 202.673 Q227.698 195.543 225.869 192.001 Q224.063 188.437 220.429 188.437 M220.429 184.733 Q226.239 184.733 229.295 189.339 Q232.373 193.923 232.373 202.673 Q232.373 211.399 229.295 216.006 Q226.239 220.589 220.429 220.589 Q214.619 220.589 211.54 216.006 Q208.485 211.399 208.485 202.673 Q208.485 193.923 211.54 189.339 Q214.619 184.733 220.429 184.733 Z" fill="#000000" fill-rule="evenodd" fill-opacity="1" /><path clip-path="url(#clip150)" d="M250.591 188.437 Q246.98 188.437 245.151 192.001 Q243.346 195.543 243.346 202.673 Q243.346 209.779 245.151 213.344 Q246.98 216.886 250.591 216.886 Q254.225 216.886 256.031 213.344 Q257.859 209.779 257.859 202.673 Q257.859 195.543 256.031 192.001 Q254.225 188.437 250.591 188.437 M250.591 184.733 Q256.401 184.733 259.457 189.339 Q262.535 193.923 262.535 202.673 Q262.535 211.399 259.457 216.006 Q256.401 220.589 250.591 220.589 Q244.781 220.589 241.702 216.006 Q238.647 211.399 238.647 202.673 Q238.647 193.923 241.702 189.339 Q244.781 184.733 250.591 184.733 Z" fill="#000000" fill-rule="evenodd" fill-opacity="1" /><path clip-path="url(#clip150)" d="M28.4683 1095.14 L28.4683 1086.48 L68.2221 1065.41 L28.4683 1065.41 L28.4683 1059.17 L75.9883 1059.17 L75.9883 1067.83 L36.2344 1088.9 L75.9883 1088.9 L75.9883 1095.14 L28.4683 1095.14 Z" fill="#000000" fill-rule="evenodd" fill-opacity="1" /><path clip-path="url(#clip150)" d="M56.7002 1016.14 L59.5648 1016.14 L59.5648 1043.07 Q65.6122 1042.68 68.795 1039.44 Q71.9461 1036.16 71.9461 1030.33 Q71.9461 1026.96 71.1185 1023.81 Q70.291 1020.63 68.6359 1017.51 L74.1741 1017.51 Q75.5109 1020.66 76.2111 1023.97 Q76.9113 1027.28 76.9113 1030.68 Q76.9113 1039.21 71.9461 1044.21 Q66.9808 1049.18 58.5144 1049.18 Q49.7616 1049.18 44.6372 1044.47 Q39.481 1039.72 39.481 1031.7 Q39.481 1024.51 44.1279 1020.34 Q48.7431 1016.14 56.7002 1016.14 M54.9815 1022 Q50.1753 1022.06 47.3108 1024.7 Q44.4462 1027.31 44.4462 1031.64 Q44.4462 1036.54 47.2153 1039.5 Q49.9844 1042.43 55.0133 1042.87 L54.9815 1022 Z" fill="#000000" fill-rule="evenodd" fill-opacity="1" /><path clip-path="url(#clip150)" d="M40.3403 1009.93 L40.3403 1004.08 L68.1585 996.755 L40.3403 989.467 L40.3403 982.56 L68.1585 975.239 L40.3403 967.951 L40.3403 962.094 L75.9883 971.42 L75.9883 978.327 L46.7697 985.997 L75.9883 993.7 L75.9883 1000.61 L40.3403 1009.93 Z" fill="#000000" fill-rule="evenodd" fill-opacity="1" /><path clip-path="url(#clip150)" d="M58.1961 906.903 Q51.7349 906.903 48.0747 909.577 Q44.3826 912.219 44.3826 916.866 Q44.3826 921.513 48.0747 924.186 Q51.7349 926.828 58.1961 926.828 Q64.6573 926.828 68.3494 924.186 Q72.0097 921.513 72.0097 916.866 Q72.0097 912.219 68.3494 909.577 Q64.6573 906.903 58.1961 906.903 M45.7512 926.828 Q42.5683 924.982 41.0406 922.181 Q39.481 919.348 39.481 915.434 Q39.481 908.94 44.6372 904.898 Q49.7934 900.824 58.1961 900.824 Q66.5989 900.824 71.7551 904.898 Q76.9113 908.94 76.9113 915.434 Q76.9113 919.348 75.3835 922.181 Q73.8239 924.982 70.6411 926.828 L75.9883 926.828 L75.9883 932.716 L26.4631 932.716 L26.4631 926.828 L45.7512 926.828 Z" fill="#000000" fill-rule="evenodd" fill-opacity="1" /><path clip-path="url(#clip150)" d="M40.3403 891.117 L40.3403 885.26 L75.9883 885.26 L75.9883 891.117 L40.3403 891.117 M26.4631 891.117 L26.4631 885.26 L33.8791 885.26 L33.8791 891.117 L26.4631 891.117 Z" fill="#000000" fill-rule="evenodd" fill-opacity="1" /><path clip-path="url(#clip150)" d="M26.4631 873.229 L26.4631 867.341 L55.7135 867.341 L40.3403 849.867 L40.3403 842.387 L57.0185 861.293 L75.9883 841.591 L75.9883 849.23 L58.5781 867.341 L75.9883 867.341 L75.9883 873.229 L26.4631 873.229 Z" fill="#000000" fill-rule="evenodd" fill-opacity="1" /><path clip-path="url(#clip150)" d="M56.7002 807.089 L59.5648 807.089 L59.5648 834.016 Q65.6122 833.634 68.795 830.388 Q71.9461 827.109 71.9461 821.285 Q71.9461 817.911 71.1185 814.76 Q70.291 811.577 68.6359 808.458 L74.1741 808.458 Q75.5109 811.609 76.2111 814.919 Q76.9113 818.229 76.9113 821.635 Q76.9113 830.165 71.9461 835.162 Q66.9808 840.127 58.5144 840.127 Q49.7616 840.127 44.6372 835.417 Q39.481 830.674 39.481 822.653 Q39.481 815.46 44.1279 811.291 Q48.7431 807.089 56.7002 807.089 M54.9815 812.946 Q50.1753 813.009 47.3108 815.651 Q44.4462 818.261 44.4462 822.59 Q44.4462 827.491 47.2153 830.451 Q49.9844 833.38 55.0133 833.825 L54.9815 812.946 Z" fill="#000000" fill-rule="evenodd" fill-opacity="1" /><path clip-path="url(#clip150)" d="M41.3907 754.031 L46.9288 754.031 Q45.6557 756.514 45.0191 759.187 Q44.3826 761.861 44.3826 764.725 Q44.3826 769.086 45.7193 771.282 Q47.0561 773.446 49.7297 773.446 Q51.7668 773.446 52.9444 771.887 Q54.0903 770.327 55.1406 765.617 L55.5862 763.611 Q56.923 757.373 59.3738 754.763 Q61.7928 752.121 66.1533 752.121 Q71.1185 752.121 74.0149 756.068 Q76.9113 759.983 76.9113 766.858 Q76.9113 769.722 76.3384 772.842 Q75.7973 775.929 74.6833 779.367 L68.6359 779.367 Q70.3228 776.12 71.1822 772.969 Q72.0097 769.818 72.0097 766.731 Q72.0097 762.593 70.6093 760.365 Q69.177 758.137 66.5989 758.137 Q64.2117 758.137 62.9386 759.76 Q61.6654 761.352 60.4878 766.794 L60.0104 768.831 Q58.8645 774.274 56.5092 776.693 Q54.1221 779.112 49.9844 779.112 Q44.9555 779.112 42.2182 775.547 Q39.481 771.982 39.481 765.426 Q39.481 762.179 39.9584 759.315 Q40.4358 756.45 41.3907 754.031 Z" fill="#000000" fill-rule="evenodd" fill-opacity="1" /><path clip-path="url(#clip150)" d="M54.4722 713.163 L75.9883 713.163 L75.9883 719.02 L54.6632 719.02 Q49.6024 719.02 47.088 720.993 Q44.5735 722.966 44.5735 726.913 Q44.5735 731.656 47.5972 734.393 Q50.6209 737.13 55.8408 737.13 L75.9883 737.13 L75.9883 743.018 L26.4631 743.018 L26.4631 737.13 L45.8785 737.13 Q42.6638 735.029 41.0724 732.197 Q39.481 729.332 39.481 725.608 Q39.481 719.465 43.3004 716.314 Q47.088 713.163 54.4722 713.163 Z" fill="#000000" fill-rule="evenodd" fill-opacity="1" /><path clip-path="url(#clip150)" d="M58.0688 685.281 Q58.0688 692.379 59.6921 695.116 Q61.3153 697.854 65.2302 697.854 Q68.3494 697.854 70.1955 695.817 Q72.0097 693.748 72.0097 690.215 Q72.0097 685.345 68.5722 682.417 Q65.1029 679.457 59.3738 679.457 L58.0688 679.457 L58.0688 685.281 M55.6499 673.6 L75.9883 673.6 L75.9883 679.457 L70.5774 679.457 Q73.8239 681.462 75.3835 684.454 Q76.9113 687.446 76.9113 691.774 Q76.9113 697.249 73.8558 700.495 Q70.7684 703.71 65.6122 703.71 Q59.5966 703.71 56.541 699.7 Q53.4855 695.657 53.4855 687.669 L53.4855 679.457 L52.9126 679.457 Q48.8704 679.457 46.6742 682.13 Q44.4462 684.772 44.4462 689.578 Q44.4462 692.634 45.1783 695.53 Q45.9103 698.427 47.3744 701.1 L41.9636 701.1 Q40.7223 697.885 40.1175 694.862 Q39.481 691.838 39.481 688.974 Q39.481 681.239 43.4914 677.42 Q47.5017 673.6 55.6499 673.6 Z" fill="#000000" fill-rule="evenodd" fill-opacity="1" /><path clip-path="url(#clip150)" d="M45.8148 640.881 Q45.2419 641.867 44.9873 643.045 Q44.7008 644.191 44.7008 645.591 Q44.7008 650.556 47.9473 653.23 Q51.162 655.872 57.2094 655.872 L75.9883 655.872 L75.9883 661.76 L40.3403 661.76 L40.3403 655.872 L45.8785 655.872 Q42.632 654.026 41.0724 651.066 Q39.481 648.106 39.481 643.872 Q39.481 643.268 39.5764 642.536 Q39.6401 641.804 39.7992 640.912 L45.8148 640.881 Z" fill="#000000" fill-rule="evenodd" fill-opacity="1" /><path clip-path="url(#clip150)" d="M56.7002 605.678 L59.5648 605.678 L59.5648 632.605 Q65.6122 632.223 68.795 628.977 Q71.9461 625.698 71.9461 619.874 Q71.9461 616.5 71.1185 613.349 Q70.291 610.166 68.6359 607.047 L74.1741 607.047 Q75.5109 610.198 76.2111 613.508 Q76.9113 616.818 76.9113 620.224 Q76.9113 628.754 71.9461 633.751 Q66.9808 638.716 58.5144 638.716 Q49.7616 638.716 44.6372 634.006 Q39.481 629.263 39.481 621.242 Q39.481 614.049 44.1279 609.88 Q48.7431 605.678 56.7002 605.678 M54.9815 611.535 Q50.1753 611.598 47.3108 614.24 Q44.4462 616.85 44.4462 621.179 Q44.4462 626.08 47.2153 629.04 Q49.9844 631.969 55.0133 632.414 L54.9815 611.535 Z" fill="#000000" fill-rule="evenodd" fill-opacity="1" /><path clip-path="url(#clip150)" d="M41.709 549.692 L47.1835 549.692 Q45.8148 552.174 45.1464 554.689 Q44.4462 557.172 44.4462 559.718 Q44.4462 565.415 48.0747 568.566 Q51.6713 571.717 58.1961 571.717 Q64.721 571.717 68.3494 568.566 Q71.9461 565.415 71.9461 559.718 Q71.9461 557.172 71.2777 554.689 Q70.5774 552.174 69.2088 549.692 L74.6197 549.692 Q75.7655 552.143 76.3384 554.784 Q76.9113 557.394 76.9113 560.354 Q76.9113 568.407 71.8506 573.149 Q66.7898 577.892 58.1961 577.892 Q49.4751 577.892 44.478 573.118 Q39.481 568.312 39.481 559.972 Q39.481 557.267 40.0539 554.689 Q40.595 552.111 41.709 549.692 Z" fill="#000000" fill-rule="evenodd" fill-opacity="1" /><path clip-path="url(#clip150)" d="M44.4462 525.693 Q44.4462 530.404 48.1383 533.141 Q51.7986 535.878 58.1961 535.878 Q64.5937 535.878 68.2858 533.173 Q71.9461 530.436 71.9461 525.693 Q71.9461 521.014 68.2539 518.277 Q64.5618 515.54 58.1961 515.54 Q51.8623 515.54 48.1701 518.277 Q44.4462 521.014 44.4462 525.693 M39.481 525.693 Q39.481 518.054 44.4462 513.694 Q49.4115 509.333 58.1961 509.333 Q66.949 509.333 71.9461 513.694 Q76.9113 518.054 76.9113 525.693 Q76.9113 533.364 71.9461 537.724 Q66.949 542.053 58.1961 542.053 Q49.4115 542.053 44.4462 537.724 Q39.481 533.364 39.481 525.693 Z" fill="#000000" fill-rule="evenodd" fill-opacity="1" /><path clip-path="url(#clip150)" d="M61.9201 500.23 L40.3403 500.23 L40.3403 494.374 L61.6973 494.374 Q66.758 494.374 69.3043 492.4 Q71.8187 490.427 71.8187 486.48 Q71.8187 481.738 68.795 479.001 Q65.7713 476.232 60.5514 476.232 L40.3403 476.232 L40.3403 470.375 L75.9883 470.375 L75.9883 476.232 L70.5138 476.232 Q73.7603 478.364 75.3517 481.197 Q76.9113 483.998 76.9113 487.722 Q76.9113 493.865 73.0919 497.047 Q69.2725 500.23 61.9201 500.23 M39.481 485.494 L39.481 485.494 Z" fill="#000000" fill-rule="evenodd" fill-opacity="1" /><path clip-path="url(#clip150)" d="M30.2189 452.519 L40.3403 452.519 L40.3403 440.456 L44.8918 440.456 L44.8918 452.519 L64.2436 452.519 Q68.6041 452.519 69.8454 451.342 Q71.0867 450.132 71.0867 446.472 L71.0867 440.456 L75.9883 440.456 L75.9883 446.472 Q75.9883 453.251 73.4738 455.829 Q70.9275 458.408 64.2436 458.408 L44.8918 458.408 L44.8918 462.704 L40.3403 462.704 L40.3403 458.408 L30.2189 458.408 L30.2189 452.519 Z" fill="#000000" fill-rule="evenodd" fill-opacity="1" /><path clip-path="url(#clip150)" d="M41.3907 410.028 L46.9288 410.028 Q45.6557 412.511 45.0191 415.184 Q44.3826 417.858 44.3826 420.723 Q44.3826 425.083 45.7193 427.279 Q47.0561 429.444 49.7297 429.444 Q51.7668 429.444 52.9444 427.884 Q54.0903 426.324 55.1406 421.614 L55.5862 419.609 Q56.923 413.37 59.3738 410.76 Q61.7928 408.119 66.1533 408.119 Q71.1185 408.119 74.0149 412.065 Q76.9113 415.98 76.9113 422.855 Q76.9113 425.72 76.3384 428.839 Q75.7973 431.926 74.6833 435.364 L68.6359 435.364 Q70.3228 432.117 71.1822 428.966 Q72.0097 425.815 72.0097 422.728 Q72.0097 418.59 70.6093 416.362 Q69.177 414.134 66.5989 414.134 Q64.2117 414.134 62.9386 415.757 Q61.6654 417.349 60.4878 422.791 L60.0104 424.829 Q58.8645 430.271 56.5092 432.69 Q54.1221 435.109 49.9844 435.109 Q44.9555 435.109 42.2182 431.544 Q39.481 427.98 39.481 421.423 Q39.481 418.176 39.9584 415.312 Q40.4358 412.447 41.3907 410.028 Z" fill="#000000" fill-rule="evenodd" fill-opacity="1" /><path clip-path="url(#clip152)" d="
M515.688 729.925 L515.688 1356.71 L623.515 1356.71 L623.515 729.925 L515.688 729.925 L515.688 729.925  Z
  " fill="#009af9" fill-rule="evenodd" fill-opacity="1"/>
<polyline clip-path="url(#clip152)" style="stroke:#000000; stroke-linecap:round; stroke-linejoin:round; stroke-width:4; stroke-opacity:1; fill:none" points="
  515.688,729.925 515.688,1356.71 623.515,1356.71 623.515,729.925 515.688,729.925 
  "/>
<path clip-path="url(#clip152)" d="
M785.257 733.417 L785.257 1356.71 L893.085 1356.71 L893.085 733.417 L785.257 733.417 L785.257 733.417  Z
  " fill="#009af9" fill-rule="evenodd" fill-opacity="1"/>
<polyline clip-path="url(#clip152)" style="stroke:#000000; stroke-linecap:round; stroke-linejoin:round; stroke-width:4; stroke-opacity:1; fill:none" points="
  785.257,733.417 785.257,1356.71 893.085,1356.71 893.085,733.417 785.257,733.417 
  "/>
<path clip-path="url(#clip152)" d="
M1054.83 632.167 L1054.83 1356.71 L1162.66 1356.71 L1162.66 632.167 L1054.83 632.167 L1054.83 632.167  Z
  " fill="#009af9" fill-rule="evenodd" fill-opacity="1"/>
<polyline clip-path="url(#clip152)" style="stroke:#000000; stroke-linecap:round; stroke-linejoin:round; stroke-width:4; stroke-opacity:1; fill:none" points="
  1054.83,632.167 1054.83,1356.71 1162.66,1356.71 1162.66,632.167 1054.83,632.167 
  "/>
<path clip-path="url(#clip152)" d="
M1324.4 466.859 L1324.4 1356.71 L1432.22 1356.71 L1432.22 466.859 L1324.4 466.859 L1324.4 466.859  Z
  " fill="#009af9" fill-rule="evenodd" fill-opacity="1"/>
<polyline clip-path="url(#clip152)" style="stroke:#000000; stroke-linecap:round; stroke-linejoin:round; stroke-width:4; stroke-opacity:1; fill:none" points="
  1324.4,466.859 1324.4,1356.71 1432.22,1356.71 1432.22,466.859 1324.4,466.859 
  "/>
<path clip-path="url(#clip152)" d="
M1593.97 430.751 L1593.97 1356.71 L1701.79 1356.71 L1701.79 430.751 L1593.97 430.751 L1593.97 430.751  Z
  " fill="#009af9" fill-rule="evenodd" fill-opacity="1"/>
<polyline clip-path="url(#clip152)" style="stroke:#000000; stroke-linecap:round; stroke-linejoin:round; stroke-width:4; stroke-opacity:1; fill:none" points="
  1593.97,430.751 1593.97,1356.71 1701.79,1356.71 1701.79,430.751 1593.97,430.751 
  "/>
<path clip-path="url(#clip152)" d="
M1863.54 247.973 L1863.54 1356.71 L1971.36 1356.71 L1971.36 247.973 L1863.54 247.973 L1863.54 247.973  Z
  " fill="#009af9" fill-rule="evenodd" fill-opacity="1"/>
<polyline clip-path="url(#clip152)" style="stroke:#000000; stroke-linecap:round; stroke-linejoin:round; stroke-width:4; stroke-opacity:1; fill:none" points="
  1863.54,247.973 1863.54,1356.71 1971.36,1356.71 1971.36,247.973 1863.54,247.973 
  "/>
<path clip-path="url(#clip152)" d="
M2133.11 191.527 L2133.11 1356.71 L2240.93 1356.71 L2240.93 191.527 L2133.11 191.527 L2133.11 191.527  Z
  " fill="#009af9" fill-rule="evenodd" fill-opacity="1"/>
<polyline clip-path="url(#clip152)" style="stroke:#000000; stroke-linecap:round; stroke-linejoin:round; stroke-width:4; stroke-opacity:1; fill:none" points="
  2133.11,191.527 2133.11,1356.71 2240.93,1356.71 2240.93,191.527 2133.11,191.527 
  "/>
<path clip-path="url(#clip152)" d="
M2402.68 287.486 L2402.68 1356.71 L2510.5 1356.71 L2510.5 287.486 L2402.68 287.486 L2402.68 287.486  Z
  " fill="#009af9" fill-rule="evenodd" fill-opacity="1"/>
<polyline clip-path="url(#clip152)" style="stroke:#000000; stroke-linecap:round; stroke-linejoin:round; stroke-width:4; stroke-opacity:1; fill:none" points="
  2402.68,287.486 2402.68,1356.71 2510.5,1356.71 2510.5,287.486 2402.68,287.486 
  "/>
<path clip-path="url(#clip152)" d="
M2672.25 390.95 L2672.25 1356.71 L2780.07 1356.71 L2780.07 390.95 L2672.25 390.95 L2672.25 390.95  Z
  " fill="#009af9" fill-rule="evenodd" fill-opacity="1"/>
<polyline clip-path="url(#clip152)" style="stroke:#000000; stroke-linecap:round; stroke-linejoin:round; stroke-width:4; stroke-opacity:1; fill:none" points="
  2672.25,390.95 2672.25,1356.71 2780.07,1356.71 2780.07,390.95 2672.25,390.95 
  "/>
<path clip-path="url(#clip152)" d="
M2941.82 452.431 L2941.82 1356.71 L3049.64 1356.71 L3049.64 452.431 L2941.82 452.431 L2941.82 452.431  Z
  " fill="#009af9" fill-rule="evenodd" fill-opacity="1"/>
<polyline clip-path="url(#clip152)" style="stroke:#000000; stroke-linecap:round; stroke-linejoin:round; stroke-width:4; stroke-opacity:1; fill:none" points="
  2941.82,452.431 2941.82,1356.71 3049.64,1356.71 3049.64,452.431 2941.82,452.431 
  "/>
<path clip-path="url(#clip152)" d="
M3211.39 623.763 L3211.39 1356.71 L3319.21 1356.71 L3319.21 623.763 L3211.39 623.763 L3211.39 623.763  Z
  " fill="#009af9" fill-rule="evenodd" fill-opacity="1"/>
<polyline clip-path="url(#clip152)" style="stroke:#000000; stroke-linecap:round; stroke-linejoin:round; stroke-width:4; stroke-opacity:1; fill:none" points="
  3211.39,623.763 3211.39,1356.71 3319.21,1356.71 3319.21,623.763 3211.39,623.763 
  "/>
<path clip-path="url(#clip152)" d="
M3480.96 729.939 L3480.96 1356.71 L3588.78 1356.71 L3588.78 729.939 L3480.96 729.939 L3480.96 729.939  Z
  " fill="#009af9" fill-rule="evenodd" fill-opacity="1"/>
<polyline clip-path="url(#clip152)" style="stroke:#000000; stroke-linecap:round; stroke-linejoin:round; stroke-width:4; stroke-opacity:1; fill:none" points="
  3480.96,729.939 3480.96,1356.71 3588.78,1356.71 3588.78,729.939 3480.96,729.939 
  "/>
<circle clip-path="url(#clip152)" style="fill:#009af9; stroke:none; fill-opacity:0" cx="569.601" cy="729.925" r="2"/>
<circle clip-path="url(#clip152)" style="fill:#009af9; stroke:none; fill-opacity:0" cx="839.171" cy="733.417" r="2"/>
<circle clip-path="url(#clip152)" style="fill:#009af9; stroke:none; fill-opacity:0" cx="1108.74" cy="632.167" r="2"/>
<circle clip-path="url(#clip152)" style="fill:#009af9; stroke:none; fill-opacity:0" cx="1378.31" cy="466.859" r="2"/>
<circle clip-path="url(#clip152)" style="fill:#009af9; stroke:none; fill-opacity:0" cx="1647.88" cy="430.751" r="2"/>
<circle clip-path="url(#clip152)" style="fill:#009af9; stroke:none; fill-opacity:0" cx="1917.45" cy="247.973" r="2"/>
<circle clip-path="url(#clip152)" style="fill:#009af9; stroke:none; fill-opacity:0" cx="2187.02" cy="191.527" r="2"/>
<circle clip-path="url(#clip152)" style="fill:#009af9; stroke:none; fill-opacity:0" cx="2456.59" cy="287.486" r="2"/>
<circle clip-path="url(#clip152)" style="fill:#009af9; stroke:none; fill-opacity:0" cx="2726.16" cy="390.95" r="2"/>
<circle clip-path="url(#clip152)" style="fill:#009af9; stroke:none; fill-opacity:0" cx="2995.73" cy="452.431" r="2"/>
<circle clip-path="url(#clip152)" style="fill:#009af9; stroke:none; fill-opacity:0" cx="3265.3" cy="623.763" r="2"/>
<circle clip-path="url(#clip152)" style="fill:#009af9; stroke:none; fill-opacity:0" cx="3534.87" cy="729.939" r="2"/>
<path clip-path="url(#clip152)" d="
M623.515 754.322 L623.515 1356.71 L731.343 1356.71 L731.343 754.322 L623.515 754.322 L623.515 754.322  Z
  " fill="#e26f46" fill-rule="evenodd" fill-opacity="1"/>
<polyline clip-path="url(#clip152)" style="stroke:#000000; stroke-linecap:round; stroke-linejoin:round; stroke-width:4; stroke-opacity:1; fill:none" points="
  623.515,754.322 623.515,1356.71 731.343,1356.71 731.343,754.322 623.515,754.322 
  "/>
<path clip-path="url(#clip152)" d="
M893.085 693.668 L893.085 1356.71 L1000.91 1356.71 L1000.91 693.668 L893.085 693.668 L893.085 693.668  Z
  " fill="#e26f46" fill-rule="evenodd" fill-opacity="1"/>
<polyline clip-path="url(#clip152)" style="stroke:#000000; stroke-linecap:round; stroke-linejoin:round; stroke-width:4; stroke-opacity:1; fill:none" points="
  893.085,693.668 893.085,1356.71 1000.91,1356.71 1000.91,693.668 893.085,693.668 
  "/>
<path clip-path="url(#clip152)" d="
M1162.66 663.818 L1162.66 1356.71 L1270.48 1356.71 L1270.48 663.818 L1162.66 663.818 L1162.66 663.818  Z
  " fill="#e26f46" fill-rule="evenodd" fill-opacity="1"/>
<polyline clip-path="url(#clip152)" style="stroke:#000000; stroke-linecap:round; stroke-linejoin:round; stroke-width:4; stroke-opacity:1; fill:none" points="
  1162.66,663.818 1162.66,1356.71 1270.48,1356.71 1270.48,663.818 1162.66,663.818 
  "/>
<path clip-path="url(#clip152)" d="
M1432.22 533.992 L1432.22 1356.71 L1540.05 1356.71 L1540.05 533.992 L1432.22 533.992 L1432.22 533.992  Z
  " fill="#e26f46" fill-rule="evenodd" fill-opacity="1"/>
<polyline clip-path="url(#clip152)" style="stroke:#000000; stroke-linecap:round; stroke-linejoin:round; stroke-width:4; stroke-opacity:1; fill:none" points="
  1432.22,533.992 1432.22,1356.71 1540.05,1356.71 1540.05,533.992 1432.22,533.992 
  "/>
<path clip-path="url(#clip152)" d="
M1701.79 320.595 L1701.79 1356.71 L1809.62 1356.71 L1809.62 320.595 L1701.79 320.595 L1701.79 320.595  Z
  " fill="#e26f46" fill-rule="evenodd" fill-opacity="1"/>
<polyline clip-path="url(#clip152)" style="stroke:#000000; stroke-linecap:round; stroke-linejoin:round; stroke-width:4; stroke-opacity:1; fill:none" points="
  1701.79,320.595 1701.79,1356.71 1809.62,1356.71 1809.62,320.595 1701.79,320.595 
  "/>
<path clip-path="url(#clip152)" d="
M1971.36 337.55 L1971.36 1356.71 L2079.19 1356.71 L2079.19 337.55 L1971.36 337.55 L1971.36 337.55  Z
  " fill="#e26f46" fill-rule="evenodd" fill-opacity="1"/>
<polyline clip-path="url(#clip152)" style="stroke:#000000; stroke-linecap:round; stroke-linejoin:round; stroke-width:4; stroke-opacity:1; fill:none" points="
  1971.36,337.55 1971.36,1356.71 2079.19,1356.71 2079.19,337.55 1971.36,337.55 
  "/>
<path clip-path="url(#clip152)" d="
M2240.93 146.541 L2240.93 1356.71 L2348.76 1356.71 L2348.76 146.541 L2240.93 146.541 L2240.93 146.541  Z
  " fill="#e26f46" fill-rule="evenodd" fill-opacity="1"/>
<polyline clip-path="url(#clip152)" style="stroke:#000000; stroke-linecap:round; stroke-linejoin:round; stroke-width:4; stroke-opacity:1; fill:none" points="
  2240.93,146.541 2240.93,1356.71 2348.76,1356.71 2348.76,146.541 2240.93,146.541 
  "/>
<path clip-path="url(#clip152)" d="
M2510.5 174.239 L2510.5 1356.71 L2618.33 1356.71 L2618.33 174.239 L2510.5 174.239 L2510.5 174.239  Z
  " fill="#e26f46" fill-rule="evenodd" fill-opacity="1"/>
<polyline clip-path="url(#clip152)" style="stroke:#000000; stroke-linecap:round; stroke-linejoin:round; stroke-width:4; stroke-opacity:1; fill:none" points="
  2510.5,174.239 2510.5,1356.71 2618.33,1356.71 2618.33,174.239 2510.5,174.239 
  "/>
<path clip-path="url(#clip152)" d="
M2780.07 231.792 L2780.07 1356.71 L2887.9 1356.71 L2887.9 231.792 L2780.07 231.792 L2780.07 231.792  Z
  " fill="#e26f46" fill-rule="evenodd" fill-opacity="1"/>
<polyline clip-path="url(#clip152)" style="stroke:#000000; stroke-linecap:round; stroke-linejoin:round; stroke-width:4; stroke-opacity:1; fill:none" points="
  2780.07,231.792 2780.07,1356.71 2887.9,1356.71 2887.9,231.792 2780.07,231.792 
  "/>
<path clip-path="url(#clip152)" d="
M3049.64 387.781 L3049.64 1356.71 L3157.47 1356.71 L3157.47 387.781 L3049.64 387.781 L3049.64 387.781  Z
  " fill="#e26f46" fill-rule="evenodd" fill-opacity="1"/>
<polyline clip-path="url(#clip152)" style="stroke:#000000; stroke-linecap:round; stroke-linejoin:round; stroke-width:4; stroke-opacity:1; fill:none" points="
  3049.64,387.781 3049.64,1356.71 3157.47,1356.71 3157.47,387.781 3049.64,387.781 
  "/>
<path clip-path="url(#clip152)" d="
M3319.21 603.532 L3319.21 1356.71 L3427.04 1356.71 L3427.04 603.532 L3319.21 603.532 L3319.21 603.532  Z
  " fill="#e26f46" fill-rule="evenodd" fill-opacity="1"/>
<polyline clip-path="url(#clip152)" style="stroke:#000000; stroke-linecap:round; stroke-linejoin:round; stroke-width:4; stroke-opacity:1; fill:none" points="
  3319.21,603.532 3319.21,1356.71 3427.04,1356.71 3427.04,603.532 3319.21,603.532 
  "/>
<path clip-path="url(#clip152)" d="
M3588.78 682.564 L3588.78 1356.71 L3696.61 1356.71 L3696.61 682.564 L3588.78 682.564 L3588.78 682.564  Z
  " fill="#e26f46" fill-rule="evenodd" fill-opacity="1"/>
<polyline clip-path="url(#clip152)" style="stroke:#000000; stroke-linecap:round; stroke-linejoin:round; stroke-width:4; stroke-opacity:1; fill:none" points="
  3588.78,682.564 3588.78,1356.71 3696.61,1356.71 3696.61,682.564 3588.78,682.564 
  "/>
<circle clip-path="url(#clip152)" style="fill:#e26f46; stroke:none; fill-opacity:0" cx="677.429" cy="754.322" r="2"/>
<circle clip-path="url(#clip152)" style="fill:#e26f46; stroke:none; fill-opacity:0" cx="946.999" cy="693.668" r="2"/>
<circle clip-path="url(#clip152)" style="fill:#e26f46; stroke:none; fill-opacity:0" cx="1216.57" cy="663.818" r="2"/>
<circle clip-path="url(#clip152)" style="fill:#e26f46; stroke:none; fill-opacity:0" cx="1486.14" cy="533.992" r="2"/>
<circle clip-path="url(#clip152)" style="fill:#e26f46; stroke:none; fill-opacity:0" cx="1755.71" cy="320.595" r="2"/>
<circle clip-path="url(#clip152)" style="fill:#e26f46; stroke:none; fill-opacity:0" cx="2025.28" cy="337.55" r="2"/>
<circle clip-path="url(#clip152)" style="fill:#e26f46; stroke:none; fill-opacity:0" cx="2294.85" cy="146.541" r="2"/>
<circle clip-path="url(#clip152)" style="fill:#e26f46; stroke:none; fill-opacity:0" cx="2564.42" cy="174.239" r="2"/>
<circle clip-path="url(#clip152)" style="fill:#e26f46; stroke:none; fill-opacity:0" cx="2833.99" cy="231.792" r="2"/>
<circle clip-path="url(#clip152)" style="fill:#e26f46; stroke:none; fill-opacity:0" cx="3103.56" cy="387.781" r="2"/>
<circle clip-path="url(#clip152)" style="fill:#e26f46; stroke:none; fill-opacity:0" cx="3373.13" cy="603.532" r="2"/>
<circle clip-path="url(#clip152)" style="fill:#e26f46; stroke:none; fill-opacity:0" cx="3642.7" cy="682.564" r="2"/>
<path clip-path="url(#clip150)" d="
M3299.94 308.516 L3770.86 308.516 L3770.86 152.996 L3299.94 152.996  Z
  " fill="#ffffff" fill-rule="evenodd" fill-opacity="1"/>
<polyline clip-path="url(#clip150)" style="stroke:#000000; stroke-linecap:round; stroke-linejoin:round; stroke-width:4; stroke-opacity:1; fill:none" points="
  3299.94,308.516 3770.86,308.516 3770.86,152.996 3299.94,152.996 3299.94,308.516 
  "/>
<path clip-path="url(#clip150)" d="
M3339.58 225.572 L3577.4 225.572 L3577.4 184.1 L3339.58 184.1 L3339.58 225.572  Z
  " fill="#009af9" fill-rule="evenodd" fill-opacity="1"/>
<polyline clip-path="url(#clip150)" style="stroke:#000000; stroke-linecap:round; stroke-linejoin:round; stroke-width:4; stroke-opacity:1; fill:none" points="
  3339.58,225.572 3577.4,225.572 3577.4,184.1 3339.58,184.1 3339.58,225.572 
  "/>
<path clip-path="url(#clip150)" d="M3622.66 218.181 L3638.98 218.181 L3638.98 222.116 L3617.03 222.116 L3617.03 218.181 Q3619.69 215.426 3624.28 210.796 Q3628.88 206.144 3630.06 204.801 Q3632.31 202.278 3633.19 200.542 Q3634.09 198.782 3634.09 197.093 Q3634.09 194.338 3632.15 192.602 Q3630.23 190.866 3627.12 190.866 Q3624.92 190.866 3622.47 191.63 Q3620.04 192.394 3617.26 193.945 L3617.26 189.222 Q3620.09 188.088 3622.54 187.509 Q3624.99 186.931 3627.03 186.931 Q3632.4 186.931 3635.6 189.616 Q3638.79 192.301 3638.79 196.792 Q3638.79 198.921 3637.98 200.843 Q3637.19 202.741 3635.09 205.333 Q3634.51 206.005 3631.41 209.222 Q3628.3 212.417 3622.66 218.181 Z" fill="#000000" fill-rule="evenodd" fill-opacity="1" /><path clip-path="url(#clip150)" d="M3658.79 190.634 Q3655.18 190.634 3653.35 194.199 Q3651.54 197.741 3651.54 204.87 Q3651.54 211.977 3653.35 215.542 Q3655.18 219.083 3658.79 219.083 Q3662.42 219.083 3664.23 215.542 Q3666.06 211.977 3666.06 204.87 Q3666.06 197.741 3664.23 194.199 Q3662.42 190.634 3658.79 190.634 M3658.79 186.931 Q3664.6 186.931 3667.66 191.537 Q3670.73 196.12 3670.73 204.87 Q3670.73 213.597 3667.66 218.204 Q3664.6 222.787 3658.79 222.787 Q3652.98 222.787 3649.9 218.204 Q3646.85 213.597 3646.85 204.87 Q3646.85 196.12 3649.9 191.537 Q3652.98 186.931 3658.79 186.931 Z" fill="#000000" fill-rule="evenodd" fill-opacity="1" /><path clip-path="url(#clip150)" d="M3679.76 218.181 L3687.4 218.181 L3687.4 191.815 L3679.09 193.482 L3679.09 189.222 L3687.35 187.556 L3692.03 187.556 L3692.03 218.181 L3699.67 218.181 L3699.67 222.116 L3679.76 222.116 L3679.76 218.181 Z" fill="#000000" fill-rule="evenodd" fill-opacity="1" /><path clip-path="url(#clip150)" d="M3709.16 187.556 L3727.52 187.556 L3727.52 191.491 L3713.44 191.491 L3713.44 199.963 Q3714.46 199.616 3715.48 199.454 Q3716.5 199.269 3717.52 199.269 Q3723.3 199.269 3726.68 202.44 Q3730.06 205.611 3730.06 211.028 Q3730.06 216.606 3726.59 219.708 Q3723.12 222.787 3716.8 222.787 Q3714.62 222.787 3712.35 222.417 Q3710.11 222.046 3707.7 221.305 L3707.7 216.606 Q3709.79 217.741 3712.01 218.296 Q3714.23 218.852 3716.71 218.852 Q3720.71 218.852 3723.05 216.745 Q3725.39 214.639 3725.39 211.028 Q3725.39 207.417 3723.05 205.31 Q3720.71 203.204 3716.71 203.204 Q3714.83 203.204 3712.96 203.62 Q3711.1 204.037 3709.16 204.917 L3709.16 187.556 Z" fill="#000000" fill-rule="evenodd" fill-opacity="1" /><path clip-path="url(#clip150)" d="
M3339.58 277.412 L3577.4 277.412 L3577.4 235.94 L3339.58 235.94 L3339.58 277.412  Z
  " fill="#e26f46" fill-rule="evenodd" fill-opacity="1"/>
<polyline clip-path="url(#clip150)" style="stroke:#000000; stroke-linecap:round; stroke-linejoin:round; stroke-width:4; stroke-opacity:1; fill:none" points="
  3339.58,277.412 3577.4,277.412 3577.4,235.94 3339.58,235.94 3339.58,277.412 
  "/>
<path clip-path="url(#clip150)" d="M3622.66 270.021 L3638.98 270.021 L3638.98 273.956 L3617.03 273.956 L3617.03 270.021 Q3619.69 267.266 3624.28 262.636 Q3628.88 257.984 3630.06 256.641 Q3632.31 254.118 3633.19 252.382 Q3634.09 250.622 3634.09 248.933 Q3634.09 246.178 3632.15 244.442 Q3630.23 242.706 3627.12 242.706 Q3624.92 242.706 3622.47 243.47 Q3620.04 244.234 3617.26 245.785 L3617.26 241.062 Q3620.09 239.928 3622.54 239.349 Q3624.99 238.771 3627.03 238.771 Q3632.4 238.771 3635.6 241.456 Q3638.79 244.141 3638.79 248.632 Q3638.79 250.761 3637.98 252.683 Q3637.19 254.581 3635.09 257.173 Q3634.51 257.845 3631.41 261.062 Q3628.3 264.257 3622.66 270.021 Z" fill="#000000" fill-rule="evenodd" fill-opacity="1" /><path clip-path="url(#clip150)" d="M3658.79 242.474 Q3655.18 242.474 3653.35 246.039 Q3651.54 249.581 3651.54 256.71 Q3651.54 263.817 3653.35 267.382 Q3655.18 270.923 3658.79 270.923 Q3662.42 270.923 3664.23 267.382 Q3666.06 263.817 3666.06 256.71 Q3666.06 249.581 3664.23 246.039 Q3662.42 242.474 3658.79 242.474 M3658.79 238.771 Q3664.6 238.771 3667.66 243.377 Q3670.73 247.96 3670.73 256.71 Q3670.73 265.437 3667.66 270.044 Q3664.6 274.627 3658.79 274.627 Q3652.98 274.627 3649.9 270.044 Q3646.85 265.437 3646.85 256.71 Q3646.85 247.96 3649.9 243.377 Q3652.98 238.771 3658.79 238.771 Z" fill="#000000" fill-rule="evenodd" fill-opacity="1" /><path clip-path="url(#clip150)" d="M3679.76 270.021 L3687.4 270.021 L3687.4 243.655 L3679.09 245.322 L3679.09 241.062 L3687.35 239.396 L3692.03 239.396 L3692.03 270.021 L3699.67 270.021 L3699.67 273.956 L3679.76 273.956 L3679.76 270.021 Z" fill="#000000" fill-rule="evenodd" fill-opacity="1" /><path clip-path="url(#clip150)" d="M3719.69 254.812 Q3716.54 254.812 3714.69 256.965 Q3712.86 259.118 3712.86 262.868 Q3712.86 266.595 3714.69 268.771 Q3716.54 270.923 3719.69 270.923 Q3722.84 270.923 3724.67 268.771 Q3726.52 266.595 3726.52 262.868 Q3726.52 259.118 3724.67 256.965 Q3722.84 254.812 3719.69 254.812 M3728.97 240.16 L3728.97 244.419 Q3727.22 243.585 3725.41 243.146 Q3723.63 242.706 3721.87 242.706 Q3717.24 242.706 3714.79 245.831 Q3712.35 248.956 3712.01 255.275 Q3713.37 253.261 3715.43 252.197 Q3717.49 251.109 3719.97 251.109 Q3725.18 251.109 3728.19 254.28 Q3731.22 257.428 3731.22 262.868 Q3731.22 268.192 3728.07 271.409 Q3724.92 274.627 3719.69 274.627 Q3713.7 274.627 3710.53 270.044 Q3707.35 265.437 3707.35 256.71 Q3707.35 248.516 3711.24 243.655 Q3715.13 238.771 3721.68 238.771 Q3723.44 238.771 3725.22 239.118 Q3727.03 239.465 3728.97 240.16 Z" fill="#000000" fill-rule="evenodd" fill-opacity="1" /></svg>
