<?xml version="1.0" encoding="utf-8"?>
<svg xmlns="http://www.w3.org/2000/svg" xmlns:xlink="http://www.w3.org/1999/xlink" width="800" height="600" viewBox="0 0 3200 2400">
<defs>
  <clipPath id="clip740">
    <rect x="0" y="0" width="3200" height="2400"/>
  </clipPath>
</defs>
<path clip-path="url(#clip740)" d="
M0 2400 L3200 2400 L3200 0 L0 0  Z
  " fill="#ffffff" fill-rule="evenodd" fill-opacity="1"/>
<defs>
  <clipPath id="clip741">
    <rect x="640" y="0" width="2241" height="2241"/>
  </clipPath>
</defs>
<path clip-path="url(#clip740)" d="
M279.385 2204.92 L3152.76 2204.92 L3152.76 47.2441 L279.385 47.2441  Z
  " fill="#ffffff" fill-rule="evenodd" fill-opacity="1"/>
<defs>
  <clipPath id="clip742">
    <rect x="279" y="47" width="2874" height="2159"/>
  </clipPath>
</defs>
<polyline clip-path="url(#clip742)" style="stroke:#000000; stroke-linecap:round; stroke-linejoin:round; stroke-width:2; stroke-opacity:0.1; fill:none" points="
  549.86,2204.92 549.86,47.2441 
  "/>
<polyline clip-path="url(#clip742)" style="stroke:#000000; stroke-linecap:round; stroke-linejoin:round; stroke-width:2; stroke-opacity:0.1; fill:none" points="
  1267.53,2204.92 1267.53,47.2441 
  "/>
<polyline clip-path="url(#clip742)" style="stroke:#000000; stroke-linecap:round; stroke-linejoin:round; stroke-width:2; stroke-opacity:0.1; fill:none" points="
  1985.2,2204.92 1985.2,47.2441 
  "/>
<polyline clip-path="url(#clip742)" style="stroke:#000000; stroke-linecap:round; stroke-linejoin:round; stroke-width:2; stroke-opacity:0.1; fill:none" points="
  2702.86,2204.92 2702.86,47.2441 
  "/>
<polyline clip-path="url(#clip740)" style="stroke:#000000; stroke-linecap:round; stroke-linejoin:round; stroke-width:4; stroke-opacity:1; fill:none" points="
  279.385,2204.92 3152.76,2204.92 
  "/>
<polyline clip-path="url(#clip740)" style="stroke:#000000; stroke-linecap:round; stroke-linejoin:round; stroke-width:4; stroke-opacity:1; fill:none" points="
  549.86,2204.92 549.86,2186.02 
  "/>
<polyline clip-path="url(#clip740)" style="stroke:#000000; stroke-linecap:round; stroke-linejoin:round; stroke-width:4; stroke-opacity:1; fill:none" points="
  1267.53,2204.92 1267.53,2186.02 
  "/>
<polyline clip-path="url(#clip740)" style="stroke:#000000; stroke-linecap:round; stroke-linejoin:round; stroke-width:4; stroke-opacity:1; fill:none" points="
  1985.2,2204.92 1985.2,2186.02 
  "/>
<polyline clip-path="url(#clip740)" style="stroke:#000000; stroke-linecap:round; stroke-linejoin:round; stroke-width:4; stroke-opacity:1; fill:none" points="
  2702.86,2204.92 2702.86,2186.02 
  "/>
<path clip-path="url(#clip740)" d="M549.86 2242.24 Q546.249 2242.24 544.42 2245.8 Q542.615 2249.34 542.615 2256.47 Q542.615 2263.58 544.42 2267.15 Q546.249 2270.69 549.86 2270.69 Q553.494 2270.69 555.3 2267.15 Q557.128 2263.58 557.128 2256.47 Q557.128 2249.34 555.3 2245.8 Q553.494 2242.24 549.86 2242.24 M549.86 2238.53 Q555.67 2238.53 558.726 2243.14 Q561.804 2247.72 561.804 2256.47 Q561.804 2265.2 558.726 2269.81 Q555.67 2274.39 549.86 2274.39 Q544.05 2274.39 540.971 2269.81 Q537.916 2265.2 537.916 2256.47 Q537.916 2247.72 540.971 2243.14 Q544.05 2238.53 549.86 2238.53 Z" fill="#000000" fill-rule="evenodd" fill-opacity="1" /><path clip-path="url(#clip740)" d="M1242.22 2269.78 L1249.85 2269.78 L1249.85 2243.42 L1241.54 2245.09 L1241.54 2240.83 L1249.81 2239.16 L1254.48 2239.16 L1254.48 2269.78 L1262.12 2269.78 L1262.12 2273.72 L1242.22 2273.72 L1242.22 2269.78 Z" fill="#000000" fill-rule="evenodd" fill-opacity="1" /><path clip-path="url(#clip740)" d="M1281.57 2242.24 Q1277.96 2242.24 1276.13 2245.8 Q1274.32 2249.34 1274.32 2256.47 Q1274.32 2263.58 1276.13 2267.15 Q1277.96 2270.69 1281.57 2270.69 Q1285.2 2270.69 1287.01 2267.15 Q1288.84 2263.58 1288.84 2256.47 Q1288.84 2249.34 1287.01 2245.8 Q1285.2 2242.24 1281.57 2242.24 M1281.57 2238.53 Q1287.38 2238.53 1290.43 2243.14 Q1293.51 2247.72 1293.51 2256.47 Q1293.51 2265.2 1290.43 2269.81 Q1287.38 2274.39 1281.57 2274.39 Q1275.76 2274.39 1272.68 2269.81 Q1269.62 2265.2 1269.62 2256.47 Q1269.62 2247.72 1272.68 2243.14 Q1275.76 2238.53 1281.57 2238.53 Z" fill="#000000" fill-rule="evenodd" fill-opacity="1" /><path clip-path="url(#clip740)" d="M1963.97 2269.78 L1980.29 2269.78 L1980.29 2273.72 L1958.34 2273.72 L1958.34 2269.78 Q1961.01 2267.03 1965.59 2262.4 Q1970.2 2257.75 1971.38 2256.41 Q1973.62 2253.88 1974.5 2252.15 Q1975.4 2250.39 1975.4 2248.7 Q1975.4 2245.94 1973.46 2244.21 Q1971.54 2242.47 1968.44 2242.47 Q1966.24 2242.47 1963.78 2243.23 Q1961.35 2244 1958.58 2245.55 L1958.58 2240.83 Q1961.4 2239.69 1963.85 2239.11 Q1966.31 2238.53 1968.34 2238.53 Q1973.71 2238.53 1976.91 2241.22 Q1980.1 2243.91 1980.1 2248.4 Q1980.1 2250.53 1979.29 2252.45 Q1978.51 2254.34 1976.4 2256.94 Q1975.82 2257.61 1972.72 2260.83 Q1969.62 2264.02 1963.97 2269.78 Z" fill="#000000" fill-rule="evenodd" fill-opacity="1" /><path clip-path="url(#clip740)" d="M2000.1 2242.24 Q1996.49 2242.24 1994.66 2245.8 Q1992.86 2249.34 1992.86 2256.47 Q1992.86 2263.58 1994.66 2267.15 Q1996.49 2270.69 2000.1 2270.69 Q2003.74 2270.69 2005.54 2267.15 Q2007.37 2263.58 2007.37 2256.47 Q2007.37 2249.34 2005.54 2245.8 Q2003.74 2242.24 2000.1 2242.24 M2000.1 2238.53 Q2005.91 2238.53 2008.97 2243.14 Q2012.05 2247.72 2012.05 2256.47 Q2012.05 2265.2 2008.97 2269.81 Q2005.91 2274.39 2000.1 2274.39 Q1994.29 2274.39 1991.21 2269.81 Q1988.16 2265.2 1988.16 2256.47 Q1988.16 2247.72 1991.21 2243.14 Q1994.29 2238.53 2000.1 2238.53 Z" fill="#000000" fill-rule="evenodd" fill-opacity="1" /><path clip-path="url(#clip740)" d="M2691.71 2255.09 Q2695.06 2255.8 2696.94 2258.07 Q2698.84 2260.34 2698.84 2263.67 Q2698.84 2268.79 2695.32 2271.59 Q2691.8 2274.39 2685.32 2274.39 Q2683.14 2274.39 2680.83 2273.95 Q2678.54 2273.53 2676.08 2272.68 L2676.08 2268.16 Q2678.03 2269.3 2680.34 2269.88 Q2682.66 2270.46 2685.18 2270.46 Q2689.58 2270.46 2691.87 2268.72 Q2694.18 2266.98 2694.18 2263.67 Q2694.18 2260.62 2692.03 2258.91 Q2689.9 2257.17 2686.08 2257.17 L2682.05 2257.17 L2682.05 2253.33 L2686.27 2253.33 Q2689.72 2253.33 2691.54 2251.96 Q2693.37 2250.57 2693.37 2247.98 Q2693.37 2245.32 2691.47 2243.91 Q2689.6 2242.47 2686.08 2242.47 Q2684.16 2242.47 2681.96 2242.89 Q2679.76 2243.3 2677.12 2244.18 L2677.12 2240.02 Q2679.79 2239.28 2682.1 2238.91 Q2684.44 2238.53 2686.5 2238.53 Q2691.82 2238.53 2694.92 2240.97 Q2698.03 2243.37 2698.03 2247.49 Q2698.03 2250.36 2696.38 2252.35 Q2694.74 2254.32 2691.71 2255.09 Z" fill="#000000" fill-rule="evenodd" fill-opacity="1" /><path clip-path="url(#clip740)" d="M2717.7 2242.24 Q2714.09 2242.24 2712.26 2245.8 Q2710.46 2249.34 2710.46 2256.47 Q2710.46 2263.58 2712.26 2267.15 Q2714.09 2270.69 2717.7 2270.69 Q2721.34 2270.69 2723.14 2267.15 Q2724.97 2263.58 2724.97 2256.47 Q2724.97 2249.34 2723.14 2245.8 Q2721.34 2242.24 2717.7 2242.24 M2717.7 2238.53 Q2723.51 2238.53 2726.57 2243.14 Q2729.65 2247.72 2729.65 2256.47 Q2729.65 2265.2 2726.57 2269.81 Q2723.51 2274.39 2717.7 2274.39 Q2711.89 2274.39 2708.81 2269.81 Q2705.76 2265.2 2705.76 2256.47 Q2705.76 2247.72 2708.81 2243.14 Q2711.89 2238.53 2717.7 2238.53 Z" fill="#000000" fill-rule="evenodd" fill-opacity="1" /><path clip-path="url(#clip740)" d="M1371.35 2314.26 L1411.55 2314.26 L1411.55 2319.67 L1394.68 2319.67 L1394.68 2361.78 L1388.22 2361.78 L1388.22 2319.67 L1371.35 2319.67 L1371.35 2314.26 Z" fill="#000000" fill-rule="evenodd" fill-opacity="1" /><path clip-path="url(#clip740)" d="M1436.92 2342.5 L1436.92 2345.36 L1409.99 2345.36 Q1410.37 2351.41 1413.62 2354.59 Q1416.9 2357.74 1422.72 2357.74 Q1426.1 2357.74 1429.25 2356.91 Q1432.43 2356.09 1435.55 2354.43 L1435.55 2359.97 Q1432.4 2361.31 1429.09 2362.01 Q1425.78 2362.71 1422.37 2362.71 Q1413.84 2362.71 1408.85 2357.74 Q1403.88 2352.78 1403.88 2344.31 Q1403.88 2335.56 1408.59 2330.43 Q1413.33 2325.28 1421.35 2325.28 Q1428.55 2325.28 1432.72 2329.92 Q1436.92 2334.54 1436.92 2342.5 M1431.06 2340.78 Q1431 2335.97 1428.36 2333.11 Q1425.75 2330.24 1421.42 2330.24 Q1416.52 2330.24 1413.56 2333.01 Q1410.63 2335.78 1410.18 2340.81 L1431.06 2340.78 Z" fill="#000000" fill-rule="evenodd" fill-opacity="1" /><path clip-path="url(#clip740)" d="M1474.28 2332.98 Q1476.48 2329.03 1479.54 2327.15 Q1482.59 2325.28 1486.73 2325.28 Q1492.3 2325.28 1495.32 2329.19 Q1498.35 2333.07 1498.35 2340.27 L1498.35 2361.78 L1492.46 2361.78 L1492.46 2340.46 Q1492.46 2335.33 1490.64 2332.85 Q1488.83 2330.37 1485.11 2330.37 Q1480.56 2330.37 1477.91 2333.39 Q1475.27 2336.42 1475.27 2341.64 L1475.27 2361.78 L1469.38 2361.78 L1469.38 2340.46 Q1469.38 2335.3 1467.57 2332.85 Q1465.75 2330.37 1461.97 2330.37 Q1457.48 2330.37 1454.84 2333.42 Q1452.2 2336.45 1452.2 2341.64 L1452.2 2361.78 L1446.31 2361.78 L1446.31 2326.14 L1452.2 2326.14 L1452.2 2331.67 Q1454.2 2328.4 1457 2326.84 Q1459.8 2325.28 1463.65 2325.28 Q1467.54 2325.28 1470.24 2327.25 Q1472.98 2329.22 1474.28 2332.98 Z" fill="#000000" fill-rule="evenodd" fill-opacity="1" /><path clip-path="url(#clip740)" d="M1515.69 2356.44 L1515.69 2375.34 L1509.81 2375.34 L1509.81 2326.14 L1515.69 2326.14 L1515.69 2331.55 Q1517.54 2328.36 1520.34 2326.84 Q1523.17 2325.28 1527.09 2325.28 Q1533.58 2325.28 1537.62 2330.43 Q1541.7 2335.59 1541.7 2343.99 Q1541.7 2352.39 1537.62 2357.55 Q1533.58 2362.71 1527.09 2362.71 Q1523.17 2362.71 1520.34 2361.18 Q1517.54 2359.62 1515.69 2356.44 M1535.62 2343.99 Q1535.62 2337.53 1532.94 2333.87 Q1530.3 2330.18 1525.66 2330.18 Q1521.01 2330.18 1518.34 2333.87 Q1515.69 2337.53 1515.69 2343.99 Q1515.69 2350.45 1518.34 2354.14 Q1521.01 2357.81 1525.66 2357.81 Q1530.3 2357.81 1532.94 2354.14 Q1535.62 2350.45 1535.62 2343.99 Z" fill="#000000" fill-rule="evenodd" fill-opacity="1" /><path clip-path="url(#clip740)" d="M1581.9 2342.5 L1581.9 2345.36 L1554.97 2345.36 Q1555.35 2351.41 1558.6 2354.59 Q1561.88 2357.74 1567.7 2357.74 Q1571.08 2357.74 1574.23 2356.91 Q1577.41 2356.09 1580.53 2354.43 L1580.53 2359.97 Q1577.38 2361.31 1574.07 2362.01 Q1570.76 2362.71 1567.35 2362.71 Q1558.82 2362.71 1553.82 2357.74 Q1548.86 2352.78 1548.86 2344.31 Q1548.86 2335.56 1553.57 2330.43 Q1558.31 2325.28 1566.33 2325.28 Q1573.53 2325.28 1577.7 2329.92 Q1581.9 2334.54 1581.9 2342.5 M1576.04 2340.78 Q1575.98 2335.97 1573.34 2333.11 Q1570.73 2330.24 1566.4 2330.24 Q1561.5 2330.24 1558.53 2333.01 Q1555.61 2335.78 1555.16 2340.81 L1576.04 2340.78 Z" fill="#000000" fill-rule="evenodd" fill-opacity="1" /><path clip-path="url(#clip740)" d="M1612.17 2331.61 Q1611.18 2331.04 1610 2330.78 Q1608.86 2330.5 1607.46 2330.5 Q1602.49 2330.5 1599.82 2333.74 Q1597.17 2336.96 1597.17 2343.01 L1597.17 2361.78 L1591.29 2361.78 L1591.29 2326.14 L1597.17 2326.14 L1597.17 2331.67 Q1599.02 2328.43 1601.98 2326.87 Q1604.94 2325.28 1609.17 2325.28 Q1609.78 2325.28 1610.51 2325.37 Q1611.24 2325.44 1612.13 2325.59 L1612.17 2331.61 Z" fill="#000000" fill-rule="evenodd" fill-opacity="1" /><path clip-path="url(#clip740)" d="M1634.51 2343.86 Q1627.41 2343.86 1624.67 2345.49 Q1621.94 2347.11 1621.94 2351.03 Q1621.94 2354.14 1623.97 2355.99 Q1626.04 2357.81 1629.58 2357.81 Q1634.45 2357.81 1637.37 2354.37 Q1640.33 2350.9 1640.33 2345.17 L1640.33 2343.86 L1634.51 2343.86 M1646.19 2341.45 L1646.19 2361.78 L1640.33 2361.78 L1640.33 2356.37 Q1638.33 2359.62 1635.34 2361.18 Q1632.35 2362.71 1628.02 2362.71 Q1622.54 2362.71 1619.3 2359.65 Q1616.08 2356.56 1616.08 2351.41 Q1616.08 2345.39 1620.09 2342.34 Q1624.13 2339.28 1632.12 2339.28 L1640.33 2339.28 L1640.33 2338.71 Q1640.33 2334.67 1637.66 2332.47 Q1635.02 2330.24 1630.21 2330.24 Q1627.16 2330.24 1624.26 2330.97 Q1621.36 2331.71 1618.69 2333.17 L1618.69 2327.76 Q1621.91 2326.52 1624.93 2325.91 Q1627.95 2325.28 1630.82 2325.28 Q1638.55 2325.28 1642.37 2329.29 Q1646.19 2333.3 1646.19 2341.45 Z" fill="#000000" fill-rule="evenodd" fill-opacity="1" /><path clip-path="url(#clip740)" d="M1657.65 2347.72 L1657.65 2326.14 L1663.51 2326.14 L1663.51 2347.49 Q1663.51 2352.55 1665.48 2355.1 Q1667.45 2357.61 1671.4 2357.61 Q1676.14 2357.61 1678.88 2354.59 Q1681.65 2351.57 1681.65 2346.35 L1681.65 2326.14 L1687.5 2326.14 L1687.5 2361.78 L1681.65 2361.78 L1681.65 2356.31 Q1679.52 2359.56 1676.68 2361.15 Q1673.88 2362.71 1670.16 2362.71 Q1664.01 2362.71 1660.83 2358.89 Q1657.65 2355.07 1657.65 2347.72 M1672.39 2325.28 L1672.39 2325.28 Z" fill="#000000" fill-rule="evenodd" fill-opacity="1" /><path clip-path="url(#clip740)" d="M1705.36 2316.01 L1705.36 2326.14 L1717.42 2326.14 L1717.42 2330.69 L1705.36 2330.69 L1705.36 2350.04 Q1705.36 2354.4 1706.54 2355.64 Q1707.75 2356.88 1711.41 2356.88 L1717.42 2356.88 L1717.42 2361.78 L1711.41 2361.78 Q1704.63 2361.78 1702.05 2359.27 Q1699.47 2356.72 1699.47 2350.04 L1699.47 2330.69 L1695.17 2330.69 L1695.17 2326.14 L1699.47 2326.14 L1699.47 2316.01 L1705.36 2316.01 Z" fill="#000000" fill-rule="evenodd" fill-opacity="1" /><path clip-path="url(#clip740)" d="M1745.78 2331.61 Q1744.8 2331.04 1743.62 2330.78 Q1742.47 2330.5 1741.07 2330.5 Q1736.11 2330.5 1733.43 2333.74 Q1730.79 2336.96 1730.79 2343.01 L1730.79 2361.78 L1724.9 2361.78 L1724.9 2326.14 L1730.79 2326.14 L1730.79 2331.67 Q1732.64 2328.43 1735.6 2326.87 Q1738.56 2325.28 1742.79 2325.28 Q1743.4 2325.28 1744.13 2325.37 Q1744.86 2325.44 1745.75 2325.59 L1745.78 2331.61 Z" fill="#000000" fill-rule="evenodd" fill-opacity="1" /><path clip-path="url(#clip740)" d="M1780.98 2342.5 L1780.98 2345.36 L1754.06 2345.36 Q1754.44 2351.41 1757.69 2354.59 Q1760.96 2357.74 1766.79 2357.74 Q1770.16 2357.74 1773.31 2356.91 Q1776.5 2356.09 1779.62 2354.43 L1779.62 2359.97 Q1776.46 2361.31 1773.15 2362.01 Q1769.84 2362.71 1766.44 2362.71 Q1757.91 2362.71 1752.91 2357.74 Q1747.95 2352.78 1747.95 2344.31 Q1747.95 2335.56 1752.66 2330.43 Q1757.4 2325.28 1765.42 2325.28 Q1772.61 2325.28 1776.78 2329.92 Q1780.98 2334.54 1780.98 2342.5 M1775.13 2340.78 Q1775.06 2335.97 1772.42 2333.11 Q1769.81 2330.24 1765.48 2330.24 Q1760.58 2330.24 1757.62 2333.01 Q1754.69 2335.78 1754.25 2340.81 L1775.13 2340.78 Z" fill="#000000" fill-rule="evenodd" fill-opacity="1" /><path clip-path="url(#clip740)" d="M1804.67 2312.32 Q1800.4 2319.64 1798.33 2326.8 Q1796.26 2333.97 1796.26 2341.32 Q1796.26 2348.67 1798.33 2355.9 Q1800.43 2363.09 1804.67 2370.38 L1799.57 2370.38 Q1794.8 2362.9 1792.41 2355.67 Q1790.06 2348.45 1790.06 2341.32 Q1790.06 2334.22 1792.41 2327.03 Q1794.77 2319.83 1799.57 2312.32 L1804.67 2312.32 Z" fill="#000000" fill-rule="evenodd" fill-opacity="1" /><path clip-path="url(#clip740)" d="M1851.87 2317.92 L1851.87 2324.7 Q1848.62 2321.68 1844.93 2320.18 Q1841.27 2318.69 1837.13 2318.69 Q1828.98 2318.69 1824.65 2323.69 Q1820.32 2328.65 1820.32 2338.07 Q1820.32 2347.46 1824.65 2352.46 Q1828.98 2357.42 1837.13 2357.42 Q1841.27 2357.42 1844.93 2355.93 Q1848.62 2354.43 1851.87 2351.41 L1851.87 2358.12 Q1848.49 2360.42 1844.71 2361.56 Q1840.95 2362.71 1836.75 2362.71 Q1825.96 2362.71 1819.75 2356.12 Q1813.55 2349.5 1813.55 2338.07 Q1813.55 2326.61 1819.75 2320.02 Q1825.96 2313.4 1836.75 2313.4 Q1841.01 2313.4 1844.77 2314.55 Q1848.56 2315.66 1851.87 2317.92 Z" fill="#000000" fill-rule="evenodd" fill-opacity="1" /><path clip-path="url(#clip740)" d="M1892.03 2342.5 L1892.03 2345.36 L1865.11 2345.36 Q1865.49 2351.41 1868.74 2354.59 Q1872.01 2357.74 1877.84 2357.74 Q1881.21 2357.74 1884.36 2356.91 Q1887.55 2356.09 1890.67 2354.43 L1890.67 2359.97 Q1887.51 2361.31 1884.2 2362.01 Q1880.89 2362.71 1877.49 2362.71 Q1868.96 2362.71 1863.96 2357.74 Q1859 2352.78 1859 2344.31 Q1859 2335.56 1863.71 2330.43 Q1868.45 2325.28 1876.47 2325.28 Q1883.66 2325.28 1887.83 2329.92 Q1892.03 2334.54 1892.03 2342.5 M1886.18 2340.78 Q1886.11 2335.97 1883.47 2333.11 Q1880.86 2330.24 1876.53 2330.24 Q1871.63 2330.24 1868.67 2333.01 Q1865.74 2335.78 1865.3 2340.81 L1886.18 2340.78 Z" fill="#000000" fill-rule="evenodd" fill-opacity="1" /><path clip-path="url(#clip740)" d="M1901.65 2312.26 L1907.5 2312.26 L1907.5 2361.78 L1901.65 2361.78 L1901.65 2312.26 Z" fill="#000000" fill-rule="evenodd" fill-opacity="1" /><path clip-path="url(#clip740)" d="M1942.48 2327.19 L1942.48 2332.72 Q1940 2331.45 1937.33 2330.81 Q1934.65 2330.18 1931.79 2330.18 Q1927.43 2330.18 1925.23 2331.51 Q1923.07 2332.85 1923.07 2335.53 Q1923.07 2337.56 1924.63 2338.74 Q1926.19 2339.89 1930.9 2340.94 L1932.9 2341.38 Q1939.14 2342.72 1941.75 2345.17 Q1944.39 2347.59 1944.39 2351.95 Q1944.39 2356.91 1940.45 2359.81 Q1936.53 2362.71 1929.66 2362.71 Q1926.79 2362.71 1923.67 2362.13 Q1920.58 2361.59 1917.15 2360.48 L1917.15 2354.43 Q1920.39 2356.12 1923.54 2356.98 Q1926.7 2357.81 1929.78 2357.81 Q1933.92 2357.81 1936.15 2356.4 Q1938.38 2354.97 1938.38 2352.39 Q1938.38 2350.01 1936.75 2348.73 Q1935.16 2347.46 1929.72 2346.28 L1927.68 2345.81 Q1922.24 2344.66 1919.82 2342.3 Q1917.4 2339.92 1917.4 2335.78 Q1917.4 2330.75 1920.97 2328.01 Q1924.53 2325.28 1931.09 2325.28 Q1934.33 2325.28 1937.2 2325.75 Q1940.06 2326.23 1942.48 2327.19 Z" fill="#000000" fill-rule="evenodd" fill-opacity="1" /><path clip-path="url(#clip740)" d="M1953.72 2326.14 L1959.57 2326.14 L1959.57 2361.78 L1953.72 2361.78 L1953.72 2326.14 M1953.72 2312.26 L1959.57 2312.26 L1959.57 2319.67 L1953.72 2319.67 L1953.72 2312.26 Z" fill="#000000" fill-rule="evenodd" fill-opacity="1" /><path clip-path="url(#clip740)" d="M1971.22 2347.72 L1971.22 2326.14 L1977.08 2326.14 L1977.08 2347.49 Q1977.08 2352.55 1979.05 2355.1 Q1981.03 2357.61 1984.97 2357.61 Q1989.72 2357.61 1992.45 2354.59 Q1995.22 2351.57 1995.22 2346.35 L1995.22 2326.14 L2001.08 2326.14 L2001.08 2361.78 L1995.22 2361.78 L1995.22 2356.31 Q1993.09 2359.56 1990.26 2361.15 Q1987.46 2362.71 1983.73 2362.71 Q1977.59 2362.71 1974.41 2358.89 Q1971.22 2355.07 1971.22 2347.72 M1985.96 2325.28 L1985.96 2325.28 Z" fill="#000000" fill-rule="evenodd" fill-opacity="1" /><path clip-path="url(#clip740)" d="M2035.87 2327.19 L2035.87 2332.72 Q2033.38 2331.45 2030.71 2330.81 Q2028.04 2330.18 2025.17 2330.18 Q2020.81 2330.18 2018.62 2331.51 Q2016.45 2332.85 2016.45 2335.53 Q2016.45 2337.56 2018.01 2338.74 Q2019.57 2339.89 2024.28 2340.94 L2026.29 2341.38 Q2032.53 2342.72 2035.14 2345.17 Q2037.78 2347.59 2037.78 2351.95 Q2037.78 2356.91 2033.83 2359.81 Q2029.92 2362.71 2023.04 2362.71 Q2020.18 2362.71 2017.06 2362.13 Q2013.97 2361.59 2010.53 2360.48 L2010.53 2354.43 Q2013.78 2356.12 2016.93 2356.98 Q2020.08 2357.81 2023.17 2357.81 Q2027.31 2357.81 2029.53 2356.4 Q2031.76 2354.97 2031.76 2352.39 Q2031.76 2350.01 2030.14 2348.73 Q2028.55 2347.46 2023.1 2346.28 L2021.07 2345.81 Q2015.62 2344.66 2013.21 2342.3 Q2010.79 2339.92 2010.79 2335.78 Q2010.79 2330.75 2014.35 2328.01 Q2017.92 2325.28 2024.47 2325.28 Q2027.72 2325.28 2030.58 2325.75 Q2033.45 2326.23 2035.87 2327.19 Z" fill="#000000" fill-rule="evenodd" fill-opacity="1" /><path clip-path="url(#clip740)" d="M2046.18 2312.32 L2051.27 2312.32 Q2056.05 2319.83 2058.4 2327.03 Q2060.79 2334.22 2060.79 2341.32 Q2060.79 2348.45 2058.4 2355.67 Q2056.05 2362.9 2051.27 2370.38 L2046.18 2370.38 Q2050.41 2363.09 2052.48 2355.9 Q2054.58 2348.67 2054.58 2341.32 Q2054.58 2333.97 2052.48 2326.8 Q2050.41 2319.64 2046.18 2312.32 Z" fill="#000000" fill-rule="evenodd" fill-opacity="1" /><polyline clip-path="url(#clip742)" style="stroke:#000000; stroke-linecap:round; stroke-linejoin:round; stroke-width:2; stroke-opacity:0.1; fill:none" points="
  279.385,2143.85 3152.76,2143.85 
  "/>
<polyline clip-path="url(#clip742)" style="stroke:#000000; stroke-linecap:round; stroke-linejoin:round; stroke-width:2; stroke-opacity:0.1; fill:none" points="
  279.385,1702.35 3152.76,1702.35 
  "/>
<polyline clip-path="url(#clip742)" style="stroke:#000000; stroke-linecap:round; stroke-linejoin:round; stroke-width:2; stroke-opacity:0.1; fill:none" points="
  279.385,1260.85 3152.76,1260.85 
  "/>
<polyline clip-path="url(#clip742)" style="stroke:#000000; stroke-linecap:round; stroke-linejoin:round; stroke-width:2; stroke-opacity:0.1; fill:none" points="
  279.385,819.349 3152.76,819.349 
  "/>
<polyline clip-path="url(#clip742)" style="stroke:#000000; stroke-linecap:round; stroke-linejoin:round; stroke-width:2; stroke-opacity:0.1; fill:none" points="
  279.385,377.847 3152.76,377.847 
  "/>
<polyline clip-path="url(#clip740)" style="stroke:#000000; stroke-linecap:round; stroke-linejoin:round; stroke-width:4; stroke-opacity:1; fill:none" points="
  279.385,2204.92 279.385,47.2441 
  "/>
<polyline clip-path="url(#clip740)" style="stroke:#000000; stroke-linecap:round; stroke-linejoin:round; stroke-width:4; stroke-opacity:1; fill:none" points="
  279.385,2143.85 298.282,2143.85 
  "/>
<polyline clip-path="url(#clip740)" style="stroke:#000000; stroke-linecap:round; stroke-linejoin:round; stroke-width:4; stroke-opacity:1; fill:none" points="
  279.385,1702.35 298.282,1702.35 
  "/>
<polyline clip-path="url(#clip740)" style="stroke:#000000; stroke-linecap:round; stroke-linejoin:round; stroke-width:4; stroke-opacity:1; fill:none" points="
  279.385,1260.85 298.282,1260.85 
  "/>
<polyline clip-path="url(#clip740)" style="stroke:#000000; stroke-linecap:round; stroke-linejoin:round; stroke-width:4; stroke-opacity:1; fill:none" points="
  279.385,819.349 298.282,819.349 
  "/>
<polyline clip-path="url(#clip740)" style="stroke:#000000; stroke-linecap:round; stroke-linejoin:round; stroke-width:4; stroke-opacity:1; fill:none" points="
  279.385,377.847 298.282,377.847 
  "/>
<path clip-path="url(#clip740)" d="M219.44 2129.65 Q215.829 2129.65 214.001 2133.22 Q212.195 2136.76 212.195 2143.89 Q212.195 2150.99 214.001 2154.56 Q215.829 2158.1 219.44 2158.1 Q223.075 2158.1 224.88 2154.56 Q226.709 2150.99 226.709 2143.89 Q226.709 2136.76 224.88 2133.22 Q223.075 2129.65 219.44 2129.65 M219.44 2125.95 Q225.25 2125.95 228.306 2130.56 Q231.385 2135.14 231.385 2143.89 Q231.385 2152.62 228.306 2157.22 Q225.25 2161.8 219.44 2161.8 Q213.63 2161.8 210.552 2157.22 Q207.496 2152.62 207.496 2143.89 Q207.496 2135.14 210.552 2130.56 Q213.63 2125.95 219.44 2125.95 Z" fill="#000000" fill-rule="evenodd" fill-opacity="1" /><path clip-path="url(#clip740)" d="M119.765 1715.7 L127.404 1715.7 L127.404 1689.33 L119.094 1691 L119.094 1686.74 L127.358 1685.07 L132.033 1685.07 L132.033 1715.7 L139.672 1715.7 L139.672 1719.63 L119.765 1719.63 L119.765 1715.7 Z" fill="#000000" fill-rule="evenodd" fill-opacity="1" /><path clip-path="url(#clip740)" d="M159.117 1688.15 Q155.506 1688.15 153.677 1691.72 Q151.871 1695.26 151.871 1702.39 Q151.871 1709.49 153.677 1713.06 Q155.506 1716.6 159.117 1716.6 Q162.751 1716.6 164.556 1713.06 Q166.385 1709.49 166.385 1702.39 Q166.385 1695.26 164.556 1691.72 Q162.751 1688.15 159.117 1688.15 M159.117 1684.45 Q164.927 1684.45 167.982 1689.05 Q171.061 1693.64 171.061 1702.39 Q171.061 1711.11 167.982 1715.72 Q164.927 1720.3 159.117 1720.3 Q153.306 1720.3 150.228 1715.72 Q147.172 1711.11 147.172 1702.39 Q147.172 1693.64 150.228 1689.05 Q153.306 1684.45 159.117 1684.45 Z" fill="#000000" fill-rule="evenodd" fill-opacity="1" /><path clip-path="url(#clip740)" d="M189.278 1688.15 Q185.667 1688.15 183.839 1691.72 Q182.033 1695.26 182.033 1702.39 Q182.033 1709.49 183.839 1713.06 Q185.667 1716.6 189.278 1716.6 Q192.913 1716.6 194.718 1713.06 Q196.547 1709.49 196.547 1702.39 Q196.547 1695.26 194.718 1691.72 Q192.913 1688.15 189.278 1688.15 M189.278 1684.45 Q195.089 1684.45 198.144 1689.05 Q201.223 1693.64 201.223 1702.39 Q201.223 1711.11 198.144 1715.72 Q195.089 1720.3 189.278 1720.3 Q183.468 1720.3 180.39 1715.72 Q177.334 1711.11 177.334 1702.39 Q177.334 1693.64 180.39 1689.05 Q183.468 1684.45 189.278 1684.45 Z" fill="#000000" fill-rule="evenodd" fill-opacity="1" /><path clip-path="url(#clip740)" d="M219.44 1688.15 Q215.829 1688.15 214.001 1691.72 Q212.195 1695.26 212.195 1702.39 Q212.195 1709.49 214.001 1713.06 Q215.829 1716.6 219.44 1716.6 Q223.075 1716.6 224.88 1713.06 Q226.709 1709.49 226.709 1702.39 Q226.709 1695.26 224.88 1691.72 Q223.075 1688.15 219.44 1688.15 M219.44 1684.45 Q225.25 1684.45 228.306 1689.05 Q231.385 1693.64 231.385 1702.39 Q231.385 1711.11 228.306 1715.72 Q225.25 1720.3 219.44 1720.3 Q213.63 1720.3 210.552 1715.72 Q207.496 1711.11 207.496 1702.39 Q207.496 1693.64 210.552 1689.05 Q213.63 1684.45 219.44 1684.45 Z" fill="#000000" fill-rule="evenodd" fill-opacity="1" /><path clip-path="url(#clip740)" d="M122.983 1274.2 L139.302 1274.2 L139.302 1278.13 L117.358 1278.13 L117.358 1274.2 Q120.02 1271.44 124.603 1266.81 Q129.209 1262.16 130.39 1260.82 Q132.635 1258.29 133.515 1256.56 Q134.418 1254.8 134.418 1253.11 Q134.418 1250.35 132.473 1248.62 Q130.552 1246.88 127.45 1246.88 Q125.251 1246.88 122.797 1247.64 Q120.367 1248.41 117.589 1249.96 L117.589 1245.24 Q120.413 1244.1 122.867 1243.52 Q125.32 1242.95 127.358 1242.95 Q132.728 1242.95 135.922 1245.63 Q139.117 1248.32 139.117 1252.81 Q139.117 1254.94 138.307 1256.86 Q137.519 1258.76 135.413 1261.35 Q134.834 1262.02 131.732 1265.24 Q128.631 1268.43 122.983 1274.2 Z" fill="#000000" fill-rule="evenodd" fill-opacity="1" /><path clip-path="url(#clip740)" d="M159.117 1246.65 Q155.506 1246.65 153.677 1250.21 Q151.871 1253.76 151.871 1260.89 Q151.871 1267.99 153.677 1271.56 Q155.506 1275.1 159.117 1275.1 Q162.751 1275.1 164.556 1271.56 Q166.385 1267.99 166.385 1260.89 Q166.385 1253.76 164.556 1250.21 Q162.751 1246.65 159.117 1246.65 M159.117 1242.95 Q164.927 1242.95 167.982 1247.55 Q171.061 1252.14 171.061 1260.89 Q171.061 1269.61 167.982 1274.22 Q164.927 1278.8 159.117 1278.8 Q153.306 1278.8 150.228 1274.22 Q147.172 1269.61 147.172 1260.89 Q147.172 1252.14 150.228 1247.55 Q153.306 1242.95 159.117 1242.95 Z" fill="#000000" fill-rule="evenodd" fill-opacity="1" /><path clip-path="url(#clip740)" d="M189.278 1246.65 Q185.667 1246.65 183.839 1250.21 Q182.033 1253.76 182.033 1260.89 Q182.033 1267.99 183.839 1271.56 Q185.667 1275.1 189.278 1275.1 Q192.913 1275.1 194.718 1271.56 Q196.547 1267.99 196.547 1260.89 Q196.547 1253.76 194.718 1250.21 Q192.913 1246.65 189.278 1246.65 M189.278 1242.95 Q195.089 1242.95 198.144 1247.55 Q201.223 1252.14 201.223 1260.89 Q201.223 1269.61 198.144 1274.22 Q195.089 1278.8 189.278 1278.8 Q183.468 1278.8 180.39 1274.22 Q177.334 1269.61 177.334 1260.89 Q177.334 1252.14 180.39 1247.55 Q183.468 1242.95 189.278 1242.95 Z" fill="#000000" fill-rule="evenodd" fill-opacity="1" /><path clip-path="url(#clip740)" d="M219.44 1246.65 Q215.829 1246.65 214.001 1250.21 Q212.195 1253.76 212.195 1260.89 Q212.195 1267.99 214.001 1271.56 Q215.829 1275.1 219.44 1275.1 Q223.075 1275.1 224.88 1271.56 Q226.709 1267.99 226.709 1260.89 Q226.709 1253.76 224.88 1250.21 Q223.075 1246.65 219.44 1246.65 M219.44 1242.95 Q225.25 1242.95 228.306 1247.55 Q231.385 1252.14 231.385 1260.89 Q231.385 1269.61 228.306 1274.22 Q225.25 1278.8 219.44 1278.8 Q213.63 1278.8 210.552 1274.22 Q207.496 1269.61 207.496 1260.89 Q207.496 1252.14 210.552 1247.55 Q213.63 1242.95 219.44 1242.95 Z" fill="#000000" fill-rule="evenodd" fill-opacity="1" /><path clip-path="url(#clip740)" d="M133.121 817.995 Q136.478 818.712 138.353 820.981 Q140.251 823.249 140.251 826.582 Q140.251 831.698 136.732 834.499 Q133.214 837.3 126.733 837.3 Q124.557 837.3 122.242 836.86 Q119.95 836.444 117.496 835.587 L117.496 831.073 Q119.441 832.207 121.756 832.786 Q124.07 833.365 126.594 833.365 Q130.992 833.365 133.283 831.629 Q135.598 829.893 135.598 826.582 Q135.598 823.527 133.445 821.814 Q131.316 820.078 127.496 820.078 L123.469 820.078 L123.469 816.235 L127.682 816.235 Q131.131 816.235 132.959 814.87 Q134.788 813.481 134.788 810.888 Q134.788 808.226 132.89 806.814 Q131.015 805.379 127.496 805.379 Q125.575 805.379 123.376 805.796 Q121.177 806.212 118.538 807.092 L118.538 802.925 Q121.2 802.184 123.515 801.814 Q125.853 801.444 127.913 801.444 Q133.237 801.444 136.339 803.874 Q139.441 806.282 139.441 810.402 Q139.441 813.272 137.797 815.263 Q136.154 817.231 133.121 817.995 Z" fill="#000000" fill-rule="evenodd" fill-opacity="1" /><path clip-path="url(#clip740)" d="M159.117 805.147 Q155.506 805.147 153.677 808.712 Q151.871 812.254 151.871 819.383 Q151.871 826.49 153.677 830.055 Q155.506 833.596 159.117 833.596 Q162.751 833.596 164.556 830.055 Q166.385 826.49 166.385 819.383 Q166.385 812.254 164.556 808.712 Q162.751 805.147 159.117 805.147 M159.117 801.444 Q164.927 801.444 167.982 806.05 Q171.061 810.633 171.061 819.383 Q171.061 828.11 167.982 832.717 Q164.927 837.3 159.117 837.3 Q153.306 837.3 150.228 832.717 Q147.172 828.11 147.172 819.383 Q147.172 810.633 150.228 806.05 Q153.306 801.444 159.117 801.444 Z" fill="#000000" fill-rule="evenodd" fill-opacity="1" /><path clip-path="url(#clip740)" d="M189.278 805.147 Q185.667 805.147 183.839 808.712 Q182.033 812.254 182.033 819.383 Q182.033 826.49 183.839 830.055 Q185.667 833.596 189.278 833.596 Q192.913 833.596 194.718 830.055 Q196.547 826.49 196.547 819.383 Q196.547 812.254 194.718 808.712 Q192.913 805.147 189.278 805.147 M189.278 801.444 Q195.089 801.444 198.144 806.05 Q201.223 810.633 201.223 819.383 Q201.223 828.11 198.144 832.717 Q195.089 837.3 189.278 837.3 Q183.468 837.3 180.39 832.717 Q177.334 828.11 177.334 819.383 Q177.334 810.633 180.39 806.05 Q183.468 801.444 189.278 801.444 Z" fill="#000000" fill-rule="evenodd" fill-opacity="1" /><path clip-path="url(#clip740)" d="M219.44 805.147 Q215.829 805.147 214.001 808.712 Q212.195 812.254 212.195 819.383 Q212.195 826.49 214.001 830.055 Q215.829 833.596 219.44 833.596 Q223.075 833.596 224.88 830.055 Q226.709 826.49 226.709 819.383 Q226.709 812.254 224.88 808.712 Q223.075 805.147 219.44 805.147 M219.44 801.444 Q225.25 801.444 228.306 806.05 Q231.385 810.633 231.385 819.383 Q231.385 828.11 228.306 832.717 Q225.25 837.3 219.44 837.3 Q213.63 837.3 210.552 832.717 Q207.496 828.11 207.496 819.383 Q207.496 810.633 210.552 806.05 Q213.63 801.444 219.44 801.444 Z" fill="#000000" fill-rule="evenodd" fill-opacity="1" /><path clip-path="url(#clip740)" d="M131.802 364.641 L119.996 383.09 L131.802 383.09 L131.802 364.641 M130.575 360.567 L136.455 360.567 L136.455 383.09 L141.385 383.09 L141.385 386.979 L136.455 386.979 L136.455 395.127 L131.802 395.127 L131.802 386.979 L116.2 386.979 L116.2 382.465 L130.575 360.567 Z" fill="#000000" fill-rule="evenodd" fill-opacity="1" /><path clip-path="url(#clip740)" d="M159.117 363.646 Q155.506 363.646 153.677 367.211 Q151.871 370.752 151.871 377.882 Q151.871 384.988 153.677 388.553 Q155.506 392.095 159.117 392.095 Q162.751 392.095 164.556 388.553 Q166.385 384.988 166.385 377.882 Q166.385 370.752 164.556 367.211 Q162.751 363.646 159.117 363.646 M159.117 359.942 Q164.927 359.942 167.982 364.549 Q171.061 369.132 171.061 377.882 Q171.061 386.609 167.982 391.215 Q164.927 395.798 159.117 395.798 Q153.306 395.798 150.228 391.215 Q147.172 386.609 147.172 377.882 Q147.172 369.132 150.228 364.549 Q153.306 359.942 159.117 359.942 Z" fill="#000000" fill-rule="evenodd" fill-opacity="1" /><path clip-path="url(#clip740)" d="M189.278 363.646 Q185.667 363.646 183.839 367.211 Q182.033 370.752 182.033 377.882 Q182.033 384.988 183.839 388.553 Q185.667 392.095 189.278 392.095 Q192.913 392.095 194.718 388.553 Q196.547 384.988 196.547 377.882 Q196.547 370.752 194.718 367.211 Q192.913 363.646 189.278 363.646 M189.278 359.942 Q195.089 359.942 198.144 364.549 Q201.223 369.132 201.223 377.882 Q201.223 386.609 198.144 391.215 Q195.089 395.798 189.278 395.798 Q183.468 395.798 180.39 391.215 Q177.334 386.609 177.334 377.882 Q177.334 369.132 180.39 364.549 Q183.468 359.942 189.278 359.942 Z" fill="#000000" fill-rule="evenodd" fill-opacity="1" /><path clip-path="url(#clip740)" d="M219.44 363.646 Q215.829 363.646 214.001 367.211 Q212.195 370.752 212.195 377.882 Q212.195 384.988 214.001 388.553 Q215.829 392.095 219.44 392.095 Q223.075 392.095 224.88 388.553 Q226.709 384.988 226.709 377.882 Q226.709 370.752 224.88 367.211 Q223.075 363.646 219.44 363.646 M219.44 359.942 Q225.25 359.942 228.306 364.549 Q231.385 369.132 231.385 377.882 Q231.385 386.609 228.306 391.215 Q225.25 395.798 219.44 395.798 Q213.63 395.798 210.552 391.215 Q207.496 386.609 207.496 377.882 Q207.496 369.132 210.552 364.549 Q213.63 359.942 219.44 359.942 Z" fill="#000000" fill-rule="evenodd" fill-opacity="1" /><path clip-path="url(#clip740)" d="M12.758 1611.9 L36.4066 1620.62 L36.4066 1603.14 L12.758 1611.9 M6.42416 1615.53 L6.42416 1608.24 L53.9442 1590.13 L53.9442 1596.81 L41.7538 1601.14 L41.7538 1622.56 L53.9442 1626.89 L53.9442 1633.67 L6.42416 1615.53 Z" fill="#000000" fill-rule="evenodd" fill-opacity="1" /><path clip-path="url(#clip740)" d="M18.2962 1591.46 L18.2962 1585.26 L48.215 1574.12 L18.2962 1562.98 L18.2962 1556.77 L53.9442 1570.14 L53.9442 1578.09 L18.2962 1591.46 Z" fill="#000000" fill-rule="evenodd" fill-opacity="1" /><path clip-path="url(#clip740)" d="M34.6561 1518.19 L37.5206 1518.19 L37.5206 1545.12 Q43.5681 1544.74 46.7509 1541.49 Q49.9019 1538.21 49.9019 1532.39 Q49.9019 1529.02 49.0744 1525.86 Q48.2469 1522.68 46.5918 1519.56 L52.1299 1519.56 Q53.4667 1522.71 54.167 1526.02 Q54.8672 1529.33 54.8672 1532.74 Q54.8672 1541.27 49.9019 1546.27 Q44.9367 1551.23 36.4703 1551.23 Q27.7174 1551.23 22.5931 1546.52 Q17.4368 1541.78 17.4368 1533.76 Q17.4368 1526.56 22.0838 1522.39 Q26.6989 1518.19 34.6561 1518.19 M32.9373 1524.05 Q28.1312 1524.11 25.2666 1526.76 Q22.4021 1529.37 22.4021 1533.69 Q22.4021 1538.6 25.1712 1541.56 Q27.9402 1544.48 32.9692 1544.93 L32.9373 1524.05 Z" fill="#000000" fill-rule="evenodd" fill-opacity="1" /><path clip-path="url(#clip740)" d="M23.7707 1487.92 Q23.1978 1488.91 22.9432 1490.09 Q22.6567 1491.23 22.6567 1492.64 Q22.6567 1497.6 25.9032 1500.27 Q29.1179 1502.92 35.1653 1502.92 L53.9442 1502.92 L53.9442 1508.8 L18.2962 1508.8 L18.2962 1502.92 L23.8344 1502.92 Q20.5879 1501.07 19.0283 1498.11 Q17.4368 1495.15 17.4368 1490.92 Q17.4368 1490.31 17.5323 1489.58 Q17.596 1488.85 17.7551 1487.96 L23.7707 1487.92 Z" fill="#000000" fill-rule="evenodd" fill-opacity="1" /><path clip-path="url(#clip740)" d="M36.0247 1465.58 Q36.0247 1472.68 37.6479 1475.42 Q39.2712 1478.15 43.1861 1478.15 Q46.3053 1478.15 48.1514 1476.12 Q49.9656 1474.05 49.9656 1470.51 Q49.9656 1465.64 46.5281 1462.72 Q43.0588 1459.76 37.3297 1459.76 L36.0247 1459.76 L36.0247 1465.58 M33.6057 1453.9 L53.9442 1453.9 L53.9442 1459.76 L48.5333 1459.76 Q51.7798 1461.76 53.3394 1464.75 Q54.8672 1467.75 54.8672 1472.07 Q54.8672 1477.55 51.8116 1480.8 Q48.7243 1484.01 43.5681 1484.01 Q37.5525 1484.01 34.4969 1480 Q31.4414 1475.96 31.4414 1467.97 L31.4414 1459.76 L30.8685 1459.76 Q26.8262 1459.76 24.6301 1462.43 Q22.4021 1465.07 22.4021 1469.88 Q22.4021 1472.93 23.1341 1475.83 Q23.8662 1478.73 25.3303 1481.4 L19.9195 1481.4 Q18.6781 1478.19 18.0734 1475.16 Q17.4368 1472.14 17.4368 1469.27 Q17.4368 1461.54 21.4472 1457.72 Q25.4576 1453.9 33.6057 1453.9 Z" fill="#000000" fill-rule="evenodd" fill-opacity="1" /><path clip-path="url(#clip740)" d="M35.7064 1418.38 Q29.3407 1418.38 25.8396 1421.02 Q22.3384 1423.63 22.3384 1428.37 Q22.3384 1433.08 25.8396 1435.73 Q29.3407 1438.34 35.7064 1438.34 Q42.0403 1438.34 45.5414 1435.73 Q49.0426 1433.08 49.0426 1428.37 Q49.0426 1423.63 45.5414 1421.02 Q42.0403 1418.38 35.7064 1418.38 M49.52 1412.52 Q58.623 1412.52 63.0471 1416.57 Q67.5031 1420.61 67.5031 1428.95 Q67.5031 1432.03 67.0257 1434.77 Q66.5801 1437.51 65.6252 1440.09 L59.9279 1440.09 Q61.3284 1437.51 61.9968 1434.99 Q62.6652 1432.48 62.6652 1429.87 Q62.6652 1424.11 59.6415 1421.24 Q56.6496 1418.38 50.5703 1418.38 L47.6739 1418.38 Q50.825 1420.19 52.3846 1423.03 Q53.9442 1425.86 53.9442 1429.81 Q53.9442 1436.36 48.9471 1440.37 Q43.95 1444.38 35.7064 1444.38 Q27.431 1444.38 22.4339 1440.37 Q17.4368 1436.36 17.4368 1429.81 Q17.4368 1425.86 18.9964 1423.03 Q20.556 1420.19 23.7071 1418.38 L18.2962 1418.38 L18.2962 1412.52 L49.52 1412.52 Z" fill="#000000" fill-rule="evenodd" fill-opacity="1" /><path clip-path="url(#clip740)" d="M34.6561 1369.97 L37.5206 1369.97 L37.5206 1396.9 Q43.5681 1396.51 46.7509 1393.27 Q49.9019 1389.99 49.9019 1384.16 Q49.9019 1380.79 49.0744 1377.64 Q48.2469 1374.46 46.5918 1371.34 L52.1299 1371.34 Q53.4667 1374.49 54.167 1377.8 Q54.8672 1381.11 54.8672 1384.51 Q54.8672 1393.04 49.9019 1398.04 Q44.9367 1403.01 36.4703 1403.01 Q27.7174 1403.01 22.5931 1398.3 Q17.4368 1393.55 17.4368 1385.53 Q17.4368 1378.34 22.0838 1374.17 Q26.6989 1369.97 34.6561 1369.97 M32.9373 1375.82 Q28.1312 1375.89 25.2666 1378.53 Q22.4021 1381.14 22.4021 1385.47 Q22.4021 1390.37 25.1712 1393.33 Q27.9402 1396.26 32.9692 1396.7 L32.9373 1375.82 Z" fill="#000000" fill-rule="evenodd" fill-opacity="1" /><path clip-path="url(#clip740)" d="M32.4281 1310 L53.9442 1310 L53.9442 1315.86 L32.619 1315.86 Q27.5583 1315.86 25.0438 1317.83 Q22.5294 1319.81 22.5294 1323.75 Q22.5294 1328.5 25.5531 1331.23 Q28.5768 1333.97 33.7967 1333.97 L53.9442 1333.97 L53.9442 1339.86 L18.2962 1339.86 L18.2962 1333.97 L23.8344 1333.97 Q20.6197 1331.87 19.0283 1329.04 Q17.4368 1326.17 17.4368 1322.45 Q17.4368 1316.31 21.2563 1313.15 Q25.0438 1310 32.4281 1310 Z" fill="#000000" fill-rule="evenodd" fill-opacity="1" /><path clip-path="url(#clip740)" d="M34.6561 1267.83 L37.5206 1267.83 L37.5206 1294.76 Q43.5681 1294.38 46.7509 1291.13 Q49.9019 1287.85 49.9019 1282.03 Q49.9019 1278.65 49.0744 1275.5 Q48.2469 1272.32 46.5918 1269.2 L52.1299 1269.2 Q53.4667 1272.35 54.167 1275.66 Q54.8672 1278.97 54.8672 1282.38 Q54.8672 1290.91 49.9019 1295.9 Q44.9367 1300.87 36.4703 1300.87 Q27.7174 1300.87 22.5931 1296.16 Q17.4368 1291.42 17.4368 1283.39 Q17.4368 1276.2 22.0838 1272.03 Q26.6989 1267.83 34.6561 1267.83 M32.9373 1273.69 Q28.1312 1273.75 25.2666 1276.39 Q22.4021 1279 22.4021 1283.33 Q22.4021 1288.23 25.1712 1291.19 Q27.9402 1294.12 32.9692 1294.57 L32.9373 1273.69 Z" fill="#000000" fill-rule="evenodd" fill-opacity="1" /><path clip-path="url(#clip740)" d="M18.2962 1261.62 L18.2962 1255.77 L46.1143 1248.45 L18.2962 1241.16 L18.2962 1234.25 L46.1143 1226.93 L18.2962 1219.64 L18.2962 1213.79 L53.9442 1223.11 L53.9442 1230.02 L24.7256 1237.69 L53.9442 1245.39 L53.9442 1252.3 L18.2962 1261.62 Z" fill="#000000" fill-rule="evenodd" fill-opacity="1" /><path clip-path="url(#clip740)" d="M36.152 1158.59 Q29.6908 1158.59 26.0305 1161.27 Q22.3384 1163.91 22.3384 1168.56 Q22.3384 1173.2 26.0305 1175.88 Q29.6908 1178.52 36.152 1178.52 Q42.6132 1178.52 46.3053 1175.88 Q49.9656 1173.2 49.9656 1168.56 Q49.9656 1163.91 46.3053 1161.27 Q42.6132 1158.59 36.152 1158.59 M23.7071 1178.52 Q20.5242 1176.67 18.9964 1173.87 Q17.4368 1171.04 17.4368 1167.12 Q17.4368 1160.63 22.5931 1156.59 Q27.7493 1152.52 36.152 1152.52 Q44.5547 1152.52 49.711 1156.59 Q54.8672 1160.63 54.8672 1167.12 Q54.8672 1171.04 53.3394 1173.87 Q51.7798 1176.67 48.597 1178.52 L53.9442 1178.52 L53.9442 1184.41 L4.41896 1184.41 L4.41896 1178.52 L23.7071 1178.52 Z" fill="#000000" fill-rule="evenodd" fill-opacity="1" /><path clip-path="url(#clip740)" d="M18.2962 1142.81 L18.2962 1136.95 L53.9442 1136.95 L53.9442 1142.81 L18.2962 1142.81 M4.41896 1142.81 L4.41896 1136.95 L11.835 1136.95 L11.835 1142.81 L4.41896 1142.81 Z" fill="#000000" fill-rule="evenodd" fill-opacity="1" /><path clip-path="url(#clip740)" d="M4.41896 1124.92 L4.41896 1119.03 L33.6694 1119.03 L18.2962 1101.56 L18.2962 1094.08 L34.9744 1112.98 L53.9442 1093.28 L53.9442 1100.92 L36.5339 1119.03 L53.9442 1119.03 L53.9442 1124.92 L4.41896 1124.92 Z" fill="#000000" fill-rule="evenodd" fill-opacity="1" /><path clip-path="url(#clip740)" d="M34.6561 1058.78 L37.5206 1058.78 L37.5206 1085.71 Q43.5681 1085.33 46.7509 1082.08 Q49.9019 1078.8 49.9019 1072.98 Q49.9019 1069.6 49.0744 1066.45 Q48.2469 1063.27 46.5918 1060.15 L52.1299 1060.15 Q53.4667 1063.3 54.167 1066.61 Q54.8672 1069.92 54.8672 1073.33 Q54.8672 1081.86 49.9019 1086.85 Q44.9367 1091.82 36.4703 1091.82 Q27.7174 1091.82 22.5931 1087.11 Q17.4368 1082.37 17.4368 1074.34 Q17.4368 1067.15 22.0838 1062.98 Q26.6989 1058.78 34.6561 1058.78 M32.9373 1064.64 Q28.1312 1064.7 25.2666 1067.34 Q22.4021 1069.95 22.4021 1074.28 Q22.4021 1079.18 25.1712 1082.14 Q27.9402 1085.07 32.9692 1085.52 L32.9373 1064.64 Z" fill="#000000" fill-rule="evenodd" fill-opacity="1" /><path clip-path="url(#clip740)" d="M19.3465 1005.72 L24.8847 1005.72 Q23.6116 1008.2 22.975 1010.88 Q22.3384 1013.55 22.3384 1016.42 Q22.3384 1020.78 23.6752 1022.97 Q25.012 1025.14 27.6856 1025.14 Q29.7226 1025.14 30.9003 1023.58 Q32.0461 1022.02 33.0965 1017.31 L33.5421 1015.3 Q34.8789 1009.06 37.3297 1006.45 Q39.7486 1003.81 44.1091 1003.81 Q49.0744 1003.81 51.9708 1007.76 Q54.8672 1011.67 54.8672 1018.55 Q54.8672 1021.41 54.2943 1024.53 Q53.7532 1027.62 52.6392 1031.06 L46.5918 1031.06 Q48.2787 1027.81 49.138 1024.66 Q49.9656 1021.51 49.9656 1018.42 Q49.9656 1014.28 48.5651 1012.06 Q47.1329 1009.83 44.5547 1009.83 Q42.1676 1009.83 40.8945 1011.45 Q39.6213 1013.04 38.4437 1018.49 L37.9662 1020.52 Q36.8204 1025.97 34.4651 1028.38 Q32.078 1030.8 27.9402 1030.8 Q22.9113 1030.8 20.1741 1027.24 Q17.4368 1023.67 17.4368 1017.12 Q17.4368 1013.87 17.9143 1011.01 Q18.3917 1008.14 19.3465 1005.72 Z" fill="#000000" fill-rule="evenodd" fill-opacity="1" /><path clip-path="url(#clip740)" d="M32.4281 964.855 L53.9442 964.855 L53.9442 970.711 L32.619 970.711 Q27.5583 970.711 25.0438 972.684 Q22.5294 974.658 22.5294 978.604 Q22.5294 983.347 25.5531 986.084 Q28.5768 988.821 33.7967 988.821 L53.9442 988.821 L53.9442 994.71 L4.41896 994.71 L4.41896 988.821 L23.8344 988.821 Q20.6197 986.721 19.0283 983.888 Q17.4368 981.023 17.4368 977.299 Q17.4368 971.157 21.2563 968.006 Q25.0438 964.855 32.4281 964.855 Z" fill="#000000" fill-rule="evenodd" fill-opacity="1" /><path clip-path="url(#clip740)" d="M36.0247 936.973 Q36.0247 944.071 37.6479 946.808 Q39.2712 949.545 43.1861 949.545 Q46.3053 949.545 48.1514 947.508 Q49.9656 945.439 49.9656 941.906 Q49.9656 937.036 46.5281 934.108 Q43.0588 931.148 37.3297 931.148 L36.0247 931.148 L36.0247 936.973 M33.6057 925.292 L53.9442 925.292 L53.9442 931.148 L48.5333 931.148 Q51.7798 933.153 53.3394 936.145 Q54.8672 939.137 54.8672 943.466 Q54.8672 948.94 51.8116 952.187 Q48.7243 955.401 43.5681 955.401 Q37.5525 955.401 34.4969 951.391 Q31.4414 947.349 31.4414 939.36 L31.4414 931.148 L30.8685 931.148 Q26.8262 931.148 24.6301 933.822 Q22.4021 936.463 22.4021 941.27 Q22.4021 944.325 23.1341 947.222 Q23.8662 950.118 25.3303 952.792 L19.9195 952.792 Q18.6781 949.577 18.0734 946.553 Q17.4368 943.529 17.4368 940.665 Q17.4368 932.931 21.4472 929.111 Q25.4576 925.292 33.6057 925.292 Z" fill="#000000" fill-rule="evenodd" fill-opacity="1" /><path clip-path="url(#clip740)" d="M23.7707 892.572 Q23.1978 893.559 22.9432 894.736 Q22.6567 895.882 22.6567 897.283 Q22.6567 902.248 25.9032 904.921 Q29.1179 907.563 35.1653 907.563 L53.9442 907.563 L53.9442 913.451 L18.2962 913.451 L18.2962 907.563 L23.8344 907.563 Q20.5879 905.717 19.0283 902.757 Q17.4368 899.797 17.4368 895.564 Q17.4368 894.959 17.5323 894.227 Q17.596 893.495 17.7551 892.604 L23.7707 892.572 Z" fill="#000000" fill-rule="evenodd" fill-opacity="1" /><path clip-path="url(#clip740)" d="M34.6561 857.37 L37.5206 857.37 L37.5206 884.297 Q43.5681 883.915 46.7509 880.668 Q49.9019 877.39 49.9019 871.565 Q49.9019 868.191 49.0744 865.04 Q48.2469 861.857 46.5918 858.738 L52.1299 858.738 Q53.4667 861.889 54.167 865.199 Q54.8672 868.51 54.8672 871.915 Q54.8672 880.445 49.9019 885.442 Q44.9367 890.408 36.4703 890.408 Q27.7174 890.408 22.5931 885.697 Q17.4368 880.955 17.4368 872.934 Q17.4368 865.74 22.0838 861.571 Q26.6989 857.37 34.6561 857.37 M32.9373 863.226 Q28.1312 863.29 25.2666 865.931 Q22.4021 868.541 22.4021 872.87 Q22.4021 877.772 25.1712 880.732 Q27.9402 883.66 32.9692 884.106 L32.9373 863.226 Z" fill="#000000" fill-rule="evenodd" fill-opacity="1" /><path clip-path="url(#clip740)" d="M19.6648 801.383 L25.1393 801.383 Q23.7707 803.866 23.1023 806.38 Q22.4021 808.863 22.4021 811.409 Q22.4021 817.106 26.0305 820.258 Q29.6272 823.409 36.152 823.409 Q42.6769 823.409 46.3053 820.258 Q49.9019 817.106 49.9019 811.409 Q49.9019 808.863 49.2335 806.38 Q48.5333 803.866 47.1647 801.383 L52.5755 801.383 Q53.7214 803.834 54.2943 806.476 Q54.8672 809.086 54.8672 812.046 Q54.8672 820.098 49.8064 824.841 Q44.7457 829.583 36.152 829.583 Q27.431 829.583 22.4339 824.809 Q17.4368 820.003 17.4368 811.664 Q17.4368 808.958 18.0097 806.38 Q18.5508 803.802 19.6648 801.383 Z" fill="#000000" fill-rule="evenodd" fill-opacity="1" /><path clip-path="url(#clip740)" d="M22.4021 777.384 Q22.4021 782.095 26.0942 784.832 Q29.7545 787.57 36.152 787.57 Q42.5495 787.57 46.2417 784.864 Q49.9019 782.127 49.9019 777.384 Q49.9019 772.706 46.2098 769.968 Q42.5177 767.231 36.152 767.231 Q29.8181 767.231 26.126 769.968 Q22.4021 772.706 22.4021 777.384 M17.4368 777.384 Q17.4368 769.746 22.4021 765.385 Q27.3673 761.025 36.152 761.025 Q44.9049 761.025 49.9019 765.385 Q54.8672 769.746 54.8672 777.384 Q54.8672 785.055 49.9019 789.416 Q44.9049 793.744 36.152 793.744 Q27.3673 793.744 22.4021 789.416 Q17.4368 785.055 17.4368 777.384 Z" fill="#000000" fill-rule="evenodd" fill-opacity="1" /><path clip-path="url(#clip740)" d="M39.8759 751.922 L18.2962 751.922 L18.2962 746.065 L39.6531 746.065 Q44.7139 746.065 47.2602 744.092 Q49.7746 742.118 49.7746 738.172 Q49.7746 733.429 46.7509 730.692 Q43.7272 727.923 38.5073 727.923 L18.2962 727.923 L18.2962 722.066 L53.9442 722.066 L53.9442 727.923 L48.4696 727.923 Q51.7162 730.055 53.3076 732.888 Q54.8672 735.689 54.8672 739.413 Q54.8672 745.556 51.0478 748.739 Q47.2283 751.922 39.8759 751.922 M17.4368 737.185 L17.4368 737.185 Z" fill="#000000" fill-rule="evenodd" fill-opacity="1" /><path clip-path="url(#clip740)" d="M32.4281 680.371 L53.9442 680.371 L53.9442 686.228 L32.619 686.228 Q27.5583 686.228 25.0438 688.201 Q22.5294 690.174 22.5294 694.121 Q22.5294 698.863 25.5531 701.601 Q28.5768 704.338 33.7967 704.338 L53.9442 704.338 L53.9442 710.226 L18.2962 710.226 L18.2962 704.338 L23.8344 704.338 Q20.6197 702.237 19.0283 699.405 Q17.4368 696.54 17.4368 692.816 Q17.4368 686.673 21.2563 683.522 Q25.0438 680.371 32.4281 680.371 Z" fill="#000000" fill-rule="evenodd" fill-opacity="1" /><path clip-path="url(#clip740)" d="M8.17473 662.897 L18.2962 662.897 L18.2962 650.834 L22.8477 650.834 L22.8477 662.897 L42.1994 662.897 Q46.5599 662.897 47.8013 661.72 Q49.0426 660.51 49.0426 656.85 L49.0426 650.834 L53.9442 650.834 L53.9442 656.85 Q53.9442 663.629 51.4297 666.207 Q48.8834 668.786 42.1994 668.786 L22.8477 668.786 L22.8477 673.082 L18.2962 673.082 L18.2962 668.786 L8.17473 668.786 L8.17473 662.897 Z" fill="#000000" fill-rule="evenodd" fill-opacity="1" /><path clip-path="url(#clip740)" d="M19.3465 620.406 L24.8847 620.406 Q23.6116 622.889 22.975 625.562 Q22.3384 628.236 22.3384 631.101 Q22.3384 635.461 23.6752 637.657 Q25.012 639.822 27.6856 639.822 Q29.7226 639.822 30.9003 638.262 Q32.0461 636.702 33.0965 631.992 L33.5421 629.987 Q34.8789 623.748 37.3297 621.138 Q39.7486 618.496 44.1091 618.496 Q49.0744 618.496 51.9708 622.443 Q54.8672 626.358 54.8672 633.233 Q54.8672 636.098 54.2943 639.217 Q53.7532 642.304 52.6392 645.742 L46.5918 645.742 Q48.2787 642.495 49.138 639.344 Q49.9656 636.193 49.9656 633.106 Q49.9656 628.968 48.5651 626.74 Q47.1329 624.512 44.5547 624.512 Q42.1676 624.512 40.8945 626.135 Q39.6213 627.727 38.4437 633.169 L37.9662 635.206 Q36.8204 640.649 34.4651 643.068 Q32.078 645.487 27.9402 645.487 Q22.9113 645.487 20.1741 641.922 Q17.4368 638.357 17.4368 631.801 Q17.4368 628.554 17.9143 625.69 Q18.3917 622.825 19.3465 620.406 Z" fill="#000000" fill-rule="evenodd" fill-opacity="1" /><path clip-path="url(#clip742)" d="
M760.376 1880.88 L760.376 2143.85 L769.945 2143.85 L769.945 1880.88 L760.376 1880.88 L760.376 1880.88  Z
  " fill="#009af9" fill-rule="evenodd" fill-opacity="1"/>
<polyline clip-path="url(#clip742)" style="stroke:#000000; stroke-linecap:round; stroke-linejoin:round; stroke-width:4; stroke-opacity:1; fill:none" points="
  760.376,1880.88 760.376,2143.85 769.945,2143.85 769.945,1880.88 760.376,1880.88 
  "/>
<path clip-path="url(#clip742)" d="
M724.492 1795.58 L724.492 2143.85 L734.061 2143.85 L734.061 1795.58 L724.492 1795.58 L724.492 1795.58  Z
  " fill="#009af9" fill-rule="evenodd" fill-opacity="1"/>
<polyline clip-path="url(#clip742)" style="stroke:#000000; stroke-linecap:round; stroke-linejoin:round; stroke-width:4; stroke-opacity:1; fill:none" points="
  724.492,1795.58 724.492,2143.85 734.061,2143.85 734.061,1795.58 724.492,1795.58 
  "/>
<path clip-path="url(#clip742)" d="
M688.609 1880.56 L688.609 2143.85 L698.178 2143.85 L698.178 1880.56 L688.609 1880.56 L688.609 1880.56  Z
  " fill="#009af9" fill-rule="evenodd" fill-opacity="1"/>
<polyline clip-path="url(#clip742)" style="stroke:#000000; stroke-linecap:round; stroke-linejoin:round; stroke-width:4; stroke-opacity:1; fill:none" points="
  688.609,1880.56 688.609,2143.85 698.178,2143.85 698.178,1880.56 688.609,1880.56 
  "/>
<path clip-path="url(#clip742)" d="
M616.842 1958.47 L616.842 2143.85 L626.411 2143.85 L626.411 1958.47 L616.842 1958.47 L616.842 1958.47  Z
  " fill="#009af9" fill-rule="evenodd" fill-opacity="1"/>
<polyline clip-path="url(#clip742)" style="stroke:#000000; stroke-linecap:round; stroke-linejoin:round; stroke-width:4; stroke-opacity:1; fill:none" points="
  616.842,1958.47 616.842,2143.85 626.411,2143.85 626.411,1958.47 616.842,1958.47 
  "/>
<path clip-path="url(#clip742)" d="
M652.726 1864.29 L652.726 2143.85 L662.295 2143.85 L662.295 1864.29 L652.726 1864.29 L652.726 1864.29  Z
  " fill="#009af9" fill-rule="evenodd" fill-opacity="1"/>
<polyline clip-path="url(#clip742)" style="stroke:#000000; stroke-linecap:round; stroke-linejoin:round; stroke-width:4; stroke-opacity:1; fill:none" points="
  652.726,1864.29 652.726,2143.85 662.295,2143.85 662.295,1864.29 652.726,1864.29 
  "/>
<path clip-path="url(#clip742)" d="
M832.143 1881.45 L832.143 2143.85 L841.712 2143.85 L841.712 1881.45 L832.143 1881.45 L832.143 1881.45  Z
  " fill="#009af9" fill-rule="evenodd" fill-opacity="1"/>
<polyline clip-path="url(#clip742)" style="stroke:#000000; stroke-linecap:round; stroke-linejoin:round; stroke-width:4; stroke-opacity:1; fill:none" points="
  832.143,1881.45 832.143,2143.85 841.712,2143.85 841.712,1881.45 832.143,1881.45 
  "/>
<path clip-path="url(#clip742)" d="
M903.909 1848.66 L903.909 2143.85 L913.478 2143.85 L913.478 1848.66 L903.909 1848.66 L903.909 1848.66  Z
  " fill="#009af9" fill-rule="evenodd" fill-opacity="1"/>
<polyline clip-path="url(#clip742)" style="stroke:#000000; stroke-linecap:round; stroke-linejoin:round; stroke-width:4; stroke-opacity:1; fill:none" points="
  903.909,1848.66 903.909,2143.85 913.478,2143.85 913.478,1848.66 903.909,1848.66 
  "/>
<path clip-path="url(#clip742)" d="
M975.676 1838.35 L975.676 2143.85 L985.245 2143.85 L985.245 1838.35 L975.676 1838.35 L975.676 1838.35  Z
  " fill="#009af9" fill-rule="evenodd" fill-opacity="1"/>
<polyline clip-path="url(#clip742)" style="stroke:#000000; stroke-linecap:round; stroke-linejoin:round; stroke-width:4; stroke-opacity:1; fill:none" points="
  975.676,1838.35 975.676,2143.85 985.245,2143.85 985.245,1838.35 975.676,1838.35 
  "/>
<path clip-path="url(#clip742)" d="
M1011.56 1713.43 L1011.56 2143.85 L1021.13 2143.85 L1021.13 1713.43 L1011.56 1713.43 L1011.56 1713.43  Z
  " fill="#009af9" fill-rule="evenodd" fill-opacity="1"/>
<polyline clip-path="url(#clip742)" style="stroke:#000000; stroke-linecap:round; stroke-linejoin:round; stroke-width:4; stroke-opacity:1; fill:none" points="
  1011.56,1713.43 1011.56,2143.85 1021.13,2143.85 1021.13,1713.43 1011.56,1713.43 
  "/>
<path clip-path="url(#clip742)" d="
M1047.44 1797.76 L1047.44 2143.85 L1057.01 2143.85 L1057.01 1797.76 L1047.44 1797.76 L1047.44 1797.76  Z
  " fill="#009af9" fill-rule="evenodd" fill-opacity="1"/>
<polyline clip-path="url(#clip742)" style="stroke:#000000; stroke-linecap:round; stroke-linejoin:round; stroke-width:4; stroke-opacity:1; fill:none" points="
  1047.44,1797.76 1047.44,2143.85 1057.01,2143.85 1057.01,1797.76 1047.44,1797.76 
  "/>
<path clip-path="url(#clip742)" d="
M1119.21 1779.15 L1119.21 2143.85 L1128.78 2143.85 L1128.78 1779.15 L1119.21 1779.15 L1119.21 1779.15  Z
  " fill="#009af9" fill-rule="evenodd" fill-opacity="1"/>
<polyline clip-path="url(#clip742)" style="stroke:#000000; stroke-linecap:round; stroke-linejoin:round; stroke-width:4; stroke-opacity:1; fill:none" points="
  1119.21,1779.15 1119.21,2143.85 1128.78,2143.85 1128.78,1779.15 1119.21,1779.15 
  "/>
<path clip-path="url(#clip742)" d="
M1190.98 1783.87 L1190.98 2143.85 L1200.55 2143.85 L1200.55 1783.87 L1190.98 1783.87 L1190.98 1783.87  Z
  " fill="#009af9" fill-rule="evenodd" fill-opacity="1"/>
<polyline clip-path="url(#clip742)" style="stroke:#000000; stroke-linecap:round; stroke-linejoin:round; stroke-width:4; stroke-opacity:1; fill:none" points="
  1190.98,1783.87 1190.98,2143.85 1200.55,2143.85 1200.55,1783.87 1190.98,1783.87 
  "/>
<path clip-path="url(#clip742)" d="
M1262.74 1751.48 L1262.74 2143.85 L1272.31 2143.85 L1272.31 1751.48 L1262.74 1751.48 L1262.74 1751.48  Z
  " fill="#009af9" fill-rule="evenodd" fill-opacity="1"/>
<polyline clip-path="url(#clip742)" style="stroke:#000000; stroke-linecap:round; stroke-linejoin:round; stroke-width:4; stroke-opacity:1; fill:none" points="
  1262.74,1751.48 1262.74,2143.85 1272.31,2143.85 1272.31,1751.48 1262.74,1751.48 
  "/>
<path clip-path="url(#clip742)" d="
M1226.86 1709.72 L1226.86 2143.85 L1236.43 2143.85 L1236.43 1709.72 L1226.86 1709.72 L1226.86 1709.72  Z
  " fill="#009af9" fill-rule="evenodd" fill-opacity="1"/>
<polyline clip-path="url(#clip742)" style="stroke:#000000; stroke-linecap:round; stroke-linejoin:round; stroke-width:4; stroke-opacity:1; fill:none" points="
  1226.86,1709.72 1226.86,2143.85 1236.43,2143.85 1236.43,1709.72 1226.86,1709.72 
  "/>
<path clip-path="url(#clip742)" d="
M1155.09 1718.43 L1155.09 2143.85 L1164.66 2143.85 L1164.66 1718.43 L1155.09 1718.43 L1155.09 1718.43  Z
  " fill="#009af9" fill-rule="evenodd" fill-opacity="1"/>
<polyline clip-path="url(#clip742)" style="stroke:#000000; stroke-linecap:round; stroke-linejoin:round; stroke-width:4; stroke-opacity:1; fill:none" points="
  1155.09,1718.43 1155.09,2143.85 1164.66,2143.85 1164.66,1718.43 1155.09,1718.43 
  "/>
<path clip-path="url(#clip742)" d="
M1334.51 1752.12 L1334.51 2143.85 L1344.08 2143.85 L1344.08 1752.12 L1334.51 1752.12 L1334.51 1752.12  Z
  " fill="#009af9" fill-rule="evenodd" fill-opacity="1"/>
<polyline clip-path="url(#clip742)" style="stroke:#000000; stroke-linecap:round; stroke-linejoin:round; stroke-width:4; stroke-opacity:1; fill:none" points="
  1334.51,1752.12 1334.51,2143.85 1344.08,2143.85 1344.08,1752.12 1334.51,1752.12 
  "/>
<path clip-path="url(#clip742)" d="
M1083.33 1714.7 L1083.33 2143.85 L1092.9 2143.85 L1092.9 1714.7 L1083.33 1714.7 L1083.33 1714.7  Z
  " fill="#009af9" fill-rule="evenodd" fill-opacity="1"/>
<polyline clip-path="url(#clip742)" style="stroke:#000000; stroke-linecap:round; stroke-linejoin:round; stroke-width:4; stroke-opacity:1; fill:none" points="
  1083.33,1714.7 1083.33,2143.85 1092.9,2143.85 1092.9,1714.7 1083.33,1714.7 
  "/>
<path clip-path="url(#clip742)" d="
M939.793 1703.82 L939.793 2143.85 L949.362 2143.85 L949.362 1703.82 L939.793 1703.82 L939.793 1703.82  Z
  " fill="#009af9" fill-rule="evenodd" fill-opacity="1"/>
<polyline clip-path="url(#clip742)" style="stroke:#000000; stroke-linecap:round; stroke-linejoin:round; stroke-width:4; stroke-opacity:1; fill:none" points="
  939.793,1703.82 939.793,2143.85 949.362,2143.85 949.362,1703.82 939.793,1703.82 
  "/>
<path clip-path="url(#clip742)" d="
M868.026 1832.88 L868.026 2143.85 L877.595 2143.85 L877.595 1832.88 L868.026 1832.88 L868.026 1832.88  Z
  " fill="#009af9" fill-rule="evenodd" fill-opacity="1"/>
<polyline clip-path="url(#clip742)" style="stroke:#000000; stroke-linecap:round; stroke-linejoin:round; stroke-width:4; stroke-opacity:1; fill:none" points="
  868.026,1832.88 868.026,2143.85 877.595,2143.85 877.595,1832.88 868.026,1832.88 
  "/>
<path clip-path="url(#clip742)" d="
M796.259 1783.95 L796.259 2143.85 L805.828 2143.85 L805.828 1783.95 L796.259 1783.95 L796.259 1783.95  Z
  " fill="#009af9" fill-rule="evenodd" fill-opacity="1"/>
<polyline clip-path="url(#clip742)" style="stroke:#000000; stroke-linecap:round; stroke-linejoin:round; stroke-width:4; stroke-opacity:1; fill:none" points="
  796.259,1783.95 796.259,2143.85 805.828,2143.85 805.828,1783.95 796.259,1783.95 
  "/>
<path clip-path="url(#clip742)" d="
M1370.39 1701.81 L1370.39 2143.85 L1379.96 2143.85 L1379.96 1701.81 L1370.39 1701.81 L1370.39 1701.81  Z
  " fill="#009af9" fill-rule="evenodd" fill-opacity="1"/>
<polyline clip-path="url(#clip742)" style="stroke:#000000; stroke-linecap:round; stroke-linejoin:round; stroke-width:4; stroke-opacity:1; fill:none" points="
  1370.39,1701.81 1370.39,2143.85 1379.96,2143.85 1379.96,1701.81 1370.39,1701.81 
  "/>
<path clip-path="url(#clip742)" d="
M1406.28 1720.38 L1406.28 2143.85 L1415.85 2143.85 L1415.85 1720.38 L1406.28 1720.38 L1406.28 1720.38  Z
  " fill="#009af9" fill-rule="evenodd" fill-opacity="1"/>
<polyline clip-path="url(#clip742)" style="stroke:#000000; stroke-linecap:round; stroke-linejoin:round; stroke-width:4; stroke-opacity:1; fill:none" points="
  1406.28,1720.38 1406.28,2143.85 1415.85,2143.85 1415.85,1720.38 1406.28,1720.38 
  "/>
<path clip-path="url(#clip742)" d="
M1298.63 1677.28 L1298.63 2143.85 L1308.2 2143.85 L1308.2 1677.28 L1298.63 1677.28 L1298.63 1677.28  Z
  " fill="#009af9" fill-rule="evenodd" fill-opacity="1"/>
<polyline clip-path="url(#clip742)" style="stroke:#000000; stroke-linecap:round; stroke-linejoin:round; stroke-width:4; stroke-opacity:1; fill:none" points="
  1298.63,1677.28 1298.63,2143.85 1308.2,2143.85 1308.2,1677.28 1298.63,1677.28 
  "/>
<path clip-path="url(#clip742)" d="
M1442.16 1619.46 L1442.16 2143.85 L1451.73 2143.85 L1451.73 1619.46 L1442.16 1619.46 L1442.16 1619.46  Z
  " fill="#009af9" fill-rule="evenodd" fill-opacity="1"/>
<polyline clip-path="url(#clip742)" style="stroke:#000000; stroke-linecap:round; stroke-linejoin:round; stroke-width:4; stroke-opacity:1; fill:none" points="
  1442.16,1619.46 1442.16,2143.85 1451.73,2143.85 1451.73,1619.46 1442.16,1619.46 
  "/>
<path clip-path="url(#clip742)" d="
M1478.04 1696.78 L1478.04 2143.85 L1487.61 2143.85 L1487.61 1696.78 L1478.04 1696.78 L1478.04 1696.78  Z
  " fill="#009af9" fill-rule="evenodd" fill-opacity="1"/>
<polyline clip-path="url(#clip742)" style="stroke:#000000; stroke-linecap:round; stroke-linejoin:round; stroke-width:4; stroke-opacity:1; fill:none" points="
  1478.04,1696.78 1478.04,2143.85 1487.61,2143.85 1487.61,1696.78 1478.04,1696.78 
  "/>
<path clip-path="url(#clip742)" d="
M1513.93 1590.07 L1513.93 2143.85 L1523.5 2143.85 L1523.5 1590.07 L1513.93 1590.07 L1513.93 1590.07  Z
  " fill="#009af9" fill-rule="evenodd" fill-opacity="1"/>
<polyline clip-path="url(#clip742)" style="stroke:#000000; stroke-linecap:round; stroke-linejoin:round; stroke-width:4; stroke-opacity:1; fill:none" points="
  1513.93,1590.07 1513.93,2143.85 1523.5,2143.85 1523.5,1590.07 1513.93,1590.07 
  "/>
<path clip-path="url(#clip742)" d="
M1621.58 1671.06 L1621.58 2143.85 L1631.15 2143.85 L1631.15 1671.06 L1621.58 1671.06 L1621.58 1671.06  Z
  " fill="#009af9" fill-rule="evenodd" fill-opacity="1"/>
<polyline clip-path="url(#clip742)" style="stroke:#000000; stroke-linecap:round; stroke-linejoin:round; stroke-width:4; stroke-opacity:1; fill:none" points="
  1621.58,1671.06 1621.58,2143.85 1631.15,2143.85 1631.15,1671.06 1621.58,1671.06 
  "/>
<path clip-path="url(#clip742)" d="
M1657.46 1495.87 L1657.46 2143.85 L1667.03 2143.85 L1667.03 1495.87 L1657.46 1495.87 L1657.46 1495.87  Z
  " fill="#009af9" fill-rule="evenodd" fill-opacity="1"/>
<polyline clip-path="url(#clip742)" style="stroke:#000000; stroke-linecap:round; stroke-linejoin:round; stroke-width:4; stroke-opacity:1; fill:none" points="
  1657.46,1495.87 1657.46,2143.85 1667.03,2143.85 1667.03,1495.87 1657.46,1495.87 
  "/>
<path clip-path="url(#clip742)" d="
M1549.81 1696.65 L1549.81 2143.85 L1559.38 2143.85 L1559.38 1696.65 L1549.81 1696.65 L1549.81 1696.65  Z
  " fill="#009af9" fill-rule="evenodd" fill-opacity="1"/>
<polyline clip-path="url(#clip742)" style="stroke:#000000; stroke-linecap:round; stroke-linejoin:round; stroke-width:4; stroke-opacity:1; fill:none" points="
  1549.81,1696.65 1549.81,2143.85 1559.38,2143.85 1559.38,1696.65 1549.81,1696.65 
  "/>
<path clip-path="url(#clip742)" d="
M580.959 1896.67 L580.959 2143.85 L590.528 2143.85 L590.528 1896.67 L580.959 1896.67 L580.959 1896.67  Z
  " fill="#009af9" fill-rule="evenodd" fill-opacity="1"/>
<polyline clip-path="url(#clip742)" style="stroke:#000000; stroke-linecap:round; stroke-linejoin:round; stroke-width:4; stroke-opacity:1; fill:none" points="
  580.959,1896.67 580.959,2143.85 590.528,2143.85 590.528,1896.67 580.959,1896.67 
  "/>
<path clip-path="url(#clip742)" d="
M545.075 1828.96 L545.075 2143.85 L554.644 2143.85 L554.644 1828.96 L545.075 1828.96 L545.075 1828.96  Z
  " fill="#009af9" fill-rule="evenodd" fill-opacity="1"/>
<polyline clip-path="url(#clip742)" style="stroke:#000000; stroke-linecap:round; stroke-linejoin:round; stroke-width:4; stroke-opacity:1; fill:none" points="
  545.075,1828.96 545.075,2143.85 554.644,2143.85 554.644,1828.96 545.075,1828.96 
  "/>
<path clip-path="url(#clip742)" d="
M509.192 1738.53 L509.192 2143.85 L518.761 2143.85 L518.761 1738.53 L509.192 1738.53 L509.192 1738.53  Z
  " fill="#009af9" fill-rule="evenodd" fill-opacity="1"/>
<polyline clip-path="url(#clip742)" style="stroke:#000000; stroke-linecap:round; stroke-linejoin:round; stroke-width:4; stroke-opacity:1; fill:none" points="
  509.192,1738.53 509.192,2143.85 518.761,2143.85 518.761,1738.53 509.192,1738.53 
  "/>
<path clip-path="url(#clip742)" d="
M473.309 2008.6 L473.309 2143.85 L482.878 2143.85 L482.878 2008.6 L473.309 2008.6 L473.309 2008.6  Z
  " fill="#009af9" fill-rule="evenodd" fill-opacity="1"/>
<polyline clip-path="url(#clip742)" style="stroke:#000000; stroke-linecap:round; stroke-linejoin:round; stroke-width:4; stroke-opacity:1; fill:none" points="
  473.309,2008.6 473.309,2143.85 482.878,2143.85 482.878,2008.6 473.309,2008.6 
  "/>
<path clip-path="url(#clip742)" d="
M437.425 1955.77 L437.425 2143.85 L446.994 2143.85 L446.994 1955.77 L437.425 1955.77 L437.425 1955.77  Z
  " fill="#009af9" fill-rule="evenodd" fill-opacity="1"/>
<polyline clip-path="url(#clip742)" style="stroke:#000000; stroke-linecap:round; stroke-linejoin:round; stroke-width:4; stroke-opacity:1; fill:none" points="
  437.425,1955.77 437.425,2143.85 446.994,2143.85 446.994,1955.77 437.425,1955.77 
  "/>
<path clip-path="url(#clip742)" d="
M1693.34 1644.92 L1693.34 2143.85 L1702.91 2143.85 L1702.91 1644.92 L1693.34 1644.92 L1693.34 1644.92  Z
  " fill="#009af9" fill-rule="evenodd" fill-opacity="1"/>
<polyline clip-path="url(#clip742)" style="stroke:#000000; stroke-linecap:round; stroke-linejoin:round; stroke-width:4; stroke-opacity:1; fill:none" points="
  1693.34,1644.92 1693.34,2143.85 1702.91,2143.85 1702.91,1644.92 1693.34,1644.92 
  "/>
<path clip-path="url(#clip742)" d="
M1585.69 1588.95 L1585.69 2143.85 L1595.26 2143.85 L1595.26 1588.95 L1585.69 1588.95 L1585.69 1588.95  Z
  " fill="#009af9" fill-rule="evenodd" fill-opacity="1"/>
<polyline clip-path="url(#clip742)" style="stroke:#000000; stroke-linecap:round; stroke-linejoin:round; stroke-width:4; stroke-opacity:1; fill:none" points="
  1585.69,1588.95 1585.69,2143.85 1595.26,2143.85 1595.26,1588.95 1585.69,1588.95 
  "/>
<path clip-path="url(#clip742)" d="
M1729.23 1457.72 L1729.23 2143.85 L1738.8 2143.85 L1738.8 1457.72 L1729.23 1457.72 L1729.23 1457.72  Z
  " fill="#009af9" fill-rule="evenodd" fill-opacity="1"/>
<polyline clip-path="url(#clip742)" style="stroke:#000000; stroke-linecap:round; stroke-linejoin:round; stroke-width:4; stroke-opacity:1; fill:none" points="
  1729.23,1457.72 1729.23,2143.85 1738.8,2143.85 1738.8,1457.72 1729.23,1457.72 
  "/>
<path clip-path="url(#clip742)" d="
M1800.99 1446.27 L1800.99 2143.85 L1810.56 2143.85 L1810.56 1446.27 L1800.99 1446.27 L1800.99 1446.27  Z
  " fill="#009af9" fill-rule="evenodd" fill-opacity="1"/>
<polyline clip-path="url(#clip742)" style="stroke:#000000; stroke-linecap:round; stroke-linejoin:round; stroke-width:4; stroke-opacity:1; fill:none" points="
  1800.99,1446.27 1800.99,2143.85 1810.56,2143.85 1810.56,1446.27 1800.99,1446.27 
  "/>
<path clip-path="url(#clip742)" d="
M1765.11 1603.08 L1765.11 2143.85 L1774.68 2143.85 L1774.68 1603.08 L1765.11 1603.08 L1765.11 1603.08  Z
  " fill="#009af9" fill-rule="evenodd" fill-opacity="1"/>
<polyline clip-path="url(#clip742)" style="stroke:#000000; stroke-linecap:round; stroke-linejoin:round; stroke-width:4; stroke-opacity:1; fill:none" points="
  1765.11,1603.08 1765.11,2143.85 1774.68,2143.85 1774.68,1603.08 1765.11,1603.08 
  "/>
<path clip-path="url(#clip742)" d="
M1836.88 1532.53 L1836.88 2143.85 L1846.45 2143.85 L1846.45 1532.53 L1836.88 1532.53 L1836.88 1532.53  Z
  " fill="#009af9" fill-rule="evenodd" fill-opacity="1"/>
<polyline clip-path="url(#clip742)" style="stroke:#000000; stroke-linecap:round; stroke-linejoin:round; stroke-width:4; stroke-opacity:1; fill:none" points="
  1836.88,1532.53 1836.88,2143.85 1846.45,2143.85 1846.45,1532.53 1836.88,1532.53 
  "/>
<path clip-path="url(#clip742)" d="
M1944.53 1347.23 L1944.53 2143.85 L1954.1 2143.85 L1954.1 1347.23 L1944.53 1347.23 L1944.53 1347.23  Z
  " fill="#009af9" fill-rule="evenodd" fill-opacity="1"/>
<polyline clip-path="url(#clip742)" style="stroke:#000000; stroke-linecap:round; stroke-linejoin:round; stroke-width:4; stroke-opacity:1; fill:none" points="
  1944.53,1347.23 1944.53,2143.85 1954.1,2143.85 1954.1,1347.23 1944.53,1347.23 
  "/>
<path clip-path="url(#clip742)" d="
M2016.29 1251.31 L2016.29 2143.85 L2025.86 2143.85 L2025.86 1251.31 L2016.29 1251.31 L2016.29 1251.31  Z
  " fill="#009af9" fill-rule="evenodd" fill-opacity="1"/>
<polyline clip-path="url(#clip742)" style="stroke:#000000; stroke-linecap:round; stroke-linejoin:round; stroke-width:4; stroke-opacity:1; fill:none" points="
  2016.29,1251.31 2016.29,2143.85 2025.86,2143.85 2025.86,1251.31 2016.29,1251.31 
  "/>
<path clip-path="url(#clip742)" d="
M1980.41 1331.87 L1980.41 2143.85 L1989.98 2143.85 L1989.98 1331.87 L1980.41 1331.87 L1980.41 1331.87  Z
  " fill="#009af9" fill-rule="evenodd" fill-opacity="1"/>
<polyline clip-path="url(#clip742)" style="stroke:#000000; stroke-linecap:round; stroke-linejoin:round; stroke-width:4; stroke-opacity:1; fill:none" points="
  1980.41,1331.87 1980.41,2143.85 1989.98,2143.85 1989.98,1331.87 1980.41,1331.87 
  "/>
<path clip-path="url(#clip742)" d="
M1872.76 1391.7 L1872.76 2143.85 L1882.33 2143.85 L1882.33 1391.7 L1872.76 1391.7 L1872.76 1391.7  Z
  " fill="#009af9" fill-rule="evenodd" fill-opacity="1"/>
<polyline clip-path="url(#clip742)" style="stroke:#000000; stroke-linecap:round; stroke-linejoin:round; stroke-width:4; stroke-opacity:1; fill:none" points="
  1872.76,1391.7 1872.76,2143.85 1882.33,2143.85 1882.33,1391.7 1872.76,1391.7 
  "/>
<path clip-path="url(#clip742)" d="
M2088.06 1248.82 L2088.06 2143.85 L2097.63 2143.85 L2097.63 1248.82 L2088.06 1248.82 L2088.06 1248.82  Z
  " fill="#009af9" fill-rule="evenodd" fill-opacity="1"/>
<polyline clip-path="url(#clip742)" style="stroke:#000000; stroke-linecap:round; stroke-linejoin:round; stroke-width:4; stroke-opacity:1; fill:none" points="
  2088.06,1248.82 2088.06,2143.85 2097.63,2143.85 2097.63,1248.82 2088.06,1248.82 
  "/>
<path clip-path="url(#clip742)" d="
M2159.83 1110.05 L2159.83 2143.85 L2169.4 2143.85 L2169.4 1110.05 L2159.83 1110.05 L2159.83 1110.05  Z
  " fill="#009af9" fill-rule="evenodd" fill-opacity="1"/>
<polyline clip-path="url(#clip742)" style="stroke:#000000; stroke-linecap:round; stroke-linejoin:round; stroke-width:4; stroke-opacity:1; fill:none" points="
  2159.83,1110.05 2159.83,2143.85 2169.4,2143.85 2169.4,1110.05 2159.83,1110.05 
  "/>
<path clip-path="url(#clip742)" d="
M2123.94 1073.49 L2123.94 2143.85 L2133.51 2143.85 L2133.51 1073.49 L2123.94 1073.49 L2123.94 1073.49  Z
  " fill="#009af9" fill-rule="evenodd" fill-opacity="1"/>
<polyline clip-path="url(#clip742)" style="stroke:#000000; stroke-linecap:round; stroke-linejoin:round; stroke-width:4; stroke-opacity:1; fill:none" points="
  2123.94,1073.49 2123.94,2143.85 2133.51,2143.85 2133.51,1073.49 2123.94,1073.49 
  "/>
<path clip-path="url(#clip742)" d="
M2231.6 1133.14 L2231.6 2143.85 L2241.16 2143.85 L2241.16 1133.14 L2231.6 1133.14 L2231.6 1133.14  Z
  " fill="#009af9" fill-rule="evenodd" fill-opacity="1"/>
<polyline clip-path="url(#clip742)" style="stroke:#000000; stroke-linecap:round; stroke-linejoin:round; stroke-width:4; stroke-opacity:1; fill:none" points="
  2231.6,1133.14 2231.6,2143.85 2241.16,2143.85 2241.16,1133.14 2231.6,1133.14 
  "/>
<path clip-path="url(#clip742)" d="
M2195.71 1031.89 L2195.71 2143.85 L2205.28 2143.85 L2205.28 1031.89 L2195.71 1031.89 L2195.71 1031.89  Z
  " fill="#009af9" fill-rule="evenodd" fill-opacity="1"/>
<polyline clip-path="url(#clip742)" style="stroke:#000000; stroke-linecap:round; stroke-linejoin:round; stroke-width:4; stroke-opacity:1; fill:none" points="
  2195.71,1031.89 2195.71,2143.85 2205.28,2143.85 2205.28,1031.89 2195.71,1031.89 
  "/>
<path clip-path="url(#clip742)" d="
M2267.48 1034.27 L2267.48 2143.85 L2277.05 2143.85 L2277.05 1034.27 L2267.48 1034.27 L2267.48 1034.27  Z
  " fill="#009af9" fill-rule="evenodd" fill-opacity="1"/>
<polyline clip-path="url(#clip742)" style="stroke:#000000; stroke-linecap:round; stroke-linejoin:round; stroke-width:4; stroke-opacity:1; fill:none" points="
  2267.48,1034.27 2267.48,2143.85 2277.05,2143.85 2277.05,1034.27 2267.48,1034.27 
  "/>
<path clip-path="url(#clip742)" d="
M2339.25 838.017 L2339.25 2143.85 L2348.81 2143.85 L2348.81 838.017 L2339.25 838.017 L2339.25 838.017  Z
  " fill="#009af9" fill-rule="evenodd" fill-opacity="1"/>
<polyline clip-path="url(#clip742)" style="stroke:#000000; stroke-linecap:round; stroke-linejoin:round; stroke-width:4; stroke-opacity:1; fill:none" points="
  2339.25,838.017 2339.25,2143.85 2348.81,2143.85 2348.81,838.017 2339.25,838.017 
  "/>
<path clip-path="url(#clip742)" d="
M1908.64 1469.99 L1908.64 2143.85 L1918.21 2143.85 L1918.21 1469.99 L1908.64 1469.99 L1908.64 1469.99  Z
  " fill="#009af9" fill-rule="evenodd" fill-opacity="1"/>
<polyline clip-path="url(#clip742)" style="stroke:#000000; stroke-linecap:round; stroke-linejoin:round; stroke-width:4; stroke-opacity:1; fill:none" points="
  1908.64,1469.99 1908.64,2143.85 1918.21,2143.85 1918.21,1469.99 1908.64,1469.99 
  "/>
<path clip-path="url(#clip742)" d="
M2052.18 1237.05 L2052.18 2143.85 L2061.75 2143.85 L2061.75 1237.05 L2052.18 1237.05 L2052.18 1237.05  Z
  " fill="#009af9" fill-rule="evenodd" fill-opacity="1"/>
<polyline clip-path="url(#clip742)" style="stroke:#000000; stroke-linecap:round; stroke-linejoin:round; stroke-width:4; stroke-opacity:1; fill:none" points="
  2052.18,1237.05 2052.18,2143.85 2061.75,2143.85 2061.75,1237.05 2052.18,1237.05 
  "/>
<path clip-path="url(#clip742)" d="
M2303.36 1097.38 L2303.36 2143.85 L2312.93 2143.85 L2312.93 1097.38 L2303.36 1097.38 L2303.36 1097.38  Z
  " fill="#009af9" fill-rule="evenodd" fill-opacity="1"/>
<polyline clip-path="url(#clip742)" style="stroke:#000000; stroke-linecap:round; stroke-linejoin:round; stroke-width:4; stroke-opacity:1; fill:none" points="
  2303.36,1097.38 2303.36,2143.85 2312.93,2143.85 2312.93,1097.38 2303.36,1097.38 
  "/>
<path clip-path="url(#clip742)" d="
M2375.13 917.068 L2375.13 2143.85 L2384.7 2143.85 L2384.7 917.068 L2375.13 917.068 L2375.13 917.068  Z
  " fill="#009af9" fill-rule="evenodd" fill-opacity="1"/>
<polyline clip-path="url(#clip742)" style="stroke:#000000; stroke-linecap:round; stroke-linejoin:round; stroke-width:4; stroke-opacity:1; fill:none" points="
  2375.13,917.068 2375.13,2143.85 2384.7,2143.85 2384.7,917.068 2375.13,917.068 
  "/>
<path clip-path="url(#clip742)" d="
M2411.01 852.473 L2411.01 2143.85 L2420.58 2143.85 L2420.58 852.473 L2411.01 852.473 L2411.01 852.473  Z
  " fill="#009af9" fill-rule="evenodd" fill-opacity="1"/>
<polyline clip-path="url(#clip742)" style="stroke:#000000; stroke-linecap:round; stroke-linejoin:round; stroke-width:4; stroke-opacity:1; fill:none" points="
  2411.01,852.473 2411.01,2143.85 2420.58,2143.85 2420.58,852.473 2411.01,852.473 
  "/>
<path clip-path="url(#clip742)" d="
M2482.78 984.834 L2482.78 2143.85 L2492.35 2143.85 L2492.35 984.834 L2482.78 984.834 L2482.78 984.834  Z
  " fill="#009af9" fill-rule="evenodd" fill-opacity="1"/>
<polyline clip-path="url(#clip742)" style="stroke:#000000; stroke-linecap:round; stroke-linejoin:round; stroke-width:4; stroke-opacity:1; fill:none" points="
  2482.78,984.834 2482.78,2143.85 2492.35,2143.85 2492.35,984.834 2482.78,984.834 
  "/>
<path clip-path="url(#clip742)" d="
M2590.43 855.64 L2590.43 2143.85 L2600 2143.85 L2600 855.64 L2590.43 855.64 L2590.43 855.64  Z
  " fill="#009af9" fill-rule="evenodd" fill-opacity="1"/>
<polyline clip-path="url(#clip742)" style="stroke:#000000; stroke-linecap:round; stroke-linejoin:round; stroke-width:4; stroke-opacity:1; fill:none" points="
  2590.43,855.64 2590.43,2143.85 2600,2143.85 2600,855.64 2590.43,855.64 
  "/>
<path clip-path="url(#clip742)" d="
M2626.31 731.147 L2626.31 2143.85 L2635.88 2143.85 L2635.88 731.147 L2626.31 731.147 L2626.31 731.147  Z
  " fill="#009af9" fill-rule="evenodd" fill-opacity="1"/>
<polyline clip-path="url(#clip742)" style="stroke:#000000; stroke-linecap:round; stroke-linejoin:round; stroke-width:4; stroke-opacity:1; fill:none" points="
  2626.31,731.147 2626.31,2143.85 2635.88,2143.85 2635.88,731.147 2626.31,731.147 
  "/>
<path clip-path="url(#clip742)" d="
M2698.08 754.051 L2698.08 2143.85 L2707.65 2143.85 L2707.65 754.051 L2698.08 754.051 L2698.08 754.051  Z
  " fill="#009af9" fill-rule="evenodd" fill-opacity="1"/>
<polyline clip-path="url(#clip742)" style="stroke:#000000; stroke-linecap:round; stroke-linejoin:round; stroke-width:4; stroke-opacity:1; fill:none" points="
  2698.08,754.051 2698.08,2143.85 2707.65,2143.85 2707.65,754.051 2698.08,754.051 
  "/>
<path clip-path="url(#clip742)" d="
M2913.38 1395.84 L2913.38 2143.85 L2922.95 2143.85 L2922.95 1395.84 L2913.38 1395.84 L2913.38 1395.84  Z
  " fill="#009af9" fill-rule="evenodd" fill-opacity="1"/>
<polyline clip-path="url(#clip742)" style="stroke:#000000; stroke-linecap:round; stroke-linejoin:round; stroke-width:4; stroke-opacity:1; fill:none" points="
  2913.38,1395.84 2913.38,2143.85 2922.95,2143.85 2922.95,1395.84 2913.38,1395.84 
  "/>
<path clip-path="url(#clip742)" d="
M2841.61 1223.76 L2841.61 2143.85 L2851.18 2143.85 L2851.18 1223.76 L2841.61 1223.76 L2841.61 1223.76  Z
  " fill="#009af9" fill-rule="evenodd" fill-opacity="1"/>
<polyline clip-path="url(#clip742)" style="stroke:#000000; stroke-linecap:round; stroke-linejoin:round; stroke-width:4; stroke-opacity:1; fill:none" points="
  2841.61,1223.76 2841.61,2143.85 2851.18,2143.85 2851.18,1223.76 2841.61,1223.76 
  "/>
<path clip-path="url(#clip742)" d="
M2805.73 818.907 L2805.73 2143.85 L2815.3 2143.85 L2815.3 818.907 L2805.73 818.907 L2805.73 818.907  Z
  " fill="#009af9" fill-rule="evenodd" fill-opacity="1"/>
<polyline clip-path="url(#clip742)" style="stroke:#000000; stroke-linecap:round; stroke-linejoin:round; stroke-width:4; stroke-opacity:1; fill:none" points="
  2805.73,818.907 2805.73,2143.85 2815.3,2143.85 2815.3,818.907 2805.73,818.907 
  "/>
<path clip-path="url(#clip742)" d="
M2949.26 1060.41 L2949.26 2143.85 L2958.83 2143.85 L2958.83 1060.41 L2949.26 1060.41 L2949.26 1060.41  Z
  " fill="#009af9" fill-rule="evenodd" fill-opacity="1"/>
<polyline clip-path="url(#clip742)" style="stroke:#000000; stroke-linecap:round; stroke-linejoin:round; stroke-width:4; stroke-opacity:1; fill:none" points="
  2949.26,1060.41 2949.26,2143.85 2958.83,2143.85 2958.83,1060.41 2949.26,1060.41 
  "/>
<path clip-path="url(#clip742)" d="
M2985.15 108.31 L2985.15 2143.85 L2994.72 2143.85 L2994.72 108.31 L2985.15 108.31 L2985.15 108.31  Z
  " fill="#009af9" fill-rule="evenodd" fill-opacity="1"/>
<polyline clip-path="url(#clip742)" style="stroke:#000000; stroke-linecap:round; stroke-linejoin:round; stroke-width:4; stroke-opacity:1; fill:none" points="
  2985.15,108.31 2985.15,2143.85 2994.72,2143.85 2994.72,108.31 2985.15,108.31 
  "/>
<path clip-path="url(#clip742)" d="
M2662.2 1177.6 L2662.2 2143.85 L2671.76 2143.85 L2671.76 1177.6 L2662.2 1177.6 L2662.2 1177.6  Z
  " fill="#009af9" fill-rule="evenodd" fill-opacity="1"/>
<polyline clip-path="url(#clip742)" style="stroke:#000000; stroke-linecap:round; stroke-linejoin:round; stroke-width:4; stroke-opacity:1; fill:none" points="
  2662.2,1177.6 2662.2,2143.85 2671.76,2143.85 2671.76,1177.6 2662.2,1177.6 
  "/>
<path clip-path="url(#clip742)" d="
M2518.66 1136.49 L2518.66 2143.85 L2528.23 2143.85 L2528.23 1136.49 L2518.66 1136.49 L2518.66 1136.49  Z
  " fill="#009af9" fill-rule="evenodd" fill-opacity="1"/>
<polyline clip-path="url(#clip742)" style="stroke:#000000; stroke-linecap:round; stroke-linejoin:round; stroke-width:4; stroke-opacity:1; fill:none" points="
  2518.66,1136.49 2518.66,2143.85 2528.23,2143.85 2528.23,1136.49 2518.66,1136.49 
  "/>
<path clip-path="url(#clip742)" d="
M2446.9 912.837 L2446.9 2143.85 L2456.46 2143.85 L2456.46 912.837 L2446.9 912.837 L2446.9 912.837  Z
  " fill="#009af9" fill-rule="evenodd" fill-opacity="1"/>
<polyline clip-path="url(#clip742)" style="stroke:#000000; stroke-linecap:round; stroke-linejoin:round; stroke-width:4; stroke-opacity:1; fill:none" points="
  2446.9,912.837 2446.9,2143.85 2456.46,2143.85 2456.46,912.837 2446.9,912.837 
  "/>
<path clip-path="url(#clip742)" d="
M2554.55 952.609 L2554.55 2143.85 L2564.11 2143.85 L2564.11 952.609 L2554.55 952.609 L2554.55 952.609  Z
  " fill="#009af9" fill-rule="evenodd" fill-opacity="1"/>
<polyline clip-path="url(#clip742)" style="stroke:#000000; stroke-linecap:round; stroke-linejoin:round; stroke-width:4; stroke-opacity:1; fill:none" points="
  2554.55,952.609 2554.55,2143.85 2564.11,2143.85 2564.11,952.609 2554.55,952.609 
  "/>
<path clip-path="url(#clip742)" d="
M2733.96 921.115 L2733.96 2143.85 L2743.53 2143.85 L2743.53 921.115 L2733.96 921.115 L2733.96 921.115  Z
  " fill="#009af9" fill-rule="evenodd" fill-opacity="1"/>
<polyline clip-path="url(#clip742)" style="stroke:#000000; stroke-linecap:round; stroke-linejoin:round; stroke-width:4; stroke-opacity:1; fill:none" points="
  2733.96,921.115 2733.96,2143.85 2743.53,2143.85 2743.53,921.115 2733.96,921.115 
  "/>
<path clip-path="url(#clip742)" d="
M2769.85 827.149 L2769.85 2143.85 L2779.41 2143.85 L2779.41 827.149 L2769.85 827.149 L2769.85 827.149  Z
  " fill="#009af9" fill-rule="evenodd" fill-opacity="1"/>
<polyline clip-path="url(#clip742)" style="stroke:#000000; stroke-linecap:round; stroke-linejoin:round; stroke-width:4; stroke-opacity:1; fill:none" points="
  2769.85,827.149 2769.85,2143.85 2779.41,2143.85 2779.41,827.149 2769.85,827.149 
  "/>
<path clip-path="url(#clip742)" d="
M2877.5 795.618 L2877.5 2143.85 L2887.07 2143.85 L2887.07 795.618 L2877.5 795.618 L2877.5 795.618  Z
  " fill="#009af9" fill-rule="evenodd" fill-opacity="1"/>
<polyline clip-path="url(#clip742)" style="stroke:#000000; stroke-linecap:round; stroke-linejoin:round; stroke-width:4; stroke-opacity:1; fill:none" points="
  2877.5,795.618 2877.5,2143.85 2887.07,2143.85 2887.07,795.618 2877.5,795.618 
  "/>
<path clip-path="url(#clip742)" d="
M1286.67 1732.37 L1286.67 2143.85 L1296.23 2143.85 L1296.23 1732.37 L1286.67 1732.37 L1286.67 1732.37  Z
  " fill="#009af9" fill-rule="evenodd" fill-opacity="1"/>
<polyline clip-path="url(#clip742)" style="stroke:#000000; stroke-linecap:round; stroke-linejoin:round; stroke-width:4; stroke-opacity:1; fill:none" points="
  1286.67,1732.37 1286.67,2143.85 1296.23,2143.85 1296.23,1732.37 1286.67,1732.37 
  "/>
<circle clip-path="url(#clip742)" style="fill:#009af9; stroke:none; fill-opacity:0" cx="765.16" cy="1880.88" r="2"/>
<circle clip-path="url(#clip742)" style="fill:#009af9; stroke:none; fill-opacity:0" cx="729.277" cy="1795.58" r="2"/>
<circle clip-path="url(#clip742)" style="fill:#009af9; stroke:none; fill-opacity:0" cx="693.393" cy="1880.56" r="2"/>
<circle clip-path="url(#clip742)" style="fill:#009af9; stroke:none; fill-opacity:0" cx="621.627" cy="1958.47" r="2"/>
<circle clip-path="url(#clip742)" style="fill:#009af9; stroke:none; fill-opacity:0" cx="657.51" cy="1864.29" r="2"/>
<circle clip-path="url(#clip742)" style="fill:#009af9; stroke:none; fill-opacity:0" cx="836.927" cy="1881.45" r="2"/>
<circle clip-path="url(#clip742)" style="fill:#009af9; stroke:none; fill-opacity:0" cx="908.694" cy="1848.66" r="2"/>
<circle clip-path="url(#clip742)" style="fill:#009af9; stroke:none; fill-opacity:0" cx="980.461" cy="1838.35" r="2"/>
<circle clip-path="url(#clip742)" style="fill:#009af9; stroke:none; fill-opacity:0" cx="1016.34" cy="1713.43" r="2"/>
<circle clip-path="url(#clip742)" style="fill:#009af9; stroke:none; fill-opacity:0" cx="1052.23" cy="1797.76" r="2"/>
<circle clip-path="url(#clip742)" style="fill:#009af9; stroke:none; fill-opacity:0" cx="1123.99" cy="1779.15" r="2"/>
<circle clip-path="url(#clip742)" style="fill:#009af9; stroke:none; fill-opacity:0" cx="1195.76" cy="1783.87" r="2"/>
<circle clip-path="url(#clip742)" style="fill:#009af9; stroke:none; fill-opacity:0" cx="1267.53" cy="1751.48" r="2"/>
<circle clip-path="url(#clip742)" style="fill:#009af9; stroke:none; fill-opacity:0" cx="1231.64" cy="1709.72" r="2"/>
<circle clip-path="url(#clip742)" style="fill:#009af9; stroke:none; fill-opacity:0" cx="1159.88" cy="1718.43" r="2"/>
<circle clip-path="url(#clip742)" style="fill:#009af9; stroke:none; fill-opacity:0" cx="1339.29" cy="1752.12" r="2"/>
<circle clip-path="url(#clip742)" style="fill:#009af9; stroke:none; fill-opacity:0" cx="1088.11" cy="1714.7" r="2"/>
<circle clip-path="url(#clip742)" style="fill:#009af9; stroke:none; fill-opacity:0" cx="944.577" cy="1703.82" r="2"/>
<circle clip-path="url(#clip742)" style="fill:#009af9; stroke:none; fill-opacity:0" cx="872.81" cy="1832.88" r="2"/>
<circle clip-path="url(#clip742)" style="fill:#009af9; stroke:none; fill-opacity:0" cx="801.044" cy="1783.95" r="2"/>
<circle clip-path="url(#clip742)" style="fill:#009af9; stroke:none; fill-opacity:0" cx="1375.18" cy="1701.81" r="2"/>
<circle clip-path="url(#clip742)" style="fill:#009af9; stroke:none; fill-opacity:0" cx="1411.06" cy="1720.38" r="2"/>
<circle clip-path="url(#clip742)" style="fill:#009af9; stroke:none; fill-opacity:0" cx="1303.41" cy="1677.28" r="2"/>
<circle clip-path="url(#clip742)" style="fill:#009af9; stroke:none; fill-opacity:0" cx="1446.94" cy="1619.46" r="2"/>
<circle clip-path="url(#clip742)" style="fill:#009af9; stroke:none; fill-opacity:0" cx="1482.83" cy="1696.78" r="2"/>
<circle clip-path="url(#clip742)" style="fill:#009af9; stroke:none; fill-opacity:0" cx="1518.71" cy="1590.07" r="2"/>
<circle clip-path="url(#clip742)" style="fill:#009af9; stroke:none; fill-opacity:0" cx="1626.36" cy="1671.06" r="2"/>
<circle clip-path="url(#clip742)" style="fill:#009af9; stroke:none; fill-opacity:0" cx="1662.25" cy="1495.87" r="2"/>
<circle clip-path="url(#clip742)" style="fill:#009af9; stroke:none; fill-opacity:0" cx="1554.6" cy="1696.65" r="2"/>
<circle clip-path="url(#clip742)" style="fill:#009af9; stroke:none; fill-opacity:0" cx="585.743" cy="1896.67" r="2"/>
<circle clip-path="url(#clip742)" style="fill:#009af9; stroke:none; fill-opacity:0" cx="549.86" cy="1828.96" r="2"/>
<circle clip-path="url(#clip742)" style="fill:#009af9; stroke:none; fill-opacity:0" cx="513.977" cy="1738.53" r="2"/>
<circle clip-path="url(#clip742)" style="fill:#009af9; stroke:none; fill-opacity:0" cx="478.093" cy="2008.6" r="2"/>
<circle clip-path="url(#clip742)" style="fill:#009af9; stroke:none; fill-opacity:0" cx="442.21" cy="1955.77" r="2"/>
<circle clip-path="url(#clip742)" style="fill:#009af9; stroke:none; fill-opacity:0" cx="1698.13" cy="1644.92" r="2"/>
<circle clip-path="url(#clip742)" style="fill:#009af9; stroke:none; fill-opacity:0" cx="1590.48" cy="1588.95" r="2"/>
<circle clip-path="url(#clip742)" style="fill:#009af9; stroke:none; fill-opacity:0" cx="1734.01" cy="1457.72" r="2"/>
<circle clip-path="url(#clip742)" style="fill:#009af9; stroke:none; fill-opacity:0" cx="1805.78" cy="1446.27" r="2"/>
<circle clip-path="url(#clip742)" style="fill:#009af9; stroke:none; fill-opacity:0" cx="1769.9" cy="1603.08" r="2"/>
<circle clip-path="url(#clip742)" style="fill:#009af9; stroke:none; fill-opacity:0" cx="1841.66" cy="1532.53" r="2"/>
<circle clip-path="url(#clip742)" style="fill:#009af9; stroke:none; fill-opacity:0" cx="1949.31" cy="1347.23" r="2"/>
<circle clip-path="url(#clip742)" style="fill:#009af9; stroke:none; fill-opacity:0" cx="2021.08" cy="1251.31" r="2"/>
<circle clip-path="url(#clip742)" style="fill:#009af9; stroke:none; fill-opacity:0" cx="1985.2" cy="1331.87" r="2"/>
<circle clip-path="url(#clip742)" style="fill:#009af9; stroke:none; fill-opacity:0" cx="1877.55" cy="1391.7" r="2"/>
<circle clip-path="url(#clip742)" style="fill:#009af9; stroke:none; fill-opacity:0" cx="2092.85" cy="1248.82" r="2"/>
<circle clip-path="url(#clip742)" style="fill:#009af9; stroke:none; fill-opacity:0" cx="2164.61" cy="1110.05" r="2"/>
<circle clip-path="url(#clip742)" style="fill:#009af9; stroke:none; fill-opacity:0" cx="2128.73" cy="1073.49" r="2"/>
<circle clip-path="url(#clip742)" style="fill:#009af9; stroke:none; fill-opacity:0" cx="2236.38" cy="1133.14" r="2"/>
<circle clip-path="url(#clip742)" style="fill:#009af9; stroke:none; fill-opacity:0" cx="2200.5" cy="1031.89" r="2"/>
<circle clip-path="url(#clip742)" style="fill:#009af9; stroke:none; fill-opacity:0" cx="2272.26" cy="1034.27" r="2"/>
<circle clip-path="url(#clip742)" style="fill:#009af9; stroke:none; fill-opacity:0" cx="2344.03" cy="838.017" r="2"/>
<circle clip-path="url(#clip742)" style="fill:#009af9; stroke:none; fill-opacity:0" cx="1913.43" cy="1469.99" r="2"/>
<circle clip-path="url(#clip742)" style="fill:#009af9; stroke:none; fill-opacity:0" cx="2056.96" cy="1237.05" r="2"/>
<circle clip-path="url(#clip742)" style="fill:#009af9; stroke:none; fill-opacity:0" cx="2308.15" cy="1097.38" r="2"/>
<circle clip-path="url(#clip742)" style="fill:#009af9; stroke:none; fill-opacity:0" cx="2379.91" cy="917.068" r="2"/>
<circle clip-path="url(#clip742)" style="fill:#009af9; stroke:none; fill-opacity:0" cx="2415.8" cy="852.473" r="2"/>
<circle clip-path="url(#clip742)" style="fill:#009af9; stroke:none; fill-opacity:0" cx="2487.56" cy="984.834" r="2"/>
<circle clip-path="url(#clip742)" style="fill:#009af9; stroke:none; fill-opacity:0" cx="2595.21" cy="855.64" r="2"/>
<circle clip-path="url(#clip742)" style="fill:#009af9; stroke:none; fill-opacity:0" cx="2631.1" cy="731.147" r="2"/>
<circle clip-path="url(#clip742)" style="fill:#009af9; stroke:none; fill-opacity:0" cx="2702.86" cy="754.051" r="2"/>
<circle clip-path="url(#clip742)" style="fill:#009af9; stroke:none; fill-opacity:0" cx="2918.16" cy="1395.84" r="2"/>
<circle clip-path="url(#clip742)" style="fill:#009af9; stroke:none; fill-opacity:0" cx="2846.4" cy="1223.76" r="2"/>
<circle clip-path="url(#clip742)" style="fill:#009af9; stroke:none; fill-opacity:0" cx="2810.51" cy="818.907" r="2"/>
<circle clip-path="url(#clip742)" style="fill:#009af9; stroke:none; fill-opacity:0" cx="2954.05" cy="1060.41" r="2"/>
<circle clip-path="url(#clip742)" style="fill:#009af9; stroke:none; fill-opacity:0" cx="2989.93" cy="108.31" r="2"/>
<circle clip-path="url(#clip742)" style="fill:#009af9; stroke:none; fill-opacity:0" cx="2666.98" cy="1177.6" r="2"/>
<circle clip-path="url(#clip742)" style="fill:#009af9; stroke:none; fill-opacity:0" cx="2523.45" cy="1136.49" r="2"/>
<circle clip-path="url(#clip742)" style="fill:#009af9; stroke:none; fill-opacity:0" cx="2451.68" cy="912.837" r="2"/>
<circle clip-path="url(#clip742)" style="fill:#009af9; stroke:none; fill-opacity:0" cx="2559.33" cy="952.609" r="2"/>
<circle clip-path="url(#clip742)" style="fill:#009af9; stroke:none; fill-opacity:0" cx="2738.75" cy="921.115" r="2"/>
<circle clip-path="url(#clip742)" style="fill:#009af9; stroke:none; fill-opacity:0" cx="2774.63" cy="827.149" r="2"/>
<circle clip-path="url(#clip742)" style="fill:#009af9; stroke:none; fill-opacity:0" cx="2882.28" cy="795.618" r="2"/>
<circle clip-path="url(#clip742)" style="fill:#009af9; stroke:none; fill-opacity:0" cx="1291.45" cy="1732.37" r="2"/>
</svg>
