<?xml version="1.0" encoding="utf-8"?>
<svg xmlns="http://www.w3.org/2000/svg" xmlns:xlink="http://www.w3.org/1999/xlink" width="800" height="600" viewBox="0 0 3200 2400">
<defs>
  <clipPath id="clip300">
    <rect x="0" y="0" width="3200" height="2400"/>
  </clipPath>
</defs>
<path clip-path="url(#clip300)" d="
M0 2400 L3200 2400 L3200 0 L0 0  Z
  " fill="#ffffff" fill-rule="evenodd" fill-opacity="1"/>
<defs>
  <clipPath id="clip301">
    <rect x="640" y="0" width="2241" height="2241"/>
  </clipPath>
</defs>
<path clip-path="url(#clip300)" d="
M276.491 2204.92 L3152.76 2204.92 L3152.76 131.032 L276.491 131.032  Z
  " fill="#ffffff" fill-rule="evenodd" fill-opacity="1"/>
<defs>
  <clipPath id="clip302">
    <rect x="276" y="131" width="2877" height="2075"/>
  </clipPath>
</defs>
<polyline clip-path="url(#clip302)" style="stroke:#000000; stroke-linecap:round; stroke-linejoin:round; stroke-width:2; stroke-opacity:0.1; fill:none" points="
  1003.55,2204.92 1003.55,131.032 
  "/>
<polyline clip-path="url(#clip302)" style="stroke:#000000; stroke-linecap:round; stroke-linejoin:round; stroke-width:2; stroke-opacity:0.1; fill:none" points="
  2425.7,2204.92 2425.7,131.032 
  "/>
<polyline clip-path="url(#clip300)" style="stroke:#000000; stroke-linecap:round; stroke-linejoin:round; stroke-width:4; stroke-opacity:1; fill:none" points="
  276.491,2204.92 3152.76,2204.92 
  "/>
<polyline clip-path="url(#clip300)" style="stroke:#000000; stroke-linecap:round; stroke-linejoin:round; stroke-width:4; stroke-opacity:1; fill:none" points="
  1003.55,2204.92 1003.55,2186.02 
  "/>
<polyline clip-path="url(#clip300)" style="stroke:#000000; stroke-linecap:round; stroke-linejoin:round; stroke-width:4; stroke-opacity:1; fill:none" points="
  2425.7,2204.92 2425.7,2186.02 
  "/>
<path clip-path="url(#clip300)" d="M896.502 2239.16 L901.224 2239.16 L908.493 2268.37 L915.738 2239.16 L920.992 2239.16 L928.261 2268.37 L935.506 2239.16 L940.252 2239.16 L931.571 2273.72 L925.691 2273.72 L918.4 2243.72 L911.039 2273.72 L905.159 2273.72 L896.502 2239.16 Z" fill="#000000" fill-rule="evenodd" fill-opacity="1" /><path clip-path="url(#clip300)" d="M965.668 2259.69 L965.668 2261.78 L946.085 2261.78 Q946.363 2266.17 948.724 2268.49 Q951.108 2270.78 955.344 2270.78 Q957.798 2270.78 960.089 2270.18 Q962.404 2269.58 964.673 2268.37 L964.673 2272.4 Q962.381 2273.37 959.974 2273.88 Q957.566 2274.39 955.089 2274.39 Q948.886 2274.39 945.252 2270.78 Q941.64 2267.17 941.64 2261.01 Q941.64 2254.65 945.066 2250.92 Q948.515 2247.17 954.349 2247.17 Q959.58 2247.17 962.613 2250.55 Q965.668 2253.91 965.668 2259.69 M961.409 2258.44 Q961.363 2254.95 959.441 2252.86 Q957.543 2250.78 954.395 2250.78 Q950.83 2250.78 948.677 2252.79 Q946.548 2254.81 946.224 2258.47 L961.409 2258.44 Z" fill="#000000" fill-rule="evenodd" fill-opacity="1" /><path clip-path="url(#clip300)" d="M994.835 2259.69 L994.835 2261.78 L975.251 2261.78 Q975.529 2266.17 977.89 2268.49 Q980.275 2270.78 984.511 2270.78 Q986.964 2270.78 989.256 2270.18 Q991.571 2269.58 993.839 2268.37 L993.839 2272.4 Q991.548 2273.37 989.14 2273.88 Q986.733 2274.39 984.256 2274.39 Q978.052 2274.39 974.418 2270.78 Q970.807 2267.17 970.807 2261.01 Q970.807 2254.65 974.233 2250.92 Q977.682 2247.17 983.515 2247.17 Q988.747 2247.17 991.779 2250.55 Q994.835 2253.91 994.835 2259.69 M990.575 2258.44 Q990.529 2254.95 988.608 2252.86 Q986.71 2250.78 983.562 2250.78 Q979.997 2250.78 977.844 2252.79 Q975.714 2254.81 975.39 2258.47 L990.575 2258.44 Z" fill="#000000" fill-rule="evenodd" fill-opacity="1" /><path clip-path="url(#clip300)" d="M1001.66 2237.7 L1005.95 2237.7 L1005.95 2258.97 L1018.65 2247.79 L1024.09 2247.79 L1010.34 2259.92 L1024.67 2273.72 L1019.12 2273.72 L1005.95 2261.06 L1005.95 2273.72 L1001.66 2273.72 L1001.66 2237.7 Z" fill="#000000" fill-rule="evenodd" fill-opacity="1" /><path clip-path="url(#clip300)" d="M1046.34 2251.73 L1046.34 2237.7 L1050.6 2237.7 L1050.6 2273.72 L1046.34 2273.72 L1046.34 2269.83 Q1045 2272.15 1042.94 2273.28 Q1040.9 2274.39 1038.03 2274.39 Q1033.33 2274.39 1030.37 2270.64 Q1027.43 2266.89 1027.43 2260.78 Q1027.43 2254.67 1030.37 2250.92 Q1033.33 2247.17 1038.03 2247.17 Q1040.9 2247.17 1042.94 2248.3 Q1045 2249.41 1046.34 2251.73 M1031.83 2260.78 Q1031.83 2265.48 1033.75 2268.16 Q1035.69 2270.83 1039.07 2270.83 Q1042.45 2270.83 1044.39 2268.16 Q1046.34 2265.48 1046.34 2260.78 Q1046.34 2256.08 1044.39 2253.42 Q1042.45 2250.73 1039.07 2250.73 Q1035.69 2250.73 1033.75 2253.42 Q1031.83 2256.08 1031.83 2260.78 Z" fill="#000000" fill-rule="evenodd" fill-opacity="1" /><path clip-path="url(#clip300)" d="M1071.15 2260.69 Q1065.99 2260.69 1064 2261.87 Q1062.01 2263.05 1062.01 2265.9 Q1062.01 2268.16 1063.49 2269.51 Q1065 2270.83 1067.57 2270.83 Q1071.11 2270.83 1073.24 2268.33 Q1075.39 2265.8 1075.39 2261.64 L1075.39 2260.69 L1071.15 2260.69 M1079.65 2258.93 L1079.65 2273.72 L1075.39 2273.72 L1075.39 2269.78 Q1073.93 2272.15 1071.76 2273.28 Q1069.58 2274.39 1066.43 2274.39 Q1062.45 2274.39 1060.09 2272.17 Q1057.75 2269.92 1057.75 2266.17 Q1057.75 2261.8 1060.67 2259.58 Q1063.61 2257.35 1069.42 2257.35 L1075.39 2257.35 L1075.39 2256.94 Q1075.39 2254 1073.45 2252.4 Q1071.52 2250.78 1068.03 2250.78 Q1065.81 2250.78 1063.7 2251.31 Q1061.59 2251.84 1059.65 2252.91 L1059.65 2248.97 Q1061.99 2248.07 1064.19 2247.63 Q1066.39 2247.17 1068.47 2247.17 Q1074.09 2247.17 1076.87 2250.09 Q1079.65 2253 1079.65 2258.93 Z" fill="#000000" fill-rule="evenodd" fill-opacity="1" /><path clip-path="url(#clip300)" d="M1099.21 2276.13 Q1097.4 2280.76 1095.69 2282.17 Q1093.98 2283.58 1091.11 2283.58 L1087.7 2283.58 L1087.7 2280.02 L1090.2 2280.02 Q1091.96 2280.02 1092.94 2279.18 Q1093.91 2278.35 1095.09 2275.25 L1095.85 2273.3 L1085.37 2247.79 L1089.88 2247.79 L1097.98 2268.07 L1106.08 2247.79 L1110.6 2247.79 L1099.21 2276.13 Z" fill="#000000" fill-rule="evenodd" fill-opacity="1" /><path clip-path="url(#clip300)" d="M2339.63 2239.16 L2344.31 2239.16 L2344.31 2253.33 L2361.3 2253.33 L2361.3 2239.16 L2365.98 2239.16 L2365.98 2273.72 L2361.3 2273.72 L2361.3 2257.26 L2344.31 2257.26 L2344.31 2273.72 L2339.63 2273.72 L2339.63 2239.16 Z" fill="#000000" fill-rule="evenodd" fill-opacity="1" /><path clip-path="url(#clip300)" d="M2385.14 2250.78 Q2381.72 2250.78 2379.73 2253.47 Q2377.73 2256.13 2377.73 2260.78 Q2377.73 2265.43 2379.7 2268.12 Q2381.69 2270.78 2385.14 2270.78 Q2388.54 2270.78 2390.54 2268.09 Q2392.53 2265.41 2392.53 2260.78 Q2392.53 2256.17 2390.54 2253.49 Q2388.54 2250.78 2385.14 2250.78 M2385.14 2247.17 Q2390.7 2247.17 2393.87 2250.78 Q2397.04 2254.39 2397.04 2260.78 Q2397.04 2267.15 2393.87 2270.78 Q2390.7 2274.39 2385.14 2274.39 Q2379.56 2274.39 2376.39 2270.78 Q2373.24 2267.15 2373.24 2260.78 Q2373.24 2254.39 2376.39 2250.78 Q2379.56 2247.17 2385.14 2247.17 Z" fill="#000000" fill-rule="evenodd" fill-opacity="1" /><path clip-path="url(#clip300)" d="M2404.1 2237.7 L2408.36 2237.7 L2408.36 2273.72 L2404.1 2273.72 L2404.1 2237.7 Z" fill="#000000" fill-rule="evenodd" fill-opacity="1" /><path clip-path="url(#clip300)" d="M2417.27 2247.79 L2421.53 2247.79 L2421.53 2273.72 L2417.27 2273.72 L2417.27 2247.79 M2417.27 2237.7 L2421.53 2237.7 L2421.53 2243.1 L2417.27 2243.1 L2417.27 2237.7 Z" fill="#000000" fill-rule="evenodd" fill-opacity="1" /><path clip-path="url(#clip300)" d="M2447.5 2251.73 L2447.5 2237.7 L2451.76 2237.7 L2451.76 2273.72 L2447.5 2273.72 L2447.5 2269.83 Q2446.16 2272.15 2444.1 2273.28 Q2442.06 2274.39 2439.19 2274.39 Q2434.49 2274.39 2431.53 2270.64 Q2428.59 2266.89 2428.59 2260.78 Q2428.59 2254.67 2431.53 2250.92 Q2434.49 2247.17 2439.19 2247.17 Q2442.06 2247.17 2444.1 2248.3 Q2446.16 2249.41 2447.5 2251.73 M2432.99 2260.78 Q2432.99 2265.48 2434.91 2268.16 Q2436.85 2270.83 2440.23 2270.83 Q2443.61 2270.83 2445.56 2268.16 Q2447.5 2265.48 2447.5 2260.78 Q2447.5 2256.08 2445.56 2253.42 Q2443.61 2250.73 2440.23 2250.73 Q2436.85 2250.73 2434.91 2253.42 Q2432.99 2256.08 2432.99 2260.78 Z" fill="#000000" fill-rule="evenodd" fill-opacity="1" /><path clip-path="url(#clip300)" d="M2472.32 2260.69 Q2467.16 2260.69 2465.16 2261.87 Q2463.17 2263.05 2463.17 2265.9 Q2463.17 2268.16 2464.66 2269.51 Q2466.16 2270.83 2468.73 2270.83 Q2472.27 2270.83 2474.4 2268.33 Q2476.55 2265.8 2476.55 2261.64 L2476.55 2260.69 L2472.32 2260.69 M2480.81 2258.93 L2480.81 2273.72 L2476.55 2273.72 L2476.55 2269.78 Q2475.1 2272.15 2472.92 2273.28 Q2470.74 2274.39 2467.6 2274.39 Q2463.61 2274.39 2461.25 2272.17 Q2458.91 2269.92 2458.91 2266.17 Q2458.91 2261.8 2461.83 2259.58 Q2464.77 2257.35 2470.58 2257.35 L2476.55 2257.35 L2476.55 2256.94 Q2476.55 2254 2474.61 2252.4 Q2472.69 2250.78 2469.19 2250.78 Q2466.97 2250.78 2464.86 2251.31 Q2462.76 2251.84 2460.81 2252.91 L2460.81 2248.97 Q2463.15 2248.07 2465.35 2247.63 Q2467.55 2247.17 2469.63 2247.17 Q2475.26 2247.17 2478.03 2250.09 Q2480.81 2253 2480.81 2258.93 Z" fill="#000000" fill-rule="evenodd" fill-opacity="1" /><path clip-path="url(#clip300)" d="M2500.37 2276.13 Q2498.57 2280.76 2496.85 2282.17 Q2495.14 2283.58 2492.27 2283.58 L2488.87 2283.58 L2488.87 2280.02 L2491.37 2280.02 Q2493.13 2280.02 2494.1 2279.18 Q2495.07 2278.35 2496.25 2275.25 L2497.02 2273.3 L2486.53 2247.79 L2491.04 2247.79 L2499.15 2268.07 L2507.25 2247.79 L2511.76 2247.79 L2500.37 2276.13 Z" fill="#000000" fill-rule="evenodd" fill-opacity="1" /><path clip-path="url(#clip300)" d="M1390.86 2314.26 L1397.36 2314.26 L1407.35 2354.43 L1417.31 2314.26 L1424.54 2314.26 L1434.53 2354.43 L1444.49 2314.26 L1451.02 2314.26 L1439.08 2361.78 L1431 2361.78 L1420.97 2320.53 L1410.85 2361.78 L1402.77 2361.78 L1390.86 2314.26 Z" fill="#000000" fill-rule="evenodd" fill-opacity="1" /><path clip-path="url(#clip300)" d="M1485.97 2342.5 L1485.97 2345.36 L1459.04 2345.36 Q1459.42 2351.41 1462.67 2354.59 Q1465.95 2357.74 1471.77 2357.74 Q1475.15 2357.74 1478.3 2356.91 Q1481.48 2356.09 1484.6 2354.43 L1484.6 2359.97 Q1481.45 2361.31 1478.14 2362.01 Q1474.83 2362.71 1471.42 2362.71 Q1462.89 2362.71 1457.89 2357.74 Q1452.93 2352.78 1452.93 2344.31 Q1452.93 2335.56 1457.64 2330.43 Q1462.38 2325.28 1470.4 2325.28 Q1477.6 2325.28 1481.77 2329.92 Q1485.97 2334.54 1485.97 2342.5 M1480.11 2340.78 Q1480.05 2335.97 1477.41 2333.11 Q1474.8 2330.24 1470.47 2330.24 Q1465.57 2330.24 1462.61 2333.01 Q1459.68 2335.78 1459.23 2340.81 L1480.11 2340.78 Z" fill="#000000" fill-rule="evenodd" fill-opacity="1" /><path clip-path="url(#clip300)" d="M1526.07 2342.5 L1526.07 2345.36 L1499.14 2345.36 Q1499.53 2351.41 1502.77 2354.59 Q1506.05 2357.74 1511.88 2357.74 Q1515.25 2357.74 1518.4 2356.91 Q1521.58 2356.09 1524.7 2354.43 L1524.7 2359.97 Q1521.55 2361.31 1518.24 2362.01 Q1514.93 2362.71 1511.53 2362.71 Q1503 2362.71 1498 2357.74 Q1493.03 2352.78 1493.03 2344.31 Q1493.03 2335.56 1497.74 2330.43 Q1502.49 2325.28 1510.51 2325.28 Q1517.7 2325.28 1521.87 2329.92 Q1526.07 2334.54 1526.07 2342.5 M1520.21 2340.78 Q1520.15 2335.97 1517.51 2333.11 Q1514.9 2330.24 1510.57 2330.24 Q1505.67 2330.24 1502.71 2333.01 Q1499.78 2335.78 1499.34 2340.81 L1520.21 2340.78 Z" fill="#000000" fill-rule="evenodd" fill-opacity="1" /><path clip-path="url(#clip300)" d="M1535.46 2312.26 L1541.35 2312.26 L1541.35 2341.51 L1558.82 2326.14 L1566.3 2326.14 L1547.4 2342.81 L1567.1 2361.78 L1559.46 2361.78 L1541.35 2344.37 L1541.35 2361.78 L1535.46 2361.78 L1535.46 2312.26 Z" fill="#000000" fill-rule="evenodd" fill-opacity="1" /><path clip-path="url(#clip300)" d="M1596.89 2331.55 L1596.89 2312.26 L1602.75 2312.26 L1602.75 2361.78 L1596.89 2361.78 L1596.89 2356.44 Q1595.04 2359.62 1592.21 2361.18 Q1589.41 2362.71 1585.46 2362.71 Q1579 2362.71 1574.93 2357.55 Q1570.89 2352.39 1570.89 2343.99 Q1570.89 2335.59 1574.93 2330.43 Q1579 2325.28 1585.46 2325.28 Q1589.41 2325.28 1592.21 2326.84 Q1595.04 2328.36 1596.89 2331.55 M1576.93 2343.99 Q1576.93 2350.45 1579.58 2354.14 Q1582.25 2357.81 1586.9 2357.81 Q1591.54 2357.81 1594.22 2354.14 Q1596.89 2350.45 1596.89 2343.99 Q1596.89 2337.53 1594.22 2333.87 Q1591.54 2330.18 1586.9 2330.18 Q1582.25 2330.18 1579.58 2333.87 Q1576.93 2337.53 1576.93 2343.99 Z" fill="#000000" fill-rule="evenodd" fill-opacity="1" /><path clip-path="url(#clip300)" d="M1631.01 2343.86 Q1623.91 2343.86 1621.17 2345.49 Q1618.44 2347.11 1618.44 2351.03 Q1618.44 2354.14 1620.47 2355.99 Q1622.54 2357.81 1626.08 2357.81 Q1630.95 2357.81 1633.87 2354.37 Q1636.83 2350.9 1636.83 2345.17 L1636.83 2343.86 L1631.01 2343.86 M1642.69 2341.45 L1642.69 2361.78 L1636.83 2361.78 L1636.83 2356.37 Q1634.83 2359.62 1631.84 2361.18 Q1628.85 2362.71 1624.52 2362.71 Q1619.04 2362.71 1615.8 2359.65 Q1612.58 2356.56 1612.58 2351.41 Q1612.58 2345.39 1616.59 2342.34 Q1620.63 2339.28 1628.62 2339.28 L1636.83 2339.28 L1636.83 2338.71 Q1636.83 2334.67 1634.16 2332.47 Q1631.52 2330.24 1626.71 2330.24 Q1623.66 2330.24 1620.76 2330.97 Q1617.86 2331.71 1615.19 2333.17 L1615.19 2327.76 Q1618.41 2326.52 1621.43 2325.91 Q1624.45 2325.28 1627.32 2325.28 Q1635.05 2325.28 1638.87 2329.29 Q1642.69 2333.3 1642.69 2341.45 Z" fill="#000000" fill-rule="evenodd" fill-opacity="1" /><path clip-path="url(#clip300)" d="M1669.59 2365.09 Q1667.1 2371.46 1664.75 2373.4 Q1662.39 2375.34 1658.45 2375.34 L1653.77 2375.34 L1653.77 2370.44 L1657.2 2370.44 Q1659.62 2370.44 1660.96 2369.3 Q1662.3 2368.15 1663.92 2363.88 L1664.97 2361.21 L1650.55 2326.14 L1656.76 2326.14 L1667.9 2354.02 L1679.04 2326.14 L1685.25 2326.14 L1669.59 2365.09 Z" fill="#000000" fill-rule="evenodd" fill-opacity="1" /><path clip-path="url(#clip300)" d="M1727.86 2330.24 Q1723.15 2330.24 1720.42 2333.93 Q1717.68 2337.59 1717.68 2343.99 Q1717.68 2350.39 1720.38 2354.08 Q1723.12 2357.74 1727.86 2357.74 Q1732.54 2357.74 1735.28 2354.05 Q1738.02 2350.36 1738.02 2343.99 Q1738.02 2337.66 1735.28 2333.97 Q1732.54 2330.24 1727.86 2330.24 M1727.86 2325.28 Q1735.5 2325.28 1739.86 2330.24 Q1744.22 2335.21 1744.22 2343.99 Q1744.22 2352.74 1739.86 2357.74 Q1735.5 2362.71 1727.86 2362.71 Q1720.19 2362.71 1715.83 2357.74 Q1711.5 2352.74 1711.5 2343.99 Q1711.5 2335.21 1715.83 2330.24 Q1720.19 2325.28 1727.86 2325.28 Z" fill="#000000" fill-rule="evenodd" fill-opacity="1" /><path clip-path="url(#clip300)" d="M1774.59 2331.61 Q1773.6 2331.04 1772.42 2330.78 Q1771.28 2330.5 1769.88 2330.5 Q1764.91 2330.5 1762.24 2333.74 Q1759.6 2336.96 1759.6 2343.01 L1759.6 2361.78 L1753.71 2361.78 L1753.71 2326.14 L1759.6 2326.14 L1759.6 2331.67 Q1761.44 2328.43 1764.4 2326.87 Q1767.36 2325.28 1771.6 2325.28 Q1772.2 2325.28 1772.93 2325.37 Q1773.67 2325.44 1774.56 2325.59 L1774.59 2331.61 Z" fill="#000000" fill-rule="evenodd" fill-opacity="1" /><path clip-path="url(#clip300)" d="M1801.71 2314.26 L1808.14 2314.26 L1808.14 2333.74 L1831.5 2333.74 L1831.5 2314.26 L1837.93 2314.26 L1837.93 2361.78 L1831.5 2361.78 L1831.5 2339.15 L1808.14 2339.15 L1808.14 2361.78 L1801.71 2361.78 L1801.71 2314.26 Z" fill="#000000" fill-rule="evenodd" fill-opacity="1" /><path clip-path="url(#clip300)" d="M1864.28 2330.24 Q1859.57 2330.24 1856.83 2333.93 Q1854.1 2337.59 1854.1 2343.99 Q1854.1 2350.39 1856.8 2354.08 Q1859.54 2357.74 1864.28 2357.74 Q1868.96 2357.74 1871.7 2354.05 Q1874.43 2350.36 1874.43 2343.99 Q1874.43 2337.66 1871.7 2333.97 Q1868.96 2330.24 1864.28 2330.24 M1864.28 2325.28 Q1871.92 2325.28 1876.28 2330.24 Q1880.64 2335.21 1880.64 2343.99 Q1880.64 2352.74 1876.28 2357.74 Q1871.92 2362.71 1864.28 2362.71 Q1856.61 2362.71 1852.25 2357.74 Q1847.92 2352.74 1847.92 2343.99 Q1847.92 2335.21 1852.25 2330.24 Q1856.61 2325.28 1864.28 2325.28 Z" fill="#000000" fill-rule="evenodd" fill-opacity="1" /><path clip-path="url(#clip300)" d="M1890.35 2312.26 L1896.21 2312.26 L1896.21 2361.78 L1890.35 2361.78 L1890.35 2312.26 Z" fill="#000000" fill-rule="evenodd" fill-opacity="1" /><path clip-path="url(#clip300)" d="M1908.46 2326.14 L1914.32 2326.14 L1914.32 2361.78 L1908.46 2361.78 L1908.46 2326.14 M1908.46 2312.26 L1914.32 2312.26 L1914.32 2319.67 L1908.46 2319.67 L1908.46 2312.26 Z" fill="#000000" fill-rule="evenodd" fill-opacity="1" /><path clip-path="url(#clip300)" d="M1950.03 2331.55 L1950.03 2312.26 L1955.88 2312.26 L1955.88 2361.78 L1950.03 2361.78 L1950.03 2356.44 Q1948.18 2359.62 1945.35 2361.18 Q1942.55 2362.71 1938.6 2362.71 Q1932.14 2362.71 1928.07 2357.55 Q1924.02 2352.39 1924.02 2343.99 Q1924.02 2335.59 1928.07 2330.43 Q1932.14 2325.28 1938.6 2325.28 Q1942.55 2325.28 1945.35 2326.84 Q1948.18 2328.36 1950.03 2331.55 M1930.07 2343.99 Q1930.07 2350.45 1932.71 2354.14 Q1935.39 2357.81 1940.03 2357.81 Q1944.68 2357.81 1947.35 2354.14 Q1950.03 2350.45 1950.03 2343.99 Q1950.03 2337.53 1947.35 2333.87 Q1944.68 2330.18 1940.03 2330.18 Q1935.39 2330.18 1932.71 2333.87 Q1930.07 2337.53 1930.07 2343.99 Z" fill="#000000" fill-rule="evenodd" fill-opacity="1" /><path clip-path="url(#clip300)" d="M1984.15 2343.86 Q1977.05 2343.86 1974.31 2345.49 Q1971.58 2347.11 1971.58 2351.03 Q1971.58 2354.14 1973.61 2355.99 Q1975.68 2357.81 1979.21 2357.81 Q1984.08 2357.81 1987.01 2354.37 Q1989.97 2350.9 1989.97 2345.17 L1989.97 2343.86 L1984.15 2343.86 M1995.83 2341.45 L1995.83 2361.78 L1989.97 2361.78 L1989.97 2356.37 Q1987.97 2359.62 1984.98 2361.18 Q1981.98 2362.71 1977.65 2362.71 Q1972.18 2362.71 1968.93 2359.65 Q1965.72 2356.56 1965.72 2351.41 Q1965.72 2345.39 1969.73 2342.34 Q1973.77 2339.28 1981.76 2339.28 L1989.97 2339.28 L1989.97 2338.71 Q1989.97 2334.67 1987.3 2332.47 Q1984.66 2330.24 1979.85 2330.24 Q1976.8 2330.24 1973.9 2330.97 Q1971 2331.71 1968.33 2333.17 L1968.33 2327.76 Q1971.54 2326.52 1974.57 2325.91 Q1977.59 2325.28 1980.46 2325.28 Q1988.19 2325.28 1992.01 2329.29 Q1995.83 2333.3 1995.83 2341.45 Z" fill="#000000" fill-rule="evenodd" fill-opacity="1" /><path clip-path="url(#clip300)" d="M2022.72 2365.09 Q2020.24 2371.46 2017.89 2373.4 Q2015.53 2375.34 2011.58 2375.34 L2006.9 2375.34 L2006.9 2370.44 L2010.34 2370.44 Q2012.76 2370.44 2014.1 2369.3 Q2015.44 2368.15 2017.06 2363.88 L2018.11 2361.21 L2003.69 2326.14 L2009.9 2326.14 L2021.04 2354.02 L2032.18 2326.14 L2038.38 2326.14 L2022.72 2365.09 Z" fill="#000000" fill-rule="evenodd" fill-opacity="1" /><polyline clip-path="url(#clip302)" style="stroke:#000000; stroke-linecap:round; stroke-linejoin:round; stroke-width:2; stroke-opacity:0.1; fill:none" points="
  276.491,2146.22 3152.76,2146.22 
  "/>
<polyline clip-path="url(#clip302)" style="stroke:#000000; stroke-linecap:round; stroke-linejoin:round; stroke-width:2; stroke-opacity:0.1; fill:none" points="
  276.491,1721.47 3152.76,1721.47 
  "/>
<polyline clip-path="url(#clip302)" style="stroke:#000000; stroke-linecap:round; stroke-linejoin:round; stroke-width:2; stroke-opacity:0.1; fill:none" points="
  276.491,1296.71 3152.76,1296.71 
  "/>
<polyline clip-path="url(#clip302)" style="stroke:#000000; stroke-linecap:round; stroke-linejoin:round; stroke-width:2; stroke-opacity:0.1; fill:none" points="
  276.491,871.952 3152.76,871.952 
  "/>
<polyline clip-path="url(#clip302)" style="stroke:#000000; stroke-linecap:round; stroke-linejoin:round; stroke-width:2; stroke-opacity:0.1; fill:none" points="
  276.491,447.195 3152.76,447.195 
  "/>
<polyline clip-path="url(#clip300)" style="stroke:#000000; stroke-linecap:round; stroke-linejoin:round; stroke-width:4; stroke-opacity:1; fill:none" points="
  276.491,2204.92 276.491,131.032 
  "/>
<polyline clip-path="url(#clip300)" style="stroke:#000000; stroke-linecap:round; stroke-linejoin:round; stroke-width:4; stroke-opacity:1; fill:none" points="
  276.491,2146.22 295.389,2146.22 
  "/>
<polyline clip-path="url(#clip300)" style="stroke:#000000; stroke-linecap:round; stroke-linejoin:round; stroke-width:4; stroke-opacity:1; fill:none" points="
  276.491,1721.47 295.389,1721.47 
  "/>
<polyline clip-path="url(#clip300)" style="stroke:#000000; stroke-linecap:round; stroke-linejoin:round; stroke-width:4; stroke-opacity:1; fill:none" points="
  276.491,1296.71 295.389,1296.71 
  "/>
<polyline clip-path="url(#clip300)" style="stroke:#000000; stroke-linecap:round; stroke-linejoin:round; stroke-width:4; stroke-opacity:1; fill:none" points="
  276.491,871.952 295.389,871.952 
  "/>
<polyline clip-path="url(#clip300)" style="stroke:#000000; stroke-linecap:round; stroke-linejoin:round; stroke-width:4; stroke-opacity:1; fill:none" points="
  276.491,447.195 295.389,447.195 
  "/>
<path clip-path="url(#clip300)" d="M216.547 2132.02 Q212.936 2132.02 211.107 2135.59 Q209.302 2139.13 209.302 2146.26 Q209.302 2153.37 211.107 2156.93 Q212.936 2160.47 216.547 2160.47 Q220.181 2160.47 221.987 2156.93 Q223.815 2153.37 223.815 2146.26 Q223.815 2139.13 221.987 2135.59 Q220.181 2132.02 216.547 2132.02 M216.547 2128.32 Q222.357 2128.32 225.413 2132.93 Q228.491 2137.51 228.491 2146.26 Q228.491 2154.99 225.413 2159.59 Q222.357 2164.18 216.547 2164.18 Q210.737 2164.18 207.658 2159.59 Q204.602 2154.99 204.602 2146.26 Q204.602 2137.51 207.658 2132.93 Q210.737 2128.32 216.547 2128.32 Z" fill="#000000" fill-rule="evenodd" fill-opacity="1" /><path clip-path="url(#clip300)" d="M150.251 1734.81 L166.57 1734.81 L166.57 1738.75 L144.626 1738.75 L144.626 1734.81 Q147.288 1732.06 151.871 1727.43 Q156.478 1722.78 157.658 1721.43 Q159.904 1718.91 160.783 1717.17 Q161.686 1715.41 161.686 1713.72 Q161.686 1710.97 159.742 1709.23 Q157.82 1707.5 154.718 1707.5 Q152.519 1707.5 150.066 1708.26 Q147.635 1709.03 144.857 1710.58 L144.857 1705.85 Q147.681 1704.72 150.135 1704.14 Q152.589 1703.56 154.626 1703.56 Q159.996 1703.56 163.191 1706.25 Q166.385 1708.93 166.385 1713.42 Q166.385 1715.55 165.575 1717.47 Q164.788 1719.37 162.681 1721.97 Q162.103 1722.64 159.001 1725.85 Q155.899 1729.05 150.251 1734.81 Z" fill="#000000" fill-rule="evenodd" fill-opacity="1" /><path clip-path="url(#clip300)" d="M176.431 1704.19 L194.788 1704.19 L194.788 1708.12 L180.714 1708.12 L180.714 1716.59 Q181.732 1716.25 182.751 1716.09 Q183.769 1715.9 184.788 1715.9 Q190.575 1715.9 193.954 1719.07 Q197.334 1722.24 197.334 1727.66 Q197.334 1733.24 193.862 1736.34 Q190.39 1739.42 184.07 1739.42 Q181.894 1739.42 179.626 1739.05 Q177.38 1738.68 174.973 1737.94 L174.973 1733.24 Q177.056 1734.37 179.279 1734.93 Q181.501 1735.48 183.978 1735.48 Q187.982 1735.48 190.32 1733.38 Q192.658 1731.27 192.658 1727.66 Q192.658 1724.05 190.32 1721.94 Q187.982 1719.84 183.978 1719.84 Q182.103 1719.84 180.228 1720.25 Q178.376 1720.67 176.431 1721.55 L176.431 1704.19 Z" fill="#000000" fill-rule="evenodd" fill-opacity="1" /><path clip-path="url(#clip300)" d="M216.547 1707.27 Q212.936 1707.27 211.107 1710.83 Q209.302 1714.37 209.302 1721.5 Q209.302 1728.61 211.107 1732.17 Q212.936 1735.71 216.547 1735.71 Q220.181 1735.71 221.987 1732.17 Q223.815 1728.61 223.815 1721.5 Q223.815 1714.37 221.987 1710.83 Q220.181 1707.27 216.547 1707.27 M216.547 1703.56 Q222.357 1703.56 225.413 1708.17 Q228.491 1712.75 228.491 1721.5 Q228.491 1730.23 225.413 1734.84 Q222.357 1739.42 216.547 1739.42 Q210.737 1739.42 207.658 1734.84 Q204.602 1730.23 204.602 1721.5 Q204.602 1712.75 207.658 1708.17 Q210.737 1703.56 216.547 1703.56 Z" fill="#000000" fill-rule="evenodd" fill-opacity="1" /><path clip-path="url(#clip300)" d="M146.269 1279.43 L164.626 1279.43 L164.626 1283.37 L150.552 1283.37 L150.552 1291.84 Q151.57 1291.49 152.589 1291.33 Q153.607 1291.14 154.626 1291.14 Q160.413 1291.14 163.792 1294.31 Q167.172 1297.49 167.172 1302.9 Q167.172 1308.48 163.7 1311.58 Q160.228 1314.66 153.908 1314.66 Q151.732 1314.66 149.464 1314.29 Q147.219 1313.92 144.811 1313.18 L144.811 1308.48 Q146.894 1309.61 149.117 1310.17 Q151.339 1310.73 153.816 1310.73 Q157.82 1310.73 160.158 1308.62 Q162.496 1306.51 162.496 1302.9 Q162.496 1299.29 160.158 1297.18 Q157.82 1295.08 153.816 1295.08 Q151.941 1295.08 150.066 1295.49 Q148.214 1295.91 146.269 1296.79 L146.269 1279.43 Z" fill="#000000" fill-rule="evenodd" fill-opacity="1" /><path clip-path="url(#clip300)" d="M186.385 1282.51 Q182.774 1282.51 180.945 1286.07 Q179.14 1289.61 179.14 1296.74 Q179.14 1303.85 180.945 1307.42 Q182.774 1310.96 186.385 1310.96 Q190.019 1310.96 191.825 1307.42 Q193.653 1303.85 193.653 1296.74 Q193.653 1289.61 191.825 1286.07 Q190.019 1282.51 186.385 1282.51 M186.385 1278.8 Q192.195 1278.8 195.251 1283.41 Q198.329 1287.99 198.329 1296.74 Q198.329 1305.47 195.251 1310.08 Q192.195 1314.66 186.385 1314.66 Q180.575 1314.66 177.496 1310.08 Q174.441 1305.47 174.441 1296.74 Q174.441 1287.99 177.496 1283.41 Q180.575 1278.8 186.385 1278.8 Z" fill="#000000" fill-rule="evenodd" fill-opacity="1" /><path clip-path="url(#clip300)" d="M216.547 1282.51 Q212.936 1282.51 211.107 1286.07 Q209.302 1289.61 209.302 1296.74 Q209.302 1303.85 211.107 1307.42 Q212.936 1310.96 216.547 1310.96 Q220.181 1310.96 221.987 1307.42 Q223.815 1303.85 223.815 1296.74 Q223.815 1289.61 221.987 1286.07 Q220.181 1282.51 216.547 1282.51 M216.547 1278.8 Q222.357 1278.8 225.413 1283.41 Q228.491 1287.99 228.491 1296.74 Q228.491 1305.47 225.413 1310.08 Q222.357 1314.66 216.547 1314.66 Q210.737 1314.66 207.658 1310.08 Q204.602 1305.47 204.602 1296.74 Q204.602 1287.99 207.658 1283.41 Q210.737 1278.8 216.547 1278.8 Z" fill="#000000" fill-rule="evenodd" fill-opacity="1" /><path clip-path="url(#clip300)" d="M145.043 854.672 L167.265 854.672 L167.265 856.663 L154.718 889.232 L149.834 889.232 L161.64 858.608 L145.043 858.608 L145.043 854.672 Z" fill="#000000" fill-rule="evenodd" fill-opacity="1" /><path clip-path="url(#clip300)" d="M176.431 854.672 L194.788 854.672 L194.788 858.608 L180.714 858.608 L180.714 867.08 Q181.732 866.732 182.751 866.57 Q183.769 866.385 184.788 866.385 Q190.575 866.385 193.954 869.557 Q197.334 872.728 197.334 878.144 Q197.334 883.723 193.862 886.825 Q190.39 889.904 184.07 889.904 Q181.894 889.904 179.626 889.533 Q177.38 889.163 174.973 888.422 L174.973 883.723 Q177.056 884.857 179.279 885.413 Q181.501 885.968 183.978 885.968 Q187.982 885.968 190.32 883.862 Q192.658 881.756 192.658 878.144 Q192.658 874.533 190.32 872.427 Q187.982 870.32 183.978 870.32 Q182.103 870.32 180.228 870.737 Q178.376 871.154 176.431 872.033 L176.431 854.672 Z" fill="#000000" fill-rule="evenodd" fill-opacity="1" /><path clip-path="url(#clip300)" d="M216.547 857.751 Q212.936 857.751 211.107 861.316 Q209.302 864.857 209.302 871.987 Q209.302 879.094 211.107 882.658 Q212.936 886.2 216.547 886.2 Q220.181 886.2 221.987 882.658 Q223.815 879.094 223.815 871.987 Q223.815 864.857 221.987 861.316 Q220.181 857.751 216.547 857.751 M216.547 854.047 Q222.357 854.047 225.413 858.654 Q228.491 863.237 228.491 871.987 Q228.491 880.714 225.413 885.32 Q222.357 889.904 216.547 889.904 Q210.737 889.904 207.658 885.32 Q204.602 880.714 204.602 871.987 Q204.602 863.237 207.658 858.654 Q210.737 854.047 216.547 854.047 Z" fill="#000000" fill-rule="evenodd" fill-opacity="1" /><path clip-path="url(#clip300)" d="M116.871 460.54 L124.51 460.54 L124.51 434.174 L116.2 435.841 L116.2 431.581 L124.464 429.915 L129.14 429.915 L129.14 460.54 L136.779 460.54 L136.779 464.475 L116.871 464.475 L116.871 460.54 Z" fill="#000000" fill-rule="evenodd" fill-opacity="1" /><path clip-path="url(#clip300)" d="M156.223 432.994 Q152.612 432.994 150.783 436.558 Q148.978 440.1 148.978 447.23 Q148.978 454.336 150.783 457.901 Q152.612 461.442 156.223 461.442 Q159.857 461.442 161.663 457.901 Q163.492 454.336 163.492 447.23 Q163.492 440.1 161.663 436.558 Q159.857 432.994 156.223 432.994 M156.223 429.29 Q162.033 429.29 165.089 433.896 Q168.167 438.48 168.167 447.23 Q168.167 455.956 165.089 460.563 Q162.033 465.146 156.223 465.146 Q150.413 465.146 147.334 460.563 Q144.279 455.956 144.279 447.23 Q144.279 438.48 147.334 433.896 Q150.413 429.29 156.223 429.29 Z" fill="#000000" fill-rule="evenodd" fill-opacity="1" /><path clip-path="url(#clip300)" d="M186.385 432.994 Q182.774 432.994 180.945 436.558 Q179.14 440.1 179.14 447.23 Q179.14 454.336 180.945 457.901 Q182.774 461.442 186.385 461.442 Q190.019 461.442 191.825 457.901 Q193.653 454.336 193.653 447.23 Q193.653 440.1 191.825 436.558 Q190.019 432.994 186.385 432.994 M186.385 429.29 Q192.195 429.29 195.251 433.896 Q198.329 438.48 198.329 447.23 Q198.329 455.956 195.251 460.563 Q192.195 465.146 186.385 465.146 Q180.575 465.146 177.496 460.563 Q174.441 455.956 174.441 447.23 Q174.441 438.48 177.496 433.896 Q180.575 429.29 186.385 429.29 Z" fill="#000000" fill-rule="evenodd" fill-opacity="1" /><path clip-path="url(#clip300)" d="M216.547 432.994 Q212.936 432.994 211.107 436.558 Q209.302 440.1 209.302 447.23 Q209.302 454.336 211.107 457.901 Q212.936 461.442 216.547 461.442 Q220.181 461.442 221.987 457.901 Q223.815 454.336 223.815 447.23 Q223.815 440.1 221.987 436.558 Q220.181 432.994 216.547 432.994 M216.547 429.29 Q222.357 429.29 225.413 433.896 Q228.491 438.48 228.491 447.23 Q228.491 455.956 225.413 460.563 Q222.357 465.146 216.547 465.146 Q210.737 465.146 207.658 460.563 Q204.602 455.956 204.602 447.23 Q204.602 438.48 207.658 433.896 Q210.737 429.29 216.547 429.29 Z" fill="#000000" fill-rule="evenodd" fill-opacity="1" /><path clip-path="url(#clip300)" d="M12.758 1653.79 L36.4066 1662.51 L36.4066 1645.04 L12.758 1653.79 M6.42416 1657.42 L6.42416 1650.13 L53.9442 1632.02 L53.9442 1638.7 L41.7538 1643.03 L41.7538 1664.45 L53.9442 1668.78 L53.9442 1675.56 L6.42416 1657.42 Z" fill="#000000" fill-rule="evenodd" fill-opacity="1" /><path clip-path="url(#clip300)" d="M18.2962 1633.36 L18.2962 1627.15 L48.215 1616.01 L18.2962 1604.87 L18.2962 1598.66 L53.9442 1612.03 L53.9442 1619.99 L18.2962 1633.36 Z" fill="#000000" fill-rule="evenodd" fill-opacity="1" /><path clip-path="url(#clip300)" d="M34.6561 1560.09 L37.5206 1560.09 L37.5206 1587.01 Q43.5681 1586.63 46.7509 1583.39 Q49.9019 1580.11 49.9019 1574.28 Q49.9019 1570.91 49.0744 1567.76 Q48.2469 1564.58 46.5918 1561.46 L52.1299 1561.46 Q53.4667 1564.61 54.167 1567.92 Q54.8672 1571.23 54.8672 1574.63 Q54.8672 1583.16 49.9019 1588.16 Q44.9367 1593.13 36.4703 1593.13 Q27.7174 1593.13 22.5931 1588.41 Q17.4368 1583.67 17.4368 1575.65 Q17.4368 1568.46 22.0838 1564.29 Q26.6989 1560.09 34.6561 1560.09 M32.9373 1565.94 Q28.1312 1566.01 25.2666 1568.65 Q22.4021 1571.26 22.4021 1575.59 Q22.4021 1580.49 25.1712 1583.45 Q27.9402 1586.38 32.9692 1586.82 L32.9373 1565.94 Z" fill="#000000" fill-rule="evenodd" fill-opacity="1" /><path clip-path="url(#clip300)" d="M23.7707 1529.82 Q23.1978 1530.81 22.9432 1531.98 Q22.6567 1533.13 22.6567 1534.53 Q22.6567 1539.49 25.9032 1542.17 Q29.1179 1544.81 35.1653 1544.81 L53.9442 1544.81 L53.9442 1550.7 L18.2962 1550.7 L18.2962 1544.81 L23.8344 1544.81 Q20.5879 1542.96 19.0283 1540 Q17.4368 1537.04 17.4368 1532.81 Q17.4368 1532.21 17.5323 1531.47 Q17.596 1530.74 17.7551 1529.85 L23.7707 1529.82 Z" fill="#000000" fill-rule="evenodd" fill-opacity="1" /><path clip-path="url(#clip300)" d="M36.0247 1507.48 Q36.0247 1514.57 37.6479 1517.31 Q39.2712 1520.05 43.1861 1520.05 Q46.3053 1520.05 48.1514 1518.01 Q49.9656 1515.94 49.9656 1512.41 Q49.9656 1507.54 46.5281 1504.61 Q43.0588 1501.65 37.3297 1501.65 L36.0247 1501.65 L36.0247 1507.48 M33.6057 1495.79 L53.9442 1495.79 L53.9442 1501.65 L48.5333 1501.65 Q51.7798 1503.66 53.3394 1506.65 Q54.8672 1509.64 54.8672 1513.97 Q54.8672 1519.44 51.8116 1522.69 Q48.7243 1525.9 43.5681 1525.9 Q37.5525 1525.9 34.4969 1521.89 Q31.4414 1517.85 31.4414 1509.86 L31.4414 1501.65 L30.8685 1501.65 Q26.8262 1501.65 24.6301 1504.32 Q22.4021 1506.97 22.4021 1511.77 Q22.4021 1514.83 23.1341 1517.72 Q23.8662 1520.62 25.3303 1523.29 L19.9195 1523.29 Q18.6781 1520.08 18.0734 1517.06 Q17.4368 1514.03 17.4368 1511.17 Q17.4368 1503.43 21.4472 1499.61 Q25.4576 1495.79 33.6057 1495.79 Z" fill="#000000" fill-rule="evenodd" fill-opacity="1" /><path clip-path="url(#clip300)" d="M35.7064 1460.27 Q29.3407 1460.27 25.8396 1462.92 Q22.3384 1465.53 22.3384 1470.27 Q22.3384 1474.98 25.8396 1477.62 Q29.3407 1480.23 35.7064 1480.23 Q42.0403 1480.23 45.5414 1477.62 Q49.0426 1474.98 49.0426 1470.27 Q49.0426 1465.53 45.5414 1462.92 Q42.0403 1460.27 35.7064 1460.27 M49.52 1454.42 Q58.623 1454.42 63.0471 1458.46 Q67.5031 1462.5 67.5031 1470.84 Q67.5031 1473.93 67.0257 1476.67 Q66.5801 1479.4 65.6252 1481.98 L59.9279 1481.98 Q61.3284 1479.4 61.9968 1476.89 Q62.6652 1474.37 62.6652 1471.76 Q62.6652 1466 59.6415 1463.14 Q56.6496 1460.27 50.5703 1460.27 L47.6739 1460.27 Q50.825 1462.09 52.3846 1464.92 Q53.9442 1467.75 53.9442 1471.7 Q53.9442 1478.26 48.9471 1482.27 Q43.95 1486.28 35.7064 1486.28 Q27.431 1486.28 22.4339 1482.27 Q17.4368 1478.26 17.4368 1471.7 Q17.4368 1467.75 18.9964 1464.92 Q20.556 1462.09 23.7071 1460.27 L18.2962 1460.27 L18.2962 1454.42 L49.52 1454.42 Z" fill="#000000" fill-rule="evenodd" fill-opacity="1" /><path clip-path="url(#clip300)" d="M34.6561 1411.86 L37.5206 1411.86 L37.5206 1438.79 Q43.5681 1438.41 46.7509 1435.16 Q49.9019 1431.88 49.9019 1426.06 Q49.9019 1422.68 49.0744 1419.53 Q48.2469 1416.35 46.5918 1413.23 L52.1299 1413.23 Q53.4667 1416.38 54.167 1419.69 Q54.8672 1423 54.8672 1426.41 Q54.8672 1434.94 49.9019 1439.93 Q44.9367 1444.9 36.4703 1444.9 Q27.7174 1444.9 22.5931 1440.19 Q17.4368 1435.45 17.4368 1427.43 Q17.4368 1420.23 22.0838 1416.06 Q26.6989 1411.86 34.6561 1411.86 M32.9373 1417.72 Q28.1312 1417.78 25.2666 1420.42 Q22.4021 1423.03 22.4021 1427.36 Q22.4021 1432.26 25.1712 1435.22 Q27.9402 1438.15 32.9692 1438.6 L32.9373 1417.72 Z" fill="#000000" fill-rule="evenodd" fill-opacity="1" /><path clip-path="url(#clip300)" d="M32.4281 1351.9 L53.9442 1351.9 L53.9442 1357.75 L32.619 1357.75 Q27.5583 1357.75 25.0438 1359.73 Q22.5294 1361.7 22.5294 1365.65 Q22.5294 1370.39 25.5531 1373.13 Q28.5768 1375.86 33.7967 1375.86 L53.9442 1375.86 L53.9442 1381.75 L18.2962 1381.75 L18.2962 1375.86 L23.8344 1375.86 Q20.6197 1373.76 19.0283 1370.93 Q17.4368 1368.07 17.4368 1364.34 Q17.4368 1358.2 21.2563 1355.05 Q25.0438 1351.9 32.4281 1351.9 Z" fill="#000000" fill-rule="evenodd" fill-opacity="1" /><path clip-path="url(#clip300)" d="M34.6561 1309.72 L37.5206 1309.72 L37.5206 1336.65 Q43.5681 1336.27 46.7509 1333.02 Q49.9019 1329.74 49.9019 1323.92 Q49.9019 1320.55 49.0744 1317.4 Q48.2469 1314.21 46.5918 1311.09 L52.1299 1311.09 Q53.4667 1314.24 54.167 1317.55 Q54.8672 1320.86 54.8672 1324.27 Q54.8672 1332.8 49.9019 1337.8 Q44.9367 1342.76 36.4703 1342.76 Q27.7174 1342.76 22.5931 1338.05 Q17.4368 1333.31 17.4368 1325.29 Q17.4368 1318.1 22.0838 1313.93 Q26.6989 1309.72 34.6561 1309.72 M32.9373 1315.58 Q28.1312 1315.64 25.2666 1318.29 Q22.4021 1320.9 22.4021 1325.22 Q22.4021 1330.13 25.1712 1333.09 Q27.9402 1336.01 32.9692 1336.46 L32.9373 1315.58 Z" fill="#000000" fill-rule="evenodd" fill-opacity="1" /><path clip-path="url(#clip300)" d="M18.2962 1303.52 L18.2962 1297.66 L46.1143 1290.34 L18.2962 1283.05 L18.2962 1276.15 L46.1143 1268.82 L18.2962 1261.54 L18.2962 1255.68 L53.9442 1265.01 L53.9442 1271.91 L24.7256 1279.58 L53.9442 1287.29 L53.9442 1294.19 L18.2962 1303.52 Z" fill="#000000" fill-rule="evenodd" fill-opacity="1" /><path clip-path="url(#clip300)" d="M36.152 1200.49 Q29.6908 1200.49 26.0305 1203.16 Q22.3384 1205.8 22.3384 1210.45 Q22.3384 1215.1 26.0305 1217.77 Q29.6908 1220.41 36.152 1220.41 Q42.6132 1220.41 46.3053 1217.77 Q49.9656 1215.1 49.9656 1210.45 Q49.9656 1205.8 46.3053 1203.16 Q42.6132 1200.49 36.152 1200.49 M23.7071 1220.41 Q20.5242 1218.57 18.9964 1215.77 Q17.4368 1212.93 17.4368 1209.02 Q17.4368 1202.53 22.5931 1198.48 Q27.7493 1194.41 36.152 1194.41 Q44.5547 1194.41 49.711 1198.48 Q54.8672 1202.53 54.8672 1209.02 Q54.8672 1212.93 53.3394 1215.77 Q51.7798 1218.57 48.597 1220.41 L53.9442 1220.41 L53.9442 1226.3 L4.41896 1226.3 L4.41896 1220.41 L23.7071 1220.41 Z" fill="#000000" fill-rule="evenodd" fill-opacity="1" /><path clip-path="url(#clip300)" d="M18.2962 1184.7 L18.2962 1178.85 L53.9442 1178.85 L53.9442 1184.7 L18.2962 1184.7 M4.41896 1184.7 L4.41896 1178.85 L11.835 1178.85 L11.835 1184.7 L4.41896 1184.7 Z" fill="#000000" fill-rule="evenodd" fill-opacity="1" /><path clip-path="url(#clip300)" d="M4.41896 1166.81 L4.41896 1160.93 L33.6694 1160.93 L18.2962 1143.45 L18.2962 1135.97 L34.9744 1154.88 L53.9442 1135.18 L53.9442 1142.82 L36.5339 1160.93 L53.9442 1160.93 L53.9442 1166.81 L4.41896 1166.81 Z" fill="#000000" fill-rule="evenodd" fill-opacity="1" /><path clip-path="url(#clip300)" d="M34.6561 1100.67 L37.5206 1100.67 L37.5206 1127.6 Q43.5681 1127.22 46.7509 1123.97 Q49.9019 1120.69 49.9019 1114.87 Q49.9019 1111.5 49.0744 1108.35 Q48.2469 1105.16 46.5918 1102.04 L52.1299 1102.04 Q53.4667 1105.19 54.167 1108.5 Q54.8672 1111.81 54.8672 1115.22 Q54.8672 1123.75 49.9019 1128.75 Q44.9367 1133.71 36.4703 1133.71 Q27.7174 1133.71 22.5931 1129 Q17.4368 1124.26 17.4368 1116.24 Q17.4368 1109.05 22.0838 1104.88 Q26.6989 1100.67 34.6561 1100.67 M32.9373 1106.53 Q28.1312 1106.59 25.2666 1109.24 Q22.4021 1111.85 22.4021 1116.18 Q22.4021 1121.08 25.1712 1124.04 Q27.9402 1126.96 32.9692 1127.41 L32.9373 1106.53 Z" fill="#000000" fill-rule="evenodd" fill-opacity="1" /><path clip-path="url(#clip300)" d="M19.3465 1047.62 L24.8847 1047.62 Q23.6116 1050.1 22.975 1052.77 Q22.3384 1055.45 22.3384 1058.31 Q22.3384 1062.67 23.6752 1064.87 Q25.012 1067.03 27.6856 1067.03 Q29.7226 1067.03 30.9003 1065.47 Q32.0461 1063.91 33.0965 1059.2 L33.5421 1057.2 Q34.8789 1050.96 37.3297 1048.35 Q39.7486 1045.71 44.1091 1045.71 Q49.0744 1045.71 51.9708 1049.65 Q54.8672 1053.57 54.8672 1060.44 Q54.8672 1063.31 54.2943 1066.43 Q53.7532 1069.51 52.6392 1072.95 L46.5918 1072.95 Q48.2787 1069.71 49.138 1066.55 Q49.9656 1063.4 49.9656 1060.32 Q49.9656 1056.18 48.5651 1053.95 Q47.1329 1051.72 44.5547 1051.72 Q42.1676 1051.72 40.8945 1053.35 Q39.6213 1054.94 38.4437 1060.38 L37.9662 1062.42 Q36.8204 1067.86 34.4651 1070.28 Q32.078 1072.7 27.9402 1072.7 Q22.9113 1072.7 20.1741 1069.13 Q17.4368 1065.57 17.4368 1059.01 Q17.4368 1055.76 17.9143 1052.9 Q18.3917 1050.04 19.3465 1047.62 Z" fill="#000000" fill-rule="evenodd" fill-opacity="1" /><path clip-path="url(#clip300)" d="M32.4281 1006.75 L53.9442 1006.75 L53.9442 1012.6 L32.619 1012.6 Q27.5583 1012.6 25.0438 1014.58 Q22.5294 1016.55 22.5294 1020.5 Q22.5294 1025.24 25.5531 1027.98 Q28.5768 1030.72 33.7967 1030.72 L53.9442 1030.72 L53.9442 1036.6 L4.41896 1036.6 L4.41896 1030.72 L23.8344 1030.72 Q20.6197 1028.61 19.0283 1025.78 Q17.4368 1022.92 17.4368 1019.19 Q17.4368 1013.05 21.2563 1009.9 Q25.0438 1006.75 32.4281 1006.75 Z" fill="#000000" fill-rule="evenodd" fill-opacity="1" /><path clip-path="url(#clip300)" d="M36.0247 978.867 Q36.0247 985.965 37.6479 988.702 Q39.2712 991.439 43.1861 991.439 Q46.3053 991.439 48.1514 989.402 Q49.9656 987.333 49.9656 983.8 Q49.9656 978.93 46.5281 976.002 Q43.0588 973.042 37.3297 973.042 L36.0247 973.042 L36.0247 978.867 M33.6057 967.186 L53.9442 967.186 L53.9442 973.042 L48.5333 973.042 Q51.7798 975.047 53.3394 978.039 Q54.8672 981.031 54.8672 985.36 Q54.8672 990.834 51.8116 994.081 Q48.7243 997.295 43.5681 997.295 Q37.5525 997.295 34.4969 993.285 Q31.4414 989.243 31.4414 981.254 L31.4414 973.042 L30.8685 973.042 Q26.8262 973.042 24.6301 975.716 Q22.4021 978.357 22.4021 983.164 Q22.4021 986.219 23.1341 989.116 Q23.8662 992.012 25.3303 994.686 L19.9195 994.686 Q18.6781 991.471 18.0734 988.447 Q17.4368 985.423 17.4368 982.559 Q17.4368 974.825 21.4472 971.005 Q25.4576 967.186 33.6057 967.186 Z" fill="#000000" fill-rule="evenodd" fill-opacity="1" /><path clip-path="url(#clip300)" d="M23.7707 934.466 Q23.1978 935.453 22.9432 936.63 Q22.6567 937.776 22.6567 939.177 Q22.6567 944.142 25.9032 946.815 Q29.1179 949.457 35.1653 949.457 L53.9442 949.457 L53.9442 955.345 L18.2962 955.345 L18.2962 949.457 L23.8344 949.457 Q20.5879 947.611 19.0283 944.651 Q17.4368 941.691 17.4368 937.458 Q17.4368 936.853 17.5323 936.121 Q17.596 935.389 17.7551 934.498 L23.7707 934.466 Z" fill="#000000" fill-rule="evenodd" fill-opacity="1" /><path clip-path="url(#clip300)" d="M34.6561 899.264 L37.5206 899.264 L37.5206 926.191 Q43.5681 925.809 46.7509 922.562 Q49.9019 919.284 49.9019 913.459 Q49.9019 910.085 49.0744 906.934 Q48.2469 903.751 46.5918 900.632 L52.1299 900.632 Q53.4667 903.783 54.167 907.093 Q54.8672 910.404 54.8672 913.809 Q54.8672 922.339 49.9019 927.336 Q44.9367 932.302 36.4703 932.302 Q27.7174 932.302 22.5931 927.591 Q17.4368 922.849 17.4368 914.828 Q17.4368 907.634 22.0838 903.465 Q26.6989 899.264 34.6561 899.264 M32.9373 905.12 Q28.1312 905.184 25.2666 907.825 Q22.4021 910.435 22.4021 914.764 Q22.4021 919.666 25.1712 922.626 Q27.9402 925.554 32.9692 926 L32.9373 905.12 Z" fill="#000000" fill-rule="evenodd" fill-opacity="1" /><path clip-path="url(#clip300)" d="M19.6648 843.277 L25.1393 843.277 Q23.7707 845.76 23.1023 848.274 Q22.4021 850.757 22.4021 853.303 Q22.4021 859 26.0305 862.152 Q29.6272 865.303 36.152 865.303 Q42.6769 865.303 46.3053 862.152 Q49.9019 859 49.9019 853.303 Q49.9019 850.757 49.2335 848.274 Q48.5333 845.76 47.1647 843.277 L52.5755 843.277 Q53.7214 845.728 54.2943 848.37 Q54.8672 850.98 54.8672 853.94 Q54.8672 861.992 49.8064 866.735 Q44.7457 871.477 36.152 871.477 Q27.431 871.477 22.4339 866.703 Q17.4368 861.897 17.4368 853.558 Q17.4368 850.852 18.0097 848.274 Q18.5508 845.696 19.6648 843.277 Z" fill="#000000" fill-rule="evenodd" fill-opacity="1" /><path clip-path="url(#clip300)" d="M22.4021 819.278 Q22.4021 823.989 26.0942 826.726 Q29.7545 829.464 36.152 829.464 Q42.5495 829.464 46.2417 826.758 Q49.9019 824.021 49.9019 819.278 Q49.9019 814.6 46.2098 811.862 Q42.5177 809.125 36.152 809.125 Q29.8181 809.125 26.126 811.862 Q22.4021 814.6 22.4021 819.278 M17.4368 819.278 Q17.4368 811.64 22.4021 807.279 Q27.3673 802.919 36.152 802.919 Q44.9049 802.919 49.9019 807.279 Q54.8672 811.64 54.8672 819.278 Q54.8672 826.949 49.9019 831.31 Q44.9049 835.638 36.152 835.638 Q27.3673 835.638 22.4021 831.31 Q17.4368 826.949 17.4368 819.278 Z" fill="#000000" fill-rule="evenodd" fill-opacity="1" /><path clip-path="url(#clip300)" d="M39.8759 793.816 L18.2962 793.816 L18.2962 787.959 L39.6531 787.959 Q44.7139 787.959 47.2602 785.986 Q49.7746 784.012 49.7746 780.066 Q49.7746 775.323 46.7509 772.586 Q43.7272 769.817 38.5073 769.817 L18.2962 769.817 L18.2962 763.96 L53.9442 763.96 L53.9442 769.817 L48.4696 769.817 Q51.7162 771.949 53.3076 774.782 Q54.8672 777.583 54.8672 781.307 Q54.8672 787.45 51.0478 790.633 Q47.2283 793.816 39.8759 793.816 M17.4368 779.079 L17.4368 779.079 Z" fill="#000000" fill-rule="evenodd" fill-opacity="1" /><path clip-path="url(#clip300)" d="M32.4281 722.265 L53.9442 722.265 L53.9442 728.122 L32.619 728.122 Q27.5583 728.122 25.0438 730.095 Q22.5294 732.068 22.5294 736.015 Q22.5294 740.757 25.5531 743.495 Q28.5768 746.232 33.7967 746.232 L53.9442 746.232 L53.9442 752.12 L18.2962 752.12 L18.2962 746.232 L23.8344 746.232 Q20.6197 744.131 19.0283 741.299 Q17.4368 738.434 17.4368 734.71 Q17.4368 728.567 21.2563 725.416 Q25.0438 722.265 32.4281 722.265 Z" fill="#000000" fill-rule="evenodd" fill-opacity="1" /><path clip-path="url(#clip300)" d="M8.17473 704.791 L18.2962 704.791 L18.2962 692.728 L22.8477 692.728 L22.8477 704.791 L42.1994 704.791 Q46.5599 704.791 47.8013 703.614 Q49.0426 702.404 49.0426 698.744 L49.0426 692.728 L53.9442 692.728 L53.9442 698.744 Q53.9442 705.523 51.4297 708.101 Q48.8834 710.68 42.1994 710.68 L22.8477 710.68 L22.8477 714.976 L18.2962 714.976 L18.2962 710.68 L8.17473 710.68 L8.17473 704.791 Z" fill="#000000" fill-rule="evenodd" fill-opacity="1" /><path clip-path="url(#clip300)" d="M19.3465 662.3 L24.8847 662.3 Q23.6116 664.783 22.975 667.456 Q22.3384 670.13 22.3384 672.995 Q22.3384 677.355 23.6752 679.551 Q25.012 681.716 27.6856 681.716 Q29.7226 681.716 30.9003 680.156 Q32.0461 678.596 33.0965 673.886 L33.5421 671.881 Q34.8789 665.642 37.3297 663.032 Q39.7486 660.39 44.1091 660.39 Q49.0744 660.39 51.9708 664.337 Q54.8672 668.252 54.8672 675.127 Q54.8672 677.992 54.2943 681.111 Q53.7532 684.198 52.6392 687.636 L46.5918 687.636 Q48.2787 684.389 49.138 681.238 Q49.9656 678.087 49.9656 675 Q49.9656 670.862 48.5651 668.634 Q47.1329 666.406 44.5547 666.406 Q42.1676 666.406 40.8945 668.029 Q39.6213 669.621 38.4437 675.063 L37.9662 677.1 Q36.8204 682.543 34.4651 684.962 Q32.078 687.381 27.9402 687.381 Q22.9113 687.381 20.1741 683.816 Q17.4368 680.251 17.4368 673.695 Q17.4368 670.448 17.9143 667.584 Q18.3917 664.719 19.3465 662.3 Z" fill="#000000" fill-rule="evenodd" fill-opacity="1" /><path clip-path="url(#clip300)" d="M580.229 18.8205 L580.229 65.8515 L590.113 65.8515 Q602.63 65.8515 608.423 60.1802 Q614.256 54.509 614.256 42.2752 Q614.256 30.1225 608.423 24.4918 Q602.63 18.8205 590.113 18.8205 L580.229 18.8205 M572.046 12.096 L588.857 12.096 Q606.438 12.096 614.661 19.4281 Q622.885 26.7198 622.885 42.2752 Q622.885 57.9117 614.621 65.2439 Q606.357 72.576 588.857 72.576 L572.046 72.576 L572.046 12.096 Z" fill="#000000" fill-rule="evenodd" fill-opacity="1" /><path clip-path="url(#clip300)" d="M635.604 27.2059 L643.058 27.2059 L643.058 72.576 L635.604 72.576 L635.604 27.2059 M635.604 9.54393 L643.058 9.54393 L643.058 18.9825 L635.604 18.9825 L635.604 9.54393 Z" fill="#000000" fill-rule="evenodd" fill-opacity="1" /><path clip-path="url(#clip300)" d="M687.578 28.5427 L687.578 35.5912 Q684.418 33.9709 681.015 33.1607 Q677.612 32.3505 673.967 32.3505 Q668.417 32.3505 665.622 34.0519 Q662.867 35.7533 662.867 39.156 Q662.867 41.7486 664.852 43.2475 Q666.837 44.7058 672.832 46.0426 L675.384 46.6097 Q683.324 48.3111 686.646 51.4303 Q690.008 54.509 690.008 60.0587 Q690.008 66.3781 684.985 70.0644 Q680.002 73.7508 671.252 73.7508 Q667.607 73.7508 663.637 73.0216 Q659.707 72.3329 655.332 70.9151 L655.332 63.2184 Q659.464 65.3654 663.475 66.4591 Q667.485 67.5124 671.414 67.5124 Q676.681 67.5124 679.516 65.73 Q682.352 63.9071 682.352 60.6258 Q682.352 57.5877 680.286 55.9673 Q678.26 54.3469 671.333 52.8481 L668.741 52.2405 Q661.814 50.7821 658.735 47.7845 Q655.656 44.7463 655.656 39.4801 Q655.656 33.0797 660.193 29.5959 Q664.73 26.1121 673.075 26.1121 Q677.207 26.1121 680.853 26.7198 Q684.499 27.3274 687.578 28.5427 Z" fill="#000000" fill-rule="evenodd" fill-opacity="1" /><path clip-path="url(#clip300)" d="M709.25 14.324 L709.25 27.2059 L724.603 27.2059 L724.603 32.9987 L709.25 32.9987 L709.25 57.6282 Q709.25 63.1779 710.749 64.7578 Q712.288 66.3376 716.947 66.3376 L724.603 66.3376 L724.603 72.576 L716.947 72.576 Q708.318 72.576 705.037 69.3758 Q701.756 66.1351 701.756 57.6282 L701.756 32.9987 L696.287 32.9987 L696.287 27.2059 L701.756 27.2059 L701.756 14.324 L709.25 14.324 Z" fill="#000000" fill-rule="evenodd" fill-opacity="1" /><path clip-path="url(#clip300)" d="M760.696 34.1734 Q759.441 33.4443 757.942 33.1202 Q756.483 32.7556 754.701 32.7556 Q748.382 32.7556 744.979 36.8875 Q741.617 40.9789 741.617 48.6757 L741.617 72.576 L734.122 72.576 L734.122 27.2059 L741.617 27.2059 L741.617 34.2544 Q743.966 30.1225 747.733 28.1376 Q751.501 26.1121 756.889 26.1121 Q757.658 26.1121 758.59 26.2337 Q759.522 26.3147 760.656 26.5172 L760.696 34.1734 Z" fill="#000000" fill-rule="evenodd" fill-opacity="1" /><path clip-path="url(#clip300)" d="M768.515 27.2059 L775.968 27.2059 L775.968 72.576 L768.515 72.576 L768.515 27.2059 M768.515 9.54393 L775.968 9.54393 L775.968 18.9825 L768.515 18.9825 L768.515 9.54393 Z" fill="#000000" fill-rule="evenodd" fill-opacity="1" /><path clip-path="url(#clip300)" d="M824.134 49.9314 Q824.134 41.7081 820.731 37.0496 Q817.369 32.3505 811.454 32.3505 Q805.54 32.3505 802.137 37.0496 Q798.775 41.7081 798.775 49.9314 Q798.775 58.1548 802.137 62.8538 Q805.54 67.5124 811.454 67.5124 Q817.369 67.5124 820.731 62.8538 Q824.134 58.1548 824.134 49.9314 M798.775 34.0924 Q801.124 30.0415 804.689 28.0971 Q808.295 26.1121 813.277 26.1121 Q821.541 26.1121 826.686 32.6746 Q831.871 39.2371 831.871 49.9314 Q831.871 60.6258 826.686 67.1883 Q821.541 73.7508 813.277 73.7508 Q808.295 73.7508 804.689 71.8063 Q801.124 69.8214 798.775 65.7705 L798.775 72.576 L791.281 72.576 L791.281 9.54393 L798.775 9.54393 L798.775 34.0924 Z" fill="#000000" fill-rule="evenodd" fill-opacity="1" /><path clip-path="url(#clip300)" d="M843.456 54.671 L843.456 27.2059 L850.91 27.2059 L850.91 54.3874 Q850.91 60.8284 853.422 64.0691 Q855.933 67.2693 860.956 67.2693 Q866.992 67.2693 870.476 63.421 Q874 59.5726 874 52.9291 L874 27.2059 L881.454 27.2059 L881.454 72.576 L874 72.576 L874 65.6084 Q871.286 69.7404 867.681 71.7658 Q864.116 73.7508 859.376 73.7508 Q851.558 73.7508 847.507 68.8897 Q843.456 64.0286 843.456 54.671 M862.212 26.1121 L862.212 26.1121 Z" fill="#000000" fill-rule="evenodd" fill-opacity="1" /><path clip-path="url(#clip300)" d="M904.179 14.324 L904.179 27.2059 L919.532 27.2059 L919.532 32.9987 L904.179 32.9987 L904.179 57.6282 Q904.179 63.1779 905.678 64.7578 Q907.218 66.3376 911.876 66.3376 L919.532 66.3376 L919.532 72.576 L911.876 72.576 Q903.248 72.576 899.966 69.3758 Q896.685 66.1351 896.685 57.6282 L896.685 32.9987 L891.217 32.9987 L891.217 27.2059 L896.685 27.2059 L896.685 14.324 L904.179 14.324 Z" fill="#000000" fill-rule="evenodd" fill-opacity="1" /><path clip-path="url(#clip300)" d="M929.336 27.2059 L936.789 27.2059 L936.789 72.576 L929.336 72.576 L929.336 27.2059 M929.336 9.54393 L936.789 9.54393 L936.789 18.9825 L929.336 18.9825 L929.336 9.54393 Z" fill="#000000" fill-rule="evenodd" fill-opacity="1" /><path clip-path="url(#clip300)" d="M969.966 32.4315 Q963.971 32.4315 960.487 37.1306 Q957.003 41.7891 957.003 49.9314 Q957.003 58.0738 960.446 62.7728 Q963.93 67.4314 969.966 67.4314 Q975.921 67.4314 979.405 62.7323 Q982.888 58.0333 982.888 49.9314 Q982.888 41.8701 979.405 37.1711 Q975.921 32.4315 969.966 32.4315 M969.966 26.1121 Q979.688 26.1121 985.238 32.4315 Q990.788 38.7509 990.788 49.9314 Q990.788 61.0714 985.238 67.4314 Q979.688 73.7508 969.966 73.7508 Q960.203 73.7508 954.654 67.4314 Q949.144 61.0714 949.144 49.9314 Q949.144 38.7509 954.654 32.4315 Q960.203 26.1121 969.966 26.1121 Z" fill="#000000" fill-rule="evenodd" fill-opacity="1" /><path clip-path="url(#clip300)" d="M1040.86 45.1919 L1040.86 72.576 L1033.4 72.576 L1033.4 45.4349 Q1033.4 38.994 1030.89 35.7938 Q1028.38 32.5936 1023.36 32.5936 Q1017.32 32.5936 1013.84 36.4419 Q1010.35 40.2903 1010.35 46.9338 L1010.35 72.576 L1002.86 72.576 L1002.86 27.2059 L1010.35 27.2059 L1010.35 34.2544 Q1013.03 30.163 1016.63 28.1376 Q1020.28 26.1121 1025.02 26.1121 Q1032.84 26.1121 1036.85 30.9732 Q1040.86 35.7938 1040.86 45.1919 Z" fill="#000000" fill-rule="evenodd" fill-opacity="1" /><path clip-path="url(#clip300)" d="M1099.68 32.4315 Q1093.68 32.4315 1090.2 37.1306 Q1086.71 41.7891 1086.71 49.9314 Q1086.71 58.0738 1090.16 62.7728 Q1093.64 67.4314 1099.68 67.4314 Q1105.63 67.4314 1109.11 62.7323 Q1112.6 58.0333 1112.6 49.9314 Q1112.6 41.8701 1109.11 37.1711 Q1105.63 32.4315 1099.68 32.4315 M1099.68 26.1121 Q1109.4 26.1121 1114.95 32.4315 Q1120.5 38.7509 1120.5 49.9314 Q1120.5 61.0714 1114.95 67.4314 Q1109.4 73.7508 1099.68 73.7508 Q1089.91 73.7508 1084.36 67.4314 Q1078.85 61.0714 1078.85 49.9314 Q1078.85 38.7509 1084.36 32.4315 Q1089.91 26.1121 1099.68 26.1121 Z" fill="#000000" fill-rule="evenodd" fill-opacity="1" /><path clip-path="url(#clip300)" d="M1155.82 9.54393 L1155.82 15.7418 L1148.69 15.7418 Q1144.68 15.7418 1143.1 17.3622 Q1141.56 18.9825 1141.56 23.1955 L1141.56 27.2059 L1153.84 27.2059 L1153.84 32.9987 L1141.56 32.9987 L1141.56 72.576 L1134.07 72.576 L1134.07 32.9987 L1126.94 32.9987 L1126.94 27.2059 L1134.07 27.2059 L1134.07 24.0462 Q1134.07 16.471 1137.59 13.0277 Q1141.12 9.54393 1148.77 9.54393 L1155.82 9.54393 Z" fill="#000000" fill-rule="evenodd" fill-opacity="1" /><path clip-path="url(#clip300)" d="M1226.15 45.1919 L1226.15 72.576 L1218.69 72.576 L1218.69 45.4349 Q1218.69 38.994 1216.18 35.7938 Q1213.67 32.5936 1208.65 32.5936 Q1202.61 32.5936 1199.13 36.4419 Q1195.64 40.2903 1195.64 46.9338 L1195.64 72.576 L1188.15 72.576 L1188.15 27.2059 L1195.64 27.2059 L1195.64 34.2544 Q1198.32 30.163 1201.92 28.1376 Q1205.57 26.1121 1210.31 26.1121 Q1218.12 26.1121 1222.13 30.9732 Q1226.15 35.7938 1226.15 45.1919 Z" fill="#000000" fill-rule="evenodd" fill-opacity="1" /><path clip-path="url(#clip300)" d="M1279.82 48.0275 L1279.82 51.6733 L1245.55 51.6733 Q1246.04 59.3701 1250.17 63.421 Q1254.34 67.4314 1261.75 67.4314 Q1266.05 67.4314 1270.06 66.3781 Q1274.11 65.3249 1278.08 63.2184 L1278.08 70.267 Q1274.07 71.9684 1269.85 72.8596 Q1265.64 73.7508 1261.31 73.7508 Q1250.45 73.7508 1244.09 67.4314 Q1237.77 61.1119 1237.77 50.3365 Q1237.77 39.1965 1243.77 32.6746 Q1249.8 26.1121 1260.01 26.1121 Q1269.17 26.1121 1274.47 32.0264 Q1279.82 37.9003 1279.82 48.0275 M1272.37 45.84 Q1272.29 39.7232 1268.92 36.0774 Q1265.6 32.4315 1260.09 32.4315 Q1253.85 32.4315 1250.09 35.9558 Q1246.36 39.4801 1245.79 45.8805 L1272.37 45.84 Z" fill="#000000" fill-rule="evenodd" fill-opacity="1" /><path clip-path="url(#clip300)" d="M1287.72 27.2059 L1295.17 27.2059 L1304.49 62.6108 L1313.77 27.2059 L1322.56 27.2059 L1331.87 62.6108 L1341.15 27.2059 L1348.6 27.2059 L1336.73 72.576 L1327.94 72.576 L1318.18 35.3887 L1308.38 72.576 L1299.59 72.576 L1287.72 27.2059 Z" fill="#000000" fill-rule="evenodd" fill-opacity="1" /><path clip-path="url(#clip300)" d="M1418.85 49.9314 Q1418.85 41.7081 1415.44 37.0496 Q1412.08 32.3505 1406.17 32.3505 Q1400.25 32.3505 1396.85 37.0496 Q1393.49 41.7081 1393.49 49.9314 Q1393.49 58.1548 1396.85 62.8538 Q1400.25 67.5124 1406.17 67.5124 Q1412.08 67.5124 1415.44 62.8538 Q1418.85 58.1548 1418.85 49.9314 M1393.49 34.0924 Q1395.84 30.0415 1399.4 28.0971 Q1403.01 26.1121 1407.99 26.1121 Q1416.25 26.1121 1421.4 32.6746 Q1426.58 39.2371 1426.58 49.9314 Q1426.58 60.6258 1421.4 67.1883 Q1416.25 73.7508 1407.99 73.7508 Q1403.01 73.7508 1399.4 71.8063 Q1395.84 69.8214 1393.49 65.7705 L1393.49 72.576 L1385.99 72.576 L1385.99 9.54393 L1393.49 9.54393 L1393.49 34.0924 Z" fill="#000000" fill-rule="evenodd" fill-opacity="1" /><path clip-path="url(#clip300)" d="M1438.94 27.2059 L1446.39 27.2059 L1446.39 72.576 L1438.94 72.576 L1438.94 27.2059 M1438.94 9.54393 L1446.39 9.54393 L1446.39 18.9825 L1438.94 18.9825 L1438.94 9.54393 Z" fill="#000000" fill-rule="evenodd" fill-opacity="1" /><path clip-path="url(#clip300)" d="M1461.71 9.54393 L1469.2 9.54393 L1469.2 46.7717 L1491.44 27.2059 L1500.96 27.2059 L1476.9 48.4326 L1501.97 72.576 L1492.25 72.576 L1469.2 50.4176 L1469.2 72.576 L1461.71 72.576 L1461.71 9.54393 Z" fill="#000000" fill-rule="evenodd" fill-opacity="1" /><path clip-path="url(#clip300)" d="M1545.88 48.0275 L1545.88 51.6733 L1511.61 51.6733 Q1512.1 59.3701 1516.23 63.421 Q1520.4 67.4314 1527.82 67.4314 Q1532.11 67.4314 1536.12 66.3781 Q1540.17 65.3249 1544.14 63.2184 L1544.14 70.267 Q1540.13 71.9684 1535.92 72.8596 Q1531.7 73.7508 1527.37 73.7508 Q1516.51 73.7508 1510.15 67.4314 Q1503.83 61.1119 1503.83 50.3365 Q1503.83 39.1965 1509.83 32.6746 Q1515.87 26.1121 1526.07 26.1121 Q1535.23 26.1121 1540.54 32.0264 Q1545.88 37.9003 1545.88 48.0275 M1538.43 45.84 Q1538.35 39.7232 1534.99 36.0774 Q1531.66 32.4315 1526.16 32.4315 Q1519.92 32.4315 1516.15 35.9558 Q1512.42 39.4801 1511.86 45.8805 L1538.43 45.84 Z" fill="#000000" fill-rule="evenodd" fill-opacity="1" /><path clip-path="url(#clip300)" d="M1613.41 28.5427 L1613.41 35.5912 Q1610.25 33.9709 1606.85 33.1607 Q1603.45 32.3505 1599.8 32.3505 Q1594.25 32.3505 1591.46 34.0519 Q1588.7 35.7533 1588.7 39.156 Q1588.7 41.7486 1590.69 43.2475 Q1592.67 44.7058 1598.67 46.0426 L1601.22 46.6097 Q1609.16 48.3111 1612.48 51.4303 Q1615.84 54.509 1615.84 60.0587 Q1615.84 66.3781 1610.82 70.0644 Q1605.84 73.7508 1597.09 73.7508 Q1593.44 73.7508 1589.47 73.0216 Q1585.54 72.3329 1581.17 70.9151 L1581.17 63.2184 Q1585.3 65.3654 1589.31 66.4591 Q1593.32 67.5124 1597.25 67.5124 Q1602.51 67.5124 1605.35 65.73 Q1608.19 63.9071 1608.19 60.6258 Q1608.19 57.5877 1606.12 55.9673 Q1604.09 54.3469 1597.17 52.8481 L1594.58 52.2405 Q1587.65 50.7821 1584.57 47.7845 Q1581.49 44.7463 1581.49 39.4801 Q1581.49 33.0797 1586.03 29.5959 Q1590.56 26.1121 1598.91 26.1121 Q1603.04 26.1121 1606.69 26.7198 Q1610.33 27.3274 1613.41 28.5427 Z" fill="#000000" fill-rule="evenodd" fill-opacity="1" /><path clip-path="url(#clip300)" d="M1665.43 45.1919 L1665.43 72.576 L1657.97 72.576 L1657.97 45.4349 Q1657.97 38.994 1655.46 35.7938 Q1652.95 32.5936 1647.93 32.5936 Q1641.89 32.5936 1638.41 36.4419 Q1634.92 40.2903 1634.92 46.9338 L1634.92 72.576 L1627.43 72.576 L1627.43 9.54393 L1634.92 9.54393 L1634.92 34.2544 Q1637.6 30.163 1641.2 28.1376 Q1644.85 26.1121 1649.59 26.1121 Q1657.4 26.1121 1661.41 30.9732 Q1665.43 35.7938 1665.43 45.1919 Z" fill="#000000" fill-rule="evenodd" fill-opacity="1" /><path clip-path="url(#clip300)" d="M1700.91 49.7694 Q1691.88 49.7694 1688.39 51.8354 Q1684.91 53.9013 1684.91 58.8839 Q1684.91 62.8538 1687.5 65.2034 Q1690.14 67.5124 1694.63 67.5124 Q1700.83 67.5124 1704.56 63.1374 Q1708.32 58.7219 1708.32 51.4303 L1708.32 49.7694 L1700.91 49.7694 M1715.78 46.6907 L1715.78 72.576 L1708.32 72.576 L1708.32 65.6895 Q1705.77 69.8214 1701.96 71.8063 Q1698.16 73.7508 1692.65 73.7508 Q1685.68 73.7508 1681.55 69.8619 Q1677.46 65.9325 1677.46 59.3701 Q1677.46 51.7138 1682.56 47.825 Q1687.71 43.9361 1697.87 43.9361 L1708.32 43.9361 L1708.32 43.2069 Q1708.32 38.0623 1704.92 35.2672 Q1701.56 32.4315 1695.44 32.4315 Q1691.55 32.4315 1687.87 33.3632 Q1684.18 34.295 1680.78 36.1584 L1680.78 29.2718 Q1684.87 27.692 1688.72 26.9223 Q1692.57 26.1121 1696.21 26.1121 Q1706.06 26.1121 1710.92 31.2163 Q1715.78 36.3204 1715.78 46.6907 Z" fill="#000000" fill-rule="evenodd" fill-opacity="1" /><path clip-path="url(#clip300)" d="M1757.42 34.1734 Q1756.17 33.4443 1754.67 33.1202 Q1753.21 32.7556 1751.43 32.7556 Q1745.11 32.7556 1741.7 36.8875 Q1738.34 40.9789 1738.34 48.6757 L1738.34 72.576 L1730.85 72.576 L1730.85 27.2059 L1738.34 27.2059 L1738.34 34.2544 Q1740.69 30.1225 1744.46 28.1376 Q1748.23 26.1121 1753.61 26.1121 Q1754.38 26.1121 1755.31 26.2337 Q1756.25 26.3147 1757.38 26.5172 L1757.42 34.1734 Z" fill="#000000" fill-rule="evenodd" fill-opacity="1" /><path clip-path="url(#clip300)" d="M1802.22 48.0275 L1802.22 51.6733 L1767.95 51.6733 Q1768.44 59.3701 1772.57 63.421 Q1776.74 67.4314 1784.16 67.4314 Q1788.45 67.4314 1792.46 66.3781 Q1796.51 65.3249 1800.48 63.2184 L1800.48 70.267 Q1796.47 71.9684 1792.26 72.8596 Q1788.05 73.7508 1783.71 73.7508 Q1772.86 73.7508 1766.5 67.4314 Q1760.18 61.1119 1760.18 50.3365 Q1760.18 39.1965 1766.17 32.6746 Q1772.21 26.1121 1782.42 26.1121 Q1791.57 26.1121 1796.88 32.0264 Q1802.22 37.9003 1802.22 48.0275 M1794.77 45.84 Q1794.69 39.7232 1791.33 36.0774 Q1788.01 32.4315 1782.5 32.4315 Q1776.26 32.4315 1772.49 35.9558 Q1768.76 39.4801 1768.2 45.8805 L1794.77 45.84 Z" fill="#000000" fill-rule="evenodd" fill-opacity="1" /><path clip-path="url(#clip300)" d="M1843.38 28.5427 L1843.38 35.5912 Q1840.22 33.9709 1836.82 33.1607 Q1833.42 32.3505 1829.77 32.3505 Q1824.22 32.3505 1821.43 34.0519 Q1818.67 35.7533 1818.67 39.156 Q1818.67 41.7486 1820.66 43.2475 Q1822.64 44.7058 1828.64 46.0426 L1831.19 46.6097 Q1839.13 48.3111 1842.45 51.4303 Q1845.81 54.509 1845.81 60.0587 Q1845.81 66.3781 1840.79 70.0644 Q1835.81 73.7508 1827.06 73.7508 Q1823.41 73.7508 1819.44 73.0216 Q1815.51 72.3329 1811.14 70.9151 L1811.14 63.2184 Q1815.27 65.3654 1819.28 66.4591 Q1823.29 67.5124 1827.22 67.5124 Q1832.48 67.5124 1835.32 65.73 Q1838.16 63.9071 1838.16 60.6258 Q1838.16 57.5877 1836.09 55.9673 Q1834.06 54.3469 1827.14 52.8481 L1824.54 52.2405 Q1817.62 50.7821 1814.54 47.7845 Q1811.46 44.7463 1811.46 39.4801 Q1811.46 33.0797 1816 29.5959 Q1820.53 26.1121 1828.88 26.1121 Q1833.01 26.1121 1836.66 26.7198 Q1840.3 27.3274 1843.38 28.5427 Z" fill="#000000" fill-rule="evenodd" fill-opacity="1" /><path clip-path="url(#clip300)" d="M1884.05 27.2059 L1891.51 27.2059 L1891.51 72.576 L1884.05 72.576 L1884.05 27.2059 M1884.05 9.54393 L1891.51 9.54393 L1891.51 18.9825 L1884.05 18.9825 L1884.05 9.54393 Z" fill="#000000" fill-rule="evenodd" fill-opacity="1" /><path clip-path="url(#clip300)" d="M1944.82 45.1919 L1944.82 72.576 L1937.36 72.576 L1937.36 45.4349 Q1937.36 38.994 1934.85 35.7938 Q1932.34 32.5936 1927.32 32.5936 Q1921.28 32.5936 1917.8 36.4419 Q1914.31 40.2903 1914.31 46.9338 L1914.31 72.576 L1906.82 72.576 L1906.82 27.2059 L1914.31 27.2059 L1914.31 34.2544 Q1916.99 30.163 1920.59 28.1376 Q1924.24 26.1121 1928.98 26.1121 Q1936.8 26.1121 1940.81 30.9732 Q1944.82 35.7938 1944.82 45.1919 Z" fill="#000000" fill-rule="evenodd" fill-opacity="1" /><path clip-path="url(#clip300)" d="M2023.77 45.1919 L2023.77 72.576 L2016.31 72.576 L2016.31 45.4349 Q2016.31 38.994 2013.8 35.7938 Q2011.29 32.5936 2006.27 32.5936 Q2000.23 32.5936 1996.75 36.4419 Q1993.27 40.2903 1993.27 46.9338 L1993.27 72.576 L1985.77 72.576 L1985.77 9.54393 L1993.27 9.54393 L1993.27 34.2544 Q1995.94 30.163 1999.54 28.1376 Q2003.19 26.1121 2007.93 26.1121 Q2015.75 26.1121 2019.76 30.9732 Q2023.77 35.7938 2023.77 45.1919 Z" fill="#000000" fill-rule="evenodd" fill-opacity="1" /><path clip-path="url(#clip300)" d="M2056.22 32.4315 Q2050.22 32.4315 2046.74 37.1306 Q2043.25 41.7891 2043.25 49.9314 Q2043.25 58.0738 2046.7 62.7728 Q2050.18 67.4314 2056.22 67.4314 Q2062.17 67.4314 2065.65 62.7323 Q2069.14 58.0333 2069.14 49.9314 Q2069.14 41.8701 2065.65 37.1711 Q2062.17 32.4315 2056.22 32.4315 M2056.22 26.1121 Q2065.94 26.1121 2071.49 32.4315 Q2077.04 38.7509 2077.04 49.9314 Q2077.04 61.0714 2071.49 67.4314 Q2065.94 73.7508 2056.22 73.7508 Q2046.45 73.7508 2040.9 67.4314 Q2035.39 61.0714 2035.39 49.9314 Q2035.39 38.7509 2040.9 32.4315 Q2046.45 26.1121 2056.22 26.1121 Z" fill="#000000" fill-rule="evenodd" fill-opacity="1" /><path clip-path="url(#clip300)" d="M2089.39 9.54393 L2096.85 9.54393 L2096.85 72.576 L2089.39 72.576 L2089.39 9.54393 Z" fill="#000000" fill-rule="evenodd" fill-opacity="1" /><path clip-path="url(#clip300)" d="M2112.44 27.2059 L2119.9 27.2059 L2119.9 72.576 L2112.44 72.576 L2112.44 27.2059 M2112.44 9.54393 L2119.9 9.54393 L2119.9 18.9825 L2112.44 18.9825 L2112.44 9.54393 Z" fill="#000000" fill-rule="evenodd" fill-opacity="1" /><path clip-path="url(#clip300)" d="M2165.35 34.0924 L2165.35 9.54393 L2172.8 9.54393 L2172.8 72.576 L2165.35 72.576 L2165.35 65.7705 Q2163 69.8214 2159.39 71.8063 Q2155.83 73.7508 2150.8 73.7508 Q2142.58 73.7508 2137.4 67.1883 Q2132.25 60.6258 2132.25 49.9314 Q2132.25 39.2371 2137.4 32.6746 Q2142.58 26.1121 2150.8 26.1121 Q2155.83 26.1121 2159.39 28.0971 Q2163 30.0415 2165.35 34.0924 M2139.95 49.9314 Q2139.95 58.1548 2143.31 62.8538 Q2146.71 67.5124 2152.63 67.5124 Q2158.54 67.5124 2161.94 62.8538 Q2165.35 58.1548 2165.35 49.9314 Q2165.35 41.7081 2161.94 37.0496 Q2158.54 32.3505 2152.63 32.3505 Q2146.71 32.3505 2143.31 37.0496 Q2139.95 41.7081 2139.95 49.9314 Z" fill="#000000" fill-rule="evenodd" fill-opacity="1" /><path clip-path="url(#clip300)" d="M2208.77 49.7694 Q2199.74 49.7694 2196.26 51.8354 Q2192.77 53.9013 2192.77 58.8839 Q2192.77 62.8538 2195.36 65.2034 Q2198 67.5124 2202.49 67.5124 Q2208.69 67.5124 2212.42 63.1374 Q2216.19 58.7219 2216.19 51.4303 L2216.19 49.7694 L2208.77 49.7694 M2223.64 46.6907 L2223.64 72.576 L2216.19 72.576 L2216.19 65.6895 Q2213.63 69.8214 2209.83 71.8063 Q2206.02 73.7508 2200.51 73.7508 Q2193.54 73.7508 2189.41 69.8619 Q2185.32 65.9325 2185.32 59.3701 Q2185.32 51.7138 2190.42 47.825 Q2195.57 43.9361 2205.73 43.9361 L2216.19 43.9361 L2216.19 43.2069 Q2216.19 38.0623 2212.78 35.2672 Q2209.42 32.4315 2203.3 32.4315 Q2199.42 32.4315 2195.73 33.3632 Q2192.04 34.295 2188.64 36.1584 L2188.64 29.2718 Q2192.73 27.692 2196.58 26.9223 Q2200.43 26.1121 2204.07 26.1121 Q2213.92 26.1121 2218.78 31.2163 Q2223.64 36.3204 2223.64 46.6907 Z" fill="#000000" fill-rule="evenodd" fill-opacity="1" /><path clip-path="url(#clip300)" d="M2257.87 76.7889 Q2254.71 84.8907 2251.71 87.3618 Q2248.72 89.8329 2243.69 89.8329 L2237.74 89.8329 L2237.74 83.5945 L2242.11 83.5945 Q2245.19 83.5945 2246.89 82.1361 Q2248.59 80.6778 2250.66 75.2496 L2252 71.8468 L2233.65 27.2059 L2241.54 27.2059 L2255.72 62.6918 L2269.9 27.2059 L2277.8 27.2059 L2257.87 76.7889 Z" fill="#000000" fill-rule="evenodd" fill-opacity="1" /><path clip-path="url(#clip300)" d="M2335.08 49.7694 Q2326.05 49.7694 2322.56 51.8354 Q2319.08 53.9013 2319.08 58.8839 Q2319.08 62.8538 2321.67 65.2034 Q2324.3 67.5124 2328.8 67.5124 Q2335 67.5124 2338.73 63.1374 Q2342.49 58.7219 2342.49 51.4303 L2342.49 49.7694 L2335.08 49.7694 M2349.95 46.6907 L2349.95 72.576 L2342.49 72.576 L2342.49 65.6895 Q2339.94 69.8214 2336.13 71.8063 Q2332.33 73.7508 2326.82 73.7508 Q2319.85 73.7508 2315.72 69.8619 Q2311.63 65.9325 2311.63 59.3701 Q2311.63 51.7138 2316.73 47.825 Q2321.87 43.9361 2332.04 43.9361 L2342.49 43.9361 L2342.49 43.2069 Q2342.49 38.0623 2339.09 35.2672 Q2335.73 32.4315 2329.61 32.4315 Q2325.72 32.4315 2322.04 33.3632 Q2318.35 34.295 2314.95 36.1584 L2314.95 29.2718 Q2319.04 27.692 2322.89 26.9223 Q2326.74 26.1121 2330.38 26.1121 Q2340.22 26.1121 2345.09 31.2163 Q2349.95 36.3204 2349.95 46.6907 Z" fill="#000000" fill-rule="evenodd" fill-opacity="1" /><path clip-path="url(#clip300)" d="M2403.01 45.1919 L2403.01 72.576 L2395.56 72.576 L2395.56 45.4349 Q2395.56 38.994 2393.05 35.7938 Q2390.54 32.5936 2385.51 32.5936 Q2379.48 32.5936 2375.99 36.4419 Q2372.51 40.2903 2372.51 46.9338 L2372.51 72.576 L2365.02 72.576 L2365.02 27.2059 L2372.51 27.2059 L2372.51 34.2544 Q2375.18 30.163 2378.79 28.1376 Q2382.44 26.1121 2387.17 26.1121 Q2394.99 26.1121 2399 30.9732 Q2403.01 35.7938 2403.01 45.1919 Z" fill="#000000" fill-rule="evenodd" fill-opacity="1" /><path clip-path="url(#clip300)" d="M2447.74 34.0924 L2447.74 9.54393 L2455.19 9.54393 L2455.19 72.576 L2447.74 72.576 L2447.74 65.7705 Q2445.39 69.8214 2441.78 71.8063 Q2438.22 73.7508 2433.19 73.7508 Q2424.97 73.7508 2419.78 67.1883 Q2414.64 60.6258 2414.64 49.9314 Q2414.64 39.2371 2419.78 32.6746 Q2424.97 26.1121 2433.19 26.1121 Q2438.22 26.1121 2441.78 28.0971 Q2445.39 30.0415 2447.74 34.0924 M2422.34 49.9314 Q2422.34 58.1548 2425.7 62.8538 Q2429.1 67.5124 2435.02 67.5124 Q2440.93 67.5124 2444.33 62.8538 Q2447.74 58.1548 2447.74 49.9314 Q2447.74 41.7081 2444.33 37.0496 Q2440.93 32.3505 2435.02 32.3505 Q2429.1 32.3505 2425.7 37.0496 Q2422.34 41.7081 2422.34 49.9314 Z" fill="#000000" fill-rule="evenodd" fill-opacity="1" /><path clip-path="url(#clip300)" d="M2492.58 27.2059 L2500.03 27.2059 L2509.35 62.6108 L2518.63 27.2059 L2527.42 27.2059 L2536.73 62.6108 L2546.01 27.2059 L2553.46 27.2059 L2541.6 72.576 L2532.8 72.576 L2523.04 35.3887 L2513.24 72.576 L2504.45 72.576 L2492.58 27.2059 Z" fill="#000000" fill-rule="evenodd" fill-opacity="1" /><path clip-path="url(#clip300)" d="M2603.57 48.0275 L2603.57 51.6733 L2569.3 51.6733 Q2569.79 59.3701 2573.92 63.421 Q2578.09 67.4314 2585.51 67.4314 Q2589.8 67.4314 2593.81 66.3781 Q2597.86 65.3249 2601.83 63.2184 L2601.83 70.267 Q2597.82 71.9684 2593.61 72.8596 Q2589.4 73.7508 2585.06 73.7508 Q2574.21 73.7508 2567.85 67.4314 Q2561.53 61.1119 2561.53 50.3365 Q2561.53 39.1965 2567.52 32.6746 Q2573.56 26.1121 2583.77 26.1121 Q2592.92 26.1121 2598.23 32.0264 Q2603.57 37.9003 2603.57 48.0275 M2596.12 45.84 Q2596.04 39.7232 2592.68 36.0774 Q2589.36 32.4315 2583.85 32.4315 Q2577.61 32.4315 2573.84 35.9558 Q2570.11 39.4801 2569.55 45.8805 L2596.12 45.84 Z" fill="#000000" fill-rule="evenodd" fill-opacity="1" /><path clip-path="url(#clip300)" d="M2654.62 48.0275 L2654.62 51.6733 L2620.34 51.6733 Q2620.83 59.3701 2624.96 63.421 Q2629.14 67.4314 2636.55 67.4314 Q2640.84 67.4314 2644.85 66.3781 Q2648.9 65.3249 2652.87 63.2184 L2652.87 70.267 Q2648.86 71.9684 2644.65 72.8596 Q2640.44 73.7508 2636.1 73.7508 Q2625.25 73.7508 2618.89 67.4314 Q2612.57 61.1119 2612.57 50.3365 Q2612.57 39.1965 2618.56 32.6746 Q2624.6 26.1121 2634.81 26.1121 Q2643.96 26.1121 2649.27 32.0264 Q2654.62 37.9003 2654.62 48.0275 M2647.16 45.84 Q2647.08 39.7232 2643.72 36.0774 Q2640.4 32.4315 2634.89 32.4315 Q2628.65 32.4315 2624.88 35.9558 Q2621.16 39.4801 2620.59 45.8805 L2647.16 45.84 Z" fill="#000000" fill-rule="evenodd" fill-opacity="1" /><path clip-path="url(#clip300)" d="M2666.57 9.54393 L2674.06 9.54393 L2674.06 46.7717 L2696.3 27.2059 L2705.82 27.2059 L2681.76 48.4326 L2706.83 72.576 L2697.11 72.576 L2674.06 50.4176 L2674.06 72.576 L2666.57 72.576 L2666.57 9.54393 Z" fill="#000000" fill-rule="evenodd" fill-opacity="1" /><path clip-path="url(#clip300)" d="M2744.75 34.0924 L2744.75 9.54393 L2752.2 9.54393 L2752.2 72.576 L2744.75 72.576 L2744.75 65.7705 Q2742.4 69.8214 2738.79 71.8063 Q2735.23 73.7508 2730.21 73.7508 Q2721.98 73.7508 2716.8 67.1883 Q2711.65 60.6258 2711.65 49.9314 Q2711.65 39.2371 2716.8 32.6746 Q2721.98 26.1121 2730.21 26.1121 Q2735.23 26.1121 2738.79 28.0971 Q2742.4 30.0415 2744.75 34.0924 M2719.35 49.9314 Q2719.35 58.1548 2722.71 62.8538 Q2726.11 67.5124 2732.03 67.5124 Q2737.94 67.5124 2741.35 62.8538 Q2744.75 58.1548 2744.75 49.9314 Q2744.75 41.7081 2741.35 37.0496 Q2737.94 32.3505 2732.03 32.3505 Q2726.11 32.3505 2722.71 37.0496 Q2719.35 41.7081 2719.35 49.9314 Z" fill="#000000" fill-rule="evenodd" fill-opacity="1" /><path clip-path="url(#clip300)" d="M2788.17 49.7694 Q2779.14 49.7694 2775.66 51.8354 Q2772.17 53.9013 2772.17 58.8839 Q2772.17 62.8538 2774.77 65.2034 Q2777.4 67.5124 2781.9 67.5124 Q2788.09 67.5124 2791.82 63.1374 Q2795.59 58.7219 2795.59 51.4303 L2795.59 49.7694 L2788.17 49.7694 M2803.04 46.6907 L2803.04 72.576 L2795.59 72.576 L2795.59 65.6895 Q2793.04 69.8214 2789.23 71.8063 Q2785.42 73.7508 2779.91 73.7508 Q2772.94 73.7508 2768.81 69.8619 Q2764.72 65.9325 2764.72 59.3701 Q2764.72 51.7138 2769.82 47.825 Q2774.97 43.9361 2785.14 43.9361 L2795.59 43.9361 L2795.59 43.2069 Q2795.59 38.0623 2792.18 35.2672 Q2788.82 32.4315 2782.71 32.4315 Q2778.82 32.4315 2775.13 33.3632 Q2771.44 34.295 2768.04 36.1584 L2768.04 29.2718 Q2772.13 27.692 2775.98 26.9223 Q2779.83 26.1121 2783.47 26.1121 Q2793.32 26.1121 2798.18 31.2163 Q2803.04 36.3204 2803.04 46.6907 Z" fill="#000000" fill-rule="evenodd" fill-opacity="1" /><path clip-path="url(#clip300)" d="M2837.27 76.7889 Q2834.11 84.8907 2831.11 87.3618 Q2828.12 89.8329 2823.09 89.8329 L2817.14 89.8329 L2817.14 83.5945 L2821.51 83.5945 Q2824.59 83.5945 2826.29 82.1361 Q2827.99 80.6778 2830.06 75.2496 L2831.4 71.8468 L2813.05 27.2059 L2820.95 27.2059 L2835.12 62.6918 L2849.3 27.2059 L2857.2 27.2059 L2837.27 76.7889 Z" fill="#000000" fill-rule="evenodd" fill-opacity="1" /><path clip-path="url(#clip302)" d="
M434.691 189.727 L434.691 2146.22 L1572.41 2146.22 L1572.41 189.727 L434.691 189.727 L434.691 189.727  Z
  " fill="#009af9" fill-rule="evenodd" fill-opacity="1"/>
<polyline clip-path="url(#clip302)" style="stroke:#000000; stroke-linecap:round; stroke-linejoin:round; stroke-width:4; stroke-opacity:1; fill:none" points="
  434.691,189.727 434.691,2146.22 1572.41,2146.22 1572.41,189.727 434.691,189.727 
  "/>
<path clip-path="url(#clip302)" d="
M1856.84 838.777 L1856.84 2146.22 L2994.56 2146.22 L2994.56 838.777 L1856.84 838.777 L1856.84 838.777  Z
  " fill="#009af9" fill-rule="evenodd" fill-opacity="1"/>
<polyline clip-path="url(#clip302)" style="stroke:#000000; stroke-linecap:round; stroke-linejoin:round; stroke-width:4; stroke-opacity:1; fill:none" points="
  1856.84,838.777 1856.84,2146.22 2994.56,2146.22 2994.56,838.777 1856.84,838.777 
  "/>
<circle clip-path="url(#clip302)" style="fill:#009af9; stroke:none; fill-opacity:0" cx="1003.55" cy="189.727" r="2"/>
<circle clip-path="url(#clip302)" style="fill:#009af9; stroke:none; fill-opacity:0" cx="2425.7" cy="838.777" r="2"/>
<path clip-path="url(#clip300)" d="
M2392.07 303.842 L3056.88 303.842 L3056.88 200.162 L2392.07 200.162  Z
  " fill="#ffffff" fill-rule="evenodd" fill-opacity="1"/>
<polyline clip-path="url(#clip300)" style="stroke:#000000; stroke-linecap:round; stroke-linejoin:round; stroke-width:4; stroke-opacity:1; fill:none" points="
  2392.07,303.842 3056.88,303.842 3056.88,200.162 2392.07,200.162 2392.07,303.842 
  "/>
<path clip-path="url(#clip300)" d="
M2424.02 272.738 L2615.78 272.738 L2615.78 231.266 L2424.02 231.266 L2424.02 272.738  Z
  " fill="#009af9" fill-rule="evenodd" fill-opacity="1"/>
<polyline clip-path="url(#clip300)" style="stroke:#000000; stroke-linecap:round; stroke-linejoin:round; stroke-width:4; stroke-opacity:1; fill:none" points="
  2424.02,272.738 2615.78,272.738 2615.78,231.266 2424.02,231.266 2424.02,272.738 
  "/>
<path clip-path="url(#clip300)" d="M2666.16 244.12 L2666.16 248.148 Q2664.35 247.222 2662.41 246.759 Q2660.47 246.296 2658.38 246.296 Q2655.21 246.296 2653.61 247.268 Q2652.04 248.24 2652.04 250.185 Q2652.04 251.666 2653.17 252.523 Q2654.31 253.356 2657.73 254.12 L2659.19 254.444 Q2663.73 255.416 2665.63 257.198 Q2667.55 258.958 2667.55 262.129 Q2667.55 265.74 2664.68 267.847 Q2661.83 269.953 2656.83 269.953 Q2654.75 269.953 2652.48 269.536 Q2650.23 269.143 2647.73 268.333 L2647.73 263.935 Q2650.09 265.161 2652.39 265.786 Q2654.68 266.388 2656.92 266.388 Q2659.93 266.388 2661.55 265.37 Q2663.17 264.328 2663.17 262.453 Q2663.17 260.717 2661.99 259.791 Q2660.84 258.865 2656.88 258.009 L2655.4 257.661 Q2651.44 256.828 2649.68 255.115 Q2647.92 253.379 2647.92 250.37 Q2647.92 246.712 2650.51 244.722 Q2653.1 242.731 2657.87 242.731 Q2660.23 242.731 2662.32 243.078 Q2664.4 243.425 2666.16 244.12 Z" fill="#000000" fill-rule="evenodd" fill-opacity="1" /><path clip-path="url(#clip300)" d="M2695.88 253.634 L2695.88 269.282 L2691.62 269.282 L2691.62 253.773 Q2691.62 250.092 2690.19 248.263 Q2688.75 246.435 2685.88 246.435 Q2682.43 246.435 2680.44 248.634 Q2678.45 250.833 2678.45 254.629 L2678.45 269.282 L2674.17 269.282 L2674.17 233.263 L2678.45 233.263 L2678.45 247.384 Q2679.98 245.046 2682.04 243.888 Q2684.12 242.731 2686.83 242.731 Q2691.3 242.731 2693.59 245.509 Q2695.88 248.263 2695.88 253.634 Z" fill="#000000" fill-rule="evenodd" fill-opacity="1" /><path clip-path="url(#clip300)" d="M2716.16 256.249 Q2711 256.249 2709.01 257.43 Q2707.02 258.61 2707.02 261.458 Q2707.02 263.726 2708.5 265.069 Q2710 266.388 2712.57 266.388 Q2716.11 266.388 2718.24 263.888 Q2720.4 261.365 2720.4 257.198 L2720.4 256.249 L2716.16 256.249 M2724.65 254.49 L2724.65 269.282 L2720.4 269.282 L2720.4 265.347 Q2718.94 267.708 2716.76 268.842 Q2714.59 269.953 2711.44 269.953 Q2707.46 269.953 2705.09 267.731 Q2702.76 265.485 2702.76 261.735 Q2702.76 257.36 2705.67 255.138 Q2708.61 252.916 2714.42 252.916 L2720.4 252.916 L2720.4 252.499 Q2720.4 249.56 2718.45 247.962 Q2716.53 246.342 2713.03 246.342 Q2710.81 246.342 2708.71 246.874 Q2706.6 247.407 2704.65 248.472 L2704.65 244.536 Q2706.99 243.634 2709.19 243.194 Q2711.39 242.731 2713.47 242.731 Q2719.1 242.731 2721.88 245.648 Q2724.65 248.564 2724.65 254.49 Z" fill="#000000" fill-rule="evenodd" fill-opacity="1" /><path clip-path="url(#clip300)" d="M2748.45 247.337 Q2747.73 246.921 2746.88 246.736 Q2746.04 246.527 2745.02 246.527 Q2741.41 246.527 2739.47 248.888 Q2737.55 251.226 2737.55 255.624 L2737.55 269.282 L2733.27 269.282 L2733.27 243.356 L2737.55 243.356 L2737.55 247.384 Q2738.89 245.023 2741.04 243.888 Q2743.2 242.731 2746.27 242.731 Q2746.71 242.731 2747.25 242.8 Q2747.78 242.847 2748.43 242.962 L2748.45 247.337 Z" fill="#000000" fill-rule="evenodd" fill-opacity="1" /><path clip-path="url(#clip300)" d="M2752.92 243.356 L2757.18 243.356 L2757.18 269.282 L2752.92 269.282 L2752.92 243.356 M2752.92 233.263 L2757.18 233.263 L2757.18 238.657 L2752.92 238.657 L2752.92 233.263 Z" fill="#000000" fill-rule="evenodd" fill-opacity="1" /><path clip-path="url(#clip300)" d="M2787.64 253.634 L2787.64 269.282 L2783.38 269.282 L2783.38 253.773 Q2783.38 250.092 2781.95 248.263 Q2780.51 246.435 2777.64 246.435 Q2774.19 246.435 2772.2 248.634 Q2770.21 250.833 2770.21 254.629 L2770.21 269.282 L2765.93 269.282 L2765.93 243.356 L2770.21 243.356 L2770.21 247.384 Q2771.74 245.046 2773.8 243.888 Q2775.88 242.731 2778.59 242.731 Q2783.06 242.731 2785.35 245.509 Q2787.64 248.263 2787.64 253.634 Z" fill="#000000" fill-rule="evenodd" fill-opacity="1" /><path clip-path="url(#clip300)" d="M2813.2 256.018 Q2813.2 251.388 2811.27 248.842 Q2809.38 246.296 2805.93 246.296 Q2802.5 246.296 2800.58 248.842 Q2798.68 251.388 2798.68 256.018 Q2798.68 260.624 2800.58 263.171 Q2802.5 265.717 2805.93 265.717 Q2809.38 265.717 2811.27 263.171 Q2813.2 260.624 2813.2 256.018 M2817.46 266.064 Q2817.46 272.684 2814.52 275.902 Q2811.58 279.143 2805.51 279.143 Q2803.27 279.143 2801.27 278.796 Q2799.28 278.471 2797.41 277.777 L2797.41 273.634 Q2799.28 274.652 2801.11 275.138 Q2802.94 275.624 2804.84 275.624 Q2809.03 275.624 2811.11 273.425 Q2813.2 271.249 2813.2 266.828 L2813.2 264.722 Q2811.88 267.013 2809.82 268.147 Q2807.76 269.282 2804.89 269.282 Q2800.12 269.282 2797.2 265.647 Q2794.28 262.013 2794.28 256.018 Q2794.28 249.999 2797.2 246.365 Q2800.12 242.731 2804.89 242.731 Q2807.76 242.731 2809.82 243.865 Q2811.88 244.999 2813.2 247.291 L2813.2 243.356 L2817.46 243.356 L2817.46 266.064 Z" fill="#000000" fill-rule="evenodd" fill-opacity="1" /><path clip-path="url(#clip300)" d="M2859.95 244.351 L2859.95 248.333 Q2858.15 247.337 2856.32 246.851 Q2854.52 246.342 2852.66 246.342 Q2848.52 246.342 2846.23 248.981 Q2843.94 251.597 2843.94 256.342 Q2843.94 261.087 2846.23 263.726 Q2848.52 266.342 2852.66 266.342 Q2854.52 266.342 2856.32 265.856 Q2858.15 265.347 2859.95 264.351 L2859.95 268.286 Q2858.17 269.12 2856.25 269.536 Q2854.35 269.953 2852.2 269.953 Q2846.34 269.953 2842.89 266.272 Q2839.45 262.592 2839.45 256.342 Q2839.45 249.999 2842.92 246.365 Q2846.41 242.731 2852.48 242.731 Q2854.45 242.731 2856.32 243.148 Q2858.2 243.541 2859.95 244.351 Z" fill="#000000" fill-rule="evenodd" fill-opacity="1" /><path clip-path="url(#clip300)" d="M2877.41 246.342 Q2873.98 246.342 2871.99 249.027 Q2870 251.689 2870 256.342 Q2870 260.995 2871.97 263.68 Q2873.96 266.342 2877.41 266.342 Q2880.81 266.342 2882.8 263.657 Q2884.79 260.972 2884.79 256.342 Q2884.79 251.736 2882.8 249.05 Q2880.81 246.342 2877.41 246.342 M2877.41 242.731 Q2882.96 242.731 2886.14 246.342 Q2889.31 249.953 2889.31 256.342 Q2889.31 262.708 2886.14 266.342 Q2882.96 269.953 2877.41 269.953 Q2871.83 269.953 2868.66 266.342 Q2865.51 262.708 2865.51 256.342 Q2865.51 249.953 2868.66 246.342 Q2871.83 242.731 2877.41 242.731 Z" fill="#000000" fill-rule="evenodd" fill-opacity="1" /><path clip-path="url(#clip300)" d="M2895.93 259.05 L2895.93 243.356 L2900.19 243.356 L2900.19 258.888 Q2900.19 262.569 2901.62 264.421 Q2903.06 266.249 2905.93 266.249 Q2909.38 266.249 2911.37 264.05 Q2913.38 261.851 2913.38 258.055 L2913.38 243.356 L2917.64 243.356 L2917.64 269.282 L2913.38 269.282 L2913.38 265.3 Q2911.83 267.661 2909.77 268.819 Q2907.73 269.953 2905.02 269.953 Q2900.56 269.953 2898.24 267.175 Q2895.93 264.397 2895.93 259.05 M2906.64 242.731 L2906.64 242.731 Z" fill="#000000" fill-rule="evenodd" fill-opacity="1" /><path clip-path="url(#clip300)" d="M2947.96 253.634 L2947.96 269.282 L2943.7 269.282 L2943.7 253.773 Q2943.7 250.092 2942.27 248.263 Q2940.83 246.435 2937.96 246.435 Q2934.51 246.435 2932.52 248.634 Q2930.53 250.833 2930.53 254.629 L2930.53 269.282 L2926.25 269.282 L2926.25 243.356 L2930.53 243.356 L2930.53 247.384 Q2932.06 245.046 2934.12 243.888 Q2936.2 242.731 2938.91 242.731 Q2943.38 242.731 2945.67 245.509 Q2947.96 248.263 2947.96 253.634 Z" fill="#000000" fill-rule="evenodd" fill-opacity="1" /><path clip-path="url(#clip300)" d="M2960.67 235.995 L2960.67 243.356 L2969.45 243.356 L2969.45 246.666 L2960.67 246.666 L2960.67 260.74 Q2960.67 263.911 2961.53 264.814 Q2962.41 265.717 2965.07 265.717 L2969.45 265.717 L2969.45 269.282 L2965.07 269.282 Q2960.14 269.282 2958.26 267.453 Q2956.39 265.601 2956.39 260.74 L2956.39 246.666 L2953.26 246.666 L2953.26 243.356 L2956.39 243.356 L2956.39 235.995 L2960.67 235.995 Z" fill="#000000" fill-rule="evenodd" fill-opacity="1" /><path clip-path="url(#clip300)" d="M2991.57 244.12 L2991.57 248.148 Q2989.77 247.222 2987.82 246.759 Q2985.88 246.296 2983.8 246.296 Q2980.63 246.296 2979.03 247.268 Q2977.45 248.24 2977.45 250.185 Q2977.45 251.666 2978.59 252.523 Q2979.72 253.356 2983.15 254.12 L2984.61 254.444 Q2989.14 255.416 2991.04 257.198 Q2992.96 258.958 2992.96 262.129 Q2992.96 265.74 2990.09 267.847 Q2987.25 269.953 2982.25 269.953 Q2980.16 269.953 2977.89 269.536 Q2975.65 269.143 2973.15 268.333 L2973.15 263.935 Q2975.51 265.161 2977.8 265.786 Q2980.09 266.388 2982.34 266.388 Q2985.35 266.388 2986.97 265.37 Q2988.59 264.328 2988.59 262.453 Q2988.59 260.717 2987.41 259.791 Q2986.25 258.865 2982.29 258.009 L2980.81 257.661 Q2976.85 256.828 2975.09 255.115 Q2973.33 253.379 2973.33 250.37 Q2973.33 246.712 2975.93 244.722 Q2978.52 242.731 2983.29 242.731 Q2985.65 242.731 2987.73 243.078 Q2989.82 243.425 2991.57 244.12 Z" fill="#000000" fill-rule="evenodd" fill-opacity="1" /></svg>
