<?xml version="1.0" encoding="utf-8"?>
<svg xmlns="http://www.w3.org/2000/svg" xmlns:xlink="http://www.w3.org/1999/xlink" width="1200" height="800" viewBox="0 0 4800 3200">
<defs>
  <clipPath id="clip210">
    <rect x="0" y="0" width="4800" height="3200"/>
  </clipPath>
</defs>
<path clip-path="url(#clip210)" d="
M0 3200 L4800 3200 L4800 0 L0 0  Z
  " fill="#ffffff" fill-rule="evenodd" fill-opacity="1"/>
<defs>
  <clipPath id="clip211">
    <rect x="960" y="0" width="3361" height="3200"/>
  </clipPath>
</defs>
<path clip-path="url(#clip210)" d="
M349.543 2944.19 L4689.76 2944.19 L4689.76 186.464 L349.543 186.464  Z
  " fill="#ffffff" fill-rule="evenodd" fill-opacity="1"/>
<defs>
  <clipPath id="clip212">
    <rect x="349" y="186" width="4341" height="2759"/>
  </clipPath>
</defs>
<polyline clip-path="url(#clip212)" style="stroke:#000000; stroke-linecap:round; stroke-linejoin:round; stroke-width:2; stroke-opacity:0.1; fill:none" points="
  387.76,2944.19 387.76,186.464 
  "/>
<polyline clip-path="url(#clip212)" style="stroke:#000000; stroke-linecap:round; stroke-linejoin:round; stroke-width:2; stroke-opacity:0.1; fill:none" points="
  1043.73,2944.19 1043.73,186.464 
  "/>
<polyline clip-path="url(#clip212)" style="stroke:#000000; stroke-linecap:round; stroke-linejoin:round; stroke-width:2; stroke-opacity:0.1; fill:none" points="
  1699.69,2944.19 1699.69,186.464 
  "/>
<polyline clip-path="url(#clip212)" style="stroke:#000000; stroke-linecap:round; stroke-linejoin:round; stroke-width:2; stroke-opacity:0.1; fill:none" points="
  2355.66,2944.19 2355.66,186.464 
  "/>
<polyline clip-path="url(#clip212)" style="stroke:#000000; stroke-linecap:round; stroke-linejoin:round; stroke-width:2; stroke-opacity:0.1; fill:none" points="
  3011.63,2944.19 3011.63,186.464 
  "/>
<polyline clip-path="url(#clip212)" style="stroke:#000000; stroke-linecap:round; stroke-linejoin:round; stroke-width:2; stroke-opacity:0.1; fill:none" points="
  3667.6,2944.19 3667.6,186.464 
  "/>
<polyline clip-path="url(#clip212)" style="stroke:#000000; stroke-linecap:round; stroke-linejoin:round; stroke-width:2; stroke-opacity:0.1; fill:none" points="
  4323.56,2944.19 4323.56,186.464 
  "/>
<polyline clip-path="url(#clip210)" style="stroke:#000000; stroke-linecap:round; stroke-linejoin:round; stroke-width:4; stroke-opacity:1; fill:none" points="
  349.543,2944.19 4689.76,2944.19 
  "/>
<polyline clip-path="url(#clip210)" style="stroke:#000000; stroke-linecap:round; stroke-linejoin:round; stroke-width:4; stroke-opacity:1; fill:none" points="
  387.76,2944.19 387.76,2925.29 
  "/>
<polyline clip-path="url(#clip210)" style="stroke:#000000; stroke-linecap:round; stroke-linejoin:round; stroke-width:4; stroke-opacity:1; fill:none" points="
  1043.73,2944.19 1043.73,2925.29 
  "/>
<polyline clip-path="url(#clip210)" style="stroke:#000000; stroke-linecap:round; stroke-linejoin:round; stroke-width:4; stroke-opacity:1; fill:none" points="
  1699.69,2944.19 1699.69,2925.29 
  "/>
<polyline clip-path="url(#clip210)" style="stroke:#000000; stroke-linecap:round; stroke-linejoin:round; stroke-width:4; stroke-opacity:1; fill:none" points="
  2355.66,2944.19 2355.66,2925.29 
  "/>
<polyline clip-path="url(#clip210)" style="stroke:#000000; stroke-linecap:round; stroke-linejoin:round; stroke-width:4; stroke-opacity:1; fill:none" points="
  3011.63,2944.19 3011.63,2925.29 
  "/>
<polyline clip-path="url(#clip210)" style="stroke:#000000; stroke-linecap:round; stroke-linejoin:round; stroke-width:4; stroke-opacity:1; fill:none" points="
  3667.6,2944.19 3667.6,2925.29 
  "/>
<polyline clip-path="url(#clip210)" style="stroke:#000000; stroke-linecap:round; stroke-linejoin:round; stroke-width:4; stroke-opacity:1; fill:none" points="
  4323.56,2944.19 4323.56,2925.29 
  "/>
<path clip-path="url(#clip210)" d="M387.76 2994.31 Q384.149 2994.31 382.32 2997.87 Q380.515 3001.41 380.515 3008.54 Q380.515 3015.65 382.32 3019.21 Q384.149 3022.76 387.76 3022.76 Q391.394 3022.76 393.2 3019.21 Q395.028 3015.65 395.028 3008.54 Q395.028 3001.41 393.2 2997.87 Q391.394 2994.31 387.76 2994.31 M387.76 2990.6 Q393.57 2990.6 396.626 2995.21 Q399.704 2999.79 399.704 3008.54 Q399.704 3017.27 396.626 3021.88 Q393.57 3026.46 387.76 3026.46 Q381.95 3026.46 378.871 3021.88 Q375.816 3017.27 375.816 3008.54 Q375.816 2999.79 378.871 2995.21 Q381.95 2990.6 387.76 2990.6 Z" fill="#000000" fill-rule="evenodd" fill-opacity="1" /><path clip-path="url(#clip210)" d="M1038.38 3021.85 L1054.7 3021.85 L1054.7 3025.79 L1032.76 3025.79 L1032.76 3021.85 Q1035.42 3019.1 1040 3014.47 Q1044.61 3009.82 1045.79 3008.47 Q1048.03 3005.95 1048.91 3004.21 Q1049.82 3002.45 1049.82 3000.76 Q1049.82 2998.01 1047.87 2996.27 Q1045.95 2994.54 1042.85 2994.54 Q1040.65 2994.54 1038.19 2995.3 Q1035.76 2996.07 1032.99 2997.62 L1032.99 2992.89 Q1035.81 2991.76 1038.26 2991.18 Q1040.72 2990.6 1042.76 2990.6 Q1048.13 2990.6 1051.32 2993.29 Q1054.51 2995.97 1054.51 3000.46 Q1054.51 3002.59 1053.7 3004.51 Q1052.92 3006.41 1050.81 3009.01 Q1050.23 3009.68 1047.13 3012.89 Q1044.03 3016.09 1038.38 3021.85 Z" fill="#000000" fill-rule="evenodd" fill-opacity="1" /><path clip-path="url(#clip210)" d="M1702.7 2995.3 L1690.9 3013.75 L1702.7 3013.75 L1702.7 2995.3 M1701.48 2991.23 L1707.36 2991.23 L1707.36 3013.75 L1712.29 3013.75 L1712.29 3017.64 L1707.36 3017.64 L1707.36 3025.79 L1702.7 3025.79 L1702.7 3017.64 L1687.1 3017.64 L1687.1 3013.13 L1701.48 2991.23 Z" fill="#000000" fill-rule="evenodd" fill-opacity="1" /><path clip-path="url(#clip210)" d="M2356.07 3006.64 Q2352.92 3006.64 2351.07 3008.8 Q2349.24 3010.95 2349.24 3014.7 Q2349.24 3018.43 2351.07 3020.6 Q2352.92 3022.76 2356.07 3022.76 Q2359.21 3022.76 2361.04 3020.6 Q2362.9 3018.43 2362.9 3014.7 Q2362.9 3010.95 2361.04 3008.8 Q2359.21 3006.64 2356.07 3006.64 M2365.35 2991.99 L2365.35 2996.25 Q2363.59 2995.42 2361.78 2994.98 Q2360 2994.54 2358.24 2994.54 Q2353.61 2994.54 2351.16 2997.66 Q2348.73 3000.79 2348.38 3007.11 Q2349.75 3005.09 2351.81 3004.03 Q2353.87 3002.94 2356.34 3002.94 Q2361.55 3002.94 2364.56 3006.11 Q2367.59 3009.26 2367.59 3014.7 Q2367.59 3020.02 2364.45 3023.24 Q2361.3 3026.46 2356.07 3026.46 Q2350.07 3026.46 2346.9 3021.88 Q2343.73 3017.27 2343.73 3008.54 Q2343.73 3000.35 2347.62 2995.49 Q2351.51 2990.6 2358.06 2990.6 Q2359.82 2990.6 2361.6 2990.95 Q2363.4 2991.3 2365.35 2991.99 Z" fill="#000000" fill-rule="evenodd" fill-opacity="1" /><path clip-path="url(#clip210)" d="M3011.63 3009.38 Q3008.3 3009.38 3006.37 3011.16 Q3004.48 3012.94 3004.48 3016.07 Q3004.48 3019.19 3006.37 3020.97 Q3008.3 3022.76 3011.63 3022.76 Q3014.96 3022.76 3016.88 3020.97 Q3018.8 3019.17 3018.8 3016.07 Q3018.8 3012.94 3016.88 3011.16 Q3014.99 3009.38 3011.63 3009.38 M3006.95 3007.39 Q3003.94 3006.64 3002.25 3004.58 Q3000.59 3002.52 3000.59 2999.56 Q3000.59 2995.42 3003.53 2993.01 Q3006.49 2990.6 3011.63 2990.6 Q3016.79 2990.6 3019.73 2993.01 Q3022.67 2995.42 3022.67 2999.56 Q3022.67 3002.52 3020.98 3004.58 Q3019.31 3006.64 3016.33 3007.39 Q3019.71 3008.17 3021.58 3010.46 Q3023.48 3012.76 3023.48 3016.07 Q3023.48 3021.09 3020.4 3023.77 Q3017.35 3026.46 3011.63 3026.46 Q3005.91 3026.46 3002.83 3023.77 Q2999.78 3021.09 2999.78 3016.07 Q2999.78 3012.76 3001.68 3010.46 Q3003.57 3008.17 3006.95 3007.39 M3005.24 3000 Q3005.24 3002.69 3006.91 3004.19 Q3008.6 3005.7 3011.63 3005.7 Q3014.64 3005.7 3016.33 3004.19 Q3018.04 3002.69 3018.04 3000 Q3018.04 2997.32 3016.33 2995.81 Q3014.64 2994.31 3011.63 2994.31 Q3008.6 2994.31 3006.91 2995.81 Q3005.24 2997.32 3005.24 3000 Z" fill="#000000" fill-rule="evenodd" fill-opacity="1" /><path clip-path="url(#clip210)" d="M3642.28 3021.85 L3649.92 3021.85 L3649.92 2995.49 L3641.61 2997.15 L3641.61 2992.89 L3649.88 2991.23 L3654.55 2991.23 L3654.55 3021.85 L3662.19 3021.85 L3662.19 3025.79 L3642.28 3025.79 L3642.28 3021.85 Z" fill="#000000" fill-rule="evenodd" fill-opacity="1" /><path clip-path="url(#clip210)" d="M3681.64 2994.31 Q3678.02 2994.31 3676.2 2997.87 Q3674.39 3001.41 3674.39 3008.54 Q3674.39 3015.65 3676.2 3019.21 Q3678.02 3022.76 3681.64 3022.76 Q3685.27 3022.76 3687.08 3019.21 Q3688.9 3015.65 3688.9 3008.54 Q3688.9 3001.41 3687.08 2997.87 Q3685.27 2994.31 3681.64 2994.31 M3681.64 2990.6 Q3687.45 2990.6 3690.5 2995.21 Q3693.58 2999.79 3693.58 3008.54 Q3693.58 3017.27 3690.5 3021.88 Q3687.45 3026.46 3681.64 3026.46 Q3675.83 3026.46 3672.75 3021.88 Q3669.69 3017.27 3669.69 3008.54 Q3669.69 2999.79 3672.75 2995.21 Q3675.83 2990.6 3681.64 2990.6 Z" fill="#000000" fill-rule="evenodd" fill-opacity="1" /><path clip-path="url(#clip210)" d="M4299.05 3021.85 L4306.69 3021.85 L4306.69 2995.49 L4298.38 2997.15 L4298.38 2992.89 L4306.64 2991.23 L4311.32 2991.23 L4311.32 3021.85 L4318.96 3021.85 L4318.96 3025.79 L4299.05 3025.79 L4299.05 3021.85 Z" fill="#000000" fill-rule="evenodd" fill-opacity="1" /><path clip-path="url(#clip210)" d="M4332.43 3021.85 L4348.75 3021.85 L4348.75 3025.79 L4326.8 3025.79 L4326.8 3021.85 Q4329.47 3019.1 4334.05 3014.47 Q4338.66 3009.82 4339.84 3008.47 Q4342.08 3005.95 4342.96 3004.21 Q4343.86 3002.45 4343.86 3000.76 Q4343.86 2998.01 4341.92 2996.27 Q4340 2994.54 4336.9 2994.54 Q4334.7 2994.54 4332.24 2995.3 Q4329.81 2996.07 4327.04 2997.62 L4327.04 2992.89 Q4329.86 2991.76 4332.31 2991.18 Q4334.77 2990.6 4336.8 2990.6 Q4342.17 2990.6 4345.37 2993.29 Q4348.56 2995.97 4348.56 3000.46 Q4348.56 3002.59 4347.75 3004.51 Q4346.97 3006.41 4344.86 3009.01 Q4344.28 3009.68 4341.18 3012.89 Q4338.08 3016.09 4332.43 3021.85 Z" fill="#000000" fill-rule="evenodd" fill-opacity="1" /><path clip-path="url(#clip210)" d="M2423.47 3077.53 L2433.05 3077.53 L2445.17 3109.87 L2457.37 3077.53 L2466.95 3077.53 L2466.95 3125.05 L2460.68 3125.05 L2460.68 3083.32 L2448.42 3115.92 L2441.96 3115.92 L2429.71 3083.32 L2429.71 3125.05 L2423.47 3125.05 L2423.47 3077.53 Z" fill="#000000" fill-rule="evenodd" fill-opacity="1" /><path clip-path="url(#clip210)" d="M2493.27 3093.51 Q2488.56 3093.51 2485.82 3097.2 Q2483.08 3100.86 2483.08 3107.26 Q2483.08 3113.66 2485.79 3117.35 Q2488.53 3121.01 2493.27 3121.01 Q2497.95 3121.01 2500.68 3117.32 Q2503.42 3113.63 2503.42 3107.26 Q2503.42 3100.93 2500.68 3097.23 Q2497.95 3093.51 2493.27 3093.51 M2493.27 3088.54 Q2500.91 3088.54 2505.27 3093.51 Q2509.63 3098.47 2509.63 3107.26 Q2509.63 3116.01 2505.27 3121.01 Q2500.91 3125.97 2493.27 3125.97 Q2485.6 3125.97 2481.24 3121.01 Q2476.91 3116.01 2476.91 3107.26 Q2476.91 3098.47 2481.24 3093.51 Q2485.6 3088.54 2493.27 3088.54 Z" fill="#000000" fill-rule="evenodd" fill-opacity="1" /><path clip-path="url(#clip210)" d="M2548.97 3103.54 L2548.97 3125.05 L2543.11 3125.05 L2543.11 3103.73 Q2543.11 3098.67 2541.14 3096.15 Q2539.16 3093.64 2535.22 3093.64 Q2530.48 3093.64 2527.74 3096.66 Q2525 3099.68 2525 3104.9 L2525 3125.05 L2519.11 3125.05 L2519.11 3089.4 L2525 3089.4 L2525 3094.94 Q2527.1 3091.73 2529.93 3090.14 Q2532.8 3088.54 2536.52 3088.54 Q2542.67 3088.54 2545.82 3092.36 Q2548.97 3096.15 2548.97 3103.54 Z" fill="#000000" fill-rule="evenodd" fill-opacity="1" /><path clip-path="url(#clip210)" d="M2566.44 3079.28 L2566.44 3089.4 L2578.5 3089.4 L2578.5 3093.96 L2566.44 3093.96 L2566.44 3113.31 Q2566.44 3117.67 2567.62 3118.91 Q2568.83 3120.15 2572.49 3120.15 L2578.5 3120.15 L2578.5 3125.05 L2572.49 3125.05 Q2565.71 3125.05 2563.13 3122.54 Q2560.55 3119.99 2560.55 3113.31 L2560.55 3093.96 L2556.26 3093.96 L2556.26 3089.4 L2560.55 3089.4 L2560.55 3079.28 L2566.44 3079.28 Z" fill="#000000" fill-rule="evenodd" fill-opacity="1" /><path clip-path="url(#clip210)" d="M2615.84 3103.54 L2615.84 3125.05 L2609.98 3125.05 L2609.98 3103.73 Q2609.98 3098.67 2608.01 3096.15 Q2606.04 3093.64 2602.09 3093.64 Q2597.35 3093.64 2594.61 3096.66 Q2591.87 3099.68 2591.87 3104.9 L2591.87 3125.05 L2585.98 3125.05 L2585.98 3075.53 L2591.87 3075.53 L2591.87 3094.94 Q2593.97 3091.73 2596.81 3090.14 Q2599.67 3088.54 2603.39 3088.54 Q2609.54 3088.54 2612.69 3092.36 Q2615.84 3096.15 2615.84 3103.54 Z" fill="#000000" fill-rule="evenodd" fill-opacity="1" /><polyline clip-path="url(#clip212)" style="stroke:#000000; stroke-linecap:round; stroke-linejoin:round; stroke-width:2; stroke-opacity:0.1; fill:none" points="
  349.543,2866.14 4689.76,2866.14 
  "/>
<polyline clip-path="url(#clip212)" style="stroke:#000000; stroke-linecap:round; stroke-linejoin:round; stroke-width:2; stroke-opacity:0.1; fill:none" points="
  349.543,2039.13 4689.76,2039.13 
  "/>
<polyline clip-path="url(#clip212)" style="stroke:#000000; stroke-linecap:round; stroke-linejoin:round; stroke-width:2; stroke-opacity:0.1; fill:none" points="
  349.543,1212.12 4689.76,1212.12 
  "/>
<polyline clip-path="url(#clip212)" style="stroke:#000000; stroke-linecap:round; stroke-linejoin:round; stroke-width:2; stroke-opacity:0.1; fill:none" points="
  349.543,385.109 4689.76,385.109 
  "/>
<polyline clip-path="url(#clip210)" style="stroke:#000000; stroke-linecap:round; stroke-linejoin:round; stroke-width:4; stroke-opacity:1; fill:none" points="
  349.543,2944.19 349.543,186.464 
  "/>
<polyline clip-path="url(#clip210)" style="stroke:#000000; stroke-linecap:round; stroke-linejoin:round; stroke-width:4; stroke-opacity:1; fill:none" points="
  349.543,2866.14 368.441,2866.14 
  "/>
<polyline clip-path="url(#clip210)" style="stroke:#000000; stroke-linecap:round; stroke-linejoin:round; stroke-width:4; stroke-opacity:1; fill:none" points="
  349.543,2039.13 368.441,2039.13 
  "/>
<polyline clip-path="url(#clip210)" style="stroke:#000000; stroke-linecap:round; stroke-linejoin:round; stroke-width:4; stroke-opacity:1; fill:none" points="
  349.543,1212.12 368.441,1212.12 
  "/>
<polyline clip-path="url(#clip210)" style="stroke:#000000; stroke-linecap:round; stroke-linejoin:round; stroke-width:4; stroke-opacity:1; fill:none" points="
  349.543,385.109 368.441,385.109 
  "/>
<path clip-path="url(#clip210)" d="M265.599 2851.94 Q261.988 2851.94 260.159 2855.5 Q258.354 2859.04 258.354 2866.17 Q258.354 2873.28 260.159 2876.84 Q261.988 2880.39 265.599 2880.39 Q269.233 2880.39 271.039 2876.84 Q272.867 2873.28 272.867 2866.17 Q272.867 2859.04 271.039 2855.5 Q269.233 2851.94 265.599 2851.94 M265.599 2848.23 Q271.409 2848.23 274.465 2852.84 Q277.543 2857.42 277.543 2866.17 Q277.543 2874.9 274.465 2879.51 Q271.409 2884.09 265.599 2884.09 Q259.789 2884.09 256.71 2879.51 Q253.655 2874.9 253.655 2866.17 Q253.655 2857.42 256.71 2852.84 Q259.789 2848.23 265.599 2848.23 Z" fill="#000000" fill-rule="evenodd" fill-opacity="1" /><path clip-path="url(#clip210)" d="M195.322 2021.85 L213.678 2021.85 L213.678 2025.78 L199.604 2025.78 L199.604 2034.26 Q200.622 2033.91 201.641 2033.75 Q202.659 2033.56 203.678 2033.56 Q209.465 2033.56 212.845 2036.73 Q216.224 2039.9 216.224 2045.32 Q216.224 2050.9 212.752 2054 Q209.28 2057.08 202.96 2057.08 Q200.785 2057.08 198.516 2056.71 Q196.271 2056.34 193.863 2055.6 L193.863 2050.9 Q195.947 2052.03 198.169 2052.59 Q200.391 2053.15 202.868 2053.15 Q206.872 2053.15 209.21 2051.04 Q211.548 2048.93 211.548 2045.32 Q211.548 2041.71 209.21 2039.6 Q206.872 2037.5 202.868 2037.5 Q200.993 2037.5 199.118 2037.91 Q197.266 2038.33 195.322 2039.21 L195.322 2021.85 Z" fill="#000000" fill-rule="evenodd" fill-opacity="1" /><path clip-path="url(#clip210)" d="M235.437 2024.93 Q231.826 2024.93 229.997 2028.49 Q228.192 2032.03 228.192 2039.16 Q228.192 2046.27 229.997 2049.83 Q231.826 2053.38 235.437 2053.38 Q239.071 2053.38 240.877 2049.83 Q242.706 2046.27 242.706 2039.16 Q242.706 2032.03 240.877 2028.49 Q239.071 2024.93 235.437 2024.93 M235.437 2021.22 Q241.247 2021.22 244.303 2025.83 Q247.381 2030.41 247.381 2039.16 Q247.381 2047.89 244.303 2052.5 Q241.247 2057.08 235.437 2057.08 Q229.627 2057.08 226.548 2052.5 Q223.493 2047.89 223.493 2039.16 Q223.493 2030.41 226.548 2025.83 Q229.627 2021.22 235.437 2021.22 Z" fill="#000000" fill-rule="evenodd" fill-opacity="1" /><path clip-path="url(#clip210)" d="M265.599 2024.93 Q261.988 2024.93 260.159 2028.49 Q258.354 2032.03 258.354 2039.16 Q258.354 2046.27 260.159 2049.83 Q261.988 2053.38 265.599 2053.38 Q269.233 2053.38 271.039 2049.83 Q272.867 2046.27 272.867 2039.16 Q272.867 2032.03 271.039 2028.49 Q269.233 2024.93 265.599 2024.93 M265.599 2021.22 Q271.409 2021.22 274.465 2025.83 Q277.543 2030.41 277.543 2039.16 Q277.543 2047.89 274.465 2052.5 Q271.409 2057.08 265.599 2057.08 Q259.789 2057.08 256.71 2052.5 Q253.655 2047.89 253.655 2039.16 Q253.655 2030.41 256.71 2025.83 Q259.789 2021.22 265.599 2021.22 Z" fill="#000000" fill-rule="evenodd" fill-opacity="1" /><path clip-path="url(#clip210)" d="M165.924 1225.46 L173.562 1225.46 L173.562 1199.1 L165.252 1200.76 L165.252 1196.51 L173.516 1194.84 L178.192 1194.84 L178.192 1225.46 L185.831 1225.46 L185.831 1229.4 L165.924 1229.4 L165.924 1225.46 Z" fill="#000000" fill-rule="evenodd" fill-opacity="1" /><path clip-path="url(#clip210)" d="M205.275 1197.92 Q201.664 1197.92 199.835 1201.48 Q198.03 1205.02 198.03 1212.15 Q198.03 1219.26 199.835 1222.83 Q201.664 1226.37 205.275 1226.37 Q208.909 1226.37 210.715 1222.83 Q212.544 1219.26 212.544 1212.15 Q212.544 1205.02 210.715 1201.48 Q208.909 1197.92 205.275 1197.92 M205.275 1194.21 Q211.085 1194.21 214.141 1198.82 Q217.22 1203.4 217.22 1212.15 Q217.22 1220.88 214.141 1225.49 Q211.085 1230.07 205.275 1230.07 Q199.465 1230.07 196.386 1225.49 Q193.331 1220.88 193.331 1212.15 Q193.331 1203.4 196.386 1198.82 Q199.465 1194.21 205.275 1194.21 Z" fill="#000000" fill-rule="evenodd" fill-opacity="1" /><path clip-path="url(#clip210)" d="M235.437 1197.92 Q231.826 1197.92 229.997 1201.48 Q228.192 1205.02 228.192 1212.15 Q228.192 1219.26 229.997 1222.83 Q231.826 1226.37 235.437 1226.37 Q239.071 1226.37 240.877 1222.83 Q242.706 1219.26 242.706 1212.15 Q242.706 1205.02 240.877 1201.48 Q239.071 1197.92 235.437 1197.92 M235.437 1194.21 Q241.247 1194.21 244.303 1198.82 Q247.381 1203.4 247.381 1212.15 Q247.381 1220.88 244.303 1225.49 Q241.247 1230.07 235.437 1230.07 Q229.627 1230.07 226.548 1225.49 Q223.493 1220.88 223.493 1212.15 Q223.493 1203.4 226.548 1198.82 Q229.627 1194.21 235.437 1194.21 Z" fill="#000000" fill-rule="evenodd" fill-opacity="1" /><path clip-path="url(#clip210)" d="M265.599 1197.92 Q261.988 1197.92 260.159 1201.48 Q258.354 1205.02 258.354 1212.15 Q258.354 1219.26 260.159 1222.83 Q261.988 1226.37 265.599 1226.37 Q269.233 1226.37 271.039 1222.83 Q272.867 1219.26 272.867 1212.15 Q272.867 1205.02 271.039 1201.48 Q269.233 1197.92 265.599 1197.92 M265.599 1194.21 Q271.409 1194.21 274.465 1198.82 Q277.543 1203.4 277.543 1212.15 Q277.543 1220.88 274.465 1225.49 Q271.409 1230.07 265.599 1230.07 Q259.789 1230.07 256.71 1225.49 Q253.655 1220.88 253.655 1212.15 Q253.655 1203.4 256.71 1198.82 Q259.789 1194.21 265.599 1194.21 Z" fill="#000000" fill-rule="evenodd" fill-opacity="1" /><path clip-path="url(#clip210)" d="M165.924 398.454 L173.562 398.454 L173.562 372.088 L165.252 373.755 L165.252 369.496 L173.516 367.829 L178.192 367.829 L178.192 398.454 L185.831 398.454 L185.831 402.389 L165.924 402.389 L165.924 398.454 Z" fill="#000000" fill-rule="evenodd" fill-opacity="1" /><path clip-path="url(#clip210)" d="M195.322 367.829 L213.678 367.829 L213.678 371.764 L199.604 371.764 L199.604 380.236 Q200.622 379.889 201.641 379.727 Q202.659 379.542 203.678 379.542 Q209.465 379.542 212.845 382.713 Q216.224 385.885 216.224 391.301 Q216.224 396.88 212.752 399.982 Q209.28 403.06 202.96 403.06 Q200.785 403.06 198.516 402.69 Q196.271 402.32 193.863 401.579 L193.863 396.88 Q195.947 398.014 198.169 398.57 Q200.391 399.125 202.868 399.125 Q206.872 399.125 209.21 397.019 Q211.548 394.912 211.548 391.301 Q211.548 387.69 209.21 385.584 Q206.872 383.477 202.868 383.477 Q200.993 383.477 199.118 383.894 Q197.266 384.311 195.322 385.19 L195.322 367.829 Z" fill="#000000" fill-rule="evenodd" fill-opacity="1" /><path clip-path="url(#clip210)" d="M235.437 370.908 Q231.826 370.908 229.997 374.473 Q228.192 378.014 228.192 385.144 Q228.192 392.25 229.997 395.815 Q231.826 399.357 235.437 399.357 Q239.071 399.357 240.877 395.815 Q242.706 392.25 242.706 385.144 Q242.706 378.014 240.877 374.473 Q239.071 370.908 235.437 370.908 M235.437 367.204 Q241.247 367.204 244.303 371.811 Q247.381 376.394 247.381 385.144 Q247.381 393.871 244.303 398.477 Q241.247 403.06 235.437 403.06 Q229.627 403.06 226.548 398.477 Q223.493 393.871 223.493 385.144 Q223.493 376.394 226.548 371.811 Q229.627 367.204 235.437 367.204 Z" fill="#000000" fill-rule="evenodd" fill-opacity="1" /><path clip-path="url(#clip210)" d="M265.599 370.908 Q261.988 370.908 260.159 374.473 Q258.354 378.014 258.354 385.144 Q258.354 392.25 260.159 395.815 Q261.988 399.357 265.599 399.357 Q269.233 399.357 271.039 395.815 Q272.867 392.25 272.867 385.144 Q272.867 378.014 271.039 374.473 Q269.233 370.908 265.599 370.908 M265.599 367.204 Q271.409 367.204 274.465 371.811 Q277.543 376.394 277.543 385.144 Q277.543 393.871 274.465 398.477 Q271.409 403.06 265.599 403.06 Q259.789 403.06 256.71 398.477 Q253.655 393.871 253.655 385.144 Q253.655 376.394 256.71 371.811 Q259.789 367.204 265.599 367.204 Z" fill="#000000" fill-rule="evenodd" fill-opacity="1" /><path clip-path="url(#clip210)" d="M31.4763 1908.84 L31.4763 1900.18 L71.2301 1879.11 L31.4763 1879.11 L31.4763 1872.87 L78.9963 1872.87 L78.9963 1881.53 L39.2424 1902.6 L78.9963 1902.6 L78.9963 1908.84 L31.4763 1908.84 Z" fill="#000000" fill-rule="evenodd" fill-opacity="1" /><path clip-path="url(#clip210)" d="M59.7082 1829.84 L62.5728 1829.84 L62.5728 1856.76 Q68.6202 1856.38 71.803 1853.14 Q74.9541 1849.86 74.9541 1844.03 Q74.9541 1840.66 74.1265 1837.51 Q73.299 1834.32 71.6439 1831.21 L77.1821 1831.21 Q78.5189 1834.36 79.2191 1837.67 Q79.9193 1840.98 79.9193 1844.38 Q79.9193 1852.91 74.9541 1857.91 Q69.9888 1862.88 61.5224 1862.88 Q52.7696 1862.88 47.6452 1858.16 Q42.489 1853.42 42.489 1845.4 Q42.489 1838.21 47.1359 1834.04 Q51.7511 1829.84 59.7082 1829.84 M57.9895 1835.69 Q53.1833 1835.76 50.3188 1838.4 Q47.4542 1841.01 47.4542 1845.34 Q47.4542 1850.24 50.2233 1853.2 Q52.9924 1856.13 58.0213 1856.57 L57.9895 1835.69 Z" fill="#000000" fill-rule="evenodd" fill-opacity="1" /><path clip-path="url(#clip210)" d="M43.3483 1823.63 L43.3483 1817.77 L71.1665 1810.45 L43.3483 1803.16 L43.3483 1796.26 L71.1665 1788.94 L43.3483 1781.65 L43.3483 1775.79 L78.9963 1785.12 L78.9963 1792.02 L49.7777 1799.7 L78.9963 1807.4 L78.9963 1814.3 L43.3483 1823.63 Z" fill="#000000" fill-rule="evenodd" fill-opacity="1" /><path clip-path="url(#clip210)" d="M61.2041 1720.6 Q54.7429 1720.6 51.0827 1723.28 Q47.3906 1725.92 47.3906 1730.56 Q47.3906 1735.21 51.0827 1737.88 Q54.7429 1740.53 61.2041 1740.53 Q67.6653 1740.53 71.3574 1737.88 Q75.0177 1735.21 75.0177 1730.56 Q75.0177 1725.92 71.3574 1723.28 Q67.6653 1720.6 61.2041 1720.6 M48.7592 1740.53 Q45.5763 1738.68 44.0486 1735.88 Q42.489 1733.05 42.489 1729.13 Q42.489 1722.64 47.6452 1718.6 Q52.8014 1714.52 61.2041 1714.52 Q69.6069 1714.52 74.7631 1718.6 Q79.9193 1722.64 79.9193 1729.13 Q79.9193 1733.05 78.3915 1735.88 Q76.8319 1738.68 73.6491 1740.53 L78.9963 1740.53 L78.9963 1746.41 L29.4711 1746.41 L29.4711 1740.53 L48.7592 1740.53 Z" fill="#000000" fill-rule="evenodd" fill-opacity="1" /><path clip-path="url(#clip210)" d="M43.3483 1704.81 L43.3483 1698.96 L78.9963 1698.96 L78.9963 1704.81 L43.3483 1704.81 M29.4711 1704.81 L29.4711 1698.96 L36.8871 1698.96 L36.8871 1704.81 L29.4711 1704.81 Z" fill="#000000" fill-rule="evenodd" fill-opacity="1" /><path clip-path="url(#clip210)" d="M29.4711 1686.93 L29.4711 1681.04 L58.7215 1681.04 L43.3483 1663.56 L43.3483 1656.09 L60.0265 1674.99 L78.9963 1655.29 L78.9963 1662.93 L61.5861 1681.04 L78.9963 1681.04 L78.9963 1686.93 L29.4711 1686.93 Z" fill="#000000" fill-rule="evenodd" fill-opacity="1" /><path clip-path="url(#clip210)" d="M59.7082 1620.79 L62.5728 1620.79 L62.5728 1647.71 Q68.6202 1647.33 71.803 1644.09 Q74.9541 1640.81 74.9541 1634.98 Q74.9541 1631.61 74.1265 1628.46 Q73.299 1625.28 71.6439 1622.16 L77.1821 1622.16 Q78.5189 1625.31 79.2191 1628.62 Q79.9193 1631.93 79.9193 1635.33 Q79.9193 1643.86 74.9541 1648.86 Q69.9888 1653.83 61.5224 1653.83 Q52.7696 1653.83 47.6452 1649.11 Q42.489 1644.37 42.489 1636.35 Q42.489 1629.16 47.1359 1624.99 Q51.7511 1620.79 59.7082 1620.79 M57.9895 1626.64 Q53.1833 1626.71 50.3188 1629.35 Q47.4542 1631.96 47.4542 1636.29 Q47.4542 1641.19 50.2233 1644.15 Q52.9924 1647.08 58.0213 1647.52 L57.9895 1626.64 Z" fill="#000000" fill-rule="evenodd" fill-opacity="1" /><path clip-path="url(#clip210)" d="M44.3987 1567.73 L49.9368 1567.73 Q48.6637 1570.21 48.0271 1572.89 Q47.3906 1575.56 47.3906 1578.42 Q47.3906 1582.78 48.7273 1584.98 Q50.0641 1587.14 52.7377 1587.14 Q54.7748 1587.14 55.9524 1585.58 Q57.0983 1584.03 58.1486 1579.31 L58.5942 1577.31 Q59.931 1571.07 62.3818 1568.46 Q64.8008 1565.82 69.1613 1565.82 Q74.1265 1565.82 77.0229 1569.77 Q79.9193 1573.68 79.9193 1580.56 Q79.9193 1583.42 79.3464 1586.54 Q78.8053 1589.63 77.6913 1593.06 L71.6439 1593.06 Q73.3308 1589.82 74.1902 1586.67 Q75.0177 1583.52 75.0177 1580.43 Q75.0177 1576.29 73.6173 1574.06 Q72.185 1571.83 69.6069 1571.83 Q67.2197 1571.83 65.9466 1573.46 Q64.6734 1575.05 63.4958 1580.49 L63.0184 1582.53 Q61.8725 1587.97 59.5172 1590.39 Q57.1301 1592.81 52.9924 1592.81 Q47.9635 1592.81 45.2262 1589.25 Q42.489 1585.68 42.489 1579.12 Q42.489 1575.88 42.9664 1573.01 Q43.4438 1570.15 44.3987 1567.73 Z" fill="#000000" fill-rule="evenodd" fill-opacity="1" /><path clip-path="url(#clip210)" d="M57.4802 1526.86 L78.9963 1526.86 L78.9963 1532.72 L57.6712 1532.72 Q52.6104 1532.72 50.096 1534.69 Q47.5815 1536.66 47.5815 1540.61 Q47.5815 1545.35 50.6052 1548.09 Q53.6289 1550.83 58.8488 1550.83 L78.9963 1550.83 L78.9963 1556.72 L29.4711 1556.72 L29.4711 1550.83 L48.8865 1550.83 Q45.6718 1548.73 44.0804 1545.89 Q42.489 1543.03 42.489 1539.31 Q42.489 1533.16 46.3084 1530.01 Q50.096 1526.86 57.4802 1526.86 Z" fill="#000000" fill-rule="evenodd" fill-opacity="1" /><path clip-path="url(#clip210)" d="M61.0768 1498.98 Q61.0768 1506.08 62.7001 1508.81 Q64.3233 1511.55 68.2382 1511.55 Q71.3574 1511.55 73.2035 1509.51 Q75.0177 1507.45 75.0177 1503.91 Q75.0177 1499.04 71.5802 1496.11 Q68.1109 1493.15 62.3818 1493.15 L61.0768 1493.15 L61.0768 1498.98 M58.6579 1487.3 L78.9963 1487.3 L78.9963 1493.15 L73.5854 1493.15 Q76.8319 1495.16 78.3915 1498.15 Q79.9193 1501.14 79.9193 1505.47 Q79.9193 1510.95 76.8638 1514.19 Q73.7764 1517.41 68.6202 1517.41 Q62.6046 1517.41 59.549 1513.4 Q56.4935 1509.36 56.4935 1501.37 L56.4935 1493.15 L55.9206 1493.15 Q51.8784 1493.15 49.6822 1495.83 Q47.4542 1498.47 47.4542 1503.28 Q47.4542 1506.33 48.1863 1509.23 Q48.9183 1512.12 50.3824 1514.8 L44.9716 1514.8 Q43.7303 1511.58 43.1255 1508.56 Q42.489 1505.54 42.489 1502.67 Q42.489 1494.94 46.4994 1491.12 Q50.5097 1487.3 58.6579 1487.3 Z" fill="#000000" fill-rule="evenodd" fill-opacity="1" /><path clip-path="url(#clip210)" d="M48.8228 1454.58 Q48.2499 1455.57 47.9953 1456.74 Q47.7088 1457.89 47.7088 1459.29 Q47.7088 1464.25 50.9553 1466.93 Q54.17 1469.57 60.2174 1469.57 L78.9963 1469.57 L78.9963 1475.46 L43.3483 1475.46 L43.3483 1469.57 L48.8865 1469.57 Q45.64 1467.72 44.0804 1464.76 Q42.489 1461.8 42.489 1457.57 Q42.489 1456.97 42.5844 1456.23 Q42.6481 1455.5 42.8072 1454.61 L48.8228 1454.58 Z" fill="#000000" fill-rule="evenodd" fill-opacity="1" /><path clip-path="url(#clip210)" d="M59.7082 1419.38 L62.5728 1419.38 L62.5728 1446.3 Q68.6202 1445.92 71.803 1442.67 Q74.9541 1439.4 74.9541 1433.57 Q74.9541 1430.2 74.1265 1427.05 Q73.299 1423.86 71.6439 1420.74 L77.1821 1420.74 Q78.5189 1423.9 79.2191 1427.21 Q79.9193 1430.52 79.9193 1433.92 Q79.9193 1442.45 74.9541 1447.45 Q69.9888 1452.41 61.5224 1452.41 Q52.7696 1452.41 47.6452 1447.7 Q42.489 1442.96 42.489 1434.94 Q42.489 1427.75 47.1359 1423.58 Q51.7511 1419.38 59.7082 1419.38 M57.9895 1425.23 Q53.1833 1425.3 50.3188 1427.94 Q47.4542 1430.55 47.4542 1434.88 Q47.4542 1439.78 50.2233 1442.74 Q52.9924 1445.67 58.0213 1446.11 L57.9895 1425.23 Z" fill="#000000" fill-rule="evenodd" fill-opacity="1" /><path clip-path="url(#clip210)" d="M44.717 1363.39 L50.1915 1363.39 Q48.8228 1365.87 48.1544 1368.39 Q47.4542 1370.87 47.4542 1373.42 Q47.4542 1379.11 51.0827 1382.26 Q54.6793 1385.42 61.2041 1385.42 Q67.729 1385.42 71.3574 1382.26 Q74.9541 1379.11 74.9541 1373.42 Q74.9541 1370.87 74.2857 1368.39 Q73.5854 1365.87 72.2168 1363.39 L77.6277 1363.39 Q78.7735 1365.84 79.3464 1368.48 Q79.9193 1371.09 79.9193 1374.05 Q79.9193 1382.11 74.8586 1386.85 Q69.7978 1391.59 61.2041 1391.59 Q52.4831 1391.59 47.486 1386.82 Q42.489 1382.01 42.489 1373.67 Q42.489 1370.97 43.0619 1368.39 Q43.603 1365.81 44.717 1363.39 Z" fill="#000000" fill-rule="evenodd" fill-opacity="1" /><path clip-path="url(#clip210)" d="M47.4542 1339.39 Q47.4542 1344.1 51.1463 1346.84 Q54.8066 1349.58 61.2041 1349.58 Q67.6017 1349.58 71.2938 1346.87 Q74.9541 1344.13 74.9541 1339.39 Q74.9541 1334.71 71.2619 1331.98 Q67.5698 1329.24 61.2041 1329.24 Q54.8703 1329.24 51.1781 1331.98 Q47.4542 1334.71 47.4542 1339.39 M42.489 1339.39 Q42.489 1331.75 47.4542 1327.39 Q52.4195 1323.03 61.2041 1323.03 Q69.957 1323.03 74.9541 1327.39 Q79.9193 1331.75 79.9193 1339.39 Q79.9193 1347.06 74.9541 1351.42 Q69.957 1355.75 61.2041 1355.75 Q52.4195 1355.75 47.4542 1351.42 Q42.489 1347.06 42.489 1339.39 Z" fill="#000000" fill-rule="evenodd" fill-opacity="1" /><path clip-path="url(#clip210)" d="M64.9281 1313.93 L43.3483 1313.93 L43.3483 1308.07 L64.7053 1308.07 Q69.766 1308.07 72.3123 1306.1 Q74.8267 1304.13 74.8267 1300.18 Q74.8267 1295.44 71.803 1292.7 Q68.7793 1289.93 63.5594 1289.93 L43.3483 1289.93 L43.3483 1284.07 L78.9963 1284.07 L78.9963 1289.93 L73.5218 1289.93 Q76.7683 1292.06 78.3597 1294.89 Q79.9193 1297.7 79.9193 1301.42 Q79.9193 1307.56 76.0999 1310.75 Q72.2805 1313.93 64.9281 1313.93 M42.489 1299.19 L42.489 1299.19 Z" fill="#000000" fill-rule="evenodd" fill-opacity="1" /><path clip-path="url(#clip210)" d="M33.2269 1266.22 L43.3483 1266.22 L43.3483 1254.15 L47.8998 1254.15 L47.8998 1266.22 L67.2516 1266.22 Q71.6121 1266.22 72.8534 1265.04 Q74.0947 1263.83 74.0947 1260.17 L74.0947 1254.15 L78.9963 1254.15 L78.9963 1260.17 Q78.9963 1266.95 76.4818 1269.53 Q73.9355 1272.11 67.2516 1272.11 L47.8998 1272.11 L47.8998 1276.4 L43.3483 1276.4 L43.3483 1272.11 L33.2269 1272.11 L33.2269 1266.22 Z" fill="#000000" fill-rule="evenodd" fill-opacity="1" /><path clip-path="url(#clip210)" d="M44.3987 1223.73 L49.9368 1223.73 Q48.6637 1226.21 48.0271 1228.88 Q47.3906 1231.56 47.3906 1234.42 Q47.3906 1238.78 48.7273 1240.98 Q50.0641 1243.14 52.7377 1243.14 Q54.7748 1243.14 55.9524 1241.58 Q57.0983 1240.02 58.1486 1235.31 L58.5942 1233.31 Q59.931 1227.07 62.3818 1224.46 Q64.8008 1221.82 69.1613 1221.82 Q74.1265 1221.82 77.0229 1225.76 Q79.9193 1229.68 79.9193 1236.55 Q79.9193 1239.42 79.3464 1242.54 Q78.8053 1245.62 77.6913 1249.06 L71.6439 1249.06 Q73.3308 1245.82 74.1902 1242.66 Q75.0177 1239.51 75.0177 1236.43 Q75.0177 1232.29 73.6173 1230.06 Q72.185 1227.83 69.6069 1227.83 Q67.2197 1227.83 65.9466 1229.46 Q64.6734 1231.05 63.4958 1236.49 L63.0184 1238.53 Q61.8725 1243.97 59.5172 1246.39 Q57.1301 1248.81 52.9924 1248.81 Q47.9635 1248.81 45.2262 1245.24 Q42.489 1241.68 42.489 1235.12 Q42.489 1231.87 42.9664 1229.01 Q43.4438 1226.15 44.3987 1223.73 Z" fill="#000000" fill-rule="evenodd" fill-opacity="1" /><path clip-path="url(#clip210)" d="M1676.92 18.8205 L1676.92 65.8515 L1686.81 65.8515 Q1699.33 65.8515 1705.12 60.1802 Q1710.95 54.509 1710.95 42.2752 Q1710.95 30.1225 1705.12 24.4918 Q1699.33 18.8205 1686.81 18.8205 L1676.92 18.8205 M1668.74 12.096 L1685.55 12.096 Q1703.13 12.096 1711.36 19.4281 Q1719.58 26.7198 1719.58 42.2752 Q1719.58 57.9117 1711.32 65.2439 Q1703.05 72.576 1685.55 72.576 L1668.74 72.576 L1668.74 12.096 Z" fill="#000000" fill-rule="evenodd" fill-opacity="1" /><path clip-path="url(#clip210)" d="M1732.3 27.2059 L1739.75 27.2059 L1739.75 72.576 L1732.3 72.576 L1732.3 27.2059 M1732.3 9.54393 L1739.75 9.54393 L1739.75 18.9825 L1732.3 18.9825 L1732.3 9.54393 Z" fill="#000000" fill-rule="evenodd" fill-opacity="1" /><path clip-path="url(#clip210)" d="M1784.27 28.5427 L1784.27 35.5912 Q1781.11 33.9709 1777.71 33.1607 Q1774.31 32.3505 1770.66 32.3505 Q1765.11 32.3505 1762.32 34.0519 Q1759.56 35.7533 1759.56 39.156 Q1759.56 41.7486 1761.55 43.2475 Q1763.53 44.7058 1769.53 46.0426 L1772.08 46.6097 Q1780.02 48.3111 1783.34 51.4303 Q1786.7 54.509 1786.7 60.0587 Q1786.7 66.3781 1781.68 70.0644 Q1776.7 73.7508 1767.95 73.7508 Q1764.3 73.7508 1760.33 73.0216 Q1756.4 72.3329 1752.03 70.9151 L1752.03 63.2184 Q1756.16 65.3654 1760.17 66.4591 Q1764.18 67.5124 1768.11 67.5124 Q1773.38 67.5124 1776.21 65.73 Q1779.05 63.9071 1779.05 60.6258 Q1779.05 57.5877 1776.98 55.9673 Q1774.96 54.3469 1768.03 52.8481 L1765.44 52.2405 Q1758.51 50.7821 1755.43 47.7845 Q1752.35 44.7463 1752.35 39.4801 Q1752.35 33.0797 1756.89 29.5959 Q1761.43 26.1121 1769.77 26.1121 Q1773.9 26.1121 1777.55 26.7198 Q1781.19 27.3274 1784.27 28.5427 Z" fill="#000000" fill-rule="evenodd" fill-opacity="1" /><path clip-path="url(#clip210)" d="M1805.95 14.324 L1805.95 27.2059 L1821.3 27.2059 L1821.3 32.9987 L1805.95 32.9987 L1805.95 57.6282 Q1805.95 63.1779 1807.44 64.7578 Q1808.98 66.3376 1813.64 66.3376 L1821.3 66.3376 L1821.3 72.576 L1813.64 72.576 Q1805.01 72.576 1801.73 69.3758 Q1798.45 66.1351 1798.45 57.6282 L1798.45 32.9987 L1792.98 32.9987 L1792.98 27.2059 L1798.45 27.2059 L1798.45 14.324 L1805.95 14.324 Z" fill="#000000" fill-rule="evenodd" fill-opacity="1" /><path clip-path="url(#clip210)" d="M1857.39 34.1734 Q1856.14 33.4443 1854.64 33.1202 Q1853.18 32.7556 1851.4 32.7556 Q1845.08 32.7556 1841.67 36.8875 Q1838.31 40.9789 1838.31 48.6757 L1838.31 72.576 L1830.82 72.576 L1830.82 27.2059 L1838.31 27.2059 L1838.31 34.2544 Q1840.66 30.1225 1844.43 28.1376 Q1848.2 26.1121 1853.58 26.1121 Q1854.35 26.1121 1855.29 26.2337 Q1856.22 26.3147 1857.35 26.5172 L1857.39 34.1734 Z" fill="#000000" fill-rule="evenodd" fill-opacity="1" /><path clip-path="url(#clip210)" d="M1865.21 27.2059 L1872.66 27.2059 L1872.66 72.576 L1865.21 72.576 L1865.21 27.2059 M1865.21 9.54393 L1872.66 9.54393 L1872.66 18.9825 L1865.21 18.9825 L1865.21 9.54393 Z" fill="#000000" fill-rule="evenodd" fill-opacity="1" /><path clip-path="url(#clip210)" d="M1920.83 49.9314 Q1920.83 41.7081 1917.43 37.0496 Q1914.06 32.3505 1908.15 32.3505 Q1902.23 32.3505 1898.83 37.0496 Q1895.47 41.7081 1895.47 49.9314 Q1895.47 58.1548 1898.83 62.8538 Q1902.23 67.5124 1908.15 67.5124 Q1914.06 67.5124 1917.43 62.8538 Q1920.83 58.1548 1920.83 49.9314 M1895.47 34.0924 Q1897.82 30.0415 1901.38 28.0971 Q1904.99 26.1121 1909.97 26.1121 Q1918.24 26.1121 1923.38 32.6746 Q1928.57 39.2371 1928.57 49.9314 Q1928.57 60.6258 1923.38 67.1883 Q1918.24 73.7508 1909.97 73.7508 Q1904.99 73.7508 1901.38 71.8063 Q1897.82 69.8214 1895.47 65.7705 L1895.47 72.576 L1887.98 72.576 L1887.98 9.54393 L1895.47 9.54393 L1895.47 34.0924 Z" fill="#000000" fill-rule="evenodd" fill-opacity="1" /><path clip-path="url(#clip210)" d="M1940.15 54.671 L1940.15 27.2059 L1947.61 27.2059 L1947.61 54.3874 Q1947.61 60.8284 1950.12 64.0691 Q1952.63 67.2693 1957.65 67.2693 Q1963.69 67.2693 1967.17 63.421 Q1970.7 59.5726 1970.7 52.9291 L1970.7 27.2059 L1978.15 27.2059 L1978.15 72.576 L1970.7 72.576 L1970.7 65.6084 Q1967.98 69.7404 1964.38 71.7658 Q1960.81 73.7508 1956.07 73.7508 Q1948.25 73.7508 1944.2 68.8897 Q1940.15 64.0286 1940.15 54.671 M1958.91 26.1121 L1958.91 26.1121 Z" fill="#000000" fill-rule="evenodd" fill-opacity="1" /><path clip-path="url(#clip210)" d="M2000.87 14.324 L2000.87 27.2059 L2016.23 27.2059 L2016.23 32.9987 L2000.87 32.9987 L2000.87 57.6282 Q2000.87 63.1779 2002.37 64.7578 Q2003.91 66.3376 2008.57 66.3376 L2016.23 66.3376 L2016.23 72.576 L2008.57 72.576 Q1999.94 72.576 1996.66 69.3758 Q1993.38 66.1351 1993.38 57.6282 L1993.38 32.9987 L1987.91 32.9987 L1987.91 27.2059 L1993.38 27.2059 L1993.38 14.324 L2000.87 14.324 Z" fill="#000000" fill-rule="evenodd" fill-opacity="1" /><path clip-path="url(#clip210)" d="M2026.03 27.2059 L2033.48 27.2059 L2033.48 72.576 L2026.03 72.576 L2026.03 27.2059 M2026.03 9.54393 L2033.48 9.54393 L2033.48 18.9825 L2026.03 18.9825 L2026.03 9.54393 Z" fill="#000000" fill-rule="evenodd" fill-opacity="1" /><path clip-path="url(#clip210)" d="M2066.66 32.4315 Q2060.67 32.4315 2057.18 37.1306 Q2053.7 41.7891 2053.7 49.9314 Q2053.7 58.0738 2057.14 62.7728 Q2060.63 67.4314 2066.66 67.4314 Q2072.62 67.4314 2076.1 62.7323 Q2079.58 58.0333 2079.58 49.9314 Q2079.58 41.8701 2076.1 37.1711 Q2072.62 32.4315 2066.66 32.4315 M2066.66 26.1121 Q2076.38 26.1121 2081.93 32.4315 Q2087.48 38.7509 2087.48 49.9314 Q2087.48 61.0714 2081.93 67.4314 Q2076.38 73.7508 2066.66 73.7508 Q2056.9 73.7508 2051.35 67.4314 Q2045.84 61.0714 2045.84 49.9314 Q2045.84 38.7509 2051.35 32.4315 Q2056.9 26.1121 2066.66 26.1121 Z" fill="#000000" fill-rule="evenodd" fill-opacity="1" /><path clip-path="url(#clip210)" d="M2137.55 45.1919 L2137.55 72.576 L2130.1 72.576 L2130.1 45.4349 Q2130.1 38.994 2127.59 35.7938 Q2125.08 32.5936 2120.05 32.5936 Q2114.02 32.5936 2110.53 36.4419 Q2107.05 40.2903 2107.05 46.9338 L2107.05 72.576 L2099.55 72.576 L2099.55 27.2059 L2107.05 27.2059 L2107.05 34.2544 Q2109.72 30.163 2113.33 28.1376 Q2116.97 26.1121 2121.71 26.1121 Q2129.53 26.1121 2133.54 30.9732 Q2137.55 35.7938 2137.55 45.1919 Z" fill="#000000" fill-rule="evenodd" fill-opacity="1" /><path clip-path="url(#clip210)" d="M2196.37 32.4315 Q2190.38 32.4315 2186.89 37.1306 Q2183.41 41.7891 2183.41 49.9314 Q2183.41 58.0738 2186.85 62.7728 Q2190.34 67.4314 2196.37 67.4314 Q2202.33 67.4314 2205.81 62.7323 Q2209.29 58.0333 2209.29 49.9314 Q2209.29 41.8701 2205.81 37.1711 Q2202.33 32.4315 2196.37 32.4315 M2196.37 26.1121 Q2206.09 26.1121 2211.64 32.4315 Q2217.19 38.7509 2217.19 49.9314 Q2217.19 61.0714 2211.64 67.4314 Q2206.09 73.7508 2196.37 73.7508 Q2186.61 73.7508 2181.06 67.4314 Q2175.55 61.0714 2175.55 49.9314 Q2175.55 38.7509 2181.06 32.4315 Q2186.61 26.1121 2196.37 26.1121 Z" fill="#000000" fill-rule="evenodd" fill-opacity="1" /><path clip-path="url(#clip210)" d="M2252.52 9.54393 L2252.52 15.7418 L2245.39 15.7418 Q2241.38 15.7418 2239.8 17.3622 Q2238.26 18.9825 2238.26 23.1955 L2238.26 27.2059 L2250.53 27.2059 L2250.53 32.9987 L2238.26 32.9987 L2238.26 72.576 L2230.76 72.576 L2230.76 32.9987 L2223.63 32.9987 L2223.63 27.2059 L2230.76 27.2059 L2230.76 24.0462 Q2230.76 16.471 2234.29 13.0277 Q2237.81 9.54393 2245.47 9.54393 L2252.52 9.54393 Z" fill="#000000" fill-rule="evenodd" fill-opacity="1" /><path clip-path="url(#clip210)" d="M2322.84 45.1919 L2322.84 72.576 L2315.39 72.576 L2315.39 45.4349 Q2315.39 38.994 2312.88 35.7938 Q2310.36 32.5936 2305.34 32.5936 Q2299.3 32.5936 2295.82 36.4419 Q2292.34 40.2903 2292.34 46.9338 L2292.34 72.576 L2284.84 72.576 L2284.84 27.2059 L2292.34 27.2059 L2292.34 34.2544 Q2295.01 30.163 2298.62 28.1376 Q2302.26 26.1121 2307 26.1121 Q2314.82 26.1121 2318.83 30.9732 Q2322.84 35.7938 2322.84 45.1919 Z" fill="#000000" fill-rule="evenodd" fill-opacity="1" /><path clip-path="url(#clip210)" d="M2376.51 48.0275 L2376.51 51.6733 L2342.24 51.6733 Q2342.73 59.3701 2346.86 63.421 Q2351.03 67.4314 2358.45 67.4314 Q2362.74 67.4314 2366.75 66.3781 Q2370.8 65.3249 2374.77 63.2184 L2374.77 70.267 Q2370.76 71.9684 2366.55 72.8596 Q2362.34 73.7508 2358 73.7508 Q2347.15 73.7508 2340.79 67.4314 Q2334.47 61.1119 2334.47 50.3365 Q2334.47 39.1965 2340.46 32.6746 Q2346.5 26.1121 2356.71 26.1121 Q2365.86 26.1121 2371.17 32.0264 Q2376.51 37.9003 2376.51 48.0275 M2369.06 45.84 Q2368.98 39.7232 2365.62 36.0774 Q2362.3 32.4315 2356.79 32.4315 Q2350.55 32.4315 2346.78 35.9558 Q2343.05 39.4801 2342.49 45.8805 L2369.06 45.84 Z" fill="#000000" fill-rule="evenodd" fill-opacity="1" /><path clip-path="url(#clip210)" d="M2384.41 27.2059 L2391.87 27.2059 L2401.18 62.6108 L2410.46 27.2059 L2419.25 27.2059 L2428.57 62.6108 L2437.85 27.2059 L2445.3 27.2059 L2433.43 72.576 L2424.64 72.576 L2414.88 35.3887 L2405.07 72.576 L2396.28 72.576 L2384.41 27.2059 Z" fill="#000000" fill-rule="evenodd" fill-opacity="1" /><path clip-path="url(#clip210)" d="M2515.54 49.9314 Q2515.54 41.7081 2512.14 37.0496 Q2508.78 32.3505 2502.86 32.3505 Q2496.95 32.3505 2493.55 37.0496 Q2490.18 41.7081 2490.18 49.9314 Q2490.18 58.1548 2493.55 62.8538 Q2496.95 67.5124 2502.86 67.5124 Q2508.78 67.5124 2512.14 62.8538 Q2515.54 58.1548 2515.54 49.9314 M2490.18 34.0924 Q2492.53 30.0415 2496.1 28.0971 Q2499.7 26.1121 2504.69 26.1121 Q2512.95 26.1121 2518.09 32.6746 Q2523.28 39.2371 2523.28 49.9314 Q2523.28 60.6258 2518.09 67.1883 Q2512.95 73.7508 2504.69 73.7508 Q2499.7 73.7508 2496.1 71.8063 Q2492.53 69.8214 2490.18 65.7705 L2490.18 72.576 L2482.69 72.576 L2482.69 9.54393 L2490.18 9.54393 L2490.18 34.0924 Z" fill="#000000" fill-rule="evenodd" fill-opacity="1" /><path clip-path="url(#clip210)" d="M2535.63 27.2059 L2543.09 27.2059 L2543.09 72.576 L2535.63 72.576 L2535.63 27.2059 M2535.63 9.54393 L2543.09 9.54393 L2543.09 18.9825 L2535.63 18.9825 L2535.63 9.54393 Z" fill="#000000" fill-rule="evenodd" fill-opacity="1" /><path clip-path="url(#clip210)" d="M2558.4 9.54393 L2565.89 9.54393 L2565.89 46.7717 L2588.13 27.2059 L2597.65 27.2059 L2573.59 48.4326 L2598.67 72.576 L2588.94 72.576 L2565.89 50.4176 L2565.89 72.576 L2558.4 72.576 L2558.4 9.54393 Z" fill="#000000" fill-rule="evenodd" fill-opacity="1" /><path clip-path="url(#clip210)" d="M2642.58 48.0275 L2642.58 51.6733 L2608.31 51.6733 Q2608.79 59.3701 2612.93 63.421 Q2617.1 67.4314 2624.51 67.4314 Q2628.81 67.4314 2632.82 66.3781 Q2636.87 65.3249 2640.84 63.2184 L2640.84 70.267 Q2636.83 71.9684 2632.61 72.8596 Q2628.4 73.7508 2624.07 73.7508 Q2613.21 73.7508 2606.85 67.4314 Q2600.53 61.1119 2600.53 50.3365 Q2600.53 39.1965 2606.53 32.6746 Q2612.56 26.1121 2622.77 26.1121 Q2631.92 26.1121 2637.23 32.0264 Q2642.58 37.9003 2642.58 48.0275 M2635.12 45.84 Q2635.04 39.7232 2631.68 36.0774 Q2628.36 32.4315 2622.85 32.4315 Q2616.61 32.4315 2612.84 35.9558 Q2609.12 39.4801 2608.55 45.8805 L2635.12 45.84 Z" fill="#000000" fill-rule="evenodd" fill-opacity="1" /><path clip-path="url(#clip210)" d="M2710.11 28.5427 L2710.11 35.5912 Q2706.95 33.9709 2703.54 33.1607 Q2700.14 32.3505 2696.5 32.3505 Q2690.95 32.3505 2688.15 34.0519 Q2685.4 35.7533 2685.4 39.156 Q2685.4 41.7486 2687.38 43.2475 Q2689.37 44.7058 2695.36 46.0426 L2697.91 46.6097 Q2705.85 48.3111 2709.18 51.4303 Q2712.54 54.509 2712.54 60.0587 Q2712.54 66.3781 2707.51 70.0644 Q2702.53 73.7508 2693.78 73.7508 Q2690.14 73.7508 2686.17 73.0216 Q2682.24 72.3329 2677.86 70.9151 L2677.86 63.2184 Q2681.99 65.3654 2686 66.4591 Q2690.01 67.5124 2693.94 67.5124 Q2699.21 67.5124 2702.05 65.73 Q2704.88 63.9071 2704.88 60.6258 Q2704.88 57.5877 2702.82 55.9673 Q2700.79 54.3469 2693.86 52.8481 L2691.27 52.2405 Q2684.34 50.7821 2681.26 47.7845 Q2678.19 44.7463 2678.19 39.4801 Q2678.19 33.0797 2682.72 29.5959 Q2687.26 26.1121 2695.6 26.1121 Q2699.74 26.1121 2703.38 26.7198 Q2707.03 27.3274 2710.11 28.5427 Z" fill="#000000" fill-rule="evenodd" fill-opacity="1" /><path clip-path="url(#clip210)" d="M2762.12 45.1919 L2762.12 72.576 L2754.67 72.576 L2754.67 45.4349 Q2754.67 38.994 2752.16 35.7938 Q2749.64 32.5936 2744.62 32.5936 Q2738.58 32.5936 2735.1 36.4419 Q2731.62 40.2903 2731.62 46.9338 L2731.62 72.576 L2724.12 72.576 L2724.12 9.54393 L2731.62 9.54393 L2731.62 34.2544 Q2734.29 30.163 2737.9 28.1376 Q2741.54 26.1121 2746.28 26.1121 Q2754.1 26.1121 2758.11 30.9732 Q2762.12 35.7938 2762.12 45.1919 Z" fill="#000000" fill-rule="evenodd" fill-opacity="1" /><path clip-path="url(#clip210)" d="M2797.61 49.7694 Q2788.57 49.7694 2785.09 51.8354 Q2781.61 53.9013 2781.61 58.8839 Q2781.61 62.8538 2784.2 65.2034 Q2786.83 67.5124 2791.33 67.5124 Q2797.53 67.5124 2801.25 63.1374 Q2805.02 58.7219 2805.02 51.4303 L2805.02 49.7694 L2797.61 49.7694 M2812.47 46.6907 L2812.47 72.576 L2805.02 72.576 L2805.02 65.6895 Q2802.47 69.8214 2798.66 71.8063 Q2794.85 73.7508 2789.34 73.7508 Q2782.37 73.7508 2778.24 69.8619 Q2774.15 65.9325 2774.15 59.3701 Q2774.15 51.7138 2779.26 47.825 Q2784.4 43.9361 2794.57 43.9361 L2805.02 43.9361 L2805.02 43.2069 Q2805.02 38.0623 2801.62 35.2672 Q2798.25 32.4315 2792.14 32.4315 Q2788.25 32.4315 2784.56 33.3632 Q2780.88 34.295 2777.47 36.1584 L2777.47 29.2718 Q2781.56 27.692 2785.41 26.9223 Q2789.26 26.1121 2792.91 26.1121 Q2802.75 26.1121 2807.61 31.2163 Q2812.47 36.3204 2812.47 46.6907 Z" fill="#000000" fill-rule="evenodd" fill-opacity="1" /><path clip-path="url(#clip210)" d="M2854.12 34.1734 Q2852.86 33.4443 2851.36 33.1202 Q2849.9 32.7556 2848.12 32.7556 Q2841.8 32.7556 2838.4 36.8875 Q2835.04 40.9789 2835.04 48.6757 L2835.04 72.576 L2827.54 72.576 L2827.54 27.2059 L2835.04 27.2059 L2835.04 34.2544 Q2837.39 30.1225 2841.15 28.1376 Q2844.92 26.1121 2850.31 26.1121 Q2851.08 26.1121 2852.01 26.2337 Q2852.94 26.3147 2854.08 26.5172 L2854.12 34.1734 Z" fill="#000000" fill-rule="evenodd" fill-opacity="1" /><path clip-path="url(#clip210)" d="M2898.92 48.0275 L2898.92 51.6733 L2864.65 51.6733 Q2865.13 59.3701 2869.27 63.421 Q2873.44 67.4314 2880.85 67.4314 Q2885.15 67.4314 2889.16 66.3781 Q2893.21 65.3249 2897.18 63.2184 L2897.18 70.267 Q2893.17 71.9684 2888.95 72.8596 Q2884.74 73.7508 2880.41 73.7508 Q2869.55 73.7508 2863.19 67.4314 Q2856.87 61.1119 2856.87 50.3365 Q2856.87 39.1965 2862.87 32.6746 Q2868.9 26.1121 2879.11 26.1121 Q2888.27 26.1121 2893.57 32.0264 Q2898.92 37.9003 2898.92 48.0275 M2891.47 45.84 Q2891.38 39.7232 2888.02 36.0774 Q2884.7 32.4315 2879.19 32.4315 Q2872.95 32.4315 2869.19 35.9558 Q2865.46 39.4801 2864.89 45.8805 L2891.47 45.84 Z" fill="#000000" fill-rule="evenodd" fill-opacity="1" /><path clip-path="url(#clip210)" d="M2940.08 28.5427 L2940.08 35.5912 Q2936.92 33.9709 2933.51 33.1607 Q2930.11 32.3505 2926.47 32.3505 Q2920.92 32.3505 2918.12 34.0519 Q2915.37 35.7533 2915.37 39.156 Q2915.37 41.7486 2917.35 43.2475 Q2919.34 44.7058 2925.33 46.0426 L2927.88 46.6097 Q2935.82 48.3111 2939.14 51.4303 Q2942.51 54.509 2942.51 60.0587 Q2942.51 66.3781 2937.48 70.0644 Q2932.5 73.7508 2923.75 73.7508 Q2920.11 73.7508 2916.14 73.0216 Q2912.21 72.3329 2907.83 70.9151 L2907.83 63.2184 Q2911.96 65.3654 2915.97 66.4591 Q2919.98 67.5124 2923.91 67.5124 Q2929.18 67.5124 2932.02 65.73 Q2934.85 63.9071 2934.85 60.6258 Q2934.85 57.5877 2932.79 55.9673 Q2930.76 54.3469 2923.83 52.8481 L2921.24 52.2405 Q2914.31 50.7821 2911.23 47.7845 Q2908.16 44.7463 2908.16 39.4801 Q2908.16 33.0797 2912.69 29.5959 Q2917.23 26.1121 2925.57 26.1121 Q2929.71 26.1121 2933.35 26.7198 Q2937 27.3274 2940.08 28.5427 Z" fill="#000000" fill-rule="evenodd" fill-opacity="1" /><path clip-path="url(#clip210)" d="M2980.75 27.2059 L2988.2 27.2059 L2988.2 72.576 L2980.75 72.576 L2980.75 27.2059 M2980.75 9.54393 L2988.2 9.54393 L2988.2 18.9825 L2980.75 18.9825 L2980.75 9.54393 Z" fill="#000000" fill-rule="evenodd" fill-opacity="1" /><path clip-path="url(#clip210)" d="M3041.51 45.1919 L3041.51 72.576 L3034.06 72.576 L3034.06 45.4349 Q3034.06 38.994 3031.55 35.7938 Q3029.03 32.5936 3024.01 32.5936 Q3017.98 32.5936 3014.49 36.4419 Q3011.01 40.2903 3011.01 46.9338 L3011.01 72.576 L3003.51 72.576 L3003.51 27.2059 L3011.01 27.2059 L3011.01 34.2544 Q3013.68 30.163 3017.29 28.1376 Q3020.93 26.1121 3025.67 26.1121 Q3033.49 26.1121 3037.5 30.9732 Q3041.51 35.7938 3041.51 45.1919 Z" fill="#000000" fill-rule="evenodd" fill-opacity="1" /><path clip-path="url(#clip210)" d="M3118.07 35.9153 Q3120.87 30.8922 3124.76 28.5022 Q3128.65 26.1121 3133.91 26.1121 Q3141 26.1121 3144.85 31.0947 Q3148.7 36.0368 3148.7 45.1919 L3148.7 72.576 L3141.2 72.576 L3141.2 45.4349 Q3141.2 38.913 3138.9 35.7533 Q3136.59 32.5936 3131.85 32.5936 Q3126.05 32.5936 3122.69 36.4419 Q3119.33 40.2903 3119.33 46.9338 L3119.33 72.576 L3111.83 72.576 L3111.83 45.4349 Q3111.83 38.8725 3109.53 35.7533 Q3107.22 32.5936 3102.4 32.5936 Q3096.68 32.5936 3093.32 36.4824 Q3089.96 40.3308 3089.96 46.9338 L3089.96 72.576 L3082.47 72.576 L3082.47 27.2059 L3089.96 27.2059 L3089.96 34.2544 Q3092.51 30.082 3096.08 28.0971 Q3099.64 26.1121 3104.54 26.1121 Q3109.49 26.1121 3112.93 28.6237 Q3116.41 31.1352 3118.07 35.9153 Z" fill="#000000" fill-rule="evenodd" fill-opacity="1" /><path clip-path="url(#clip210)" d="M3181.15 32.4315 Q3175.15 32.4315 3171.67 37.1306 Q3168.18 41.7891 3168.18 49.9314 Q3168.18 58.0738 3171.63 62.7728 Q3175.11 67.4314 3181.15 67.4314 Q3187.1 67.4314 3190.58 62.7323 Q3194.07 58.0333 3194.07 49.9314 Q3194.07 41.8701 3190.58 37.1711 Q3187.1 32.4315 3181.15 32.4315 M3181.15 26.1121 Q3190.87 26.1121 3196.42 32.4315 Q3201.97 38.7509 3201.97 49.9314 Q3201.97 61.0714 3196.42 67.4314 Q3190.87 73.7508 3181.15 73.7508 Q3171.38 73.7508 3165.83 67.4314 Q3160.32 61.0714 3160.32 49.9314 Q3160.32 38.7509 3165.83 32.4315 Q3171.38 26.1121 3181.15 26.1121 Z" fill="#000000" fill-rule="evenodd" fill-opacity="1" /><path clip-path="url(#clip210)" d="M3252.04 45.1919 L3252.04 72.576 L3244.58 72.576 L3244.58 45.4349 Q3244.58 38.994 3242.07 35.7938 Q3239.56 32.5936 3234.54 32.5936 Q3228.5 32.5936 3225.02 36.4419 Q3221.53 40.2903 3221.53 46.9338 L3221.53 72.576 L3214.04 72.576 L3214.04 27.2059 L3221.53 27.2059 L3221.53 34.2544 Q3224.21 30.163 3227.81 28.1376 Q3231.46 26.1121 3236.2 26.1121 Q3244.02 26.1121 3248.03 30.9732 Q3252.04 35.7938 3252.04 45.1919 Z" fill="#000000" fill-rule="evenodd" fill-opacity="1" /><path clip-path="url(#clip210)" d="M3274.28 14.324 L3274.28 27.2059 L3289.63 27.2059 L3289.63 32.9987 L3274.28 32.9987 L3274.28 57.6282 Q3274.28 63.1779 3275.78 64.7578 Q3277.31 66.3376 3281.97 66.3376 L3289.63 66.3376 L3289.63 72.576 L3281.97 72.576 Q3273.34 72.576 3270.06 69.3758 Q3266.78 66.1351 3266.78 57.6282 L3266.78 32.9987 L3261.31 32.9987 L3261.31 27.2059 L3266.78 27.2059 L3266.78 14.324 L3274.28 14.324 Z" fill="#000000" fill-rule="evenodd" fill-opacity="1" /><path clip-path="url(#clip210)" d="M3337.15 45.1919 L3337.15 72.576 L3329.69 72.576 L3329.69 45.4349 Q3329.69 38.994 3327.18 35.7938 Q3324.67 32.5936 3319.65 32.5936 Q3313.61 32.5936 3310.13 36.4419 Q3306.64 40.2903 3306.64 46.9338 L3306.64 72.576 L3299.15 72.576 L3299.15 9.54393 L3306.64 9.54393 L3306.64 34.2544 Q3309.32 30.163 3312.92 28.1376 Q3316.57 26.1121 3321.31 26.1121 Q3329.13 26.1121 3333.14 30.9732 Q3337.15 35.7938 3337.15 45.1919 Z" fill="#000000" fill-rule="evenodd" fill-opacity="1" /><path clip-path="url(#clip212)" d="
M584.55 1518.67 L584.55 2866.14 L715.744 2866.14 L715.744 1518.67 L584.55 1518.67 L584.55 1518.67  Z
  " fill="#009af9" fill-rule="evenodd" fill-opacity="1"/>
<polyline clip-path="url(#clip212)" style="stroke:#000000; stroke-linecap:round; stroke-linejoin:round; stroke-width:4; stroke-opacity:1; fill:none" points="
  584.55,1518.67 584.55,2866.14 715.744,2866.14 715.744,1518.67 584.55,1518.67 
  "/>
<path clip-path="url(#clip212)" d="
M912.534 1526.18 L912.534 2866.14 L1043.73 2866.14 L1043.73 1526.18 L912.534 1526.18 L912.534 1526.18  Z
  " fill="#009af9" fill-rule="evenodd" fill-opacity="1"/>
<polyline clip-path="url(#clip212)" style="stroke:#000000; stroke-linecap:round; stroke-linejoin:round; stroke-width:4; stroke-opacity:1; fill:none" points="
  912.534,1526.18 912.534,2866.14 1043.73,2866.14 1043.73,1526.18 912.534,1526.18 
  "/>
<path clip-path="url(#clip212)" d="
M1240.52 1308.51 L1240.52 2866.14 L1371.71 2866.14 L1371.71 1308.51 L1240.52 1308.51 L1240.52 1308.51  Z
  " fill="#009af9" fill-rule="evenodd" fill-opacity="1"/>
<polyline clip-path="url(#clip212)" style="stroke:#000000; stroke-linecap:round; stroke-linejoin:round; stroke-width:4; stroke-opacity:1; fill:none" points="
  1240.52,1308.51 1240.52,2866.14 1371.71,2866.14 1371.71,1308.51 1240.52,1308.51 
  "/>
<path clip-path="url(#clip212)" d="
M1568.5 953.13 L1568.5 2866.14 L1699.69 2866.14 L1699.69 953.13 L1568.5 953.13 L1568.5 953.13  Z
  " fill="#009af9" fill-rule="evenodd" fill-opacity="1"/>
<polyline clip-path="url(#clip212)" style="stroke:#000000; stroke-linecap:round; stroke-linejoin:round; stroke-width:4; stroke-opacity:1; fill:none" points="
  1568.5,953.13 1568.5,2866.14 1699.69,2866.14 1699.69,953.13 1568.5,953.13 
  "/>
<path clip-path="url(#clip212)" d="
M1896.48 875.506 L1896.48 2866.14 L2027.68 2866.14 L2027.68 875.506 L1896.48 875.506 L1896.48 875.506  Z
  " fill="#009af9" fill-rule="evenodd" fill-opacity="1"/>
<polyline clip-path="url(#clip212)" style="stroke:#000000; stroke-linecap:round; stroke-linejoin:round; stroke-width:4; stroke-opacity:1; fill:none" points="
  1896.48,875.506 1896.48,2866.14 2027.68,2866.14 2027.68,875.506 1896.48,875.506 
  "/>
<path clip-path="url(#clip212)" d="
M2224.47 482.569 L2224.47 2866.14 L2355.66 2866.14 L2355.66 482.569 L2224.47 482.569 L2224.47 482.569  Z
  " fill="#009af9" fill-rule="evenodd" fill-opacity="1"/>
<polyline clip-path="url(#clip212)" style="stroke:#000000; stroke-linecap:round; stroke-linejoin:round; stroke-width:4; stroke-opacity:1; fill:none" points="
  2224.47,482.569 2224.47,2866.14 2355.66,2866.14 2355.66,482.569 2224.47,482.569 
  "/>
<path clip-path="url(#clip212)" d="
M2552.45 361.222 L2552.45 2866.14 L2683.65 2866.14 L2683.65 361.222 L2552.45 361.222 L2552.45 361.222  Z
  " fill="#009af9" fill-rule="evenodd" fill-opacity="1"/>
<polyline clip-path="url(#clip212)" style="stroke:#000000; stroke-linecap:round; stroke-linejoin:round; stroke-width:4; stroke-opacity:1; fill:none" points="
  2552.45,361.222 2552.45,2866.14 2683.65,2866.14 2683.65,361.222 2552.45,361.222 
  "/>
<path clip-path="url(#clip212)" d="
M2880.44 567.516 L2880.44 2866.14 L3011.63 2866.14 L3011.63 567.516 L2880.44 567.516 L2880.44 567.516  Z
  " fill="#009af9" fill-rule="evenodd" fill-opacity="1"/>
<polyline clip-path="url(#clip212)" style="stroke:#000000; stroke-linecap:round; stroke-linejoin:round; stroke-width:4; stroke-opacity:1; fill:none" points="
  2880.44,567.516 2880.44,2866.14 3011.63,2866.14 3011.63,567.516 2880.44,567.516 
  "/>
<path clip-path="url(#clip212)" d="
M3208.42 789.942 L3208.42 2866.14 L3339.61 2866.14 L3339.61 789.942 L3208.42 789.942 L3208.42 789.942  Z
  " fill="#009af9" fill-rule="evenodd" fill-opacity="1"/>
<polyline clip-path="url(#clip212)" style="stroke:#000000; stroke-linecap:round; stroke-linejoin:round; stroke-width:4; stroke-opacity:1; fill:none" points="
  3208.42,789.942 3208.42,2866.14 3339.61,2866.14 3339.61,789.942 3208.42,789.942 
  "/>
<path clip-path="url(#clip212)" d="
M3536.4 922.113 L3536.4 2866.14 L3667.6 2866.14 L3667.6 922.113 L3536.4 922.113 L3536.4 922.113  Z
  " fill="#009af9" fill-rule="evenodd" fill-opacity="1"/>
<polyline clip-path="url(#clip212)" style="stroke:#000000; stroke-linecap:round; stroke-linejoin:round; stroke-width:4; stroke-opacity:1; fill:none" points="
  3536.4,922.113 3536.4,2866.14 3667.6,2866.14 3667.6,922.113 3536.4,922.113 
  "/>
<path clip-path="url(#clip212)" d="
M3864.39 1290.44 L3864.39 2866.14 L3995.58 2866.14 L3995.58 1290.44 L3864.39 1290.44 L3864.39 1290.44  Z
  " fill="#009af9" fill-rule="evenodd" fill-opacity="1"/>
<polyline clip-path="url(#clip212)" style="stroke:#000000; stroke-linecap:round; stroke-linejoin:round; stroke-width:4; stroke-opacity:1; fill:none" points="
  3864.39,1290.44 3864.39,2866.14 3995.58,2866.14 3995.58,1290.44 3864.39,1290.44 
  "/>
<path clip-path="url(#clip212)" d="
M4192.37 1518.7 L4192.37 2866.14 L4323.56 2866.14 L4323.56 1518.7 L4192.37 1518.7 L4192.37 1518.7  Z
  " fill="#009af9" fill-rule="evenodd" fill-opacity="1"/>
<polyline clip-path="url(#clip212)" style="stroke:#000000; stroke-linecap:round; stroke-linejoin:round; stroke-width:4; stroke-opacity:1; fill:none" points="
  4192.37,1518.7 4192.37,2866.14 4323.56,2866.14 4323.56,1518.7 4192.37,1518.7 
  "/>
<circle clip-path="url(#clip212)" style="fill:#009af9; stroke:none; fill-opacity:0" cx="650.147" cy="1518.67" r="2"/>
<circle clip-path="url(#clip212)" style="fill:#009af9; stroke:none; fill-opacity:0" cx="978.131" cy="1526.18" r="2"/>
<circle clip-path="url(#clip212)" style="fill:#009af9; stroke:none; fill-opacity:0" cx="1306.11" cy="1308.51" r="2"/>
<circle clip-path="url(#clip212)" style="fill:#009af9; stroke:none; fill-opacity:0" cx="1634.1" cy="953.13" r="2"/>
<circle clip-path="url(#clip212)" style="fill:#009af9; stroke:none; fill-opacity:0" cx="1962.08" cy="875.506" r="2"/>
<circle clip-path="url(#clip212)" style="fill:#009af9; stroke:none; fill-opacity:0" cx="2290.07" cy="482.569" r="2"/>
<circle clip-path="url(#clip212)" style="fill:#009af9; stroke:none; fill-opacity:0" cx="2618.05" cy="361.222" r="2"/>
<circle clip-path="url(#clip212)" style="fill:#009af9; stroke:none; fill-opacity:0" cx="2946.03" cy="567.516" r="2"/>
<circle clip-path="url(#clip212)" style="fill:#009af9; stroke:none; fill-opacity:0" cx="3274.02" cy="789.942" r="2"/>
<circle clip-path="url(#clip212)" style="fill:#009af9; stroke:none; fill-opacity:0" cx="3602" cy="922.113" r="2"/>
<circle clip-path="url(#clip212)" style="fill:#009af9; stroke:none; fill-opacity:0" cx="3929.98" cy="1290.44" r="2"/>
<circle clip-path="url(#clip212)" style="fill:#009af9; stroke:none; fill-opacity:0" cx="4257.97" cy="1518.7" r="2"/>
<path clip-path="url(#clip212)" d="
M715.744 1571.12 L715.744 2866.14 L846.937 2866.14 L846.937 1571.12 L715.744 1571.12 L715.744 1571.12  Z
  " fill="#e26f46" fill-rule="evenodd" fill-opacity="1"/>
<polyline clip-path="url(#clip212)" style="stroke:#000000; stroke-linecap:round; stroke-linejoin:round; stroke-width:4; stroke-opacity:1; fill:none" points="
  715.744,1571.12 715.744,2866.14 846.937,2866.14 846.937,1571.12 715.744,1571.12 
  "/>
<path clip-path="url(#clip212)" d="
M1043.73 1440.72 L1043.73 2866.14 L1174.92 2866.14 L1174.92 1440.72 L1043.73 1440.72 L1043.73 1440.72  Z
  " fill="#e26f46" fill-rule="evenodd" fill-opacity="1"/>
<polyline clip-path="url(#clip212)" style="stroke:#000000; stroke-linecap:round; stroke-linejoin:round; stroke-width:4; stroke-opacity:1; fill:none" points="
  1043.73,1440.72 1043.73,2866.14 1174.92,2866.14 1174.92,1440.72 1043.73,1440.72 
  "/>
<path clip-path="url(#clip212)" d="
M1371.71 1376.55 L1371.71 2866.14 L1502.9 2866.14 L1502.9 1376.55 L1371.71 1376.55 L1371.71 1376.55  Z
  " fill="#e26f46" fill-rule="evenodd" fill-opacity="1"/>
<polyline clip-path="url(#clip212)" style="stroke:#000000; stroke-linecap:round; stroke-linejoin:round; stroke-width:4; stroke-opacity:1; fill:none" points="
  1371.71,1376.55 1371.71,2866.14 1502.9,2866.14 1502.9,1376.55 1371.71,1376.55 
  "/>
<path clip-path="url(#clip212)" d="
M1699.69 1097.45 L1699.69 2866.14 L1830.89 2866.14 L1830.89 1097.45 L1699.69 1097.45 L1699.69 1097.45  Z
  " fill="#e26f46" fill-rule="evenodd" fill-opacity="1"/>
<polyline clip-path="url(#clip212)" style="stroke:#000000; stroke-linecap:round; stroke-linejoin:round; stroke-width:4; stroke-opacity:1; fill:none" points="
  1699.69,1097.45 1699.69,2866.14 1830.89,2866.14 1830.89,1097.45 1699.69,1097.45 
  "/>
<path clip-path="url(#clip212)" d="
M2027.68 638.692 L2027.68 2866.14 L2158.87 2866.14 L2158.87 638.692 L2027.68 638.692 L2027.68 638.692  Z
  " fill="#e26f46" fill-rule="evenodd" fill-opacity="1"/>
<polyline clip-path="url(#clip212)" style="stroke:#000000; stroke-linecap:round; stroke-linejoin:round; stroke-width:4; stroke-opacity:1; fill:none" points="
  2027.68,638.692 2027.68,2866.14 2158.87,2866.14 2158.87,638.692 2027.68,638.692 
  "/>
<path clip-path="url(#clip212)" d="
M2355.66 675.142 L2355.66 2866.14 L2486.86 2866.14 L2486.86 675.142 L2355.66 675.142 L2355.66 675.142  Z
  " fill="#e26f46" fill-rule="evenodd" fill-opacity="1"/>
<polyline clip-path="url(#clip212)" style="stroke:#000000; stroke-linecap:round; stroke-linejoin:round; stroke-width:4; stroke-opacity:1; fill:none" points="
  2355.66,675.142 2355.66,2866.14 2486.86,2866.14 2486.86,675.142 2355.66,675.142 
  "/>
<path clip-path="url(#clip212)" d="
M2683.65 264.513 L2683.65 2866.14 L2814.84 2866.14 L2814.84 264.513 L2683.65 264.513 L2683.65 264.513  Z
  " fill="#e26f46" fill-rule="evenodd" fill-opacity="1"/>
<polyline clip-path="url(#clip212)" style="stroke:#000000; stroke-linecap:round; stroke-linejoin:round; stroke-width:4; stroke-opacity:1; fill:none" points="
  2683.65,264.513 2683.65,2866.14 2814.84,2866.14 2814.84,264.513 2683.65,264.513 
  "/>
<path clip-path="url(#clip212)" d="
M3011.63 324.058 L3011.63 2866.14 L3142.82 2866.14 L3142.82 324.058 L3011.63 324.058 L3011.63 324.058  Z
  " fill="#e26f46" fill-rule="evenodd" fill-opacity="1"/>
<polyline clip-path="url(#clip212)" style="stroke:#000000; stroke-linecap:round; stroke-linejoin:round; stroke-width:4; stroke-opacity:1; fill:none" points="
  3011.63,324.058 3011.63,2866.14 3142.82,2866.14 3142.82,324.058 3011.63,324.058 
  "/>
<path clip-path="url(#clip212)" d="
M3339.61 447.785 L3339.61 2866.14 L3470.81 2866.14 L3470.81 447.785 L3339.61 447.785 L3339.61 447.785  Z
  " fill="#e26f46" fill-rule="evenodd" fill-opacity="1"/>
<polyline clip-path="url(#clip212)" style="stroke:#000000; stroke-linecap:round; stroke-linejoin:round; stroke-width:4; stroke-opacity:1; fill:none" points="
  3339.61,447.785 3339.61,2866.14 3470.81,2866.14 3470.81,447.785 3339.61,447.785 
  "/>
<path clip-path="url(#clip212)" d="
M3667.6 783.129 L3667.6 2866.14 L3798.79 2866.14 L3798.79 783.129 L3667.6 783.129 L3667.6 783.129  Z
  " fill="#e26f46" fill-rule="evenodd" fill-opacity="1"/>
<polyline clip-path="url(#clip212)" style="stroke:#000000; stroke-linecap:round; stroke-linejoin:round; stroke-width:4; stroke-opacity:1; fill:none" points="
  3667.6,783.129 3667.6,2866.14 3798.79,2866.14 3798.79,783.129 3667.6,783.129 
  "/>
<path clip-path="url(#clip212)" d="
M3995.58 1246.95 L3995.58 2866.14 L4126.77 2866.14 L4126.77 1246.95 L3995.58 1246.95 L3995.58 1246.95  Z
  " fill="#e26f46" fill-rule="evenodd" fill-opacity="1"/>
<polyline clip-path="url(#clip212)" style="stroke:#000000; stroke-linecap:round; stroke-linejoin:round; stroke-width:4; stroke-opacity:1; fill:none" points="
  3995.58,1246.95 3995.58,2866.14 4126.77,2866.14 4126.77,1246.95 3995.58,1246.95 
  "/>
<path clip-path="url(#clip212)" d="
M4323.56 1416.85 L4323.56 2866.14 L4454.76 2866.14 L4454.76 1416.85 L4323.56 1416.85 L4323.56 1416.85  Z
  " fill="#e26f46" fill-rule="evenodd" fill-opacity="1"/>
<polyline clip-path="url(#clip212)" style="stroke:#000000; stroke-linecap:round; stroke-linejoin:round; stroke-width:4; stroke-opacity:1; fill:none" points="
  4323.56,1416.85 4323.56,2866.14 4454.76,2866.14 4454.76,1416.85 4323.56,1416.85 
  "/>
<circle clip-path="url(#clip212)" style="fill:#e26f46; stroke:none; fill-opacity:0" cx="781.34" cy="1571.12" r="2"/>
<circle clip-path="url(#clip212)" style="fill:#e26f46; stroke:none; fill-opacity:0" cx="1109.32" cy="1440.72" r="2"/>
<circle clip-path="url(#clip212)" style="fill:#e26f46; stroke:none; fill-opacity:0" cx="1437.31" cy="1376.55" r="2"/>
<circle clip-path="url(#clip212)" style="fill:#e26f46; stroke:none; fill-opacity:0" cx="1765.29" cy="1097.45" r="2"/>
<circle clip-path="url(#clip212)" style="fill:#e26f46; stroke:none; fill-opacity:0" cx="2093.27" cy="638.692" r="2"/>
<circle clip-path="url(#clip212)" style="fill:#e26f46; stroke:none; fill-opacity:0" cx="2421.26" cy="675.142" r="2"/>
<circle clip-path="url(#clip212)" style="fill:#e26f46; stroke:none; fill-opacity:0" cx="2749.24" cy="264.513" r="2"/>
<circle clip-path="url(#clip212)" style="fill:#e26f46; stroke:none; fill-opacity:0" cx="3077.23" cy="324.058" r="2"/>
<circle clip-path="url(#clip212)" style="fill:#e26f46; stroke:none; fill-opacity:0" cx="3405.21" cy="447.785" r="2"/>
<circle clip-path="url(#clip212)" style="fill:#e26f46; stroke:none; fill-opacity:0" cx="3733.19" cy="783.129" r="2"/>
<circle clip-path="url(#clip212)" style="fill:#e26f46; stroke:none; fill-opacity:0" cx="4061.18" cy="1246.95" r="2"/>
<circle clip-path="url(#clip212)" style="fill:#e26f46; stroke:none; fill-opacity:0" cx="4389.16" cy="1416.85" r="2"/>
<path clip-path="url(#clip210)" d="
M3924.71 563.508 L4545.09 563.508 L4545.09 278.388 L3924.71 278.388  Z
  " fill="#ffffff" fill-rule="evenodd" fill-opacity="1"/>
<polyline clip-path="url(#clip210)" style="stroke:#000000; stroke-linecap:round; stroke-linejoin:round; stroke-width:4; stroke-opacity:1; fill:none" points="
  3924.71,563.508 4545.09,563.508 4545.09,278.388 3924.71,278.388 3924.71,563.508 
  "/>
<path clip-path="url(#clip210)" d="M4166.5 325.908 L4173.41 325.908 L4186.59 345.451 L4199.67 325.908 L4206.58 325.908 L4189.77 350.798 L4189.77 373.428 L4183.31 373.428 L4183.31 350.798 L4166.5 325.908 Z" fill="#000000" fill-rule="evenodd" fill-opacity="1" /><path clip-path="url(#clip210)" d="M4234.43 354.14 L4234.43 357.005 L4207.5 357.005 Q4207.88 363.052 4211.13 366.235 Q4214.41 369.386 4220.23 369.386 Q4223.6 369.386 4226.76 368.559 Q4229.94 367.731 4233.06 366.076 L4233.06 371.614 Q4229.91 372.951 4226.6 373.651 Q4223.29 374.351 4219.88 374.351 Q4211.35 374.351 4206.35 369.386 Q4201.39 364.421 4201.39 355.955 Q4201.39 347.202 4206.1 342.077 Q4210.84 336.921 4218.86 336.921 Q4226.06 336.921 4230.23 341.568 Q4234.43 346.183 4234.43 354.14 M4228.57 352.422 Q4228.51 347.615 4225.86 344.751 Q4223.25 341.886 4218.93 341.886 Q4214.02 341.886 4211.06 344.655 Q4208.14 347.424 4207.69 352.453 L4228.57 352.422 Z" fill="#000000" fill-rule="evenodd" fill-opacity="1" /><path clip-path="url(#clip210)" d="M4260.24 355.509 Q4253.14 355.509 4250.4 357.132 Q4247.67 358.755 4247.67 362.67 Q4247.67 365.79 4249.7 367.636 Q4251.77 369.45 4255.31 369.45 Q4260.18 369.45 4263.1 366.012 Q4266.06 362.543 4266.06 356.814 L4266.06 355.509 L4260.24 355.509 M4271.92 353.09 L4271.92 373.428 L4266.06 373.428 L4266.06 368.018 Q4264.06 371.264 4261.07 372.824 Q4258.08 374.351 4253.75 374.351 Q4248.27 374.351 4245.03 371.296 Q4241.81 368.208 4241.81 363.052 Q4241.81 357.037 4245.82 353.981 Q4249.86 350.926 4257.85 350.926 L4266.06 350.926 L4266.06 350.353 Q4266.06 346.31 4263.39 344.114 Q4260.75 341.886 4255.94 341.886 Q4252.89 341.886 4249.99 342.618 Q4247.09 343.35 4244.42 344.815 L4244.42 339.404 Q4247.64 338.162 4250.66 337.558 Q4253.68 336.921 4256.55 336.921 Q4264.28 336.921 4268.1 340.931 Q4271.92 344.942 4271.92 353.09 Z" fill="#000000" fill-rule="evenodd" fill-opacity="1" /><path clip-path="url(#clip210)" d="M4304.64 343.255 Q4303.65 342.682 4302.48 342.427 Q4301.33 342.141 4299.93 342.141 Q4294.96 342.141 4292.29 345.387 Q4289.65 348.602 4289.65 354.65 L4289.65 373.428 L4283.76 373.428 L4283.76 337.78 L4289.65 337.78 L4289.65 343.319 Q4291.5 340.072 4294.46 338.512 Q4297.42 336.921 4301.65 336.921 Q4302.25 336.921 4302.99 337.017 Q4303.72 337.08 4304.61 337.239 L4304.64 343.255 Z" fill="#000000" fill-rule="evenodd" fill-opacity="1" /><path clip-path="url(#clip210)" d="
M3972.93 449.46 L4262.28 449.46 L4262.28 392.436 L3972.93 392.436 L3972.93 449.46  Z
  " fill="#009af9" fill-rule="evenodd" fill-opacity="1"/>
<polyline clip-path="url(#clip210)" style="stroke:#000000; stroke-linecap:round; stroke-linejoin:round; stroke-width:4; stroke-opacity:1; fill:none" points="
  3972.93,449.46 4262.28,449.46 4262.28,392.436 3972.93,392.436 3972.93,449.46 
  "/>
<path clip-path="url(#clip210)" d="M4316.13 434.293 L4332.45 434.293 L4332.45 438.228 L4310.5 438.228 L4310.5 434.293 Q4313.17 431.539 4317.75 426.909 Q4322.36 422.256 4323.54 420.914 Q4325.78 418.391 4326.66 416.654 Q4327.56 414.895 4327.56 413.205 Q4327.56 410.451 4325.62 408.715 Q4323.7 406.979 4320.6 406.979 Q4318.4 406.979 4315.94 407.742 Q4313.51 408.506 4310.74 410.057 L4310.74 405.335 Q4313.56 404.201 4316.01 403.622 Q4318.47 403.043 4320.5 403.043 Q4325.87 403.043 4329.07 405.729 Q4332.26 408.414 4332.26 412.904 Q4332.26 415.034 4331.45 416.955 Q4330.67 418.853 4328.56 421.446 Q4327.98 422.117 4324.88 425.335 Q4321.78 428.529 4316.13 434.293 Z" fill="#000000" fill-rule="evenodd" fill-opacity="1" /><path clip-path="url(#clip210)" d="M4352.26 406.747 Q4348.65 406.747 4346.82 410.312 Q4345.02 413.853 4345.02 420.983 Q4345.02 428.09 4346.82 431.654 Q4348.65 435.196 4352.26 435.196 Q4355.9 435.196 4357.7 431.654 Q4359.53 428.09 4359.53 420.983 Q4359.53 413.853 4357.7 410.312 Q4355.9 406.747 4352.26 406.747 M4352.26 403.043 Q4358.07 403.043 4361.13 407.65 Q4364.21 412.233 4364.21 420.983 Q4364.21 429.71 4361.13 434.316 Q4358.07 438.9 4352.26 438.9 Q4346.45 438.9 4343.37 434.316 Q4340.32 429.71 4340.32 420.983 Q4340.32 412.233 4343.37 407.65 Q4346.45 403.043 4352.26 403.043 Z" fill="#000000" fill-rule="evenodd" fill-opacity="1" /><path clip-path="url(#clip210)" d="M4373.24 434.293 L4380.87 434.293 L4380.87 407.928 L4372.56 409.594 L4372.56 405.335 L4380.83 403.668 L4385.5 403.668 L4385.5 434.293 L4393.14 434.293 L4393.14 438.228 L4373.24 438.228 L4373.24 434.293 Z" fill="#000000" fill-rule="evenodd" fill-opacity="1" /><path clip-path="url(#clip210)" d="M4402.63 403.668 L4420.99 403.668 L4420.99 407.604 L4406.92 407.604 L4406.92 416.076 Q4407.93 415.728 4408.95 415.566 Q4409.97 415.381 4410.99 415.381 Q4416.78 415.381 4420.16 418.553 Q4423.54 421.724 4423.54 427.14 Q4423.54 432.719 4420.06 435.821 Q4416.59 438.9 4410.27 438.9 Q4408.1 438.9 4405.83 438.529 Q4403.58 438.159 4401.18 437.418 L4401.18 432.719 Q4403.26 433.853 4405.48 434.409 Q4407.7 434.964 4410.18 434.964 Q4414.18 434.964 4416.52 432.858 Q4418.86 430.752 4418.86 427.14 Q4418.86 423.529 4416.52 421.423 Q4414.18 419.316 4410.18 419.316 Q4408.3 419.316 4406.43 419.733 Q4404.58 420.15 4402.63 421.029 L4402.63 403.668 Z" fill="#000000" fill-rule="evenodd" fill-opacity="1" /><path clip-path="url(#clip210)" d="
M3972.93 520.74 L4262.28 520.74 L4262.28 463.716 L3972.93 463.716 L3972.93 520.74  Z
  " fill="#e26f46" fill-rule="evenodd" fill-opacity="1"/>
<polyline clip-path="url(#clip210)" style="stroke:#000000; stroke-linecap:round; stroke-linejoin:round; stroke-width:4; stroke-opacity:1; fill:none" points="
  3972.93,520.74 4262.28,520.74 4262.28,463.716 3972.93,463.716 3972.93,520.74 
  "/>
<path clip-path="url(#clip210)" d="M4316.13 505.573 L4332.45 505.573 L4332.45 509.508 L4310.5 509.508 L4310.5 505.573 Q4313.17 502.819 4317.75 498.189 Q4322.36 493.536 4323.54 492.194 Q4325.78 489.671 4326.66 487.934 Q4327.56 486.175 4327.56 484.485 Q4327.56 481.731 4325.62 479.995 Q4323.7 478.259 4320.6 478.259 Q4318.4 478.259 4315.94 479.022 Q4313.51 479.786 4310.74 481.337 L4310.74 476.615 Q4313.56 475.481 4316.01 474.902 Q4318.47 474.323 4320.5 474.323 Q4325.87 474.323 4329.07 477.009 Q4332.26 479.694 4332.26 484.184 Q4332.26 486.314 4331.45 488.235 Q4330.67 490.133 4328.56 492.726 Q4327.98 493.397 4324.88 496.615 Q4321.78 499.809 4316.13 505.573 Z" fill="#000000" fill-rule="evenodd" fill-opacity="1" /><path clip-path="url(#clip210)" d="M4352.26 478.027 Q4348.65 478.027 4346.82 481.592 Q4345.02 485.133 4345.02 492.263 Q4345.02 499.37 4346.82 502.934 Q4348.65 506.476 4352.26 506.476 Q4355.9 506.476 4357.7 502.934 Q4359.53 499.37 4359.53 492.263 Q4359.53 485.133 4357.7 481.592 Q4355.9 478.027 4352.26 478.027 M4352.26 474.323 Q4358.07 474.323 4361.13 478.93 Q4364.21 483.513 4364.21 492.263 Q4364.21 500.99 4361.13 505.596 Q4358.07 510.18 4352.26 510.18 Q4346.45 510.18 4343.37 505.596 Q4340.32 500.99 4340.32 492.263 Q4340.32 483.513 4343.37 478.93 Q4346.45 474.323 4352.26 474.323 Z" fill="#000000" fill-rule="evenodd" fill-opacity="1" /><path clip-path="url(#clip210)" d="M4373.24 505.573 L4380.87 505.573 L4380.87 479.208 L4372.56 480.874 L4372.56 476.615 L4380.83 474.948 L4385.5 474.948 L4385.5 505.573 L4393.14 505.573 L4393.14 509.508 L4373.24 509.508 L4373.24 505.573 Z" fill="#000000" fill-rule="evenodd" fill-opacity="1" /><path clip-path="url(#clip210)" d="M4413.17 490.365 Q4410.02 490.365 4408.17 492.518 Q4406.34 494.67 4406.34 498.42 Q4406.34 502.147 4408.17 504.323 Q4410.02 506.476 4413.17 506.476 Q4416.31 506.476 4418.14 504.323 Q4419.99 502.147 4419.99 498.42 Q4419.99 494.67 4418.14 492.518 Q4416.31 490.365 4413.17 490.365 M4422.45 475.712 L4422.45 479.971 Q4420.69 479.138 4418.88 478.698 Q4417.1 478.259 4415.34 478.259 Q4410.71 478.259 4408.26 481.384 Q4405.83 484.509 4405.48 490.828 Q4406.85 488.814 4408.91 487.749 Q4410.97 486.661 4413.44 486.661 Q4418.65 486.661 4421.66 489.833 Q4424.69 492.981 4424.69 498.42 Q4424.69 503.745 4421.55 506.962 Q4418.4 510.18 4413.17 510.18 Q4407.17 510.18 4404 505.596 Q4400.83 500.99 4400.83 492.263 Q4400.83 484.069 4404.72 479.208 Q4408.61 474.323 4415.16 474.323 Q4416.92 474.323 4418.7 474.671 Q4420.5 475.018 4422.45 475.712 Z" fill="#000000" fill-rule="evenodd" fill-opacity="1" /></svg>
