<?xml version="1.0" encoding="utf-8"?>
<svg xmlns="http://www.w3.org/2000/svg" xmlns:xlink="http://www.w3.org/1999/xlink" width="2000" height="800" viewBox="0 0 8000 3200">
<defs>
  <clipPath id="clip740">
    <rect x="0" y="0" width="8000" height="3200"/>
  </clipPath>
</defs>
<path clip-path="url(#clip740)" d="
M0 3200 L8000 3200 L8000 0 L0 0  Z
  " fill="#ffffff" fill-rule="evenodd" fill-opacity="1"/>
<defs>
  <clipPath id="clip741">
    <rect x="1600" y="0" width="5601" height="3200"/>
  </clipPath>
</defs>
<path clip-path="url(#clip740)" d="
M603.69 2854.22 L7811.02 2854.22 L7811.02 188.976 L603.69 188.976  Z
  " fill="#ffffff" fill-rule="evenodd" fill-opacity="1"/>
<defs>
  <clipPath id="clip742">
    <rect x="603" y="188" width="7208" height="2666"/>
  </clipPath>
</defs>
<polyline clip-path="url(#clip742)" style="stroke:#000000; stroke-linecap:round; stroke-linejoin:round; stroke-width:2; stroke-opacity:0.1; fill:none" points="
  970.074,2854.22 970.074,188.976 
  "/>
<polyline clip-path="url(#clip742)" style="stroke:#000000; stroke-linecap:round; stroke-linejoin:round; stroke-width:2; stroke-opacity:0.1; fill:none" points="
  2049.17,2854.22 2049.17,188.976 
  "/>
<polyline clip-path="url(#clip742)" style="stroke:#000000; stroke-linecap:round; stroke-linejoin:round; stroke-width:2; stroke-opacity:0.1; fill:none" points="
  3128.26,2854.22 3128.26,188.976 
  "/>
<polyline clip-path="url(#clip742)" style="stroke:#000000; stroke-linecap:round; stroke-linejoin:round; stroke-width:2; stroke-opacity:0.1; fill:none" points="
  4207.36,2854.22 4207.36,188.976 
  "/>
<polyline clip-path="url(#clip742)" style="stroke:#000000; stroke-linecap:round; stroke-linejoin:round; stroke-width:2; stroke-opacity:0.1; fill:none" points="
  5286.45,2854.22 5286.45,188.976 
  "/>
<polyline clip-path="url(#clip742)" style="stroke:#000000; stroke-linecap:round; stroke-linejoin:round; stroke-width:2; stroke-opacity:0.1; fill:none" points="
  6365.54,2854.22 6365.54,188.976 
  "/>
<polyline clip-path="url(#clip740)" style="stroke:#000000; stroke-linecap:round; stroke-linejoin:round; stroke-width:4; stroke-opacity:1; fill:none" points="
  603.69,2854.22 7811.02,2854.22 
  "/>
<polyline clip-path="url(#clip740)" style="stroke:#000000; stroke-linecap:round; stroke-linejoin:round; stroke-width:4; stroke-opacity:1; fill:none" points="
  970.074,2854.22 970.074,2835.32 
  "/>
<polyline clip-path="url(#clip740)" style="stroke:#000000; stroke-linecap:round; stroke-linejoin:round; stroke-width:4; stroke-opacity:1; fill:none" points="
  2049.17,2854.22 2049.17,2835.32 
  "/>
<polyline clip-path="url(#clip740)" style="stroke:#000000; stroke-linecap:round; stroke-linejoin:round; stroke-width:4; stroke-opacity:1; fill:none" points="
  3128.26,2854.22 3128.26,2835.32 
  "/>
<polyline clip-path="url(#clip740)" style="stroke:#000000; stroke-linecap:round; stroke-linejoin:round; stroke-width:4; stroke-opacity:1; fill:none" points="
  4207.36,2854.22 4207.36,2835.32 
  "/>
<polyline clip-path="url(#clip740)" style="stroke:#000000; stroke-linecap:round; stroke-linejoin:round; stroke-width:4; stroke-opacity:1; fill:none" points="
  5286.45,2854.22 5286.45,2835.32 
  "/>
<polyline clip-path="url(#clip740)" style="stroke:#000000; stroke-linecap:round; stroke-linejoin:round; stroke-width:4; stroke-opacity:1; fill:none" points="
  6365.54,2854.22 6365.54,2835.32 
  "/>
<path clip-path="url(#clip740)" d="M970.074 2944.58 Q961.949 2944.58 957.835 2952.6 Q953.772 2960.57 953.772 2976.61 Q953.772 2992.6 957.835 3000.62 Q961.949 3008.59 970.074 3008.59 Q978.251 3008.59 982.314 3000.62 Q986.428 2992.6 986.428 2976.61 Q986.428 2960.57 982.314 2952.6 Q978.251 2944.58 970.074 2944.58 M970.074 2936.25 Q983.147 2936.25 990.022 2946.61 Q996.949 2956.93 996.949 2976.61 Q996.949 2996.25 990.022 3006.61 Q983.147 3016.93 970.074 3016.93 Q957.002 3016.93 950.074 3006.61 Q943.2 2996.25 943.2 2976.61 Q943.2 2956.93 950.074 2946.61 Q957.002 2936.25 970.074 2936.25 Z" fill="#000000" fill-rule="evenodd" fill-opacity="1" /><path clip-path="url(#clip740)" d="M2055.94 2946.82 L2029.38 2988.33 L2055.94 2988.33 L2055.94 2946.82 M2053.18 2937.66 L2066.41 2937.66 L2066.41 2988.33 L2077.5 2988.33 L2077.5 2997.08 L2066.41 2997.08 L2066.41 3015.42 L2055.94 3015.42 L2055.94 2997.08 L2020.84 2997.08 L2020.84 2986.93 L2053.18 2937.66 Z" fill="#000000" fill-rule="evenodd" fill-opacity="1" /><path clip-path="url(#clip740)" d="M3128.26 2978.49 Q3120.76 2978.49 3116.44 2982.5 Q3112.17 2986.51 3112.17 2993.54 Q3112.17 3000.57 3116.44 3004.58 Q3120.76 3008.59 3128.26 3008.59 Q3135.76 3008.59 3140.09 3004.58 Q3144.41 3000.52 3144.41 2993.54 Q3144.41 2986.51 3140.09 2982.5 Q3135.81 2978.49 3128.26 2978.49 M3117.74 2974.01 Q3110.97 2972.34 3107.17 2967.71 Q3103.42 2963.07 3103.42 2956.41 Q3103.42 2947.08 3110.03 2941.67 Q3116.7 2936.25 3128.26 2936.25 Q3139.88 2936.25 3146.49 2941.67 Q3153.11 2947.08 3153.11 2956.41 Q3153.11 2963.07 3149.3 2967.71 Q3145.55 2972.34 3138.84 2974.01 Q3146.44 2975.78 3150.66 2980.94 Q3154.93 2986.09 3154.93 2993.54 Q3154.93 3004.84 3148 3010.88 Q3141.13 3016.93 3128.26 3016.93 Q3115.4 3016.93 3108.47 3010.88 Q3101.6 3004.84 3101.6 2993.54 Q3101.6 2986.09 3105.87 2980.94 Q3110.14 2975.78 3117.74 2974.01 M3113.89 2957.4 Q3113.89 2963.44 3117.64 2966.82 Q3121.44 2970.21 3128.26 2970.21 Q3135.03 2970.21 3138.84 2966.82 Q3142.69 2963.44 3142.69 2957.4 Q3142.69 2951.35 3138.84 2947.97 Q3135.03 2944.58 3128.26 2944.58 Q3121.44 2944.58 3117.64 2947.97 Q3113.89 2951.35 3113.89 2957.4 Z" fill="#000000" fill-rule="evenodd" fill-opacity="1" /><path clip-path="url(#clip740)" d="M4152.2 3006.56 L4169.39 3006.56 L4169.39 2947.24 L4150.69 2950.99 L4150.69 2941.41 L4169.28 2937.66 L4179.8 2937.66 L4179.8 3006.56 L4196.99 3006.56 L4196.99 3015.42 L4152.2 3015.42 L4152.2 3006.56 Z" fill="#000000" fill-rule="evenodd" fill-opacity="1" /><path clip-path="url(#clip740)" d="M4227.3 3006.56 L4264.02 3006.56 L4264.02 3015.42 L4214.65 3015.42 L4214.65 3006.56 Q4220.64 3000.36 4230.95 2989.95 Q4241.31 2979.48 4243.97 2976.46 Q4249.02 2970.78 4251 2966.87 Q4253.03 2962.92 4253.03 2959.11 Q4253.03 2952.92 4248.66 2949.01 Q4244.34 2945.1 4237.36 2945.1 Q4232.41 2945.1 4226.89 2946.82 Q4221.42 2948.54 4215.17 2952.03 L4215.17 2941.41 Q4221.52 2938.85 4227.04 2937.55 Q4232.56 2936.25 4237.15 2936.25 Q4249.23 2936.25 4256.42 2942.29 Q4263.61 2948.33 4263.61 2958.44 Q4263.61 2963.23 4261.78 2967.55 Q4260.01 2971.82 4255.27 2977.66 Q4253.97 2979.17 4246.99 2986.41 Q4240.01 2993.59 4227.3 3006.56 Z" fill="#000000" fill-rule="evenodd" fill-opacity="1" /><path clip-path="url(#clip740)" d="M5229.32 3006.56 L5246.5 3006.56 L5246.5 2947.24 L5227.81 2950.99 L5227.81 2941.41 L5246.4 2937.66 L5256.92 2937.66 L5256.92 3006.56 L5274.11 3006.56 L5274.11 3015.42 L5229.32 3015.42 L5229.32 3006.56 Z" fill="#000000" fill-rule="evenodd" fill-opacity="1" /><path clip-path="url(#clip740)" d="M5319.16 2972.34 Q5312.08 2972.34 5307.91 2977.19 Q5303.79 2982.03 5303.79 2990.47 Q5303.79 2998.85 5307.91 3003.75 Q5312.08 3008.59 5319.16 3008.59 Q5326.24 3008.59 5330.36 3003.75 Q5334.52 2998.85 5334.52 2990.47 Q5334.52 2982.03 5330.36 2977.19 Q5326.24 2972.34 5319.16 2972.34 M5340.04 2939.37 L5340.04 2948.96 Q5336.09 2947.08 5332.02 2946.09 Q5328.01 2945.1 5324.05 2945.1 Q5313.64 2945.1 5308.12 2952.13 Q5302.65 2959.17 5301.87 2973.38 Q5304.94 2968.85 5309.58 2966.46 Q5314.21 2964.01 5319.78 2964.01 Q5331.5 2964.01 5338.27 2971.14 Q5345.1 2978.23 5345.1 2990.47 Q5345.1 3002.45 5338.01 3009.69 Q5330.93 3016.93 5319.16 3016.93 Q5305.67 3016.93 5298.53 3006.61 Q5291.4 2996.25 5291.4 2976.61 Q5291.4 2958.18 5300.15 2947.24 Q5308.9 2936.25 5323.64 2936.25 Q5327.6 2936.25 5331.61 2937.03 Q5335.67 2937.81 5340.04 2939.37 Z" fill="#000000" fill-rule="evenodd" fill-opacity="1" /><path clip-path="url(#clip740)" d="M6317.78 3006.56 L6354.5 3006.56 L6354.5 3015.42 L6305.13 3015.42 L6305.13 3006.56 Q6311.12 3000.36 6321.43 2989.95 Q6331.79 2979.48 6334.45 2976.46 Q6339.5 2970.78 6341.48 2966.87 Q6343.51 2962.92 6343.51 2959.11 Q6343.51 2952.92 6339.14 2949.01 Q6334.82 2945.1 6327.84 2945.1 Q6322.89 2945.1 6317.37 2946.82 Q6311.9 2948.54 6305.65 2952.03 L6305.65 2941.41 Q6312 2938.85 6317.52 2937.55 Q6323.04 2936.25 6327.63 2936.25 Q6339.71 2936.25 6346.9 2942.29 Q6354.09 2948.33 6354.09 2958.44 Q6354.09 2963.23 6352.26 2967.55 Q6350.49 2971.82 6345.75 2977.66 Q6344.45 2979.17 6337.47 2986.41 Q6330.49 2993.59 6317.78 3006.56 Z" fill="#000000" fill-rule="evenodd" fill-opacity="1" /><path clip-path="url(#clip740)" d="M6399.09 2944.58 Q6390.96 2944.58 6386.85 2952.6 Q6382.78 2960.57 6382.78 2976.61 Q6382.78 2992.6 6386.85 3000.62 Q6390.96 3008.59 6399.09 3008.59 Q6407.26 3008.59 6411.33 3000.62 Q6415.44 2992.6 6415.44 2976.61 Q6415.44 2960.57 6411.33 2952.6 Q6407.26 2944.58 6399.09 2944.58 M6399.09 2936.25 Q6412.16 2936.25 6419.03 2946.61 Q6425.96 2956.93 6425.96 2976.61 Q6425.96 2996.25 6419.03 3006.61 Q6412.16 3016.93 6399.09 3016.93 Q6386.01 3016.93 6379.09 3006.61 Q6372.21 2996.25 6372.21 2976.61 Q6372.21 2956.93 6379.09 2946.61 Q6386.01 2936.25 6399.09 2936.25 Z" fill="#000000" fill-rule="evenodd" fill-opacity="1" /><path clip-path="url(#clip740)" d="M4084.13 3106.41 L4094.65 3106.41 L4094.65 3138.28 L4132.88 3138.28 L4132.88 3106.41 L4143.4 3106.41 L4143.4 3184.17 L4132.88 3184.17 L4132.88 3147.14 L4094.65 3147.14 L4094.65 3184.17 L4084.13 3184.17 L4084.13 3106.41 Z" fill="#000000" fill-rule="evenodd" fill-opacity="1" /><path clip-path="url(#clip740)" d="M4186.52 3132.55 Q4178.82 3132.55 4174.34 3138.59 Q4169.86 3144.58 4169.86 3155.05 Q4169.86 3165.52 4174.28 3171.56 Q4178.76 3177.55 4186.52 3177.55 Q4194.18 3177.55 4198.66 3171.51 Q4203.14 3165.47 4203.14 3155.05 Q4203.14 3144.69 4198.66 3138.65 Q4194.18 3132.55 4186.52 3132.55 M4186.52 3124.43 Q4199.02 3124.43 4206.16 3132.55 Q4213.29 3140.68 4213.29 3155.05 Q4213.29 3169.38 4206.16 3177.55 Q4199.02 3185.68 4186.52 3185.68 Q4173.97 3185.68 4166.84 3177.55 Q4159.75 3169.38 4159.75 3155.05 Q4159.75 3140.68 4166.84 3132.55 Q4173.97 3124.43 4186.52 3124.43 Z" fill="#000000" fill-rule="evenodd" fill-opacity="1" /><path clip-path="url(#clip740)" d="M4228.19 3161.15 L4228.19 3125.83 L4237.77 3125.83 L4237.77 3160.78 Q4237.77 3169.06 4241 3173.23 Q4244.23 3177.34 4250.69 3177.34 Q4258.45 3177.34 4262.93 3172.4 Q4267.46 3167.45 4267.46 3158.91 L4267.46 3125.83 L4277.04 3125.83 L4277.04 3184.17 L4267.46 3184.17 L4267.46 3175.21 Q4263.97 3180.52 4259.34 3183.13 Q4254.75 3185.68 4248.66 3185.68 Q4238.61 3185.68 4233.4 3179.43 Q4228.19 3173.18 4228.19 3161.15 M4252.3 3124.43 L4252.3 3124.43 Z" fill="#000000" fill-rule="evenodd" fill-opacity="1" /><path clip-path="url(#clip740)" d="M4330.59 3134.79 Q4328.97 3133.86 4327.04 3133.44 Q4325.17 3132.97 4322.88 3132.97 Q4314.75 3132.97 4310.38 3138.28 Q4306.05 3143.54 4306.05 3153.44 L4306.05 3184.17 L4296.42 3184.17 L4296.42 3125.83 L4306.05 3125.83 L4306.05 3134.9 Q4309.07 3129.58 4313.92 3127.03 Q4318.76 3124.43 4325.69 3124.43 Q4326.68 3124.43 4327.88 3124.58 Q4329.07 3124.69 4330.53 3124.95 L4330.59 3134.79 Z" fill="#000000" fill-rule="evenodd" fill-opacity="1" /><polyline clip-path="url(#clip742)" style="stroke:#000000; stroke-linecap:round; stroke-linejoin:round; stroke-width:2; stroke-opacity:0.1; fill:none" points="
  603.69,2778.78 7811.02,2778.78 
  "/>
<polyline clip-path="url(#clip742)" style="stroke:#000000; stroke-linecap:round; stroke-linejoin:round; stroke-width:2; stroke-opacity:0.1; fill:none" points="
  603.69,2195.15 7811.02,2195.15 
  "/>
<polyline clip-path="url(#clip742)" style="stroke:#000000; stroke-linecap:round; stroke-linejoin:round; stroke-width:2; stroke-opacity:0.1; fill:none" points="
  603.69,1611.52 7811.02,1611.52 
  "/>
<polyline clip-path="url(#clip742)" style="stroke:#000000; stroke-linecap:round; stroke-linejoin:round; stroke-width:2; stroke-opacity:0.1; fill:none" points="
  603.69,1027.89 7811.02,1027.89 
  "/>
<polyline clip-path="url(#clip742)" style="stroke:#000000; stroke-linecap:round; stroke-linejoin:round; stroke-width:2; stroke-opacity:0.1; fill:none" points="
  603.69,444.256 7811.02,444.256 
  "/>
<polyline clip-path="url(#clip740)" style="stroke:#000000; stroke-linecap:round; stroke-linejoin:round; stroke-width:4; stroke-opacity:1; fill:none" points="
  603.69,2854.22 603.69,188.976 
  "/>
<polyline clip-path="url(#clip740)" style="stroke:#000000; stroke-linecap:round; stroke-linejoin:round; stroke-width:4; stroke-opacity:1; fill:none" points="
  603.69,2778.78 622.587,2778.78 
  "/>
<polyline clip-path="url(#clip740)" style="stroke:#000000; stroke-linecap:round; stroke-linejoin:round; stroke-width:4; stroke-opacity:1; fill:none" points="
  603.69,2195.15 622.587,2195.15 
  "/>
<polyline clip-path="url(#clip740)" style="stroke:#000000; stroke-linecap:round; stroke-linejoin:round; stroke-width:4; stroke-opacity:1; fill:none" points="
  603.69,1611.52 622.587,1611.52 
  "/>
<polyline clip-path="url(#clip740)" style="stroke:#000000; stroke-linecap:round; stroke-linejoin:round; stroke-width:4; stroke-opacity:1; fill:none" points="
  603.69,1027.89 622.587,1027.89 
  "/>
<polyline clip-path="url(#clip740)" style="stroke:#000000; stroke-linecap:round; stroke-linejoin:round; stroke-width:4; stroke-opacity:1; fill:none" points="
  603.69,444.256 622.587,444.256 
  "/>
<path clip-path="url(#clip740)" d="M456.815 2746.83 Q448.69 2746.83 444.575 2754.85 Q440.513 2762.82 440.513 2778.86 Q440.513 2794.85 444.575 2802.87 Q448.69 2810.84 456.815 2810.84 Q464.992 2810.84 469.054 2802.87 Q473.169 2794.85 473.169 2778.86 Q473.169 2762.82 469.054 2754.85 Q464.992 2746.83 456.815 2746.83 M456.815 2738.5 Q469.888 2738.5 476.763 2748.86 Q483.69 2759.17 483.69 2778.86 Q483.69 2798.5 476.763 2808.86 Q469.888 2819.17 456.815 2819.17 Q443.742 2819.17 436.815 2808.86 Q429.94 2798.5 429.94 2778.86 Q429.94 2759.17 436.815 2748.86 Q443.742 2738.5 456.815 2738.5 Z" fill="#000000" fill-rule="evenodd" fill-opacity="1" /><path clip-path="url(#clip740)" d="M298.691 2156.27 L339.992 2156.27 L339.992 2165.13 L308.326 2165.13 L308.326 2184.19 Q310.618 2183.41 312.909 2183.04 Q315.201 2182.63 317.493 2182.63 Q330.513 2182.63 338.117 2189.76 Q345.722 2196.9 345.722 2209.08 Q345.722 2221.64 337.909 2228.62 Q330.097 2235.54 315.878 2235.54 Q310.982 2235.54 305.878 2234.71 Q300.826 2233.88 295.409 2232.21 L295.409 2221.64 Q300.097 2224.19 305.097 2225.44 Q310.097 2226.69 315.67 2226.69 Q324.68 2226.69 329.94 2221.95 Q335.201 2217.21 335.201 2209.08 Q335.201 2200.96 329.94 2196.22 Q324.68 2191.48 315.67 2191.48 Q311.451 2191.48 307.232 2192.42 Q303.066 2193.36 298.691 2195.33 L298.691 2156.27 Z" fill="#000000" fill-rule="evenodd" fill-opacity="1" /><path clip-path="url(#clip740)" d="M388.95 2163.2 Q380.826 2163.2 376.711 2171.22 Q372.648 2179.19 372.648 2195.23 Q372.648 2211.22 376.711 2219.24 Q380.826 2227.21 388.95 2227.21 Q397.128 2227.21 401.19 2219.24 Q405.305 2211.22 405.305 2195.23 Q405.305 2179.19 401.19 2171.22 Q397.128 2163.2 388.95 2163.2 M388.95 2154.87 Q402.023 2154.87 408.898 2165.23 Q415.825 2175.54 415.825 2195.23 Q415.825 2214.87 408.898 2225.23 Q402.023 2235.54 388.95 2235.54 Q375.878 2235.54 368.951 2225.23 Q362.076 2214.87 362.076 2195.23 Q362.076 2175.54 368.951 2165.23 Q375.878 2154.87 388.95 2154.87 Z" fill="#000000" fill-rule="evenodd" fill-opacity="1" /><path clip-path="url(#clip740)" d="M456.815 2163.2 Q448.69 2163.2 444.575 2171.22 Q440.513 2179.19 440.513 2195.23 Q440.513 2211.22 444.575 2219.24 Q448.69 2227.21 456.815 2227.21 Q464.992 2227.21 469.054 2219.24 Q473.169 2211.22 473.169 2195.23 Q473.169 2179.19 469.054 2171.22 Q464.992 2163.2 456.815 2163.2 M456.815 2154.87 Q469.888 2154.87 476.763 2165.23 Q483.69 2175.54 483.69 2195.23 Q483.69 2214.87 476.763 2225.23 Q469.888 2235.54 456.815 2235.54 Q443.742 2235.54 436.815 2225.23 Q429.94 2214.87 429.94 2195.23 Q429.94 2175.54 436.815 2165.23 Q443.742 2154.87 456.815 2154.87 Z" fill="#000000" fill-rule="evenodd" fill-opacity="1" /><path clip-path="url(#clip740)" d="M232.545 1641.55 L249.732 1641.55 L249.732 1582.22 L231.035 1585.97 L231.035 1576.39 L249.628 1572.64 L260.149 1572.64 L260.149 1641.55 L277.337 1641.55 L277.337 1650.4 L232.545 1650.4 L232.545 1641.55 Z" fill="#000000" fill-rule="evenodd" fill-opacity="1" /><path clip-path="url(#clip740)" d="M321.086 1579.57 Q312.961 1579.57 308.847 1587.59 Q304.784 1595.56 304.784 1611.6 Q304.784 1627.59 308.847 1635.61 Q312.961 1643.58 321.086 1643.58 Q329.263 1643.58 333.326 1635.61 Q337.44 1627.59 337.44 1611.6 Q337.44 1595.56 333.326 1587.59 Q329.263 1579.57 321.086 1579.57 M321.086 1571.23 Q334.159 1571.23 341.034 1581.6 Q347.961 1591.91 347.961 1611.6 Q347.961 1631.23 341.034 1641.6 Q334.159 1651.91 321.086 1651.91 Q308.013 1651.91 301.086 1641.6 Q294.211 1631.23 294.211 1611.6 Q294.211 1591.91 301.086 1581.6 Q308.013 1571.23 321.086 1571.23 Z" fill="#000000" fill-rule="evenodd" fill-opacity="1" /><path clip-path="url(#clip740)" d="M388.95 1579.57 Q380.826 1579.57 376.711 1587.59 Q372.648 1595.56 372.648 1611.6 Q372.648 1627.59 376.711 1635.61 Q380.826 1643.58 388.95 1643.58 Q397.128 1643.58 401.19 1635.61 Q405.305 1627.59 405.305 1611.6 Q405.305 1595.56 401.19 1587.59 Q397.128 1579.57 388.95 1579.57 M388.95 1571.23 Q402.023 1571.23 408.898 1581.6 Q415.825 1591.91 415.825 1611.6 Q415.825 1631.23 408.898 1641.6 Q402.023 1651.91 388.95 1651.91 Q375.878 1651.91 368.951 1641.6 Q362.076 1631.23 362.076 1611.6 Q362.076 1591.91 368.951 1581.6 Q375.878 1571.23 388.95 1571.23 Z" fill="#000000" fill-rule="evenodd" fill-opacity="1" /><path clip-path="url(#clip740)" d="M456.815 1579.57 Q448.69 1579.57 444.575 1587.59 Q440.513 1595.56 440.513 1611.6 Q440.513 1627.59 444.575 1635.61 Q448.69 1643.58 456.815 1643.58 Q464.992 1643.58 469.054 1635.61 Q473.169 1627.59 473.169 1611.6 Q473.169 1595.56 469.054 1587.59 Q464.992 1579.57 456.815 1579.57 M456.815 1571.23 Q469.888 1571.23 476.763 1581.6 Q483.69 1591.91 483.69 1611.6 Q483.69 1631.23 476.763 1641.6 Q469.888 1651.91 456.815 1651.91 Q443.742 1651.91 436.815 1641.6 Q429.94 1631.23 429.94 1611.6 Q429.94 1591.91 436.815 1581.6 Q443.742 1571.23 456.815 1571.23 Z" fill="#000000" fill-rule="evenodd" fill-opacity="1" /><path clip-path="url(#clip740)" d="M232.545 1057.91 L249.732 1057.91 L249.732 998.591 L231.035 1002.34 L231.035 992.758 L249.628 989.008 L260.149 989.008 L260.149 1057.91 L277.337 1057.91 L277.337 1066.77 L232.545 1066.77 L232.545 1057.91 Z" fill="#000000" fill-rule="evenodd" fill-opacity="1" /><path clip-path="url(#clip740)" d="M298.691 989.008 L339.992 989.008 L339.992 997.862 L308.326 997.862 L308.326 1016.92 Q310.618 1016.14 312.909 1015.78 Q315.201 1015.36 317.493 1015.36 Q330.513 1015.36 338.117 1022.5 Q345.722 1029.63 345.722 1041.82 Q345.722 1054.37 337.909 1061.35 Q330.097 1068.28 315.878 1068.28 Q310.982 1068.28 305.878 1067.45 Q300.826 1066.61 295.409 1064.95 L295.409 1054.37 Q300.097 1056.92 305.097 1058.17 Q310.097 1059.42 315.67 1059.42 Q324.68 1059.42 329.94 1054.68 Q335.201 1049.95 335.201 1041.82 Q335.201 1033.7 329.94 1028.96 Q324.68 1024.22 315.67 1024.22 Q311.451 1024.22 307.232 1025.15 Q303.066 1026.09 298.691 1028.07 L298.691 989.008 Z" fill="#000000" fill-rule="evenodd" fill-opacity="1" /><path clip-path="url(#clip740)" d="M388.95 995.935 Q380.826 995.935 376.711 1003.96 Q372.648 1011.92 372.648 1027.97 Q372.648 1043.96 376.711 1051.98 Q380.826 1059.95 388.95 1059.95 Q397.128 1059.95 401.19 1051.98 Q405.305 1043.96 405.305 1027.97 Q405.305 1011.92 401.19 1003.96 Q397.128 995.935 388.95 995.935 M388.95 987.602 Q402.023 987.602 408.898 997.966 Q415.825 1008.28 415.825 1027.97 Q415.825 1047.6 408.898 1057.97 Q402.023 1068.28 388.95 1068.28 Q375.878 1068.28 368.951 1057.97 Q362.076 1047.6 362.076 1027.97 Q362.076 1008.28 368.951 997.966 Q375.878 987.602 388.95 987.602 Z" fill="#000000" fill-rule="evenodd" fill-opacity="1" /><path clip-path="url(#clip740)" d="M456.815 995.935 Q448.69 995.935 444.575 1003.96 Q440.513 1011.92 440.513 1027.97 Q440.513 1043.96 444.575 1051.98 Q448.69 1059.95 456.815 1059.95 Q464.992 1059.95 469.054 1051.98 Q473.169 1043.96 473.169 1027.97 Q473.169 1011.92 469.054 1003.96 Q464.992 995.935 456.815 995.935 M456.815 987.602 Q469.888 987.602 476.763 997.966 Q483.69 1008.28 483.69 1027.97 Q483.69 1047.6 476.763 1057.97 Q469.888 1068.28 456.815 1068.28 Q443.742 1068.28 436.815 1057.97 Q429.94 1047.6 429.94 1027.97 Q429.94 1008.28 436.815 997.966 Q443.742 987.602 456.815 987.602 Z" fill="#000000" fill-rule="evenodd" fill-opacity="1" /><path clip-path="url(#clip740)" d="M239.785 474.282 L276.503 474.282 L276.503 483.136 L227.128 483.136 L227.128 474.282 Q233.118 468.084 243.43 457.668 Q253.795 447.199 256.451 444.178 Q261.503 438.501 263.482 434.595 Q265.514 430.636 265.514 426.834 Q265.514 420.636 261.139 416.73 Q256.816 412.824 249.837 412.824 Q244.889 412.824 239.368 414.543 Q233.899 416.261 227.649 419.751 L227.649 409.126 Q234.003 406.574 239.524 405.272 Q245.045 403.97 249.628 403.97 Q261.712 403.97 268.899 410.012 Q276.087 416.053 276.087 426.157 Q276.087 430.949 274.264 435.272 Q272.493 439.543 267.753 445.376 Q266.451 446.886 259.472 454.126 Q252.493 461.313 239.785 474.282 Z" fill="#000000" fill-rule="evenodd" fill-opacity="1" /><path clip-path="url(#clip740)" d="M321.086 412.303 Q312.961 412.303 308.847 420.324 Q304.784 428.293 304.784 444.334 Q304.784 460.324 308.847 468.345 Q312.961 476.313 321.086 476.313 Q329.263 476.313 333.326 468.345 Q337.44 460.324 337.44 444.334 Q337.44 428.293 333.326 420.324 Q329.263 412.303 321.086 412.303 M321.086 403.97 Q334.159 403.97 341.034 414.334 Q347.961 424.647 347.961 444.334 Q347.961 463.97 341.034 474.334 Q334.159 484.647 321.086 484.647 Q308.013 484.647 301.086 474.334 Q294.211 463.97 294.211 444.334 Q294.211 424.647 301.086 414.334 Q308.013 403.97 321.086 403.97 Z" fill="#000000" fill-rule="evenodd" fill-opacity="1" /><path clip-path="url(#clip740)" d="M388.95 412.303 Q380.826 412.303 376.711 420.324 Q372.648 428.293 372.648 444.334 Q372.648 460.324 376.711 468.345 Q380.826 476.313 388.95 476.313 Q397.128 476.313 401.19 468.345 Q405.305 460.324 405.305 444.334 Q405.305 428.293 401.19 420.324 Q397.128 412.303 388.95 412.303 M388.95 403.97 Q402.023 403.97 408.898 414.334 Q415.825 424.647 415.825 444.334 Q415.825 463.97 408.898 474.334 Q402.023 484.647 388.95 484.647 Q375.878 484.647 368.951 474.334 Q362.076 463.97 362.076 444.334 Q362.076 424.647 368.951 414.334 Q375.878 403.97 388.95 403.97 Z" fill="#000000" fill-rule="evenodd" fill-opacity="1" /><path clip-path="url(#clip740)" d="M456.815 412.303 Q448.69 412.303 444.575 420.324 Q440.513 428.293 440.513 444.334 Q440.513 460.324 444.575 468.345 Q448.69 476.313 456.815 476.313 Q464.992 476.313 469.054 468.345 Q473.169 460.324 473.169 444.334 Q473.169 428.293 469.054 420.324 Q464.992 412.303 456.815 412.303 M456.815 403.97 Q469.888 403.97 476.763 414.334 Q483.69 424.647 483.69 444.334 Q483.69 463.97 476.763 474.334 Q469.888 484.647 456.815 484.647 Q443.742 484.647 436.815 474.334 Q429.94 463.97 429.94 444.334 Q429.94 424.647 436.815 414.334 Q443.742 403.97 456.815 403.97 Z" fill="#000000" fill-rule="evenodd" fill-opacity="1" /><path clip-path="url(#clip740)" d="M6.04044 2083.7 L6.04044 2069.54 L71.0922 2035.06 L6.04044 2035.06 L6.04044 2024.85 L83.8004 2024.85 L83.8004 2039.02 L18.7487 2073.49 L83.8004 2073.49 L83.8004 2083.7 L6.04044 2083.7 Z" fill="#000000" fill-rule="evenodd" fill-opacity="1" /><path clip-path="url(#clip740)" d="M52.2381 1954.43 L56.9256 1954.43 L56.9256 1998.49 Q66.8214 1997.87 72.0297 1992.56 Q77.1859 1987.19 77.1859 1977.66 Q77.1859 1972.14 75.8317 1966.98 Q74.4776 1961.78 71.7693 1956.67 L80.8317 1956.67 Q83.0192 1961.83 84.165 1967.24 Q85.3108 1972.66 85.3108 1978.23 Q85.3108 1992.19 77.1859 2000.37 Q69.0609 2008.49 55.2068 2008.49 Q40.884 2008.49 32.4986 2000.79 Q24.0612 1993.03 24.0612 1979.9 Q24.0612 1968.13 31.6653 1961.31 Q39.2173 1954.43 52.2381 1954.43 M49.4256 1964.02 Q41.5611 1964.12 36.8736 1968.44 Q32.1861 1972.71 32.1861 1979.8 Q32.1861 1987.82 36.7174 1992.66 Q41.2486 1997.45 49.4777 1998.18 L49.4256 1964.02 Z" fill="#000000" fill-rule="evenodd" fill-opacity="1" /><path clip-path="url(#clip740)" d="M25.4674 1944.28 L25.4674 1934.69 L70.988 1922.71 L25.4674 1910.79 L25.4674 1899.48 L70.988 1887.51 L25.4674 1875.58 L25.4674 1866 L83.8004 1881.26 L83.8004 1892.56 L35.9882 1905.11 L83.8004 1917.71 L83.8004 1929.02 L25.4674 1944.28 Z" fill="#000000" fill-rule="evenodd" fill-opacity="1" /><path clip-path="url(#clip740)" d="M54.686 1775.68 Q44.1132 1775.68 38.1236 1780.06 Q32.082 1784.38 32.082 1791.99 Q32.082 1799.59 38.1236 1803.96 Q44.1132 1808.29 54.686 1808.29 Q65.2589 1808.29 71.3005 1803.96 Q77.2901 1799.59 77.2901 1791.99 Q77.2901 1784.38 71.3005 1780.06 Q65.2589 1775.68 54.686 1775.68 M34.3215 1808.29 Q29.1132 1805.27 26.6132 1800.68 Q24.0612 1796.05 24.0612 1789.64 Q24.0612 1779.02 32.4986 1772.4 Q40.9361 1765.74 54.686 1765.74 Q68.4359 1765.74 76.8734 1772.4 Q85.3108 1779.02 85.3108 1789.64 Q85.3108 1796.05 82.8109 1800.68 Q80.2588 1805.27 75.0505 1808.29 L83.8004 1808.29 L83.8004 1817.92 L2.75921 1817.92 L2.75921 1808.29 L34.3215 1808.29 Z" fill="#000000" fill-rule="evenodd" fill-opacity="1" /><path clip-path="url(#clip740)" d="M25.4674 1749.85 L25.4674 1740.27 L83.8004 1740.27 L83.8004 1749.85 L25.4674 1749.85 M2.75921 1749.85 L2.75921 1740.27 L14.8946 1740.27 L14.8946 1749.85 L2.75921 1749.85 Z" fill="#000000" fill-rule="evenodd" fill-opacity="1" /><path clip-path="url(#clip740)" d="M2.75921 1720.58 L2.75921 1710.94 L50.6235 1710.94 L25.4674 1682.35 L25.4674 1670.11 L52.7589 1701.05 L83.8004 1668.81 L83.8004 1681.31 L55.311 1710.94 L83.8004 1710.94 L83.8004 1720.58 L2.75921 1720.58 Z" fill="#000000" fill-rule="evenodd" fill-opacity="1" /><path clip-path="url(#clip740)" d="M52.2381 1612.35 L56.9256 1612.35 L56.9256 1656.41 Q66.8214 1655.79 72.0297 1650.48 Q77.1859 1645.11 77.1859 1635.58 Q77.1859 1630.06 75.8317 1624.9 Q74.4776 1619.69 71.7693 1614.59 L80.8317 1614.59 Q83.0192 1619.75 84.165 1625.16 Q85.3108 1630.58 85.3108 1636.15 Q85.3108 1650.11 77.1859 1658.29 Q69.0609 1666.41 55.2068 1666.41 Q40.884 1666.41 32.4986 1658.7 Q24.0612 1650.94 24.0612 1637.82 Q24.0612 1626.05 31.6653 1619.23 Q39.2173 1612.35 52.2381 1612.35 M49.4256 1621.93 Q41.5611 1622.04 36.8736 1626.36 Q32.1861 1630.63 32.1861 1637.72 Q32.1861 1645.74 36.7174 1650.58 Q41.2486 1655.37 49.4777 1656.1 L49.4256 1621.93 Z" fill="#000000" fill-rule="evenodd" fill-opacity="1" /><path clip-path="url(#clip740)" d="M27.1862 1525.53 L36.2486 1525.53 Q34.1653 1529.59 33.1236 1533.97 Q32.082 1538.34 32.082 1543.03 Q32.082 1550.16 34.2695 1553.76 Q36.4569 1557.3 40.8319 1557.3 Q44.1652 1557.3 46.0923 1554.75 Q47.9673 1552.19 49.686 1544.49 L50.4152 1541.21 Q52.6027 1531 56.6131 1526.73 Q60.5714 1522.4 67.7068 1522.4 Q75.8317 1522.4 80.5713 1528.86 Q85.3108 1535.27 85.3108 1546.52 Q85.3108 1551.21 84.3734 1556.31 Q83.4879 1561.36 81.665 1566.99 L71.7693 1566.99 Q74.5297 1561.67 75.9359 1556.52 Q77.2901 1551.36 77.2901 1546.31 Q77.2901 1539.54 74.9984 1535.89 Q72.6547 1532.25 68.4359 1532.25 Q64.5297 1532.25 62.4464 1534.9 Q60.3631 1537.51 58.436 1546.41 L57.6547 1549.75 Q55.7798 1558.65 51.9256 1562.61 Q48.0194 1566.57 41.2486 1566.57 Q33.0195 1566.57 28.5403 1560.74 Q24.0612 1554.9 24.0612 1544.17 Q24.0612 1538.86 24.8424 1534.17 Q25.6237 1529.49 27.1862 1525.53 Z" fill="#000000" fill-rule="evenodd" fill-opacity="1" /><path clip-path="url(#clip740)" d="M48.5923 1458.65 L83.8004 1458.65 L83.8004 1468.24 L48.9048 1468.24 Q40.6236 1468.24 36.509 1471.47 Q32.3945 1474.7 32.3945 1481.15 Q32.3945 1488.91 37.3424 1493.39 Q42.2902 1497.87 50.8319 1497.87 L83.8004 1497.87 L83.8004 1507.51 L2.75921 1507.51 L2.75921 1497.87 L34.5299 1497.87 Q29.2695 1494.43 26.6653 1489.8 Q24.0612 1485.11 24.0612 1479.02 Q24.0612 1468.97 30.3111 1463.81 Q36.509 1458.65 48.5923 1458.65 Z" fill="#000000" fill-rule="evenodd" fill-opacity="1" /><path clip-path="url(#clip740)" d="M54.4777 1413.03 Q54.4777 1424.64 57.1339 1429.12 Q59.7902 1433.6 66.1964 1433.6 Q71.3005 1433.6 74.3213 1430.27 Q77.2901 1426.88 77.2901 1421.1 Q77.2901 1413.13 71.6651 1408.34 Q65.988 1403.5 56.6131 1403.5 L54.4777 1403.5 L54.4777 1413.03 M50.5194 1393.91 L83.8004 1393.91 L83.8004 1403.5 L74.9463 1403.5 Q80.2588 1406.78 82.8109 1411.67 Q85.3108 1416.57 85.3108 1423.65 Q85.3108 1432.61 80.3109 1437.92 Q75.2588 1443.18 66.8214 1443.18 Q56.9777 1443.18 51.9777 1436.62 Q46.9777 1430.01 46.9777 1416.94 L46.9777 1403.5 L46.0402 1403.5 Q39.4257 1403.5 35.8319 1407.87 Q32.1861 1412.2 32.1861 1420.06 Q32.1861 1425.06 33.384 1429.8 Q34.582 1434.54 36.9778 1438.91 L28.1237 1438.91 Q26.0924 1433.65 25.1028 1428.71 Q24.0612 1423.76 24.0612 1419.07 Q24.0612 1406.41 30.6236 1400.16 Q37.1861 1393.91 50.5194 1393.91 Z" fill="#000000" fill-rule="evenodd" fill-opacity="1" /><path clip-path="url(#clip740)" d="M34.4257 1340.37 Q33.4882 1341.99 33.0715 1343.91 Q32.6028 1345.79 32.6028 1348.08 Q32.6028 1356.21 37.9153 1360.58 Q43.1757 1364.9 53.0714 1364.9 L83.8004 1364.9 L83.8004 1374.54 L25.4674 1374.54 L25.4674 1364.9 L34.5299 1364.9 Q29.2174 1361.88 26.6653 1357.04 Q24.0612 1352.2 24.0612 1345.27 Q24.0612 1344.28 24.2174 1343.08 Q24.3216 1341.88 24.582 1340.43 L34.4257 1340.37 Z" fill="#000000" fill-rule="evenodd" fill-opacity="1" /><path clip-path="url(#clip740)" d="M52.2381 1282.77 L56.9256 1282.77 L56.9256 1326.83 Q66.8214 1326.21 72.0297 1320.89 Q77.1859 1315.53 77.1859 1306 Q77.1859 1300.48 75.8317 1295.32 Q74.4776 1290.11 71.7693 1285.01 L80.8317 1285.01 Q83.0192 1290.16 84.165 1295.58 Q85.3108 1301 85.3108 1306.57 Q85.3108 1320.53 77.1859 1328.71 Q69.0609 1336.83 55.2068 1336.83 Q40.884 1336.83 32.4986 1329.12 Q24.0612 1321.36 24.0612 1308.24 Q24.0612 1296.47 31.6653 1289.64 Q39.2173 1282.77 52.2381 1282.77 M49.4256 1292.35 Q41.5611 1292.46 36.8736 1296.78 Q32.1861 1301.05 32.1861 1308.13 Q32.1861 1316.15 36.7174 1321 Q41.2486 1325.79 49.4777 1326.52 L49.4256 1292.35 Z" fill="#000000" fill-rule="evenodd" fill-opacity="1" /><path clip-path="url(#clip740)" d="M27.707 1191.16 L36.6653 1191.16 Q34.4257 1195.22 33.332 1199.33 Q32.1861 1203.39 32.1861 1207.56 Q32.1861 1216.88 38.1236 1222.04 Q44.009 1227.2 54.686 1227.2 Q65.363 1227.2 71.3005 1222.04 Q77.1859 1216.88 77.1859 1207.56 Q77.1859 1203.39 76.0921 1199.33 Q74.9463 1195.22 72.7068 1191.16 L81.5609 1191.16 Q83.4359 1195.17 84.3734 1199.49 Q85.3108 1203.76 85.3108 1208.6 Q85.3108 1221.78 77.0296 1229.54 Q68.7484 1237.3 54.686 1237.3 Q40.4153 1237.3 32.2382 1229.49 Q24.0612 1221.62 24.0612 1207.98 Q24.0612 1203.55 24.9987 1199.33 Q25.8841 1195.11 27.707 1191.16 Z" fill="#000000" fill-rule="evenodd" fill-opacity="1" /><path clip-path="url(#clip740)" d="M32.1861 1151.88 Q32.1861 1159.59 38.2278 1164.07 Q44.2173 1168.55 54.686 1168.55 Q65.1547 1168.55 71.1963 1164.12 Q77.1859 1159.64 77.1859 1151.88 Q77.1859 1144.23 71.1443 1139.75 Q65.1026 1135.27 54.686 1135.27 Q44.3215 1135.27 38.2799 1139.75 Q32.1861 1144.23 32.1861 1151.88 M24.0612 1151.88 Q24.0612 1139.38 32.1861 1132.25 Q40.3111 1125.11 54.686 1125.11 Q69.0089 1125.11 77.1859 1132.25 Q85.3108 1139.38 85.3108 1151.88 Q85.3108 1164.44 77.1859 1171.57 Q69.0089 1178.66 54.686 1178.66 Q40.3111 1178.66 32.1861 1171.57 Q24.0612 1164.44 24.0612 1151.88 Z" fill="#000000" fill-rule="evenodd" fill-opacity="1" /><path clip-path="url(#clip740)" d="M60.7797 1110.22 L25.4674 1110.22 L25.4674 1100.63 L60.4151 1100.63 Q68.6964 1100.63 72.863 1097.41 Q76.9776 1094.18 76.9776 1087.72 Q76.9776 1079.96 72.0297 1075.48 Q67.0818 1070.95 58.5402 1070.95 L25.4674 1070.95 L25.4674 1061.36 L83.8004 1061.36 L83.8004 1070.95 L74.8422 1070.95 Q80.1546 1074.44 82.7588 1079.07 Q85.3108 1083.66 85.3108 1089.75 Q85.3108 1099.8 79.0609 1105.01 Q72.8109 1110.22 60.7797 1110.22 M24.0612 1086.1 L24.0612 1086.1 Z" fill="#000000" fill-rule="evenodd" fill-opacity="1" /><path clip-path="url(#clip740)" d="M8.90501 1032.15 L25.4674 1032.15 L25.4674 1012.41 L32.9153 1012.41 L32.9153 1032.15 L64.5818 1032.15 Q71.7172 1032.15 73.7484 1030.22 Q75.7797 1028.24 75.7797 1022.25 L75.7797 1012.41 L83.8004 1012.41 L83.8004 1022.25 Q83.8004 1033.34 79.6859 1037.56 Q75.5192 1041.78 64.5818 1041.78 L32.9153 1041.78 L32.9153 1048.81 L25.4674 1048.81 L25.4674 1041.78 L8.90501 1041.78 L8.90501 1032.15 Z" fill="#000000" fill-rule="evenodd" fill-opacity="1" /><path clip-path="url(#clip740)" d="M27.1862 962.615 L36.2486 962.615 Q34.1653 966.677 33.1236 971.052 Q32.082 975.427 32.082 980.114 Q32.082 987.25 34.2695 990.844 Q36.4569 994.385 40.8319 994.385 Q44.1652 994.385 46.0923 991.833 Q47.9673 989.281 49.686 981.573 L50.4152 978.292 Q52.6027 968.083 56.6131 963.812 Q60.5714 959.49 67.7068 959.49 Q75.8317 959.49 80.5713 965.948 Q85.3108 972.354 85.3108 983.604 Q85.3108 988.292 84.3734 993.396 Q83.4879 998.448 81.665 1004.07 L71.7693 1004.07 Q74.5297 998.76 75.9359 993.604 Q77.2901 988.448 77.2901 983.396 Q77.2901 976.625 74.9984 972.979 Q72.6547 969.333 68.4359 969.333 Q64.5297 969.333 62.4464 971.99 Q60.3631 974.594 58.436 983.5 L57.6547 986.833 Q55.7798 995.739 51.9256 999.698 Q48.0194 1003.66 41.2486 1003.66 Q33.0195 1003.66 28.5403 997.823 Q24.0612 991.989 24.0612 981.26 Q24.0612 975.948 24.8424 971.26 Q25.6237 966.573 27.1862 962.615 Z" fill="#000000" fill-rule="evenodd" fill-opacity="1" /><path clip-path="url(#clip742)" d="
M997.052 2241.71 L997.052 2778.78 L1104.96 2778.78 L1104.96 2241.71 L997.052 2241.71 L997.052 2241.71  Z
  " fill="#009af9" fill-rule="evenodd" fill-opacity="1"/>
<polyline clip-path="url(#clip742)" style="stroke:#000000; stroke-linecap:round; stroke-linejoin:round; stroke-width:4; stroke-opacity:1; fill:none" points="
  997.052,2241.71 997.052,2778.78 1104.96,2778.78 1104.96,2241.71 997.052,2241.71 
  "/>
<path clip-path="url(#clip742)" d="
M1266.83 2363.55 L1266.83 2778.78 L1374.73 2778.78 L1374.73 2363.55 L1266.83 2363.55 L1266.83 2363.55  Z
  " fill="#009af9" fill-rule="evenodd" fill-opacity="1"/>
<polyline clip-path="url(#clip742)" style="stroke:#000000; stroke-linecap:round; stroke-linejoin:round; stroke-width:4; stroke-opacity:1; fill:none" points="
  1266.83,2363.55 1266.83,2778.78 1374.73,2778.78 1374.73,2363.55 1266.83,2363.55 
  "/>
<path clip-path="url(#clip742)" d="
M1536.6 2480.82 L1536.6 2778.78 L1644.51 2778.78 L1644.51 2480.82 L1536.6 2480.82 L1536.6 2480.82  Z
  " fill="#009af9" fill-rule="evenodd" fill-opacity="1"/>
<polyline clip-path="url(#clip742)" style="stroke:#000000; stroke-linecap:round; stroke-linejoin:round; stroke-width:4; stroke-opacity:1; fill:none" points="
  1536.6,2480.82 1536.6,2778.78 1644.51,2778.78 1644.51,2480.82 1536.6,2480.82 
  "/>
<path clip-path="url(#clip742)" d="
M1806.37 2568.47 L1806.37 2778.78 L1914.28 2778.78 L1914.28 2568.47 L1806.37 2568.47 L1806.37 2568.47  Z
  " fill="#009af9" fill-rule="evenodd" fill-opacity="1"/>
<polyline clip-path="url(#clip742)" style="stroke:#000000; stroke-linecap:round; stroke-linejoin:round; stroke-width:4; stroke-opacity:1; fill:none" points="
  1806.37,2568.47 1806.37,2778.78 1914.28,2778.78 1914.28,2568.47 1806.37,2568.47 
  "/>
<path clip-path="url(#clip742)" d="
M2076.15 2636.85 L2076.15 2778.78 L2184.06 2778.78 L2184.06 2636.85 L2076.15 2636.85 L2076.15 2636.85  Z
  " fill="#009af9" fill-rule="evenodd" fill-opacity="1"/>
<polyline clip-path="url(#clip742)" style="stroke:#000000; stroke-linecap:round; stroke-linejoin:round; stroke-width:4; stroke-opacity:1; fill:none" points="
  2076.15,2636.85 2076.15,2778.78 2184.06,2778.78 2184.06,2636.85 2076.15,2636.85 
  "/>
<path clip-path="url(#clip742)" d="
M2345.92 2670.1 L2345.92 2778.78 L2453.83 2778.78 L2453.83 2670.1 L2345.92 2670.1 L2345.92 2670.1  Z
  " fill="#009af9" fill-rule="evenodd" fill-opacity="1"/>
<polyline clip-path="url(#clip742)" style="stroke:#000000; stroke-linecap:round; stroke-linejoin:round; stroke-width:4; stroke-opacity:1; fill:none" points="
  2345.92,2670.1 2345.92,2778.78 2453.83,2778.78 2453.83,2670.1 2345.92,2670.1 
  "/>
<path clip-path="url(#clip742)" d="
M2615.69 2634.25 L2615.69 2778.78 L2723.6 2778.78 L2723.6 2634.25 L2615.69 2634.25 L2615.69 2634.25  Z
  " fill="#009af9" fill-rule="evenodd" fill-opacity="1"/>
<polyline clip-path="url(#clip742)" style="stroke:#000000; stroke-linecap:round; stroke-linejoin:round; stroke-width:4; stroke-opacity:1; fill:none" points="
  2615.69,2634.25 2615.69,2778.78 2723.6,2778.78 2723.6,2634.25 2615.69,2634.25 
  "/>
<path clip-path="url(#clip742)" d="
M2885.47 2488.33 L2885.47 2778.78 L2993.38 2778.78 L2993.38 2488.33 L2885.47 2488.33 L2885.47 2488.33  Z
  " fill="#009af9" fill-rule="evenodd" fill-opacity="1"/>
<polyline clip-path="url(#clip742)" style="stroke:#000000; stroke-linecap:round; stroke-linejoin:round; stroke-width:4; stroke-opacity:1; fill:none" points="
  2885.47,2488.33 2885.47,2778.78 2993.38,2778.78 2993.38,2488.33 2885.47,2488.33 
  "/>
<path clip-path="url(#clip742)" d="
M3155.24 2202.96 L3155.24 2778.78 L3263.15 2778.78 L3263.15 2202.96 L3155.24 2202.96 L3155.24 2202.96  Z
  " fill="#009af9" fill-rule="evenodd" fill-opacity="1"/>
<polyline clip-path="url(#clip742)" style="stroke:#000000; stroke-linecap:round; stroke-linejoin:round; stroke-width:4; stroke-opacity:1; fill:none" points="
  3155.24,2202.96 3155.24,2778.78 3263.15,2778.78 3263.15,2202.96 3155.24,2202.96 
  "/>
<path clip-path="url(#clip742)" d="
M3425.01 1759.55 L3425.01 2778.78 L3532.92 2778.78 L3532.92 1759.55 L3425.01 1759.55 L3425.01 1759.55  Z
  " fill="#009af9" fill-rule="evenodd" fill-opacity="1"/>
<polyline clip-path="url(#clip742)" style="stroke:#000000; stroke-linecap:round; stroke-linejoin:round; stroke-width:4; stroke-opacity:1; fill:none" points="
  3425.01,1759.55 3425.01,2778.78 3532.92,2778.78 3532.92,1759.55 3425.01,1759.55 
  "/>
<path clip-path="url(#clip742)" d="
M3694.79 1309.92 L3694.79 2778.78 L3802.7 2778.78 L3802.7 1309.92 L3694.79 1309.92 L3694.79 1309.92  Z
  " fill="#009af9" fill-rule="evenodd" fill-opacity="1"/>
<polyline clip-path="url(#clip742)" style="stroke:#000000; stroke-linecap:round; stroke-linejoin:round; stroke-width:4; stroke-opacity:1; fill:none" points="
  3694.79,1309.92 3694.79,2778.78 3802.7,2778.78 3802.7,1309.92 3694.79,1309.92 
  "/>
<path clip-path="url(#clip742)" d="
M3964.56 881.168 L3964.56 2778.78 L4072.47 2778.78 L4072.47 881.168 L3964.56 881.168 L3964.56 881.168  Z
  " fill="#009af9" fill-rule="evenodd" fill-opacity="1"/>
<polyline clip-path="url(#clip742)" style="stroke:#000000; stroke-linecap:round; stroke-linejoin:round; stroke-width:4; stroke-opacity:1; fill:none" points="
  3964.56,881.168 3964.56,2778.78 4072.47,2778.78 4072.47,881.168 3964.56,881.168 
  "/>
<path clip-path="url(#clip742)" d="
M4234.33 535.999 L4234.33 2778.78 L4342.24 2778.78 L4342.24 535.999 L4234.33 535.999 L4234.33 535.999  Z
  " fill="#009af9" fill-rule="evenodd" fill-opacity="1"/>
<polyline clip-path="url(#clip742)" style="stroke:#000000; stroke-linecap:round; stroke-linejoin:round; stroke-width:4; stroke-opacity:1; fill:none" points="
  4234.33,535.999 4234.33,2778.78 4342.24,2778.78 4342.24,535.999 4234.33,535.999 
  "/>
<path clip-path="url(#clip742)" d="
M4504.11 387.644 L4504.11 2778.78 L4612.02 2778.78 L4612.02 387.644 L4504.11 387.644 L4504.11 387.644  Z
  " fill="#009af9" fill-rule="evenodd" fill-opacity="1"/>
<polyline clip-path="url(#clip742)" style="stroke:#000000; stroke-linecap:round; stroke-linejoin:round; stroke-width:4; stroke-opacity:1; fill:none" points="
  4504.11,387.644 4504.11,2778.78 4612.02,2778.78 4612.02,387.644 4504.11,387.644 
  "/>
<path clip-path="url(#clip742)" d="
M4773.88 331.076 L4773.88 2778.78 L4881.79 2778.78 L4881.79 331.076 L4773.88 331.076 L4773.88 331.076  Z
  " fill="#009af9" fill-rule="evenodd" fill-opacity="1"/>
<polyline clip-path="url(#clip742)" style="stroke:#000000; stroke-linecap:round; stroke-linejoin:round; stroke-width:4; stroke-opacity:1; fill:none" points="
  4773.88,331.076 4773.88,2778.78 4881.79,2778.78 4881.79,331.076 4773.88,331.076 
  "/>
<path clip-path="url(#clip742)" d="
M5043.65 264.408 L5043.65 2778.78 L5151.56 2778.78 L5151.56 264.408 L5043.65 264.408 L5043.65 264.408  Z
  " fill="#009af9" fill-rule="evenodd" fill-opacity="1"/>
<polyline clip-path="url(#clip742)" style="stroke:#000000; stroke-linecap:round; stroke-linejoin:round; stroke-width:4; stroke-opacity:1; fill:none" points="
  5043.65,264.408 5043.65,2778.78 5151.56,2778.78 5151.56,264.408 5043.65,264.408 
  "/>
<path clip-path="url(#clip742)" d="
M5313.43 386.836 L5313.43 2778.78 L5421.34 2778.78 L5421.34 386.836 L5313.43 386.836 L5313.43 386.836  Z
  " fill="#009af9" fill-rule="evenodd" fill-opacity="1"/>
<polyline clip-path="url(#clip742)" style="stroke:#000000; stroke-linecap:round; stroke-linejoin:round; stroke-width:4; stroke-opacity:1; fill:none" points="
  5313.43,386.836 5313.43,2778.78 5421.34,2778.78 5421.34,386.836 5313.43,386.836 
  "/>
<path clip-path="url(#clip742)" d="
M5583.2 624.116 L5583.2 2778.78 L5691.11 2778.78 L5691.11 624.116 L5583.2 624.116 L5583.2 624.116  Z
  " fill="#009af9" fill-rule="evenodd" fill-opacity="1"/>
<polyline clip-path="url(#clip742)" style="stroke:#000000; stroke-linecap:round; stroke-linejoin:round; stroke-width:4; stroke-opacity:1; fill:none" points="
  5583.2,624.116 5583.2,2778.78 5691.11,2778.78 5691.11,624.116 5583.2,624.116 
  "/>
<path clip-path="url(#clip742)" d="
M5852.98 960.131 L5852.98 2778.78 L5960.88 2778.78 L5960.88 960.131 L5852.98 960.131 L5852.98 960.131  Z
  " fill="#009af9" fill-rule="evenodd" fill-opacity="1"/>
<polyline clip-path="url(#clip742)" style="stroke:#000000; stroke-linecap:round; stroke-linejoin:round; stroke-width:4; stroke-opacity:1; fill:none" points="
  5852.98,960.131 5852.98,2778.78 5960.88,2778.78 5960.88,960.131 5852.98,960.131 
  "/>
<path clip-path="url(#clip742)" d="
M6122.75 1306.01 L6122.75 2778.78 L6230.66 2778.78 L6230.66 1306.01 L6122.75 1306.01 L6122.75 1306.01  Z
  " fill="#009af9" fill-rule="evenodd" fill-opacity="1"/>
<polyline clip-path="url(#clip742)" style="stroke:#000000; stroke-linecap:round; stroke-linejoin:round; stroke-width:4; stroke-opacity:1; fill:none" points="
  6122.75,1306.01 6122.75,2778.78 6230.66,2778.78 6230.66,1306.01 6122.75,1306.01 
  "/>
<path clip-path="url(#clip742)" d="
M6392.52 1713.94 L6392.52 2778.78 L6500.43 2778.78 L6500.43 1713.94 L6392.52 1713.94 L6392.52 1713.94  Z
  " fill="#009af9" fill-rule="evenodd" fill-opacity="1"/>
<polyline clip-path="url(#clip742)" style="stroke:#000000; stroke-linecap:round; stroke-linejoin:round; stroke-width:4; stroke-opacity:1; fill:none" points="
  6392.52,1713.94 6392.52,2778.78 6500.43,2778.78 6500.43,1713.94 6392.52,1713.94 
  "/>
<path clip-path="url(#clip742)" d="
M6662.3 2013.01 L6662.3 2778.78 L6770.21 2778.78 L6770.21 2013.01 L6662.3 2013.01 L6662.3 2013.01  Z
  " fill="#009af9" fill-rule="evenodd" fill-opacity="1"/>
<polyline clip-path="url(#clip742)" style="stroke:#000000; stroke-linecap:round; stroke-linejoin:round; stroke-width:4; stroke-opacity:1; fill:none" points="
  6662.3,2013.01 6662.3,2778.78 6770.21,2778.78 6770.21,2013.01 6662.3,2013.01 
  "/>
<path clip-path="url(#clip742)" d="
M6932.07 2080.11 L6932.07 2778.78 L7039.98 2778.78 L7039.98 2080.11 L6932.07 2080.11 L6932.07 2080.11  Z
  " fill="#009af9" fill-rule="evenodd" fill-opacity="1"/>
<polyline clip-path="url(#clip742)" style="stroke:#000000; stroke-linecap:round; stroke-linejoin:round; stroke-width:4; stroke-opacity:1; fill:none" points="
  6932.07,2080.11 6932.07,2778.78 7039.98,2778.78 7039.98,2080.11 6932.07,2080.11 
  "/>
<path clip-path="url(#clip742)" d="
M7201.84 2117.51 L7201.84 2778.78 L7309.75 2778.78 L7309.75 2117.51 L7201.84 2117.51 L7201.84 2117.51  Z
  " fill="#009af9" fill-rule="evenodd" fill-opacity="1"/>
<polyline clip-path="url(#clip742)" style="stroke:#000000; stroke-linecap:round; stroke-linejoin:round; stroke-width:4; stroke-opacity:1; fill:none" points="
  7201.84,2117.51 7201.84,2778.78 7309.75,2778.78 7309.75,2117.51 7201.84,2117.51 
  "/>
<circle clip-path="url(#clip742)" style="fill:#009af9; stroke:none; fill-opacity:0" cx="1051.01" cy="2241.71" r="2"/>
<circle clip-path="url(#clip742)" style="fill:#009af9; stroke:none; fill-opacity:0" cx="1320.78" cy="2363.55" r="2"/>
<circle clip-path="url(#clip742)" style="fill:#009af9; stroke:none; fill-opacity:0" cx="1590.55" cy="2480.82" r="2"/>
<circle clip-path="url(#clip742)" style="fill:#009af9; stroke:none; fill-opacity:0" cx="1860.33" cy="2568.47" r="2"/>
<circle clip-path="url(#clip742)" style="fill:#009af9; stroke:none; fill-opacity:0" cx="2130.1" cy="2636.85" r="2"/>
<circle clip-path="url(#clip742)" style="fill:#009af9; stroke:none; fill-opacity:0" cx="2399.87" cy="2670.1" r="2"/>
<circle clip-path="url(#clip742)" style="fill:#009af9; stroke:none; fill-opacity:0" cx="2669.65" cy="2634.25" r="2"/>
<circle clip-path="url(#clip742)" style="fill:#009af9; stroke:none; fill-opacity:0" cx="2939.42" cy="2488.33" r="2"/>
<circle clip-path="url(#clip742)" style="fill:#009af9; stroke:none; fill-opacity:0" cx="3209.19" cy="2202.96" r="2"/>
<circle clip-path="url(#clip742)" style="fill:#009af9; stroke:none; fill-opacity:0" cx="3478.97" cy="1759.55" r="2"/>
<circle clip-path="url(#clip742)" style="fill:#009af9; stroke:none; fill-opacity:0" cx="3748.74" cy="1309.92" r="2"/>
<circle clip-path="url(#clip742)" style="fill:#009af9; stroke:none; fill-opacity:0" cx="4018.52" cy="881.168" r="2"/>
<circle clip-path="url(#clip742)" style="fill:#009af9; stroke:none; fill-opacity:0" cx="4288.29" cy="535.999" r="2"/>
<circle clip-path="url(#clip742)" style="fill:#009af9; stroke:none; fill-opacity:0" cx="4558.06" cy="387.644" r="2"/>
<circle clip-path="url(#clip742)" style="fill:#009af9; stroke:none; fill-opacity:0" cx="4827.84" cy="331.076" r="2"/>
<circle clip-path="url(#clip742)" style="fill:#009af9; stroke:none; fill-opacity:0" cx="5097.61" cy="264.408" r="2"/>
<circle clip-path="url(#clip742)" style="fill:#009af9; stroke:none; fill-opacity:0" cx="5367.38" cy="386.836" r="2"/>
<circle clip-path="url(#clip742)" style="fill:#009af9; stroke:none; fill-opacity:0" cx="5637.16" cy="624.116" r="2"/>
<circle clip-path="url(#clip742)" style="fill:#009af9; stroke:none; fill-opacity:0" cx="5906.93" cy="960.131" r="2"/>
<circle clip-path="url(#clip742)" style="fill:#009af9; stroke:none; fill-opacity:0" cx="6176.7" cy="1306.01" r="2"/>
<circle clip-path="url(#clip742)" style="fill:#009af9; stroke:none; fill-opacity:0" cx="6446.48" cy="1713.94" r="2"/>
<circle clip-path="url(#clip742)" style="fill:#009af9; stroke:none; fill-opacity:0" cx="6716.25" cy="2013.01" r="2"/>
<circle clip-path="url(#clip742)" style="fill:#009af9; stroke:none; fill-opacity:0" cx="6986.02" cy="2080.11" r="2"/>
<circle clip-path="url(#clip742)" style="fill:#009af9; stroke:none; fill-opacity:0" cx="7255.8" cy="2117.51" r="2"/>
<path clip-path="url(#clip742)" d="
M1104.96 2196.17 L1104.96 2778.78 L1212.87 2778.78 L1212.87 2196.17 L1104.96 2196.17 L1104.96 2196.17  Z
  " fill="#e26f46" fill-rule="evenodd" fill-opacity="1"/>
<polyline clip-path="url(#clip742)" style="stroke:#000000; stroke-linecap:round; stroke-linejoin:round; stroke-width:4; stroke-opacity:1; fill:none" points="
  1104.96,2196.17 1104.96,2778.78 1212.87,2778.78 1212.87,2196.17 1104.96,2196.17 
  "/>
<path clip-path="url(#clip742)" d="
M1374.73 2299.9 L1374.73 2778.78 L1482.64 2778.78 L1482.64 2299.9 L1374.73 2299.9 L1374.73 2299.9  Z
  " fill="#e26f46" fill-rule="evenodd" fill-opacity="1"/>
<polyline clip-path="url(#clip742)" style="stroke:#000000; stroke-linecap:round; stroke-linejoin:round; stroke-width:4; stroke-opacity:1; fill:none" points="
  1374.73,2299.9 1374.73,2778.78 1482.64,2778.78 1482.64,2299.9 1374.73,2299.9 
  "/>
<path clip-path="url(#clip742)" d="
M1644.51 2431.87 L1644.51 2778.78 L1752.42 2778.78 L1752.42 2431.87 L1644.51 2431.87 L1644.51 2431.87  Z
  " fill="#e26f46" fill-rule="evenodd" fill-opacity="1"/>
<polyline clip-path="url(#clip742)" style="stroke:#000000; stroke-linecap:round; stroke-linejoin:round; stroke-width:4; stroke-opacity:1; fill:none" points="
  1644.51,2431.87 1644.51,2778.78 1752.42,2778.78 1752.42,2431.87 1644.51,2431.87 
  "/>
<path clip-path="url(#clip742)" d="
M1914.28 2528.77 L1914.28 2778.78 L2022.19 2778.78 L2022.19 2528.77 L1914.28 2528.77 L1914.28 2528.77  Z
  " fill="#e26f46" fill-rule="evenodd" fill-opacity="1"/>
<polyline clip-path="url(#clip742)" style="stroke:#000000; stroke-linecap:round; stroke-linejoin:round; stroke-width:4; stroke-opacity:1; fill:none" points="
  1914.28,2528.77 1914.28,2778.78 2022.19,2778.78 2022.19,2528.77 1914.28,2528.77 
  "/>
<path clip-path="url(#clip742)" d="
M2184.06 2625.94 L2184.06 2778.78 L2291.96 2778.78 L2291.96 2625.94 L2184.06 2625.94 L2184.06 2625.94  Z
  " fill="#e26f46" fill-rule="evenodd" fill-opacity="1"/>
<polyline clip-path="url(#clip742)" style="stroke:#000000; stroke-linecap:round; stroke-linejoin:round; stroke-width:4; stroke-opacity:1; fill:none" points="
  2184.06,2625.94 2184.06,2778.78 2291.96,2778.78 2291.96,2625.94 2184.06,2625.94 
  "/>
<path clip-path="url(#clip742)" d="
M2453.83 2660.57 L2453.83 2778.78 L2561.74 2778.78 L2561.74 2660.57 L2453.83 2660.57 L2453.83 2660.57  Z
  " fill="#e26f46" fill-rule="evenodd" fill-opacity="1"/>
<polyline clip-path="url(#clip742)" style="stroke:#000000; stroke-linecap:round; stroke-linejoin:round; stroke-width:4; stroke-opacity:1; fill:none" points="
  2453.83,2660.57 2453.83,2778.78 2561.74,2778.78 2561.74,2660.57 2453.83,2660.57 
  "/>
<path clip-path="url(#clip742)" d="
M2723.6 2641.84 L2723.6 2778.78 L2831.51 2778.78 L2831.51 2641.84 L2723.6 2641.84 L2723.6 2641.84  Z
  " fill="#e26f46" fill-rule="evenodd" fill-opacity="1"/>
<polyline clip-path="url(#clip742)" style="stroke:#000000; stroke-linecap:round; stroke-linejoin:round; stroke-width:4; stroke-opacity:1; fill:none" points="
  2723.6,2641.84 2723.6,2778.78 2831.51,2778.78 2831.51,2641.84 2723.6,2641.84 
  "/>
<path clip-path="url(#clip742)" d="
M2993.38 2571.16 L2993.38 2778.78 L3101.29 2778.78 L3101.29 2571.16 L2993.38 2571.16 L2993.38 2571.16  Z
  " fill="#e26f46" fill-rule="evenodd" fill-opacity="1"/>
<polyline clip-path="url(#clip742)" style="stroke:#000000; stroke-linecap:round; stroke-linejoin:round; stroke-width:4; stroke-opacity:1; fill:none" points="
  2993.38,2571.16 2993.38,2778.78 3101.29,2778.78 3101.29,2571.16 2993.38,2571.16 
  "/>
<path clip-path="url(#clip742)" d="
M3263.15 2382.21 L3263.15 2778.78 L3371.06 2778.78 L3371.06 2382.21 L3263.15 2382.21 L3263.15 2382.21  Z
  " fill="#e26f46" fill-rule="evenodd" fill-opacity="1"/>
<polyline clip-path="url(#clip742)" style="stroke:#000000; stroke-linecap:round; stroke-linejoin:round; stroke-width:4; stroke-opacity:1; fill:none" points="
  3263.15,2382.21 3263.15,2778.78 3371.06,2778.78 3371.06,2382.21 3263.15,2382.21 
  "/>
<path clip-path="url(#clip742)" d="
M3532.92 1958.87 L3532.92 2778.78 L3640.83 2778.78 L3640.83 1958.87 L3532.92 1958.87 L3532.92 1958.87  Z
  " fill="#e26f46" fill-rule="evenodd" fill-opacity="1"/>
<polyline clip-path="url(#clip742)" style="stroke:#000000; stroke-linecap:round; stroke-linejoin:round; stroke-width:4; stroke-opacity:1; fill:none" points="
  3532.92,1958.87 3532.92,2778.78 3640.83,2778.78 3640.83,1958.87 3532.92,1958.87 
  "/>
<path clip-path="url(#clip742)" d="
M3802.7 1400.64 L3802.7 2778.78 L3910.61 2778.78 L3910.61 1400.64 L3802.7 1400.64 L3802.7 1400.64  Z
  " fill="#e26f46" fill-rule="evenodd" fill-opacity="1"/>
<polyline clip-path="url(#clip742)" style="stroke:#000000; stroke-linecap:round; stroke-linejoin:round; stroke-width:4; stroke-opacity:1; fill:none" points="
  3802.7,1400.64 3802.7,2778.78 3910.61,2778.78 3910.61,1400.64 3802.7,1400.64 
  "/>
<path clip-path="url(#clip742)" d="
M4072.47 916.109 L4072.47 2778.78 L4180.38 2778.78 L4180.38 916.109 L4072.47 916.109 L4072.47 916.109  Z
  " fill="#e26f46" fill-rule="evenodd" fill-opacity="1"/>
<polyline clip-path="url(#clip742)" style="stroke:#000000; stroke-linecap:round; stroke-linejoin:round; stroke-width:4; stroke-opacity:1; fill:none" points="
  4072.47,916.109 4072.47,2778.78 4180.38,2778.78 4180.38,916.109 4072.47,916.109 
  "/>
<path clip-path="url(#clip742)" d="
M4342.24 514.225 L4342.24 2778.78 L4450.15 2778.78 L4450.15 514.225 L4342.24 514.225 L4342.24 514.225  Z
  " fill="#e26f46" fill-rule="evenodd" fill-opacity="1"/>
<polyline clip-path="url(#clip742)" style="stroke:#000000; stroke-linecap:round; stroke-linejoin:round; stroke-width:4; stroke-opacity:1; fill:none" points="
  4342.24,514.225 4342.24,2778.78 4450.15,2778.78 4450.15,514.225 4342.24,514.225 
  "/>
<path clip-path="url(#clip742)" d="
M4612.02 326.407 L4612.02 2778.78 L4719.93 2778.78 L4719.93 326.407 L4612.02 326.407 L4612.02 326.407  Z
  " fill="#e26f46" fill-rule="evenodd" fill-opacity="1"/>
<polyline clip-path="url(#clip742)" style="stroke:#000000; stroke-linecap:round; stroke-linejoin:round; stroke-width:4; stroke-opacity:1; fill:none" points="
  4612.02,326.407 4612.02,2778.78 4719.93,2778.78 4719.93,326.407 4612.02,326.407 
  "/>
<path clip-path="url(#clip742)" d="
M4881.79 281.806 L4881.79 2778.78 L4989.7 2778.78 L4989.7 281.806 L4881.79 281.806 L4881.79 281.806  Z
  " fill="#e26f46" fill-rule="evenodd" fill-opacity="1"/>
<polyline clip-path="url(#clip742)" style="stroke:#000000; stroke-linecap:round; stroke-linejoin:round; stroke-width:4; stroke-opacity:1; fill:none" points="
  4881.79,281.806 4881.79,2778.78 4989.7,2778.78 4989.7,281.806 4881.79,281.806 
  "/>
<path clip-path="url(#clip742)" d="
M5151.56 279.205 L5151.56 2778.78 L5259.47 2778.78 L5259.47 279.205 L5151.56 279.205 L5151.56 279.205  Z
  " fill="#e26f46" fill-rule="evenodd" fill-opacity="1"/>
<polyline clip-path="url(#clip742)" style="stroke:#000000; stroke-linecap:round; stroke-linejoin:round; stroke-width:4; stroke-opacity:1; fill:none" points="
  5151.56,279.205 5151.56,2778.78 5259.47,2778.78 5259.47,279.205 5151.56,279.205 
  "/>
<path clip-path="url(#clip742)" d="
M5421.34 409.16 L5421.34 2778.78 L5529.25 2778.78 L5529.25 409.16 L5421.34 409.16 L5421.34 409.16  Z
  " fill="#e26f46" fill-rule="evenodd" fill-opacity="1"/>
<polyline clip-path="url(#clip742)" style="stroke:#000000; stroke-linecap:round; stroke-linejoin:round; stroke-width:4; stroke-opacity:1; fill:none" points="
  5421.34,409.16 5421.34,2778.78 5529.25,2778.78 5529.25,409.16 5421.34,409.16 
  "/>
<path clip-path="url(#clip742)" d="
M5691.11 661.023 L5691.11 2778.78 L5799.02 2778.78 L5799.02 661.023 L5691.11 661.023 L5691.11 661.023  Z
  " fill="#e26f46" fill-rule="evenodd" fill-opacity="1"/>
<polyline clip-path="url(#clip742)" style="stroke:#000000; stroke-linecap:round; stroke-linejoin:round; stroke-width:4; stroke-opacity:1; fill:none" points="
  5691.11,661.023 5691.11,2778.78 5799.02,2778.78 5799.02,661.023 5691.11,661.023 
  "/>
<path clip-path="url(#clip742)" d="
M5960.88 910.962 L5960.88 2778.78 L6068.79 2778.78 L6068.79 910.962 L5960.88 910.962 L5960.88 910.962  Z
  " fill="#e26f46" fill-rule="evenodd" fill-opacity="1"/>
<polyline clip-path="url(#clip742)" style="stroke:#000000; stroke-linecap:round; stroke-linejoin:round; stroke-width:4; stroke-opacity:1; fill:none" points="
  5960.88,910.962 5960.88,2778.78 6068.79,2778.78 6068.79,910.962 5960.88,910.962 
  "/>
<path clip-path="url(#clip742)" d="
M6230.66 1409.63 L6230.66 2778.78 L6338.57 2778.78 L6338.57 1409.63 L6230.66 1409.63 L6230.66 1409.63  Z
  " fill="#e26f46" fill-rule="evenodd" fill-opacity="1"/>
<polyline clip-path="url(#clip742)" style="stroke:#000000; stroke-linecap:round; stroke-linejoin:round; stroke-width:4; stroke-opacity:1; fill:none" points="
  6230.66,1409.63 6230.66,2778.78 6338.57,2778.78 6338.57,1409.63 6230.66,1409.63 
  "/>
<path clip-path="url(#clip742)" d="
M6500.43 1800.83 L6500.43 2778.78 L6608.34 2778.78 L6608.34 1800.83 L6500.43 1800.83 L6500.43 1800.83  Z
  " fill="#e26f46" fill-rule="evenodd" fill-opacity="1"/>
<polyline clip-path="url(#clip742)" style="stroke:#000000; stroke-linecap:round; stroke-linejoin:round; stroke-width:4; stroke-opacity:1; fill:none" points="
  6500.43,1800.83 6500.43,2778.78 6608.34,2778.78 6608.34,1800.83 6500.43,1800.83 
  "/>
<path clip-path="url(#clip742)" d="
M6770.21 2091.71 L6770.21 2778.78 L6878.11 2778.78 L6878.11 2091.71 L6770.21 2091.71 L6770.21 2091.71  Z
  " fill="#e26f46" fill-rule="evenodd" fill-opacity="1"/>
<polyline clip-path="url(#clip742)" style="stroke:#000000; stroke-linecap:round; stroke-linejoin:round; stroke-width:4; stroke-opacity:1; fill:none" points="
  6770.21,2091.71 6770.21,2778.78 6878.11,2778.78 6878.11,2091.71 6770.21,2091.71 
  "/>
<path clip-path="url(#clip742)" d="
M7039.98 2222.36 L7039.98 2778.78 L7147.89 2778.78 L7147.89 2222.36 L7039.98 2222.36 L7039.98 2222.36  Z
  " fill="#e26f46" fill-rule="evenodd" fill-opacity="1"/>
<polyline clip-path="url(#clip742)" style="stroke:#000000; stroke-linecap:round; stroke-linejoin:round; stroke-width:4; stroke-opacity:1; fill:none" points="
  7039.98,2222.36 7039.98,2778.78 7147.89,2778.78 7147.89,2222.36 7039.98,2222.36 
  "/>
<path clip-path="url(#clip742)" d="
M7309.75 2386.97 L7309.75 2778.78 L7417.66 2778.78 L7417.66 2386.97 L7309.75 2386.97 L7309.75 2386.97  Z
  " fill="#e26f46" fill-rule="evenodd" fill-opacity="1"/>
<polyline clip-path="url(#clip742)" style="stroke:#000000; stroke-linecap:round; stroke-linejoin:round; stroke-width:4; stroke-opacity:1; fill:none" points="
  7309.75,2386.97 7309.75,2778.78 7417.66,2778.78 7417.66,2386.97 7309.75,2386.97 
  "/>
<circle clip-path="url(#clip742)" style="fill:#e26f46; stroke:none; fill-opacity:0" cx="1158.92" cy="2196.17" r="2"/>
<circle clip-path="url(#clip742)" style="fill:#e26f46; stroke:none; fill-opacity:0" cx="1428.69" cy="2299.9" r="2"/>
<circle clip-path="url(#clip742)" style="fill:#e26f46; stroke:none; fill-opacity:0" cx="1698.46" cy="2431.87" r="2"/>
<circle clip-path="url(#clip742)" style="fill:#e26f46; stroke:none; fill-opacity:0" cx="1968.24" cy="2528.77" r="2"/>
<circle clip-path="url(#clip742)" style="fill:#e26f46; stroke:none; fill-opacity:0" cx="2238.01" cy="2625.94" r="2"/>
<circle clip-path="url(#clip742)" style="fill:#e26f46; stroke:none; fill-opacity:0" cx="2507.78" cy="2660.57" r="2"/>
<circle clip-path="url(#clip742)" style="fill:#e26f46; stroke:none; fill-opacity:0" cx="2777.56" cy="2641.84" r="2"/>
<circle clip-path="url(#clip742)" style="fill:#e26f46; stroke:none; fill-opacity:0" cx="3047.33" cy="2571.16" r="2"/>
<circle clip-path="url(#clip742)" style="fill:#e26f46; stroke:none; fill-opacity:0" cx="3317.1" cy="2382.21" r="2"/>
<circle clip-path="url(#clip742)" style="fill:#e26f46; stroke:none; fill-opacity:0" cx="3586.88" cy="1958.87" r="2"/>
<circle clip-path="url(#clip742)" style="fill:#e26f46; stroke:none; fill-opacity:0" cx="3856.65" cy="1400.64" r="2"/>
<circle clip-path="url(#clip742)" style="fill:#e26f46; stroke:none; fill-opacity:0" cx="4126.42" cy="916.109" r="2"/>
<circle clip-path="url(#clip742)" style="fill:#e26f46; stroke:none; fill-opacity:0" cx="4396.2" cy="514.225" r="2"/>
<circle clip-path="url(#clip742)" style="fill:#e26f46; stroke:none; fill-opacity:0" cx="4665.97" cy="326.407" r="2"/>
<circle clip-path="url(#clip742)" style="fill:#e26f46; stroke:none; fill-opacity:0" cx="4935.75" cy="281.806" r="2"/>
<circle clip-path="url(#clip742)" style="fill:#e26f46; stroke:none; fill-opacity:0" cx="5205.52" cy="279.205" r="2"/>
<circle clip-path="url(#clip742)" style="fill:#e26f46; stroke:none; fill-opacity:0" cx="5475.29" cy="409.16" r="2"/>
<circle clip-path="url(#clip742)" style="fill:#e26f46; stroke:none; fill-opacity:0" cx="5745.07" cy="661.023" r="2"/>
<circle clip-path="url(#clip742)" style="fill:#e26f46; stroke:none; fill-opacity:0" cx="6014.84" cy="910.962" r="2"/>
<circle clip-path="url(#clip742)" style="fill:#e26f46; stroke:none; fill-opacity:0" cx="6284.61" cy="1409.63" r="2"/>
<circle clip-path="url(#clip742)" style="fill:#e26f46; stroke:none; fill-opacity:0" cx="6554.39" cy="1800.83" r="2"/>
<circle clip-path="url(#clip742)" style="fill:#e26f46; stroke:none; fill-opacity:0" cx="6824.16" cy="2091.71" r="2"/>
<circle clip-path="url(#clip742)" style="fill:#e26f46; stroke:none; fill-opacity:0" cx="7093.93" cy="2222.36" r="2"/>
<circle clip-path="url(#clip742)" style="fill:#e26f46; stroke:none; fill-opacity:0" cx="7363.71" cy="2386.97" r="2"/>
</svg>
