<?xml version="1.0" encoding="utf-8"?>
<svg xmlns="http://www.w3.org/2000/svg" xmlns:xlink="http://www.w3.org/1999/xlink" width="1000" height="600" viewBox="0 0 4000 2400">
<defs>
  <clipPath id="clip890">
    <rect x="0" y="0" width="4000" height="2400"/>
  </clipPath>
</defs>
<path clip-path="url(#clip890)" d="
M0 2400 L4000 2400 L4000 0 L0 0  Z
  " fill="#ffffff" fill-rule="evenodd" fill-opacity="1"/>
<defs>
  <clipPath id="clip891">
    <rect x="800" y="0" width="2801" height="2400"/>
  </clipPath>
</defs>
<path clip-path="url(#clip890)" d="
M273.799 2223.39 L3952.76 2223.39 L3952.76 117.424 L273.799 117.424  Z
  " fill="#ffffff" fill-rule="evenodd" fill-opacity="1"/>
<defs>
  <clipPath id="clip892">
    <rect x="273" y="117" width="3680" height="2107"/>
  </clipPath>
</defs>
<polyline clip-path="url(#clip892)" style="stroke:#000000; stroke-linecap:round; stroke-linejoin:round; stroke-width:2; stroke-opacity:0.1; fill:none" points="
  294.245,2223.39 294.245,117.424 
  "/>
<polyline clip-path="url(#clip892)" style="stroke:#000000; stroke-linecap:round; stroke-linejoin:round; stroke-width:2; stroke-opacity:0.1; fill:none" points="
  1203.76,2223.39 1203.76,117.424 
  "/>
<polyline clip-path="url(#clip892)" style="stroke:#000000; stroke-linecap:round; stroke-linejoin:round; stroke-width:2; stroke-opacity:0.1; fill:none" points="
  2113.28,2223.39 2113.28,117.424 
  "/>
<polyline clip-path="url(#clip892)" style="stroke:#000000; stroke-linecap:round; stroke-linejoin:round; stroke-width:2; stroke-opacity:0.1; fill:none" points="
  3022.79,2223.39 3022.79,117.424 
  "/>
<polyline clip-path="url(#clip892)" style="stroke:#000000; stroke-linecap:round; stroke-linejoin:round; stroke-width:2; stroke-opacity:0.1; fill:none" points="
  3932.31,2223.39 3932.31,117.424 
  "/>
<polyline clip-path="url(#clip890)" style="stroke:#000000; stroke-linecap:round; stroke-linejoin:round; stroke-width:4; stroke-opacity:1; fill:none" points="
  273.799,2223.39 3952.76,2223.39 
  "/>
<polyline clip-path="url(#clip890)" style="stroke:#000000; stroke-linecap:round; stroke-linejoin:round; stroke-width:4; stroke-opacity:1; fill:none" points="
  294.245,2223.39 294.245,2204.49 
  "/>
<polyline clip-path="url(#clip890)" style="stroke:#000000; stroke-linecap:round; stroke-linejoin:round; stroke-width:4; stroke-opacity:1; fill:none" points="
  1203.76,2223.39 1203.76,2204.49 
  "/>
<polyline clip-path="url(#clip890)" style="stroke:#000000; stroke-linecap:round; stroke-linejoin:round; stroke-width:4; stroke-opacity:1; fill:none" points="
  2113.28,2223.39 2113.28,2204.49 
  "/>
<polyline clip-path="url(#clip890)" style="stroke:#000000; stroke-linecap:round; stroke-linejoin:round; stroke-width:4; stroke-opacity:1; fill:none" points="
  3022.79,2223.39 3022.79,2204.49 
  "/>
<polyline clip-path="url(#clip890)" style="stroke:#000000; stroke-linecap:round; stroke-linejoin:round; stroke-width:4; stroke-opacity:1; fill:none" points="
  3932.31,2223.39 3932.31,2204.49 
  "/>
<path clip-path="url(#clip890)" d="M241.271 2281.76 L270.947 2281.76 L270.947 2285.69 L241.271 2285.69 L241.271 2281.76 Z" fill="#000000" fill-rule="evenodd" fill-opacity="1" /><path clip-path="url(#clip890)" d="M291.039 2267.11 Q287.428 2267.11 285.599 2270.67 Q283.794 2274.21 283.794 2281.34 Q283.794 2288.45 285.599 2292.01 Q287.428 2295.56 291.039 2295.56 Q294.673 2295.56 296.479 2292.01 Q298.308 2288.45 298.308 2281.34 Q298.308 2274.21 296.479 2270.67 Q294.673 2267.11 291.039 2267.11 M291.039 2263.4 Q296.849 2263.4 299.905 2268.01 Q302.984 2272.59 302.984 2281.34 Q302.984 2290.07 299.905 2294.68 Q296.849 2299.26 291.039 2299.26 Q285.229 2299.26 282.15 2294.68 Q279.095 2290.07 279.095 2281.34 Q279.095 2272.59 282.15 2268.01 Q285.229 2263.4 291.039 2263.4 Z" fill="#000000" fill-rule="evenodd" fill-opacity="1" /><path clip-path="url(#clip890)" d="M311.201 2292.71 L316.085 2292.71 L316.085 2298.59 L311.201 2298.59 L311.201 2292.71 Z" fill="#000000" fill-rule="evenodd" fill-opacity="1" /><path clip-path="url(#clip890)" d="M326.317 2264.03 L344.673 2264.03 L344.673 2267.96 L330.599 2267.96 L330.599 2276.44 Q331.618 2276.09 332.636 2275.93 Q333.655 2275.74 334.673 2275.74 Q340.46 2275.74 343.84 2278.91 Q347.219 2282.08 347.219 2287.5 Q347.219 2293.08 343.747 2296.18 Q340.275 2299.26 333.956 2299.26 Q331.78 2299.26 329.511 2298.89 Q327.266 2298.52 324.858 2297.78 L324.858 2293.08 Q326.942 2294.21 329.164 2294.77 Q331.386 2295.32 333.863 2295.32 Q337.868 2295.32 340.206 2293.22 Q342.543 2291.11 342.543 2287.5 Q342.543 2283.89 340.206 2281.78 Q337.868 2279.68 333.863 2279.68 Q331.988 2279.68 330.113 2280.09 Q328.261 2280.51 326.317 2281.39 L326.317 2264.03 Z" fill="#000000" fill-rule="evenodd" fill-opacity="1" /><path clip-path="url(#clip890)" d="M1181.15 2267.11 Q1177.53 2267.11 1175.71 2270.67 Q1173.9 2274.21 1173.9 2281.34 Q1173.9 2288.45 1175.71 2292.01 Q1177.53 2295.56 1181.15 2295.56 Q1184.78 2295.56 1186.59 2292.01 Q1188.41 2288.45 1188.41 2281.34 Q1188.41 2274.21 1186.59 2270.67 Q1184.78 2267.11 1181.15 2267.11 M1181.15 2263.4 Q1186.96 2263.4 1190.01 2268.01 Q1193.09 2272.59 1193.09 2281.34 Q1193.09 2290.07 1190.01 2294.68 Q1186.96 2299.26 1181.15 2299.26 Q1175.34 2299.26 1172.26 2294.68 Q1169.2 2290.07 1169.2 2281.34 Q1169.2 2272.59 1172.26 2268.01 Q1175.34 2263.4 1181.15 2263.4 Z" fill="#000000" fill-rule="evenodd" fill-opacity="1" /><path clip-path="url(#clip890)" d="M1201.31 2292.71 L1206.19 2292.71 L1206.19 2298.59 L1201.31 2298.59 L1201.31 2292.71 Z" fill="#000000" fill-rule="evenodd" fill-opacity="1" /><path clip-path="url(#clip890)" d="M1226.38 2267.11 Q1222.77 2267.11 1220.94 2270.67 Q1219.13 2274.21 1219.13 2281.34 Q1219.13 2288.45 1220.94 2292.01 Q1222.77 2295.56 1226.38 2295.56 Q1230.01 2295.56 1231.82 2292.01 Q1233.65 2288.45 1233.65 2281.34 Q1233.65 2274.21 1231.82 2270.67 Q1230.01 2267.11 1226.38 2267.11 M1226.38 2263.4 Q1232.19 2263.4 1235.24 2268.01 Q1238.32 2272.59 1238.32 2281.34 Q1238.32 2290.07 1235.24 2294.68 Q1232.19 2299.26 1226.38 2299.26 Q1220.57 2299.26 1217.49 2294.68 Q1214.43 2290.07 1214.43 2281.34 Q1214.43 2272.59 1217.49 2268.01 Q1220.57 2263.4 1226.38 2263.4 Z" fill="#000000" fill-rule="evenodd" fill-opacity="1" /><path clip-path="url(#clip890)" d="M2091.16 2267.11 Q2087.55 2267.11 2085.72 2270.67 Q2083.91 2274.21 2083.91 2281.34 Q2083.91 2288.45 2085.72 2292.01 Q2087.55 2295.56 2091.16 2295.56 Q2094.79 2295.56 2096.6 2292.01 Q2098.43 2288.45 2098.43 2281.34 Q2098.43 2274.21 2096.6 2270.67 Q2094.79 2267.11 2091.16 2267.11 M2091.16 2263.4 Q2096.97 2263.4 2100.03 2268.01 Q2103.1 2272.59 2103.1 2281.34 Q2103.1 2290.07 2100.03 2294.68 Q2096.97 2299.26 2091.16 2299.26 Q2085.35 2299.26 2082.27 2294.68 Q2079.22 2290.07 2079.22 2281.34 Q2079.22 2272.59 2082.27 2268.01 Q2085.35 2263.4 2091.16 2263.4 Z" fill="#000000" fill-rule="evenodd" fill-opacity="1" /><path clip-path="url(#clip890)" d="M2111.32 2292.71 L2116.21 2292.71 L2116.21 2298.59 L2111.32 2298.59 L2111.32 2292.71 Z" fill="#000000" fill-rule="evenodd" fill-opacity="1" /><path clip-path="url(#clip890)" d="M2126.44 2264.03 L2144.79 2264.03 L2144.79 2267.96 L2130.72 2267.96 L2130.72 2276.44 Q2131.74 2276.09 2132.76 2275.93 Q2133.78 2275.74 2134.79 2275.74 Q2140.58 2275.74 2143.96 2278.91 Q2147.34 2282.08 2147.34 2287.5 Q2147.34 2293.08 2143.87 2296.18 Q2140.4 2299.26 2134.08 2299.26 Q2131.9 2299.26 2129.63 2298.89 Q2127.39 2298.52 2124.98 2297.78 L2124.98 2293.08 Q2127.06 2294.21 2129.28 2294.77 Q2131.51 2295.32 2133.98 2295.32 Q2137.99 2295.32 2140.33 2293.22 Q2142.66 2291.11 2142.66 2287.5 Q2142.66 2283.89 2140.33 2281.78 Q2137.99 2279.68 2133.98 2279.68 Q2132.11 2279.68 2130.23 2280.09 Q2128.38 2280.51 2126.44 2281.39 L2126.44 2264.03 Z" fill="#000000" fill-rule="evenodd" fill-opacity="1" /><path clip-path="url(#clip890)" d="M2989.95 2294.65 L2997.59 2294.65 L2997.59 2268.29 L2989.28 2269.95 L2989.28 2265.69 L2997.54 2264.03 L3002.22 2264.03 L3002.22 2294.65 L3009.85 2294.65 L3009.85 2298.59 L2989.95 2298.59 L2989.95 2294.65 Z" fill="#000000" fill-rule="evenodd" fill-opacity="1" /><path clip-path="url(#clip890)" d="M3019.3 2292.71 L3024.18 2292.71 L3024.18 2298.59 L3019.3 2298.59 L3019.3 2292.71 Z" fill="#000000" fill-rule="evenodd" fill-opacity="1" /><path clip-path="url(#clip890)" d="M3044.37 2267.11 Q3040.76 2267.11 3038.93 2270.67 Q3037.12 2274.21 3037.12 2281.34 Q3037.12 2288.45 3038.93 2292.01 Q3040.76 2295.56 3044.37 2295.56 Q3048 2295.56 3049.81 2292.01 Q3051.64 2288.45 3051.64 2281.34 Q3051.64 2274.21 3049.81 2270.67 Q3048 2267.11 3044.37 2267.11 M3044.37 2263.4 Q3050.18 2263.4 3053.23 2268.01 Q3056.31 2272.59 3056.31 2281.34 Q3056.31 2290.07 3053.23 2294.68 Q3050.18 2299.26 3044.37 2299.26 Q3038.56 2299.26 3035.48 2294.68 Q3032.42 2290.07 3032.42 2281.34 Q3032.42 2272.59 3035.48 2268.01 Q3038.56 2263.4 3044.37 2263.4 Z" fill="#000000" fill-rule="evenodd" fill-opacity="1" /><path clip-path="url(#clip890)" d="M3899.96 2294.65 L3907.6 2294.65 L3907.6 2268.29 L3899.29 2269.95 L3899.29 2265.69 L3907.55 2264.03 L3912.23 2264.03 L3912.23 2294.65 L3919.87 2294.65 L3919.87 2298.59 L3899.96 2298.59 L3899.96 2294.65 Z" fill="#000000" fill-rule="evenodd" fill-opacity="1" /><path clip-path="url(#clip890)" d="M3929.31 2292.71 L3934.2 2292.71 L3934.2 2298.59 L3929.31 2298.59 L3929.31 2292.71 Z" fill="#000000" fill-rule="evenodd" fill-opacity="1" /><path clip-path="url(#clip890)" d="M3944.43 2264.03 L3962.78 2264.03 L3962.78 2267.96 L3948.71 2267.96 L3948.71 2276.44 Q3949.73 2276.09 3950.75 2275.93 Q3951.77 2275.74 3952.78 2275.74 Q3958.57 2275.74 3961.95 2278.91 Q3965.33 2282.08 3965.33 2287.5 Q3965.33 2293.08 3961.86 2296.18 Q3958.39 2299.26 3952.07 2299.26 Q3949.89 2299.26 3947.62 2298.89 Q3945.38 2298.52 3942.97 2297.78 L3942.97 2293.08 Q3945.05 2294.21 3947.28 2294.77 Q3949.5 2295.32 3951.97 2295.32 Q3955.98 2295.32 3958.32 2293.22 Q3960.65 2291.11 3960.65 2287.5 Q3960.65 2283.89 3958.32 2281.78 Q3955.98 2279.68 3951.97 2279.68 Q3950.1 2279.68 3948.22 2280.09 Q3946.37 2280.51 3944.43 2281.39 L3944.43 2264.03 Z" fill="#000000" fill-rule="evenodd" fill-opacity="1" /><path clip-path="url(#clip890)" d="M1776.67 2348.97 Q1771.71 2348.97 1769.2 2353.87 Q1766.71 2358.74 1766.71 2368.54 Q1766.71 2378.31 1769.2 2383.21 Q1771.71 2388.08 1776.67 2388.08 Q1781.67 2388.08 1784.15 2383.21 Q1786.67 2378.31 1786.67 2368.54 Q1786.67 2358.74 1784.15 2353.87 Q1781.67 2348.97 1776.67 2348.97 M1776.67 2343.87 Q1784.66 2343.87 1788.87 2350.21 Q1793.1 2356.51 1793.1 2368.54 Q1793.1 2380.54 1788.87 2386.87 Q1784.66 2393.17 1776.67 2393.17 Q1768.69 2393.17 1764.45 2386.87 Q1760.25 2380.54 1760.25 2368.54 Q1760.25 2356.51 1764.45 2350.21 Q1768.69 2343.87 1776.67 2343.87 Z" fill="#000000" fill-rule="evenodd" fill-opacity="1" /><path clip-path="url(#clip890)" d="M1800.61 2371.79 L1817.77 2371.79 L1817.77 2377.01 L1800.61 2377.01 L1800.61 2371.79 Z" fill="#000000" fill-rule="evenodd" fill-opacity="1" /><path clip-path="url(#clip890)" d="M1820.47 2344.73 L1826.96 2344.73 L1836.96 2384.9 L1846.92 2344.73 L1854.15 2344.73 L1864.14 2384.9 L1874.1 2344.73 L1880.63 2344.73 L1868.69 2392.25 L1860.61 2392.25 L1850.58 2351 L1840.46 2392.25 L1832.37 2392.25 L1820.47 2344.73 Z" fill="#000000" fill-rule="evenodd" fill-opacity="1" /><path clip-path="url(#clip890)" d="M1915.57 2372.96 L1915.57 2375.83 L1888.65 2375.83 Q1889.03 2381.88 1892.28 2385.06 Q1895.55 2388.21 1901.38 2388.21 Q1904.75 2388.21 1907.9 2387.38 Q1911.09 2386.55 1914.21 2384.9 L1914.21 2390.44 Q1911.05 2391.77 1907.74 2392.47 Q1904.43 2393.17 1901.03 2393.17 Q1892.5 2393.17 1887.5 2388.21 Q1882.54 2383.24 1882.54 2374.78 Q1882.54 2366.03 1887.25 2360.9 Q1891.99 2355.74 1900.01 2355.74 Q1907.2 2355.74 1911.37 2360.39 Q1915.57 2365.01 1915.57 2372.96 M1909.72 2371.25 Q1909.65 2366.44 1907.01 2363.57 Q1904.4 2360.71 1900.07 2360.71 Q1895.17 2360.71 1892.21 2363.48 Q1889.28 2366.25 1888.84 2371.28 L1909.72 2371.25 Z" fill="#000000" fill-rule="evenodd" fill-opacity="1" /><path clip-path="url(#clip890)" d="M1955.68 2372.96 L1955.68 2375.83 L1928.75 2375.83 Q1929.13 2381.88 1932.38 2385.06 Q1935.66 2388.21 1941.48 2388.21 Q1944.86 2388.21 1948.01 2387.38 Q1951.19 2386.55 1954.31 2384.9 L1954.31 2390.44 Q1951.16 2391.77 1947.85 2392.47 Q1944.54 2393.17 1941.13 2393.17 Q1932.6 2393.17 1927.61 2388.21 Q1922.64 2383.24 1922.64 2374.78 Q1922.64 2366.03 1927.35 2360.9 Q1932.09 2355.74 1940.11 2355.74 Q1947.31 2355.74 1951.48 2360.39 Q1955.68 2365.01 1955.68 2372.96 M1949.82 2371.25 Q1949.76 2366.44 1947.12 2363.57 Q1944.51 2360.71 1940.18 2360.71 Q1935.28 2360.71 1932.32 2363.48 Q1929.39 2366.25 1928.94 2371.28 L1949.82 2371.25 Z" fill="#000000" fill-rule="evenodd" fill-opacity="1" /><path clip-path="url(#clip890)" d="M1965.07 2342.73 L1970.96 2342.73 L1970.96 2371.98 L1988.43 2356.6 L1995.91 2356.6 L1977 2373.28 L1996.71 2392.25 L1989.07 2392.25 L1970.96 2374.84 L1970.96 2392.25 L1965.07 2392.25 L1965.07 2342.73 Z" fill="#000000" fill-rule="evenodd" fill-opacity="1" /><path clip-path="url(#clip890)" d="M2026.5 2362.01 L2026.5 2342.73 L2032.35 2342.73 L2032.35 2392.25 L2026.5 2392.25 L2026.5 2386.9 Q2024.65 2390.09 2021.82 2391.65 Q2019.02 2393.17 2015.07 2393.17 Q2008.61 2393.17 2004.54 2388.02 Q2000.49 2382.86 2000.49 2374.46 Q2000.49 2366.06 2004.54 2360.9 Q2008.61 2355.74 2015.07 2355.74 Q2019.02 2355.74 2021.82 2357.3 Q2024.65 2358.83 2026.5 2362.01 M2006.54 2374.46 Q2006.54 2380.92 2009.18 2384.61 Q2011.86 2388.27 2016.5 2388.27 Q2021.15 2388.27 2023.82 2384.61 Q2026.5 2380.92 2026.5 2374.46 Q2026.5 2368 2023.82 2364.34 Q2021.15 2360.65 2016.5 2360.65 Q2011.86 2360.65 2009.18 2364.34 Q2006.54 2368 2006.54 2374.46 Z" fill="#000000" fill-rule="evenodd" fill-opacity="1" /><path clip-path="url(#clip890)" d="M2060.62 2374.33 Q2053.52 2374.33 2050.78 2375.96 Q2048.04 2377.58 2048.04 2381.49 Q2048.04 2384.61 2050.08 2386.46 Q2052.15 2388.27 2055.68 2388.27 Q2060.55 2388.27 2063.48 2384.84 Q2066.44 2381.37 2066.44 2375.64 L2066.44 2374.33 L2060.62 2374.33 M2072.3 2371.91 L2072.3 2392.25 L2066.44 2392.25 L2066.44 2386.84 Q2064.44 2390.09 2061.44 2391.65 Q2058.45 2393.17 2054.12 2393.17 Q2048.65 2393.17 2045.4 2390.12 Q2042.19 2387.03 2042.19 2381.88 Q2042.19 2375.86 2046.2 2372.8 Q2050.24 2369.75 2058.23 2369.75 L2066.44 2369.75 L2066.44 2369.18 Q2066.44 2365.13 2063.77 2362.94 Q2061.13 2360.71 2056.32 2360.71 Q2053.26 2360.71 2050.37 2361.44 Q2047.47 2362.17 2044.8 2363.64 L2044.8 2358.23 Q2048.01 2356.99 2051.04 2356.38 Q2054.06 2355.74 2056.93 2355.74 Q2064.66 2355.74 2068.48 2359.75 Q2072.3 2363.77 2072.3 2371.91 Z" fill="#000000" fill-rule="evenodd" fill-opacity="1" /><path clip-path="url(#clip890)" d="M2099.19 2395.56 Q2096.71 2401.93 2094.36 2403.87 Q2092 2405.81 2088.05 2405.81 L2083.37 2405.81 L2083.37 2400.91 L2086.81 2400.91 Q2089.23 2400.91 2090.57 2399.76 Q2091.9 2398.62 2093.53 2394.35 L2094.58 2391.68 L2080.16 2356.6 L2086.37 2356.6 L2097.51 2384.49 L2108.65 2356.6 L2114.85 2356.6 L2099.19 2395.56 Z" fill="#000000" fill-rule="evenodd" fill-opacity="1" /><path clip-path="url(#clip890)" d="M2124.43 2384.17 L2131.15 2384.17 L2131.15 2389.64 L2125.93 2399.83 L2121.82 2399.83 L2124.43 2389.64 L2124.43 2384.17 Z" fill="#000000" fill-rule="evenodd" fill-opacity="1" /><path clip-path="url(#clip890)" d="M2166.32 2386.84 L2176.82 2386.84 L2176.82 2350.59 L2165.4 2352.88 L2165.4 2347.02 L2176.76 2344.73 L2183.19 2344.73 L2183.19 2386.84 L2193.69 2386.84 L2193.69 2392.25 L2166.32 2392.25 L2166.32 2386.84 Z" fill="#000000" fill-rule="evenodd" fill-opacity="1" /><path clip-path="url(#clip890)" d="M2202.89 2371.79 L2220.05 2371.79 L2220.05 2377.01 L2202.89 2377.01 L2202.89 2371.79 Z" fill="#000000" fill-rule="evenodd" fill-opacity="1" /><path clip-path="url(#clip890)" d="M2229.63 2344.73 L2236.06 2344.73 L2236.06 2364.21 L2259.42 2364.21 L2259.42 2344.73 L2265.85 2344.73 L2265.85 2392.25 L2259.42 2392.25 L2259.42 2369.62 L2236.06 2369.62 L2236.06 2392.25 L2229.63 2392.25 L2229.63 2344.73 Z" fill="#000000" fill-rule="evenodd" fill-opacity="1" /><path clip-path="url(#clip890)" d="M2292.2 2360.71 Q2287.49 2360.71 2284.75 2364.4 Q2282.02 2368.06 2282.02 2374.46 Q2282.02 2380.86 2284.72 2384.55 Q2287.46 2388.21 2292.2 2388.21 Q2296.88 2388.21 2299.62 2384.52 Q2302.35 2380.83 2302.35 2374.46 Q2302.35 2368.13 2299.62 2364.43 Q2296.88 2360.71 2292.2 2360.71 M2292.2 2355.74 Q2299.84 2355.74 2304.2 2360.71 Q2308.56 2365.68 2308.56 2374.46 Q2308.56 2383.21 2304.2 2388.21 Q2299.84 2393.17 2292.2 2393.17 Q2284.53 2393.17 2280.17 2388.21 Q2275.84 2383.21 2275.84 2374.46 Q2275.84 2365.68 2280.17 2360.71 Q2284.53 2355.74 2292.2 2355.74 Z" fill="#000000" fill-rule="evenodd" fill-opacity="1" /><path clip-path="url(#clip890)" d="M2318.27 2342.73 L2324.13 2342.73 L2324.13 2392.25 L2318.27 2392.25 L2318.27 2342.73 Z" fill="#000000" fill-rule="evenodd" fill-opacity="1" /><path clip-path="url(#clip890)" d="M2336.38 2356.6 L2342.24 2356.6 L2342.24 2392.25 L2336.38 2392.25 L2336.38 2356.6 M2336.38 2342.73 L2342.24 2342.73 L2342.24 2350.14 L2336.38 2350.14 L2336.38 2342.73 Z" fill="#000000" fill-rule="evenodd" fill-opacity="1" /><path clip-path="url(#clip890)" d="M2377.95 2362.01 L2377.95 2342.73 L2383.8 2342.73 L2383.8 2392.25 L2377.95 2392.25 L2377.95 2386.9 Q2376.1 2390.09 2373.27 2391.65 Q2370.47 2393.17 2366.52 2393.17 Q2360.06 2393.17 2355.99 2388.02 Q2351.94 2382.86 2351.94 2374.46 Q2351.94 2366.06 2355.99 2360.9 Q2360.06 2355.74 2366.52 2355.74 Q2370.47 2355.74 2373.27 2357.3 Q2376.1 2358.83 2377.95 2362.01 M2357.99 2374.46 Q2357.99 2380.92 2360.63 2384.61 Q2363.31 2388.27 2367.95 2388.27 Q2372.6 2388.27 2375.27 2384.61 Q2377.95 2380.92 2377.95 2374.46 Q2377.95 2368 2375.27 2364.34 Q2372.6 2360.65 2367.95 2360.65 Q2363.31 2360.65 2360.63 2364.34 Q2357.99 2368 2357.99 2374.46 Z" fill="#000000" fill-rule="evenodd" fill-opacity="1" /><path clip-path="url(#clip890)" d="M2412.07 2374.33 Q2404.97 2374.33 2402.23 2375.96 Q2399.5 2377.58 2399.5 2381.49 Q2399.5 2384.61 2401.53 2386.46 Q2403.6 2388.27 2407.13 2388.27 Q2412 2388.27 2414.93 2384.84 Q2417.89 2381.37 2417.89 2375.64 L2417.89 2374.33 L2412.07 2374.33 M2423.75 2371.91 L2423.75 2392.25 L2417.89 2392.25 L2417.89 2386.84 Q2415.89 2390.09 2412.9 2391.65 Q2409.9 2393.17 2405.57 2393.17 Q2400.1 2393.17 2396.85 2390.12 Q2393.64 2387.03 2393.64 2381.88 Q2393.64 2375.86 2397.65 2372.8 Q2401.69 2369.75 2409.68 2369.75 L2417.89 2369.75 L2417.89 2369.18 Q2417.89 2365.13 2415.22 2362.94 Q2412.58 2360.71 2407.77 2360.71 Q2404.72 2360.71 2401.82 2361.44 Q2398.92 2362.17 2396.25 2363.64 L2396.25 2358.23 Q2399.46 2356.99 2402.49 2356.38 Q2405.51 2355.74 2408.38 2355.74 Q2416.11 2355.74 2419.93 2359.75 Q2423.75 2363.77 2423.75 2371.91 Z" fill="#000000" fill-rule="evenodd" fill-opacity="1" /><path clip-path="url(#clip890)" d="M2450.64 2395.56 Q2448.16 2401.93 2445.81 2403.87 Q2443.45 2405.81 2439.5 2405.81 L2434.83 2405.81 L2434.83 2400.91 L2438.26 2400.91 Q2440.68 2400.91 2442.02 2399.76 Q2443.36 2398.62 2444.98 2394.35 L2446.03 2391.68 L2431.61 2356.6 L2437.82 2356.6 L2448.96 2384.49 L2460.1 2356.6 L2466.3 2356.6 L2450.64 2395.56 Z" fill="#000000" fill-rule="evenodd" fill-opacity="1" /><polyline clip-path="url(#clip892)" style="stroke:#000000; stroke-linecap:round; stroke-linejoin:round; stroke-width:2; stroke-opacity:0.1; fill:none" points="
  273.799,2163.79 3952.76,2163.79 
  "/>
<polyline clip-path="url(#clip892)" style="stroke:#000000; stroke-linecap:round; stroke-linejoin:round; stroke-width:2; stroke-opacity:0.1; fill:none" points="
  273.799,1732.45 3952.76,1732.45 
  "/>
<polyline clip-path="url(#clip892)" style="stroke:#000000; stroke-linecap:round; stroke-linejoin:round; stroke-width:2; stroke-opacity:0.1; fill:none" points="
  273.799,1301.12 3952.76,1301.12 
  "/>
<polyline clip-path="url(#clip892)" style="stroke:#000000; stroke-linecap:round; stroke-linejoin:round; stroke-width:2; stroke-opacity:0.1; fill:none" points="
  273.799,869.789 3952.76,869.789 
  "/>
<polyline clip-path="url(#clip892)" style="stroke:#000000; stroke-linecap:round; stroke-linejoin:round; stroke-width:2; stroke-opacity:0.1; fill:none" points="
  273.799,438.457 3952.76,438.457 
  "/>
<polyline clip-path="url(#clip890)" style="stroke:#000000; stroke-linecap:round; stroke-linejoin:round; stroke-width:4; stroke-opacity:1; fill:none" points="
  273.799,2223.39 273.799,117.424 
  "/>
<polyline clip-path="url(#clip890)" style="stroke:#000000; stroke-linecap:round; stroke-linejoin:round; stroke-width:4; stroke-opacity:1; fill:none" points="
  273.799,2163.79 292.697,2163.79 
  "/>
<polyline clip-path="url(#clip890)" style="stroke:#000000; stroke-linecap:round; stroke-linejoin:round; stroke-width:4; stroke-opacity:1; fill:none" points="
  273.799,1732.45 292.697,1732.45 
  "/>
<polyline clip-path="url(#clip890)" style="stroke:#000000; stroke-linecap:round; stroke-linejoin:round; stroke-width:4; stroke-opacity:1; fill:none" points="
  273.799,1301.12 292.697,1301.12 
  "/>
<polyline clip-path="url(#clip890)" style="stroke:#000000; stroke-linecap:round; stroke-linejoin:round; stroke-width:4; stroke-opacity:1; fill:none" points="
  273.799,869.789 292.697,869.789 
  "/>
<polyline clip-path="url(#clip890)" style="stroke:#000000; stroke-linecap:round; stroke-linejoin:round; stroke-width:4; stroke-opacity:1; fill:none" points="
  273.799,438.457 292.697,438.457 
  "/>
<path clip-path="url(#clip890)" d="M201.855 2149.58 Q198.244 2149.58 196.415 2153.15 Q194.61 2156.69 194.61 2163.82 Q194.61 2170.93 196.415 2174.49 Q198.244 2178.03 201.855 2178.03 Q205.489 2178.03 207.295 2174.49 Q209.123 2170.93 209.123 2163.82 Q209.123 2156.69 207.295 2153.15 Q205.489 2149.58 201.855 2149.58 M201.855 2145.88 Q207.665 2145.88 210.721 2150.49 Q213.799 2155.07 213.799 2163.82 Q213.799 2172.55 210.721 2177.15 Q207.665 2181.74 201.855 2181.74 Q196.045 2181.74 192.966 2177.15 Q189.91 2172.55 189.91 2163.82 Q189.91 2155.07 192.966 2150.49 Q196.045 2145.88 201.855 2145.88 Z" fill="#000000" fill-rule="evenodd" fill-opacity="1" /><path clip-path="url(#clip890)" d="M135.559 1745.8 L151.878 1745.8 L151.878 1749.73 L129.934 1749.73 L129.934 1745.8 Q132.596 1743.04 137.179 1738.41 Q141.786 1733.76 142.966 1732.42 Q145.212 1729.9 146.091 1728.16 Q146.994 1726.4 146.994 1724.71 Q146.994 1721.96 145.05 1720.22 Q143.128 1718.48 140.026 1718.48 Q137.827 1718.48 135.374 1719.25 Q132.943 1720.01 130.165 1721.56 L130.165 1716.84 Q132.989 1715.71 135.443 1715.13 Q137.897 1714.55 139.934 1714.55 Q145.304 1714.55 148.499 1717.23 Q151.693 1719.92 151.693 1724.41 Q151.693 1726.54 150.883 1728.46 Q150.096 1730.36 147.989 1732.95 Q147.411 1733.62 144.309 1736.84 Q141.207 1740.03 135.559 1745.8 Z" fill="#000000" fill-rule="evenodd" fill-opacity="1" /><path clip-path="url(#clip890)" d="M161.739 1715.17 L180.096 1715.17 L180.096 1719.11 L166.022 1719.11 L166.022 1727.58 Q167.04 1727.23 168.059 1727.07 Q169.077 1726.89 170.096 1726.89 Q175.883 1726.89 179.262 1730.06 Q182.642 1733.23 182.642 1738.65 Q182.642 1744.22 179.17 1747.33 Q175.698 1750.4 169.378 1750.4 Q167.202 1750.4 164.934 1750.03 Q162.688 1749.66 160.281 1748.92 L160.281 1744.22 Q162.364 1745.36 164.587 1745.91 Q166.809 1746.47 169.286 1746.47 Q173.29 1746.47 175.628 1744.36 Q177.966 1742.26 177.966 1738.65 Q177.966 1735.03 175.628 1732.93 Q173.29 1730.82 169.286 1730.82 Q167.411 1730.82 165.536 1731.24 Q163.684 1731.65 161.739 1732.53 L161.739 1715.17 Z" fill="#000000" fill-rule="evenodd" fill-opacity="1" /><path clip-path="url(#clip890)" d="M201.855 1718.25 Q198.244 1718.25 196.415 1721.82 Q194.61 1725.36 194.61 1732.49 Q194.61 1739.59 196.415 1743.16 Q198.244 1746.7 201.855 1746.7 Q205.489 1746.7 207.295 1743.16 Q209.123 1739.59 209.123 1732.49 Q209.123 1725.36 207.295 1721.82 Q205.489 1718.25 201.855 1718.25 M201.855 1714.55 Q207.665 1714.55 210.721 1719.15 Q213.799 1723.74 213.799 1732.49 Q213.799 1741.21 210.721 1745.82 Q207.665 1750.4 201.855 1750.4 Q196.045 1750.4 192.966 1745.82 Q189.91 1741.21 189.91 1732.49 Q189.91 1723.74 192.966 1719.15 Q196.045 1714.55 201.855 1714.55 Z" fill="#000000" fill-rule="evenodd" fill-opacity="1" /><path clip-path="url(#clip890)" d="M131.577 1283.84 L149.934 1283.84 L149.934 1287.78 L135.86 1287.78 L135.86 1296.25 Q136.878 1295.9 137.897 1295.74 Q138.915 1295.55 139.934 1295.55 Q145.721 1295.55 149.1 1298.73 Q152.48 1301.9 152.48 1307.31 Q152.48 1312.89 149.008 1315.99 Q145.536 1319.07 139.216 1319.07 Q137.04 1319.07 134.772 1318.7 Q132.527 1318.33 130.119 1317.59 L130.119 1312.89 Q132.202 1314.03 134.425 1314.58 Q136.647 1315.14 139.124 1315.14 Q143.128 1315.14 145.466 1313.03 Q147.804 1310.92 147.804 1307.31 Q147.804 1303.7 145.466 1301.6 Q143.128 1299.49 139.124 1299.49 Q137.249 1299.49 135.374 1299.91 Q133.522 1300.32 131.577 1301.2 L131.577 1283.84 Z" fill="#000000" fill-rule="evenodd" fill-opacity="1" /><path clip-path="url(#clip890)" d="M171.693 1286.92 Q168.082 1286.92 166.253 1290.48 Q164.448 1294.03 164.448 1301.16 Q164.448 1308.26 166.253 1311.83 Q168.082 1315.37 171.693 1315.37 Q175.327 1315.37 177.133 1311.83 Q178.961 1308.26 178.961 1301.16 Q178.961 1294.03 177.133 1290.48 Q175.327 1286.92 171.693 1286.92 M171.693 1283.22 Q177.503 1283.22 180.559 1287.82 Q183.637 1292.41 183.637 1301.16 Q183.637 1309.88 180.559 1314.49 Q177.503 1319.07 171.693 1319.07 Q165.883 1319.07 162.804 1314.49 Q159.749 1309.88 159.749 1301.16 Q159.749 1292.41 162.804 1287.82 Q165.883 1283.22 171.693 1283.22 Z" fill="#000000" fill-rule="evenodd" fill-opacity="1" /><path clip-path="url(#clip890)" d="M201.855 1286.92 Q198.244 1286.92 196.415 1290.48 Q194.61 1294.03 194.61 1301.16 Q194.61 1308.26 196.415 1311.83 Q198.244 1315.37 201.855 1315.37 Q205.489 1315.37 207.295 1311.83 Q209.123 1308.26 209.123 1301.16 Q209.123 1294.03 207.295 1290.48 Q205.489 1286.92 201.855 1286.92 M201.855 1283.22 Q207.665 1283.22 210.721 1287.82 Q213.799 1292.41 213.799 1301.16 Q213.799 1309.88 210.721 1314.49 Q207.665 1319.07 201.855 1319.07 Q196.045 1319.07 192.966 1314.49 Q189.91 1309.88 189.91 1301.16 Q189.91 1292.41 192.966 1287.82 Q196.045 1283.22 201.855 1283.22 Z" fill="#000000" fill-rule="evenodd" fill-opacity="1" /><path clip-path="url(#clip890)" d="M130.351 852.509 L152.573 852.509 L152.573 854.5 L140.026 887.069 L135.142 887.069 L146.948 856.445 L130.351 856.445 L130.351 852.509 Z" fill="#000000" fill-rule="evenodd" fill-opacity="1" /><path clip-path="url(#clip890)" d="M161.739 852.509 L180.096 852.509 L180.096 856.445 L166.022 856.445 L166.022 864.917 Q167.04 864.569 168.059 864.407 Q169.077 864.222 170.096 864.222 Q175.883 864.222 179.262 867.394 Q182.642 870.565 182.642 875.981 Q182.642 881.56 179.17 884.662 Q175.698 887.741 169.378 887.741 Q167.202 887.741 164.934 887.37 Q162.688 887 160.281 886.259 L160.281 881.56 Q162.364 882.694 164.587 883.25 Q166.809 883.806 169.286 883.806 Q173.29 883.806 175.628 881.699 Q177.966 879.593 177.966 875.981 Q177.966 872.37 175.628 870.264 Q173.29 868.157 169.286 868.157 Q167.411 868.157 165.536 868.574 Q163.684 868.991 161.739 869.87 L161.739 852.509 Z" fill="#000000" fill-rule="evenodd" fill-opacity="1" /><path clip-path="url(#clip890)" d="M201.855 855.588 Q198.244 855.588 196.415 859.153 Q194.61 862.695 194.61 869.824 Q194.61 876.931 196.415 880.495 Q198.244 884.037 201.855 884.037 Q205.489 884.037 207.295 880.495 Q209.123 876.931 209.123 869.824 Q209.123 862.695 207.295 859.153 Q205.489 855.588 201.855 855.588 M201.855 851.884 Q207.665 851.884 210.721 856.491 Q213.799 861.074 213.799 869.824 Q213.799 878.551 210.721 883.157 Q207.665 887.741 201.855 887.741 Q196.045 887.741 192.966 883.157 Q189.91 878.551 189.91 869.824 Q189.91 861.074 192.966 856.491 Q196.045 851.884 201.855 851.884 Z" fill="#000000" fill-rule="evenodd" fill-opacity="1" /><path clip-path="url(#clip890)" d="M102.179 451.802 L109.818 451.802 L109.818 425.437 L101.508 427.103 L101.508 422.844 L109.772 421.177 L114.448 421.177 L114.448 451.802 L122.087 451.802 L122.087 455.737 L102.179 455.737 L102.179 451.802 Z" fill="#000000" fill-rule="evenodd" fill-opacity="1" /><path clip-path="url(#clip890)" d="M141.531 424.256 Q137.92 424.256 136.091 427.821 Q134.286 431.363 134.286 438.492 Q134.286 445.599 136.091 449.163 Q137.92 452.705 141.531 452.705 Q145.165 452.705 146.971 449.163 Q148.8 445.599 148.8 438.492 Q148.8 431.363 146.971 427.821 Q145.165 424.256 141.531 424.256 M141.531 420.552 Q147.341 420.552 150.397 425.159 Q153.475 429.742 153.475 438.492 Q153.475 447.219 150.397 451.825 Q147.341 456.409 141.531 456.409 Q135.721 456.409 132.642 451.825 Q129.587 447.219 129.587 438.492 Q129.587 429.742 132.642 425.159 Q135.721 420.552 141.531 420.552 Z" fill="#000000" fill-rule="evenodd" fill-opacity="1" /><path clip-path="url(#clip890)" d="M171.693 424.256 Q168.082 424.256 166.253 427.821 Q164.448 431.363 164.448 438.492 Q164.448 445.599 166.253 449.163 Q168.082 452.705 171.693 452.705 Q175.327 452.705 177.133 449.163 Q178.961 445.599 178.961 438.492 Q178.961 431.363 177.133 427.821 Q175.327 424.256 171.693 424.256 M171.693 420.552 Q177.503 420.552 180.559 425.159 Q183.637 429.742 183.637 438.492 Q183.637 447.219 180.559 451.825 Q177.503 456.409 171.693 456.409 Q165.883 456.409 162.804 451.825 Q159.749 447.219 159.749 438.492 Q159.749 429.742 162.804 425.159 Q165.883 420.552 171.693 420.552 Z" fill="#000000" fill-rule="evenodd" fill-opacity="1" /><path clip-path="url(#clip890)" d="M201.855 424.256 Q198.244 424.256 196.415 427.821 Q194.61 431.363 194.61 438.492 Q194.61 445.599 196.415 449.163 Q198.244 452.705 201.855 452.705 Q205.489 452.705 207.295 449.163 Q209.123 445.599 209.123 438.492 Q209.123 431.363 207.295 427.821 Q205.489 424.256 201.855 424.256 M201.855 420.552 Q207.665 420.552 210.721 425.159 Q213.799 429.742 213.799 438.492 Q213.799 447.219 210.721 451.825 Q207.665 456.409 201.855 456.409 Q196.045 456.409 192.966 451.825 Q189.91 447.219 189.91 438.492 Q189.91 429.742 192.966 425.159 Q196.045 420.552 201.855 420.552 Z" fill="#000000" fill-rule="evenodd" fill-opacity="1" /><path clip-path="url(#clip890)" d="M-13.934 1656.22 L9.71464 1664.94 L9.71464 1647.47 L-13.934 1656.22 M-20.2678 1659.85 L-20.2678 1652.56 L27.2522 1634.45 L27.2522 1641.13 L15.0618 1645.46 L15.0618 1666.88 L27.2522 1671.21 L27.2522 1677.99 L-20.2678 1659.85 Z" fill="#000000" fill-rule="evenodd" fill-opacity="1" /><path clip-path="url(#clip890)" d="M-8.3958 1635.79 L-8.3958 1629.58 L21.523 1618.44 L-8.3958 1607.3 L-8.3958 1601.09 L27.2522 1614.46 L27.2522 1622.42 L-8.3958 1635.79 Z" fill="#000000" fill-rule="evenodd" fill-opacity="1" /><path clip-path="url(#clip890)" d="M7.96407 1562.52 L10.8286 1562.52 L10.8286 1589.44 Q16.8761 1589.06 20.0589 1585.82 Q23.2099 1582.54 23.2099 1576.71 Q23.2099 1573.34 22.3824 1570.19 Q21.5549 1567.01 19.8998 1563.89 L25.4379 1563.89 Q26.7747 1567.04 27.475 1570.35 Q28.1752 1573.66 28.1752 1577.06 Q28.1752 1585.59 23.2099 1590.59 Q18.2447 1595.56 9.77829 1595.56 Q1.02545 1595.56 -4.09895 1590.84 Q-9.25517 1586.1 -9.25517 1578.08 Q-9.25517 1570.89 -4.6082 1566.72 Q0.0069331 1562.52 7.96407 1562.52 M6.24533 1568.37 Q1.43922 1568.44 -1.42535 1571.08 Q-4.28992 1573.69 -4.28992 1578.02 Q-4.28992 1582.92 -1.52084 1585.88 Q1.24825 1588.81 6.27715 1589.25 L6.24533 1568.37 Z" fill="#000000" fill-rule="evenodd" fill-opacity="1" /><path clip-path="url(#clip890)" d="M-2.92129 1532.25 Q-3.49421 1533.24 -3.74883 1534.41 Q-4.03529 1535.56 -4.03529 1536.96 Q-4.03529 1541.92 -0.78878 1544.6 Q2.4259 1547.24 8.47332 1547.24 L27.2522 1547.24 L27.2522 1553.13 L-8.3958 1553.13 L-8.3958 1547.24 L-2.85763 1547.24 Q-6.10415 1545.39 -7.66374 1542.43 Q-9.25517 1539.47 -9.25517 1535.24 Q-9.25517 1534.64 -9.15968 1533.9 Q-9.09603 1533.17 -8.93688 1532.28 L-2.92129 1532.25 Z" fill="#000000" fill-rule="evenodd" fill-opacity="1" /><path clip-path="url(#clip890)" d="M9.33269 1509.91 Q9.33269 1517 10.9559 1519.74 Q12.5792 1522.48 16.4941 1522.48 Q19.6133 1522.48 21.4594 1520.44 Q23.2736 1518.37 23.2736 1514.84 Q23.2736 1509.97 19.8361 1507.04 Q16.3668 1504.08 10.6377 1504.08 L9.33269 1504.08 L9.33269 1509.91 M6.91372 1498.22 L27.2522 1498.22 L27.2522 1504.08 L21.8413 1504.08 Q25.0878 1506.09 26.6474 1509.08 Q28.1752 1512.07 28.1752 1516.4 Q28.1752 1521.87 25.1196 1525.12 Q22.0323 1528.33 16.8761 1528.33 Q10.8605 1528.33 7.80492 1524.32 Q4.74938 1520.28 4.74938 1512.29 L4.74938 1504.08 L4.17647 1504.08 Q0.134247 1504.08 -2.06192 1506.75 Q-4.28992 1509.4 -4.28992 1514.2 Q-4.28992 1517.26 -3.55786 1520.15 Q-2.82581 1523.05 -1.36169 1525.72 L-6.77254 1525.72 Q-8.01386 1522.51 -8.6186 1519.49 Q-9.25517 1516.46 -9.25517 1513.6 Q-9.25517 1505.86 -5.24477 1502.04 Q-1.23438 1498.22 6.91372 1498.22 Z" fill="#000000" fill-rule="evenodd" fill-opacity="1" /><path clip-path="url(#clip890)" d="M9.01441 1462.7 Q2.6487 1462.7 -0.852437 1465.35 Q-4.35358 1467.96 -4.35358 1472.7 Q-4.35358 1477.41 -0.852437 1480.05 Q2.6487 1482.66 9.01441 1482.66 Q15.3483 1482.66 18.8494 1480.05 Q22.3506 1477.41 22.3506 1472.7 Q22.3506 1467.96 18.8494 1465.35 Q15.3483 1462.7 9.01441 1462.7 M22.828 1456.85 Q31.931 1456.85 36.3551 1460.89 Q40.8111 1464.93 40.8111 1473.27 Q40.8111 1476.36 40.3337 1479.1 Q39.8881 1481.83 38.9332 1484.41 L33.2359 1484.41 Q34.6364 1481.83 35.3048 1479.32 Q35.9732 1476.8 35.9732 1474.19 Q35.9732 1468.43 32.9495 1465.57 Q29.9576 1462.7 23.8783 1462.7 L20.9819 1462.7 Q24.133 1464.52 25.6926 1467.35 Q27.2522 1470.18 27.2522 1474.13 Q27.2522 1480.69 22.2551 1484.7 Q17.258 1488.71 9.01441 1488.71 Q0.738989 1488.71 -4.25809 1484.7 Q-9.25517 1480.69 -9.25517 1474.13 Q-9.25517 1470.18 -7.69557 1467.35 Q-6.13597 1464.52 -2.98495 1462.7 L-8.3958 1462.7 L-8.3958 1456.85 L22.828 1456.85 Z" fill="#000000" fill-rule="evenodd" fill-opacity="1" /><path clip-path="url(#clip890)" d="M7.96407 1414.29 L10.8286 1414.29 L10.8286 1441.22 Q16.8761 1440.84 20.0589 1437.59 Q23.2099 1434.31 23.2099 1428.49 Q23.2099 1425.11 22.3824 1421.96 Q21.5549 1418.78 19.8998 1415.66 L25.4379 1415.66 Q26.7747 1418.81 27.475 1422.12 Q28.1752 1425.43 28.1752 1428.84 Q28.1752 1437.37 23.2099 1442.36 Q18.2447 1447.33 9.77829 1447.33 Q1.02545 1447.33 -4.09895 1442.62 Q-9.25517 1437.88 -9.25517 1429.86 Q-9.25517 1422.66 -4.6082 1418.49 Q0.0069331 1414.29 7.96407 1414.29 M6.24533 1420.15 Q1.43922 1420.21 -1.42535 1422.85 Q-4.28992 1425.46 -4.28992 1429.79 Q-4.28992 1434.69 -1.52084 1437.65 Q1.24825 1440.58 6.27715 1441.03 L6.24533 1420.15 Z" fill="#000000" fill-rule="evenodd" fill-opacity="1" /><path clip-path="url(#clip890)" d="M5.73607 1354.33 L27.2522 1354.33 L27.2522 1360.18 L5.92704 1360.18 Q0.866303 1360.18 -1.64815 1362.16 Q-4.1626 1364.13 -4.1626 1368.08 Q-4.1626 1372.82 -1.13889 1375.56 Q1.88482 1378.29 7.1047 1378.29 L27.2522 1378.29 L27.2522 1384.18 L-8.3958 1384.18 L-8.3958 1378.29 L-2.85763 1378.29 Q-6.07232 1376.19 -7.66374 1373.36 Q-9.25517 1370.5 -9.25517 1366.77 Q-9.25517 1360.63 -5.43575 1357.48 Q-1.64815 1354.33 5.73607 1354.33 Z" fill="#000000" fill-rule="evenodd" fill-opacity="1" /><path clip-path="url(#clip890)" d="M7.96407 1312.15 L10.8286 1312.15 L10.8286 1339.08 Q16.8761 1338.7 20.0589 1335.45 Q23.2099 1332.17 23.2099 1326.35 Q23.2099 1322.98 22.3824 1319.83 Q21.5549 1316.64 19.8998 1313.52 L25.4379 1313.52 Q26.7747 1316.67 27.475 1319.98 Q28.1752 1323.29 28.1752 1326.7 Q28.1752 1335.23 23.2099 1340.23 Q18.2447 1345.19 9.77829 1345.19 Q1.02545 1345.19 -4.09895 1340.48 Q-9.25517 1335.74 -9.25517 1327.72 Q-9.25517 1320.53 -4.6082 1316.36 Q0.0069331 1312.15 7.96407 1312.15 M6.24533 1318.01 Q1.43922 1318.07 -1.42535 1320.72 Q-4.28992 1323.33 -4.28992 1327.65 Q-4.28992 1332.56 -1.52084 1335.52 Q1.24825 1338.44 6.27715 1338.89 L6.24533 1318.01 Z" fill="#000000" fill-rule="evenodd" fill-opacity="1" /><path clip-path="url(#clip890)" d="M-8.3958 1305.95 L-8.3958 1300.09 L19.4223 1292.77 L-8.3958 1285.48 L-8.3958 1278.58 L19.4223 1271.25 L-8.3958 1263.97 L-8.3958 1258.11 L27.2522 1267.44 L27.2522 1274.34 L-1.96644 1282.01 L27.2522 1289.72 L27.2522 1296.62 L-8.3958 1305.95 Z" fill="#000000" fill-rule="evenodd" fill-opacity="1" /><path clip-path="url(#clip890)" d="M9.46001 1202.92 Q2.99882 1202.92 -0.661466 1205.59 Q-4.35358 1208.23 -4.35358 1212.88 Q-4.35358 1217.53 -0.661466 1220.2 Q2.99882 1222.84 9.46001 1222.84 Q15.9212 1222.84 19.6133 1220.2 Q23.2736 1217.53 23.2736 1212.88 Q23.2736 1208.23 19.6133 1205.59 Q15.9212 1202.92 9.46001 1202.92 M-2.98495 1222.84 Q-6.1678 1221 -7.69557 1218.2 Q-9.25517 1215.36 -9.25517 1211.45 Q-9.25517 1204.96 -4.09895 1200.91 Q1.05727 1196.84 9.46001 1196.84 Q17.8627 1196.84 23.019 1200.91 Q28.1752 1204.96 28.1752 1211.45 Q28.1752 1215.36 26.6474 1218.2 Q25.0878 1221 21.905 1222.84 L27.2522 1222.84 L27.2522 1228.73 L-22.273 1228.73 L-22.273 1222.84 L-2.98495 1222.84 Z" fill="#000000" fill-rule="evenodd" fill-opacity="1" /><path clip-path="url(#clip890)" d="M-8.3958 1187.13 L-8.3958 1181.28 L27.2522 1181.28 L27.2522 1187.13 L-8.3958 1187.13 M-22.273 1187.13 L-22.273 1181.28 L-14.857 1181.28 L-14.857 1187.13 L-22.273 1187.13 Z" fill="#000000" fill-rule="evenodd" fill-opacity="1" /><path clip-path="url(#clip890)" d="M-22.273 1169.24 L-22.273 1163.36 L6.97738 1163.36 L-8.3958 1145.88 L-8.3958 1138.4 L8.28235 1157.31 L27.2522 1137.61 L27.2522 1145.25 L9.84195 1163.36 L27.2522 1163.36 L27.2522 1169.24 L-22.273 1169.24 Z" fill="#000000" fill-rule="evenodd" fill-opacity="1" /><path clip-path="url(#clip890)" d="M7.96407 1103.1 L10.8286 1103.1 L10.8286 1130.03 Q16.8761 1129.65 20.0589 1126.4 Q23.2099 1123.12 23.2099 1117.3 Q23.2099 1113.93 22.3824 1110.78 Q21.5549 1107.59 19.8998 1104.47 L25.4379 1104.47 Q26.7747 1107.62 27.475 1110.93 Q28.1752 1114.24 28.1752 1117.65 Q28.1752 1126.18 23.2099 1131.18 Q18.2447 1136.14 9.77829 1136.14 Q1.02545 1136.14 -4.09895 1131.43 Q-9.25517 1126.69 -9.25517 1118.67 Q-9.25517 1111.48 -4.6082 1107.31 Q0.0069331 1103.1 7.96407 1103.1 M6.24533 1108.96 Q1.43922 1109.02 -1.42535 1111.67 Q-4.28992 1114.28 -4.28992 1118.61 Q-4.28992 1123.51 -1.52084 1126.47 Q1.24825 1129.39 6.27715 1129.84 L6.24533 1108.96 Z" fill="#000000" fill-rule="evenodd" fill-opacity="1" /><path clip-path="url(#clip890)" d="M-7.34546 1050.05 L-1.80729 1050.05 Q-3.08043 1052.53 -3.71701 1055.2 Q-4.35358 1057.88 -4.35358 1060.74 Q-4.35358 1065.1 -3.01678 1067.3 Q-1.67998 1069.46 0.993618 1069.46 Q3.03064 1069.46 4.2083 1067.9 Q5.35413 1066.34 6.40447 1061.63 L6.85007 1059.63 Q8.18687 1053.39 10.6377 1050.78 Q13.0566 1048.14 17.4171 1048.14 Q22.3824 1048.14 25.2788 1052.08 Q28.1752 1056 28.1752 1062.87 Q28.1752 1065.74 27.6023 1068.86 Q27.0612 1071.94 25.9472 1075.38 L19.8998 1075.38 Q21.5867 1072.14 22.446 1068.98 Q23.2736 1065.83 23.2736 1062.75 Q23.2736 1058.61 21.8731 1056.38 Q20.4409 1054.15 17.8627 1054.15 Q15.4756 1054.15 14.2025 1055.78 Q12.9293 1057.37 11.7517 1062.81 L11.2742 1064.85 Q10.1284 1070.29 7.7731 1072.71 Q5.38596 1075.13 1.24825 1075.13 Q-3.78066 1075.13 -6.51792 1071.56 Q-9.25517 1068 -9.25517 1061.44 Q-9.25517 1058.19 -8.77774 1055.33 Q-8.30031 1052.47 -7.34546 1050.05 Z" fill="#000000" fill-rule="evenodd" fill-opacity="1" /><path clip-path="url(#clip890)" d="M5.73607 1009.18 L27.2522 1009.18 L27.2522 1015.03 L5.92704 1015.03 Q0.866303 1015.03 -1.64815 1017.01 Q-4.1626 1018.98 -4.1626 1022.93 Q-4.1626 1027.67 -1.13889 1030.41 Q1.88482 1033.15 7.1047 1033.15 L27.2522 1033.15 L27.2522 1039.03 L-22.273 1039.03 L-22.273 1033.15 L-2.85763 1033.15 Q-6.07232 1031.04 -7.66374 1028.21 Q-9.25517 1025.35 -9.25517 1021.62 Q-9.25517 1015.48 -5.43575 1012.33 Q-1.64815 1009.18 5.73607 1009.18 Z" fill="#000000" fill-rule="evenodd" fill-opacity="1" /><path clip-path="url(#clip890)" d="M9.33269 981.297 Q9.33269 988.395 10.9559 991.132 Q12.5792 993.869 16.4941 993.869 Q19.6133 993.869 21.4594 991.832 Q23.2736 989.763 23.2736 986.23 Q23.2736 981.36 19.8361 978.432 Q16.3668 975.472 10.6377 975.472 L9.33269 975.472 L9.33269 981.297 M6.91372 969.616 L27.2522 969.616 L27.2522 975.472 L21.8413 975.472 Q25.0878 977.477 26.6474 980.469 Q28.1752 983.461 28.1752 987.79 Q28.1752 993.264 25.1196 996.511 Q22.0323 999.725 16.8761 999.725 Q10.8605 999.725 7.80492 995.715 Q4.74938 991.673 4.74938 983.684 L4.74938 975.472 L4.17647 975.472 Q0.134247 975.472 -2.06192 978.146 Q-4.28992 980.787 -4.28992 985.594 Q-4.28992 988.649 -3.55786 991.546 Q-2.82581 994.442 -1.36169 997.116 L-6.77254 997.116 Q-8.01386 993.901 -8.6186 990.877 Q-9.25517 987.853 -9.25517 984.989 Q-9.25517 977.255 -5.24477 973.435 Q-1.23438 969.616 6.91372 969.616 Z" fill="#000000" fill-rule="evenodd" fill-opacity="1" /><path clip-path="url(#clip890)" d="M-2.92129 936.896 Q-3.49421 937.883 -3.74883 939.06 Q-4.03529 940.206 -4.03529 941.607 Q-4.03529 946.572 -0.78878 949.245 Q2.4259 951.887 8.47332 951.887 L27.2522 951.887 L27.2522 957.775 L-8.3958 957.775 L-8.3958 951.887 L-2.85763 951.887 Q-6.10415 950.041 -7.66374 947.081 Q-9.25517 944.121 -9.25517 939.888 Q-9.25517 939.283 -9.15968 938.551 Q-9.09603 937.819 -8.93688 936.928 L-2.92129 936.896 Z" fill="#000000" fill-rule="evenodd" fill-opacity="1" /><path clip-path="url(#clip890)" d="M7.96407 901.694 L10.8286 901.694 L10.8286 928.621 Q16.8761 928.239 20.0589 924.992 Q23.2099 921.714 23.2099 915.889 Q23.2099 912.515 22.3824 909.364 Q21.5549 906.181 19.8998 903.062 L25.4379 903.062 Q26.7747 906.213 27.475 909.523 Q28.1752 912.834 28.1752 916.239 Q28.1752 924.769 23.2099 929.766 Q18.2447 934.732 9.77829 934.732 Q1.02545 934.732 -4.09895 930.021 Q-9.25517 925.279 -9.25517 917.258 Q-9.25517 910.064 -4.6082 905.895 Q0.0069331 901.694 7.96407 901.694 M6.24533 907.55 Q1.43922 907.614 -1.42535 910.255 Q-4.28992 912.865 -4.28992 917.194 Q-4.28992 922.096 -1.52084 925.056 Q1.24825 927.984 6.27715 928.43 L6.24533 907.55 Z" fill="#000000" fill-rule="evenodd" fill-opacity="1" /><path clip-path="url(#clip890)" d="M-7.02717 845.707 L-1.55267 845.707 Q-2.92129 848.19 -3.58969 850.704 Q-4.28992 853.187 -4.28992 855.733 Q-4.28992 861.43 -0.661466 864.582 Q2.93516 867.733 9.46001 867.733 Q15.9849 867.733 19.6133 864.582 Q23.2099 861.43 23.2099 855.733 Q23.2099 853.187 22.5415 850.704 Q21.8413 848.19 20.4727 845.707 L25.8835 845.707 Q27.0294 848.158 27.6023 850.8 Q28.1752 853.41 28.1752 856.37 Q28.1752 864.422 23.1144 869.165 Q18.0537 873.907 9.46001 873.907 Q0.738989 873.907 -4.25809 869.133 Q-9.25517 864.327 -9.25517 855.988 Q-9.25517 853.282 -8.68226 850.704 Q-8.14117 848.126 -7.02717 845.707 Z" fill="#000000" fill-rule="evenodd" fill-opacity="1" /><path clip-path="url(#clip890)" d="M-4.28992 821.708 Q-4.28992 826.419 -0.597809 829.156 Q3.06247 831.894 9.46001 831.894 Q15.8575 831.894 19.5497 829.188 Q23.2099 826.451 23.2099 821.708 Q23.2099 817.03 19.5178 814.292 Q15.8257 811.555 9.46001 811.555 Q3.12613 811.555 -0.56598 814.292 Q-4.28992 817.03 -4.28992 821.708 M-9.25517 821.708 Q-9.25517 814.07 -4.28992 809.709 Q0.675332 805.349 9.46001 805.349 Q18.2129 805.349 23.2099 809.709 Q28.1752 814.07 28.1752 821.708 Q28.1752 829.379 23.2099 833.74 Q18.2129 838.068 9.46001 838.068 Q0.675332 838.068 -4.28992 833.74 Q-9.25517 829.379 -9.25517 821.708 Z" fill="#000000" fill-rule="evenodd" fill-opacity="1" /><path clip-path="url(#clip890)" d="M13.1839 796.246 L-8.3958 796.246 L-8.3958 790.389 L12.9611 790.389 Q18.0219 790.389 20.5682 788.416 Q23.0826 786.442 23.0826 782.496 Q23.0826 777.753 20.0589 775.016 Q17.0352 772.247 11.8153 772.247 L-8.3958 772.247 L-8.3958 766.39 L27.2522 766.39 L27.2522 772.247 L21.7776 772.247 Q25.0242 774.379 26.6156 777.212 Q28.1752 780.013 28.1752 783.737 Q28.1752 789.88 24.3558 793.063 Q20.5363 796.246 13.1839 796.246 M-9.25517 781.509 L-9.25517 781.509 Z" fill="#000000" fill-rule="evenodd" fill-opacity="1" /><path clip-path="url(#clip890)" d="M5.73607 724.695 L27.2522 724.695 L27.2522 730.552 L5.92704 730.552 Q0.866303 730.552 -1.64815 732.525 Q-4.1626 734.498 -4.1626 738.445 Q-4.1626 743.187 -1.13889 745.925 Q1.88482 748.662 7.1047 748.662 L27.2522 748.662 L27.2522 754.55 L-8.3958 754.55 L-8.3958 748.662 L-2.85763 748.662 Q-6.07232 746.561 -7.66374 743.729 Q-9.25517 740.864 -9.25517 737.14 Q-9.25517 730.997 -5.43575 727.846 Q-1.64815 724.695 5.73607 724.695 Z" fill="#000000" fill-rule="evenodd" fill-opacity="1" /><path clip-path="url(#clip890)" d="M-18.5173 707.221 L-8.3958 707.221 L-8.3958 695.158 L-3.84432 695.158 L-3.84432 707.221 L15.5074 707.221 Q19.8679 707.221 21.1093 706.044 Q22.3506 704.834 22.3506 701.174 L22.3506 695.158 L27.2522 695.158 L27.2522 701.174 Q27.2522 707.953 24.7377 710.531 Q22.1914 713.11 15.5074 713.11 L-3.84432 713.11 L-3.84432 717.406 L-8.3958 717.406 L-8.3958 713.11 L-18.5173 713.11 L-18.5173 707.221 Z" fill="#000000" fill-rule="evenodd" fill-opacity="1" /><path clip-path="url(#clip890)" d="M-7.34546 664.73 L-1.80729 664.73 Q-3.08043 667.213 -3.71701 669.886 Q-4.35358 672.56 -4.35358 675.425 Q-4.35358 679.785 -3.01678 681.981 Q-1.67998 684.146 0.993618 684.146 Q3.03064 684.146 4.2083 682.586 Q5.35413 681.026 6.40447 676.316 L6.85007 674.311 Q8.18687 668.072 10.6377 665.462 Q13.0566 662.82 17.4171 662.82 Q22.3824 662.82 25.2788 666.767 Q28.1752 670.682 28.1752 677.557 Q28.1752 680.422 27.6023 683.541 Q27.0612 686.628 25.9472 690.066 L19.8998 690.066 Q21.5867 686.819 22.446 683.668 Q23.2736 680.517 23.2736 677.43 Q23.2736 673.292 21.8731 671.064 Q20.4409 668.836 17.8627 668.836 Q15.4756 668.836 14.2025 670.459 Q12.9293 672.051 11.7517 677.493 L11.2742 679.53 Q10.1284 684.973 7.7731 687.392 Q5.38596 689.811 1.24825 689.811 Q-3.78066 689.811 -6.51792 686.246 Q-9.25517 682.681 -9.25517 676.125 Q-9.25517 672.878 -8.77774 670.014 Q-8.30031 667.149 -7.34546 664.73 Z" fill="#000000" fill-rule="evenodd" fill-opacity="1" /><path clip-path="url(#clip890)" d="M978.883 18.8205 L978.883 65.8515 L988.767 65.8515 Q1001.28 65.8515 1007.08 60.1802 Q1012.91 54.509 1012.91 42.2752 Q1012.91 30.1225 1007.08 24.4918 Q1001.28 18.8205 988.767 18.8205 L978.883 18.8205 M970.7 12.096 L987.511 12.096 Q1005.09 12.096 1013.32 19.4281 Q1021.54 26.7198 1021.54 42.2752 Q1021.54 57.9117 1013.27 65.2439 Q1005.01 72.576 987.511 72.576 L970.7 72.576 L970.7 12.096 Z" fill="#000000" fill-rule="evenodd" fill-opacity="1" /><path clip-path="url(#clip890)" d="M1034.26 27.2059 L1041.71 27.2059 L1041.71 72.576 L1034.26 72.576 L1034.26 27.2059 M1034.26 9.54393 L1041.71 9.54393 L1041.71 18.9825 L1034.26 18.9825 L1034.26 9.54393 Z" fill="#000000" fill-rule="evenodd" fill-opacity="1" /><path clip-path="url(#clip890)" d="M1086.23 28.5427 L1086.23 35.5912 Q1083.07 33.9709 1079.67 33.1607 Q1076.27 32.3505 1072.62 32.3505 Q1067.07 32.3505 1064.28 34.0519 Q1061.52 35.7533 1061.52 39.156 Q1061.52 41.7486 1063.51 43.2475 Q1065.49 44.7058 1071.49 46.0426 L1074.04 46.6097 Q1081.98 48.3111 1085.3 51.4303 Q1088.66 54.509 1088.66 60.0587 Q1088.66 66.3781 1083.64 70.0644 Q1078.66 73.7508 1069.91 73.7508 Q1066.26 73.7508 1062.29 73.0216 Q1058.36 72.3329 1053.99 70.9151 L1053.99 63.2184 Q1058.12 65.3654 1062.13 66.4591 Q1066.14 67.5124 1070.07 67.5124 Q1075.33 67.5124 1078.17 65.73 Q1081.01 63.9071 1081.01 60.6258 Q1081.01 57.5877 1078.94 55.9673 Q1076.91 54.3469 1069.99 52.8481 L1067.39 52.2405 Q1060.47 50.7821 1057.39 47.7845 Q1054.31 44.7463 1054.31 39.4801 Q1054.31 33.0797 1058.85 29.5959 Q1063.38 26.1121 1071.73 26.1121 Q1075.86 26.1121 1079.51 26.7198 Q1083.15 27.3274 1086.23 28.5427 Z" fill="#000000" fill-rule="evenodd" fill-opacity="1" /><path clip-path="url(#clip890)" d="M1107.9 14.324 L1107.9 27.2059 L1123.26 27.2059 L1123.26 32.9987 L1107.9 32.9987 L1107.9 57.6282 Q1107.9 63.1779 1109.4 64.7578 Q1110.94 66.3376 1115.6 66.3376 L1123.26 66.3376 L1123.26 72.576 L1115.6 72.576 Q1106.97 72.576 1103.69 69.3758 Q1100.41 66.1351 1100.41 57.6282 L1100.41 32.9987 L1094.94 32.9987 L1094.94 27.2059 L1100.41 27.2059 L1100.41 14.324 L1107.9 14.324 Z" fill="#000000" fill-rule="evenodd" fill-opacity="1" /><path clip-path="url(#clip890)" d="M1159.35 34.1734 Q1158.09 33.4443 1156.6 33.1202 Q1155.14 32.7556 1153.36 32.7556 Q1147.04 32.7556 1143.63 36.8875 Q1140.27 40.9789 1140.27 48.6757 L1140.27 72.576 L1132.78 72.576 L1132.78 27.2059 L1140.27 27.2059 L1140.27 34.2544 Q1142.62 30.1225 1146.39 28.1376 Q1150.15 26.1121 1155.54 26.1121 Q1156.31 26.1121 1157.24 26.2337 Q1158.18 26.3147 1159.31 26.5172 L1159.35 34.1734 Z" fill="#000000" fill-rule="evenodd" fill-opacity="1" /><path clip-path="url(#clip890)" d="M1167.17 27.2059 L1174.62 27.2059 L1174.62 72.576 L1167.17 72.576 L1167.17 27.2059 M1167.17 9.54393 L1174.62 9.54393 L1174.62 18.9825 L1167.17 18.9825 L1167.17 9.54393 Z" fill="#000000" fill-rule="evenodd" fill-opacity="1" /><path clip-path="url(#clip890)" d="M1222.79 49.9314 Q1222.79 41.7081 1219.38 37.0496 Q1216.02 32.3505 1210.11 32.3505 Q1204.19 32.3505 1200.79 37.0496 Q1197.43 41.7081 1197.43 49.9314 Q1197.43 58.1548 1200.79 62.8538 Q1204.19 67.5124 1210.11 67.5124 Q1216.02 67.5124 1219.38 62.8538 Q1222.79 58.1548 1222.79 49.9314 M1197.43 34.0924 Q1199.78 30.0415 1203.34 28.0971 Q1206.95 26.1121 1211.93 26.1121 Q1220.19 26.1121 1225.34 32.6746 Q1230.52 39.2371 1230.52 49.9314 Q1230.52 60.6258 1225.34 67.1883 Q1220.19 73.7508 1211.93 73.7508 Q1206.95 73.7508 1203.34 71.8063 Q1199.78 69.8214 1197.43 65.7705 L1197.43 72.576 L1189.93 72.576 L1189.93 9.54393 L1197.43 9.54393 L1197.43 34.0924 Z" fill="#000000" fill-rule="evenodd" fill-opacity="1" /><path clip-path="url(#clip890)" d="M1242.11 54.671 L1242.11 27.2059 L1249.56 27.2059 L1249.56 54.3874 Q1249.56 60.8284 1252.08 64.0691 Q1254.59 67.2693 1259.61 67.2693 Q1265.65 67.2693 1269.13 63.421 Q1272.65 59.5726 1272.65 52.9291 L1272.65 27.2059 L1280.11 27.2059 L1280.11 72.576 L1272.65 72.576 L1272.65 65.6084 Q1269.94 69.7404 1266.33 71.7658 Q1262.77 73.7508 1258.03 73.7508 Q1250.21 73.7508 1246.16 68.8897 Q1242.11 64.0286 1242.11 54.671 M1260.87 26.1121 L1260.87 26.1121 Z" fill="#000000" fill-rule="evenodd" fill-opacity="1" /><path clip-path="url(#clip890)" d="M1302.83 14.324 L1302.83 27.2059 L1318.19 27.2059 L1318.19 32.9987 L1302.83 32.9987 L1302.83 57.6282 Q1302.83 63.1779 1304.33 64.7578 Q1305.87 66.3376 1310.53 66.3376 L1318.19 66.3376 L1318.19 72.576 L1310.53 72.576 Q1301.9 72.576 1298.62 69.3758 Q1295.34 66.1351 1295.34 57.6282 L1295.34 32.9987 L1289.87 32.9987 L1289.87 27.2059 L1295.34 27.2059 L1295.34 14.324 L1302.83 14.324 Z" fill="#000000" fill-rule="evenodd" fill-opacity="1" /><path clip-path="url(#clip890)" d="M1327.99 27.2059 L1335.44 27.2059 L1335.44 72.576 L1327.99 72.576 L1327.99 27.2059 M1327.99 9.54393 L1335.44 9.54393 L1335.44 18.9825 L1327.99 18.9825 L1327.99 9.54393 Z" fill="#000000" fill-rule="evenodd" fill-opacity="1" /><path clip-path="url(#clip890)" d="M1368.62 32.4315 Q1362.62 32.4315 1359.14 37.1306 Q1355.66 41.7891 1355.66 49.9314 Q1355.66 58.0738 1359.1 62.7728 Q1362.58 67.4314 1368.62 67.4314 Q1374.57 67.4314 1378.06 62.7323 Q1381.54 58.0333 1381.54 49.9314 Q1381.54 41.8701 1378.06 37.1711 Q1374.57 32.4315 1368.62 32.4315 M1368.62 26.1121 Q1378.34 26.1121 1383.89 32.4315 Q1389.44 38.7509 1389.44 49.9314 Q1389.44 61.0714 1383.89 67.4314 Q1378.34 73.7508 1368.62 73.7508 Q1358.86 73.7508 1353.31 67.4314 Q1347.8 61.0714 1347.8 49.9314 Q1347.8 38.7509 1353.31 32.4315 Q1358.86 26.1121 1368.62 26.1121 Z" fill="#000000" fill-rule="evenodd" fill-opacity="1" /><path clip-path="url(#clip890)" d="M1439.51 45.1919 L1439.51 72.576 L1432.06 72.576 L1432.06 45.4349 Q1432.06 38.994 1429.55 35.7938 Q1427.03 32.5936 1422.01 32.5936 Q1415.98 32.5936 1412.49 36.4419 Q1409.01 40.2903 1409.01 46.9338 L1409.01 72.576 L1401.51 72.576 L1401.51 27.2059 L1409.01 27.2059 L1409.01 34.2544 Q1411.68 30.163 1415.29 28.1376 Q1418.93 26.1121 1423.67 26.1121 Q1431.49 26.1121 1435.5 30.9732 Q1439.51 35.7938 1439.51 45.1919 Z" fill="#000000" fill-rule="evenodd" fill-opacity="1" /><path clip-path="url(#clip890)" d="M1498.33 32.4315 Q1492.33 32.4315 1488.85 37.1306 Q1485.37 41.7891 1485.37 49.9314 Q1485.37 58.0738 1488.81 62.7728 Q1492.29 67.4314 1498.33 67.4314 Q1504.28 67.4314 1507.77 62.7323 Q1511.25 58.0333 1511.25 49.9314 Q1511.25 41.8701 1507.77 37.1711 Q1504.28 32.4315 1498.33 32.4315 M1498.33 26.1121 Q1508.05 26.1121 1513.6 32.4315 Q1519.15 38.7509 1519.15 49.9314 Q1519.15 61.0714 1513.6 67.4314 Q1508.05 73.7508 1498.33 73.7508 Q1488.57 73.7508 1483.02 67.4314 Q1477.51 61.0714 1477.51 49.9314 Q1477.51 38.7509 1483.02 32.4315 Q1488.57 26.1121 1498.33 26.1121 Z" fill="#000000" fill-rule="evenodd" fill-opacity="1" /><path clip-path="url(#clip890)" d="M1554.48 9.54393 L1554.48 15.7418 L1547.35 15.7418 Q1543.34 15.7418 1541.76 17.3622 Q1540.22 18.9825 1540.22 23.1955 L1540.22 27.2059 L1552.49 27.2059 L1552.49 32.9987 L1540.22 32.9987 L1540.22 72.576 L1532.72 72.576 L1532.72 32.9987 L1525.59 32.9987 L1525.59 27.2059 L1532.72 27.2059 L1532.72 24.0462 Q1532.72 16.471 1536.25 13.0277 Q1539.77 9.54393 1547.43 9.54393 L1554.48 9.54393 Z" fill="#000000" fill-rule="evenodd" fill-opacity="1" /><path clip-path="url(#clip890)" d="M1624.8 45.1919 L1624.8 72.576 L1617.35 72.576 L1617.35 45.4349 Q1617.35 38.994 1614.83 35.7938 Q1612.32 32.5936 1607.3 32.5936 Q1601.26 32.5936 1597.78 36.4419 Q1594.3 40.2903 1594.3 46.9338 L1594.3 72.576 L1586.8 72.576 L1586.8 27.2059 L1594.3 27.2059 L1594.3 34.2544 Q1596.97 30.163 1600.57 28.1376 Q1604.22 26.1121 1608.96 26.1121 Q1616.78 26.1121 1620.79 30.9732 Q1624.8 35.7938 1624.8 45.1919 Z" fill="#000000" fill-rule="evenodd" fill-opacity="1" /><path clip-path="url(#clip890)" d="M1678.47 48.0275 L1678.47 51.6733 L1644.2 51.6733 Q1644.69 59.3701 1648.82 63.421 Q1652.99 67.4314 1660.41 67.4314 Q1664.7 67.4314 1668.71 66.3781 Q1672.76 65.3249 1676.73 63.2184 L1676.73 70.267 Q1672.72 71.9684 1668.51 72.8596 Q1664.3 73.7508 1659.96 73.7508 Q1649.1 73.7508 1642.74 67.4314 Q1636.43 61.1119 1636.43 50.3365 Q1636.43 39.1965 1642.42 32.6746 Q1648.46 26.1121 1658.66 26.1121 Q1667.82 26.1121 1673.13 32.0264 Q1678.47 37.9003 1678.47 48.0275 M1671.02 45.84 Q1670.94 39.7232 1667.58 36.0774 Q1664.26 32.4315 1658.75 32.4315 Q1652.51 32.4315 1648.74 35.9558 Q1645.01 39.4801 1644.45 45.8805 L1671.02 45.84 Z" fill="#000000" fill-rule="evenodd" fill-opacity="1" /><path clip-path="url(#clip890)" d="M1686.37 27.2059 L1693.83 27.2059 L1703.14 62.6108 L1712.42 27.2059 L1721.21 27.2059 L1730.53 62.6108 L1739.8 27.2059 L1747.26 27.2059 L1735.39 72.576 L1726.6 72.576 L1716.84 35.3887 L1707.03 72.576 L1698.24 72.576 L1686.37 27.2059 Z" fill="#000000" fill-rule="evenodd" fill-opacity="1" /><path clip-path="url(#clip890)" d="M1817.5 49.9314 Q1817.5 41.7081 1814.1 37.0496 Q1810.74 32.3505 1804.82 32.3505 Q1798.91 32.3505 1795.5 37.0496 Q1792.14 41.7081 1792.14 49.9314 Q1792.14 58.1548 1795.5 62.8538 Q1798.91 67.5124 1804.82 67.5124 Q1810.74 67.5124 1814.1 62.8538 Q1817.5 58.1548 1817.5 49.9314 M1792.14 34.0924 Q1794.49 30.0415 1798.06 28.0971 Q1801.66 26.1121 1806.64 26.1121 Q1814.91 26.1121 1820.05 32.6746 Q1825.24 39.2371 1825.24 49.9314 Q1825.24 60.6258 1820.05 67.1883 Q1814.91 73.7508 1806.64 73.7508 Q1801.66 73.7508 1798.06 71.8063 Q1794.49 69.8214 1792.14 65.7705 L1792.14 72.576 L1784.65 72.576 L1784.65 9.54393 L1792.14 9.54393 L1792.14 34.0924 Z" fill="#000000" fill-rule="evenodd" fill-opacity="1" /><path clip-path="url(#clip890)" d="M1837.59 27.2059 L1845.05 27.2059 L1845.05 72.576 L1837.59 72.576 L1837.59 27.2059 M1837.59 9.54393 L1845.05 9.54393 L1845.05 18.9825 L1837.59 18.9825 L1837.59 9.54393 Z" fill="#000000" fill-rule="evenodd" fill-opacity="1" /><path clip-path="url(#clip890)" d="M1860.36 9.54393 L1867.85 9.54393 L1867.85 46.7717 L1890.09 27.2059 L1899.61 27.2059 L1875.55 48.4326 L1900.63 72.576 L1890.9 72.576 L1867.85 50.4176 L1867.85 72.576 L1860.36 72.576 L1860.36 9.54393 Z" fill="#000000" fill-rule="evenodd" fill-opacity="1" /><path clip-path="url(#clip890)" d="M1944.54 48.0275 L1944.54 51.6733 L1910.27 51.6733 Q1910.75 59.3701 1914.88 63.421 Q1919.06 67.4314 1926.47 67.4314 Q1930.76 67.4314 1934.77 66.3781 Q1938.83 65.3249 1942.8 63.2184 L1942.8 70.267 Q1938.78 71.9684 1934.57 72.8596 Q1930.36 73.7508 1926.02 73.7508 Q1915.17 73.7508 1908.81 67.4314 Q1902.49 61.1119 1902.49 50.3365 Q1902.49 39.1965 1908.48 32.6746 Q1914.52 26.1121 1924.73 26.1121 Q1933.88 26.1121 1939.19 32.0264 Q1944.54 37.9003 1944.54 48.0275 M1937.08 45.84 Q1937 39.7232 1933.64 36.0774 Q1930.32 32.4315 1924.81 32.4315 Q1918.57 32.4315 1914.8 35.9558 Q1911.08 39.4801 1910.51 45.8805 L1937.08 45.84 Z" fill="#000000" fill-rule="evenodd" fill-opacity="1" /><path clip-path="url(#clip890)" d="M2012.07 28.5427 L2012.07 35.5912 Q2008.91 33.9709 2005.5 33.1607 Q2002.1 32.3505 1998.45 32.3505 Q1992.9 32.3505 1990.11 34.0519 Q1987.36 35.7533 1987.36 39.156 Q1987.36 41.7486 1989.34 43.2475 Q1991.33 44.7058 1997.32 46.0426 L1999.87 46.6097 Q2007.81 48.3111 2011.13 51.4303 Q2014.5 54.509 2014.5 60.0587 Q2014.5 66.3781 2009.47 70.0644 Q2004.49 73.7508 1995.74 73.7508 Q1992.09 73.7508 1988.12 73.0216 Q1984.2 72.3329 1979.82 70.9151 L1979.82 63.2184 Q1983.95 65.3654 1987.96 66.4591 Q1991.97 67.5124 1995.9 67.5124 Q2001.17 67.5124 2004 65.73 Q2006.84 63.9071 2006.84 60.6258 Q2006.84 57.5877 2004.77 55.9673 Q2002.75 54.3469 1995.82 52.8481 L1993.23 52.2405 Q1986.3 50.7821 1983.22 47.7845 Q1980.14 44.7463 1980.14 39.4801 Q1980.14 33.0797 1984.68 29.5959 Q1989.22 26.1121 1997.56 26.1121 Q2001.7 26.1121 2005.34 26.7198 Q2008.99 27.3274 2012.07 28.5427 Z" fill="#000000" fill-rule="evenodd" fill-opacity="1" /><path clip-path="url(#clip890)" d="M2064.08 45.1919 L2064.08 72.576 L2056.63 72.576 L2056.63 45.4349 Q2056.63 38.994 2054.11 35.7938 Q2051.6 32.5936 2046.58 32.5936 Q2040.54 32.5936 2037.06 36.4419 Q2033.58 40.2903 2033.58 46.9338 L2033.58 72.576 L2026.08 72.576 L2026.08 9.54393 L2033.58 9.54393 L2033.58 34.2544 Q2036.25 30.163 2039.85 28.1376 Q2043.5 26.1121 2048.24 26.1121 Q2056.06 26.1121 2060.07 30.9732 Q2064.08 35.7938 2064.08 45.1919 Z" fill="#000000" fill-rule="evenodd" fill-opacity="1" /><path clip-path="url(#clip890)" d="M2099.57 49.7694 Q2090.53 49.7694 2087.05 51.8354 Q2083.56 53.9013 2083.56 58.8839 Q2083.56 62.8538 2086.16 65.2034 Q2088.79 67.5124 2093.29 67.5124 Q2099.48 67.5124 2103.21 63.1374 Q2106.98 58.7219 2106.98 51.4303 L2106.98 49.7694 L2099.57 49.7694 M2114.43 46.6907 L2114.43 72.576 L2106.98 72.576 L2106.98 65.6895 Q2104.43 69.8214 2100.62 71.8063 Q2096.81 73.7508 2091.3 73.7508 Q2084.33 73.7508 2080.2 69.8619 Q2076.11 65.9325 2076.11 59.3701 Q2076.11 51.7138 2081.21 47.825 Q2086.36 43.9361 2096.53 43.9361 L2106.98 43.9361 L2106.98 43.2069 Q2106.98 38.0623 2103.58 35.2672 Q2100.21 32.4315 2094.1 32.4315 Q2090.21 32.4315 2086.52 33.3632 Q2082.84 34.295 2079.43 36.1584 L2079.43 29.2718 Q2083.52 27.692 2087.37 26.9223 Q2091.22 26.1121 2094.87 26.1121 Q2104.71 26.1121 2109.57 31.2163 Q2114.43 36.3204 2114.43 46.6907 Z" fill="#000000" fill-rule="evenodd" fill-opacity="1" /><path clip-path="url(#clip890)" d="M2156.08 34.1734 Q2154.82 33.4443 2153.32 33.1202 Q2151.86 32.7556 2150.08 32.7556 Q2143.76 32.7556 2140.36 36.8875 Q2137 40.9789 2137 48.6757 L2137 72.576 L2129.5 72.576 L2129.5 27.2059 L2137 27.2059 L2137 34.2544 Q2139.35 30.1225 2143.11 28.1376 Q2146.88 26.1121 2152.27 26.1121 Q2153.04 26.1121 2153.97 26.2337 Q2154.9 26.3147 2156.03 26.5172 L2156.08 34.1734 Z" fill="#000000" fill-rule="evenodd" fill-opacity="1" /><path clip-path="url(#clip890)" d="M2200.88 48.0275 L2200.88 51.6733 L2166.61 51.6733 Q2167.09 59.3701 2171.23 63.421 Q2175.4 67.4314 2182.81 67.4314 Q2187.11 67.4314 2191.12 66.3781 Q2195.17 65.3249 2199.14 63.2184 L2199.14 70.267 Q2195.13 71.9684 2190.91 72.8596 Q2186.7 73.7508 2182.37 73.7508 Q2171.51 73.7508 2165.15 67.4314 Q2158.83 61.1119 2158.83 50.3365 Q2158.83 39.1965 2164.83 32.6746 Q2170.86 26.1121 2181.07 26.1121 Q2190.22 26.1121 2195.53 32.0264 Q2200.88 37.9003 2200.88 48.0275 M2193.42 45.84 Q2193.34 39.7232 2189.98 36.0774 Q2186.66 32.4315 2181.15 32.4315 Q2174.91 32.4315 2171.14 35.9558 Q2167.42 39.4801 2166.85 45.8805 L2193.42 45.84 Z" fill="#000000" fill-rule="evenodd" fill-opacity="1" /><path clip-path="url(#clip890)" d="M2242.04 28.5427 L2242.04 35.5912 Q2238.88 33.9709 2235.47 33.1607 Q2232.07 32.3505 2228.42 32.3505 Q2222.87 32.3505 2220.08 34.0519 Q2217.33 35.7533 2217.33 39.156 Q2217.33 41.7486 2219.31 43.2475 Q2221.29 44.7058 2227.29 46.0426 L2229.84 46.6097 Q2237.78 48.3111 2241.1 51.4303 Q2244.47 54.509 2244.47 60.0587 Q2244.47 66.3781 2239.44 70.0644 Q2234.46 73.7508 2225.71 73.7508 Q2222.06 73.7508 2218.09 73.0216 Q2214.17 72.3329 2209.79 70.9151 L2209.79 63.2184 Q2213.92 65.3654 2217.93 66.4591 Q2221.94 67.5124 2225.87 67.5124 Q2231.14 67.5124 2233.97 65.73 Q2236.81 63.9071 2236.81 60.6258 Q2236.81 57.5877 2234.74 55.9673 Q2232.72 54.3469 2225.79 52.8481 L2223.2 52.2405 Q2216.27 50.7821 2213.19 47.7845 Q2210.11 44.7463 2210.11 39.4801 Q2210.11 33.0797 2214.65 29.5959 Q2219.19 26.1121 2227.53 26.1121 Q2231.67 26.1121 2235.31 26.7198 Q2238.96 27.3274 2242.04 28.5427 Z" fill="#000000" fill-rule="evenodd" fill-opacity="1" /><path clip-path="url(#clip890)" d="M2282.71 27.2059 L2290.16 27.2059 L2290.16 72.576 L2282.71 72.576 L2282.71 27.2059 M2282.71 9.54393 L2290.16 9.54393 L2290.16 18.9825 L2282.71 18.9825 L2282.71 9.54393 Z" fill="#000000" fill-rule="evenodd" fill-opacity="1" /><path clip-path="url(#clip890)" d="M2343.47 45.1919 L2343.47 72.576 L2336.02 72.576 L2336.02 45.4349 Q2336.02 38.994 2333.5 35.7938 Q2330.99 32.5936 2325.97 32.5936 Q2319.93 32.5936 2316.45 36.4419 Q2312.97 40.2903 2312.97 46.9338 L2312.97 72.576 L2305.47 72.576 L2305.47 27.2059 L2312.97 27.2059 L2312.97 34.2544 Q2315.64 30.163 2319.25 28.1376 Q2322.89 26.1121 2327.63 26.1121 Q2335.45 26.1121 2339.46 30.9732 Q2343.47 35.7938 2343.47 45.1919 Z" fill="#000000" fill-rule="evenodd" fill-opacity="1" /><path clip-path="url(#clip890)" d="M2422.42 45.1919 L2422.42 72.576 L2414.97 72.576 L2414.97 45.4349 Q2414.97 38.994 2412.46 35.7938 Q2409.95 32.5936 2404.92 32.5936 Q2398.89 32.5936 2395.4 36.4419 Q2391.92 40.2903 2391.92 46.9338 L2391.92 72.576 L2384.42 72.576 L2384.42 9.54393 L2391.92 9.54393 L2391.92 34.2544 Q2394.59 30.163 2398.2 28.1376 Q2401.84 26.1121 2406.58 26.1121 Q2414.4 26.1121 2418.41 30.9732 Q2422.42 35.7938 2422.42 45.1919 Z" fill="#000000" fill-rule="evenodd" fill-opacity="1" /><path clip-path="url(#clip890)" d="M2454.87 32.4315 Q2448.87 32.4315 2445.39 37.1306 Q2441.91 41.7891 2441.91 49.9314 Q2441.91 58.0738 2445.35 62.7728 Q2448.83 67.4314 2454.87 67.4314 Q2460.82 67.4314 2464.31 62.7323 Q2467.79 58.0333 2467.79 49.9314 Q2467.79 41.8701 2464.31 37.1711 Q2460.82 32.4315 2454.87 32.4315 M2454.87 26.1121 Q2464.59 26.1121 2470.14 32.4315 Q2475.69 38.7509 2475.69 49.9314 Q2475.69 61.0714 2470.14 67.4314 Q2464.59 73.7508 2454.87 73.7508 Q2445.11 73.7508 2439.56 67.4314 Q2434.05 61.0714 2434.05 49.9314 Q2434.05 38.7509 2439.56 32.4315 Q2445.11 26.1121 2454.87 26.1121 Z" fill="#000000" fill-rule="evenodd" fill-opacity="1" /><path clip-path="url(#clip890)" d="M2488.05 9.54393 L2495.5 9.54393 L2495.5 72.576 L2488.05 72.576 L2488.05 9.54393 Z" fill="#000000" fill-rule="evenodd" fill-opacity="1" /><path clip-path="url(#clip890)" d="M2511.1 27.2059 L2518.55 27.2059 L2518.55 72.576 L2511.1 72.576 L2511.1 27.2059 M2511.1 9.54393 L2518.55 9.54393 L2518.55 18.9825 L2511.1 18.9825 L2511.1 9.54393 Z" fill="#000000" fill-rule="evenodd" fill-opacity="1" /><path clip-path="url(#clip890)" d="M2564 34.0924 L2564 9.54393 L2571.46 9.54393 L2571.46 72.576 L2564 72.576 L2564 65.7705 Q2561.65 69.8214 2558.05 71.8063 Q2554.48 73.7508 2549.46 73.7508 Q2541.24 73.7508 2536.05 67.1883 Q2530.91 60.6258 2530.91 49.9314 Q2530.91 39.2371 2536.05 32.6746 Q2541.24 26.1121 2549.46 26.1121 Q2554.48 26.1121 2558.05 28.0971 Q2561.65 30.0415 2564 34.0924 M2538.6 49.9314 Q2538.6 58.1548 2541.96 62.8538 Q2545.37 67.5124 2551.28 67.5124 Q2557.2 67.5124 2560.6 62.8538 Q2564 58.1548 2564 49.9314 Q2564 41.7081 2560.6 37.0496 Q2557.2 32.3505 2551.28 32.3505 Q2545.37 32.3505 2541.96 37.0496 Q2538.6 41.7081 2538.6 49.9314 Z" fill="#000000" fill-rule="evenodd" fill-opacity="1" /><path clip-path="url(#clip890)" d="M2607.43 49.7694 Q2598.39 49.7694 2594.91 51.8354 Q2591.43 53.9013 2591.43 58.8839 Q2591.43 62.8538 2594.02 65.2034 Q2596.65 67.5124 2601.15 67.5124 Q2607.35 67.5124 2611.07 63.1374 Q2614.84 58.7219 2614.84 51.4303 L2614.84 49.7694 L2607.43 49.7694 M2622.29 46.6907 L2622.29 72.576 L2614.84 72.576 L2614.84 65.6895 Q2612.29 69.8214 2608.48 71.8063 Q2604.67 73.7508 2599.16 73.7508 Q2592.2 73.7508 2588.06 69.8619 Q2583.97 65.9325 2583.97 59.3701 Q2583.97 51.7138 2589.08 47.825 Q2594.22 43.9361 2604.39 43.9361 L2614.84 43.9361 L2614.84 43.2069 Q2614.84 38.0623 2611.44 35.2672 Q2608.08 32.4315 2601.96 32.4315 Q2598.07 32.4315 2594.38 33.3632 Q2590.7 34.295 2587.29 36.1584 L2587.29 29.2718 Q2591.39 27.692 2595.23 26.9223 Q2599.08 26.1121 2602.73 26.1121 Q2612.57 26.1121 2617.43 31.2163 Q2622.29 36.3204 2622.29 46.6907 Z" fill="#000000" fill-rule="evenodd" fill-opacity="1" /><path clip-path="url(#clip890)" d="M2656.52 76.7889 Q2653.36 84.8907 2650.37 87.3618 Q2647.37 89.8329 2642.35 89.8329 L2636.39 89.8329 L2636.39 83.5945 L2640.77 83.5945 Q2643.84 83.5945 2645.55 82.1361 Q2647.25 80.6778 2649.31 75.2496 L2650.65 71.8468 L2632.3 27.2059 L2640.2 27.2059 L2654.38 62.6918 L2668.56 27.2059 L2676.45 27.2059 L2656.52 76.7889 Z" fill="#000000" fill-rule="evenodd" fill-opacity="1" /><path clip-path="url(#clip890)" d="M2733.73 49.7694 Q2724.7 49.7694 2721.22 51.8354 Q2717.73 53.9013 2717.73 58.8839 Q2717.73 62.8538 2720.33 65.2034 Q2722.96 67.5124 2727.46 67.5124 Q2733.65 67.5124 2737.38 63.1374 Q2741.15 58.7219 2741.15 51.4303 L2741.15 49.7694 L2733.73 49.7694 M2748.6 46.6907 L2748.6 72.576 L2741.15 72.576 L2741.15 65.6895 Q2738.6 69.8214 2734.79 71.8063 Q2730.98 73.7508 2725.47 73.7508 Q2718.5 73.7508 2714.37 69.8619 Q2710.28 65.9325 2710.28 59.3701 Q2710.28 51.7138 2715.38 47.825 Q2720.53 43.9361 2730.7 43.9361 L2741.15 43.9361 L2741.15 43.2069 Q2741.15 38.0623 2737.74 35.2672 Q2734.38 32.4315 2728.27 32.4315 Q2724.38 32.4315 2720.69 33.3632 Q2717 34.295 2713.6 36.1584 L2713.6 29.2718 Q2717.69 27.692 2721.54 26.9223 Q2725.39 26.1121 2729.04 26.1121 Q2738.88 26.1121 2743.74 31.2163 Q2748.6 36.3204 2748.6 46.6907 Z" fill="#000000" fill-rule="evenodd" fill-opacity="1" /><path clip-path="url(#clip890)" d="M2801.67 45.1919 L2801.67 72.576 L2794.21 72.576 L2794.21 45.4349 Q2794.21 38.994 2791.7 35.7938 Q2789.19 32.5936 2784.17 32.5936 Q2778.13 32.5936 2774.65 36.4419 Q2771.16 40.2903 2771.16 46.9338 L2771.16 72.576 L2763.67 72.576 L2763.67 27.2059 L2771.16 27.2059 L2771.16 34.2544 Q2773.84 30.163 2777.44 28.1376 Q2781.09 26.1121 2785.83 26.1121 Q2793.65 26.1121 2797.66 30.9732 Q2801.67 35.7938 2801.67 45.1919 Z" fill="#000000" fill-rule="evenodd" fill-opacity="1" /><path clip-path="url(#clip890)" d="M2846.39 34.0924 L2846.39 9.54393 L2853.84 9.54393 L2853.84 72.576 L2846.39 72.576 L2846.39 65.7705 Q2844.04 69.8214 2840.44 71.8063 Q2836.87 73.7508 2831.85 73.7508 Q2823.62 73.7508 2818.44 67.1883 Q2813.29 60.6258 2813.29 49.9314 Q2813.29 39.2371 2818.44 32.6746 Q2823.62 26.1121 2831.85 26.1121 Q2836.87 26.1121 2840.44 28.0971 Q2844.04 30.0415 2846.39 34.0924 M2820.99 49.9314 Q2820.99 58.1548 2824.35 62.8538 Q2827.76 67.5124 2833.67 67.5124 Q2839.58 67.5124 2842.99 62.8538 Q2846.39 58.1548 2846.39 49.9314 Q2846.39 41.7081 2842.99 37.0496 Q2839.58 32.3505 2833.67 32.3505 Q2827.76 32.3505 2824.35 37.0496 Q2820.99 41.7081 2820.99 49.9314 Z" fill="#000000" fill-rule="evenodd" fill-opacity="1" /><path clip-path="url(#clip890)" d="M2891.23 27.2059 L2898.69 27.2059 L2908 62.6108 L2917.28 27.2059 L2926.07 27.2059 L2935.39 62.6108 L2944.66 27.2059 L2952.12 27.2059 L2940.25 72.576 L2931.46 72.576 L2921.7 35.3887 L2911.89 72.576 L2903.1 72.576 L2891.23 27.2059 Z" fill="#000000" fill-rule="evenodd" fill-opacity="1" /><path clip-path="url(#clip890)" d="M3002.23 48.0275 L3002.23 51.6733 L2967.96 51.6733 Q2968.44 59.3701 2972.58 63.421 Q2976.75 67.4314 2984.16 67.4314 Q2988.46 67.4314 2992.47 66.3781 Q2996.52 65.3249 3000.49 63.2184 L3000.49 70.267 Q2996.48 71.9684 2992.26 72.8596 Q2988.05 73.7508 2983.72 73.7508 Q2972.86 73.7508 2966.5 67.4314 Q2960.18 61.1119 2960.18 50.3365 Q2960.18 39.1965 2966.18 32.6746 Q2972.21 26.1121 2982.42 26.1121 Q2991.57 26.1121 2996.88 32.0264 Q3002.23 37.9003 3002.23 48.0275 M2994.77 45.84 Q2994.69 39.7232 2991.33 36.0774 Q2988.01 32.4315 2982.5 32.4315 Q2976.26 32.4315 2972.49 35.9558 Q2968.77 39.4801 2968.2 45.8805 L2994.77 45.84 Z" fill="#000000" fill-rule="evenodd" fill-opacity="1" /><path clip-path="url(#clip890)" d="M3053.27 48.0275 L3053.27 51.6733 L3019 51.6733 Q3019.49 59.3701 3023.62 63.421 Q3027.79 67.4314 3035.2 67.4314 Q3039.5 67.4314 3043.51 66.3781 Q3047.56 65.3249 3051.53 63.2184 L3051.53 70.267 Q3047.52 71.9684 3043.3 72.8596 Q3039.09 73.7508 3034.76 73.7508 Q3023.9 73.7508 3017.54 67.4314 Q3011.22 61.1119 3011.22 50.3365 Q3011.22 39.1965 3017.22 32.6746 Q3023.25 26.1121 3033.46 26.1121 Q3042.62 26.1121 3047.92 32.0264 Q3053.27 37.9003 3053.27 48.0275 M3045.82 45.84 Q3045.73 39.7232 3042.37 36.0774 Q3039.05 32.4315 3033.54 32.4315 Q3027.3 32.4315 3023.54 35.9558 Q3019.81 39.4801 3019.24 45.8805 L3045.82 45.84 Z" fill="#000000" fill-rule="evenodd" fill-opacity="1" /><path clip-path="url(#clip890)" d="M3065.22 9.54393 L3072.71 9.54393 L3072.71 46.7717 L3094.95 27.2059 L3104.47 27.2059 L3080.41 48.4326 L3105.49 72.576 L3095.76 72.576 L3072.71 50.4176 L3072.71 72.576 L3065.22 72.576 L3065.22 9.54393 Z" fill="#000000" fill-rule="evenodd" fill-opacity="1" /><path clip-path="url(#clip890)" d="M3143.4 34.0924 L3143.4 9.54393 L3150.86 9.54393 L3150.86 72.576 L3143.4 72.576 L3143.4 65.7705 Q3141.05 69.8214 3137.45 71.8063 Q3133.88 73.7508 3128.86 73.7508 Q3120.64 73.7508 3115.45 67.1883 Q3110.31 60.6258 3110.31 49.9314 Q3110.31 39.2371 3115.45 32.6746 Q3120.64 26.1121 3128.86 26.1121 Q3133.88 26.1121 3137.45 28.0971 Q3141.05 30.0415 3143.4 34.0924 M3118 49.9314 Q3118 58.1548 3121.37 62.8538 Q3124.77 67.5124 3130.68 67.5124 Q3136.6 67.5124 3140 62.8538 Q3143.4 58.1548 3143.4 49.9314 Q3143.4 41.7081 3140 37.0496 Q3136.6 32.3505 3130.68 32.3505 Q3124.77 32.3505 3121.37 37.0496 Q3118 41.7081 3118 49.9314 Z" fill="#000000" fill-rule="evenodd" fill-opacity="1" /><path clip-path="url(#clip890)" d="M3186.83 49.7694 Q3177.79 49.7694 3174.31 51.8354 Q3170.83 53.9013 3170.83 58.8839 Q3170.83 62.8538 3173.42 65.2034 Q3176.05 67.5124 3180.55 67.5124 Q3186.75 67.5124 3190.47 63.1374 Q3194.24 58.7219 3194.24 51.4303 L3194.24 49.7694 L3186.83 49.7694 M3201.69 46.6907 L3201.69 72.576 L3194.24 72.576 L3194.24 65.6895 Q3191.69 69.8214 3187.88 71.8063 Q3184.07 73.7508 3178.56 73.7508 Q3171.6 73.7508 3167.46 69.8619 Q3163.37 65.9325 3163.37 59.3701 Q3163.37 51.7138 3168.48 47.825 Q3173.62 43.9361 3183.79 43.9361 L3194.24 43.9361 L3194.24 43.2069 Q3194.24 38.0623 3190.84 35.2672 Q3187.48 32.4315 3181.36 32.4315 Q3177.47 32.4315 3173.78 33.3632 Q3170.1 34.295 3166.69 36.1584 L3166.69 29.2718 Q3170.79 27.692 3174.63 26.9223 Q3178.48 26.1121 3182.13 26.1121 Q3191.97 26.1121 3196.83 31.2163 Q3201.69 36.3204 3201.69 46.6907 Z" fill="#000000" fill-rule="evenodd" fill-opacity="1" /><path clip-path="url(#clip890)" d="M3235.92 76.7889 Q3232.77 84.8907 3229.77 87.3618 Q3226.77 89.8329 3221.75 89.8329 L3215.79 89.8329 L3215.79 83.5945 L3220.17 83.5945 Q3223.25 83.5945 3224.95 82.1361 Q3226.65 80.6778 3228.71 75.2496 L3230.05 71.8468 L3211.7 27.2059 L3219.6 27.2059 L3233.78 62.6918 L3247.96 27.2059 L3255.86 27.2059 L3235.92 76.7889 Z" fill="#000000" fill-rule="evenodd" fill-opacity="1" /><path clip-path="url(#clip892)" d="
M476.148 177.027 L476.148 2163.79 L1931.37 2163.79 L1931.37 177.027 L476.148 177.027 L476.148 177.027  Z
  " fill="#009af9" fill-rule="evenodd" fill-opacity="1"/>
<polyline clip-path="url(#clip892)" style="stroke:#000000; stroke-linecap:round; stroke-linejoin:round; stroke-width:4; stroke-opacity:1; fill:none" points="
  476.148,177.027 476.148,2163.79 1931.37,2163.79 1931.37,177.027 476.148,177.027 
  "/>
<path clip-path="url(#clip892)" d="
M2295.18 836.101 L2295.18 2163.79 L3750.41 2163.79 L3750.41 836.101 L2295.18 836.101 L2295.18 836.101  Z
  " fill="#009af9" fill-rule="evenodd" fill-opacity="1"/>
<polyline clip-path="url(#clip892)" style="stroke:#000000; stroke-linecap:round; stroke-linejoin:round; stroke-width:4; stroke-opacity:1; fill:none" points="
  2295.18,836.101 2295.18,2163.79 3750.41,2163.79 3750.41,836.101 2295.18,836.101 
  "/>
<circle clip-path="url(#clip892)" style="fill:#009af9; stroke:none; fill-opacity:0" cx="1203.76" cy="177.027" r="2"/>
<circle clip-path="url(#clip892)" style="fill:#009af9; stroke:none; fill-opacity:0" cx="3022.79" cy="836.101" r="2"/>
<path clip-path="url(#clip890)" d="
M3076.12 291.303 L3830.12 291.303 L3830.12 187.623 L3076.12 187.623  Z
  " fill="#ffffff" fill-rule="evenodd" fill-opacity="1"/>
<polyline clip-path="url(#clip890)" style="stroke:#000000; stroke-linecap:round; stroke-linejoin:round; stroke-width:4; stroke-opacity:1; fill:none" points="
  3076.12,291.303 3830.12,291.303 3830.12,187.623 3076.12,187.623 3076.12,291.303 
  "/>
<path clip-path="url(#clip890)" d="
M3117 260.199 L3362.26 260.199 L3362.26 218.727 L3117 218.727 L3117 260.199  Z
  " fill="#009af9" fill-rule="evenodd" fill-opacity="1"/>
<polyline clip-path="url(#clip890)" style="stroke:#000000; stroke-linecap:round; stroke-linejoin:round; stroke-width:4; stroke-opacity:1; fill:none" points="
  3117,260.199 3362.26,260.199 3362.26,218.727 3117,218.727 3117,260.199 
  "/>
<path clip-path="url(#clip890)" d="M3421.57 231.581 L3421.57 235.609 Q3419.76 234.683 3417.82 234.22 Q3415.87 233.757 3413.79 233.757 Q3410.62 233.757 3409.02 234.729 Q3407.45 235.701 3407.45 237.646 Q3407.45 239.127 3408.58 239.984 Q3409.71 240.817 3413.14 241.581 L3414.6 241.905 Q3419.14 242.877 3421.03 244.66 Q3422.95 246.419 3422.95 249.59 Q3422.95 253.201 3420.08 255.308 Q3417.24 257.414 3412.24 257.414 Q3410.15 257.414 3407.89 256.998 Q3405.64 256.604 3403.14 255.794 L3403.14 251.396 Q3405.5 252.623 3407.79 253.248 Q3410.08 253.849 3412.33 253.849 Q3415.34 253.849 3416.96 252.831 Q3418.58 251.789 3418.58 249.914 Q3418.58 248.178 3417.4 247.252 Q3416.24 246.326 3412.28 245.47 L3410.8 245.123 Q3406.84 244.289 3405.08 242.576 Q3403.32 240.84 3403.32 237.831 Q3403.32 234.174 3405.92 232.183 Q3408.51 230.192 3413.28 230.192 Q3415.64 230.192 3417.72 230.539 Q3419.81 230.887 3421.57 231.581 Z" fill="#000000" fill-rule="evenodd" fill-opacity="1" /><path clip-path="url(#clip890)" d="M3451.29 241.095 L3451.29 256.743 L3447.03 256.743 L3447.03 241.234 Q3447.03 237.553 3445.59 235.725 Q3444.16 233.896 3441.29 233.896 Q3437.84 233.896 3435.85 236.095 Q3433.86 238.294 3433.86 242.09 L3433.86 256.743 L3429.57 256.743 L3429.57 220.725 L3433.86 220.725 L3433.86 234.845 Q3435.38 232.507 3437.45 231.35 Q3439.53 230.192 3442.24 230.192 Q3446.7 230.192 3449 232.97 Q3451.29 235.725 3451.29 241.095 Z" fill="#000000" fill-rule="evenodd" fill-opacity="1" /><path clip-path="url(#clip890)" d="M3471.57 243.711 Q3466.4 243.711 3464.41 244.891 Q3462.42 246.072 3462.42 248.919 Q3462.42 251.187 3463.9 252.53 Q3465.41 253.849 3467.98 253.849 Q3471.52 253.849 3473.65 251.349 Q3475.8 248.826 3475.8 244.66 L3475.8 243.711 L3471.57 243.711 M3480.06 241.951 L3480.06 256.743 L3475.8 256.743 L3475.8 252.808 Q3474.34 255.169 3472.17 256.303 Q3469.99 257.414 3466.84 257.414 Q3462.86 257.414 3460.5 255.192 Q3458.16 252.947 3458.16 249.197 Q3458.16 244.822 3461.08 242.599 Q3464.02 240.377 3469.83 240.377 L3475.8 240.377 L3475.8 239.961 Q3475.8 237.021 3473.86 235.424 Q3471.94 233.803 3468.44 233.803 Q3466.22 233.803 3464.11 234.336 Q3462.01 234.868 3460.06 235.933 L3460.06 231.998 Q3462.4 231.095 3464.6 230.655 Q3466.8 230.192 3468.88 230.192 Q3474.51 230.192 3477.28 233.109 Q3480.06 236.025 3480.06 241.951 Z" fill="#000000" fill-rule="evenodd" fill-opacity="1" /><path clip-path="url(#clip890)" d="M3503.86 234.799 Q3503.14 234.382 3502.28 234.197 Q3501.45 233.988 3500.43 233.988 Q3496.82 233.988 3494.88 236.35 Q3492.95 238.687 3492.95 243.086 L3492.95 256.743 L3488.67 256.743 L3488.67 230.817 L3492.95 230.817 L3492.95 234.845 Q3494.3 232.484 3496.45 231.35 Q3498.6 230.192 3501.68 230.192 Q3502.12 230.192 3502.65 230.262 Q3503.19 230.308 3503.83 230.424 L3503.86 234.799 Z" fill="#000000" fill-rule="evenodd" fill-opacity="1" /><path clip-path="url(#clip890)" d="M3508.32 230.817 L3512.58 230.817 L3512.58 256.743 L3508.32 256.743 L3508.32 230.817 M3508.32 220.725 L3512.58 220.725 L3512.58 226.118 L3508.32 226.118 L3508.32 220.725 Z" fill="#000000" fill-rule="evenodd" fill-opacity="1" /><path clip-path="url(#clip890)" d="M3543.05 241.095 L3543.05 256.743 L3538.79 256.743 L3538.79 241.234 Q3538.79 237.553 3537.35 235.725 Q3535.92 233.896 3533.05 233.896 Q3529.6 233.896 3527.61 236.095 Q3525.62 238.294 3525.62 242.09 L3525.62 256.743 L3521.33 256.743 L3521.33 230.817 L3525.62 230.817 L3525.62 234.845 Q3527.14 232.507 3529.2 231.35 Q3531.29 230.192 3534 230.192 Q3538.46 230.192 3540.75 232.97 Q3543.05 235.725 3543.05 241.095 Z" fill="#000000" fill-rule="evenodd" fill-opacity="1" /><path clip-path="url(#clip890)" d="M3568.6 243.479 Q3568.6 238.849 3566.68 236.303 Q3564.78 233.757 3561.33 233.757 Q3557.91 233.757 3555.99 236.303 Q3554.09 238.849 3554.09 243.479 Q3554.09 248.086 3555.99 250.632 Q3557.91 253.178 3561.33 253.178 Q3564.78 253.178 3566.68 250.632 Q3568.6 248.086 3568.6 243.479 M3572.86 253.525 Q3572.86 260.146 3569.92 263.363 Q3566.98 266.604 3560.92 266.604 Q3558.67 266.604 3556.68 266.257 Q3554.69 265.933 3552.81 265.238 L3552.81 261.095 Q3554.69 262.113 3556.52 262.599 Q3558.35 263.085 3560.25 263.085 Q3564.44 263.085 3566.52 260.886 Q3568.6 258.71 3568.6 254.289 L3568.6 252.183 Q3567.28 254.474 3565.22 255.609 Q3563.16 256.743 3560.29 256.743 Q3555.52 256.743 3552.61 253.109 Q3549.69 249.474 3549.69 243.479 Q3549.69 237.461 3552.61 233.826 Q3555.52 230.192 3560.29 230.192 Q3563.16 230.192 3565.22 231.326 Q3567.28 232.461 3568.6 234.752 L3568.6 230.817 L3572.86 230.817 L3572.86 253.525 Z" fill="#000000" fill-rule="evenodd" fill-opacity="1" /><path clip-path="url(#clip890)" d="M3615.36 231.812 L3615.36 235.794 Q3613.56 234.799 3611.73 234.312 Q3609.92 233.803 3608.07 233.803 Q3603.93 233.803 3601.63 236.442 Q3599.34 239.058 3599.34 243.803 Q3599.34 248.549 3601.63 251.187 Q3603.93 253.803 3608.07 253.803 Q3609.92 253.803 3611.73 253.317 Q3613.56 252.808 3615.36 251.812 L3615.36 255.748 Q3613.58 256.581 3611.66 256.998 Q3609.76 257.414 3607.61 257.414 Q3601.75 257.414 3598.3 253.734 Q3594.85 250.053 3594.85 243.803 Q3594.85 237.461 3598.32 233.826 Q3601.82 230.192 3607.88 230.192 Q3609.85 230.192 3611.73 230.609 Q3613.6 231.002 3615.36 231.812 Z" fill="#000000" fill-rule="evenodd" fill-opacity="1" /><path clip-path="url(#clip890)" d="M3632.81 233.803 Q3629.39 233.803 3627.4 236.488 Q3625.41 239.15 3625.41 243.803 Q3625.41 248.456 3627.37 251.141 Q3629.37 253.803 3632.81 253.803 Q3636.22 253.803 3638.21 251.118 Q3640.2 248.433 3640.2 243.803 Q3640.2 239.197 3638.21 236.512 Q3636.22 233.803 3632.81 233.803 M3632.81 230.192 Q3638.37 230.192 3641.54 233.803 Q3644.71 237.414 3644.71 243.803 Q3644.71 250.169 3641.54 253.803 Q3638.37 257.414 3632.81 257.414 Q3627.24 257.414 3624.06 253.803 Q3620.92 250.169 3620.92 243.803 Q3620.92 237.414 3624.06 233.803 Q3627.24 230.192 3632.81 230.192 Z" fill="#000000" fill-rule="evenodd" fill-opacity="1" /><path clip-path="url(#clip890)" d="M3651.33 246.511 L3651.33 230.817 L3655.59 230.817 L3655.59 246.349 Q3655.59 250.03 3657.03 251.882 Q3658.46 253.711 3661.33 253.711 Q3664.78 253.711 3666.77 251.511 Q3668.79 249.312 3668.79 245.516 L3668.79 230.817 L3673.05 230.817 L3673.05 256.743 L3668.79 256.743 L3668.79 252.761 Q3667.24 255.123 3665.18 256.28 Q3663.14 257.414 3660.43 257.414 Q3655.96 257.414 3653.65 254.636 Q3651.33 251.859 3651.33 246.511 M3662.05 230.192 L3662.05 230.192 Z" fill="#000000" fill-rule="evenodd" fill-opacity="1" /><path clip-path="url(#clip890)" d="M3703.37 241.095 L3703.37 256.743 L3699.11 256.743 L3699.11 241.234 Q3699.11 237.553 3697.68 235.725 Q3696.24 233.896 3693.37 233.896 Q3689.92 233.896 3687.93 236.095 Q3685.94 238.294 3685.94 242.09 L3685.94 256.743 L3681.66 256.743 L3681.66 230.817 L3685.94 230.817 L3685.94 234.845 Q3687.47 232.507 3689.53 231.35 Q3691.61 230.192 3694.32 230.192 Q3698.79 230.192 3701.08 232.97 Q3703.37 235.725 3703.37 241.095 Z" fill="#000000" fill-rule="evenodd" fill-opacity="1" /><path clip-path="url(#clip890)" d="M3716.08 223.456 L3716.08 230.817 L3724.85 230.817 L3724.85 234.127 L3716.08 234.127 L3716.08 248.201 Q3716.08 251.373 3716.93 252.275 Q3717.81 253.178 3720.48 253.178 L3724.85 253.178 L3724.85 256.743 L3720.48 256.743 Q3715.55 256.743 3713.67 254.914 Q3711.8 253.062 3711.8 248.201 L3711.8 234.127 L3708.67 234.127 L3708.67 230.817 L3711.8 230.817 L3711.8 223.456 L3716.08 223.456 Z" fill="#000000" fill-rule="evenodd" fill-opacity="1" /><path clip-path="url(#clip890)" d="M3746.98 231.581 L3746.98 235.609 Q3745.17 234.683 3743.23 234.22 Q3741.29 233.757 3739.2 233.757 Q3736.03 233.757 3734.43 234.729 Q3732.86 235.701 3732.86 237.646 Q3732.86 239.127 3733.99 239.984 Q3735.13 240.817 3738.55 241.581 L3740.01 241.905 Q3744.55 242.877 3746.45 244.66 Q3748.37 246.419 3748.37 249.59 Q3748.37 253.201 3745.5 255.308 Q3742.65 257.414 3737.65 257.414 Q3735.57 257.414 3733.3 256.998 Q3731.05 256.604 3728.55 255.794 L3728.55 251.396 Q3730.92 252.623 3733.21 253.248 Q3735.5 253.849 3737.74 253.849 Q3740.75 253.849 3742.37 252.831 Q3743.99 251.789 3743.99 249.914 Q3743.99 248.178 3742.81 247.252 Q3741.66 246.326 3737.7 245.47 L3736.22 245.123 Q3732.26 244.289 3730.5 242.576 Q3728.74 240.84 3728.74 237.831 Q3728.74 234.174 3731.33 232.183 Q3733.93 230.192 3738.69 230.192 Q3741.05 230.192 3743.14 230.539 Q3745.22 230.887 3746.98 231.581 Z" fill="#000000" fill-rule="evenodd" fill-opacity="1" /></svg>
