<?xml version="1.0" encoding="utf-8"?>
<svg xmlns="http://www.w3.org/2000/svg" xmlns:xlink="http://www.w3.org/1999/xlink" width="1000" height="600" viewBox="0 0 4000 2400">
<defs>
  <clipPath id="clip810">
    <rect x="0" y="0" width="4000" height="2400"/>
  </clipPath>
</defs>
<path clip-path="url(#clip810)" d="
M0 2400 L4000 2400 L4000 0 L0 0  Z
  " fill="#ffffff" fill-rule="evenodd" fill-opacity="1"/>
<defs>
  <clipPath id="clip811">
    <rect x="800" y="0" width="2801" height="2400"/>
  </clipPath>
</defs>
<path clip-path="url(#clip810)" d="
M273.799 2223.39 L3952.76 2223.39 L3952.76 117.424 L273.799 117.424  Z
  " fill="#ffffff" fill-rule="evenodd" fill-opacity="1"/>
<defs>
  <clipPath id="clip812">
    <rect x="273" y="117" width="3680" height="2107"/>
  </clipPath>
</defs>
<polyline clip-path="url(#clip812)" style="stroke:#000000; stroke-linecap:round; stroke-linejoin:round; stroke-width:2; stroke-opacity:0.1; fill:none" points="
  820.807,2223.39 820.807,117.424 
  "/>
<polyline clip-path="url(#clip812)" style="stroke:#000000; stroke-linecap:round; stroke-linejoin:round; stroke-width:2; stroke-opacity:0.1; fill:none" points="
  1682.45,2223.39 1682.45,117.424 
  "/>
<polyline clip-path="url(#clip812)" style="stroke:#000000; stroke-linecap:round; stroke-linejoin:round; stroke-width:2; stroke-opacity:0.1; fill:none" points="
  2544.1,2223.39 2544.1,117.424 
  "/>
<polyline clip-path="url(#clip812)" style="stroke:#000000; stroke-linecap:round; stroke-linejoin:round; stroke-width:2; stroke-opacity:0.1; fill:none" points="
  3405.75,2223.39 3405.75,117.424 
  "/>
<polyline clip-path="url(#clip810)" style="stroke:#000000; stroke-linecap:round; stroke-linejoin:round; stroke-width:4; stroke-opacity:1; fill:none" points="
  273.799,2223.39 3952.76,2223.39 
  "/>
<polyline clip-path="url(#clip810)" style="stroke:#000000; stroke-linecap:round; stroke-linejoin:round; stroke-width:4; stroke-opacity:1; fill:none" points="
  820.807,2223.39 820.807,2204.49 
  "/>
<polyline clip-path="url(#clip810)" style="stroke:#000000; stroke-linecap:round; stroke-linejoin:round; stroke-width:4; stroke-opacity:1; fill:none" points="
  1682.45,2223.39 1682.45,2204.49 
  "/>
<polyline clip-path="url(#clip810)" style="stroke:#000000; stroke-linecap:round; stroke-linejoin:round; stroke-width:4; stroke-opacity:1; fill:none" points="
  2544.1,2223.39 2544.1,2204.49 
  "/>
<polyline clip-path="url(#clip810)" style="stroke:#000000; stroke-linecap:round; stroke-linejoin:round; stroke-width:4; stroke-opacity:1; fill:none" points="
  3405.75,2223.39 3405.75,2204.49 
  "/>
<path clip-path="url(#clip810)" d="M820.807 2267.11 Q817.196 2267.11 815.367 2270.67 Q813.562 2274.21 813.562 2281.34 Q813.562 2288.45 815.367 2292.01 Q817.196 2295.56 820.807 2295.56 Q824.441 2295.56 826.247 2292.01 Q828.076 2288.45 828.076 2281.34 Q828.076 2274.21 826.247 2270.67 Q824.441 2267.11 820.807 2267.11 M820.807 2263.4 Q826.617 2263.4 829.673 2268.01 Q832.752 2272.59 832.752 2281.34 Q832.752 2290.07 829.673 2294.68 Q826.617 2299.26 820.807 2299.26 Q814.997 2299.26 811.918 2294.68 Q808.863 2290.07 808.863 2281.34 Q808.863 2272.59 811.918 2268.01 Q814.997 2263.4 820.807 2263.4 Z" fill="#000000" fill-rule="evenodd" fill-opacity="1" /><path clip-path="url(#clip810)" d="M1672.84 2294.65 L1680.47 2294.65 L1680.47 2268.29 L1672.16 2269.95 L1672.16 2265.69 L1680.43 2264.03 L1685.1 2264.03 L1685.1 2294.65 L1692.74 2294.65 L1692.74 2298.59 L1672.84 2298.59 L1672.84 2294.65 Z" fill="#000000" fill-rule="evenodd" fill-opacity="1" /><path clip-path="url(#clip810)" d="M2538.75 2294.65 L2555.07 2294.65 L2555.07 2298.59 L2533.13 2298.59 L2533.13 2294.65 Q2535.79 2291.9 2540.37 2287.27 Q2544.98 2282.62 2546.16 2281.27 Q2548.41 2278.75 2549.29 2277.01 Q2550.19 2275.25 2550.19 2273.56 Q2550.19 2270.81 2548.24 2269.07 Q2546.32 2267.34 2543.22 2267.34 Q2541.02 2267.34 2538.57 2268.1 Q2536.14 2268.87 2533.36 2270.42 L2533.36 2265.69 Q2536.18 2264.56 2538.64 2263.98 Q2541.09 2263.4 2543.13 2263.4 Q2548.5 2263.4 2551.69 2266.09 Q2554.89 2268.77 2554.89 2273.26 Q2554.89 2275.39 2554.08 2277.31 Q2553.29 2279.21 2551.18 2281.81 Q2550.61 2282.48 2547.5 2285.69 Q2544.4 2288.89 2538.75 2294.65 Z" fill="#000000" fill-rule="evenodd" fill-opacity="1" /><path clip-path="url(#clip810)" d="M3410 2279.95 Q3413.35 2280.67 3415.23 2282.94 Q3417.13 2285.21 3417.13 2288.54 Q3417.13 2293.66 3413.61 2296.46 Q3410.09 2299.26 3403.61 2299.26 Q3401.43 2299.26 3399.12 2298.82 Q3396.82 2298.4 3394.37 2297.55 L3394.37 2293.03 Q3396.32 2294.17 3398.63 2294.75 Q3400.94 2295.32 3403.47 2295.32 Q3407.87 2295.32 3410.16 2293.59 Q3412.47 2291.85 3412.47 2288.54 Q3412.47 2285.49 3410.32 2283.77 Q3408.19 2282.04 3404.37 2282.04 L3400.34 2282.04 L3400.34 2278.19 L3404.56 2278.19 Q3408 2278.19 3409.83 2276.83 Q3411.66 2275.44 3411.66 2272.85 Q3411.66 2270.19 3409.76 2268.77 Q3407.89 2267.34 3404.37 2267.34 Q3402.45 2267.34 3400.25 2267.75 Q3398.05 2268.17 3395.41 2269.05 L3395.41 2264.88 Q3398.07 2264.14 3400.39 2263.77 Q3402.73 2263.4 3404.79 2263.4 Q3410.11 2263.4 3413.21 2265.83 Q3416.32 2268.24 3416.32 2272.36 Q3416.32 2275.23 3414.67 2277.22 Q3413.03 2279.19 3410 2279.95 Z" fill="#000000" fill-rule="evenodd" fill-opacity="1" /><path clip-path="url(#clip810)" d="M1335.26 2346.29 L1335.26 2352.56 Q1331.6 2350.81 1328.35 2349.95 Q1325.11 2349.09 1322.08 2349.09 Q1316.83 2349.09 1313.97 2351.13 Q1311.13 2353.17 1311.13 2356.92 Q1311.13 2360.07 1313.01 2361.7 Q1314.92 2363.29 1320.21 2364.27 L1324.09 2365.07 Q1331.28 2366.44 1334.69 2369.91 Q1338.13 2373.35 1338.13 2379.14 Q1338.13 2386.05 1333.48 2389.61 Q1328.86 2393.17 1319.92 2393.17 Q1316.55 2393.17 1312.73 2392.41 Q1308.94 2391.65 1304.86 2390.15 L1304.86 2383.53 Q1308.78 2385.73 1312.54 2386.84 Q1316.29 2387.95 1319.92 2387.95 Q1325.43 2387.95 1328.42 2385.79 Q1331.41 2383.63 1331.41 2379.62 Q1331.41 2376.11 1329.25 2374.14 Q1327.11 2372.17 1322.21 2371.18 L1318.3 2370.42 Q1311.1 2368.99 1307.89 2365.93 Q1304.67 2362.87 1304.67 2357.43 Q1304.67 2351.13 1309.1 2347.5 Q1313.55 2343.87 1321.35 2343.87 Q1324.69 2343.87 1328.16 2344.48 Q1331.63 2345.08 1335.26 2346.29 Z" fill="#000000" fill-rule="evenodd" fill-opacity="1" /><path clip-path="url(#clip810)" d="M1378.39 2372.96 L1378.39 2375.83 L1351.46 2375.83 Q1351.84 2381.88 1355.09 2385.06 Q1358.37 2388.21 1364.19 2388.21 Q1367.57 2388.21 1370.72 2387.38 Q1373.9 2386.55 1377.02 2384.9 L1377.02 2390.44 Q1373.87 2391.77 1370.56 2392.47 Q1367.25 2393.17 1363.84 2393.17 Q1355.31 2393.17 1350.32 2388.21 Q1345.35 2383.24 1345.35 2374.78 Q1345.35 2366.03 1350.06 2360.9 Q1354.8 2355.74 1362.82 2355.74 Q1370.02 2355.74 1374.19 2360.39 Q1378.39 2365.01 1378.39 2372.96 M1372.53 2371.25 Q1372.47 2366.44 1369.83 2363.57 Q1367.22 2360.71 1362.89 2360.71 Q1357.99 2360.71 1355.03 2363.48 Q1352.1 2366.25 1351.65 2371.28 L1372.53 2371.25 Z" fill="#000000" fill-rule="evenodd" fill-opacity="1" /><path clip-path="url(#clip810)" d="M1404.2 2374.33 Q1397.1 2374.33 1394.37 2375.96 Q1391.63 2377.58 1391.63 2381.49 Q1391.63 2384.61 1393.67 2386.46 Q1395.74 2388.27 1399.27 2388.27 Q1404.14 2388.27 1407.07 2384.84 Q1410.03 2381.37 1410.03 2375.64 L1410.03 2374.33 L1404.2 2374.33 M1415.88 2371.91 L1415.88 2392.25 L1410.03 2392.25 L1410.03 2386.84 Q1408.02 2390.09 1405.03 2391.65 Q1402.04 2393.17 1397.71 2393.17 Q1392.23 2393.17 1388.99 2390.12 Q1385.77 2387.03 1385.77 2381.88 Q1385.77 2375.86 1389.78 2372.8 Q1393.83 2369.75 1401.81 2369.75 L1410.03 2369.75 L1410.03 2369.18 Q1410.03 2365.13 1407.35 2362.94 Q1404.71 2360.71 1399.9 2360.71 Q1396.85 2360.71 1393.95 2361.44 Q1391.06 2362.17 1388.38 2363.64 L1388.38 2358.23 Q1391.6 2356.99 1394.62 2356.38 Q1397.64 2355.74 1400.51 2355.74 Q1408.24 2355.74 1412.06 2359.75 Q1415.88 2363.77 1415.88 2371.91 Z" fill="#000000" fill-rule="evenodd" fill-opacity="1" /><path clip-path="url(#clip810)" d="M1450.67 2357.65 L1450.67 2363.19 Q1448.19 2361.92 1445.51 2361.28 Q1442.84 2360.65 1439.98 2360.65 Q1435.62 2360.65 1433.42 2361.98 Q1431.26 2363.32 1431.26 2365.99 Q1431.26 2368.03 1432.82 2369.21 Q1434.37 2370.35 1439.09 2371.4 L1441.09 2371.85 Q1447.33 2373.19 1449.94 2375.64 Q1452.58 2378.06 1452.58 2382.42 Q1452.58 2387.38 1448.63 2390.28 Q1444.72 2393.17 1437.84 2393.17 Q1434.98 2393.17 1431.86 2392.6 Q1428.77 2392.06 1425.34 2390.95 L1425.34 2384.9 Q1428.58 2386.59 1431.73 2387.45 Q1434.88 2388.27 1437.97 2388.27 Q1442.11 2388.27 1444.34 2386.87 Q1446.57 2385.44 1446.57 2382.86 Q1446.57 2380.48 1444.94 2379.2 Q1443.35 2377.93 1437.91 2376.75 L1435.87 2376.27 Q1430.43 2375.13 1428.01 2372.77 Q1425.59 2370.39 1425.59 2366.25 Q1425.59 2361.22 1429.16 2358.48 Q1432.72 2355.74 1439.28 2355.74 Q1442.52 2355.74 1445.39 2356.22 Q1448.25 2356.7 1450.67 2357.65 Z" fill="#000000" fill-rule="evenodd" fill-opacity="1" /><path clip-path="url(#clip810)" d="M1475.72 2360.71 Q1471.01 2360.71 1468.27 2364.4 Q1465.54 2368.06 1465.54 2374.46 Q1465.54 2380.86 1468.24 2384.55 Q1470.98 2388.21 1475.72 2388.21 Q1480.4 2388.21 1483.14 2384.52 Q1485.87 2380.83 1485.87 2374.46 Q1485.87 2368.13 1483.14 2364.43 Q1480.4 2360.71 1475.72 2360.71 M1475.72 2355.74 Q1483.36 2355.74 1487.72 2360.71 Q1492.08 2365.68 1492.08 2374.46 Q1492.08 2383.21 1487.72 2388.21 Q1483.36 2393.17 1475.72 2393.17 Q1468.05 2393.17 1463.69 2388.21 Q1459.36 2383.21 1459.36 2374.46 Q1459.36 2365.68 1463.69 2360.71 Q1468.05 2355.74 1475.72 2355.74 Z" fill="#000000" fill-rule="evenodd" fill-opacity="1" /><path clip-path="url(#clip810)" d="M1531.42 2370.74 L1531.42 2392.25 L1525.56 2392.25 L1525.56 2370.93 Q1525.56 2365.87 1523.59 2363.35 Q1521.62 2360.84 1517.67 2360.84 Q1512.93 2360.84 1510.19 2363.86 Q1507.45 2366.88 1507.45 2372.1 L1507.45 2392.25 L1501.56 2392.25 L1501.56 2356.6 L1507.45 2356.6 L1507.45 2362.14 Q1509.55 2358.93 1512.39 2357.34 Q1515.25 2355.74 1518.98 2355.74 Q1525.12 2355.74 1528.27 2359.56 Q1531.42 2363.35 1531.42 2370.74 Z" fill="#000000" fill-rule="evenodd" fill-opacity="1" /><path clip-path="url(#clip810)" d="M1557.17 2342.79 Q1552.9 2350.11 1550.84 2357.27 Q1548.77 2364.43 1548.77 2371.79 Q1548.77 2379.14 1550.84 2386.36 Q1552.94 2393.56 1557.17 2400.85 L1552.08 2400.85 Q1547.3 2393.37 1544.92 2386.14 Q1542.56 2378.92 1542.56 2371.79 Q1542.56 2364.69 1544.92 2357.5 Q1547.27 2350.3 1552.08 2342.79 L1557.17 2342.79 Z" fill="#000000" fill-rule="evenodd" fill-opacity="1" /><path clip-path="url(#clip810)" d="M1583.11 2348.97 Q1578.14 2348.97 1575.63 2353.87 Q1573.15 2358.74 1573.15 2368.54 Q1573.15 2378.31 1575.63 2383.21 Q1578.14 2388.08 1583.11 2388.08 Q1588.11 2388.08 1590.59 2383.21 Q1593.1 2378.31 1593.1 2368.54 Q1593.1 2358.74 1590.59 2353.87 Q1588.11 2348.97 1583.11 2348.97 M1583.11 2343.87 Q1591.1 2343.87 1595.3 2350.21 Q1599.53 2356.51 1599.53 2368.54 Q1599.53 2380.54 1595.3 2386.87 Q1591.1 2393.17 1583.11 2393.17 Q1575.12 2393.17 1570.89 2386.87 Q1566.69 2380.54 1566.69 2368.54 Q1566.69 2356.51 1570.89 2350.21 Q1575.12 2343.87 1583.11 2343.87 Z" fill="#000000" fill-rule="evenodd" fill-opacity="1" /><path clip-path="url(#clip810)" d="M1607.04 2371.79 L1624.2 2371.79 L1624.2 2377.01 L1607.04 2377.01 L1607.04 2371.79 Z" fill="#000000" fill-rule="evenodd" fill-opacity="1" /><path clip-path="url(#clip810)" d="M1662.27 2346.29 L1662.27 2352.56 Q1658.61 2350.81 1655.36 2349.95 Q1652.11 2349.09 1649.09 2349.09 Q1643.84 2349.09 1640.97 2351.13 Q1638.14 2353.17 1638.14 2356.92 Q1638.14 2360.07 1640.02 2361.7 Q1641.93 2363.29 1647.21 2364.27 L1651.1 2365.07 Q1658.29 2366.44 1661.69 2369.91 Q1665.13 2373.35 1665.13 2379.14 Q1665.13 2386.05 1660.48 2389.61 Q1655.87 2393.17 1646.93 2393.17 Q1643.55 2393.17 1639.73 2392.41 Q1635.95 2391.65 1631.87 2390.15 L1631.87 2383.53 Q1635.79 2385.73 1639.54 2386.84 Q1643.3 2387.95 1646.93 2387.95 Q1652.43 2387.95 1655.42 2385.79 Q1658.42 2383.63 1658.42 2379.62 Q1658.42 2376.11 1656.25 2374.14 Q1654.12 2372.17 1649.22 2371.18 L1645.3 2370.42 Q1638.11 2368.99 1634.89 2365.93 Q1631.68 2362.87 1631.68 2357.43 Q1631.68 2351.13 1636.1 2347.5 Q1640.56 2343.87 1648.36 2343.87 Q1651.7 2343.87 1655.17 2344.48 Q1658.64 2345.08 1662.27 2346.29 Z" fill="#000000" fill-rule="evenodd" fill-opacity="1" /><path clip-path="url(#clip810)" d="M1680.57 2386.9 L1680.57 2405.81 L1674.68 2405.81 L1674.68 2356.6 L1680.57 2356.6 L1680.57 2362.01 Q1682.41 2358.83 1685.22 2357.3 Q1688.05 2355.74 1691.96 2355.74 Q1698.46 2355.74 1702.5 2360.9 Q1706.57 2366.06 1706.57 2374.46 Q1706.57 2382.86 1702.5 2388.02 Q1698.46 2393.17 1691.96 2393.17 Q1688.05 2393.17 1685.22 2391.65 Q1682.41 2390.09 1680.57 2386.9 M1700.49 2374.46 Q1700.49 2368 1697.82 2364.34 Q1695.18 2360.65 1690.53 2360.65 Q1685.88 2360.65 1683.21 2364.34 Q1680.57 2368 1680.57 2374.46 Q1680.57 2380.92 1683.21 2384.61 Q1685.88 2388.27 1690.53 2388.27 Q1695.18 2388.27 1697.82 2384.61 Q1700.49 2380.92 1700.49 2374.46 Z" fill="#000000" fill-rule="evenodd" fill-opacity="1" /><path clip-path="url(#clip810)" d="M1736.94 2362.08 Q1735.95 2361.51 1734.77 2361.25 Q1733.63 2360.96 1732.23 2360.96 Q1727.26 2360.96 1724.59 2364.21 Q1721.95 2367.43 1721.95 2373.47 L1721.95 2392.25 L1716.06 2392.25 L1716.06 2356.6 L1721.95 2356.6 L1721.95 2362.14 Q1723.79 2358.9 1726.75 2357.34 Q1729.71 2355.74 1733.95 2355.74 Q1734.55 2355.74 1735.28 2355.84 Q1736.01 2355.9 1736.91 2356.06 L1736.94 2362.08 Z" fill="#000000" fill-rule="evenodd" fill-opacity="1" /><path clip-path="url(#clip810)" d="M1743.08 2356.6 L1748.94 2356.6 L1748.94 2392.25 L1743.08 2392.25 L1743.08 2356.6 M1743.08 2342.73 L1748.94 2342.73 L1748.94 2350.14 L1743.08 2350.14 L1743.08 2342.73 Z" fill="#000000" fill-rule="evenodd" fill-opacity="1" /><path clip-path="url(#clip810)" d="M1790.82 2370.74 L1790.82 2392.25 L1784.97 2392.25 L1784.97 2370.93 Q1784.97 2365.87 1782.99 2363.35 Q1781.02 2360.84 1777.07 2360.84 Q1772.33 2360.84 1769.59 2363.86 Q1766.86 2366.88 1766.86 2372.1 L1766.86 2392.25 L1760.97 2392.25 L1760.97 2356.6 L1766.86 2356.6 L1766.86 2362.14 Q1768.96 2358.93 1771.79 2357.34 Q1774.65 2355.74 1778.38 2355.74 Q1784.52 2355.74 1787.67 2359.56 Q1790.82 2363.35 1790.82 2370.74 Z" fill="#000000" fill-rule="evenodd" fill-opacity="1" /><path clip-path="url(#clip810)" d="M1825.96 2374.01 Q1825.96 2367.65 1823.32 2364.15 Q1820.71 2360.65 1815.97 2360.65 Q1811.26 2360.65 1808.61 2364.15 Q1806 2367.65 1806 2374.01 Q1806 2380.35 1808.61 2383.85 Q1811.26 2387.35 1815.97 2387.35 Q1820.71 2387.35 1823.32 2383.85 Q1825.96 2380.35 1825.96 2374.01 M1831.82 2387.83 Q1831.82 2396.93 1827.78 2401.35 Q1823.73 2405.81 1815.39 2405.81 Q1812.31 2405.81 1809.57 2405.33 Q1806.83 2404.89 1804.25 2403.93 L1804.25 2398.24 Q1806.83 2399.64 1809.35 2400.3 Q1811.86 2400.97 1814.47 2400.97 Q1820.23 2400.97 1823.1 2397.95 Q1825.96 2394.96 1825.96 2388.88 L1825.96 2385.98 Q1824.15 2389.13 1821.31 2390.69 Q1818.48 2392.25 1814.53 2392.25 Q1807.98 2392.25 1803.97 2387.25 Q1799.96 2382.26 1799.96 2374.01 Q1799.96 2365.74 1803.97 2360.74 Q1807.98 2355.74 1814.53 2355.74 Q1818.48 2355.74 1821.31 2357.3 Q1824.15 2358.86 1825.96 2362.01 L1825.96 2356.6 L1831.82 2356.6 L1831.82 2387.83 Z" fill="#000000" fill-rule="evenodd" fill-opacity="1" /><path clip-path="url(#clip810)" d="M1845.38 2384.17 L1852.09 2384.17 L1852.09 2389.64 L1846.87 2399.83 L1842.77 2399.83 L1845.38 2389.64 L1845.38 2384.17 Z" fill="#000000" fill-rule="evenodd" fill-opacity="1" /><path clip-path="url(#clip810)" d="M1887.26 2386.84 L1897.77 2386.84 L1897.77 2350.59 L1886.34 2352.88 L1886.34 2347.02 L1897.7 2344.73 L1904.13 2344.73 L1904.13 2386.84 L1914.64 2386.84 L1914.64 2392.25 L1887.26 2392.25 L1887.26 2386.84 Z" fill="#000000" fill-rule="evenodd" fill-opacity="1" /><path clip-path="url(#clip810)" d="M1923.83 2371.79 L1940.99 2371.79 L1940.99 2377.01 L1923.83 2377.01 L1923.83 2371.79 Z" fill="#000000" fill-rule="evenodd" fill-opacity="1" /><path clip-path="url(#clip810)" d="M1979.06 2346.29 L1979.06 2352.56 Q1975.4 2350.81 1972.15 2349.95 Q1968.9 2349.09 1965.88 2349.09 Q1960.63 2349.09 1957.76 2351.13 Q1954.93 2353.17 1954.93 2356.92 Q1954.93 2360.07 1956.81 2361.7 Q1958.72 2363.29 1964 2364.27 L1967.88 2365.07 Q1975.08 2366.44 1978.48 2369.91 Q1981.92 2373.35 1981.92 2379.14 Q1981.92 2386.05 1977.27 2389.61 Q1972.66 2393.17 1963.72 2393.17 Q1960.34 2393.17 1956.52 2392.41 Q1952.73 2391.65 1948.66 2390.15 L1948.66 2383.53 Q1952.58 2385.73 1956.33 2386.84 Q1960.09 2387.95 1963.72 2387.95 Q1969.22 2387.95 1972.21 2385.79 Q1975.21 2383.63 1975.21 2379.62 Q1975.21 2376.11 1973.04 2374.14 Q1970.91 2372.17 1966.01 2371.18 L1962.09 2370.42 Q1954.9 2368.99 1951.68 2365.93 Q1948.47 2362.87 1948.47 2357.43 Q1948.47 2351.13 1952.89 2347.5 Q1957.35 2343.87 1965.15 2343.87 Q1968.49 2343.87 1971.96 2344.48 Q1975.43 2345.08 1979.06 2346.29 Z" fill="#000000" fill-rule="evenodd" fill-opacity="1" /><path clip-path="url(#clip810)" d="M1991.09 2378.18 L1991.09 2356.6 L1996.94 2356.6 L1996.94 2377.96 Q1996.94 2383.02 1998.92 2385.57 Q2000.89 2388.08 2004.84 2388.08 Q2009.58 2388.08 2012.32 2385.06 Q2015.09 2382.03 2015.09 2376.82 L2015.09 2356.6 L2020.94 2356.6 L2020.94 2392.25 L2015.09 2392.25 L2015.09 2386.78 Q2012.95 2390.02 2010.12 2391.62 Q2007.32 2393.17 2003.6 2393.17 Q1997.45 2393.17 1994.27 2389.36 Q1991.09 2385.54 1991.09 2378.18 M2005.82 2355.74 L2005.82 2355.74 Z" fill="#000000" fill-rule="evenodd" fill-opacity="1" /><path clip-path="url(#clip810)" d="M2060.76 2363.45 Q2062.96 2359.5 2066.01 2357.62 Q2069.07 2355.74 2073.21 2355.74 Q2078.78 2355.74 2081.8 2359.66 Q2084.82 2363.54 2084.82 2370.74 L2084.82 2392.25 L2078.93 2392.25 L2078.93 2370.93 Q2078.93 2365.8 2077.12 2363.32 Q2075.31 2360.84 2071.58 2360.84 Q2067.03 2360.84 2064.39 2363.86 Q2061.75 2366.88 2061.75 2372.1 L2061.75 2392.25 L2055.86 2392.25 L2055.86 2370.93 Q2055.86 2365.77 2054.04 2363.32 Q2052.23 2360.84 2048.44 2360.84 Q2043.96 2360.84 2041.31 2363.89 Q2038.67 2366.92 2038.67 2372.1 L2038.67 2392.25 L2032.78 2392.25 L2032.78 2356.6 L2038.67 2356.6 L2038.67 2362.14 Q2040.68 2358.86 2043.48 2357.3 Q2046.28 2355.74 2050.13 2355.74 Q2054.01 2355.74 2056.72 2357.72 Q2059.46 2359.69 2060.76 2363.45 Z" fill="#000000" fill-rule="evenodd" fill-opacity="1" /><path clip-path="url(#clip810)" d="M2124.26 2363.45 Q2126.45 2359.5 2129.51 2357.62 Q2132.57 2355.74 2136.7 2355.74 Q2142.27 2355.74 2145.3 2359.66 Q2148.32 2363.54 2148.32 2370.74 L2148.32 2392.25 L2142.43 2392.25 L2142.43 2370.93 Q2142.43 2365.8 2140.62 2363.32 Q2138.8 2360.84 2135.08 2360.84 Q2130.53 2360.84 2127.89 2363.86 Q2125.25 2366.88 2125.25 2372.1 L2125.25 2392.25 L2119.36 2392.25 L2119.36 2370.93 Q2119.36 2365.77 2117.54 2363.32 Q2115.73 2360.84 2111.94 2360.84 Q2107.45 2360.84 2104.81 2363.89 Q2102.17 2366.92 2102.17 2372.1 L2102.17 2392.25 L2096.28 2392.25 L2096.28 2356.6 L2102.17 2356.6 L2102.17 2362.14 Q2104.17 2358.86 2106.98 2357.3 Q2109.78 2355.74 2113.63 2355.74 Q2117.51 2355.74 2120.22 2357.72 Q2122.95 2359.69 2124.26 2363.45 Z" fill="#000000" fill-rule="evenodd" fill-opacity="1" /><path clip-path="url(#clip810)" d="M2190.49 2372.96 L2190.49 2375.83 L2163.57 2375.83 Q2163.95 2381.88 2167.2 2385.06 Q2170.47 2388.21 2176.3 2388.21 Q2179.67 2388.21 2182.82 2387.38 Q2186.01 2386.55 2189.12 2384.9 L2189.12 2390.44 Q2185.97 2391.77 2182.66 2392.47 Q2179.35 2393.17 2175.95 2393.17 Q2167.42 2393.17 2162.42 2388.21 Q2157.46 2383.24 2157.46 2374.78 Q2157.46 2366.03 2162.17 2360.9 Q2166.91 2355.74 2174.93 2355.74 Q2182.12 2355.74 2186.29 2360.39 Q2190.49 2365.01 2190.49 2372.96 M2184.64 2371.25 Q2184.57 2366.44 2181.93 2363.57 Q2179.32 2360.71 2174.99 2360.71 Q2170.09 2360.71 2167.13 2363.48 Q2164.2 2366.25 2163.76 2371.28 L2184.64 2371.25 Z" fill="#000000" fill-rule="evenodd" fill-opacity="1" /><path clip-path="url(#clip810)" d="M2220.76 2362.08 Q2219.78 2361.51 2218.6 2361.25 Q2217.45 2360.96 2216.05 2360.96 Q2211.09 2360.96 2208.41 2364.21 Q2205.77 2367.43 2205.77 2373.47 L2205.77 2392.25 L2199.88 2392.25 L2199.88 2356.6 L2205.77 2356.6 L2205.77 2362.14 Q2207.62 2358.9 2210.58 2357.34 Q2213.54 2355.74 2217.77 2355.74 Q2218.38 2355.74 2219.11 2355.84 Q2219.84 2355.9 2220.73 2356.06 L2220.76 2362.08 Z" fill="#000000" fill-rule="evenodd" fill-opacity="1" /><path clip-path="url(#clip810)" d="M2228.4 2384.17 L2235.12 2384.17 L2235.12 2389.64 L2229.9 2399.83 L2225.79 2399.83 L2228.4 2389.64 L2228.4 2384.17 Z" fill="#000000" fill-rule="evenodd" fill-opacity="1" /><path clip-path="url(#clip810)" d="M2274.71 2386.84 L2297.15 2386.84 L2297.15 2392.25 L2266.98 2392.25 L2266.98 2386.84 Q2270.64 2383.05 2276.94 2376.69 Q2283.27 2370.29 2284.9 2368.44 Q2287.98 2364.97 2289.19 2362.59 Q2290.44 2360.17 2290.44 2357.85 Q2290.44 2354.06 2287.76 2351.67 Q2285.12 2349.28 2280.85 2349.28 Q2277.83 2349.28 2274.46 2350.33 Q2271.12 2351.38 2267.3 2353.52 L2267.3 2347.02 Q2271.18 2345.46 2274.55 2344.67 Q2277.93 2343.87 2280.73 2343.87 Q2288.11 2343.87 2292.5 2347.56 Q2296.9 2351.26 2296.9 2357.43 Q2296.9 2360.36 2295.78 2363 Q2294.7 2365.61 2291.8 2369.18 Q2291.01 2370.1 2286.74 2374.52 Q2282.48 2378.92 2274.71 2386.84 Z" fill="#000000" fill-rule="evenodd" fill-opacity="1" /><path clip-path="url(#clip810)" d="M2306.86 2371.79 L2324.01 2371.79 L2324.01 2377.01 L2306.86 2377.01 L2306.86 2371.79 Z" fill="#000000" fill-rule="evenodd" fill-opacity="1" /><path clip-path="url(#clip810)" d="M2348.04 2351.07 L2339.32 2374.71 L2356.8 2374.71 L2348.04 2351.07 M2344.42 2344.73 L2351.71 2344.73 L2369.82 2392.25 L2363.13 2392.25 L2358.8 2380.06 L2337.38 2380.06 L2333.05 2392.25 L2326.27 2392.25 L2344.42 2344.73 Z" fill="#000000" fill-rule="evenodd" fill-opacity="1" /><path clip-path="url(#clip810)" d="M2375.89 2378.18 L2375.89 2356.6 L2381.75 2356.6 L2381.75 2377.96 Q2381.75 2383.02 2383.72 2385.57 Q2385.7 2388.08 2389.64 2388.08 Q2394.39 2388.08 2397.12 2385.06 Q2399.89 2382.03 2399.89 2376.82 L2399.89 2356.6 L2405.75 2356.6 L2405.75 2392.25 L2399.89 2392.25 L2399.89 2386.78 Q2397.76 2390.02 2394.93 2391.62 Q2392.13 2393.17 2388.4 2393.17 Q2382.26 2393.17 2379.08 2389.36 Q2375.89 2385.54 2375.89 2378.18 M2390.63 2355.74 L2390.63 2355.74 Z" fill="#000000" fill-rule="evenodd" fill-opacity="1" /><path clip-path="url(#clip810)" d="M2423.61 2346.48 L2423.61 2356.6 L2435.67 2356.6 L2435.67 2361.16 L2423.61 2361.16 L2423.61 2380.51 Q2423.61 2384.87 2424.78 2386.11 Q2425.99 2387.35 2429.65 2387.35 L2435.67 2387.35 L2435.67 2392.25 L2429.65 2392.25 Q2422.87 2392.25 2420.3 2389.74 Q2417.72 2387.19 2417.72 2380.51 L2417.72 2361.16 L2413.42 2361.16 L2413.42 2356.6 L2417.72 2356.6 L2417.72 2346.48 L2423.61 2346.48 Z" fill="#000000" fill-rule="evenodd" fill-opacity="1" /><path clip-path="url(#clip810)" d="M2442.77 2378.18 L2442.77 2356.6 L2448.62 2356.6 L2448.62 2377.96 Q2448.62 2383.02 2450.6 2385.57 Q2452.57 2388.08 2456.52 2388.08 Q2461.26 2388.08 2464 2385.06 Q2466.77 2382.03 2466.77 2376.82 L2466.77 2356.6 L2472.62 2356.6 L2472.62 2392.25 L2466.77 2392.25 L2466.77 2386.78 Q2464.63 2390.02 2461.8 2391.62 Q2459 2393.17 2455.28 2393.17 Q2449.13 2393.17 2445.95 2389.36 Q2442.77 2385.54 2442.77 2378.18 M2457.5 2355.74 L2457.5 2355.74 Z" fill="#000000" fill-rule="evenodd" fill-opacity="1" /><path clip-path="url(#clip810)" d="M2512.44 2363.45 Q2514.64 2359.5 2517.69 2357.62 Q2520.75 2355.74 2524.88 2355.74 Q2530.45 2355.74 2533.48 2359.66 Q2536.5 2363.54 2536.5 2370.74 L2536.5 2392.25 L2530.61 2392.25 L2530.61 2370.93 Q2530.61 2365.8 2528.8 2363.32 Q2526.98 2360.84 2523.26 2360.84 Q2518.71 2360.84 2516.07 2363.86 Q2513.43 2366.88 2513.43 2372.1 L2513.43 2392.25 L2507.54 2392.25 L2507.54 2370.93 Q2507.54 2365.77 2505.72 2363.32 Q2503.91 2360.84 2500.12 2360.84 Q2495.63 2360.84 2492.99 2363.89 Q2490.35 2366.92 2490.35 2372.1 L2490.35 2392.25 L2484.46 2392.25 L2484.46 2356.6 L2490.35 2356.6 L2490.35 2362.14 Q2492.36 2358.86 2495.16 2357.3 Q2497.96 2355.74 2501.81 2355.74 Q2505.69 2355.74 2508.4 2357.72 Q2511.13 2359.69 2512.44 2363.45 Z" fill="#000000" fill-rule="evenodd" fill-opacity="1" /><path clip-path="url(#clip810)" d="M2577.82 2370.74 L2577.82 2392.25 L2571.96 2392.25 L2571.96 2370.93 Q2571.96 2365.87 2569.99 2363.35 Q2568.01 2360.84 2564.07 2360.84 Q2559.32 2360.84 2556.59 2363.86 Q2553.85 2366.88 2553.85 2372.1 L2553.85 2392.25 L2547.96 2392.25 L2547.96 2356.6 L2553.85 2356.6 L2553.85 2362.14 Q2555.95 2358.93 2558.78 2357.34 Q2561.65 2355.74 2565.37 2355.74 Q2571.51 2355.74 2574.66 2359.56 Q2577.82 2363.35 2577.82 2370.74 Z" fill="#000000" fill-rule="evenodd" fill-opacity="1" /><path clip-path="url(#clip810)" d="M2590.99 2384.17 L2597.71 2384.17 L2597.71 2389.64 L2592.49 2399.83 L2588.38 2399.83 L2590.99 2389.64 L2590.99 2384.17 Z" fill="#000000" fill-rule="evenodd" fill-opacity="1" /><path clip-path="url(#clip810)" d="M2651.24 2366.63 Q2655.86 2367.62 2658.44 2370.74 Q2661.05 2373.85 2661.05 2378.44 Q2661.05 2385.47 2656.21 2389.32 Q2651.37 2393.17 2642.46 2393.17 Q2639.47 2393.17 2636.28 2392.57 Q2633.13 2392 2629.76 2390.82 L2629.76 2384.61 Q2632.43 2386.17 2635.62 2386.97 Q2638.8 2387.76 2642.27 2387.76 Q2648.32 2387.76 2651.47 2385.38 Q2654.65 2382.99 2654.65 2378.44 Q2654.65 2374.24 2651.69 2371.88 Q2648.76 2369.49 2643.51 2369.49 L2637.97 2369.49 L2637.97 2364.21 L2643.76 2364.21 Q2648.51 2364.21 2651.02 2362.33 Q2653.54 2360.42 2653.54 2356.86 Q2653.54 2353.2 2650.93 2351.26 Q2648.35 2349.28 2643.51 2349.28 Q2640.87 2349.28 2637.84 2349.86 Q2634.82 2350.43 2631.19 2351.64 L2631.19 2345.91 Q2634.85 2344.89 2638.03 2344.38 Q2641.25 2343.87 2644.08 2343.87 Q2651.4 2343.87 2655.67 2347.21 Q2659.93 2350.52 2659.93 2356.19 Q2659.93 2360.14 2657.67 2362.87 Q2655.41 2365.58 2651.24 2366.63 Z" fill="#000000" fill-rule="evenodd" fill-opacity="1" /><path clip-path="url(#clip810)" d="M2669.45 2371.79 L2686.6 2371.79 L2686.6 2377.01 L2669.45 2377.01 L2669.45 2371.79 Z" fill="#000000" fill-rule="evenodd" fill-opacity="1" /><path clip-path="url(#clip810)" d="M2689.31 2344.73 L2695.8 2344.73 L2705.8 2384.9 L2715.76 2344.73 L2722.98 2344.73 L2732.98 2384.9 L2742.94 2344.73 L2749.47 2344.73 L2737.53 2392.25 L2729.45 2392.25 L2719.42 2351 L2709.3 2392.25 L2701.21 2392.25 L2689.31 2344.73 Z" fill="#000000" fill-rule="evenodd" fill-opacity="1" /><path clip-path="url(#clip810)" d="M2756.31 2356.6 L2762.17 2356.6 L2762.17 2392.25 L2756.31 2392.25 L2756.31 2356.6 M2756.31 2342.73 L2762.17 2342.73 L2762.17 2350.14 L2756.31 2350.14 L2756.31 2342.73 Z" fill="#000000" fill-rule="evenodd" fill-opacity="1" /><path clip-path="url(#clip810)" d="M2804.05 2370.74 L2804.05 2392.25 L2798.2 2392.25 L2798.2 2370.93 Q2798.2 2365.87 2796.22 2363.35 Q2794.25 2360.84 2790.3 2360.84 Q2785.56 2360.84 2782.82 2363.86 Q2780.09 2366.88 2780.09 2372.1 L2780.09 2392.25 L2774.2 2392.25 L2774.2 2356.6 L2780.09 2356.6 L2780.09 2362.14 Q2782.19 2358.93 2785.02 2357.34 Q2787.88 2355.74 2791.61 2355.74 Q2797.75 2355.74 2800.9 2359.56 Q2804.05 2363.35 2804.05 2370.74 Z" fill="#000000" fill-rule="evenodd" fill-opacity="1" /><path clip-path="url(#clip810)" d="M2821.53 2346.48 L2821.53 2356.6 L2833.59 2356.6 L2833.59 2361.16 L2821.53 2361.16 L2821.53 2380.51 Q2821.53 2384.87 2822.7 2386.11 Q2823.91 2387.35 2827.57 2387.35 L2833.59 2387.35 L2833.59 2392.25 L2827.57 2392.25 Q2820.79 2392.25 2818.22 2389.74 Q2815.64 2387.19 2815.64 2380.51 L2815.64 2361.16 L2811.34 2361.16 L2811.34 2356.6 L2815.64 2356.6 L2815.64 2346.48 L2821.53 2346.48 Z" fill="#000000" fill-rule="evenodd" fill-opacity="1" /><path clip-path="url(#clip810)" d="M2871.78 2372.96 L2871.78 2375.83 L2844.86 2375.83 Q2845.24 2381.88 2848.48 2385.06 Q2851.76 2388.21 2857.59 2388.21 Q2860.96 2388.21 2864.11 2387.38 Q2867.3 2386.55 2870.41 2384.9 L2870.41 2390.44 Q2867.26 2391.77 2863.95 2392.47 Q2860.64 2393.17 2857.24 2393.17 Q2848.71 2393.17 2843.71 2388.21 Q2838.75 2383.24 2838.75 2374.78 Q2838.75 2366.03 2843.46 2360.9 Q2848.2 2355.74 2856.22 2355.74 Q2863.41 2355.74 2867.58 2360.39 Q2871.78 2365.01 2871.78 2372.96 M2865.93 2371.25 Q2865.86 2366.44 2863.22 2363.57 Q2860.61 2360.71 2856.28 2360.71 Q2851.38 2360.71 2848.42 2363.48 Q2845.49 2366.25 2845.05 2371.28 L2865.93 2371.25 Z" fill="#000000" fill-rule="evenodd" fill-opacity="1" /><path clip-path="url(#clip810)" d="M2902.05 2362.08 Q2901.07 2361.51 2899.89 2361.25 Q2898.74 2360.96 2897.34 2360.96 Q2892.38 2360.96 2889.7 2364.21 Q2887.06 2367.43 2887.06 2373.47 L2887.06 2392.25 L2881.17 2392.25 L2881.17 2356.6 L2887.06 2356.6 L2887.06 2362.14 Q2888.91 2358.9 2891.87 2357.34 Q2894.83 2355.74 2899.06 2355.74 Q2899.67 2355.74 2900.4 2355.84 Q2901.13 2355.9 2902.02 2356.06 L2902.05 2362.08 Z" fill="#000000" fill-rule="evenodd" fill-opacity="1" /><path clip-path="url(#clip810)" d="M2907.27 2342.79 L2912.36 2342.79 Q2917.14 2350.3 2919.49 2357.5 Q2921.88 2364.69 2921.88 2371.79 Q2921.88 2378.92 2919.49 2386.14 Q2917.14 2393.37 2912.36 2400.85 L2907.27 2400.85 Q2911.51 2393.56 2913.57 2386.36 Q2915.67 2379.14 2915.67 2371.79 Q2915.67 2364.43 2913.57 2357.27 Q2911.51 2350.11 2907.27 2342.79 Z" fill="#000000" fill-rule="evenodd" fill-opacity="1" /><polyline clip-path="url(#clip812)" style="stroke:#000000; stroke-linecap:round; stroke-linejoin:round; stroke-width:2; stroke-opacity:0.1; fill:none" points="
  273.799,2163.79 3952.76,2163.79 
  "/>
<polyline clip-path="url(#clip812)" style="stroke:#000000; stroke-linecap:round; stroke-linejoin:round; stroke-width:2; stroke-opacity:0.1; fill:none" points="
  273.799,1485.46 3952.76,1485.46 
  "/>
<polyline clip-path="url(#clip812)" style="stroke:#000000; stroke-linecap:round; stroke-linejoin:round; stroke-width:2; stroke-opacity:0.1; fill:none" points="
  273.799,807.141 3952.76,807.141 
  "/>
<polyline clip-path="url(#clip812)" style="stroke:#000000; stroke-linecap:round; stroke-linejoin:round; stroke-width:2; stroke-opacity:0.1; fill:none" points="
  273.799,128.819 3952.76,128.819 
  "/>
<polyline clip-path="url(#clip810)" style="stroke:#000000; stroke-linecap:round; stroke-linejoin:round; stroke-width:4; stroke-opacity:1; fill:none" points="
  273.799,2223.39 273.799,117.424 
  "/>
<polyline clip-path="url(#clip810)" style="stroke:#000000; stroke-linecap:round; stroke-linejoin:round; stroke-width:4; stroke-opacity:1; fill:none" points="
  273.799,2163.79 292.697,2163.79 
  "/>
<polyline clip-path="url(#clip810)" style="stroke:#000000; stroke-linecap:round; stroke-linejoin:round; stroke-width:4; stroke-opacity:1; fill:none" points="
  273.799,1485.46 292.697,1485.46 
  "/>
<polyline clip-path="url(#clip810)" style="stroke:#000000; stroke-linecap:round; stroke-linejoin:round; stroke-width:4; stroke-opacity:1; fill:none" points="
  273.799,807.141 292.697,807.141 
  "/>
<polyline clip-path="url(#clip810)" style="stroke:#000000; stroke-linecap:round; stroke-linejoin:round; stroke-width:4; stroke-opacity:1; fill:none" points="
  273.799,128.819 292.697,128.819 
  "/>
<path clip-path="url(#clip810)" d="M201.855 2149.58 Q198.244 2149.58 196.415 2153.15 Q194.61 2156.69 194.61 2163.82 Q194.61 2170.93 196.415 2174.49 Q198.244 2178.03 201.855 2178.03 Q205.489 2178.03 207.295 2174.49 Q209.123 2170.93 209.123 2163.82 Q209.123 2156.69 207.295 2153.15 Q205.489 2149.58 201.855 2149.58 M201.855 2145.88 Q207.665 2145.88 210.721 2150.49 Q213.799 2155.07 213.799 2163.82 Q213.799 2172.55 210.721 2177.15 Q207.665 2181.74 201.855 2181.74 Q196.045 2181.74 192.966 2177.15 Q189.91 2172.55 189.91 2163.82 Q189.91 2155.07 192.966 2150.49 Q196.045 2145.88 201.855 2145.88 Z" fill="#000000" fill-rule="evenodd" fill-opacity="1" /><path clip-path="url(#clip810)" d="M131.577 1468.18 L149.934 1468.18 L149.934 1472.12 L135.86 1472.12 L135.86 1480.59 Q136.878 1480.24 137.897 1480.08 Q138.915 1479.9 139.934 1479.9 Q145.721 1479.9 149.1 1483.07 Q152.48 1486.24 152.48 1491.66 Q152.48 1497.23 149.008 1500.34 Q145.536 1503.41 139.216 1503.41 Q137.04 1503.41 134.772 1503.04 Q132.527 1502.67 130.119 1501.93 L130.119 1497.23 Q132.202 1498.37 134.425 1498.92 Q136.647 1499.48 139.124 1499.48 Q143.128 1499.48 145.466 1497.37 Q147.804 1495.27 147.804 1491.66 Q147.804 1488.04 145.466 1485.94 Q143.128 1483.83 139.124 1483.83 Q137.249 1483.83 135.374 1484.25 Q133.522 1484.66 131.577 1485.54 L131.577 1468.18 Z" fill="#000000" fill-rule="evenodd" fill-opacity="1" /><path clip-path="url(#clip810)" d="M171.693 1471.26 Q168.082 1471.26 166.253 1474.83 Q164.448 1478.37 164.448 1485.5 Q164.448 1492.6 166.253 1496.17 Q168.082 1499.71 171.693 1499.71 Q175.327 1499.71 177.133 1496.17 Q178.961 1492.6 178.961 1485.5 Q178.961 1478.37 177.133 1474.83 Q175.327 1471.26 171.693 1471.26 M171.693 1467.56 Q177.503 1467.56 180.559 1472.16 Q183.637 1476.75 183.637 1485.5 Q183.637 1494.22 180.559 1498.83 Q177.503 1503.41 171.693 1503.41 Q165.883 1503.41 162.804 1498.83 Q159.749 1494.22 159.749 1485.5 Q159.749 1476.75 162.804 1472.16 Q165.883 1467.56 171.693 1467.56 Z" fill="#000000" fill-rule="evenodd" fill-opacity="1" /><path clip-path="url(#clip810)" d="M201.855 1471.26 Q198.244 1471.26 196.415 1474.83 Q194.61 1478.37 194.61 1485.5 Q194.61 1492.6 196.415 1496.17 Q198.244 1499.71 201.855 1499.71 Q205.489 1499.71 207.295 1496.17 Q209.123 1492.6 209.123 1485.5 Q209.123 1478.37 207.295 1474.83 Q205.489 1471.26 201.855 1471.26 M201.855 1467.56 Q207.665 1467.56 210.721 1472.16 Q213.799 1476.75 213.799 1485.5 Q213.799 1494.22 210.721 1498.83 Q207.665 1503.41 201.855 1503.41 Q196.045 1503.41 192.966 1498.83 Q189.91 1494.22 189.91 1485.5 Q189.91 1476.75 192.966 1472.16 Q196.045 1467.56 201.855 1467.56 Z" fill="#000000" fill-rule="evenodd" fill-opacity="1" /><path clip-path="url(#clip810)" d="M102.179 820.486 L109.818 820.486 L109.818 794.12 L101.508 795.787 L101.508 791.528 L109.772 789.861 L114.448 789.861 L114.448 820.486 L122.087 820.486 L122.087 824.421 L102.179 824.421 L102.179 820.486 Z" fill="#000000" fill-rule="evenodd" fill-opacity="1" /><path clip-path="url(#clip810)" d="M141.531 792.94 Q137.92 792.94 136.091 796.504 Q134.286 800.046 134.286 807.176 Q134.286 814.282 136.091 817.847 Q137.92 821.389 141.531 821.389 Q145.165 821.389 146.971 817.847 Q148.8 814.282 148.8 807.176 Q148.8 800.046 146.971 796.504 Q145.165 792.94 141.531 792.94 M141.531 789.236 Q147.341 789.236 150.397 793.842 Q153.475 798.426 153.475 807.176 Q153.475 815.902 150.397 820.509 Q147.341 825.092 141.531 825.092 Q135.721 825.092 132.642 820.509 Q129.587 815.902 129.587 807.176 Q129.587 798.426 132.642 793.842 Q135.721 789.236 141.531 789.236 Z" fill="#000000" fill-rule="evenodd" fill-opacity="1" /><path clip-path="url(#clip810)" d="M171.693 792.94 Q168.082 792.94 166.253 796.504 Q164.448 800.046 164.448 807.176 Q164.448 814.282 166.253 817.847 Q168.082 821.389 171.693 821.389 Q175.327 821.389 177.133 817.847 Q178.961 814.282 178.961 807.176 Q178.961 800.046 177.133 796.504 Q175.327 792.94 171.693 792.94 M171.693 789.236 Q177.503 789.236 180.559 793.842 Q183.637 798.426 183.637 807.176 Q183.637 815.902 180.559 820.509 Q177.503 825.092 171.693 825.092 Q165.883 825.092 162.804 820.509 Q159.749 815.902 159.749 807.176 Q159.749 798.426 162.804 793.842 Q165.883 789.236 171.693 789.236 Z" fill="#000000" fill-rule="evenodd" fill-opacity="1" /><path clip-path="url(#clip810)" d="M201.855 792.94 Q198.244 792.94 196.415 796.504 Q194.61 800.046 194.61 807.176 Q194.61 814.282 196.415 817.847 Q198.244 821.389 201.855 821.389 Q205.489 821.389 207.295 817.847 Q209.123 814.282 209.123 807.176 Q209.123 800.046 207.295 796.504 Q205.489 792.94 201.855 792.94 M201.855 789.236 Q207.665 789.236 210.721 793.842 Q213.799 798.426 213.799 807.176 Q213.799 815.902 210.721 820.509 Q207.665 825.092 201.855 825.092 Q196.045 825.092 192.966 820.509 Q189.91 815.902 189.91 807.176 Q189.91 798.426 192.966 793.842 Q196.045 789.236 201.855 789.236 Z" fill="#000000" fill-rule="evenodd" fill-opacity="1" /><path clip-path="url(#clip810)" d="M102.179 142.164 L109.818 142.164 L109.818 115.798 L101.508 117.465 L101.508 113.206 L109.772 111.539 L114.448 111.539 L114.448 142.164 L122.087 142.164 L122.087 146.099 L102.179 146.099 L102.179 142.164 Z" fill="#000000" fill-rule="evenodd" fill-opacity="1" /><path clip-path="url(#clip810)" d="M131.577 111.539 L149.934 111.539 L149.934 115.474 L135.86 115.474 L135.86 123.946 Q136.878 123.599 137.897 123.437 Q138.915 123.252 139.934 123.252 Q145.721 123.252 149.1 126.423 Q152.48 129.594 152.48 135.011 Q152.48 140.59 149.008 143.691 Q145.536 146.77 139.216 146.77 Q137.04 146.77 134.772 146.4 Q132.527 146.029 130.119 145.289 L130.119 140.59 Q132.202 141.724 134.425 142.279 Q136.647 142.835 139.124 142.835 Q143.128 142.835 145.466 140.729 Q147.804 138.622 147.804 135.011 Q147.804 131.4 145.466 129.293 Q143.128 127.187 139.124 127.187 Q137.249 127.187 135.374 127.604 Q133.522 128.02 131.577 128.9 L131.577 111.539 Z" fill="#000000" fill-rule="evenodd" fill-opacity="1" /><path clip-path="url(#clip810)" d="M171.693 114.618 Q168.082 114.618 166.253 118.182 Q164.448 121.724 164.448 128.854 Q164.448 135.96 166.253 139.525 Q168.082 143.066 171.693 143.066 Q175.327 143.066 177.133 139.525 Q178.961 135.96 178.961 128.854 Q178.961 121.724 177.133 118.182 Q175.327 114.618 171.693 114.618 M171.693 110.914 Q177.503 110.914 180.559 115.52 Q183.637 120.104 183.637 128.854 Q183.637 137.58 180.559 142.187 Q177.503 146.77 171.693 146.77 Q165.883 146.77 162.804 142.187 Q159.749 137.58 159.749 128.854 Q159.749 120.104 162.804 115.52 Q165.883 110.914 171.693 110.914 Z" fill="#000000" fill-rule="evenodd" fill-opacity="1" /><path clip-path="url(#clip810)" d="M201.855 114.618 Q198.244 114.618 196.415 118.182 Q194.61 121.724 194.61 128.854 Q194.61 135.96 196.415 139.525 Q198.244 143.066 201.855 143.066 Q205.489 143.066 207.295 139.525 Q209.123 135.96 209.123 128.854 Q209.123 121.724 207.295 118.182 Q205.489 114.618 201.855 114.618 M201.855 110.914 Q207.665 110.914 210.721 115.52 Q213.799 120.104 213.799 128.854 Q213.799 137.58 210.721 142.187 Q207.665 146.77 201.855 146.77 Q196.045 146.77 192.966 142.187 Q189.91 137.58 189.91 128.854 Q189.91 120.104 192.966 115.52 Q196.045 110.914 201.855 110.914 Z" fill="#000000" fill-rule="evenodd" fill-opacity="1" /><path clip-path="url(#clip810)" d="M-20.2678 1534.57 L-20.2678 1525.91 L19.486 1504.84 L-20.2678 1504.84 L-20.2678 1498.61 L27.2522 1498.61 L27.2522 1507.26 L-12.5017 1528.33 L27.2522 1528.33 L27.2522 1534.57 L-20.2678 1534.57 Z" fill="#000000" fill-rule="evenodd" fill-opacity="1" /><path clip-path="url(#clip810)" d="M7.96407 1455.57 L10.8286 1455.57 L10.8286 1482.5 Q16.8761 1482.12 20.0589 1478.87 Q23.2099 1475.59 23.2099 1469.77 Q23.2099 1466.4 22.3824 1463.24 Q21.5549 1460.06 19.8998 1456.94 L25.4379 1456.94 Q26.7747 1460.09 27.475 1463.4 Q28.1752 1466.71 28.1752 1470.12 Q28.1752 1478.65 23.2099 1483.65 Q18.2447 1488.61 9.77829 1488.61 Q1.02545 1488.61 -4.09895 1483.9 Q-9.25517 1479.16 -9.25517 1471.14 Q-9.25517 1463.94 -4.6082 1459.78 Q0.0069331 1455.57 7.96407 1455.57 M6.24533 1461.43 Q1.43922 1461.49 -1.42535 1464.14 Q-4.28992 1466.75 -4.28992 1471.07 Q-4.28992 1475.98 -1.52084 1478.94 Q1.24825 1481.86 6.27715 1482.31 L6.24533 1461.43 Z" fill="#000000" fill-rule="evenodd" fill-opacity="1" /><path clip-path="url(#clip810)" d="M-8.3958 1449.37 L-8.3958 1443.51 L19.4223 1436.19 L-8.3958 1428.9 L-8.3958 1421.99 L19.4223 1414.67 L-8.3958 1407.39 L-8.3958 1401.53 L27.2522 1410.85 L27.2522 1417.76 L-1.96644 1425.43 L27.2522 1433.13 L27.2522 1440.04 L-8.3958 1449.37 Z" fill="#000000" fill-rule="evenodd" fill-opacity="1" /><path clip-path="url(#clip810)" d="M9.46001 1346.34 Q2.99882 1346.34 -0.661466 1349.01 Q-4.35358 1351.65 -4.35358 1356.3 Q-4.35358 1360.95 -0.661466 1363.62 Q2.99882 1366.26 9.46001 1366.26 Q15.9212 1366.26 19.6133 1363.62 Q23.2736 1360.95 23.2736 1356.3 Q23.2736 1351.65 19.6133 1349.01 Q15.9212 1346.34 9.46001 1346.34 M-2.98495 1366.26 Q-6.1678 1364.42 -7.69557 1361.62 Q-9.25517 1358.78 -9.25517 1354.87 Q-9.25517 1348.38 -4.09895 1344.33 Q1.05727 1340.26 9.46001 1340.26 Q17.8627 1340.26 23.019 1344.33 Q28.1752 1348.38 28.1752 1354.87 Q28.1752 1358.78 26.6474 1361.62 Q25.0878 1364.42 21.905 1366.26 L27.2522 1366.26 L27.2522 1372.15 L-22.273 1372.15 L-22.273 1366.26 L-2.98495 1366.26 Z" fill="#000000" fill-rule="evenodd" fill-opacity="1" /><path clip-path="url(#clip810)" d="M-8.3958 1330.55 L-8.3958 1324.69 L27.2522 1324.69 L27.2522 1330.55 L-8.3958 1330.55 M-22.273 1330.55 L-22.273 1324.69 L-14.857 1324.69 L-14.857 1330.55 L-22.273 1330.55 Z" fill="#000000" fill-rule="evenodd" fill-opacity="1" /><path clip-path="url(#clip810)" d="M-22.273 1312.66 L-22.273 1306.78 L6.97738 1306.78 L-8.3958 1289.3 L-8.3958 1281.82 L8.28235 1300.73 L27.2522 1281.03 L27.2522 1288.66 L9.84195 1306.78 L27.2522 1306.78 L27.2522 1312.66 L-22.273 1312.66 Z" fill="#000000" fill-rule="evenodd" fill-opacity="1" /><path clip-path="url(#clip810)" d="M7.96407 1246.52 L10.8286 1246.52 L10.8286 1273.45 Q16.8761 1273.07 20.0589 1269.82 Q23.2099 1266.54 23.2099 1260.72 Q23.2099 1257.35 22.3824 1254.19 Q21.5549 1251.01 19.8998 1247.89 L25.4379 1247.89 Q26.7747 1251.04 27.475 1254.35 Q28.1752 1257.66 28.1752 1261.07 Q28.1752 1269.6 23.2099 1274.6 Q18.2447 1279.56 9.77829 1279.56 Q1.02545 1279.56 -4.09895 1274.85 Q-9.25517 1270.11 -9.25517 1262.09 Q-9.25517 1254.89 -4.6082 1250.73 Q0.0069331 1246.52 7.96407 1246.52 M6.24533 1252.38 Q1.43922 1252.44 -1.42535 1255.09 Q-4.28992 1257.7 -4.28992 1262.02 Q-4.28992 1266.93 -1.52084 1269.89 Q1.24825 1272.81 6.27715 1273.26 L6.24533 1252.38 Z" fill="#000000" fill-rule="evenodd" fill-opacity="1" /><path clip-path="url(#clip810)" d="M-7.34546 1193.47 L-1.80729 1193.47 Q-3.08043 1195.95 -3.71701 1198.62 Q-4.35358 1201.3 -4.35358 1204.16 Q-4.35358 1208.52 -3.01678 1210.72 Q-1.67998 1212.88 0.993618 1212.88 Q3.03064 1212.88 4.2083 1211.32 Q5.35413 1209.76 6.40447 1205.05 L6.85007 1203.05 Q8.18687 1196.81 10.6377 1194.2 Q13.0566 1191.56 17.4171 1191.56 Q22.3824 1191.56 25.2788 1195.5 Q28.1752 1199.42 28.1752 1206.29 Q28.1752 1209.16 27.6023 1212.28 Q27.0612 1215.36 25.9472 1218.8 L19.8998 1218.8 Q21.5867 1215.55 22.446 1212.4 Q23.2736 1209.25 23.2736 1206.17 Q23.2736 1202.03 21.8731 1199.8 Q20.4409 1197.57 17.8627 1197.57 Q15.4756 1197.57 14.2025 1199.19 Q12.9293 1200.79 11.7517 1206.23 L11.2742 1208.27 Q10.1284 1213.71 7.7731 1216.13 Q5.38596 1218.55 1.24825 1218.55 Q-3.78066 1218.55 -6.51792 1214.98 Q-9.25517 1211.42 -9.25517 1204.86 Q-9.25517 1201.61 -8.77774 1198.75 Q-8.30031 1195.88 -7.34546 1193.47 Z" fill="#000000" fill-rule="evenodd" fill-opacity="1" /><path clip-path="url(#clip810)" d="M5.73607 1152.6 L27.2522 1152.6 L27.2522 1158.45 L5.92704 1158.45 Q0.866303 1158.45 -1.64815 1160.43 Q-4.1626 1162.4 -4.1626 1166.35 Q-4.1626 1171.09 -1.13889 1173.83 Q1.88482 1176.56 7.1047 1176.56 L27.2522 1176.56 L27.2522 1182.45 L-22.273 1182.45 L-22.273 1176.56 L-2.85763 1176.56 Q-6.07232 1174.46 -7.66374 1171.63 Q-9.25517 1168.77 -9.25517 1165.04 Q-9.25517 1158.9 -5.43575 1155.75 Q-1.64815 1152.6 5.73607 1152.6 Z" fill="#000000" fill-rule="evenodd" fill-opacity="1" /><path clip-path="url(#clip810)" d="M9.33269 1124.72 Q9.33269 1131.81 10.9559 1134.55 Q12.5792 1137.29 16.4941 1137.29 Q19.6133 1137.29 21.4594 1135.25 Q23.2736 1133.18 23.2736 1129.65 Q23.2736 1124.78 19.8361 1121.85 Q16.3668 1118.89 10.6377 1118.89 L9.33269 1118.89 L9.33269 1124.72 M6.91372 1113.04 L27.2522 1113.04 L27.2522 1118.89 L21.8413 1118.89 Q25.0878 1120.9 26.6474 1123.89 Q28.1752 1126.88 28.1752 1131.21 Q28.1752 1136.68 25.1196 1139.93 Q22.0323 1143.14 16.8761 1143.14 Q10.8605 1143.14 7.80492 1139.13 Q4.74938 1135.09 4.74938 1127.1 L4.74938 1118.89 L4.17647 1118.89 Q0.134247 1118.89 -2.06192 1121.57 Q-4.28992 1124.21 -4.28992 1129.01 Q-4.28992 1132.07 -3.55786 1134.96 Q-2.82581 1137.86 -1.36169 1140.53 L-6.77254 1140.53 Q-8.01386 1137.32 -8.6186 1134.3 Q-9.25517 1131.27 -9.25517 1128.41 Q-9.25517 1120.67 -5.24477 1116.85 Q-1.23438 1113.04 6.91372 1113.04 Z" fill="#000000" fill-rule="evenodd" fill-opacity="1" /><path clip-path="url(#clip810)" d="M-2.92129 1080.32 Q-3.49421 1081.3 -3.74883 1082.48 Q-4.03529 1083.63 -4.03529 1085.03 Q-4.03529 1089.99 -0.78878 1092.66 Q2.4259 1095.31 8.47332 1095.31 L27.2522 1095.31 L27.2522 1101.19 L-8.3958 1101.19 L-8.3958 1095.31 L-2.85763 1095.31 Q-6.10415 1093.46 -7.66374 1090.5 Q-9.25517 1087.54 -9.25517 1083.31 Q-9.25517 1082.7 -9.15968 1081.97 Q-9.09603 1081.24 -8.93688 1080.35 L-2.92129 1080.32 Z" fill="#000000" fill-rule="evenodd" fill-opacity="1" /><path clip-path="url(#clip810)" d="M7.96407 1045.11 L10.8286 1045.11 L10.8286 1072.04 Q16.8761 1071.66 20.0589 1068.41 Q23.2099 1065.13 23.2099 1059.31 Q23.2099 1055.93 22.3824 1052.78 Q21.5549 1049.6 19.8998 1046.48 L25.4379 1046.48 Q26.7747 1049.63 27.475 1052.94 Q28.1752 1056.25 28.1752 1059.66 Q28.1752 1068.19 23.2099 1073.19 Q18.2447 1078.15 9.77829 1078.15 Q1.02545 1078.15 -4.09895 1073.44 Q-9.25517 1068.7 -9.25517 1060.68 Q-9.25517 1053.48 -4.6082 1049.31 Q0.0069331 1045.11 7.96407 1045.11 M6.24533 1050.97 Q1.43922 1051.03 -1.42535 1053.67 Q-4.28992 1056.28 -4.28992 1060.61 Q-4.28992 1065.52 -1.52084 1068.48 Q1.24825 1071.4 6.27715 1071.85 L6.24533 1050.97 Z" fill="#000000" fill-rule="evenodd" fill-opacity="1" /><path clip-path="url(#clip810)" d="M-7.02717 989.127 L-1.55267 989.127 Q-2.92129 991.609 -3.58969 994.124 Q-4.28992 996.606 -4.28992 999.153 Q-4.28992 1004.85 -0.661466 1008 Q2.93516 1011.15 9.46001 1011.15 Q15.9849 1011.15 19.6133 1008 Q23.2099 1004.85 23.2099 999.153 Q23.2099 996.606 22.5415 994.124 Q21.8413 991.609 20.4727 989.127 L25.8835 989.127 Q27.0294 991.577 27.6023 994.219 Q28.1752 996.829 28.1752 999.789 Q28.1752 1007.84 23.1144 1012.58 Q18.0537 1017.33 9.46001 1017.33 Q0.738989 1017.33 -4.25809 1012.55 Q-9.25517 1007.75 -9.25517 999.407 Q-9.25517 996.702 -8.68226 994.124 Q-8.14117 991.546 -7.02717 989.127 Z" fill="#000000" fill-rule="evenodd" fill-opacity="1" /><path clip-path="url(#clip810)" d="M-4.28992 965.128 Q-4.28992 969.838 -0.597809 972.576 Q3.06247 975.313 9.46001 975.313 Q15.8575 975.313 19.5497 972.608 Q23.2099 969.87 23.2099 965.128 Q23.2099 960.449 19.5178 957.712 Q15.8257 954.975 9.46001 954.975 Q3.12613 954.975 -0.56598 957.712 Q-4.28992 960.449 -4.28992 965.128 M-9.25517 965.128 Q-9.25517 957.489 -4.28992 953.129 Q0.675332 948.768 9.46001 948.768 Q18.2129 948.768 23.2099 953.129 Q28.1752 957.489 28.1752 965.128 Q28.1752 972.799 23.2099 977.159 Q18.2129 981.488 9.46001 981.488 Q0.675332 981.488 -4.28992 977.159 Q-9.25517 972.799 -9.25517 965.128 Z" fill="#000000" fill-rule="evenodd" fill-opacity="1" /><path clip-path="url(#clip810)" d="M13.1839 939.665 L-8.3958 939.665 L-8.3958 933.809 L12.9611 933.809 Q18.0219 933.809 20.5682 931.835 Q23.0826 929.862 23.0826 925.915 Q23.0826 921.173 20.0589 918.435 Q17.0352 915.666 11.8153 915.666 L-8.3958 915.666 L-8.3958 909.81 L27.2522 909.81 L27.2522 915.666 L21.7776 915.666 Q25.0242 917.799 26.6156 920.632 Q28.1752 923.432 28.1752 927.156 Q28.1752 933.299 24.3558 936.482 Q20.5363 939.665 13.1839 939.665 M-9.25517 924.928 L-9.25517 924.928 Z" fill="#000000" fill-rule="evenodd" fill-opacity="1" /><path clip-path="url(#clip810)" d="M5.73607 868.114 L27.2522 868.114 L27.2522 873.971 L5.92704 873.971 Q0.866303 873.971 -1.64815 875.944 Q-4.1626 877.918 -4.1626 881.864 Q-4.1626 886.607 -1.13889 889.344 Q1.88482 892.081 7.1047 892.081 L27.2522 892.081 L27.2522 897.97 L-8.3958 897.97 L-8.3958 892.081 L-2.85763 892.081 Q-6.07232 889.981 -7.66374 887.148 Q-9.25517 884.283 -9.25517 880.559 Q-9.25517 874.417 -5.43575 871.266 Q-1.64815 868.114 5.73607 868.114 Z" fill="#000000" fill-rule="evenodd" fill-opacity="1" /><path clip-path="url(#clip810)" d="M-18.5173 850.641 L-8.3958 850.641 L-8.3958 838.578 L-3.84432 838.578 L-3.84432 850.641 L15.5074 850.641 Q19.8679 850.641 21.1093 849.463 Q22.3506 848.253 22.3506 844.593 L22.3506 838.578 L27.2522 838.578 L27.2522 844.593 Q27.2522 851.373 24.7377 853.951 Q22.1914 856.529 15.5074 856.529 L-3.84432 856.529 L-3.84432 860.826 L-8.3958 860.826 L-8.3958 856.529 L-18.5173 856.529 L-18.5173 850.641 Z" fill="#000000" fill-rule="evenodd" fill-opacity="1" /><path clip-path="url(#clip810)" d="M-7.34546 808.15 L-1.80729 808.15 Q-3.08043 810.632 -3.71701 813.306 Q-4.35358 815.979 -4.35358 818.844 Q-4.35358 823.204 -3.01678 825.401 Q-1.67998 827.565 0.993618 827.565 Q3.03064 827.565 4.2083 826.005 Q5.35413 824.446 6.40447 819.735 L6.85007 817.73 Q8.18687 811.492 10.6377 808.882 Q13.0566 806.24 17.4171 806.24 Q22.3824 806.24 25.2788 810.187 Q28.1752 814.101 28.1752 820.976 Q28.1752 823.841 27.6023 826.96 Q27.0612 830.048 25.9472 833.485 L19.8998 833.485 Q21.5867 830.239 22.446 827.088 Q23.2736 823.936 23.2736 820.849 Q23.2736 816.711 21.8731 814.483 Q20.4409 812.255 17.8627 812.255 Q15.4756 812.255 14.2025 813.879 Q12.9293 815.47 11.7517 820.913 L11.2742 822.95 Q10.1284 828.392 7.7731 830.811 Q5.38596 833.23 1.24825 833.23 Q-3.78066 833.23 -6.51792 829.666 Q-9.25517 826.101 -9.25517 819.544 Q-9.25517 816.298 -8.77774 813.433 Q-8.30031 810.569 -7.34546 808.15 Z" fill="#000000" fill-rule="evenodd" fill-opacity="1" /><path clip-path="url(#clip810)" d="M1213.37 18.8205 L1213.37 65.8515 L1223.25 65.8515 Q1235.77 65.8515 1241.56 60.1802 Q1247.4 54.509 1247.4 42.2752 Q1247.4 30.1225 1241.56 24.4918 Q1235.77 18.8205 1223.25 18.8205 L1213.37 18.8205 M1205.19 12.096 L1222 12.096 Q1239.58 12.096 1247.8 19.4281 Q1256.03 26.7198 1256.03 42.2752 Q1256.03 57.9117 1247.76 65.2439 Q1239.5 72.576 1222 72.576 L1205.19 72.576 L1205.19 12.096 Z" fill="#000000" fill-rule="evenodd" fill-opacity="1" /><path clip-path="url(#clip810)" d="M1268.75 27.2059 L1276.2 27.2059 L1276.2 72.576 L1268.75 72.576 L1268.75 27.2059 M1268.75 9.54393 L1276.2 9.54393 L1276.2 18.9825 L1268.75 18.9825 L1268.75 9.54393 Z" fill="#000000" fill-rule="evenodd" fill-opacity="1" /><path clip-path="url(#clip810)" d="M1320.72 28.5427 L1320.72 35.5912 Q1317.56 33.9709 1314.16 33.1607 Q1310.75 32.3505 1307.11 32.3505 Q1301.56 32.3505 1298.76 34.0519 Q1296.01 35.7533 1296.01 39.156 Q1296.01 41.7486 1297.99 43.2475 Q1299.98 44.7058 1305.97 46.0426 L1308.52 46.6097 Q1316.46 48.3111 1319.79 51.4303 Q1323.15 54.509 1323.15 60.0587 Q1323.15 66.3781 1318.13 70.0644 Q1313.14 73.7508 1304.39 73.7508 Q1300.75 73.7508 1296.78 73.0216 Q1292.85 72.3329 1288.47 70.9151 L1288.47 63.2184 Q1292.6 65.3654 1296.62 66.4591 Q1300.63 67.5124 1304.56 67.5124 Q1309.82 67.5124 1312.66 65.73 Q1315.49 63.9071 1315.49 60.6258 Q1315.49 57.5877 1313.43 55.9673 Q1311.4 54.3469 1304.47 52.8481 L1301.88 52.2405 Q1294.95 50.7821 1291.88 47.7845 Q1288.8 44.7463 1288.8 39.4801 Q1288.8 33.0797 1293.33 29.5959 Q1297.87 26.1121 1306.22 26.1121 Q1310.35 26.1121 1313.99 26.7198 Q1317.64 27.3274 1320.72 28.5427 Z" fill="#000000" fill-rule="evenodd" fill-opacity="1" /><path clip-path="url(#clip810)" d="M1342.39 14.324 L1342.39 27.2059 L1357.74 27.2059 L1357.74 32.9987 L1342.39 32.9987 L1342.39 57.6282 Q1342.39 63.1779 1343.89 64.7578 Q1345.43 66.3376 1350.09 66.3376 L1357.74 66.3376 L1357.74 72.576 L1350.09 72.576 Q1341.46 72.576 1338.18 69.3758 Q1334.9 66.1351 1334.9 57.6282 L1334.9 32.9987 L1329.43 32.9987 L1329.43 27.2059 L1334.9 27.2059 L1334.9 14.324 L1342.39 14.324 Z" fill="#000000" fill-rule="evenodd" fill-opacity="1" /><path clip-path="url(#clip810)" d="M1393.84 34.1734 Q1392.58 33.4443 1391.08 33.1202 Q1389.62 32.7556 1387.84 32.7556 Q1381.52 32.7556 1378.12 36.8875 Q1374.76 40.9789 1374.76 48.6757 L1374.76 72.576 L1367.26 72.576 L1367.26 27.2059 L1374.76 27.2059 L1374.76 34.2544 Q1377.11 30.1225 1380.87 28.1376 Q1384.64 26.1121 1390.03 26.1121 Q1390.8 26.1121 1391.73 26.2337 Q1392.66 26.3147 1393.8 26.5172 L1393.84 34.1734 Z" fill="#000000" fill-rule="evenodd" fill-opacity="1" /><path clip-path="url(#clip810)" d="M1401.66 27.2059 L1409.11 27.2059 L1409.11 72.576 L1401.66 72.576 L1401.66 27.2059 M1401.66 9.54393 L1409.11 9.54393 L1409.11 18.9825 L1401.66 18.9825 L1401.66 9.54393 Z" fill="#000000" fill-rule="evenodd" fill-opacity="1" /><path clip-path="url(#clip810)" d="M1457.27 49.9314 Q1457.27 41.7081 1453.87 37.0496 Q1450.51 32.3505 1444.59 32.3505 Q1438.68 32.3505 1435.28 37.0496 Q1431.92 41.7081 1431.92 49.9314 Q1431.92 58.1548 1435.28 62.8538 Q1438.68 67.5124 1444.59 67.5124 Q1450.51 67.5124 1453.87 62.8538 Q1457.27 58.1548 1457.27 49.9314 M1431.92 34.0924 Q1434.26 30.0415 1437.83 28.0971 Q1441.44 26.1121 1446.42 26.1121 Q1454.68 26.1121 1459.83 32.6746 Q1465.01 39.2371 1465.01 49.9314 Q1465.01 60.6258 1459.83 67.1883 Q1454.68 73.7508 1446.42 73.7508 Q1441.44 73.7508 1437.83 71.8063 Q1434.26 69.8214 1431.92 65.7705 L1431.92 72.576 L1424.42 72.576 L1424.42 9.54393 L1431.92 9.54393 L1431.92 34.0924 Z" fill="#000000" fill-rule="evenodd" fill-opacity="1" /><path clip-path="url(#clip810)" d="M1476.6 54.671 L1476.6 27.2059 L1484.05 27.2059 L1484.05 54.3874 Q1484.05 60.8284 1486.56 64.0691 Q1489.07 67.2693 1494.1 67.2693 Q1500.13 67.2693 1503.62 63.421 Q1507.14 59.5726 1507.14 52.9291 L1507.14 27.2059 L1514.59 27.2059 L1514.59 72.576 L1507.14 72.576 L1507.14 65.6084 Q1504.43 69.7404 1500.82 71.7658 Q1497.26 73.7508 1492.52 73.7508 Q1484.7 73.7508 1480.65 68.8897 Q1476.6 64.0286 1476.6 54.671 M1495.35 26.1121 L1495.35 26.1121 Z" fill="#000000" fill-rule="evenodd" fill-opacity="1" /><path clip-path="url(#clip810)" d="M1537.32 14.324 L1537.32 27.2059 L1552.67 27.2059 L1552.67 32.9987 L1537.32 32.9987 L1537.32 57.6282 Q1537.32 63.1779 1538.82 64.7578 Q1540.36 66.3376 1545.02 66.3376 L1552.67 66.3376 L1552.67 72.576 L1545.02 72.576 Q1536.39 72.576 1533.11 69.3758 Q1529.83 66.1351 1529.83 57.6282 L1529.83 32.9987 L1524.36 32.9987 L1524.36 27.2059 L1529.83 27.2059 L1529.83 14.324 L1537.32 14.324 Z" fill="#000000" fill-rule="evenodd" fill-opacity="1" /><path clip-path="url(#clip810)" d="M1562.48 27.2059 L1569.93 27.2059 L1569.93 72.576 L1562.48 72.576 L1562.48 27.2059 M1562.48 9.54393 L1569.93 9.54393 L1569.93 18.9825 L1562.48 18.9825 L1562.48 9.54393 Z" fill="#000000" fill-rule="evenodd" fill-opacity="1" /><path clip-path="url(#clip810)" d="M1603.11 32.4315 Q1597.11 32.4315 1593.63 37.1306 Q1590.14 41.7891 1590.14 49.9314 Q1590.14 58.0738 1593.59 62.7728 Q1597.07 67.4314 1603.11 67.4314 Q1609.06 67.4314 1612.55 62.7323 Q1616.03 58.0333 1616.03 49.9314 Q1616.03 41.8701 1612.55 37.1711 Q1609.06 32.4315 1603.11 32.4315 M1603.11 26.1121 Q1612.83 26.1121 1618.38 32.4315 Q1623.93 38.7509 1623.93 49.9314 Q1623.93 61.0714 1618.38 67.4314 Q1612.83 73.7508 1603.11 73.7508 Q1593.34 73.7508 1587.79 67.4314 Q1582.29 61.0714 1582.29 49.9314 Q1582.29 38.7509 1587.79 32.4315 Q1593.34 26.1121 1603.11 26.1121 Z" fill="#000000" fill-rule="evenodd" fill-opacity="1" /><path clip-path="url(#clip810)" d="M1674 45.1919 L1674 72.576 L1666.54 72.576 L1666.54 45.4349 Q1666.54 38.994 1664.03 35.7938 Q1661.52 32.5936 1656.5 32.5936 Q1650.46 32.5936 1646.98 36.4419 Q1643.49 40.2903 1643.49 46.9338 L1643.49 72.576 L1636 72.576 L1636 27.2059 L1643.49 27.2059 L1643.49 34.2544 Q1646.17 30.163 1649.77 28.1376 Q1653.42 26.1121 1658.16 26.1121 Q1665.98 26.1121 1669.99 30.9732 Q1674 35.7938 1674 45.1919 Z" fill="#000000" fill-rule="evenodd" fill-opacity="1" /><path clip-path="url(#clip810)" d="M1732.82 32.4315 Q1726.82 32.4315 1723.34 37.1306 Q1719.85 41.7891 1719.85 49.9314 Q1719.85 58.0738 1723.3 62.7728 Q1726.78 67.4314 1732.82 67.4314 Q1738.77 67.4314 1742.26 62.7323 Q1745.74 58.0333 1745.74 49.9314 Q1745.74 41.8701 1742.26 37.1711 Q1738.77 32.4315 1732.82 32.4315 M1732.82 26.1121 Q1742.54 26.1121 1748.09 32.4315 Q1753.64 38.7509 1753.64 49.9314 Q1753.64 61.0714 1748.09 67.4314 Q1742.54 73.7508 1732.82 73.7508 Q1723.05 73.7508 1717.5 67.4314 Q1711.99 61.0714 1711.99 49.9314 Q1711.99 38.7509 1717.5 32.4315 Q1723.05 26.1121 1732.82 26.1121 Z" fill="#000000" fill-rule="evenodd" fill-opacity="1" /><path clip-path="url(#clip810)" d="M1788.96 9.54393 L1788.96 15.7418 L1781.83 15.7418 Q1777.82 15.7418 1776.24 17.3622 Q1774.7 18.9825 1774.7 23.1955 L1774.7 27.2059 L1786.98 27.2059 L1786.98 32.9987 L1774.7 32.9987 L1774.7 72.576 L1767.21 72.576 L1767.21 32.9987 L1760.08 32.9987 L1760.08 27.2059 L1767.21 27.2059 L1767.21 24.0462 Q1767.21 16.471 1770.73 13.0277 Q1774.26 9.54393 1781.91 9.54393 L1788.96 9.54393 Z" fill="#000000" fill-rule="evenodd" fill-opacity="1" /><path clip-path="url(#clip810)" d="M1859.29 45.1919 L1859.29 72.576 L1851.83 72.576 L1851.83 45.4349 Q1851.83 38.994 1849.32 35.7938 Q1846.81 32.5936 1841.79 32.5936 Q1835.75 32.5936 1832.27 36.4419 Q1828.78 40.2903 1828.78 46.9338 L1828.78 72.576 L1821.29 72.576 L1821.29 27.2059 L1828.78 27.2059 L1828.78 34.2544 Q1831.46 30.163 1835.06 28.1376 Q1838.71 26.1121 1843.45 26.1121 Q1851.27 26.1121 1855.28 30.9732 Q1859.29 35.7938 1859.29 45.1919 Z" fill="#000000" fill-rule="evenodd" fill-opacity="1" /><path clip-path="url(#clip810)" d="M1912.96 48.0275 L1912.96 51.6733 L1878.69 51.6733 Q1879.18 59.3701 1883.31 63.421 Q1887.48 67.4314 1894.89 67.4314 Q1899.19 67.4314 1903.2 66.3781 Q1907.25 65.3249 1911.22 63.2184 L1911.22 70.267 Q1907.21 71.9684 1903 72.8596 Q1898.78 73.7508 1894.45 73.7508 Q1883.59 73.7508 1877.23 67.4314 Q1870.91 61.1119 1870.91 50.3365 Q1870.91 39.1965 1876.91 32.6746 Q1882.94 26.1121 1893.15 26.1121 Q1902.31 26.1121 1907.61 32.0264 Q1912.96 37.9003 1912.96 48.0275 M1905.51 45.84 Q1905.43 39.7232 1902.06 36.0774 Q1898.74 32.4315 1893.23 32.4315 Q1886.99 32.4315 1883.23 35.9558 Q1879.5 39.4801 1878.93 45.8805 L1905.51 45.84 Z" fill="#000000" fill-rule="evenodd" fill-opacity="1" /><path clip-path="url(#clip810)" d="M1920.86 27.2059 L1928.31 27.2059 L1937.63 62.6108 L1946.91 27.2059 L1955.7 27.2059 L1965.01 62.6108 L1974.29 27.2059 L1981.74 27.2059 L1969.88 72.576 L1961.09 72.576 L1951.32 35.3887 L1941.52 72.576 L1932.73 72.576 L1920.86 27.2059 Z" fill="#000000" fill-rule="evenodd" fill-opacity="1" /><path clip-path="url(#clip810)" d="M2051.99 49.9314 Q2051.99 41.7081 2048.58 37.0496 Q2045.22 32.3505 2039.31 32.3505 Q2033.39 32.3505 2029.99 37.0496 Q2026.63 41.7081 2026.63 49.9314 Q2026.63 58.1548 2029.99 62.8538 Q2033.39 67.5124 2039.31 67.5124 Q2045.22 67.5124 2048.58 62.8538 Q2051.99 58.1548 2051.99 49.9314 M2026.63 34.0924 Q2028.98 30.0415 2032.54 28.0971 Q2036.15 26.1121 2041.13 26.1121 Q2049.39 26.1121 2054.54 32.6746 Q2059.72 39.2371 2059.72 49.9314 Q2059.72 60.6258 2054.54 67.1883 Q2049.39 73.7508 2041.13 73.7508 Q2036.15 73.7508 2032.54 71.8063 Q2028.98 69.8214 2026.63 65.7705 L2026.63 72.576 L2019.13 72.576 L2019.13 9.54393 L2026.63 9.54393 L2026.63 34.0924 Z" fill="#000000" fill-rule="evenodd" fill-opacity="1" /><path clip-path="url(#clip810)" d="M2072.08 27.2059 L2079.53 27.2059 L2079.53 72.576 L2072.08 72.576 L2072.08 27.2059 M2072.08 9.54393 L2079.53 9.54393 L2079.53 18.9825 L2072.08 18.9825 L2072.08 9.54393 Z" fill="#000000" fill-rule="evenodd" fill-opacity="1" /><path clip-path="url(#clip810)" d="M2094.85 9.54393 L2102.34 9.54393 L2102.34 46.7717 L2124.58 27.2059 L2134.1 27.2059 L2110.04 48.4326 L2135.11 72.576 L2125.39 72.576 L2102.34 50.4176 L2102.34 72.576 L2094.85 72.576 L2094.85 9.54393 Z" fill="#000000" fill-rule="evenodd" fill-opacity="1" /><path clip-path="url(#clip810)" d="M2179.02 48.0275 L2179.02 51.6733 L2144.75 51.6733 Q2145.24 59.3701 2149.37 63.421 Q2153.54 67.4314 2160.96 67.4314 Q2165.25 67.4314 2169.26 66.3781 Q2173.31 65.3249 2177.28 63.2184 L2177.28 70.267 Q2173.27 71.9684 2169.06 72.8596 Q2164.85 73.7508 2160.51 73.7508 Q2149.65 73.7508 2143.29 67.4314 Q2136.98 61.1119 2136.98 50.3365 Q2136.98 39.1965 2142.97 32.6746 Q2149.01 26.1121 2159.21 26.1121 Q2168.37 26.1121 2173.68 32.0264 Q2179.02 37.9003 2179.02 48.0275 M2171.57 45.84 Q2171.49 39.7232 2168.13 36.0774 Q2164.81 32.4315 2159.3 32.4315 Q2153.06 32.4315 2149.29 35.9558 Q2145.56 39.4801 2145 45.8805 L2171.57 45.84 Z" fill="#000000" fill-rule="evenodd" fill-opacity="1" /><path clip-path="url(#clip810)" d="M2246.55 28.5427 L2246.55 35.5912 Q2243.39 33.9709 2239.99 33.1607 Q2236.59 32.3505 2232.94 32.3505 Q2227.39 32.3505 2224.6 34.0519 Q2221.84 35.7533 2221.84 39.156 Q2221.84 41.7486 2223.83 43.2475 Q2225.81 44.7058 2231.81 46.0426 L2234.36 46.6097 Q2242.3 48.3111 2245.62 51.4303 Q2248.98 54.509 2248.98 60.0587 Q2248.98 66.3781 2243.96 70.0644 Q2238.98 73.7508 2230.23 73.7508 Q2226.58 73.7508 2222.61 73.0216 Q2218.68 72.3329 2214.31 70.9151 L2214.31 63.2184 Q2218.44 65.3654 2222.45 66.4591 Q2226.46 67.5124 2230.39 67.5124 Q2235.66 67.5124 2238.49 65.73 Q2241.33 63.9071 2241.33 60.6258 Q2241.33 57.5877 2239.26 55.9673 Q2237.24 54.3469 2230.31 52.8481 L2227.72 52.2405 Q2220.79 50.7821 2217.71 47.7845 Q2214.63 44.7463 2214.63 39.4801 Q2214.63 33.0797 2219.17 29.5959 Q2223.71 26.1121 2232.05 26.1121 Q2236.18 26.1121 2239.83 26.7198 Q2243.47 27.3274 2246.55 28.5427 Z" fill="#000000" fill-rule="evenodd" fill-opacity="1" /><path clip-path="url(#clip810)" d="M2298.57 45.1919 L2298.57 72.576 L2291.11 72.576 L2291.11 45.4349 Q2291.11 38.994 2288.6 35.7938 Q2286.09 32.5936 2281.07 32.5936 Q2275.03 32.5936 2271.55 36.4419 Q2268.06 40.2903 2268.06 46.9338 L2268.06 72.576 L2260.57 72.576 L2260.57 9.54393 L2268.06 9.54393 L2268.06 34.2544 Q2270.74 30.163 2274.34 28.1376 Q2277.99 26.1121 2282.73 26.1121 Q2290.55 26.1121 2294.56 30.9732 Q2298.57 35.7938 2298.57 45.1919 Z" fill="#000000" fill-rule="evenodd" fill-opacity="1" /><path clip-path="url(#clip810)" d="M2334.05 49.7694 Q2325.02 49.7694 2321.53 51.8354 Q2318.05 53.9013 2318.05 58.8839 Q2318.05 62.8538 2320.64 65.2034 Q2323.28 67.5124 2327.77 67.5124 Q2333.97 67.5124 2337.7 63.1374 Q2341.46 58.7219 2341.46 51.4303 L2341.46 49.7694 L2334.05 49.7694 M2348.92 46.6907 L2348.92 72.576 L2341.46 72.576 L2341.46 65.6895 Q2338.91 69.8214 2335.11 71.8063 Q2331.3 73.7508 2325.79 73.7508 Q2318.82 73.7508 2314.69 69.8619 Q2310.6 65.9325 2310.6 59.3701 Q2310.6 51.7138 2315.7 47.825 Q2320.85 43.9361 2331.01 43.9361 L2341.46 43.9361 L2341.46 43.2069 Q2341.46 38.0623 2338.06 35.2672 Q2334.7 32.4315 2328.58 32.4315 Q2324.69 32.4315 2321.01 33.3632 Q2317.32 34.295 2313.92 36.1584 L2313.92 29.2718 Q2318.01 27.692 2321.86 26.9223 Q2325.71 26.1121 2329.35 26.1121 Q2339.2 26.1121 2344.06 31.2163 Q2348.92 36.3204 2348.92 46.6907 Z" fill="#000000" fill-rule="evenodd" fill-opacity="1" /><path clip-path="url(#clip810)" d="M2390.56 34.1734 Q2389.31 33.4443 2387.81 33.1202 Q2386.35 32.7556 2384.57 32.7556 Q2378.25 32.7556 2374.84 36.8875 Q2371.48 40.9789 2371.48 48.6757 L2371.48 72.576 L2363.99 72.576 L2363.99 27.2059 L2371.48 27.2059 L2371.48 34.2544 Q2373.83 30.1225 2377.6 28.1376 Q2381.37 26.1121 2386.75 26.1121 Q2387.52 26.1121 2388.46 26.2337 Q2389.39 26.3147 2390.52 26.5172 L2390.56 34.1734 Z" fill="#000000" fill-rule="evenodd" fill-opacity="1" /><path clip-path="url(#clip810)" d="M2435.36 48.0275 L2435.36 51.6733 L2401.09 51.6733 Q2401.58 59.3701 2405.71 63.421 Q2409.88 67.4314 2417.3 67.4314 Q2421.59 67.4314 2425.6 66.3781 Q2429.65 65.3249 2433.62 63.2184 L2433.62 70.267 Q2429.61 71.9684 2425.4 72.8596 Q2421.19 73.7508 2416.85 73.7508 Q2406 73.7508 2399.64 67.4314 Q2393.32 61.1119 2393.32 50.3365 Q2393.32 39.1965 2399.31 32.6746 Q2405.35 26.1121 2415.56 26.1121 Q2424.71 26.1121 2430.02 32.0264 Q2435.36 37.9003 2435.36 48.0275 M2427.91 45.84 Q2427.83 39.7232 2424.47 36.0774 Q2421.15 32.4315 2415.64 32.4315 Q2409.4 32.4315 2405.63 35.9558 Q2401.9 39.4801 2401.34 45.8805 L2427.91 45.84 Z" fill="#000000" fill-rule="evenodd" fill-opacity="1" /><path clip-path="url(#clip810)" d="M2476.52 28.5427 L2476.52 35.5912 Q2473.36 33.9709 2469.96 33.1607 Q2466.56 32.3505 2462.91 32.3505 Q2457.36 32.3505 2454.57 34.0519 Q2451.81 35.7533 2451.81 39.156 Q2451.81 41.7486 2453.8 43.2475 Q2455.78 44.7058 2461.78 46.0426 L2464.33 46.6097 Q2472.27 48.3111 2475.59 51.4303 Q2478.95 54.509 2478.95 60.0587 Q2478.95 66.3781 2473.93 70.0644 Q2468.95 73.7508 2460.2 73.7508 Q2456.55 73.7508 2452.58 73.0216 Q2448.65 72.3329 2444.28 70.9151 L2444.28 63.2184 Q2448.41 65.3654 2452.42 66.4591 Q2456.43 67.5124 2460.36 67.5124 Q2465.63 67.5124 2468.46 65.73 Q2471.3 63.9071 2471.3 60.6258 Q2471.3 57.5877 2469.23 55.9673 Q2467.21 54.3469 2460.28 52.8481 L2457.69 52.2405 Q2450.76 50.7821 2447.68 47.7845 Q2444.6 44.7463 2444.6 39.4801 Q2444.6 33.0797 2449.14 29.5959 Q2453.68 26.1121 2462.02 26.1121 Q2466.15 26.1121 2469.8 26.7198 Q2473.44 27.3274 2476.52 28.5427 Z" fill="#000000" fill-rule="evenodd" fill-opacity="1" /><path clip-path="url(#clip810)" d="M2517.19 27.2059 L2524.65 27.2059 L2524.65 72.576 L2517.19 72.576 L2517.19 27.2059 M2517.19 9.54393 L2524.65 9.54393 L2524.65 18.9825 L2517.19 18.9825 L2517.19 9.54393 Z" fill="#000000" fill-rule="evenodd" fill-opacity="1" /><path clip-path="url(#clip810)" d="M2577.96 45.1919 L2577.96 72.576 L2570.5 72.576 L2570.5 45.4349 Q2570.5 38.994 2567.99 35.7938 Q2565.48 32.5936 2560.46 32.5936 Q2554.42 32.5936 2550.94 36.4419 Q2547.45 40.2903 2547.45 46.9338 L2547.45 72.576 L2539.96 72.576 L2539.96 27.2059 L2547.45 27.2059 L2547.45 34.2544 Q2550.13 30.163 2553.73 28.1376 Q2557.38 26.1121 2562.12 26.1121 Q2569.94 26.1121 2573.95 30.9732 Q2577.96 35.7938 2577.96 45.1919 Z" fill="#000000" fill-rule="evenodd" fill-opacity="1" /><path clip-path="url(#clip810)" d="M2642.73 19.2256 L2622.07 51.5113 L2642.73 51.5113 L2642.73 19.2256 M2640.58 12.096 L2650.87 12.096 L2650.87 51.5113 L2659.5 51.5113 L2659.5 58.3168 L2650.87 58.3168 L2650.87 72.576 L2642.73 72.576 L2642.73 58.3168 L2615.43 58.3168 L2615.43 50.4176 L2640.58 12.096 Z" fill="#000000" fill-rule="evenodd" fill-opacity="1" /><path clip-path="url(#clip810)" d="M2727.27 28.5427 L2727.27 35.5912 Q2724.11 33.9709 2720.71 33.1607 Q2717.31 32.3505 2713.66 32.3505 Q2708.11 32.3505 2705.32 34.0519 Q2702.56 35.7533 2702.56 39.156 Q2702.56 41.7486 2704.55 43.2475 Q2706.53 44.7058 2712.53 46.0426 L2715.08 46.6097 Q2723.02 48.3111 2726.34 51.4303 Q2729.7 54.509 2729.7 60.0587 Q2729.7 66.3781 2724.68 70.0644 Q2719.7 73.7508 2710.95 73.7508 Q2707.3 73.7508 2703.33 73.0216 Q2699.4 72.3329 2695.03 70.9151 L2695.03 63.2184 Q2699.16 65.3654 2703.17 66.4591 Q2707.18 67.5124 2711.11 67.5124 Q2716.38 67.5124 2719.21 65.73 Q2722.05 63.9071 2722.05 60.6258 Q2722.05 57.5877 2719.98 55.9673 Q2717.96 54.3469 2711.03 52.8481 L2708.44 52.2405 Q2701.51 50.7821 2698.43 47.7845 Q2695.35 44.7463 2695.35 39.4801 Q2695.35 33.0797 2699.89 29.5959 Q2704.43 26.1121 2712.77 26.1121 Q2716.9 26.1121 2720.55 26.7198 Q2724.19 27.3274 2727.27 28.5427 Z" fill="#000000" fill-rule="evenodd" fill-opacity="1" /><path clip-path="url(#clip810)" d="M2780.38 48.0275 L2780.38 51.6733 L2746.11 51.6733 Q2746.6 59.3701 2750.73 63.421 Q2754.9 67.4314 2762.31 67.4314 Q2766.61 67.4314 2770.62 66.3781 Q2774.67 65.3249 2778.64 63.2184 L2778.64 70.267 Q2774.63 71.9684 2770.42 72.8596 Q2766.2 73.7508 2761.87 73.7508 Q2751.01 73.7508 2744.65 67.4314 Q2738.33 61.1119 2738.33 50.3365 Q2738.33 39.1965 2744.33 32.6746 Q2750.36 26.1121 2760.57 26.1121 Q2769.73 26.1121 2775.03 32.0264 Q2780.38 37.9003 2780.38 48.0275 M2772.93 45.84 Q2772.85 39.7232 2769.48 36.0774 Q2766.16 32.4315 2760.65 32.4315 Q2754.41 32.4315 2750.65 35.9558 Q2746.92 39.4801 2746.35 45.8805 L2772.93 45.84 Z" fill="#000000" fill-rule="evenodd" fill-opacity="1" /><path clip-path="url(#clip810)" d="M2813.23 49.7694 Q2804.2 49.7694 2800.72 51.8354 Q2797.23 53.9013 2797.23 58.8839 Q2797.23 62.8538 2799.82 65.2034 Q2802.46 67.5124 2806.95 67.5124 Q2813.15 67.5124 2816.88 63.1374 Q2820.65 58.7219 2820.65 51.4303 L2820.65 49.7694 L2813.23 49.7694 M2828.1 46.6907 L2828.1 72.576 L2820.65 72.576 L2820.65 65.6895 Q2818.09 69.8214 2814.29 71.8063 Q2810.48 73.7508 2804.97 73.7508 Q2798 73.7508 2793.87 69.8619 Q2789.78 65.9325 2789.78 59.3701 Q2789.78 51.7138 2794.88 47.825 Q2800.03 43.9361 2810.2 43.9361 L2820.65 43.9361 L2820.65 43.2069 Q2820.65 38.0623 2817.24 35.2672 Q2813.88 32.4315 2807.76 32.4315 Q2803.88 32.4315 2800.19 33.3632 Q2796.5 34.295 2793.1 36.1584 L2793.1 29.2718 Q2797.19 27.692 2801.04 26.9223 Q2804.89 26.1121 2808.53 26.1121 Q2818.38 26.1121 2823.24 31.2163 Q2828.1 36.3204 2828.1 46.6907 Z" fill="#000000" fill-rule="evenodd" fill-opacity="1" /><path clip-path="url(#clip810)" d="M2872.38 28.5427 L2872.38 35.5912 Q2869.22 33.9709 2865.81 33.1607 Q2862.41 32.3505 2858.77 32.3505 Q2853.22 32.3505 2850.42 34.0519 Q2847.67 35.7533 2847.67 39.156 Q2847.67 41.7486 2849.65 43.2475 Q2851.64 44.7058 2857.63 46.0426 L2860.18 46.6097 Q2868.12 48.3111 2871.44 51.4303 Q2874.81 54.509 2874.81 60.0587 Q2874.81 66.3781 2869.78 70.0644 Q2864.8 73.7508 2856.05 73.7508 Q2852.41 73.7508 2848.44 73.0216 Q2844.51 72.3329 2840.13 70.9151 L2840.13 63.2184 Q2844.26 65.3654 2848.27 66.4591 Q2852.28 67.5124 2856.21 67.5124 Q2861.48 67.5124 2864.32 65.73 Q2867.15 63.9071 2867.15 60.6258 Q2867.15 57.5877 2865.08 55.9673 Q2863.06 54.3469 2856.13 52.8481 L2853.54 52.2405 Q2846.61 50.7821 2843.53 47.7845 Q2840.46 44.7463 2840.46 39.4801 Q2840.46 33.0797 2844.99 29.5959 Q2849.53 26.1121 2857.87 26.1121 Q2862.01 26.1121 2865.65 26.7198 Q2869.3 27.3274 2872.38 28.5427 Z" fill="#000000" fill-rule="evenodd" fill-opacity="1" /><path clip-path="url(#clip810)" d="M2904.26 32.4315 Q2898.26 32.4315 2894.78 37.1306 Q2891.29 41.7891 2891.29 49.9314 Q2891.29 58.0738 2894.74 62.7728 Q2898.22 67.4314 2904.26 67.4314 Q2910.21 67.4314 2913.7 62.7323 Q2917.18 58.0333 2917.18 49.9314 Q2917.18 41.8701 2913.7 37.1711 Q2910.21 32.4315 2904.26 32.4315 M2904.26 26.1121 Q2913.98 26.1121 2919.53 32.4315 Q2925.08 38.7509 2925.08 49.9314 Q2925.08 61.0714 2919.53 67.4314 Q2913.98 73.7508 2904.26 73.7508 Q2894.49 73.7508 2888.94 67.4314 Q2883.44 61.0714 2883.44 49.9314 Q2883.44 38.7509 2888.94 32.4315 Q2894.49 26.1121 2904.26 26.1121 Z" fill="#000000" fill-rule="evenodd" fill-opacity="1" /><path clip-path="url(#clip810)" d="M2975.15 45.1919 L2975.15 72.576 L2967.69 72.576 L2967.69 45.4349 Q2967.69 38.994 2965.18 35.7938 Q2962.67 32.5936 2957.65 32.5936 Q2951.61 32.5936 2948.13 36.4419 Q2944.64 40.2903 2944.64 46.9338 L2944.64 72.576 L2937.15 72.576 L2937.15 27.2059 L2944.64 27.2059 L2944.64 34.2544 Q2947.32 30.163 2950.92 28.1376 Q2954.57 26.1121 2959.31 26.1121 Q2967.13 26.1121 2971.14 30.9732 Q2975.15 35.7938 2975.15 45.1919 Z" fill="#000000" fill-rule="evenodd" fill-opacity="1" /><path clip-path="url(#clip810)" d="M3018.94 28.5427 L3018.94 35.5912 Q3015.78 33.9709 3012.38 33.1607 Q3008.97 32.3505 3005.33 32.3505 Q2999.78 32.3505 2996.98 34.0519 Q2994.23 35.7533 2994.23 39.156 Q2994.23 41.7486 2996.21 43.2475 Q2998.2 44.7058 3004.19 46.0426 L3006.74 46.6097 Q3014.68 48.3111 3018.01 51.4303 Q3021.37 54.509 3021.37 60.0587 Q3021.37 66.3781 3016.35 70.0644 Q3011.36 73.7508 3002.61 73.7508 Q2998.97 73.7508 2995 73.0216 Q2991.07 72.3329 2986.69 70.9151 L2986.69 63.2184 Q2990.82 65.3654 2994.84 66.4591 Q2998.85 67.5124 3002.78 67.5124 Q3008.04 67.5124 3010.88 65.73 Q3013.71 63.9071 3013.71 60.6258 Q3013.71 57.5877 3011.65 55.9673 Q3009.62 54.3469 3002.69 52.8481 L3000.1 52.2405 Q2993.17 50.7821 2990.1 47.7845 Q2987.02 44.7463 2987.02 39.4801 Q2987.02 33.0797 2991.55 29.5959 Q2996.09 26.1121 3004.44 26.1121 Q3008.57 26.1121 3012.21 26.7198 Q3015.86 27.3274 3018.94 28.5427 Z" fill="#000000" fill-rule="evenodd" fill-opacity="1" /><path clip-path="url(#clip812)" d="
M476.148 666.278 L476.148 2163.79 L1165.47 2163.79 L1165.47 666.278 L476.148 666.278 L476.148 666.278  Z
  " fill="#009af9" fill-rule="evenodd" fill-opacity="1"/>
<polyline clip-path="url(#clip812)" style="stroke:#000000; stroke-linecap:round; stroke-linejoin:round; stroke-width:4; stroke-opacity:1; fill:none" points="
  476.148,666.278 476.148,2163.79 1165.47,2163.79 1165.47,666.278 476.148,666.278 
  "/>
<path clip-path="url(#clip812)" d="
M1337.8 177.027 L1337.8 2163.79 L2027.11 2163.79 L2027.11 177.027 L1337.8 177.027 L1337.8 177.027  Z
  " fill="#009af9" fill-rule="evenodd" fill-opacity="1"/>
<polyline clip-path="url(#clip812)" style="stroke:#000000; stroke-linecap:round; stroke-linejoin:round; stroke-width:4; stroke-opacity:1; fill:none" points="
  1337.8,177.027 1337.8,2163.79 2027.11,2163.79 2027.11,177.027 1337.8,177.027 
  "/>
<path clip-path="url(#clip812)" d="
M2199.44 564.364 L2199.44 2163.79 L2888.76 2163.79 L2888.76 564.364 L2199.44 564.364 L2199.44 564.364  Z
  " fill="#009af9" fill-rule="evenodd" fill-opacity="1"/>
<polyline clip-path="url(#clip812)" style="stroke:#000000; stroke-linecap:round; stroke-linejoin:round; stroke-width:4; stroke-opacity:1; fill:none" points="
  2199.44,564.364 2199.44,2163.79 2888.76,2163.79 2888.76,564.364 2199.44,564.364 
  "/>
<path clip-path="url(#clip812)" d="
M3061.09 1048.99 L3061.09 2163.79 L3750.41 2163.79 L3750.41 1048.99 L3061.09 1048.99 L3061.09 1048.99  Z
  " fill="#009af9" fill-rule="evenodd" fill-opacity="1"/>
<polyline clip-path="url(#clip812)" style="stroke:#000000; stroke-linecap:round; stroke-linejoin:round; stroke-width:4; stroke-opacity:1; fill:none" points="
  3061.09,1048.99 3061.09,2163.79 3750.41,2163.79 3750.41,1048.99 3061.09,1048.99 
  "/>
<circle clip-path="url(#clip812)" style="fill:#009af9; stroke:none; fill-opacity:0" cx="820.807" cy="666.278" r="2"/>
<circle clip-path="url(#clip812)" style="fill:#009af9; stroke:none; fill-opacity:0" cx="1682.45" cy="177.027" r="2"/>
<circle clip-path="url(#clip812)" style="fill:#009af9; stroke:none; fill-opacity:0" cx="2544.1" cy="564.364" r="2"/>
<circle clip-path="url(#clip812)" style="fill:#009af9; stroke:none; fill-opacity:0" cx="3405.75" cy="1048.99" r="2"/>
<path clip-path="url(#clip810)" d="
M3076.12 291.303 L3830.12 291.303 L3830.12 187.623 L3076.12 187.623  Z
  " fill="#ffffff" fill-rule="evenodd" fill-opacity="1"/>
<polyline clip-path="url(#clip810)" style="stroke:#000000; stroke-linecap:round; stroke-linejoin:round; stroke-width:4; stroke-opacity:1; fill:none" points="
  3076.12,291.303 3830.12,291.303 3830.12,187.623 3076.12,187.623 3076.12,291.303 
  "/>
<path clip-path="url(#clip810)" d="
M3117 260.199 L3362.26 260.199 L3362.26 218.727 L3117 218.727 L3117 260.199  Z
  " fill="#009af9" fill-rule="evenodd" fill-opacity="1"/>
<polyline clip-path="url(#clip810)" style="stroke:#000000; stroke-linecap:round; stroke-linejoin:round; stroke-width:4; stroke-opacity:1; fill:none" points="
  3117,260.199 3362.26,260.199 3362.26,218.727 3117,218.727 3117,260.199 
  "/>
<path clip-path="url(#clip810)" d="M3421.57 231.581 L3421.57 235.609 Q3419.76 234.683 3417.82 234.22 Q3415.87 233.757 3413.79 233.757 Q3410.62 233.757 3409.02 234.729 Q3407.45 235.701 3407.45 237.646 Q3407.45 239.127 3408.58 239.984 Q3409.71 240.817 3413.14 241.581 L3414.6 241.905 Q3419.14 242.877 3421.03 244.66 Q3422.95 246.419 3422.95 249.59 Q3422.95 253.201 3420.08 255.308 Q3417.24 257.414 3412.24 257.414 Q3410.15 257.414 3407.89 256.998 Q3405.64 256.604 3403.14 255.794 L3403.14 251.396 Q3405.5 252.623 3407.79 253.248 Q3410.08 253.849 3412.33 253.849 Q3415.34 253.849 3416.96 252.831 Q3418.58 251.789 3418.58 249.914 Q3418.58 248.178 3417.4 247.252 Q3416.24 246.326 3412.28 245.47 L3410.8 245.123 Q3406.84 244.289 3405.08 242.576 Q3403.32 240.84 3403.32 237.831 Q3403.32 234.174 3405.92 232.183 Q3408.51 230.192 3413.28 230.192 Q3415.64 230.192 3417.72 230.539 Q3419.81 230.887 3421.57 231.581 Z" fill="#000000" fill-rule="evenodd" fill-opacity="1" /><path clip-path="url(#clip810)" d="M3451.29 241.095 L3451.29 256.743 L3447.03 256.743 L3447.03 241.234 Q3447.03 237.553 3445.59 235.725 Q3444.16 233.896 3441.29 233.896 Q3437.84 233.896 3435.85 236.095 Q3433.86 238.294 3433.86 242.09 L3433.86 256.743 L3429.57 256.743 L3429.57 220.725 L3433.86 220.725 L3433.86 234.845 Q3435.38 232.507 3437.45 231.35 Q3439.53 230.192 3442.24 230.192 Q3446.7 230.192 3449 232.97 Q3451.29 235.725 3451.29 241.095 Z" fill="#000000" fill-rule="evenodd" fill-opacity="1" /><path clip-path="url(#clip810)" d="M3471.57 243.711 Q3466.4 243.711 3464.41 244.891 Q3462.42 246.072 3462.42 248.919 Q3462.42 251.187 3463.9 252.53 Q3465.41 253.849 3467.98 253.849 Q3471.52 253.849 3473.65 251.349 Q3475.8 248.826 3475.8 244.66 L3475.8 243.711 L3471.57 243.711 M3480.06 241.951 L3480.06 256.743 L3475.8 256.743 L3475.8 252.808 Q3474.34 255.169 3472.17 256.303 Q3469.99 257.414 3466.84 257.414 Q3462.86 257.414 3460.5 255.192 Q3458.16 252.947 3458.16 249.197 Q3458.16 244.822 3461.08 242.599 Q3464.02 240.377 3469.83 240.377 L3475.8 240.377 L3475.8 239.961 Q3475.8 237.021 3473.86 235.424 Q3471.94 233.803 3468.44 233.803 Q3466.22 233.803 3464.11 234.336 Q3462.01 234.868 3460.06 235.933 L3460.06 231.998 Q3462.4 231.095 3464.6 230.655 Q3466.8 230.192 3468.88 230.192 Q3474.51 230.192 3477.28 233.109 Q3480.06 236.025 3480.06 241.951 Z" fill="#000000" fill-rule="evenodd" fill-opacity="1" /><path clip-path="url(#clip810)" d="M3503.86 234.799 Q3503.14 234.382 3502.28 234.197 Q3501.45 233.988 3500.43 233.988 Q3496.82 233.988 3494.88 236.35 Q3492.95 238.687 3492.95 243.086 L3492.95 256.743 L3488.67 256.743 L3488.67 230.817 L3492.95 230.817 L3492.95 234.845 Q3494.3 232.484 3496.45 231.35 Q3498.6 230.192 3501.68 230.192 Q3502.12 230.192 3502.65 230.262 Q3503.19 230.308 3503.83 230.424 L3503.86 234.799 Z" fill="#000000" fill-rule="evenodd" fill-opacity="1" /><path clip-path="url(#clip810)" d="M3508.32 230.817 L3512.58 230.817 L3512.58 256.743 L3508.32 256.743 L3508.32 230.817 M3508.32 220.725 L3512.58 220.725 L3512.58 226.118 L3508.32 226.118 L3508.32 220.725 Z" fill="#000000" fill-rule="evenodd" fill-opacity="1" /><path clip-path="url(#clip810)" d="M3543.05 241.095 L3543.05 256.743 L3538.79 256.743 L3538.79 241.234 Q3538.79 237.553 3537.35 235.725 Q3535.92 233.896 3533.05 233.896 Q3529.6 233.896 3527.61 236.095 Q3525.62 238.294 3525.62 242.09 L3525.62 256.743 L3521.33 256.743 L3521.33 230.817 L3525.62 230.817 L3525.62 234.845 Q3527.14 232.507 3529.2 231.35 Q3531.29 230.192 3534 230.192 Q3538.46 230.192 3540.75 232.97 Q3543.05 235.725 3543.05 241.095 Z" fill="#000000" fill-rule="evenodd" fill-opacity="1" /><path clip-path="url(#clip810)" d="M3568.6 243.479 Q3568.6 238.849 3566.68 236.303 Q3564.78 233.757 3561.33 233.757 Q3557.91 233.757 3555.99 236.303 Q3554.09 238.849 3554.09 243.479 Q3554.09 248.086 3555.99 250.632 Q3557.91 253.178 3561.33 253.178 Q3564.78 253.178 3566.68 250.632 Q3568.6 248.086 3568.6 243.479 M3572.86 253.525 Q3572.86 260.146 3569.92 263.363 Q3566.98 266.604 3560.92 266.604 Q3558.67 266.604 3556.68 266.257 Q3554.69 265.933 3552.81 265.238 L3552.81 261.095 Q3554.69 262.113 3556.52 262.599 Q3558.35 263.085 3560.25 263.085 Q3564.44 263.085 3566.52 260.886 Q3568.6 258.71 3568.6 254.289 L3568.6 252.183 Q3567.28 254.474 3565.22 255.609 Q3563.16 256.743 3560.29 256.743 Q3555.52 256.743 3552.61 253.109 Q3549.69 249.474 3549.69 243.479 Q3549.69 237.461 3552.61 233.826 Q3555.52 230.192 3560.29 230.192 Q3563.16 230.192 3565.22 231.326 Q3567.28 232.461 3568.6 234.752 L3568.6 230.817 L3572.86 230.817 L3572.86 253.525 Z" fill="#000000" fill-rule="evenodd" fill-opacity="1" /><path clip-path="url(#clip810)" d="M3615.36 231.812 L3615.36 235.794 Q3613.56 234.799 3611.73 234.312 Q3609.92 233.803 3608.07 233.803 Q3603.93 233.803 3601.63 236.442 Q3599.34 239.058 3599.34 243.803 Q3599.34 248.549 3601.63 251.187 Q3603.93 253.803 3608.07 253.803 Q3609.92 253.803 3611.73 253.317 Q3613.56 252.808 3615.36 251.812 L3615.36 255.748 Q3613.58 256.581 3611.66 256.998 Q3609.76 257.414 3607.61 257.414 Q3601.75 257.414 3598.3 253.734 Q3594.85 250.053 3594.85 243.803 Q3594.85 237.461 3598.32 233.826 Q3601.82 230.192 3607.88 230.192 Q3609.85 230.192 3611.73 230.609 Q3613.6 231.002 3615.36 231.812 Z" fill="#000000" fill-rule="evenodd" fill-opacity="1" /><path clip-path="url(#clip810)" d="M3632.81 233.803 Q3629.39 233.803 3627.4 236.488 Q3625.41 239.15 3625.41 243.803 Q3625.41 248.456 3627.37 251.141 Q3629.37 253.803 3632.81 253.803 Q3636.22 253.803 3638.21 251.118 Q3640.2 248.433 3640.2 243.803 Q3640.2 239.197 3638.21 236.512 Q3636.22 233.803 3632.81 233.803 M3632.81 230.192 Q3638.37 230.192 3641.54 233.803 Q3644.71 237.414 3644.71 243.803 Q3644.71 250.169 3641.54 253.803 Q3638.37 257.414 3632.81 257.414 Q3627.24 257.414 3624.06 253.803 Q3620.92 250.169 3620.92 243.803 Q3620.92 237.414 3624.06 233.803 Q3627.24 230.192 3632.81 230.192 Z" fill="#000000" fill-rule="evenodd" fill-opacity="1" /><path clip-path="url(#clip810)" d="M3651.33 246.511 L3651.33 230.817 L3655.59 230.817 L3655.59 246.349 Q3655.59 250.03 3657.03 251.882 Q3658.46 253.711 3661.33 253.711 Q3664.78 253.711 3666.77 251.511 Q3668.79 249.312 3668.79 245.516 L3668.79 230.817 L3673.05 230.817 L3673.05 256.743 L3668.79 256.743 L3668.79 252.761 Q3667.24 255.123 3665.18 256.28 Q3663.14 257.414 3660.43 257.414 Q3655.96 257.414 3653.65 254.636 Q3651.33 251.859 3651.33 246.511 M3662.05 230.192 L3662.05 230.192 Z" fill="#000000" fill-rule="evenodd" fill-opacity="1" /><path clip-path="url(#clip810)" d="M3703.37 241.095 L3703.37 256.743 L3699.11 256.743 L3699.11 241.234 Q3699.11 237.553 3697.68 235.725 Q3696.24 233.896 3693.37 233.896 Q3689.92 233.896 3687.93 236.095 Q3685.94 238.294 3685.94 242.09 L3685.94 256.743 L3681.66 256.743 L3681.66 230.817 L3685.94 230.817 L3685.94 234.845 Q3687.47 232.507 3689.53 231.35 Q3691.61 230.192 3694.32 230.192 Q3698.79 230.192 3701.08 232.97 Q3703.37 235.725 3703.37 241.095 Z" fill="#000000" fill-rule="evenodd" fill-opacity="1" /><path clip-path="url(#clip810)" d="M3716.08 223.456 L3716.08 230.817 L3724.85 230.817 L3724.85 234.127 L3716.08 234.127 L3716.08 248.201 Q3716.08 251.373 3716.93 252.275 Q3717.81 253.178 3720.48 253.178 L3724.85 253.178 L3724.85 256.743 L3720.48 256.743 Q3715.55 256.743 3713.67 254.914 Q3711.8 253.062 3711.8 248.201 L3711.8 234.127 L3708.67 234.127 L3708.67 230.817 L3711.8 230.817 L3711.8 223.456 L3716.08 223.456 Z" fill="#000000" fill-rule="evenodd" fill-opacity="1" /><path clip-path="url(#clip810)" d="M3746.98 231.581 L3746.98 235.609 Q3745.17 234.683 3743.23 234.22 Q3741.29 233.757 3739.2 233.757 Q3736.03 233.757 3734.43 234.729 Q3732.86 235.701 3732.86 237.646 Q3732.86 239.127 3733.99 239.984 Q3735.13 240.817 3738.55 241.581 L3740.01 241.905 Q3744.55 242.877 3746.45 244.66 Q3748.37 246.419 3748.37 249.59 Q3748.37 253.201 3745.5 255.308 Q3742.65 257.414 3737.65 257.414 Q3735.57 257.414 3733.3 256.998 Q3731.05 256.604 3728.55 255.794 L3728.55 251.396 Q3730.92 252.623 3733.21 253.248 Q3735.5 253.849 3737.74 253.849 Q3740.75 253.849 3742.37 252.831 Q3743.99 251.789 3743.99 249.914 Q3743.99 248.178 3742.81 247.252 Q3741.66 246.326 3737.7 245.47 L3736.22 245.123 Q3732.26 244.289 3730.5 242.576 Q3728.74 240.84 3728.74 237.831 Q3728.74 234.174 3731.33 232.183 Q3733.93 230.192 3738.69 230.192 Q3741.05 230.192 3743.14 230.539 Q3745.22 230.887 3746.98 231.581 Z" fill="#000000" fill-rule="evenodd" fill-opacity="1" /></svg>
