<?xml version="1.0" encoding="utf-8"?>
<svg xmlns="http://www.w3.org/2000/svg" xmlns:xlink="http://www.w3.org/1999/xlink" width="600" height="400" viewBox="0 0 2400 1600">
<defs>
  <clipPath id="clip110">
    <rect x="0" y="0" width="2400" height="1600"/>
  </clipPath>
</defs>
<path clip-path="url(#clip110)" d="
M0 1600 L2400 1600 L2400 0 L0 0  Z
  " fill="#ffffff" fill-rule="evenodd" fill-opacity="1"/>
<defs>
  <clipPath id="clip111">
    <rect x="480" y="0" width="1681" height="1600"/>
  </clipPath>
</defs>
<path clip-path="url(#clip110)" d="
M305.618 1423.18 L2352.76 1423.18 L2352.76 47.2441 L305.618 47.2441  Z
  " fill="#ffffff" fill-rule="evenodd" fill-opacity="1"/>
<defs>
  <clipPath id="clip112">
    <rect x="305" y="47" width="2048" height="1377"/>
  </clipPath>
</defs>
<polyline clip-path="url(#clip112)" style="stroke:#000000; stroke-linecap:round; stroke-linejoin:round; stroke-width:2; stroke-opacity:0.1; fill:none" points="
  543.866,1423.18 543.866,47.2441 
  "/>
<polyline clip-path="url(#clip112)" style="stroke:#000000; stroke-linecap:round; stroke-linejoin:round; stroke-width:2; stroke-opacity:0.1; fill:none" points="
  857.994,1423.18 857.994,47.2441 
  "/>
<polyline clip-path="url(#clip112)" style="stroke:#000000; stroke-linecap:round; stroke-linejoin:round; stroke-width:2; stroke-opacity:0.1; fill:none" points="
  1172.12,1423.18 1172.12,47.2441 
  "/>
<polyline clip-path="url(#clip112)" style="stroke:#000000; stroke-linecap:round; stroke-linejoin:round; stroke-width:2; stroke-opacity:0.1; fill:none" points="
  1486.25,1423.18 1486.25,47.2441 
  "/>
<polyline clip-path="url(#clip112)" style="stroke:#000000; stroke-linecap:round; stroke-linejoin:round; stroke-width:2; stroke-opacity:0.1; fill:none" points="
  1800.38,1423.18 1800.38,47.2441 
  "/>
<polyline clip-path="url(#clip112)" style="stroke:#000000; stroke-linecap:round; stroke-linejoin:round; stroke-width:2; stroke-opacity:0.1; fill:none" points="
  2114.51,1423.18 2114.51,47.2441 
  "/>
<polyline clip-path="url(#clip110)" style="stroke:#000000; stroke-linecap:round; stroke-linejoin:round; stroke-width:4; stroke-opacity:1; fill:none" points="
  305.618,1423.18 2352.76,1423.18 
  "/>
<polyline clip-path="url(#clip110)" style="stroke:#000000; stroke-linecap:round; stroke-linejoin:round; stroke-width:4; stroke-opacity:1; fill:none" points="
  543.866,1423.18 543.866,1404.28 
  "/>
<polyline clip-path="url(#clip110)" style="stroke:#000000; stroke-linecap:round; stroke-linejoin:round; stroke-width:4; stroke-opacity:1; fill:none" points="
  857.994,1423.18 857.994,1404.28 
  "/>
<polyline clip-path="url(#clip110)" style="stroke:#000000; stroke-linecap:round; stroke-linejoin:round; stroke-width:4; stroke-opacity:1; fill:none" points="
  1172.12,1423.18 1172.12,1404.28 
  "/>
<polyline clip-path="url(#clip110)" style="stroke:#000000; stroke-linecap:round; stroke-linejoin:round; stroke-width:4; stroke-opacity:1; fill:none" points="
  1486.25,1423.18 1486.25,1404.28 
  "/>
<polyline clip-path="url(#clip110)" style="stroke:#000000; stroke-linecap:round; stroke-linejoin:round; stroke-width:4; stroke-opacity:1; fill:none" points="
  1800.38,1423.18 1800.38,1404.28 
  "/>
<polyline clip-path="url(#clip110)" style="stroke:#000000; stroke-linecap:round; stroke-linejoin:round; stroke-width:4; stroke-opacity:1; fill:none" points="
  2114.51,1423.18 2114.51,1404.28 
  "/>
<path clip-path="url(#clip110)" d="M543.866 1454.1 Q540.255 1454.1 538.426 1457.66 Q536.62 1461.2 536.62 1468.33 Q536.62 1475.44 538.426 1479.01 Q540.255 1482.55 543.866 1482.55 Q547.5 1482.55 549.305 1479.01 Q551.134 1475.44 551.134 1468.33 Q551.134 1461.2 549.305 1457.66 Q547.5 1454.1 543.866 1454.1 M543.866 1450.39 Q549.676 1450.39 552.731 1455 Q555.81 1459.58 555.81 1468.33 Q555.81 1477.06 552.731 1481.67 Q549.676 1486.25 543.866 1486.25 Q538.055 1486.25 534.977 1481.67 Q531.921 1477.06 531.921 1468.33 Q531.921 1459.58 534.977 1455 Q538.055 1450.39 543.866 1450.39 Z" fill="#000000" fill-rule="evenodd" fill-opacity="1" /><path clip-path="url(#clip110)" d="M848.376 1481.64 L856.015 1481.64 L856.015 1455.28 L847.705 1456.95 L847.705 1452.69 L855.969 1451.02 L860.645 1451.02 L860.645 1481.64 L868.283 1481.64 L868.283 1485.58 L848.376 1485.58 L848.376 1481.64 Z" fill="#000000" fill-rule="evenodd" fill-opacity="1" /><path clip-path="url(#clip110)" d="M1166.78 1481.64 L1183.09 1481.64 L1183.09 1485.58 L1161.15 1485.58 L1161.15 1481.64 Q1163.81 1478.89 1168.4 1474.26 Q1173 1469.61 1174.18 1468.27 Q1176.43 1465.74 1177.31 1464.01 Q1178.21 1462.25 1178.21 1460.56 Q1178.21 1457.8 1176.27 1456.07 Q1174.34 1454.33 1171.24 1454.33 Q1169.04 1454.33 1166.59 1455.09 Q1164.16 1455.86 1161.38 1457.41 L1161.38 1452.69 Q1164.21 1451.55 1166.66 1450.97 Q1169.11 1450.39 1171.15 1450.39 Q1176.52 1450.39 1179.72 1453.08 Q1182.91 1455.77 1182.91 1460.26 Q1182.91 1462.39 1182.1 1464.31 Q1181.31 1466.2 1179.21 1468.8 Q1178.63 1469.47 1175.53 1472.69 Q1172.42 1475.88 1166.78 1481.64 Z" fill="#000000" fill-rule="evenodd" fill-opacity="1" /><path clip-path="url(#clip110)" d="M1490.5 1466.95 Q1493.86 1467.66 1495.73 1469.93 Q1497.63 1472.2 1497.63 1475.53 Q1497.63 1480.65 1494.11 1483.45 Q1490.59 1486.25 1484.11 1486.25 Q1481.93 1486.25 1479.62 1485.81 Q1477.33 1485.39 1474.87 1484.54 L1474.87 1480.02 Q1476.82 1481.16 1479.13 1481.74 Q1481.45 1482.32 1483.97 1482.32 Q1488.37 1482.32 1490.66 1480.58 Q1492.98 1478.84 1492.98 1475.53 Q1492.98 1472.48 1490.82 1470.77 Q1488.69 1469.03 1484.87 1469.03 L1480.85 1469.03 L1480.85 1465.19 L1485.06 1465.19 Q1488.51 1465.19 1490.34 1463.82 Q1492.17 1462.43 1492.17 1459.84 Q1492.17 1457.18 1490.27 1455.77 Q1488.39 1454.33 1484.87 1454.33 Q1482.95 1454.33 1480.75 1454.75 Q1478.55 1455.16 1475.92 1456.04 L1475.92 1451.88 Q1478.58 1451.14 1480.89 1450.77 Q1483.23 1450.39 1485.29 1450.39 Q1490.61 1450.39 1493.72 1452.83 Q1496.82 1455.23 1496.82 1459.35 Q1496.82 1462.22 1495.17 1464.21 Q1493.53 1466.18 1490.5 1466.95 Z" fill="#000000" fill-rule="evenodd" fill-opacity="1" /><path clip-path="url(#clip110)" d="M1803.39 1455.09 L1791.58 1473.54 L1803.39 1473.54 L1803.39 1455.09 M1802.16 1451.02 L1808.04 1451.02 L1808.04 1473.54 L1812.97 1473.54 L1812.97 1477.43 L1808.04 1477.43 L1808.04 1485.58 L1803.39 1485.58 L1803.39 1477.43 L1787.79 1477.43 L1787.79 1472.92 L1802.16 1451.02 Z" fill="#000000" fill-rule="evenodd" fill-opacity="1" /><path clip-path="url(#clip110)" d="M2104.79 1451.02 L2123.14 1451.02 L2123.14 1454.96 L2109.07 1454.96 L2109.07 1463.43 Q2110.09 1463.08 2111.11 1462.92 Q2112.12 1462.73 2113.14 1462.73 Q2118.93 1462.73 2122.31 1465.9 Q2125.69 1469.08 2125.69 1474.49 Q2125.69 1480.07 2122.22 1483.17 Q2118.74 1486.25 2112.42 1486.25 Q2110.25 1486.25 2107.98 1485.88 Q2105.74 1485.51 2103.33 1484.77 L2103.33 1480.07 Q2105.41 1481.2 2107.63 1481.76 Q2109.86 1482.32 2112.33 1482.32 Q2116.34 1482.32 2118.67 1480.21 Q2121.01 1478.1 2121.01 1474.49 Q2121.01 1470.88 2118.67 1468.77 Q2116.34 1466.67 2112.33 1466.67 Q2110.46 1466.67 2108.58 1467.08 Q2106.73 1467.5 2104.79 1468.38 L2104.79 1451.02 Z" fill="#000000" fill-rule="evenodd" fill-opacity="1" /><path clip-path="url(#clip110)" d="M883.349 1520.52 L889.81 1520.52 L889.81 1549.39 Q889.81 1557.03 892.579 1560.4 Q895.348 1563.75 901.555 1563.75 Q907.729 1563.75 910.499 1560.4 Q913.268 1557.03 913.268 1549.39 L913.268 1520.52 L919.729 1520.52 L919.729 1550.19 Q919.729 1559.48 915.114 1564.22 Q910.53 1568.97 901.555 1568.97 Q892.547 1568.97 887.932 1564.22 Q883.349 1559.48 883.349 1550.19 L883.349 1520.52 Z" fill="#000000" fill-rule="evenodd" fill-opacity="1" /><path clip-path="url(#clip110)" d="M954.263 1533.45 L954.263 1538.98 Q951.78 1537.71 949.107 1537.07 Q946.433 1536.44 943.568 1536.44 Q939.208 1536.44 937.012 1537.77 Q934.847 1539.11 934.847 1541.79 Q934.847 1543.82 936.407 1545 Q937.967 1546.15 942.677 1547.2 L944.682 1547.64 Q950.921 1548.98 953.531 1551.43 Q956.172 1553.85 956.172 1558.21 Q956.172 1563.17 952.226 1566.07 Q948.311 1568.97 941.436 1568.97 Q938.571 1568.97 935.452 1568.39 Q932.365 1567.85 928.927 1566.74 L928.927 1560.69 Q932.174 1562.38 935.325 1563.24 Q938.476 1564.07 941.563 1564.07 Q945.701 1564.07 947.929 1562.66 Q950.157 1561.23 950.157 1558.65 Q950.157 1556.27 948.534 1554.99 Q946.942 1553.72 941.499 1552.54 L939.462 1552.07 Q934.02 1550.92 931.601 1548.56 Q929.182 1546.18 929.182 1542.04 Q929.182 1537.01 932.747 1534.27 Q936.311 1531.54 942.868 1531.54 Q946.115 1531.54 948.979 1532.01 Q951.844 1532.49 954.263 1533.45 Z" fill="#000000" fill-rule="evenodd" fill-opacity="1" /><path clip-path="url(#clip110)" d="M981.699 1550.12 Q974.601 1550.12 971.864 1551.75 Q969.127 1553.37 969.127 1557.29 Q969.127 1560.4 971.164 1562.25 Q973.233 1564.07 976.766 1564.07 Q981.635 1564.07 984.564 1560.63 Q987.524 1557.16 987.524 1551.43 L987.524 1550.12 L981.699 1550.12 M993.38 1547.71 L993.38 1568.04 L987.524 1568.04 L987.524 1562.63 Q985.518 1565.88 982.526 1567.44 Q979.535 1568.97 975.206 1568.97 Q969.731 1568.97 966.485 1565.91 Q963.27 1562.82 963.27 1557.67 Q963.27 1551.65 967.281 1548.6 Q971.323 1545.54 979.312 1545.54 L987.524 1545.54 L987.524 1544.97 Q987.524 1540.93 984.85 1538.73 Q982.208 1536.5 977.402 1536.5 Q974.347 1536.5 971.45 1537.23 Q968.554 1537.97 965.88 1539.43 L965.88 1534.02 Q969.095 1532.78 972.119 1532.17 Q975.142 1531.54 978.007 1531.54 Q985.741 1531.54 989.561 1535.55 Q993.38 1539.56 993.38 1547.71 Z" fill="#000000" fill-rule="evenodd" fill-opacity="1" /><path clip-path="url(#clip110)" d="M1028.9 1549.81 Q1028.9 1543.44 1026.26 1539.94 Q1023.65 1536.44 1018.91 1536.44 Q1014.2 1536.44 1011.55 1539.94 Q1008.94 1543.44 1008.94 1549.81 Q1008.94 1556.14 1011.55 1559.64 Q1014.2 1563.14 1018.91 1563.14 Q1023.65 1563.14 1026.26 1559.64 Q1028.9 1556.14 1028.9 1549.81 M1034.76 1563.62 Q1034.76 1572.72 1030.71 1577.15 Q1026.67 1581.6 1018.33 1581.6 Q1015.25 1581.6 1012.51 1581.13 Q1009.77 1580.68 1007.19 1579.72 L1007.19 1574.03 Q1009.77 1575.43 1012.29 1576.1 Q1014.8 1576.76 1017.41 1576.76 Q1023.17 1576.76 1026.04 1573.74 Q1028.9 1570.75 1028.9 1564.67 L1028.9 1561.77 Q1027.09 1564.92 1024.25 1566.48 Q1021.42 1568.04 1017.47 1568.04 Q1010.92 1568.04 1006.91 1563.05 Q1002.9 1558.05 1002.9 1549.81 Q1002.9 1541.53 1006.91 1536.53 Q1010.92 1531.54 1017.47 1531.54 Q1021.42 1531.54 1024.25 1533.1 Q1027.09 1534.66 1028.9 1537.81 L1028.9 1532.4 L1034.76 1532.4 L1034.76 1563.62 Z" fill="#000000" fill-rule="evenodd" fill-opacity="1" /><path clip-path="url(#clip110)" d="M1077.31 1548.76 L1077.31 1551.62 L1050.38 1551.62 Q1050.77 1557.67 1054.01 1560.85 Q1057.29 1564 1063.12 1564 Q1066.49 1564 1069.64 1563.17 Q1072.82 1562.35 1075.94 1560.69 L1075.94 1566.23 Q1072.79 1567.57 1069.48 1568.27 Q1066.17 1568.97 1062.77 1568.97 Q1054.24 1568.97 1049.24 1564 Q1044.27 1559.04 1044.27 1550.57 Q1044.27 1541.82 1048.98 1536.69 Q1053.73 1531.54 1061.75 1531.54 Q1068.94 1531.54 1073.11 1536.18 Q1077.31 1540.8 1077.31 1548.76 M1071.46 1547.04 Q1071.39 1542.23 1068.75 1539.37 Q1066.14 1536.5 1061.81 1536.5 Q1056.91 1536.5 1053.95 1539.27 Q1051.02 1542.04 1050.58 1547.07 L1071.46 1547.04 Z" fill="#000000" fill-rule="evenodd" fill-opacity="1" /><path clip-path="url(#clip110)" d="M1107.64 1532.4 L1113.5 1532.4 L1113.5 1568.04 L1107.64 1568.04 L1107.64 1532.4 M1107.64 1518.52 L1113.5 1518.52 L1113.5 1525.93 L1107.64 1525.93 L1107.64 1518.52 Z" fill="#000000" fill-rule="evenodd" fill-opacity="1" /><path clip-path="url(#clip110)" d="M1155.39 1546.53 L1155.39 1568.04 L1149.53 1568.04 L1149.53 1546.72 Q1149.53 1541.66 1147.56 1539.14 Q1145.58 1536.63 1141.64 1536.63 Q1136.89 1536.63 1134.16 1539.65 Q1131.42 1542.68 1131.42 1547.9 L1131.42 1568.04 L1125.53 1568.04 L1125.53 1532.4 L1131.42 1532.4 L1131.42 1537.93 Q1133.52 1534.72 1136.35 1533.13 Q1139.22 1531.54 1142.94 1531.54 Q1149.09 1531.54 1152.24 1535.36 Q1155.39 1539.14 1155.39 1546.53 Z" fill="#000000" fill-rule="evenodd" fill-opacity="1" /><path clip-path="url(#clip110)" d="M1211.25 1537.81 L1211.25 1518.52 L1217.1 1518.52 L1217.1 1568.04 L1211.25 1568.04 L1211.25 1562.7 Q1209.4 1565.88 1206.57 1567.44 Q1203.77 1568.97 1199.82 1568.97 Q1193.36 1568.97 1189.28 1563.81 Q1185.24 1558.65 1185.24 1550.25 Q1185.24 1541.85 1189.28 1536.69 Q1193.36 1531.54 1199.82 1531.54 Q1203.77 1531.54 1206.57 1533.1 Q1209.4 1534.62 1211.25 1537.81 M1191.29 1550.25 Q1191.29 1556.71 1193.93 1560.4 Q1196.61 1564.07 1201.25 1564.07 Q1205.9 1564.07 1208.57 1560.4 Q1211.25 1556.71 1211.25 1550.25 Q1211.25 1543.79 1208.57 1540.13 Q1205.9 1536.44 1201.25 1536.44 Q1196.61 1536.44 1193.93 1540.13 Q1191.29 1543.79 1191.29 1550.25 Z" fill="#000000" fill-rule="evenodd" fill-opacity="1" /><path clip-path="url(#clip110)" d="M1229.17 1532.4 L1235.02 1532.4 L1235.02 1568.04 L1229.17 1568.04 L1229.17 1532.4 M1229.17 1518.52 L1235.02 1518.52 L1235.02 1525.93 L1229.17 1525.93 L1229.17 1518.52 Z" fill="#000000" fill-rule="evenodd" fill-opacity="1" /><path clip-path="url(#clip110)" d="M1265.32 1518.52 L1265.32 1523.39 L1259.72 1523.39 Q1256.57 1523.39 1255.33 1524.66 Q1254.12 1525.93 1254.12 1529.24 L1254.12 1532.4 L1263.76 1532.4 L1263.76 1536.95 L1254.12 1536.95 L1254.12 1568.04 L1248.23 1568.04 L1248.23 1536.95 L1242.63 1536.95 L1242.63 1532.4 L1248.23 1532.4 L1248.23 1529.91 Q1248.23 1523.96 1251 1521.26 Q1253.77 1518.52 1259.78 1518.52 L1265.32 1518.52 Z" fill="#000000" fill-rule="evenodd" fill-opacity="1" /><path clip-path="url(#clip110)" d="M1288.27 1518.52 L1288.27 1523.39 L1282.67 1523.39 Q1279.52 1523.39 1278.28 1524.66 Q1277.07 1525.93 1277.07 1529.24 L1277.07 1532.4 L1286.71 1532.4 L1286.71 1536.95 L1277.07 1536.95 L1277.07 1568.04 L1271.18 1568.04 L1271.18 1536.95 L1265.58 1536.95 L1265.58 1532.4 L1271.18 1532.4 L1271.18 1529.91 Q1271.18 1523.96 1273.95 1521.26 Q1276.72 1518.52 1282.73 1518.52 L1288.27 1518.52 Z" fill="#000000" fill-rule="evenodd" fill-opacity="1" /><path clip-path="url(#clip110)" d="M1323.66 1548.76 L1323.66 1551.62 L1296.74 1551.62 Q1297.12 1557.67 1300.37 1560.85 Q1303.64 1564 1309.47 1564 Q1312.84 1564 1315.99 1563.17 Q1319.18 1562.35 1322.3 1560.69 L1322.3 1566.23 Q1319.15 1567.57 1315.83 1568.27 Q1312.52 1568.97 1309.12 1568.97 Q1300.59 1568.97 1295.59 1564 Q1290.63 1559.04 1290.63 1550.57 Q1290.63 1541.82 1295.34 1536.69 Q1300.08 1531.54 1308.1 1531.54 Q1315.29 1531.54 1319.46 1536.18 Q1323.66 1540.8 1323.66 1548.76 M1317.81 1547.04 Q1317.74 1542.23 1315.1 1539.37 Q1312.49 1536.5 1308.16 1536.5 Q1303.26 1536.5 1300.3 1539.27 Q1297.37 1542.04 1296.93 1547.07 L1317.81 1547.04 Z" fill="#000000" fill-rule="evenodd" fill-opacity="1" /><path clip-path="url(#clip110)" d="M1353.93 1537.87 Q1352.95 1537.3 1351.77 1537.04 Q1350.62 1536.76 1349.22 1536.76 Q1344.26 1536.76 1341.58 1540 Q1338.94 1543.22 1338.94 1549.27 L1338.94 1568.04 L1333.05 1568.04 L1333.05 1532.4 L1338.94 1532.4 L1338.94 1537.93 Q1340.79 1534.69 1343.75 1533.13 Q1346.71 1531.54 1350.94 1531.54 Q1351.55 1531.54 1352.28 1531.63 Q1353.01 1531.7 1353.9 1531.85 L1353.93 1537.87 Z" fill="#000000" fill-rule="evenodd" fill-opacity="1" /><path clip-path="url(#clip110)" d="M1389.14 1548.76 L1389.14 1551.62 L1362.21 1551.62 Q1362.59 1557.67 1365.84 1560.85 Q1369.12 1564 1374.94 1564 Q1378.31 1564 1381.47 1563.17 Q1384.65 1562.35 1387.77 1560.69 L1387.77 1566.23 Q1384.62 1567.57 1381.31 1568.27 Q1378 1568.97 1374.59 1568.97 Q1366.06 1568.97 1361.06 1564 Q1356.1 1559.04 1356.1 1550.57 Q1356.1 1541.82 1360.81 1536.69 Q1365.55 1531.54 1373.57 1531.54 Q1380.77 1531.54 1384.93 1536.18 Q1389.14 1540.8 1389.14 1548.76 M1383.28 1547.04 Q1383.22 1542.23 1380.57 1539.37 Q1377.96 1536.5 1373.64 1536.5 Q1368.73 1536.5 1365.77 1539.27 Q1362.85 1542.04 1362.4 1547.07 L1383.28 1547.04 Z" fill="#000000" fill-rule="evenodd" fill-opacity="1" /><path clip-path="url(#clip110)" d="M1428.38 1546.53 L1428.38 1568.04 L1422.52 1568.04 L1422.52 1546.72 Q1422.52 1541.66 1420.55 1539.14 Q1418.58 1536.63 1414.63 1536.63 Q1409.89 1536.63 1407.15 1539.65 Q1404.41 1542.68 1404.41 1547.9 L1404.41 1568.04 L1398.53 1568.04 L1398.53 1532.4 L1404.41 1532.4 L1404.41 1537.93 Q1406.51 1534.72 1409.35 1533.13 Q1412.21 1531.54 1415.94 1531.54 Q1422.08 1531.54 1425.23 1535.36 Q1428.38 1539.14 1428.38 1546.53 Z" fill="#000000" fill-rule="evenodd" fill-opacity="1" /><path clip-path="url(#clip110)" d="M1445.85 1522.27 L1445.85 1532.4 L1457.92 1532.4 L1457.92 1536.95 L1445.85 1536.95 L1445.85 1556.3 Q1445.85 1560.66 1447.03 1561.9 Q1448.24 1563.14 1451.9 1563.14 L1457.92 1563.14 L1457.92 1568.04 L1451.9 1568.04 Q1445.12 1568.04 1442.54 1565.53 Q1439.97 1562.98 1439.97 1556.3 L1439.97 1536.95 L1435.67 1536.95 L1435.67 1532.4 L1439.97 1532.4 L1439.97 1522.27 L1445.85 1522.27 Z" fill="#000000" fill-rule="evenodd" fill-opacity="1" /><path clip-path="url(#clip110)" d="M1492.13 1522.27 L1492.13 1532.4 L1504.2 1532.4 L1504.2 1536.95 L1492.13 1536.95 L1492.13 1556.3 Q1492.13 1560.66 1493.31 1561.9 Q1494.52 1563.14 1498.18 1563.14 L1504.2 1563.14 L1504.2 1568.04 L1498.18 1568.04 Q1491.4 1568.04 1488.82 1565.53 Q1486.24 1562.98 1486.24 1556.3 L1486.24 1536.95 L1481.95 1536.95 L1481.95 1532.4 L1486.24 1532.4 L1486.24 1522.27 L1492.13 1522.27 Z" fill="#000000" fill-rule="evenodd" fill-opacity="1" /><path clip-path="url(#clip110)" d="M1511.9 1532.4 L1517.76 1532.4 L1517.76 1568.04 L1511.9 1568.04 L1511.9 1532.4 M1511.9 1518.52 L1517.76 1518.52 L1517.76 1525.93 L1511.9 1525.93 L1511.9 1518.52 Z" fill="#000000" fill-rule="evenodd" fill-opacity="1" /><path clip-path="url(#clip110)" d="M1530.01 1518.52 L1535.87 1518.52 L1535.87 1568.04 L1530.01 1568.04 L1530.01 1518.52 Z" fill="#000000" fill-rule="evenodd" fill-opacity="1" /><path clip-path="url(#clip110)" d="M1577.75 1546.53 L1577.75 1568.04 L1571.9 1568.04 L1571.9 1546.72 Q1571.9 1541.66 1569.92 1539.14 Q1567.95 1536.63 1564 1536.63 Q1559.26 1536.63 1556.52 1539.65 Q1553.78 1542.68 1553.78 1547.9 L1553.78 1568.04 L1547.9 1568.04 L1547.9 1532.4 L1553.78 1532.4 L1553.78 1537.93 Q1555.89 1534.72 1558.72 1533.13 Q1561.58 1531.54 1565.31 1531.54 Q1571.45 1531.54 1574.6 1535.36 Q1577.75 1539.14 1577.75 1546.53 Z" fill="#000000" fill-rule="evenodd" fill-opacity="1" /><path clip-path="url(#clip110)" d="M1603.25 1536.5 Q1598.54 1536.5 1595.8 1540.19 Q1593.06 1543.85 1593.06 1550.25 Q1593.06 1556.65 1595.77 1560.34 Q1598.5 1564 1603.25 1564 Q1607.93 1564 1610.66 1560.31 Q1613.4 1556.62 1613.4 1550.25 Q1613.4 1543.92 1610.66 1540.23 Q1607.93 1536.5 1603.25 1536.5 M1603.25 1531.54 Q1610.89 1531.54 1615.25 1536.5 Q1619.61 1541.47 1619.61 1550.25 Q1619.61 1559 1615.25 1564 Q1610.89 1568.97 1603.25 1568.97 Q1595.58 1568.97 1591.22 1564 Q1586.89 1559 1586.89 1550.25 Q1586.89 1541.47 1591.22 1536.5 Q1595.58 1531.54 1603.25 1531.54 Z" fill="#000000" fill-rule="evenodd" fill-opacity="1" /><path clip-path="url(#clip110)" d="M1625.11 1532.4 L1631.32 1532.4 L1642.46 1562.31 L1653.6 1532.4 L1659.81 1532.4 L1646.44 1568.04 L1638.48 1568.04 L1625.11 1532.4 Z" fill="#000000" fill-rule="evenodd" fill-opacity="1" /><path clip-path="url(#clip110)" d="M1691.35 1537.81 L1691.35 1518.52 L1697.2 1518.52 L1697.2 1568.04 L1691.35 1568.04 L1691.35 1562.7 Q1689.5 1565.88 1686.67 1567.44 Q1683.87 1568.97 1679.92 1568.97 Q1673.46 1568.97 1669.39 1563.81 Q1665.34 1558.65 1665.34 1550.25 Q1665.34 1541.85 1669.39 1536.69 Q1673.46 1531.54 1679.92 1531.54 Q1683.87 1531.54 1686.67 1533.1 Q1689.5 1534.62 1691.35 1537.81 M1671.39 1550.25 Q1671.39 1556.71 1674.03 1560.4 Q1676.71 1564.07 1681.35 1564.07 Q1686 1564.07 1688.67 1560.4 Q1691.35 1556.71 1691.35 1550.25 Q1691.35 1543.79 1688.67 1540.13 Q1686 1536.44 1681.35 1536.44 Q1676.71 1536.44 1674.03 1540.13 Q1671.39 1543.79 1671.39 1550.25 Z" fill="#000000" fill-rule="evenodd" fill-opacity="1" /><path clip-path="url(#clip110)" d="M1739.76 1548.76 L1739.76 1551.62 L1712.83 1551.62 Q1713.21 1557.67 1716.46 1560.85 Q1719.74 1564 1725.56 1564 Q1728.94 1564 1732.09 1563.17 Q1735.27 1562.35 1738.39 1560.69 L1738.39 1566.23 Q1735.24 1567.57 1731.93 1568.27 Q1728.62 1568.97 1725.21 1568.97 Q1716.68 1568.97 1711.69 1564 Q1706.72 1559.04 1706.72 1550.57 Q1706.72 1541.82 1711.43 1536.69 Q1716.17 1531.54 1724.19 1531.54 Q1731.39 1531.54 1735.56 1536.18 Q1739.76 1540.8 1739.76 1548.76 M1733.9 1547.04 Q1733.84 1542.23 1731.2 1539.37 Q1728.59 1536.5 1724.26 1536.5 Q1719.36 1536.5 1716.4 1539.27 Q1713.47 1542.04 1713.02 1547.07 L1733.9 1547.04 Z" fill="#000000" fill-rule="evenodd" fill-opacity="1" /><path clip-path="url(#clip110)" d="M1775.03 1533.76 L1775.03 1539.24 Q1772.54 1537.87 1770.03 1537.2 Q1767.55 1536.5 1765 1536.5 Q1759.3 1536.5 1756.15 1540.13 Q1753 1543.73 1753 1550.25 Q1753 1556.78 1756.15 1560.4 Q1759.3 1564 1765 1564 Q1767.55 1564 1770.03 1563.33 Q1772.54 1562.63 1775.03 1561.26 L1775.03 1566.68 Q1772.57 1567.82 1769.93 1568.39 Q1767.32 1568.97 1764.36 1568.97 Q1756.31 1568.97 1751.57 1563.91 Q1746.83 1558.85 1746.83 1550.25 Q1746.83 1541.53 1751.6 1536.53 Q1756.41 1531.54 1764.74 1531.54 Q1767.45 1531.54 1770.03 1532.11 Q1772.61 1532.65 1775.03 1533.76 Z" fill="#000000" fill-rule="evenodd" fill-opacity="1" /><polyline clip-path="url(#clip112)" style="stroke:#000000; stroke-linecap:round; stroke-linejoin:round; stroke-width:2; stroke-opacity:0.1; fill:none" points="
  305.618,1384.24 2352.76,1384.24 
  "/>
<polyline clip-path="url(#clip112)" style="stroke:#000000; stroke-linecap:round; stroke-linejoin:round; stroke-width:2; stroke-opacity:0.1; fill:none" points="
  305.618,1189.26 2352.76,1189.26 
  "/>
<polyline clip-path="url(#clip112)" style="stroke:#000000; stroke-linecap:round; stroke-linejoin:round; stroke-width:2; stroke-opacity:0.1; fill:none" points="
  305.618,994.286 2352.76,994.286 
  "/>
<polyline clip-path="url(#clip112)" style="stroke:#000000; stroke-linecap:round; stroke-linejoin:round; stroke-width:2; stroke-opacity:0.1; fill:none" points="
  305.618,799.31 2352.76,799.31 
  "/>
<polyline clip-path="url(#clip112)" style="stroke:#000000; stroke-linecap:round; stroke-linejoin:round; stroke-width:2; stroke-opacity:0.1; fill:none" points="
  305.618,604.334 2352.76,604.334 
  "/>
<polyline clip-path="url(#clip112)" style="stroke:#000000; stroke-linecap:round; stroke-linejoin:round; stroke-width:2; stroke-opacity:0.1; fill:none" points="
  305.618,409.358 2352.76,409.358 
  "/>
<polyline clip-path="url(#clip112)" style="stroke:#000000; stroke-linecap:round; stroke-linejoin:round; stroke-width:2; stroke-opacity:0.1; fill:none" points="
  305.618,214.382 2352.76,214.382 
  "/>
<polyline clip-path="url(#clip110)" style="stroke:#000000; stroke-linecap:round; stroke-linejoin:round; stroke-width:4; stroke-opacity:1; fill:none" points="
  305.618,1423.18 305.618,47.2441 
  "/>
<polyline clip-path="url(#clip110)" style="stroke:#000000; stroke-linecap:round; stroke-linejoin:round; stroke-width:4; stroke-opacity:1; fill:none" points="
  305.618,1384.24 324.516,1384.24 
  "/>
<polyline clip-path="url(#clip110)" style="stroke:#000000; stroke-linecap:round; stroke-linejoin:round; stroke-width:4; stroke-opacity:1; fill:none" points="
  305.618,1189.26 324.516,1189.26 
  "/>
<polyline clip-path="url(#clip110)" style="stroke:#000000; stroke-linecap:round; stroke-linejoin:round; stroke-width:4; stroke-opacity:1; fill:none" points="
  305.618,994.286 324.516,994.286 
  "/>
<polyline clip-path="url(#clip110)" style="stroke:#000000; stroke-linecap:round; stroke-linejoin:round; stroke-width:4; stroke-opacity:1; fill:none" points="
  305.618,799.31 324.516,799.31 
  "/>
<polyline clip-path="url(#clip110)" style="stroke:#000000; stroke-linecap:round; stroke-linejoin:round; stroke-width:4; stroke-opacity:1; fill:none" points="
  305.618,604.334 324.516,604.334 
  "/>
<polyline clip-path="url(#clip110)" style="stroke:#000000; stroke-linecap:round; stroke-linejoin:round; stroke-width:4; stroke-opacity:1; fill:none" points="
  305.618,409.358 324.516,409.358 
  "/>
<polyline clip-path="url(#clip110)" style="stroke:#000000; stroke-linecap:round; stroke-linejoin:round; stroke-width:4; stroke-opacity:1; fill:none" points="
  305.618,214.382 324.516,214.382 
  "/>
<path clip-path="url(#clip110)" d="M257.674 1370.04 Q254.063 1370.04 252.234 1373.6 Q250.428 1377.14 250.428 1384.27 Q250.428 1391.38 252.234 1394.94 Q254.063 1398.49 257.674 1398.49 Q261.308 1398.49 263.113 1394.94 Q264.942 1391.38 264.942 1384.27 Q264.942 1377.14 263.113 1373.6 Q261.308 1370.04 257.674 1370.04 M257.674 1366.33 Q263.484 1366.33 266.539 1370.94 Q269.618 1375.52 269.618 1384.27 Q269.618 1393 266.539 1397.61 Q263.484 1402.19 257.674 1402.19 Q251.863 1402.19 248.785 1397.61 Q245.729 1393 245.729 1384.27 Q245.729 1375.52 248.785 1370.94 Q251.863 1366.33 257.674 1366.33 Z" fill="#000000" fill-rule="evenodd" fill-opacity="1" /><path clip-path="url(#clip110)" d="M57.7745 1209.05 L74.0939 1209.05 L74.0939 1212.99 L52.1495 1212.99 L52.1495 1209.05 Q54.8115 1206.3 59.3949 1201.67 Q64.0013 1197.02 65.1819 1195.68 Q67.4272 1193.15 68.3068 1191.42 Q69.2096 1189.66 69.2096 1187.97 Q69.2096 1185.21 67.2652 1183.48 Q65.3439 1181.74 62.2421 1181.74 Q60.043 1181.74 57.5893 1182.5 Q55.1588 1183.27 52.381 1184.82 L52.381 1180.1 Q55.2051 1178.96 57.6588 1178.38 Q60.1124 1177.8 62.1495 1177.8 Q67.5198 1177.8 70.7142 1180.49 Q73.9087 1183.18 73.9087 1187.67 Q73.9087 1189.8 73.0985 1191.72 Q72.3115 1193.61 70.205 1196.21 Q69.6263 1196.88 66.5245 1200.1 Q63.4226 1203.29 57.7745 1209.05 Z" fill="#000000" fill-rule="evenodd" fill-opacity="1" /><path clip-path="url(#clip110)" d="M83.9086 1207.11 L88.7928 1207.11 L88.7928 1212.99 L83.9086 1212.99 L83.9086 1207.11 Z" fill="#000000" fill-rule="evenodd" fill-opacity="1" /><path clip-path="url(#clip110)" d="M108.978 1181.51 Q105.367 1181.51 103.538 1185.07 Q101.733 1188.62 101.733 1195.74 Q101.733 1202.85 103.538 1206.42 Q105.367 1209.96 108.978 1209.96 Q112.612 1209.96 114.418 1206.42 Q116.246 1202.85 116.246 1195.74 Q116.246 1188.62 114.418 1185.07 Q112.612 1181.51 108.978 1181.51 M108.978 1177.8 Q114.788 1177.8 117.844 1182.41 Q120.922 1186.99 120.922 1195.74 Q120.922 1204.47 117.844 1209.08 Q114.788 1213.66 108.978 1213.66 Q103.168 1213.66 100.089 1209.08 Q97.0335 1204.47 97.0335 1195.74 Q97.0335 1186.99 100.089 1182.41 Q103.168 1177.8 108.978 1177.8 Z" fill="#000000" fill-rule="evenodd" fill-opacity="1" /><path clip-path="url(#clip110)" d="M139.14 1181.51 Q135.529 1181.51 133.7 1185.07 Q131.894 1188.62 131.894 1195.74 Q131.894 1202.85 133.7 1206.42 Q135.529 1209.96 139.14 1209.96 Q142.774 1209.96 144.58 1206.42 Q146.408 1202.85 146.408 1195.74 Q146.408 1188.62 144.58 1185.07 Q142.774 1181.51 139.14 1181.51 M139.14 1177.8 Q144.95 1177.8 148.005 1182.41 Q151.084 1186.99 151.084 1195.74 Q151.084 1204.47 148.005 1209.08 Q144.95 1213.66 139.14 1213.66 Q133.33 1213.66 130.251 1209.08 Q127.195 1204.47 127.195 1195.74 Q127.195 1186.99 130.251 1182.41 Q133.33 1177.8 139.14 1177.8 Z" fill="#000000" fill-rule="evenodd" fill-opacity="1" /><path clip-path="url(#clip110)" d="M187.473 1187.53 L176.894 1198.15 L187.473 1208.73 L184.718 1211.53 L174.093 1200.91 L163.468 1211.53 L160.737 1208.73 L171.292 1198.15 L160.737 1187.53 L163.468 1184.73 L174.093 1195.35 L184.718 1184.73 L187.473 1187.53 Z" fill="#000000" fill-rule="evenodd" fill-opacity="1" /><path clip-path="url(#clip110)" d="M199.834 1209.05 L207.473 1209.05 L207.473 1182.69 L199.163 1184.36 L199.163 1180.1 L207.426 1178.43 L212.102 1178.43 L212.102 1209.05 L219.741 1209.05 L219.741 1212.99 L199.834 1212.99 L199.834 1209.05 Z" fill="#000000" fill-rule="evenodd" fill-opacity="1" /><path clip-path="url(#clip110)" d="M239.186 1181.51 Q235.574 1181.51 233.746 1185.07 Q231.94 1188.62 231.94 1195.74 Q231.94 1202.85 233.746 1206.42 Q235.574 1209.96 239.186 1209.96 Q242.82 1209.96 244.625 1206.42 Q246.454 1202.85 246.454 1195.74 Q246.454 1188.62 244.625 1185.07 Q242.82 1181.51 239.186 1181.51 M239.186 1177.8 Q244.996 1177.8 248.051 1182.41 Q251.13 1186.99 251.13 1195.74 Q251.13 1204.47 248.051 1209.08 Q244.996 1213.66 239.186 1213.66 Q233.375 1213.66 230.297 1209.08 Q227.241 1204.47 227.241 1195.74 Q227.241 1186.99 230.297 1182.41 Q233.375 1177.8 239.186 1177.8 Z" fill="#000000" fill-rule="evenodd" fill-opacity="1" /><path clip-path="url(#clip110)" d="M263.825 1170.44 Q266.552 1171.02 268.076 1172.87 Q269.618 1174.71 269.618 1177.42 Q269.618 1181.57 266.759 1183.85 Q263.9 1186.12 258.634 1186.12 Q256.866 1186.12 254.986 1185.77 Q253.124 1185.43 251.13 1184.73 L251.13 1181.07 Q252.71 1181.99 254.591 1182.46 Q256.471 1182.93 258.521 1182.93 Q262.095 1182.93 263.957 1181.52 Q265.838 1180.11 265.838 1177.42 Q265.838 1174.93 264.088 1173.54 Q262.358 1172.13 259.255 1172.13 L255.982 1172.13 L255.982 1169.01 L259.405 1169.01 Q262.208 1169.01 263.694 1167.9 Q265.179 1166.77 265.179 1164.67 Q265.179 1162.5 263.637 1161.36 Q262.114 1160.19 259.255 1160.19 Q257.694 1160.19 255.907 1160.53 Q254.12 1160.87 251.976 1161.58 L251.976 1158.2 Q254.139 1157.59 256.02 1157.29 Q257.92 1156.99 259.593 1156.99 Q263.919 1156.99 266.439 1158.97 Q268.96 1160.92 268.96 1164.27 Q268.96 1166.6 267.624 1168.22 Q266.289 1169.82 263.825 1170.44 Z" fill="#000000" fill-rule="evenodd" fill-opacity="1" /><path clip-path="url(#clip110)" d="M66.5939 987.528 L54.7884 1005.98 L66.5939 1005.98 L66.5939 987.528 M65.367 983.454 L71.2466 983.454 L71.2466 1005.98 L76.1772 1005.98 L76.1772 1009.87 L71.2466 1009.87 L71.2466 1018.01 L66.5939 1018.01 L66.5939 1009.87 L50.9921 1009.87 L50.9921 1005.35 L65.367 983.454 Z" fill="#000000" fill-rule="evenodd" fill-opacity="1" /><path clip-path="url(#clip110)" d="M83.9086 1012.13 L88.7928 1012.13 L88.7928 1018.01 L83.9086 1018.01 L83.9086 1012.13 Z" fill="#000000" fill-rule="evenodd" fill-opacity="1" /><path clip-path="url(#clip110)" d="M108.978 986.533 Q105.367 986.533 103.538 990.097 Q101.733 993.639 101.733 1000.77 Q101.733 1007.88 103.538 1011.44 Q105.367 1014.98 108.978 1014.98 Q112.612 1014.98 114.418 1011.44 Q116.246 1007.88 116.246 1000.77 Q116.246 993.639 114.418 990.097 Q112.612 986.533 108.978 986.533 M108.978 982.829 Q114.788 982.829 117.844 987.435 Q120.922 992.019 120.922 1000.77 Q120.922 1009.5 117.844 1014.1 Q114.788 1018.69 108.978 1018.69 Q103.168 1018.69 100.089 1014.1 Q97.0335 1009.5 97.0335 1000.77 Q97.0335 992.019 100.089 987.435 Q103.168 982.829 108.978 982.829 Z" fill="#000000" fill-rule="evenodd" fill-opacity="1" /><path clip-path="url(#clip110)" d="M139.14 986.533 Q135.529 986.533 133.7 990.097 Q131.894 993.639 131.894 1000.77 Q131.894 1007.88 133.7 1011.44 Q135.529 1014.98 139.14 1014.98 Q142.774 1014.98 144.58 1011.44 Q146.408 1007.88 146.408 1000.77 Q146.408 993.639 144.58 990.097 Q142.774 986.533 139.14 986.533 M139.14 982.829 Q144.95 982.829 148.005 987.435 Q151.084 992.019 151.084 1000.77 Q151.084 1009.5 148.005 1014.1 Q144.95 1018.69 139.14 1018.69 Q133.33 1018.69 130.251 1014.1 Q127.195 1009.5 127.195 1000.77 Q127.195 992.019 130.251 987.435 Q133.33 982.829 139.14 982.829 Z" fill="#000000" fill-rule="evenodd" fill-opacity="1" /><path clip-path="url(#clip110)" d="M187.473 992.551 L176.894 1003.18 L187.473 1013.75 L184.718 1016.56 L174.093 1005.93 L163.468 1016.56 L160.737 1013.75 L171.292 1003.18 L160.737 992.551 L163.468 989.75 L174.093 1000.38 L184.718 989.75 L187.473 992.551 Z" fill="#000000" fill-rule="evenodd" fill-opacity="1" /><path clip-path="url(#clip110)" d="M199.834 1014.08 L207.473 1014.08 L207.473 987.713 L199.163 989.38 L199.163 985.121 L207.426 983.454 L212.102 983.454 L212.102 1014.08 L219.741 1014.08 L219.741 1018.01 L199.834 1018.01 L199.834 1014.08 Z" fill="#000000" fill-rule="evenodd" fill-opacity="1" /><path clip-path="url(#clip110)" d="M239.186 986.533 Q235.574 986.533 233.746 990.097 Q231.94 993.639 231.94 1000.77 Q231.94 1007.88 233.746 1011.44 Q235.574 1014.98 239.186 1014.98 Q242.82 1014.98 244.625 1011.44 Q246.454 1007.88 246.454 1000.77 Q246.454 993.639 244.625 990.097 Q242.82 986.533 239.186 986.533 M239.186 982.829 Q244.996 982.829 248.051 987.435 Q251.13 992.019 251.13 1000.77 Q251.13 1009.5 248.051 1014.1 Q244.996 1018.69 239.186 1018.69 Q233.375 1018.69 230.297 1014.1 Q227.241 1009.5 227.241 1000.77 Q227.241 992.019 230.297 987.435 Q233.375 982.829 239.186 982.829 Z" fill="#000000" fill-rule="evenodd" fill-opacity="1" /><path clip-path="url(#clip110)" d="M263.825 975.463 Q266.552 976.046 268.076 977.889 Q269.618 979.733 269.618 982.441 Q269.618 986.597 266.759 988.873 Q263.9 991.149 258.634 991.149 Q256.866 991.149 254.986 990.792 Q253.124 990.453 251.13 989.757 L251.13 986.09 Q252.71 987.011 254.591 987.481 Q256.471 987.952 258.521 987.952 Q262.095 987.952 263.957 986.541 Q265.838 985.13 265.838 982.441 Q265.838 979.958 264.088 978.567 Q262.358 977.156 259.255 977.156 L255.982 977.156 L255.982 974.034 L259.405 974.034 Q262.208 974.034 263.694 972.924 Q265.179 971.796 265.179 969.689 Q265.179 967.526 263.637 966.379 Q262.114 965.213 259.255 965.213 Q257.694 965.213 255.907 965.552 Q254.12 965.89 251.976 966.605 L251.976 963.219 Q254.139 962.618 256.02 962.317 Q257.92 962.016 259.593 962.016 Q263.919 962.016 266.439 963.991 Q268.96 965.947 268.96 969.294 Q268.96 971.626 267.624 973.244 Q266.289 974.843 263.825 975.463 Z" fill="#000000" fill-rule="evenodd" fill-opacity="1" /><path clip-path="url(#clip110)" d="M64.3254 803.895 Q61.1773 803.895 59.3254 806.047 Q57.4967 808.2 57.4967 811.95 Q57.4967 815.677 59.3254 817.853 Q61.1773 820.006 64.3254 820.006 Q67.4735 820.006 69.3022 817.853 Q71.1541 815.677 71.1541 811.95 Q71.1541 808.2 69.3022 806.047 Q67.4735 803.895 64.3254 803.895 M73.6077 789.242 L73.6077 793.501 Q71.8485 792.668 70.0429 792.228 Q68.2606 791.788 66.5013 791.788 Q61.8717 791.788 59.418 794.913 Q56.9875 798.038 56.6402 804.357 Q58.006 802.344 60.0662 801.279 Q62.1263 800.191 64.6032 800.191 Q69.8115 800.191 72.8207 803.362 Q75.8531 806.51 75.8531 811.95 Q75.8531 817.274 72.705 820.492 Q69.5568 823.709 64.3254 823.709 Q58.33 823.709 55.1588 819.126 Q51.9875 814.519 51.9875 805.793 Q51.9875 797.598 55.8764 792.737 Q59.7652 787.853 66.3161 787.853 Q68.0754 787.853 69.8578 788.2 Q71.6633 788.547 73.6077 789.242 Z" fill="#000000" fill-rule="evenodd" fill-opacity="1" /><path clip-path="url(#clip110)" d="M83.9086 817.158 L88.7928 817.158 L88.7928 823.038 L83.9086 823.038 L83.9086 817.158 Z" fill="#000000" fill-rule="evenodd" fill-opacity="1" /><path clip-path="url(#clip110)" d="M108.978 791.557 Q105.367 791.557 103.538 795.121 Q101.733 798.663 101.733 805.793 Q101.733 812.899 103.538 816.464 Q105.367 820.006 108.978 820.006 Q112.612 820.006 114.418 816.464 Q116.246 812.899 116.246 805.793 Q116.246 798.663 114.418 795.121 Q112.612 791.557 108.978 791.557 M108.978 787.853 Q114.788 787.853 117.844 792.459 Q120.922 797.043 120.922 805.793 Q120.922 814.519 117.844 819.126 Q114.788 823.709 108.978 823.709 Q103.168 823.709 100.089 819.126 Q97.0335 814.519 97.0335 805.793 Q97.0335 797.043 100.089 792.459 Q103.168 787.853 108.978 787.853 Z" fill="#000000" fill-rule="evenodd" fill-opacity="1" /><path clip-path="url(#clip110)" d="M139.14 791.557 Q135.529 791.557 133.7 795.121 Q131.894 798.663 131.894 805.793 Q131.894 812.899 133.7 816.464 Q135.529 820.006 139.14 820.006 Q142.774 820.006 144.58 816.464 Q146.408 812.899 146.408 805.793 Q146.408 798.663 144.58 795.121 Q142.774 791.557 139.14 791.557 M139.14 787.853 Q144.95 787.853 148.005 792.459 Q151.084 797.043 151.084 805.793 Q151.084 814.519 148.005 819.126 Q144.95 823.709 139.14 823.709 Q133.33 823.709 130.251 819.126 Q127.195 814.519 127.195 805.793 Q127.195 797.043 130.251 792.459 Q133.33 787.853 139.14 787.853 Z" fill="#000000" fill-rule="evenodd" fill-opacity="1" /><path clip-path="url(#clip110)" d="M187.473 797.575 L176.894 808.2 L187.473 818.779 L184.718 821.58 L174.093 810.955 L163.468 821.58 L160.737 818.779 L171.292 808.2 L160.737 797.575 L163.468 794.774 L174.093 805.399 L184.718 794.774 L187.473 797.575 Z" fill="#000000" fill-rule="evenodd" fill-opacity="1" /><path clip-path="url(#clip110)" d="M199.834 819.103 L207.473 819.103 L207.473 792.737 L199.163 794.404 L199.163 790.145 L207.426 788.478 L212.102 788.478 L212.102 819.103 L219.741 819.103 L219.741 823.038 L199.834 823.038 L199.834 819.103 Z" fill="#000000" fill-rule="evenodd" fill-opacity="1" /><path clip-path="url(#clip110)" d="M239.186 791.557 Q235.574 791.557 233.746 795.121 Q231.94 798.663 231.94 805.793 Q231.94 812.899 233.746 816.464 Q235.574 820.006 239.186 820.006 Q242.82 820.006 244.625 816.464 Q246.454 812.899 246.454 805.793 Q246.454 798.663 244.625 795.121 Q242.82 791.557 239.186 791.557 M239.186 787.853 Q244.996 787.853 248.051 792.459 Q251.13 797.043 251.13 805.793 Q251.13 814.519 248.051 819.126 Q244.996 823.709 239.186 823.709 Q233.375 823.709 230.297 819.126 Q227.241 814.519 227.241 805.793 Q227.241 797.043 230.297 792.459 Q233.375 787.853 239.186 787.853 Z" fill="#000000" fill-rule="evenodd" fill-opacity="1" /><path clip-path="url(#clip110)" d="M263.825 780.487 Q266.552 781.07 268.076 782.913 Q269.618 784.757 269.618 787.465 Q269.618 791.621 266.759 793.897 Q263.9 796.173 258.634 796.173 Q256.866 796.173 254.986 795.816 Q253.124 795.477 251.13 794.781 L251.13 791.114 Q252.71 792.035 254.591 792.505 Q256.471 792.976 258.521 792.976 Q262.095 792.976 263.957 791.565 Q265.838 790.154 265.838 787.465 Q265.838 784.982 264.088 783.591 Q262.358 782.18 259.255 782.18 L255.982 782.18 L255.982 779.058 L259.405 779.058 Q262.208 779.058 263.694 777.948 Q265.179 776.82 265.179 774.713 Q265.179 772.55 263.637 771.403 Q262.114 770.237 259.255 770.237 Q257.694 770.237 255.907 770.576 Q254.12 770.914 251.976 771.629 L251.976 768.243 Q254.139 767.642 256.02 767.341 Q257.92 767.04 259.593 767.04 Q263.919 767.04 266.439 769.015 Q268.96 770.971 268.96 774.318 Q268.96 776.65 267.624 778.268 Q266.289 779.867 263.825 780.487 Z" fill="#000000" fill-rule="evenodd" fill-opacity="1" /><path clip-path="url(#clip110)" d="M63.7467 611.65 Q60.4134 611.65 58.4921 613.432 Q56.5939 615.215 56.5939 618.34 Q56.5939 621.465 58.4921 623.247 Q60.4134 625.03 63.7467 625.03 Q67.08 625.03 69.0013 623.247 Q70.9226 621.442 70.9226 618.34 Q70.9226 615.215 69.0013 613.432 Q67.1032 611.65 63.7467 611.65 M59.0708 609.659 Q56.0615 608.919 54.3717 606.858 Q52.7051 604.798 52.7051 601.835 Q52.7051 597.692 55.6449 595.284 Q58.6078 592.877 63.7467 592.877 Q68.9087 592.877 71.8485 595.284 Q74.7883 597.692 74.7883 601.835 Q74.7883 604.798 73.0985 606.858 Q71.4318 608.919 68.4457 609.659 Q71.8253 610.446 73.7003 612.738 Q75.5985 615.03 75.5985 618.34 Q75.5985 623.363 72.5198 626.048 Q69.4642 628.733 63.7467 628.733 Q58.0291 628.733 54.9504 626.048 Q51.8949 623.363 51.8949 618.34 Q51.8949 615.03 53.793 612.738 Q55.6912 610.446 59.0708 609.659 M57.3578 602.275 Q57.3578 604.96 59.0245 606.465 Q60.7143 607.969 63.7467 607.969 Q66.7559 607.969 68.4457 606.465 Q70.1587 604.96 70.1587 602.275 Q70.1587 599.59 68.4457 598.085 Q66.7559 596.581 63.7467 596.581 Q60.7143 596.581 59.0245 598.085 Q57.3578 599.59 57.3578 602.275 Z" fill="#000000" fill-rule="evenodd" fill-opacity="1" /><path clip-path="url(#clip110)" d="M83.9086 622.182 L88.7928 622.182 L88.7928 628.062 L83.9086 628.062 L83.9086 622.182 Z" fill="#000000" fill-rule="evenodd" fill-opacity="1" /><path clip-path="url(#clip110)" d="M108.978 596.581 Q105.367 596.581 103.538 600.145 Q101.733 603.687 101.733 610.817 Q101.733 617.923 103.538 621.488 Q105.367 625.03 108.978 625.03 Q112.612 625.03 114.418 621.488 Q116.246 617.923 116.246 610.817 Q116.246 603.687 114.418 600.145 Q112.612 596.581 108.978 596.581 M108.978 592.877 Q114.788 592.877 117.844 597.483 Q120.922 602.067 120.922 610.817 Q120.922 619.543 117.844 624.15 Q114.788 628.733 108.978 628.733 Q103.168 628.733 100.089 624.15 Q97.0335 619.543 97.0335 610.817 Q97.0335 602.067 100.089 597.483 Q103.168 592.877 108.978 592.877 Z" fill="#000000" fill-rule="evenodd" fill-opacity="1" /><path clip-path="url(#clip110)" d="M139.14 596.581 Q135.529 596.581 133.7 600.145 Q131.894 603.687 131.894 610.817 Q131.894 617.923 133.7 621.488 Q135.529 625.03 139.14 625.03 Q142.774 625.03 144.58 621.488 Q146.408 617.923 146.408 610.817 Q146.408 603.687 144.58 600.145 Q142.774 596.581 139.14 596.581 M139.14 592.877 Q144.95 592.877 148.005 597.483 Q151.084 602.067 151.084 610.817 Q151.084 619.543 148.005 624.15 Q144.95 628.733 139.14 628.733 Q133.33 628.733 130.251 624.15 Q127.195 619.543 127.195 610.817 Q127.195 602.067 130.251 597.483 Q133.33 592.877 139.14 592.877 Z" fill="#000000" fill-rule="evenodd" fill-opacity="1" /><path clip-path="url(#clip110)" d="M187.473 602.599 L176.894 613.224 L187.473 623.803 L184.718 626.604 L174.093 615.979 L163.468 626.604 L160.737 623.803 L171.292 613.224 L160.737 602.599 L163.468 599.798 L174.093 610.423 L184.718 599.798 L187.473 602.599 Z" fill="#000000" fill-rule="evenodd" fill-opacity="1" /><path clip-path="url(#clip110)" d="M199.834 624.127 L207.473 624.127 L207.473 597.761 L199.163 599.428 L199.163 595.169 L207.426 593.502 L212.102 593.502 L212.102 624.127 L219.741 624.127 L219.741 628.062 L199.834 628.062 L199.834 624.127 Z" fill="#000000" fill-rule="evenodd" fill-opacity="1" /><path clip-path="url(#clip110)" d="M239.186 596.581 Q235.574 596.581 233.746 600.145 Q231.94 603.687 231.94 610.817 Q231.94 617.923 233.746 621.488 Q235.574 625.03 239.186 625.03 Q242.82 625.03 244.625 621.488 Q246.454 617.923 246.454 610.817 Q246.454 603.687 244.625 600.145 Q242.82 596.581 239.186 596.581 M239.186 592.877 Q244.996 592.877 248.051 597.483 Q251.13 602.067 251.13 610.817 Q251.13 619.543 248.051 624.15 Q244.996 628.733 239.186 628.733 Q233.375 628.733 230.297 624.15 Q227.241 619.543 227.241 610.817 Q227.241 602.067 230.297 597.483 Q233.375 592.877 239.186 592.877 Z" fill="#000000" fill-rule="evenodd" fill-opacity="1" /><path clip-path="url(#clip110)" d="M263.825 585.511 Q266.552 586.094 268.076 587.937 Q269.618 589.781 269.618 592.489 Q269.618 596.645 266.759 598.921 Q263.9 601.197 258.634 601.197 Q256.866 601.197 254.986 600.84 Q253.124 600.501 251.13 599.805 L251.13 596.138 Q252.71 597.059 254.591 597.529 Q256.471 598 258.521 598 Q262.095 598 263.957 596.589 Q265.838 595.178 265.838 592.489 Q265.838 590.006 264.088 588.615 Q262.358 587.204 259.255 587.204 L255.982 587.204 L255.982 584.082 L259.405 584.082 Q262.208 584.082 263.694 582.972 Q265.179 581.844 265.179 579.737 Q265.179 577.574 263.637 576.427 Q262.114 575.261 259.255 575.261 Q257.694 575.261 255.907 575.6 Q254.12 575.938 251.976 576.653 L251.976 573.267 Q254.139 572.666 256.02 572.365 Q257.92 572.064 259.593 572.064 Q263.919 572.064 266.439 574.039 Q268.96 575.995 268.96 579.342 Q268.96 581.675 267.624 583.292 Q266.289 584.891 263.825 585.511 Z" fill="#000000" fill-rule="evenodd" fill-opacity="1" /><path clip-path="url(#clip110)" d="M52.5821 429.151 L60.221 429.151 L60.221 402.785 L51.9108 404.452 L51.9108 400.193 L60.1747 398.526 L64.8506 398.526 L64.8506 429.151 L72.4894 429.151 L72.4894 433.086 L52.5821 433.086 L52.5821 429.151 Z" fill="#000000" fill-rule="evenodd" fill-opacity="1" /><path clip-path="url(#clip110)" d="M81.9338 427.206 L86.818 427.206 L86.818 433.086 L81.9338 433.086 L81.9338 427.206 Z" fill="#000000" fill-rule="evenodd" fill-opacity="1" /><path clip-path="url(#clip110)" d="M107.003 401.605 Q103.392 401.605 101.563 405.169 Q99.7578 408.711 99.7578 415.841 Q99.7578 422.947 101.563 426.512 Q103.392 430.054 107.003 430.054 Q110.637 430.054 112.443 426.512 Q114.272 422.947 114.272 415.841 Q114.272 408.711 112.443 405.169 Q110.637 401.605 107.003 401.605 M107.003 397.901 Q112.813 397.901 115.869 402.507 Q118.947 407.091 118.947 415.841 Q118.947 424.567 115.869 429.174 Q112.813 433.757 107.003 433.757 Q101.193 433.757 98.1143 429.174 Q95.0587 424.567 95.0587 415.841 Q95.0587 407.091 98.1143 402.507 Q101.193 397.901 107.003 397.901 Z" fill="#000000" fill-rule="evenodd" fill-opacity="1" /><path clip-path="url(#clip110)" d="M137.165 401.605 Q133.554 401.605 131.725 405.169 Q129.92 408.711 129.92 415.841 Q129.92 422.947 131.725 426.512 Q133.554 430.054 137.165 430.054 Q140.799 430.054 142.605 426.512 Q144.433 422.947 144.433 415.841 Q144.433 408.711 142.605 405.169 Q140.799 401.605 137.165 401.605 M137.165 397.901 Q142.975 397.901 146.031 402.507 Q149.109 407.091 149.109 415.841 Q149.109 424.567 146.031 429.174 Q142.975 433.757 137.165 433.757 Q131.355 433.757 128.276 429.174 Q125.221 424.567 125.221 415.841 Q125.221 407.091 128.276 402.507 Q131.355 397.901 137.165 397.901 Z" fill="#000000" fill-rule="evenodd" fill-opacity="1" /><path clip-path="url(#clip110)" d="M185.498 407.623 L174.919 418.248 L185.498 428.827 L182.743 431.628 L172.119 421.003 L161.494 431.628 L158.762 428.827 L169.318 418.248 L158.762 407.623 L161.494 404.822 L172.119 415.447 L182.743 404.822 L185.498 407.623 Z" fill="#000000" fill-rule="evenodd" fill-opacity="1" /><path clip-path="url(#clip110)" d="M197.859 429.151 L205.498 429.151 L205.498 402.785 L197.188 404.452 L197.188 400.193 L205.452 398.526 L210.128 398.526 L210.128 429.151 L217.766 429.151 L217.766 433.086 L197.859 433.086 L197.859 429.151 Z" fill="#000000" fill-rule="evenodd" fill-opacity="1" /><path clip-path="url(#clip110)" d="M237.211 401.605 Q233.6 401.605 231.771 405.169 Q229.965 408.711 229.965 415.841 Q229.965 422.947 231.771 426.512 Q233.6 430.054 237.211 430.054 Q240.845 430.054 242.651 426.512 Q244.479 422.947 244.479 415.841 Q244.479 408.711 242.651 405.169 Q240.845 401.605 237.211 401.605 M237.211 397.901 Q243.021 397.901 246.076 402.507 Q249.155 407.091 249.155 415.841 Q249.155 424.567 246.076 429.174 Q243.021 433.757 237.211 433.757 Q231.401 433.757 228.322 429.174 Q225.266 424.567 225.266 415.841 Q225.266 407.091 228.322 402.507 Q231.401 397.901 237.211 397.901 Z" fill="#000000" fill-rule="evenodd" fill-opacity="1" /><path clip-path="url(#clip110)" d="M261.832 380.906 L252.24 395.896 L261.832 395.896 L261.832 380.906 M260.835 377.596 L265.612 377.596 L265.612 395.896 L269.618 395.896 L269.618 399.055 L265.612 399.055 L265.612 405.676 L261.832 405.676 L261.832 399.055 L249.155 399.055 L249.155 395.388 L260.835 377.596 Z" fill="#000000" fill-rule="evenodd" fill-opacity="1" /><path clip-path="url(#clip110)" d="M52.5821 234.175 L60.221 234.175 L60.221 207.809 L51.9108 209.476 L51.9108 205.217 L60.1747 203.55 L64.8506 203.55 L64.8506 234.175 L72.4894 234.175 L72.4894 238.11 L52.5821 238.11 L52.5821 234.175 Z" fill="#000000" fill-rule="evenodd" fill-opacity="1" /><path clip-path="url(#clip110)" d="M81.9338 232.23 L86.818 232.23 L86.818 238.11 L81.9338 238.11 L81.9338 232.23 Z" fill="#000000" fill-rule="evenodd" fill-opacity="1" /><path clip-path="url(#clip110)" d="M101.031 234.175 L117.35 234.175 L117.35 238.11 L95.406 238.11 L95.406 234.175 Q98.068 231.42 102.651 226.791 Q107.258 222.138 108.438 220.795 Q110.684 218.272 111.563 216.536 Q112.466 214.777 112.466 213.087 Q112.466 210.332 110.522 208.596 Q108.6 206.86 105.498 206.86 Q103.299 206.86 100.846 207.624 Q98.4152 208.388 95.6374 209.939 L95.6374 205.217 Q98.4615 204.082 100.915 203.504 Q103.369 202.925 105.406 202.925 Q110.776 202.925 113.971 205.61 Q117.165 208.295 117.165 212.786 Q117.165 214.916 116.355 216.837 Q115.568 218.735 113.461 221.328 Q112.883 221.999 109.781 225.217 Q106.679 228.411 101.031 234.175 Z" fill="#000000" fill-rule="evenodd" fill-opacity="1" /><path clip-path="url(#clip110)" d="M137.165 206.629 Q133.554 206.629 131.725 210.193 Q129.92 213.735 129.92 220.865 Q129.92 227.971 131.725 231.536 Q133.554 235.078 137.165 235.078 Q140.799 235.078 142.605 231.536 Q144.433 227.971 144.433 220.865 Q144.433 213.735 142.605 210.193 Q140.799 206.629 137.165 206.629 M137.165 202.925 Q142.975 202.925 146.031 207.531 Q149.109 212.115 149.109 220.865 Q149.109 229.592 146.031 234.198 Q142.975 238.781 137.165 238.781 Q131.355 238.781 128.276 234.198 Q125.221 229.592 125.221 220.865 Q125.221 212.115 128.276 207.531 Q131.355 202.925 137.165 202.925 Z" fill="#000000" fill-rule="evenodd" fill-opacity="1" /><path clip-path="url(#clip110)" d="M185.498 212.647 L174.919 223.272 L185.498 233.851 L182.743 236.652 L172.119 226.027 L161.494 236.652 L158.762 233.851 L169.318 223.272 L158.762 212.647 L161.494 209.846 L172.119 220.471 L182.743 209.846 L185.498 212.647 Z" fill="#000000" fill-rule="evenodd" fill-opacity="1" /><path clip-path="url(#clip110)" d="M197.859 234.175 L205.498 234.175 L205.498 207.809 L197.188 209.476 L197.188 205.217 L205.452 203.55 L210.128 203.55 L210.128 234.175 L217.766 234.175 L217.766 238.11 L197.859 238.11 L197.859 234.175 Z" fill="#000000" fill-rule="evenodd" fill-opacity="1" /><path clip-path="url(#clip110)" d="M237.211 206.629 Q233.6 206.629 231.771 210.193 Q229.965 213.735 229.965 220.865 Q229.965 227.971 231.771 231.536 Q233.6 235.078 237.211 235.078 Q240.845 235.078 242.651 231.536 Q244.479 227.971 244.479 220.865 Q244.479 213.735 242.651 210.193 Q240.845 206.629 237.211 206.629 M237.211 202.925 Q243.021 202.925 246.076 207.531 Q249.155 212.115 249.155 220.865 Q249.155 229.592 246.076 234.198 Q243.021 238.781 237.211 238.781 Q231.401 238.781 228.322 234.198 Q225.266 229.592 225.266 220.865 Q225.266 212.115 228.322 207.531 Q231.401 202.925 237.211 202.925 Z" fill="#000000" fill-rule="evenodd" fill-opacity="1" /><path clip-path="url(#clip110)" d="M261.832 185.93 L252.24 200.92 L261.832 200.92 L261.832 185.93 M260.835 182.62 L265.612 182.62 L265.612 200.92 L269.618 200.92 L269.618 204.079 L265.612 204.079 L265.612 210.7 L261.832 210.7 L261.832 204.079 L249.155 204.079 L249.155 200.412 L260.835 182.62 Z" fill="#000000" fill-rule="evenodd" fill-opacity="1" /><path clip-path="url(#clip112)" d="
M418.214 779.033 L418.214 1384.24 L669.517 1384.24 L669.517 779.033 L418.214 779.033 L418.214 779.033  Z
  " fill="#009af9" fill-rule="evenodd" fill-opacity="1"/>
<polyline clip-path="url(#clip112)" style="stroke:#000000; stroke-linecap:round; stroke-linejoin:round; stroke-width:4; stroke-opacity:1; fill:none" points="
  418.214,779.033 418.214,1384.24 669.517,1384.24 669.517,779.033 418.214,779.033 
  "/>
<path clip-path="url(#clip112)" d="
M732.343 619.396 L732.343 1384.24 L983.646 1384.24 L983.646 619.396 L732.343 619.396 L732.343 619.396  Z
  " fill="#009af9" fill-rule="evenodd" fill-opacity="1"/>
<polyline clip-path="url(#clip112)" style="stroke:#000000; stroke-linecap:round; stroke-linejoin:round; stroke-width:4; stroke-opacity:1; fill:none" points="
  732.343,619.396 732.343,1384.24 983.646,1384.24 983.646,619.396 732.343,619.396 
  "/>
<path clip-path="url(#clip112)" d="
M1046.47 512.501 L1046.47 1384.24 L1297.77 1384.24 L1297.77 512.501 L1046.47 512.501 L1046.47 512.501  Z
  " fill="#009af9" fill-rule="evenodd" fill-opacity="1"/>
<polyline clip-path="url(#clip112)" style="stroke:#000000; stroke-linecap:round; stroke-linejoin:round; stroke-width:4; stroke-opacity:1; fill:none" points="
  1046.47,512.501 1046.47,1384.24 1297.77,1384.24 1297.77,512.501 1046.47,512.501 
  "/>
<path clip-path="url(#clip112)" d="
M1360.6 332.587 L1360.6 1384.24 L1611.9 1384.24 L1611.9 332.587 L1360.6 332.587 L1360.6 332.587  Z
  " fill="#009af9" fill-rule="evenodd" fill-opacity="1"/>
<polyline clip-path="url(#clip112)" style="stroke:#000000; stroke-linecap:round; stroke-linejoin:round; stroke-width:4; stroke-opacity:1; fill:none" points="
  1360.6,332.587 1360.6,1384.24 1611.9,1384.24 1611.9,332.587 1360.6,332.587 
  "/>
<path clip-path="url(#clip112)" d="
M1674.73 93.936 L1674.73 1384.24 L1926.03 1384.24 L1926.03 93.936 L1674.73 93.936 L1674.73 93.936  Z
  " fill="#009af9" fill-rule="evenodd" fill-opacity="1"/>
<polyline clip-path="url(#clip112)" style="stroke:#000000; stroke-linecap:round; stroke-linejoin:round; stroke-width:4; stroke-opacity:1; fill:none" points="
  1674.73,93.936 1674.73,1384.24 1926.03,1384.24 1926.03,93.936 1674.73,93.936 
  "/>
<path clip-path="url(#clip112)" d="
M1988.86 86.1857 L1988.86 1384.24 L2240.16 1384.24 L2240.16 86.1857 L1988.86 86.1857 L1988.86 86.1857  Z
  " fill="#009af9" fill-rule="evenodd" fill-opacity="1"/>
<polyline clip-path="url(#clip112)" style="stroke:#000000; stroke-linecap:round; stroke-linejoin:round; stroke-width:4; stroke-opacity:1; fill:none" points="
  1988.86,86.1857 1988.86,1384.24 2240.16,1384.24 2240.16,86.1857 1988.86,86.1857 
  "/>
<circle clip-path="url(#clip112)" style="fill:#009af9; stroke:none; fill-opacity:0" cx="543.866" cy="779.033" r="2"/>
<circle clip-path="url(#clip112)" style="fill:#009af9; stroke:none; fill-opacity:0" cx="857.994" cy="619.396" r="2"/>
<circle clip-path="url(#clip112)" style="fill:#009af9; stroke:none; fill-opacity:0" cx="1172.12" cy="512.501" r="2"/>
<circle clip-path="url(#clip112)" style="fill:#009af9; stroke:none; fill-opacity:0" cx="1486.25" cy="332.587" r="2"/>
<circle clip-path="url(#clip112)" style="fill:#009af9; stroke:none; fill-opacity:0" cx="1800.38" cy="93.936" r="2"/>
<circle clip-path="url(#clip112)" style="fill:#009af9; stroke:none; fill-opacity:0" cx="2114.51" cy="86.1857" r="2"/>
</svg>
