<?xml version="1.0" encoding="utf-8"?>
<svg xmlns="http://www.w3.org/2000/svg" xmlns:xlink="http://www.w3.org/1999/xlink" width="600" height="300" viewBox="0 0 2400 1200">
<defs>
  <clipPath id="clip550">
    <rect x="0" y="0" width="2400" height="1200"/>
  </clipPath>
</defs>
<path clip-path="url(#clip550)" d="
M0 1200 L2400 1200 L2400 0 L0 0  Z
  " fill="#ffffff" fill-rule="evenodd" fill-opacity="1"/>
<defs>
  <clipPath id="clip551">
    <rect x="480" y="0" width="1681" height="1200"/>
  </clipPath>
</defs>
<path clip-path="url(#clip550)" d="
M252.407 1047.7 L2352.76 1047.7 L2352.76 108.352 L252.407 108.352  Z
  " fill="#ffffff" fill-rule="evenodd" fill-opacity="1"/>
<defs>
  <clipPath id="clip552">
    <rect x="252" y="108" width="2101" height="940"/>
  </clipPath>
</defs>
<polyline clip-path="url(#clip552)" style="stroke:#000000; stroke-linecap:round; stroke-linejoin:round; stroke-width:2; stroke-opacity:0.1; fill:none" points="
  399.347,1047.7 399.347,108.352 
  "/>
<polyline clip-path="url(#clip552)" style="stroke:#000000; stroke-linecap:round; stroke-linejoin:round; stroke-width:2; stroke-opacity:0.1; fill:none" points="
  835.692,1047.7 835.692,108.352 
  "/>
<polyline clip-path="url(#clip552)" style="stroke:#000000; stroke-linecap:round; stroke-linejoin:round; stroke-width:2; stroke-opacity:0.1; fill:none" points="
  1272.04,1047.7 1272.04,108.352 
  "/>
<polyline clip-path="url(#clip552)" style="stroke:#000000; stroke-linecap:round; stroke-linejoin:round; stroke-width:2; stroke-opacity:0.1; fill:none" points="
  1708.38,1047.7 1708.38,108.352 
  "/>
<polyline clip-path="url(#clip552)" style="stroke:#000000; stroke-linecap:round; stroke-linejoin:round; stroke-width:2; stroke-opacity:0.1; fill:none" points="
  2144.73,1047.7 2144.73,108.352 
  "/>
<polyline clip-path="url(#clip550)" style="stroke:#000000; stroke-linecap:round; stroke-linejoin:round; stroke-width:4; stroke-opacity:1; fill:none" points="
  252.407,1047.7 2352.76,1047.7 
  "/>
<polyline clip-path="url(#clip550)" style="stroke:#000000; stroke-linecap:round; stroke-linejoin:round; stroke-width:4; stroke-opacity:1; fill:none" points="
  399.347,1047.7 399.347,1028.8 
  "/>
<polyline clip-path="url(#clip550)" style="stroke:#000000; stroke-linecap:round; stroke-linejoin:round; stroke-width:4; stroke-opacity:1; fill:none" points="
  835.692,1047.7 835.692,1028.8 
  "/>
<polyline clip-path="url(#clip550)" style="stroke:#000000; stroke-linecap:round; stroke-linejoin:round; stroke-width:4; stroke-opacity:1; fill:none" points="
  1272.04,1047.7 1272.04,1028.8 
  "/>
<polyline clip-path="url(#clip550)" style="stroke:#000000; stroke-linecap:round; stroke-linejoin:round; stroke-width:4; stroke-opacity:1; fill:none" points="
  1708.38,1047.7 1708.38,1028.8 
  "/>
<polyline clip-path="url(#clip550)" style="stroke:#000000; stroke-linecap:round; stroke-linejoin:round; stroke-width:4; stroke-opacity:1; fill:none" points="
  2144.73,1047.7 2144.73,1028.8 
  "/>
<path clip-path="url(#clip550)" d="M307.97 1078.62 Q304.359 1078.62 302.53 1082.18 Q300.725 1085.72 300.725 1092.85 Q300.725 1099.96 302.53 1103.53 Q304.359 1107.07 307.97 1107.07 Q311.605 1107.07 313.41 1103.53 Q315.239 1099.96 315.239 1092.85 Q315.239 1085.72 313.41 1082.18 Q311.605 1078.62 307.97 1078.62 M307.97 1074.91 Q313.78 1074.91 316.836 1079.52 Q319.915 1084.1 319.915 1092.85 Q319.915 1101.58 316.836 1106.19 Q313.78 1110.77 307.97 1110.77 Q302.16 1110.77 299.081 1106.19 Q296.026 1101.58 296.026 1092.85 Q296.026 1084.1 299.081 1079.52 Q302.16 1074.91 307.97 1074.91 Z" fill="#000000" fill-rule="evenodd" fill-opacity="1" /><path clip-path="url(#clip550)" d="M338.132 1078.62 Q334.521 1078.62 332.692 1082.18 Q330.887 1085.72 330.887 1092.85 Q330.887 1099.96 332.692 1103.53 Q334.521 1107.07 338.132 1107.07 Q341.766 1107.07 343.572 1103.53 Q345.401 1099.96 345.401 1092.85 Q345.401 1085.72 343.572 1082.18 Q341.766 1078.62 338.132 1078.62 M338.132 1074.91 Q343.942 1074.91 346.998 1079.52 Q350.077 1084.1 350.077 1092.85 Q350.077 1101.58 346.998 1106.19 Q343.942 1110.77 338.132 1110.77 Q332.322 1110.77 329.243 1106.19 Q326.188 1101.58 326.188 1092.85 Q326.188 1084.1 329.243 1079.52 Q332.322 1074.91 338.132 1074.91 Z" fill="#000000" fill-rule="evenodd" fill-opacity="1" /><path clip-path="url(#clip550)" d="M358.78 1104.22 L363.664 1104.22 L363.664 1110.1 L358.78 1110.1 L358.78 1104.22 M358.78 1085.59 L363.664 1085.59 L363.664 1091.47 L358.78 1091.47 L358.78 1085.59 Z" fill="#000000" fill-rule="evenodd" fill-opacity="1" /><path clip-path="url(#clip550)" d="M384.266 1078.62 Q380.655 1078.62 378.826 1082.18 Q377.021 1085.72 377.021 1092.85 Q377.021 1099.96 378.826 1103.53 Q380.655 1107.07 384.266 1107.07 Q387.9 1107.07 389.706 1103.53 Q391.535 1099.96 391.535 1092.85 Q391.535 1085.72 389.706 1082.18 Q387.9 1078.62 384.266 1078.62 M384.266 1074.91 Q390.076 1074.91 393.132 1079.52 Q396.211 1084.1 396.211 1092.85 Q396.211 1101.58 393.132 1106.19 Q390.076 1110.77 384.266 1110.77 Q378.456 1110.77 375.377 1106.19 Q372.322 1101.58 372.322 1092.85 Q372.322 1084.1 375.377 1079.52 Q378.456 1074.91 384.266 1074.91 Z" fill="#000000" fill-rule="evenodd" fill-opacity="1" /><path clip-path="url(#clip550)" d="M414.428 1078.62 Q410.817 1078.62 408.988 1082.18 Q407.183 1085.72 407.183 1092.85 Q407.183 1099.96 408.988 1103.53 Q410.817 1107.07 414.428 1107.07 Q418.062 1107.07 419.868 1103.53 Q421.697 1099.96 421.697 1092.85 Q421.697 1085.72 419.868 1082.18 Q418.062 1078.62 414.428 1078.62 M414.428 1074.91 Q420.238 1074.91 423.294 1079.52 Q426.372 1084.1 426.372 1092.85 Q426.372 1101.58 423.294 1106.19 Q420.238 1110.77 414.428 1110.77 Q408.618 1110.77 405.539 1106.19 Q402.484 1101.58 402.484 1092.85 Q402.484 1084.1 405.539 1079.52 Q408.618 1074.91 414.428 1074.91 Z" fill="#000000" fill-rule="evenodd" fill-opacity="1" /><path clip-path="url(#clip550)" d="M435.076 1104.22 L439.96 1104.22 L439.96 1110.1 L435.076 1110.1 L435.076 1104.22 M435.076 1085.59 L439.96 1085.59 L439.96 1091.47 L435.076 1091.47 L435.076 1085.59 Z" fill="#000000" fill-rule="evenodd" fill-opacity="1" /><path clip-path="url(#clip550)" d="M460.562 1078.62 Q456.951 1078.62 455.122 1082.18 Q453.317 1085.72 453.317 1092.85 Q453.317 1099.96 455.122 1103.53 Q456.951 1107.07 460.562 1107.07 Q464.196 1107.07 466.002 1103.53 Q467.831 1099.96 467.831 1092.85 Q467.831 1085.72 466.002 1082.18 Q464.196 1078.62 460.562 1078.62 M460.562 1074.91 Q466.372 1074.91 469.428 1079.52 Q472.506 1084.1 472.506 1092.85 Q472.506 1101.58 469.428 1106.19 Q466.372 1110.77 460.562 1110.77 Q454.752 1110.77 451.673 1106.19 Q448.618 1101.58 448.618 1092.85 Q448.618 1084.1 451.673 1079.52 Q454.752 1074.91 460.562 1074.91 Z" fill="#000000" fill-rule="evenodd" fill-opacity="1" /><path clip-path="url(#clip550)" d="M490.724 1078.62 Q487.113 1078.62 485.284 1082.18 Q483.479 1085.72 483.479 1092.85 Q483.479 1099.96 485.284 1103.53 Q487.113 1107.07 490.724 1107.07 Q494.358 1107.07 496.164 1103.53 Q497.992 1099.96 497.992 1092.85 Q497.992 1085.72 496.164 1082.18 Q494.358 1078.62 490.724 1078.62 M490.724 1074.91 Q496.534 1074.91 499.59 1079.52 Q502.668 1084.1 502.668 1092.85 Q502.668 1101.58 499.59 1106.19 Q496.534 1110.77 490.724 1110.77 Q484.914 1110.77 481.835 1106.19 Q478.78 1101.58 478.78 1092.85 Q478.78 1084.1 481.835 1079.52 Q484.914 1074.91 490.724 1074.91 Z" fill="#000000" fill-rule="evenodd" fill-opacity="1" /><path clip-path="url(#clip550)" d="M744.315 1078.62 Q740.704 1078.62 738.876 1082.18 Q737.07 1085.72 737.07 1092.85 Q737.07 1099.96 738.876 1103.53 Q740.704 1107.07 744.315 1107.07 Q747.95 1107.07 749.755 1103.53 Q751.584 1099.96 751.584 1092.85 Q751.584 1085.72 749.755 1082.18 Q747.95 1078.62 744.315 1078.62 M744.315 1074.91 Q750.126 1074.91 753.181 1079.52 Q756.26 1084.1 756.26 1092.85 Q756.26 1101.58 753.181 1106.19 Q750.126 1110.77 744.315 1110.77 Q738.505 1110.77 735.427 1106.19 Q732.371 1101.58 732.371 1092.85 Q732.371 1084.1 735.427 1079.52 Q738.505 1074.91 744.315 1074.91 Z" fill="#000000" fill-rule="evenodd" fill-opacity="1" /><path clip-path="url(#clip550)" d="M764.524 1075.54 L782.88 1075.54 L782.88 1079.48 L768.806 1079.48 L768.806 1087.95 Q769.825 1087.6 770.843 1087.44 Q771.862 1087.25 772.88 1087.25 Q778.667 1087.25 782.047 1090.42 Q785.426 1093.6 785.426 1099.01 Q785.426 1104.59 781.954 1107.69 Q778.482 1110.77 772.163 1110.77 Q769.987 1110.77 767.718 1110.4 Q765.473 1110.03 763.065 1109.29 L763.065 1104.59 Q765.149 1105.72 767.371 1106.28 Q769.593 1106.84 772.07 1106.84 Q776.075 1106.84 778.412 1104.73 Q780.75 1102.62 780.75 1099.01 Q780.75 1095.4 778.412 1093.29 Q776.075 1091.19 772.07 1091.19 Q770.195 1091.19 768.32 1091.6 Q766.468 1092.02 764.524 1092.9 L764.524 1075.54 Z" fill="#000000" fill-rule="evenodd" fill-opacity="1" /><path clip-path="url(#clip550)" d="M795.125 1104.22 L800.01 1104.22 L800.01 1110.1 L795.125 1110.1 L795.125 1104.22 M795.125 1085.59 L800.01 1085.59 L800.01 1091.47 L795.125 1091.47 L795.125 1085.59 Z" fill="#000000" fill-rule="evenodd" fill-opacity="1" /><path clip-path="url(#clip550)" d="M824.778 1091.47 Q828.134 1092.18 830.009 1094.45 Q831.908 1096.72 831.908 1100.05 Q831.908 1105.17 828.389 1107.97 Q824.871 1110.77 818.389 1110.77 Q816.213 1110.77 813.898 1110.33 Q811.607 1109.91 809.153 1109.06 L809.153 1104.54 Q811.097 1105.68 813.412 1106.26 Q815.727 1106.84 818.25 1106.84 Q822.648 1106.84 824.94 1105.1 Q827.255 1103.36 827.255 1100.05 Q827.255 1097 825.102 1095.29 Q822.972 1093.55 819.153 1093.55 L815.125 1093.55 L815.125 1089.71 L819.338 1089.71 Q822.787 1089.71 824.616 1088.34 Q826.445 1086.95 826.445 1084.36 Q826.445 1081.7 824.546 1080.29 Q822.672 1078.85 819.153 1078.85 Q817.232 1078.85 815.033 1079.27 Q812.834 1079.68 810.195 1080.56 L810.195 1076.4 Q812.857 1075.66 815.172 1075.29 Q817.509 1074.91 819.57 1074.91 Q824.894 1074.91 827.996 1077.35 Q831.097 1079.75 831.097 1083.87 Q831.097 1086.74 829.454 1088.73 Q827.81 1090.7 824.778 1091.47 Z" fill="#000000" fill-rule="evenodd" fill-opacity="1" /><path clip-path="url(#clip550)" d="M854.94 1091.47 Q858.296 1092.18 860.171 1094.45 Q862.069 1096.72 862.069 1100.05 Q862.069 1105.17 858.551 1107.97 Q855.032 1110.77 848.551 1110.77 Q846.375 1110.77 844.06 1110.33 Q841.769 1109.91 839.315 1109.06 L839.315 1104.54 Q841.259 1105.68 843.574 1106.26 Q845.889 1106.84 848.412 1106.84 Q852.81 1106.84 855.102 1105.1 Q857.417 1103.36 857.417 1100.05 Q857.417 1097 855.264 1095.29 Q853.134 1093.55 849.315 1093.55 L845.287 1093.55 L845.287 1089.71 L849.5 1089.71 Q852.949 1089.71 854.778 1088.34 Q856.607 1086.95 856.607 1084.36 Q856.607 1081.7 854.708 1080.29 Q852.833 1078.85 849.315 1078.85 Q847.394 1078.85 845.195 1079.27 Q842.995 1079.68 840.357 1080.56 L840.357 1076.4 Q843.019 1075.66 845.333 1075.29 Q847.671 1074.91 849.732 1074.91 Q855.056 1074.91 858.157 1077.35 Q861.259 1079.75 861.259 1083.87 Q861.259 1086.74 859.616 1088.73 Q857.972 1090.7 854.94 1091.47 Z" fill="#000000" fill-rule="evenodd" fill-opacity="1" /><path clip-path="url(#clip550)" d="M871.421 1104.22 L876.305 1104.22 L876.305 1110.1 L871.421 1110.1 L871.421 1104.22 M871.421 1085.59 L876.305 1085.59 L876.305 1091.47 L871.421 1091.47 L871.421 1085.59 Z" fill="#000000" fill-rule="evenodd" fill-opacity="1" /><path clip-path="url(#clip550)" d="M890.935 1106.16 L907.254 1106.16 L907.254 1110.1 L885.31 1110.1 L885.31 1106.16 Q887.972 1103.41 892.555 1098.78 Q897.162 1094.13 898.342 1092.79 Q900.588 1090.26 901.467 1088.53 Q902.37 1086.77 902.37 1085.08 Q902.37 1082.32 900.426 1080.59 Q898.504 1078.85 895.403 1078.85 Q893.204 1078.85 890.75 1079.61 Q888.319 1080.38 885.542 1081.93 L885.542 1077.21 Q888.366 1076.07 890.819 1075.49 Q893.273 1074.91 895.31 1074.91 Q900.68 1074.91 903.875 1077.6 Q907.069 1080.29 907.069 1084.78 Q907.069 1086.91 906.259 1088.83 Q905.472 1090.72 903.366 1093.32 Q902.787 1093.99 899.685 1097.21 Q896.583 1100.4 890.935 1106.16 Z" fill="#000000" fill-rule="evenodd" fill-opacity="1" /><path clip-path="url(#clip550)" d="M927.069 1078.62 Q923.458 1078.62 921.629 1082.18 Q919.824 1085.72 919.824 1092.85 Q919.824 1099.96 921.629 1103.53 Q923.458 1107.07 927.069 1107.07 Q930.703 1107.07 932.509 1103.53 Q934.338 1099.96 934.338 1092.85 Q934.338 1085.72 932.509 1082.18 Q930.703 1078.62 927.069 1078.62 M927.069 1074.91 Q932.879 1074.91 935.935 1079.52 Q939.013 1084.1 939.013 1092.85 Q939.013 1101.58 935.935 1106.19 Q932.879 1110.77 927.069 1110.77 Q921.259 1110.77 918.18 1106.19 Q915.125 1101.58 915.125 1092.85 Q915.125 1084.1 918.18 1079.52 Q921.259 1074.91 927.069 1074.91 Z" fill="#000000" fill-rule="evenodd" fill-opacity="1" /><path clip-path="url(#clip550)" d="M1170.43 1106.16 L1178.07 1106.16 L1178.07 1079.8 L1169.76 1081.47 L1169.76 1077.21 L1178.02 1075.54 L1182.7 1075.54 L1182.7 1106.16 L1190.34 1106.16 L1190.34 1110.1 L1170.43 1110.1 L1170.43 1106.16 Z" fill="#000000" fill-rule="evenodd" fill-opacity="1" /><path clip-path="url(#clip550)" d="M1200.59 1106.16 L1208.23 1106.16 L1208.23 1079.8 L1199.92 1081.47 L1199.92 1077.21 L1208.18 1075.54 L1212.86 1075.54 L1212.86 1106.16 L1220.5 1106.16 L1220.5 1110.1 L1200.59 1110.1 L1200.59 1106.16 Z" fill="#000000" fill-rule="evenodd" fill-opacity="1" /><path clip-path="url(#clip550)" d="M1230.43 1104.22 L1235.31 1104.22 L1235.31 1110.1 L1230.43 1110.1 L1230.43 1104.22 M1230.43 1085.59 L1235.31 1085.59 L1235.31 1091.47 L1230.43 1091.47 L1230.43 1085.59 Z" fill="#000000" fill-rule="evenodd" fill-opacity="1" /><path clip-path="url(#clip550)" d="M1255.91 1078.62 Q1252.3 1078.62 1250.48 1082.18 Q1248.67 1085.72 1248.67 1092.85 Q1248.67 1099.96 1250.48 1103.53 Q1252.3 1107.07 1255.91 1107.07 Q1259.55 1107.07 1261.35 1103.53 Q1263.18 1099.96 1263.18 1092.85 Q1263.18 1085.72 1261.35 1082.18 Q1259.55 1078.62 1255.91 1078.62 M1255.91 1074.91 Q1261.73 1074.91 1264.78 1079.52 Q1267.86 1084.1 1267.86 1092.85 Q1267.86 1101.58 1264.78 1106.19 Q1261.73 1110.77 1255.91 1110.77 Q1250.1 1110.77 1247.03 1106.19 Q1243.97 1101.58 1243.97 1092.85 Q1243.97 1084.1 1247.03 1079.52 Q1250.1 1074.91 1255.91 1074.91 Z" fill="#000000" fill-rule="evenodd" fill-opacity="1" /><path clip-path="url(#clip550)" d="M1286.66 1090.96 Q1283.51 1090.96 1281.66 1093.11 Q1279.83 1095.26 1279.83 1099.01 Q1279.83 1102.74 1281.66 1104.91 Q1283.51 1107.07 1286.66 1107.07 Q1289.8 1107.07 1291.63 1104.91 Q1293.48 1102.74 1293.48 1099.01 Q1293.48 1095.26 1291.63 1093.11 Q1289.8 1090.96 1286.66 1090.96 M1295.94 1076.3 L1295.94 1080.56 Q1294.18 1079.73 1292.37 1079.29 Q1290.59 1078.85 1288.83 1078.85 Q1284.2 1078.85 1281.75 1081.97 Q1279.32 1085.1 1278.97 1091.42 Q1280.34 1089.41 1282.4 1088.34 Q1284.46 1087.25 1286.93 1087.25 Q1292.14 1087.25 1295.15 1090.42 Q1298.18 1093.57 1298.18 1099.01 Q1298.18 1104.34 1295.04 1107.55 Q1291.89 1110.77 1286.66 1110.77 Q1280.66 1110.77 1277.49 1106.19 Q1274.32 1101.58 1274.32 1092.85 Q1274.32 1084.66 1278.21 1079.8 Q1282.1 1074.91 1288.65 1074.91 Q1290.41 1074.91 1292.19 1075.26 Q1293.99 1075.61 1295.94 1076.3 Z" fill="#000000" fill-rule="evenodd" fill-opacity="1" /><path clip-path="url(#clip550)" d="M1306.72 1104.22 L1311.61 1104.22 L1311.61 1110.1 L1306.72 1110.1 L1306.72 1104.22 M1306.72 1085.59 L1311.61 1085.59 L1311.61 1091.47 L1306.72 1091.47 L1306.72 1085.59 Z" fill="#000000" fill-rule="evenodd" fill-opacity="1" /><path clip-path="url(#clip550)" d="M1335.06 1079.61 L1323.25 1098.06 L1335.06 1098.06 L1335.06 1079.61 M1333.83 1075.54 L1339.71 1075.54 L1339.71 1098.06 L1344.64 1098.06 L1344.64 1101.95 L1339.71 1101.95 L1339.71 1110.1 L1335.06 1110.1 L1335.06 1101.95 L1319.46 1101.95 L1319.46 1097.44 L1333.83 1075.54 Z" fill="#000000" fill-rule="evenodd" fill-opacity="1" /><path clip-path="url(#clip550)" d="M1362.37 1078.62 Q1358.76 1078.62 1356.93 1082.18 Q1355.13 1085.72 1355.13 1092.85 Q1355.13 1099.96 1356.93 1103.53 Q1358.76 1107.07 1362.37 1107.07 Q1366.01 1107.07 1367.81 1103.53 Q1369.64 1099.96 1369.64 1092.85 Q1369.64 1085.72 1367.81 1082.18 Q1366.01 1078.62 1362.37 1078.62 M1362.37 1074.91 Q1368.18 1074.91 1371.24 1079.52 Q1374.32 1084.1 1374.32 1092.85 Q1374.32 1101.58 1371.24 1106.19 Q1368.18 1110.77 1362.37 1110.77 Q1356.56 1110.77 1353.48 1106.19 Q1350.43 1101.58 1350.43 1092.85 Q1350.43 1084.1 1353.48 1079.52 Q1356.56 1074.91 1362.37 1074.91 Z" fill="#000000" fill-rule="evenodd" fill-opacity="1" /><path clip-path="url(#clip550)" d="M1606.77 1106.16 L1614.41 1106.16 L1614.41 1079.8 L1606.1 1081.47 L1606.1 1077.21 L1614.37 1075.54 L1619.04 1075.54 L1619.04 1106.16 L1626.68 1106.16 L1626.68 1110.1 L1606.77 1110.1 L1606.77 1106.16 Z" fill="#000000" fill-rule="evenodd" fill-opacity="1" /><path clip-path="url(#clip550)" d="M1646.7 1090.96 Q1643.56 1090.96 1641.7 1093.11 Q1639.88 1095.26 1639.88 1099.01 Q1639.88 1102.74 1641.7 1104.91 Q1643.56 1107.07 1646.7 1107.07 Q1649.85 1107.07 1651.68 1104.91 Q1653.53 1102.74 1653.53 1099.01 Q1653.53 1095.26 1651.68 1093.11 Q1649.85 1090.96 1646.7 1090.96 M1655.99 1076.3 L1655.99 1080.56 Q1654.23 1079.73 1652.42 1079.29 Q1650.64 1078.85 1648.88 1078.85 Q1644.25 1078.85 1641.8 1081.97 Q1639.37 1085.1 1639.02 1091.42 Q1640.39 1089.41 1642.45 1088.34 Q1644.51 1087.25 1646.98 1087.25 Q1652.19 1087.25 1655.2 1090.42 Q1658.23 1093.57 1658.23 1099.01 Q1658.23 1104.34 1655.08 1107.55 Q1651.94 1110.77 1646.7 1110.77 Q1640.71 1110.77 1637.54 1106.19 Q1634.37 1101.58 1634.37 1092.85 Q1634.37 1084.66 1638.26 1079.8 Q1642.14 1074.91 1648.7 1074.91 Q1650.45 1074.91 1652.24 1075.26 Q1654.04 1075.61 1655.99 1076.3 Z" fill="#000000" fill-rule="evenodd" fill-opacity="1" /><path clip-path="url(#clip550)" d="M1666.77 1104.22 L1671.66 1104.22 L1671.66 1110.1 L1666.77 1110.1 L1666.77 1104.22 M1666.77 1085.59 L1671.66 1085.59 L1671.66 1091.47 L1666.77 1091.47 L1666.77 1085.59 Z" fill="#000000" fill-rule="evenodd" fill-opacity="1" /><path clip-path="url(#clip550)" d="M1695.11 1079.61 L1683.3 1098.06 L1695.11 1098.06 L1695.11 1079.61 M1693.88 1075.54 L1699.76 1075.54 L1699.76 1098.06 L1704.69 1098.06 L1704.69 1101.95 L1699.76 1101.95 L1699.76 1110.1 L1695.11 1110.1 L1695.11 1101.95 L1679.51 1101.95 L1679.51 1097.44 L1693.88 1075.54 Z" fill="#000000" fill-rule="evenodd" fill-opacity="1" /><path clip-path="url(#clip550)" d="M1722.42 1078.62 Q1718.81 1078.62 1716.98 1082.18 Q1715.18 1085.72 1715.18 1092.85 Q1715.18 1099.96 1716.98 1103.53 Q1718.81 1107.07 1722.42 1107.07 Q1726.06 1107.07 1727.86 1103.53 Q1729.69 1099.96 1729.69 1092.85 Q1729.69 1085.72 1727.86 1082.18 Q1726.06 1078.62 1722.42 1078.62 M1722.42 1074.91 Q1728.23 1074.91 1731.29 1079.52 Q1734.37 1084.1 1734.37 1092.85 Q1734.37 1101.58 1731.29 1106.19 Q1728.23 1110.77 1722.42 1110.77 Q1716.61 1110.77 1713.53 1106.19 Q1710.48 1101.58 1710.48 1092.85 Q1710.48 1084.1 1713.53 1079.52 Q1716.61 1074.91 1722.42 1074.91 Z" fill="#000000" fill-rule="evenodd" fill-opacity="1" /><path clip-path="url(#clip550)" d="M1743.07 1104.22 L1747.95 1104.22 L1747.95 1110.1 L1743.07 1110.1 L1743.07 1104.22 M1743.07 1085.59 L1747.95 1085.59 L1747.95 1091.47 L1743.07 1091.47 L1743.07 1085.59 Z" fill="#000000" fill-rule="evenodd" fill-opacity="1" /><path clip-path="url(#clip550)" d="M1768.56 1078.62 Q1764.94 1078.62 1763.12 1082.18 Q1761.31 1085.72 1761.31 1092.85 Q1761.31 1099.96 1763.12 1103.53 Q1764.94 1107.07 1768.56 1107.07 Q1772.19 1107.07 1774 1103.53 Q1775.82 1099.96 1775.82 1092.85 Q1775.82 1085.72 1774 1082.18 Q1772.19 1078.62 1768.56 1078.62 M1768.56 1074.91 Q1774.37 1074.91 1777.42 1079.52 Q1780.5 1084.1 1780.5 1092.85 Q1780.5 1101.58 1777.42 1106.19 Q1774.37 1110.77 1768.56 1110.77 Q1762.75 1110.77 1759.67 1106.19 Q1756.61 1101.58 1756.61 1092.85 Q1756.61 1084.1 1759.67 1079.52 Q1762.75 1074.91 1768.56 1074.91 Z" fill="#000000" fill-rule="evenodd" fill-opacity="1" /><path clip-path="url(#clip550)" d="M1798.72 1078.62 Q1795.11 1078.62 1793.28 1082.18 Q1791.47 1085.72 1791.47 1092.85 Q1791.47 1099.96 1793.28 1103.53 Q1795.11 1107.07 1798.72 1107.07 Q1802.35 1107.07 1804.16 1103.53 Q1805.99 1099.96 1805.99 1092.85 Q1805.99 1085.72 1804.16 1082.18 Q1802.35 1078.62 1798.72 1078.62 M1798.72 1074.91 Q1804.53 1074.91 1807.58 1079.52 Q1810.66 1084.1 1810.66 1092.85 Q1810.66 1101.58 1807.58 1106.19 Q1804.53 1110.77 1798.72 1110.77 Q1792.91 1110.77 1789.83 1106.19 Q1786.77 1101.58 1786.77 1092.85 Q1786.77 1084.1 1789.83 1079.52 Q1792.91 1074.91 1798.72 1074.91 Z" fill="#000000" fill-rule="evenodd" fill-opacity="1" /><path clip-path="url(#clip550)" d="M2047.21 1106.16 L2063.52 1106.16 L2063.52 1110.1 L2041.58 1110.1 L2041.58 1106.16 Q2044.24 1103.41 2048.83 1098.78 Q2053.43 1094.13 2054.61 1092.79 Q2056.86 1090.26 2057.74 1088.53 Q2058.64 1086.77 2058.64 1085.08 Q2058.64 1082.32 2056.7 1080.59 Q2054.77 1078.85 2051.67 1078.85 Q2049.47 1078.85 2047.02 1079.61 Q2044.59 1080.38 2041.81 1081.93 L2041.81 1077.21 Q2044.64 1076.07 2047.09 1075.49 Q2049.54 1074.91 2051.58 1074.91 Q2056.95 1074.91 2060.14 1077.6 Q2063.34 1080.29 2063.34 1084.78 Q2063.34 1086.91 2062.53 1088.83 Q2061.74 1090.72 2059.64 1093.32 Q2059.06 1093.99 2055.96 1097.21 Q2052.85 1100.4 2047.21 1106.16 Z" fill="#000000" fill-rule="evenodd" fill-opacity="1" /><path clip-path="url(#clip550)" d="M2077.37 1106.16 L2093.69 1106.16 L2093.69 1110.1 L2071.74 1110.1 L2071.74 1106.16 Q2074.4 1103.41 2078.99 1098.78 Q2083.59 1094.13 2084.77 1092.79 Q2087.02 1090.26 2087.9 1088.53 Q2088.8 1086.77 2088.8 1085.08 Q2088.8 1082.32 2086.86 1080.59 Q2084.94 1078.85 2081.83 1078.85 Q2079.64 1078.85 2077.18 1079.61 Q2074.75 1080.38 2071.97 1081.93 L2071.97 1077.21 Q2074.8 1076.07 2077.25 1075.49 Q2079.71 1074.91 2081.74 1074.91 Q2087.11 1074.91 2090.31 1077.6 Q2093.5 1080.29 2093.5 1084.78 Q2093.5 1086.91 2092.69 1088.83 Q2091.9 1090.72 2089.8 1093.32 Q2089.22 1093.99 2086.12 1097.21 Q2083.02 1100.4 2077.37 1106.16 Z" fill="#000000" fill-rule="evenodd" fill-opacity="1" /><path clip-path="url(#clip550)" d="M2103.99 1104.22 L2108.87 1104.22 L2108.87 1110.1 L2103.99 1110.1 L2103.99 1104.22 M2103.99 1085.59 L2108.87 1085.59 L2108.87 1091.47 L2103.99 1091.47 L2103.99 1085.59 Z" fill="#000000" fill-rule="evenodd" fill-opacity="1" /><path clip-path="url(#clip550)" d="M2120.28 1106.16 L2127.92 1106.16 L2127.92 1079.8 L2119.61 1081.47 L2119.61 1077.21 L2127.88 1075.54 L2132.55 1075.54 L2132.55 1106.16 L2140.19 1106.16 L2140.19 1110.1 L2120.28 1110.1 L2120.28 1106.16 Z" fill="#000000" fill-rule="evenodd" fill-opacity="1" /><path clip-path="url(#clip550)" d="M2163.8 1091.47 Q2167.16 1092.18 2169.03 1094.45 Q2170.93 1096.72 2170.93 1100.05 Q2170.93 1105.17 2167.41 1107.97 Q2163.89 1110.77 2157.41 1110.77 Q2155.24 1110.77 2152.92 1110.33 Q2150.63 1109.91 2148.18 1109.06 L2148.18 1104.54 Q2150.12 1105.68 2152.44 1106.26 Q2154.75 1106.84 2157.27 1106.84 Q2161.67 1106.84 2163.96 1105.1 Q2166.28 1103.36 2166.28 1100.05 Q2166.28 1097 2164.13 1095.29 Q2162 1093.55 2158.18 1093.55 L2154.15 1093.55 L2154.15 1089.71 L2158.36 1089.71 Q2161.81 1089.71 2163.64 1088.34 Q2165.47 1086.95 2165.47 1084.36 Q2165.47 1081.7 2163.57 1080.29 Q2161.7 1078.85 2158.18 1078.85 Q2156.26 1078.85 2154.06 1079.27 Q2151.86 1079.68 2149.22 1080.56 L2149.22 1076.4 Q2151.88 1075.66 2154.2 1075.29 Q2156.53 1074.91 2158.59 1074.91 Q2163.92 1074.91 2167.02 1077.35 Q2170.12 1079.75 2170.12 1083.87 Q2170.12 1086.74 2168.48 1088.73 Q2166.83 1090.7 2163.8 1091.47 Z" fill="#000000" fill-rule="evenodd" fill-opacity="1" /><path clip-path="url(#clip550)" d="M2180.28 1104.22 L2185.17 1104.22 L2185.17 1110.1 L2180.28 1110.1 L2180.28 1104.22 M2180.28 1085.59 L2185.17 1085.59 L2185.17 1091.47 L2180.28 1091.47 L2180.28 1085.59 Z" fill="#000000" fill-rule="evenodd" fill-opacity="1" /><path clip-path="url(#clip550)" d="M2199.8 1106.16 L2216.12 1106.16 L2216.12 1110.1 L2194.17 1110.1 L2194.17 1106.16 Q2196.83 1103.41 2201.42 1098.78 Q2206.02 1094.13 2207.2 1092.79 Q2209.45 1090.26 2210.33 1088.53 Q2211.23 1086.77 2211.23 1085.08 Q2211.23 1082.32 2209.29 1080.59 Q2207.37 1078.85 2204.26 1078.85 Q2202.07 1078.85 2199.61 1079.61 Q2197.18 1080.38 2194.4 1081.93 L2194.4 1077.21 Q2197.23 1076.07 2199.68 1075.49 Q2202.13 1074.91 2204.17 1074.91 Q2209.54 1074.91 2212.74 1077.6 Q2215.93 1080.29 2215.93 1084.78 Q2215.93 1086.91 2215.12 1088.83 Q2214.33 1090.72 2212.23 1093.32 Q2211.65 1093.99 2208.55 1097.21 Q2205.45 1100.4 2199.8 1106.16 Z" fill="#000000" fill-rule="evenodd" fill-opacity="1" /><path clip-path="url(#clip550)" d="M2235.93 1078.62 Q2232.32 1078.62 2230.49 1082.18 Q2228.69 1085.72 2228.69 1092.85 Q2228.69 1099.96 2230.49 1103.53 Q2232.32 1107.07 2235.93 1107.07 Q2239.57 1107.07 2241.37 1103.53 Q2243.2 1099.96 2243.2 1092.85 Q2243.2 1085.72 2241.37 1082.18 Q2239.57 1078.62 2235.93 1078.62 M2235.93 1074.91 Q2241.74 1074.91 2244.8 1079.52 Q2247.88 1084.1 2247.88 1092.85 Q2247.88 1101.58 2244.8 1106.19 Q2241.74 1110.77 2235.93 1110.77 Q2230.12 1110.77 2227.04 1106.19 Q2223.99 1101.58 2223.99 1092.85 Q2223.99 1084.1 2227.04 1079.52 Q2230.12 1074.91 2235.93 1074.91 Z" fill="#000000" fill-rule="evenodd" fill-opacity="1" /><path clip-path="url(#clip550)" d="M1227.28 1145.04 L1233.7 1145.04 L1233.7 1164.52 L1257.07 1164.52 L1257.07 1145.04 L1263.5 1145.04 L1263.5 1192.56 L1257.07 1192.56 L1257.07 1169.93 L1233.7 1169.93 L1233.7 1192.56 L1227.28 1192.56 L1227.28 1145.04 Z" fill="#000000" fill-rule="evenodd" fill-opacity="1" /><path clip-path="url(#clip550)" d="M1289.85 1161.02 Q1285.14 1161.02 1282.4 1164.71 Q1279.67 1168.37 1279.67 1174.77 Q1279.67 1181.17 1282.37 1184.86 Q1285.11 1188.52 1289.85 1188.52 Q1294.53 1188.52 1297.27 1184.83 Q1300 1181.14 1300 1174.77 Q1300 1168.44 1297.27 1164.75 Q1294.53 1161.02 1289.85 1161.02 M1289.85 1156.06 Q1297.49 1156.06 1301.85 1161.02 Q1306.21 1165.99 1306.21 1174.77 Q1306.21 1183.52 1301.85 1188.52 Q1297.49 1193.49 1289.85 1193.49 Q1282.18 1193.49 1277.82 1188.52 Q1273.49 1183.52 1273.49 1174.77 Q1273.49 1165.99 1277.82 1161.02 Q1282.18 1156.06 1289.85 1156.06 Z" fill="#000000" fill-rule="evenodd" fill-opacity="1" /><path clip-path="url(#clip550)" d="M1315.31 1178.5 L1315.31 1156.92 L1321.17 1156.92 L1321.17 1178.27 Q1321.17 1183.33 1323.14 1185.88 Q1325.12 1188.39 1329.06 1188.39 Q1333.81 1188.39 1336.54 1185.37 Q1339.31 1182.35 1339.31 1177.13 L1339.31 1156.92 L1345.17 1156.92 L1345.17 1192.56 L1339.31 1192.56 L1339.31 1187.09 Q1337.18 1190.34 1334.35 1191.93 Q1331.55 1193.49 1327.82 1193.49 Q1321.68 1193.49 1318.5 1189.67 Q1315.31 1185.85 1315.31 1178.5 M1330.05 1156.06 L1330.05 1156.06 Z" fill="#000000" fill-rule="evenodd" fill-opacity="1" /><path clip-path="url(#clip550)" d="M1377.89 1162.39 Q1376.9 1161.82 1375.72 1161.56 Q1374.58 1161.28 1373.18 1161.28 Q1368.21 1161.28 1365.54 1164.52 Q1362.9 1167.74 1362.9 1173.79 L1362.9 1192.56 L1357.01 1192.56 L1357.01 1156.92 L1362.9 1156.92 L1362.9 1162.45 Q1364.74 1159.21 1367.7 1157.65 Q1370.66 1156.06 1374.9 1156.06 Q1375.5 1156.06 1376.23 1156.15 Q1376.96 1156.22 1377.86 1156.37 L1377.89 1162.39 Z" fill="#000000" fill-rule="evenodd" fill-opacity="1" /><polyline clip-path="url(#clip552)" style="stroke:#000000; stroke-linecap:round; stroke-linejoin:round; stroke-width:2; stroke-opacity:0.1; fill:none" points="
  252.407,1021.11 2352.76,1021.11 
  "/>
<polyline clip-path="url(#clip552)" style="stroke:#000000; stroke-linecap:round; stroke-linejoin:round; stroke-width:2; stroke-opacity:0.1; fill:none" points="
  252.407,791.768 2352.76,791.768 
  "/>
<polyline clip-path="url(#clip552)" style="stroke:#000000; stroke-linecap:round; stroke-linejoin:round; stroke-width:2; stroke-opacity:0.1; fill:none" points="
  252.407,562.422 2352.76,562.422 
  "/>
<polyline clip-path="url(#clip552)" style="stroke:#000000; stroke-linecap:round; stroke-linejoin:round; stroke-width:2; stroke-opacity:0.1; fill:none" points="
  252.407,333.075 2352.76,333.075 
  "/>
<polyline clip-path="url(#clip550)" style="stroke:#000000; stroke-linecap:round; stroke-linejoin:round; stroke-width:4; stroke-opacity:1; fill:none" points="
  252.407,1047.7 252.407,108.352 
  "/>
<polyline clip-path="url(#clip550)" style="stroke:#000000; stroke-linecap:round; stroke-linejoin:round; stroke-width:4; stroke-opacity:1; fill:none" points="
  252.407,1021.11 271.305,1021.11 
  "/>
<polyline clip-path="url(#clip550)" style="stroke:#000000; stroke-linecap:round; stroke-linejoin:round; stroke-width:4; stroke-opacity:1; fill:none" points="
  252.407,791.768 271.305,791.768 
  "/>
<polyline clip-path="url(#clip550)" style="stroke:#000000; stroke-linecap:round; stroke-linejoin:round; stroke-width:4; stroke-opacity:1; fill:none" points="
  252.407,562.422 271.305,562.422 
  "/>
<polyline clip-path="url(#clip550)" style="stroke:#000000; stroke-linecap:round; stroke-linejoin:round; stroke-width:4; stroke-opacity:1; fill:none" points="
  252.407,333.075 271.305,333.075 
  "/>
<path clip-path="url(#clip550)" d="M204.463 1006.91 Q200.852 1006.91 199.023 1010.48 Q197.218 1014.02 197.218 1021.15 Q197.218 1028.26 199.023 1031.82 Q200.852 1035.36 204.463 1035.36 Q208.097 1035.36 209.903 1031.82 Q211.731 1028.26 211.731 1021.15 Q211.731 1014.02 209.903 1010.48 Q208.097 1006.91 204.463 1006.91 M204.463 1003.21 Q210.273 1003.21 213.329 1007.82 Q216.407 1012.4 216.407 1021.15 Q216.407 1029.88 213.329 1034.48 Q210.273 1039.07 204.463 1039.07 Q198.653 1039.07 195.574 1034.48 Q192.519 1029.88 192.519 1021.15 Q192.519 1012.4 195.574 1007.82 Q198.653 1003.21 204.463 1003.21 Z" fill="#000000" fill-rule="evenodd" fill-opacity="1" /><path clip-path="url(#clip550)" d="M104.788 805.113 L112.426 805.113 L112.426 778.747 L104.116 780.414 L104.116 776.155 L112.38 774.488 L117.056 774.488 L117.056 805.113 L124.695 805.113 L124.695 809.048 L104.788 809.048 L104.788 805.113 Z" fill="#000000" fill-rule="evenodd" fill-opacity="1" /><path clip-path="url(#clip550)" d="M144.139 777.567 Q140.528 777.567 138.699 781.132 Q136.894 784.673 136.894 791.803 Q136.894 798.909 138.699 802.474 Q140.528 806.016 144.139 806.016 Q147.773 806.016 149.579 802.474 Q151.408 798.909 151.408 791.803 Q151.408 784.673 149.579 781.132 Q147.773 777.567 144.139 777.567 M144.139 773.863 Q149.949 773.863 153.005 778.47 Q156.084 783.053 156.084 791.803 Q156.084 800.53 153.005 805.136 Q149.949 809.719 144.139 809.719 Q138.329 809.719 135.25 805.136 Q132.195 800.53 132.195 791.803 Q132.195 783.053 135.25 778.47 Q138.329 773.863 144.139 773.863 Z" fill="#000000" fill-rule="evenodd" fill-opacity="1" /><path clip-path="url(#clip550)" d="M174.301 777.567 Q170.69 777.567 168.861 781.132 Q167.056 784.673 167.056 791.803 Q167.056 798.909 168.861 802.474 Q170.69 806.016 174.301 806.016 Q177.935 806.016 179.741 802.474 Q181.57 798.909 181.57 791.803 Q181.57 784.673 179.741 781.132 Q177.935 777.567 174.301 777.567 M174.301 773.863 Q180.111 773.863 183.167 778.47 Q186.245 783.053 186.245 791.803 Q186.245 800.53 183.167 805.136 Q180.111 809.719 174.301 809.719 Q168.491 809.719 165.412 805.136 Q162.357 800.53 162.357 791.803 Q162.357 783.053 165.412 778.47 Q168.491 773.863 174.301 773.863 Z" fill="#000000" fill-rule="evenodd" fill-opacity="1" /><path clip-path="url(#clip550)" d="M204.463 777.567 Q200.852 777.567 199.023 781.132 Q197.218 784.673 197.218 791.803 Q197.218 798.909 199.023 802.474 Q200.852 806.016 204.463 806.016 Q208.097 806.016 209.903 802.474 Q211.731 798.909 211.731 791.803 Q211.731 784.673 209.903 781.132 Q208.097 777.567 204.463 777.567 M204.463 773.863 Q210.273 773.863 213.329 778.47 Q216.407 783.053 216.407 791.803 Q216.407 800.53 213.329 805.136 Q210.273 809.719 204.463 809.719 Q198.653 809.719 195.574 805.136 Q192.519 800.53 192.519 791.803 Q192.519 783.053 195.574 778.47 Q198.653 773.863 204.463 773.863 Z" fill="#000000" fill-rule="evenodd" fill-opacity="1" /><path clip-path="url(#clip550)" d="M108.005 575.766 L124.324 575.766 L124.324 579.702 L102.38 579.702 L102.38 575.766 Q105.042 573.012 109.625 568.382 Q114.232 563.729 115.412 562.387 Q117.658 559.864 118.537 558.128 Q119.44 556.368 119.44 554.679 Q119.44 551.924 117.496 550.188 Q115.575 548.452 112.473 548.452 Q110.274 548.452 107.82 549.216 Q105.389 549.98 102.612 551.53 L102.612 546.808 Q105.436 545.674 107.889 545.095 Q110.343 544.517 112.38 544.517 Q117.75 544.517 120.945 547.202 Q124.139 549.887 124.139 554.378 Q124.139 556.507 123.329 558.429 Q122.542 560.327 120.436 562.919 Q119.857 563.591 116.755 566.808 Q113.653 570.003 108.005 575.766 Z" fill="#000000" fill-rule="evenodd" fill-opacity="1" /><path clip-path="url(#clip550)" d="M144.139 548.22 Q140.528 548.22 138.699 551.785 Q136.894 555.327 136.894 562.456 Q136.894 569.563 138.699 573.128 Q140.528 576.669 144.139 576.669 Q147.773 576.669 149.579 573.128 Q151.408 569.563 151.408 562.456 Q151.408 555.327 149.579 551.785 Q147.773 548.22 144.139 548.22 M144.139 544.517 Q149.949 544.517 153.005 549.123 Q156.084 553.706 156.084 562.456 Q156.084 571.183 153.005 575.79 Q149.949 580.373 144.139 580.373 Q138.329 580.373 135.25 575.79 Q132.195 571.183 132.195 562.456 Q132.195 553.706 135.25 549.123 Q138.329 544.517 144.139 544.517 Z" fill="#000000" fill-rule="evenodd" fill-opacity="1" /><path clip-path="url(#clip550)" d="M174.301 548.22 Q170.69 548.22 168.861 551.785 Q167.056 555.327 167.056 562.456 Q167.056 569.563 168.861 573.128 Q170.69 576.669 174.301 576.669 Q177.935 576.669 179.741 573.128 Q181.57 569.563 181.57 562.456 Q181.57 555.327 179.741 551.785 Q177.935 548.22 174.301 548.22 M174.301 544.517 Q180.111 544.517 183.167 549.123 Q186.245 553.706 186.245 562.456 Q186.245 571.183 183.167 575.79 Q180.111 580.373 174.301 580.373 Q168.491 580.373 165.412 575.79 Q162.357 571.183 162.357 562.456 Q162.357 553.706 165.412 549.123 Q168.491 544.517 174.301 544.517 Z" fill="#000000" fill-rule="evenodd" fill-opacity="1" /><path clip-path="url(#clip550)" d="M204.463 548.22 Q200.852 548.22 199.023 551.785 Q197.218 555.327 197.218 562.456 Q197.218 569.563 199.023 573.128 Q200.852 576.669 204.463 576.669 Q208.097 576.669 209.903 573.128 Q211.731 569.563 211.731 562.456 Q211.731 555.327 209.903 551.785 Q208.097 548.22 204.463 548.22 M204.463 544.517 Q210.273 544.517 213.329 549.123 Q216.407 553.706 216.407 562.456 Q216.407 571.183 213.329 575.79 Q210.273 580.373 204.463 580.373 Q198.653 580.373 195.574 575.79 Q192.519 571.183 192.519 562.456 Q192.519 553.706 195.574 549.123 Q198.653 544.517 204.463 544.517 Z" fill="#000000" fill-rule="evenodd" fill-opacity="1" /><path clip-path="url(#clip550)" d="M118.144 331.721 Q121.5 332.439 123.375 334.707 Q125.274 336.976 125.274 340.309 Q125.274 345.425 121.755 348.225 Q118.237 351.026 111.755 351.026 Q109.579 351.026 107.264 350.587 Q104.973 350.17 102.519 349.313 L102.519 344.8 Q104.463 345.934 106.778 346.513 Q109.093 347.091 111.616 347.091 Q116.014 347.091 118.306 345.355 Q120.621 343.619 120.621 340.309 Q120.621 337.253 118.468 335.54 Q116.338 333.804 112.519 333.804 L108.491 333.804 L108.491 329.962 L112.704 329.962 Q116.153 329.962 117.982 328.596 Q119.811 327.207 119.811 324.614 Q119.811 321.952 117.912 320.54 Q116.037 319.105 112.519 319.105 Q110.598 319.105 108.399 319.522 Q106.2 319.939 103.561 320.818 L103.561 316.652 Q106.223 315.911 108.538 315.54 Q110.875 315.17 112.936 315.17 Q118.26 315.17 121.362 317.601 Q124.463 320.008 124.463 324.128 Q124.463 326.999 122.82 328.989 Q121.176 330.957 118.144 331.721 Z" fill="#000000" fill-rule="evenodd" fill-opacity="1" /><path clip-path="url(#clip550)" d="M144.139 318.874 Q140.528 318.874 138.699 322.439 Q136.894 325.98 136.894 333.11 Q136.894 340.216 138.699 343.781 Q140.528 347.323 144.139 347.323 Q147.773 347.323 149.579 343.781 Q151.408 340.216 151.408 333.11 Q151.408 325.98 149.579 322.439 Q147.773 318.874 144.139 318.874 M144.139 315.17 Q149.949 315.17 153.005 319.777 Q156.084 324.36 156.084 333.11 Q156.084 341.837 153.005 346.443 Q149.949 351.026 144.139 351.026 Q138.329 351.026 135.25 346.443 Q132.195 341.837 132.195 333.11 Q132.195 324.36 135.25 319.777 Q138.329 315.17 144.139 315.17 Z" fill="#000000" fill-rule="evenodd" fill-opacity="1" /><path clip-path="url(#clip550)" d="M174.301 318.874 Q170.69 318.874 168.861 322.439 Q167.056 325.98 167.056 333.11 Q167.056 340.216 168.861 343.781 Q170.69 347.323 174.301 347.323 Q177.935 347.323 179.741 343.781 Q181.57 340.216 181.57 333.11 Q181.57 325.98 179.741 322.439 Q177.935 318.874 174.301 318.874 M174.301 315.17 Q180.111 315.17 183.167 319.777 Q186.245 324.36 186.245 333.11 Q186.245 341.837 183.167 346.443 Q180.111 351.026 174.301 351.026 Q168.491 351.026 165.412 346.443 Q162.357 341.837 162.357 333.11 Q162.357 324.36 165.412 319.777 Q168.491 315.17 174.301 315.17 Z" fill="#000000" fill-rule="evenodd" fill-opacity="1" /><path clip-path="url(#clip550)" d="M204.463 318.874 Q200.852 318.874 199.023 322.439 Q197.218 325.98 197.218 333.11 Q197.218 340.216 199.023 343.781 Q200.852 347.323 204.463 347.323 Q208.097 347.323 209.903 343.781 Q211.731 340.216 211.731 333.11 Q211.731 325.98 209.903 322.439 Q208.097 318.874 204.463 318.874 M204.463 315.17 Q210.273 315.17 213.329 319.777 Q216.407 324.36 216.407 333.11 Q216.407 341.837 213.329 346.443 Q210.273 351.026 204.463 351.026 Q198.653 351.026 195.574 346.443 Q192.519 341.837 192.519 333.11 Q192.519 324.36 195.574 319.777 Q198.653 315.17 204.463 315.17 Z" fill="#000000" fill-rule="evenodd" fill-opacity="1" /><path clip-path="url(#clip550)" d="M4.60416 921.535 L4.60416 912.878 L44.358 891.808 L4.60416 891.808 L4.60416 885.569 L52.1242 885.569 L52.1242 894.227 L12.3703 915.297 L52.1242 915.297 L52.1242 921.535 L4.60416 921.535 Z" fill="#000000" fill-rule="evenodd" fill-opacity="1" /><path clip-path="url(#clip550)" d="M32.8361 842.537 L35.7006 842.537 L35.7006 869.464 Q41.7481 869.082 44.9309 865.835 Q48.0819 862.557 48.0819 856.733 Q48.0819 853.359 47.2544 850.208 Q46.4269 847.025 44.7718 843.906 L50.3099 843.906 Q51.6467 847.057 52.347 850.367 Q53.0472 853.677 53.0472 857.083 Q53.0472 865.613 48.0819 870.61 Q43.1167 875.575 34.6503 875.575 Q25.8974 875.575 20.7731 870.864 Q15.6168 866.122 15.6168 858.101 Q15.6168 850.908 20.2638 846.738 Q24.8789 842.537 32.8361 842.537 M31.1173 848.393 Q26.3112 848.457 23.4466 851.099 Q20.5821 853.709 20.5821 858.038 Q20.5821 862.939 23.3512 865.899 Q26.1202 868.827 31.1492 869.273 L31.1173 848.393 Z" fill="#000000" fill-rule="evenodd" fill-opacity="1" /><path clip-path="url(#clip550)" d="M16.4762 836.33 L16.4762 830.474 L44.2943 823.153 L16.4762 815.865 L16.4762 808.958 L44.2943 801.637 L16.4762 794.349 L16.4762 788.492 L52.1242 797.818 L52.1242 804.725 L22.9056 812.395 L52.1242 820.098 L52.1242 827.005 L16.4762 836.33 Z" fill="#000000" fill-rule="evenodd" fill-opacity="1" /><path clip-path="url(#clip550)" d="M34.332 733.301 Q27.8708 733.301 24.2105 735.975 Q20.5184 738.617 20.5184 743.264 Q20.5184 747.911 24.2105 750.584 Q27.8708 753.226 34.332 753.226 Q40.7932 753.226 44.4853 750.584 Q48.1456 747.911 48.1456 743.264 Q48.1456 738.617 44.4853 735.975 Q40.7932 733.301 34.332 733.301 M21.8871 753.226 Q18.7042 751.38 17.1764 748.579 Q15.6168 745.746 15.6168 741.832 Q15.6168 735.339 20.7731 731.296 Q25.9293 727.222 34.332 727.222 Q42.7347 727.222 47.891 731.296 Q53.0472 735.339 53.0472 741.832 Q53.0472 745.746 51.5194 748.579 Q49.9598 751.38 46.777 753.226 L52.1242 753.226 L52.1242 759.114 L2.59896 759.114 L2.59896 753.226 L21.8871 753.226 Z" fill="#000000" fill-rule="evenodd" fill-opacity="1" /><path clip-path="url(#clip550)" d="M16.4762 717.515 L16.4762 711.658 L52.1242 711.658 L52.1242 717.515 L16.4762 717.515 M2.59896 717.515 L2.59896 711.658 L10.015 711.658 L10.015 717.515 L2.59896 717.515 Z" fill="#000000" fill-rule="evenodd" fill-opacity="1" /><path clip-path="url(#clip550)" d="M2.59896 699.627 L2.59896 693.739 L31.8494 693.739 L16.4762 676.265 L16.4762 668.785 L33.1544 687.691 L52.1242 667.989 L52.1242 675.628 L34.7139 693.739 L52.1242 693.739 L52.1242 699.627 L2.59896 699.627 Z" fill="#000000" fill-rule="evenodd" fill-opacity="1" /><path clip-path="url(#clip550)" d="M32.8361 633.487 L35.7006 633.487 L35.7006 660.414 Q41.7481 660.032 44.9309 656.786 Q48.0819 653.507 48.0819 647.683 Q48.0819 644.309 47.2544 641.158 Q46.4269 637.975 44.7718 634.856 L50.3099 634.856 Q51.6467 638.007 52.347 641.317 Q53.0472 644.627 53.0472 648.033 Q53.0472 656.563 48.0819 661.56 Q43.1167 666.525 34.6503 666.525 Q25.8974 666.525 20.7731 661.815 Q15.6168 657.072 15.6168 649.051 Q15.6168 641.858 20.2638 637.689 Q24.8789 633.487 32.8361 633.487 M31.1173 639.344 Q26.3112 639.407 23.4466 642.049 Q20.5821 644.659 20.5821 648.988 Q20.5821 653.889 23.3512 656.849 Q26.1202 659.778 31.1492 660.223 L31.1173 639.344 Z" fill="#000000" fill-rule="evenodd" fill-opacity="1" /><path clip-path="url(#clip550)" d="M17.5265 580.429 L23.0647 580.429 Q21.7916 582.912 21.155 585.585 Q20.5184 588.259 20.5184 591.123 Q20.5184 595.484 21.8552 597.68 Q23.192 599.844 25.8656 599.844 Q27.9026 599.844 29.0803 598.285 Q30.2261 596.725 31.2765 592.015 L31.7221 590.009 Q33.0589 583.771 35.5097 581.161 Q37.9286 578.519 42.2891 578.519 Q47.2544 578.519 50.1508 582.466 Q53.0472 586.381 53.0472 593.256 Q53.0472 596.121 52.4743 599.24 Q51.9332 602.327 50.8192 605.765 L44.7718 605.765 Q46.4587 602.518 47.318 599.367 Q48.1456 596.216 48.1456 593.129 Q48.1456 588.991 46.7451 586.763 Q45.3129 584.535 42.7347 584.535 Q40.3476 584.535 39.0745 586.158 Q37.8013 587.75 36.6237 593.192 L36.1462 595.229 Q35.0004 600.672 32.6451 603.091 Q30.258 605.51 26.1202 605.51 Q21.0913 605.51 18.3541 601.945 Q15.6168 598.38 15.6168 591.824 Q15.6168 588.577 16.0943 585.713 Q16.5717 582.848 17.5265 580.429 Z" fill="#000000" fill-rule="evenodd" fill-opacity="1" /><path clip-path="url(#clip550)" d="M30.6081 539.561 L52.1242 539.561 L52.1242 545.418 L30.799 545.418 Q25.7383 545.418 23.2238 547.391 Q20.7094 549.364 20.7094 553.311 Q20.7094 558.054 23.7331 560.791 Q26.7568 563.528 31.9767 563.528 L52.1242 563.528 L52.1242 569.416 L2.59896 569.416 L2.59896 563.528 L22.0144 563.528 Q18.7997 561.427 17.2083 558.595 Q15.6168 555.73 15.6168 552.006 Q15.6168 545.863 19.4363 542.712 Q23.2238 539.561 30.6081 539.561 Z" fill="#000000" fill-rule="evenodd" fill-opacity="1" /><path clip-path="url(#clip550)" d="M34.2047 511.679 Q34.2047 518.777 35.8279 521.514 Q37.4512 524.252 41.3661 524.252 Q44.4853 524.252 46.3314 522.215 Q48.1456 520.146 48.1456 516.613 Q48.1456 511.743 44.7081 508.815 Q41.2388 505.855 35.5097 505.855 L34.2047 505.855 L34.2047 511.679 M31.7857 499.998 L52.1242 499.998 L52.1242 505.855 L46.7133 505.855 Q49.9598 507.86 51.5194 510.852 Q53.0472 513.844 53.0472 518.172 Q53.0472 523.647 49.9916 526.893 Q46.9043 530.108 41.7481 530.108 Q35.7325 530.108 32.6769 526.098 Q29.6214 522.056 29.6214 514.067 L29.6214 505.855 L29.0485 505.855 Q25.0062 505.855 22.8101 508.528 Q20.5821 511.17 20.5821 515.976 Q20.5821 519.032 21.3141 521.928 Q22.0462 524.825 23.5103 527.498 L18.0995 527.498 Q16.8581 524.284 16.2534 521.26 Q15.6168 518.236 15.6168 515.372 Q15.6168 507.637 19.6272 503.818 Q23.6376 499.998 31.7857 499.998 Z" fill="#000000" fill-rule="evenodd" fill-opacity="1" /><path clip-path="url(#clip550)" d="M21.9507 467.279 Q21.3778 468.265 21.1232 469.443 Q20.8367 470.589 20.8367 471.989 Q20.8367 476.954 24.0832 479.628 Q27.2979 482.27 33.3453 482.27 L52.1242 482.27 L52.1242 488.158 L16.4762 488.158 L16.4762 482.27 L22.0144 482.27 Q18.7679 480.424 17.2083 477.464 Q15.6168 474.504 15.6168 470.27 Q15.6168 469.666 15.7123 468.934 Q15.776 468.202 15.9351 467.31 L21.9507 467.279 Z" fill="#000000" fill-rule="evenodd" fill-opacity="1" /><path clip-path="url(#clip550)" d="M32.8361 432.076 L35.7006 432.076 L35.7006 459.003 Q41.7481 458.621 44.9309 455.375 Q48.0819 452.096 48.0819 446.272 Q48.0819 442.898 47.2544 439.747 Q46.4269 436.564 44.7718 433.445 L50.3099 433.445 Q51.6467 436.596 52.347 439.906 Q53.0472 443.216 53.0472 446.622 Q53.0472 455.152 48.0819 460.149 Q43.1167 465.114 34.6503 465.114 Q25.8974 465.114 20.7731 460.404 Q15.6168 455.661 15.6168 447.64 Q15.6168 440.447 20.2638 436.278 Q24.8789 432.076 32.8361 432.076 M31.1173 437.933 Q26.3112 437.996 23.4466 440.638 Q20.5821 443.248 20.5821 447.577 Q20.5821 452.478 23.3512 455.438 Q26.1202 458.367 31.1492 458.812 L31.1173 437.933 Z" fill="#000000" fill-rule="evenodd" fill-opacity="1" /><path clip-path="url(#clip550)" d="M17.8448 376.09 L23.3193 376.09 Q21.9507 378.572 21.2823 381.087 Q20.5821 383.57 20.5821 386.116 Q20.5821 391.813 24.2105 394.964 Q27.8072 398.115 34.332 398.115 Q40.8569 398.115 44.4853 394.964 Q48.0819 391.813 48.0819 386.116 Q48.0819 383.57 47.4135 381.087 Q46.7133 378.572 45.3447 376.09 L50.7555 376.09 Q51.9014 378.541 52.4743 381.182 Q53.0472 383.792 53.0472 386.752 Q53.0472 394.805 47.9864 399.547 Q42.9257 404.29 34.332 404.29 Q25.611 404.29 20.6139 399.516 Q15.6168 394.71 15.6168 386.37 Q15.6168 383.665 16.1897 381.087 Q16.7308 378.509 17.8448 376.09 Z" fill="#000000" fill-rule="evenodd" fill-opacity="1" /><path clip-path="url(#clip550)" d="M20.5821 352.091 Q20.5821 356.802 24.2742 359.539 Q27.9345 362.276 34.332 362.276 Q40.7295 362.276 44.4217 359.571 Q48.0819 356.834 48.0819 352.091 Q48.0819 347.412 44.3898 344.675 Q40.6977 341.938 34.332 341.938 Q27.9981 341.938 24.306 344.675 Q20.5821 347.412 20.5821 352.091 M15.6168 352.091 Q15.6168 344.452 20.5821 340.092 Q25.5473 335.731 34.332 335.731 Q43.0849 335.731 48.0819 340.092 Q53.0472 344.452 53.0472 352.091 Q53.0472 359.762 48.0819 364.122 Q43.0849 368.451 34.332 368.451 Q25.5473 368.451 20.5821 364.122 Q15.6168 359.762 15.6168 352.091 Z" fill="#000000" fill-rule="evenodd" fill-opacity="1" /><path clip-path="url(#clip550)" d="M38.0559 326.628 L16.4762 326.628 L16.4762 320.772 L37.8331 320.772 Q42.8939 320.772 45.4402 318.798 Q47.9546 316.825 47.9546 312.878 Q47.9546 308.136 44.9309 305.399 Q41.9072 302.63 36.6873 302.63 L16.4762 302.63 L16.4762 296.773 L52.1242 296.773 L52.1242 302.63 L46.6496 302.63 Q49.8962 304.762 51.4876 307.595 Q53.0472 310.396 53.0472 314.12 Q53.0472 320.263 49.2278 323.445 Q45.4083 326.628 38.0559 326.628 M15.6168 311.892 L15.6168 311.892 Z" fill="#000000" fill-rule="evenodd" fill-opacity="1" /><path clip-path="url(#clip550)" d="M6.35473 278.917 L16.4762 278.917 L16.4762 266.854 L21.0277 266.854 L21.0277 278.917 L40.3794 278.917 Q44.7399 278.917 45.9813 277.74 Q47.2226 276.53 47.2226 272.87 L47.2226 266.854 L52.1242 266.854 L52.1242 272.87 Q52.1242 279.649 49.6097 282.228 Q47.0634 284.806 40.3794 284.806 L21.0277 284.806 L21.0277 289.102 L16.4762 289.102 L16.4762 284.806 L6.35473 284.806 L6.35473 278.917 Z" fill="#000000" fill-rule="evenodd" fill-opacity="1" /><path clip-path="url(#clip550)" d="M17.5265 236.426 L23.0647 236.426 Q21.7916 238.909 21.155 241.582 Q20.5184 244.256 20.5184 247.121 Q20.5184 251.481 21.8552 253.677 Q23.192 255.842 25.8656 255.842 Q27.9026 255.842 29.0803 254.282 Q30.2261 252.722 31.2765 248.012 L31.7221 246.007 Q33.0589 239.768 35.5097 237.158 Q37.9286 234.517 42.2891 234.517 Q47.2544 234.517 50.1508 238.463 Q53.0472 242.378 53.0472 249.253 Q53.0472 252.118 52.4743 255.237 Q51.9332 258.324 50.8192 261.762 L44.7718 261.762 Q46.4587 258.515 47.318 255.364 Q48.1456 252.213 48.1456 249.126 Q48.1456 244.988 46.7451 242.76 Q45.3129 240.532 42.7347 240.532 Q40.3476 240.532 39.0745 242.155 Q37.8013 243.747 36.6237 249.189 L36.1462 251.227 Q35.0004 256.669 32.6451 259.088 Q30.258 261.507 26.1202 261.507 Q21.0913 261.507 18.3541 257.942 Q15.6168 254.378 15.6168 247.821 Q15.6168 244.574 16.0943 241.71 Q16.5717 238.845 17.5265 236.426 Z" fill="#000000" fill-rule="evenodd" fill-opacity="1" /><path clip-path="url(#clip550)" d="M402.795 18.8205 L402.795 65.8515 L412.679 65.8515 Q425.196 65.8515 430.989 60.1802 Q436.822 54.509 436.822 42.2752 Q436.822 30.1225 430.989 24.4918 Q425.196 18.8205 412.679 18.8205 L402.795 18.8205 M394.612 12.096 L411.423 12.096 Q429.004 12.096 437.227 19.4281 Q445.451 26.7198 445.451 42.2752 Q445.451 57.9117 437.187 65.2439 Q428.923 72.576 411.423 72.576 L394.612 72.576 L394.612 12.096 Z" fill="#000000" fill-rule="evenodd" fill-opacity="1" /><path clip-path="url(#clip550)" d="M458.171 27.2059 L465.624 27.2059 L465.624 72.576 L458.171 72.576 L458.171 27.2059 M458.171 9.54393 L465.624 9.54393 L465.624 18.9825 L458.171 18.9825 L458.171 9.54393 Z" fill="#000000" fill-rule="evenodd" fill-opacity="1" /><path clip-path="url(#clip550)" d="M510.144 28.5427 L510.144 35.5912 Q506.984 33.9709 503.581 33.1607 Q500.179 32.3505 496.533 32.3505 Q490.983 32.3505 488.188 34.0519 Q485.433 35.7533 485.433 39.156 Q485.433 41.7486 487.418 43.2475 Q489.403 44.7058 495.398 46.0426 L497.951 46.6097 Q505.89 48.3111 509.212 51.4303 Q512.574 54.509 512.574 60.0587 Q512.574 66.3781 507.551 70.0644 Q502.569 73.7508 493.819 73.7508 Q490.173 73.7508 486.203 73.0216 Q482.274 72.3329 477.899 70.9151 L477.899 63.2184 Q482.03 65.3654 486.041 66.4591 Q490.051 67.5124 493.981 67.5124 Q499.247 67.5124 502.082 65.73 Q504.918 63.9071 504.918 60.6258 Q504.918 57.5877 502.852 55.9673 Q500.827 54.3469 493.9 52.8481 L491.307 52.2405 Q484.38 50.7821 481.301 47.7845 Q478.223 44.7463 478.223 39.4801 Q478.223 33.0797 482.76 29.5959 Q487.297 26.1121 495.641 26.1121 Q499.773 26.1121 503.419 26.7198 Q507.065 27.3274 510.144 28.5427 Z" fill="#000000" fill-rule="evenodd" fill-opacity="1" /><path clip-path="url(#clip550)" d="M531.816 14.324 L531.816 27.2059 L547.169 27.2059 L547.169 32.9987 L531.816 32.9987 L531.816 57.6282 Q531.816 63.1779 533.315 64.7578 Q534.854 66.3376 539.513 66.3376 L547.169 66.3376 L547.169 72.576 L539.513 72.576 Q530.884 72.576 527.603 69.3758 Q524.322 66.1351 524.322 57.6282 L524.322 32.9987 L518.853 32.9987 L518.853 27.2059 L524.322 27.2059 L524.322 14.324 L531.816 14.324 Z" fill="#000000" fill-rule="evenodd" fill-opacity="1" /><path clip-path="url(#clip550)" d="M583.263 34.1734 Q582.007 33.4443 580.508 33.1202 Q579.05 32.7556 577.267 32.7556 Q570.948 32.7556 567.545 36.8875 Q564.183 40.9789 564.183 48.6757 L564.183 72.576 L556.689 72.576 L556.689 27.2059 L564.183 27.2059 L564.183 34.2544 Q566.532 30.1225 570.3 28.1376 Q574.067 26.1121 579.455 26.1121 Q580.224 26.1121 581.156 26.2337 Q582.088 26.3147 583.222 26.5172 L583.263 34.1734 Z" fill="#000000" fill-rule="evenodd" fill-opacity="1" /><path clip-path="url(#clip550)" d="M591.081 27.2059 L598.534 27.2059 L598.534 72.576 L591.081 72.576 L591.081 27.2059 M591.081 9.54393 L598.534 9.54393 L598.534 18.9825 L591.081 18.9825 L591.081 9.54393 Z" fill="#000000" fill-rule="evenodd" fill-opacity="1" /><path clip-path="url(#clip550)" d="M646.7 49.9314 Q646.7 41.7081 643.297 37.0496 Q639.935 32.3505 634.02 32.3505 Q628.106 32.3505 624.703 37.0496 Q621.341 41.7081 621.341 49.9314 Q621.341 58.1548 624.703 62.8538 Q628.106 67.5124 634.02 67.5124 Q639.935 67.5124 643.297 62.8538 Q646.7 58.1548 646.7 49.9314 M621.341 34.0924 Q623.691 30.0415 627.255 28.0971 Q630.861 26.1121 635.843 26.1121 Q644.107 26.1121 649.252 32.6746 Q654.437 39.2371 654.437 49.9314 Q654.437 60.6258 649.252 67.1883 Q644.107 73.7508 635.843 73.7508 Q630.861 73.7508 627.255 71.8063 Q623.691 69.8214 621.341 65.7705 L621.341 72.576 L613.847 72.576 L613.847 9.54393 L621.341 9.54393 L621.341 34.0924 Z" fill="#000000" fill-rule="evenodd" fill-opacity="1" /><path clip-path="url(#clip550)" d="M666.023 54.671 L666.023 27.2059 L673.476 27.2059 L673.476 54.3874 Q673.476 60.8284 675.988 64.0691 Q678.499 67.2693 683.522 67.2693 Q689.558 67.2693 693.042 63.421 Q696.566 59.5726 696.566 52.9291 L696.566 27.2059 L704.02 27.2059 L704.02 72.576 L696.566 72.576 L696.566 65.6084 Q693.852 69.7404 690.247 71.7658 Q686.682 73.7508 681.943 73.7508 Q674.124 73.7508 670.073 68.8897 Q666.023 64.0286 666.023 54.671 M684.778 26.1121 L684.778 26.1121 Z" fill="#000000" fill-rule="evenodd" fill-opacity="1" /><path clip-path="url(#clip550)" d="M726.746 14.324 L726.746 27.2059 L742.099 27.2059 L742.099 32.9987 L726.746 32.9987 L726.746 57.6282 Q726.746 63.1779 728.244 64.7578 Q729.784 66.3376 734.442 66.3376 L742.099 66.3376 L742.099 72.576 L734.442 72.576 Q725.814 72.576 722.533 69.3758 Q719.251 66.1351 719.251 57.6282 L719.251 32.9987 L713.783 32.9987 L713.783 27.2059 L719.251 27.2059 L719.251 14.324 L726.746 14.324 Z" fill="#000000" fill-rule="evenodd" fill-opacity="1" /><path clip-path="url(#clip550)" d="M751.902 27.2059 L759.355 27.2059 L759.355 72.576 L751.902 72.576 L751.902 27.2059 M751.902 9.54393 L759.355 9.54393 L759.355 18.9825 L751.902 18.9825 L751.902 9.54393 Z" fill="#000000" fill-rule="evenodd" fill-opacity="1" /><path clip-path="url(#clip550)" d="M792.532 32.4315 Q786.537 32.4315 783.053 37.1306 Q779.569 41.7891 779.569 49.9314 Q779.569 58.0738 783.013 62.7728 Q786.496 67.4314 792.532 67.4314 Q798.487 67.4314 801.971 62.7323 Q805.455 58.0333 805.455 49.9314 Q805.455 41.8701 801.971 37.1711 Q798.487 32.4315 792.532 32.4315 M792.532 26.1121 Q802.254 26.1121 807.804 32.4315 Q813.354 38.7509 813.354 49.9314 Q813.354 61.0714 807.804 67.4314 Q802.254 73.7508 792.532 73.7508 Q782.77 73.7508 777.22 67.4314 Q771.711 61.0714 771.711 49.9314 Q771.711 38.7509 777.22 32.4315 Q782.77 26.1121 792.532 26.1121 Z" fill="#000000" fill-rule="evenodd" fill-opacity="1" /><path clip-path="url(#clip550)" d="M863.423 45.1919 L863.423 72.576 L855.969 72.576 L855.969 45.4349 Q855.969 38.994 853.458 35.7938 Q850.946 32.5936 845.923 32.5936 Q839.887 32.5936 836.404 36.4419 Q832.92 40.2903 832.92 46.9338 L832.92 72.576 L825.426 72.576 L825.426 27.2059 L832.92 27.2059 L832.92 34.2544 Q835.593 30.163 839.199 28.1376 Q842.844 26.1121 847.584 26.1121 Q855.402 26.1121 859.413 30.9732 Q863.423 35.7938 863.423 45.1919 Z" fill="#000000" fill-rule="evenodd" fill-opacity="1" /><path clip-path="url(#clip550)" d="M922.242 32.4315 Q916.247 32.4315 912.763 37.1306 Q909.279 41.7891 909.279 49.9314 Q909.279 58.0738 912.723 62.7728 Q916.206 67.4314 922.242 67.4314 Q928.197 67.4314 931.681 62.7323 Q935.165 58.0333 935.165 49.9314 Q935.165 41.8701 931.681 37.1711 Q928.197 32.4315 922.242 32.4315 M922.242 26.1121 Q931.964 26.1121 937.514 32.4315 Q943.064 38.7509 943.064 49.9314 Q943.064 61.0714 937.514 67.4314 Q931.964 73.7508 922.242 73.7508 Q912.48 73.7508 906.93 67.4314 Q901.421 61.0714 901.421 49.9314 Q901.421 38.7509 906.93 32.4315 Q912.48 26.1121 922.242 26.1121 Z" fill="#000000" fill-rule="evenodd" fill-opacity="1" /><path clip-path="url(#clip550)" d="M978.388 9.54393 L978.388 15.7418 L971.258 15.7418 Q967.248 15.7418 965.668 17.3622 Q964.129 18.9825 964.129 23.1955 L964.129 27.2059 L976.403 27.2059 L976.403 32.9987 L964.129 32.9987 L964.129 72.576 L956.634 72.576 L956.634 32.9987 L949.505 32.9987 L949.505 27.2059 L956.634 27.2059 L956.634 24.0462 Q956.634 16.471 960.159 13.0277 Q963.683 9.54393 971.339 9.54393 L978.388 9.54393 Z" fill="#000000" fill-rule="evenodd" fill-opacity="1" /><path clip-path="url(#clip550)" d="M1048.71 45.1919 L1048.71 72.576 L1041.26 72.576 L1041.26 45.4349 Q1041.26 38.994 1038.75 35.7938 Q1036.23 32.5936 1031.21 32.5936 Q1025.18 32.5936 1021.69 36.4419 Q1018.21 40.2903 1018.21 46.9338 L1018.21 72.576 L1010.71 72.576 L1010.71 27.2059 L1018.21 27.2059 L1018.21 34.2544 Q1020.88 30.163 1024.49 28.1376 Q1028.13 26.1121 1032.87 26.1121 Q1040.69 26.1121 1044.7 30.9732 Q1048.71 35.7938 1048.71 45.1919 Z" fill="#000000" fill-rule="evenodd" fill-opacity="1" /><path clip-path="url(#clip550)" d="M1102.39 48.0275 L1102.39 51.6733 L1068.12 51.6733 Q1068.6 59.3701 1072.73 63.421 Q1076.91 67.4314 1084.32 67.4314 Q1088.61 67.4314 1092.62 66.3781 Q1096.67 65.3249 1100.64 63.2184 L1100.64 70.267 Q1096.63 71.9684 1092.42 72.8596 Q1088.21 73.7508 1083.87 73.7508 Q1073.02 73.7508 1066.66 67.4314 Q1060.34 61.1119 1060.34 50.3365 Q1060.34 39.1965 1066.33 32.6746 Q1072.37 26.1121 1082.58 26.1121 Q1091.73 26.1121 1097.04 32.0264 Q1102.39 37.9003 1102.39 48.0275 M1094.93 45.84 Q1094.85 39.7232 1091.49 36.0774 Q1088.17 32.4315 1082.66 32.4315 Q1076.42 32.4315 1072.65 35.9558 Q1068.93 39.4801 1068.36 45.8805 L1094.93 45.84 Z" fill="#000000" fill-rule="evenodd" fill-opacity="1" /><path clip-path="url(#clip550)" d="M1110.29 27.2059 L1117.74 27.2059 L1127.06 62.6108 L1136.33 27.2059 L1145.12 27.2059 L1154.44 62.6108 L1163.72 27.2059 L1171.17 27.2059 L1159.3 72.576 L1150.51 72.576 L1140.75 35.3887 L1130.94 72.576 L1122.15 72.576 L1110.29 27.2059 Z" fill="#000000" fill-rule="evenodd" fill-opacity="1" /><path clip-path="url(#clip550)" d="M1241.41 49.9314 Q1241.41 41.7081 1238.01 37.0496 Q1234.65 32.3505 1228.73 32.3505 Q1222.82 32.3505 1219.42 37.0496 Q1216.05 41.7081 1216.05 49.9314 Q1216.05 58.1548 1219.42 62.8538 Q1222.82 67.5124 1228.73 67.5124 Q1234.65 67.5124 1238.01 62.8538 Q1241.41 58.1548 1241.41 49.9314 M1216.05 34.0924 Q1218.4 30.0415 1221.97 28.0971 Q1225.57 26.1121 1230.56 26.1121 Q1238.82 26.1121 1243.97 32.6746 Q1249.15 39.2371 1249.15 49.9314 Q1249.15 60.6258 1243.97 67.1883 Q1238.82 73.7508 1230.56 73.7508 Q1225.57 73.7508 1221.97 71.8063 Q1218.4 69.8214 1216.05 65.7705 L1216.05 72.576 L1208.56 72.576 L1208.56 9.54393 L1216.05 9.54393 L1216.05 34.0924 Z" fill="#000000" fill-rule="evenodd" fill-opacity="1" /><path clip-path="url(#clip550)" d="M1261.51 27.2059 L1268.96 27.2059 L1268.96 72.576 L1261.51 72.576 L1261.51 27.2059 M1261.51 9.54393 L1268.96 9.54393 L1268.96 18.9825 L1261.51 18.9825 L1261.51 9.54393 Z" fill="#000000" fill-rule="evenodd" fill-opacity="1" /><path clip-path="url(#clip550)" d="M1284.27 9.54393 L1291.77 9.54393 L1291.77 46.7717 L1314.01 27.2059 L1323.52 27.2059 L1299.46 48.4326 L1324.54 72.576 L1314.82 72.576 L1291.77 50.4176 L1291.77 72.576 L1284.27 72.576 L1284.27 9.54393 Z" fill="#000000" fill-rule="evenodd" fill-opacity="1" /><path clip-path="url(#clip550)" d="M1368.45 48.0275 L1368.45 51.6733 L1334.18 51.6733 Q1334.66 59.3701 1338.8 63.421 Q1342.97 67.4314 1350.38 67.4314 Q1354.68 67.4314 1358.69 66.3781 Q1362.74 65.3249 1366.71 63.2184 L1366.71 70.267 Q1362.7 71.9684 1358.48 72.8596 Q1354.27 73.7508 1349.94 73.7508 Q1339.08 73.7508 1332.72 67.4314 Q1326.4 61.1119 1326.4 50.3365 Q1326.4 39.1965 1332.4 32.6746 Q1338.43 26.1121 1348.64 26.1121 Q1357.8 26.1121 1363.1 32.0264 Q1368.45 37.9003 1368.45 48.0275 M1361 45.84 Q1360.91 39.7232 1357.55 36.0774 Q1354.23 32.4315 1348.72 32.4315 Q1342.48 32.4315 1338.72 35.9558 Q1334.99 39.4801 1334.42 45.8805 L1361 45.84 Z" fill="#000000" fill-rule="evenodd" fill-opacity="1" /><path clip-path="url(#clip550)" d="M1435.98 28.5427 L1435.98 35.5912 Q1432.82 33.9709 1429.42 33.1607 Q1426.01 32.3505 1422.37 32.3505 Q1416.82 32.3505 1414.02 34.0519 Q1411.27 35.7533 1411.27 39.156 Q1411.27 41.7486 1413.25 43.2475 Q1415.24 44.7058 1421.23 46.0426 L1423.78 46.6097 Q1431.72 48.3111 1435.05 51.4303 Q1438.41 54.509 1438.41 60.0587 Q1438.41 66.3781 1433.39 70.0644 Q1428.4 73.7508 1419.65 73.7508 Q1416.01 73.7508 1412.04 73.0216 Q1408.11 72.3329 1403.73 70.9151 L1403.73 63.2184 Q1407.86 65.3654 1411.88 66.4591 Q1415.89 67.5124 1419.81 67.5124 Q1425.08 67.5124 1427.92 65.73 Q1430.75 63.9071 1430.75 60.6258 Q1430.75 57.5877 1428.69 55.9673 Q1426.66 54.3469 1419.73 52.8481 L1417.14 52.2405 Q1410.21 50.7821 1407.14 47.7845 Q1404.06 44.7463 1404.06 39.4801 Q1404.06 33.0797 1408.59 29.5959 Q1413.13 26.1121 1421.48 26.1121 Q1425.61 26.1121 1429.25 26.7198 Q1432.9 27.3274 1435.98 28.5427 Z" fill="#000000" fill-rule="evenodd" fill-opacity="1" /><path clip-path="url(#clip550)" d="M1487.99 45.1919 L1487.99 72.576 L1480.54 72.576 L1480.54 45.4349 Q1480.54 38.994 1478.03 35.7938 Q1475.51 32.5936 1470.49 32.5936 Q1464.46 32.5936 1460.97 36.4419 Q1457.49 40.2903 1457.49 46.9338 L1457.49 72.576 L1449.99 72.576 L1449.99 9.54393 L1457.49 9.54393 L1457.49 34.2544 Q1460.16 30.163 1463.77 28.1376 Q1467.41 26.1121 1472.15 26.1121 Q1479.97 26.1121 1483.98 30.9732 Q1487.99 35.7938 1487.99 45.1919 Z" fill="#000000" fill-rule="evenodd" fill-opacity="1" /><path clip-path="url(#clip550)" d="M1523.48 49.7694 Q1514.44 49.7694 1510.96 51.8354 Q1507.48 53.9013 1507.48 58.8839 Q1507.48 62.8538 1510.07 65.2034 Q1512.7 67.5124 1517.2 67.5124 Q1523.4 67.5124 1527.12 63.1374 Q1530.89 58.7219 1530.89 51.4303 L1530.89 49.7694 L1523.48 49.7694 M1538.34 46.6907 L1538.34 72.576 L1530.89 72.576 L1530.89 65.6895 Q1528.34 69.8214 1524.53 71.8063 Q1520.72 73.7508 1515.21 73.7508 Q1508.25 73.7508 1504.11 69.8619 Q1500.02 65.9325 1500.02 59.3701 Q1500.02 51.7138 1505.13 47.825 Q1510.27 43.9361 1520.44 43.9361 L1530.89 43.9361 L1530.89 43.2069 Q1530.89 38.0623 1527.49 35.2672 Q1524.13 32.4315 1518.01 32.4315 Q1514.12 32.4315 1510.43 33.3632 Q1506.75 34.295 1503.34 36.1584 L1503.34 29.2718 Q1507.44 27.692 1511.28 26.9223 Q1515.13 26.1121 1518.78 26.1121 Q1528.62 26.1121 1533.48 31.2163 Q1538.34 36.3204 1538.34 46.6907 Z" fill="#000000" fill-rule="evenodd" fill-opacity="1" /><path clip-path="url(#clip550)" d="M1579.99 34.1734 Q1578.73 33.4443 1577.23 33.1202 Q1575.77 32.7556 1573.99 32.7556 Q1567.67 32.7556 1564.27 36.8875 Q1560.91 40.9789 1560.91 48.6757 L1560.91 72.576 L1553.41 72.576 L1553.41 27.2059 L1560.91 27.2059 L1560.91 34.2544 Q1563.26 30.1225 1567.02 28.1376 Q1570.79 26.1121 1576.18 26.1121 Q1576.95 26.1121 1577.88 26.2337 Q1578.81 26.3147 1579.95 26.5172 L1579.99 34.1734 Z" fill="#000000" fill-rule="evenodd" fill-opacity="1" /><path clip-path="url(#clip550)" d="M1624.79 48.0275 L1624.79 51.6733 L1590.52 51.6733 Q1591.01 59.3701 1595.14 63.421 Q1599.31 67.4314 1606.72 67.4314 Q1611.02 67.4314 1615.03 66.3781 Q1619.08 65.3249 1623.05 63.2184 L1623.05 70.267 Q1619.04 71.9684 1614.83 72.8596 Q1610.61 73.7508 1606.28 73.7508 Q1595.42 73.7508 1589.06 67.4314 Q1582.74 61.1119 1582.74 50.3365 Q1582.74 39.1965 1588.74 32.6746 Q1594.77 26.1121 1604.98 26.1121 Q1614.14 26.1121 1619.44 32.0264 Q1624.79 37.9003 1624.79 48.0275 M1617.34 45.84 Q1617.26 39.7232 1613.89 36.0774 Q1610.57 32.4315 1605.06 32.4315 Q1598.82 32.4315 1595.06 35.9558 Q1591.33 39.4801 1590.76 45.8805 L1617.34 45.84 Z" fill="#000000" fill-rule="evenodd" fill-opacity="1" /><path clip-path="url(#clip550)" d="M1665.95 28.5427 L1665.95 35.5912 Q1662.79 33.9709 1659.39 33.1607 Q1655.98 32.3505 1652.34 32.3505 Q1646.79 32.3505 1643.99 34.0519 Q1641.24 35.7533 1641.24 39.156 Q1641.24 41.7486 1643.22 43.2475 Q1645.21 44.7058 1651.2 46.0426 L1653.75 46.6097 Q1661.69 48.3111 1665.02 51.4303 Q1668.38 54.509 1668.38 60.0587 Q1668.38 66.3781 1663.36 70.0644 Q1658.37 73.7508 1649.62 73.7508 Q1645.98 73.7508 1642.01 73.0216 Q1638.08 72.3329 1633.7 70.9151 L1633.7 63.2184 Q1637.83 65.3654 1641.84 66.4591 Q1645.86 67.5124 1649.78 67.5124 Q1655.05 67.5124 1657.89 65.73 Q1660.72 63.9071 1660.72 60.6258 Q1660.72 57.5877 1658.66 55.9673 Q1656.63 54.3469 1649.7 52.8481 L1647.11 52.2405 Q1640.18 50.7821 1637.11 47.7845 Q1634.03 44.7463 1634.03 39.4801 Q1634.03 33.0797 1638.56 29.5959 Q1643.1 26.1121 1651.45 26.1121 Q1655.58 26.1121 1659.22 26.7198 Q1662.87 27.3274 1665.95 28.5427 Z" fill="#000000" fill-rule="evenodd" fill-opacity="1" /><path clip-path="url(#clip550)" d="M1706.62 27.2059 L1714.07 27.2059 L1714.07 72.576 L1706.62 72.576 L1706.62 27.2059 M1706.62 9.54393 L1714.07 9.54393 L1714.07 18.9825 L1706.62 18.9825 L1706.62 9.54393 Z" fill="#000000" fill-rule="evenodd" fill-opacity="1" /><path clip-path="url(#clip550)" d="M1767.38 45.1919 L1767.38 72.576 L1759.93 72.576 L1759.93 45.4349 Q1759.93 38.994 1757.42 35.7938 Q1754.91 32.5936 1749.88 32.5936 Q1743.85 32.5936 1740.36 36.4419 Q1736.88 40.2903 1736.88 46.9338 L1736.88 72.576 L1729.38 72.576 L1729.38 27.2059 L1736.88 27.2059 L1736.88 34.2544 Q1739.55 30.163 1743.16 28.1376 Q1746.8 26.1121 1751.54 26.1121 Q1759.36 26.1121 1763.37 30.9732 Q1767.38 35.7938 1767.38 45.1919 Z" fill="#000000" fill-rule="evenodd" fill-opacity="1" /><path clip-path="url(#clip550)" d="M1804.29 27.2059 L1811.74 27.2059 L1821.06 62.6108 L1830.33 27.2059 L1839.12 27.2059 L1848.44 62.6108 L1857.72 27.2059 L1865.17 27.2059 L1853.3 72.576 L1844.51 72.576 L1834.75 35.3887 L1824.95 72.576 L1816.16 72.576 L1804.29 27.2059 Z" fill="#000000" fill-rule="evenodd" fill-opacity="1" /><path clip-path="url(#clip550)" d="M1915.28 48.0275 L1915.28 51.6733 L1881.01 51.6733 Q1881.5 59.3701 1885.63 63.421 Q1889.8 67.4314 1897.21 67.4314 Q1901.51 67.4314 1905.52 66.3781 Q1909.57 65.3249 1913.54 63.2184 L1913.54 70.267 Q1909.53 71.9684 1905.32 72.8596 Q1901.1 73.7508 1896.77 73.7508 Q1885.91 73.7508 1879.55 67.4314 Q1873.23 61.1119 1873.23 50.3365 Q1873.23 39.1965 1879.23 32.6746 Q1885.26 26.1121 1895.47 26.1121 Q1904.63 26.1121 1909.93 32.0264 Q1915.28 37.9003 1915.28 48.0275 M1907.83 45.84 Q1907.75 39.7232 1904.38 36.0774 Q1901.06 32.4315 1895.55 32.4315 Q1889.31 32.4315 1885.55 35.9558 Q1881.82 39.4801 1881.25 45.8805 L1907.83 45.84 Z" fill="#000000" fill-rule="evenodd" fill-opacity="1" /><path clip-path="url(#clip550)" d="M1966.32 48.0275 L1966.32 51.6733 L1932.05 51.6733 Q1932.54 59.3701 1936.67 63.421 Q1940.84 67.4314 1948.26 67.4314 Q1952.55 67.4314 1956.56 66.3781 Q1960.61 65.3249 1964.58 63.2184 L1964.58 70.267 Q1960.57 71.9684 1956.36 72.8596 Q1952.14 73.7508 1947.81 73.7508 Q1936.95 73.7508 1930.59 67.4314 Q1924.27 61.1119 1924.27 50.3365 Q1924.27 39.1965 1930.27 32.6746 Q1936.31 26.1121 1946.51 26.1121 Q1955.67 26.1121 1960.98 32.0264 Q1966.32 37.9003 1966.32 48.0275 M1958.87 45.84 Q1958.79 39.7232 1955.43 36.0774 Q1952.1 32.4315 1946.59 32.4315 Q1940.36 32.4315 1936.59 35.9558 Q1932.86 39.4801 1932.29 45.8805 L1958.87 45.84 Z" fill="#000000" fill-rule="evenodd" fill-opacity="1" /><path clip-path="url(#clip550)" d="M1978.27 9.54393 L1985.77 9.54393 L1985.77 46.7717 L2008.01 27.2059 L2017.53 27.2059 L1993.46 48.4326 L2018.54 72.576 L2008.82 72.576 L1985.77 50.4176 L1985.77 72.576 L1978.27 72.576 L1978.27 9.54393 Z" fill="#000000" fill-rule="evenodd" fill-opacity="1" /><path clip-path="url(#clip550)" d="M2056.45 34.0924 L2056.45 9.54393 L2063.91 9.54393 L2063.91 72.576 L2056.45 72.576 L2056.45 65.7705 Q2054.11 69.8214 2050.5 71.8063 Q2046.94 73.7508 2041.91 73.7508 Q2033.69 73.7508 2028.5 67.1883 Q2023.36 60.6258 2023.36 49.9314 Q2023.36 39.2371 2028.5 32.6746 Q2033.69 26.1121 2041.91 26.1121 Q2046.94 26.1121 2050.5 28.0971 Q2054.11 30.0415 2056.45 34.0924 M2031.06 49.9314 Q2031.06 58.1548 2034.42 62.8538 Q2037.82 67.5124 2043.74 67.5124 Q2049.65 67.5124 2053.05 62.8538 Q2056.45 58.1548 2056.45 49.9314 Q2056.45 41.7081 2053.05 37.0496 Q2049.65 32.3505 2043.74 32.3505 Q2037.82 32.3505 2034.42 37.0496 Q2031.06 41.7081 2031.06 49.9314 Z" fill="#000000" fill-rule="evenodd" fill-opacity="1" /><path clip-path="url(#clip550)" d="M2099.88 49.7694 Q2090.85 49.7694 2087.36 51.8354 Q2083.88 53.9013 2083.88 58.8839 Q2083.88 62.8538 2086.47 65.2034 Q2089.11 67.5124 2093.6 67.5124 Q2099.8 67.5124 2103.53 63.1374 Q2107.29 58.7219 2107.29 51.4303 L2107.29 49.7694 L2099.88 49.7694 M2114.75 46.6907 L2114.75 72.576 L2107.29 72.576 L2107.29 65.6895 Q2104.74 69.8214 2100.93 71.8063 Q2097.13 73.7508 2091.62 73.7508 Q2084.65 73.7508 2080.52 69.8619 Q2076.43 65.9325 2076.43 59.3701 Q2076.43 51.7138 2081.53 47.825 Q2086.67 43.9361 2096.84 43.9361 L2107.29 43.9361 L2107.29 43.2069 Q2107.29 38.0623 2103.89 35.2672 Q2100.53 32.4315 2094.41 32.4315 Q2090.52 32.4315 2086.84 33.3632 Q2083.15 34.295 2079.75 36.1584 L2079.75 29.2718 Q2083.84 27.692 2087.69 26.9223 Q2091.54 26.1121 2095.18 26.1121 Q2105.03 26.1121 2109.89 31.2163 Q2114.75 36.3204 2114.75 46.6907 Z" fill="#000000" fill-rule="evenodd" fill-opacity="1" /><path clip-path="url(#clip550)" d="M2148.98 76.7889 Q2145.82 84.8907 2142.82 87.3618 Q2139.82 89.8329 2134.8 89.8329 L2128.84 89.8329 L2128.84 83.5945 L2133.22 83.5945 Q2136.3 83.5945 2138 82.1361 Q2139.7 80.6778 2141.77 75.2496 L2143.1 71.8468 L2124.75 27.2059 L2132.65 27.2059 L2146.83 62.6918 L2161.01 27.2059 L2168.91 27.2059 L2148.98 76.7889 Z" fill="#000000" fill-rule="evenodd" fill-opacity="1" /><path clip-path="url(#clip550)" d="M2208.12 28.5427 L2208.12 35.5912 Q2204.96 33.9709 2201.56 33.1607 Q2198.16 32.3505 2194.51 32.3505 Q2188.96 32.3505 2186.16 34.0519 Q2183.41 35.7533 2183.41 39.156 Q2183.41 41.7486 2185.4 43.2475 Q2187.38 44.7058 2193.38 46.0426 L2195.93 46.6097 Q2203.87 48.3111 2207.19 51.4303 Q2210.55 54.509 2210.55 60.0587 Q2210.55 66.3781 2205.53 70.0644 Q2200.55 73.7508 2191.8 73.7508 Q2188.15 73.7508 2184.18 73.0216 Q2180.25 72.3329 2175.88 70.9151 L2175.88 63.2184 Q2180.01 65.3654 2184.02 66.4591 Q2188.03 67.5124 2191.96 67.5124 Q2197.22 67.5124 2200.06 65.73 Q2202.9 63.9071 2202.9 60.6258 Q2202.9 57.5877 2200.83 55.9673 Q2198.8 54.3469 2191.88 52.8481 L2189.28 52.2405 Q2182.36 50.7821 2179.28 47.7845 Q2176.2 44.7463 2176.2 39.4801 Q2176.2 33.0797 2180.74 29.5959 Q2185.27 26.1121 2193.62 26.1121 Q2197.75 26.1121 2201.4 26.7198 Q2205.04 27.3274 2208.12 28.5427 Z" fill="#000000" fill-rule="evenodd" fill-opacity="1" /><path clip-path="url(#clip552)" d="
M367.93 971.721 L367.93 1021.11 L430.764 1021.11 L430.764 971.721 L367.93 971.721 L367.93 971.721  Z
  " fill="#009af9" fill-rule="evenodd" fill-opacity="1"/>
<polyline clip-path="url(#clip552)" style="stroke:#000000; stroke-linecap:round; stroke-linejoin:round; stroke-width:4; stroke-opacity:1; fill:none" points="
  367.93,971.721 367.93,1021.11 430.764,1021.11 430.764,971.721 367.93,971.721 
  "/>
<path clip-path="url(#clip552)" d="
M446.472 991.758 L446.472 1021.11 L509.306 1021.11 L509.306 991.758 L446.472 991.758 L446.472 991.758  Z
  " fill="#009af9" fill-rule="evenodd" fill-opacity="1"/>
<polyline clip-path="url(#clip552)" style="stroke:#000000; stroke-linecap:round; stroke-linejoin:round; stroke-width:4; stroke-opacity:1; fill:none" points="
  446.472,991.758 446.472,1021.11 509.306,1021.11 509.306,991.758 446.472,991.758 
  "/>
<path clip-path="url(#clip552)" d="
M525.015 1002.54 L525.015 1021.11 L587.848 1021.11 L587.848 1002.54 L525.015 1002.54 L525.015 1002.54  Z
  " fill="#009af9" fill-rule="evenodd" fill-opacity="1"/>
<polyline clip-path="url(#clip552)" style="stroke:#000000; stroke-linecap:round; stroke-linejoin:round; stroke-width:4; stroke-opacity:1; fill:none" points="
  525.015,1002.54 525.015,1021.11 587.848,1021.11 587.848,1002.54 525.015,1002.54 
  "/>
<path clip-path="url(#clip552)" d="
M603.557 1008.9 L603.557 1021.11 L666.39 1021.11 L666.39 1008.9 L603.557 1008.9 L603.557 1008.9  Z
  " fill="#009af9" fill-rule="evenodd" fill-opacity="1"/>
<polyline clip-path="url(#clip552)" style="stroke:#000000; stroke-linecap:round; stroke-linejoin:round; stroke-width:4; stroke-opacity:1; fill:none" points="
  603.557,1008.9 603.557,1021.11 666.39,1021.11 666.39,1008.9 603.557,1008.9 
  "/>
<path clip-path="url(#clip552)" d="
M682.099 1009.13 L682.099 1021.11 L744.932 1021.11 L744.932 1009.13 L682.099 1009.13 L682.099 1009.13  Z
  " fill="#009af9" fill-rule="evenodd" fill-opacity="1"/>
<polyline clip-path="url(#clip552)" style="stroke:#000000; stroke-linecap:round; stroke-linejoin:round; stroke-width:4; stroke-opacity:1; fill:none" points="
  682.099,1009.13 682.099,1021.11 744.932,1021.11 744.932,1009.13 682.099,1009.13 
  "/>
<path clip-path="url(#clip552)" d="
M760.641 994.498 L760.641 1021.11 L823.475 1021.11 L823.475 994.498 L760.641 994.498 L760.641 994.498  Z
  " fill="#009af9" fill-rule="evenodd" fill-opacity="1"/>
<polyline clip-path="url(#clip552)" style="stroke:#000000; stroke-linecap:round; stroke-linejoin:round; stroke-width:4; stroke-opacity:1; fill:none" points="
  760.641,994.498 760.641,1021.11 823.475,1021.11 823.475,994.498 760.641,994.498 
  "/>
<path clip-path="url(#clip552)" d="
M839.183 882.439 L839.183 1021.11 L902.017 1021.11 L902.017 882.439 L839.183 882.439 L839.183 882.439  Z
  " fill="#009af9" fill-rule="evenodd" fill-opacity="1"/>
<polyline clip-path="url(#clip552)" style="stroke:#000000; stroke-linecap:round; stroke-linejoin:round; stroke-width:4; stroke-opacity:1; fill:none" points="
  839.183,882.439 839.183,1021.11 902.017,1021.11 902.017,882.439 839.183,882.439 
  "/>
<path clip-path="url(#clip552)" d="
M917.725 569.412 L917.725 1021.11 L980.559 1021.11 L980.559 569.412 L917.725 569.412 L917.725 569.412  Z
  " fill="#009af9" fill-rule="evenodd" fill-opacity="1"/>
<polyline clip-path="url(#clip552)" style="stroke:#000000; stroke-linecap:round; stroke-linejoin:round; stroke-width:4; stroke-opacity:1; fill:none" points="
  917.725,569.412 917.725,1021.11 980.559,1021.11 980.559,569.412 917.725,569.412 
  "/>
<path clip-path="url(#clip552)" d="
M996.267 134.937 L996.267 1021.11 L1059.1 1021.11 L1059.1 134.937 L996.267 134.937 L996.267 134.937  Z
  " fill="#009af9" fill-rule="evenodd" fill-opacity="1"/>
<polyline clip-path="url(#clip552)" style="stroke:#000000; stroke-linecap:round; stroke-linejoin:round; stroke-width:4; stroke-opacity:1; fill:none" points="
  996.267,134.937 996.267,1021.11 1059.1,1021.11 1059.1,134.937 996.267,134.937 
  "/>
<path clip-path="url(#clip552)" d="
M1074.81 562.971 L1074.81 1021.11 L1137.64 1021.11 L1137.64 562.971 L1074.81 562.971 L1074.81 562.971  Z
  " fill="#009af9" fill-rule="evenodd" fill-opacity="1"/>
<polyline clip-path="url(#clip552)" style="stroke:#000000; stroke-linecap:round; stroke-linejoin:round; stroke-width:4; stroke-opacity:1; fill:none" points="
  1074.81,562.971 1074.81,1021.11 1137.64,1021.11 1137.64,562.971 1074.81,562.971 
  "/>
<path clip-path="url(#clip552)" d="
M1153.35 790.889 L1153.35 1021.11 L1216.19 1021.11 L1216.19 790.889 L1153.35 790.889 L1153.35 790.889  Z
  " fill="#009af9" fill-rule="evenodd" fill-opacity="1"/>
<polyline clip-path="url(#clip552)" style="stroke:#000000; stroke-linecap:round; stroke-linejoin:round; stroke-width:4; stroke-opacity:1; fill:none" points="
  1153.35,790.889 1153.35,1021.11 1216.19,1021.11 1216.19,790.889 1153.35,790.889 
  "/>
<path clip-path="url(#clip552)" d="
M1231.89 799.019 L1231.89 1021.11 L1294.73 1021.11 L1294.73 799.019 L1231.89 799.019 L1231.89 799.019  Z
  " fill="#009af9" fill-rule="evenodd" fill-opacity="1"/>
<polyline clip-path="url(#clip552)" style="stroke:#000000; stroke-linecap:round; stroke-linejoin:round; stroke-width:4; stroke-opacity:1; fill:none" points="
  1231.89,799.019 1231.89,1021.11 1294.73,1021.11 1294.73,799.019 1231.89,799.019 
  "/>
<path clip-path="url(#clip552)" d="
M1310.44 738.115 L1310.44 1021.11 L1373.27 1021.11 L1373.27 738.115 L1310.44 738.115 L1310.44 738.115  Z
  " fill="#009af9" fill-rule="evenodd" fill-opacity="1"/>
<polyline clip-path="url(#clip552)" style="stroke:#000000; stroke-linecap:round; stroke-linejoin:round; stroke-width:4; stroke-opacity:1; fill:none" points="
  1310.44,738.115 1310.44,1021.11 1373.27,1021.11 1373.27,738.115 1310.44,738.115 
  "/>
<path clip-path="url(#clip552)" d="
M1388.98 728.341 L1388.98 1021.11 L1451.81 1021.11 L1451.81 728.341 L1388.98 728.341 L1388.98 728.341  Z
  " fill="#009af9" fill-rule="evenodd" fill-opacity="1"/>
<polyline clip-path="url(#clip552)" style="stroke:#000000; stroke-linecap:round; stroke-linejoin:round; stroke-width:4; stroke-opacity:1; fill:none" points="
  1388.98,728.341 1388.98,1021.11 1451.81,1021.11 1451.81,728.341 1388.98,728.341 
  "/>
<path clip-path="url(#clip552)" d="
M1467.52 743.193 L1467.52 1021.11 L1530.35 1021.11 L1530.35 743.193 L1467.52 743.193 L1467.52 743.193  Z
  " fill="#009af9" fill-rule="evenodd" fill-opacity="1"/>
<polyline clip-path="url(#clip552)" style="stroke:#000000; stroke-linecap:round; stroke-linejoin:round; stroke-width:4; stroke-opacity:1; fill:none" points="
  1467.52,743.193 1467.52,1021.11 1530.35,1021.11 1530.35,743.193 1467.52,743.193 
  "/>
<path clip-path="url(#clip552)" d="
M1546.06 716.023 L1546.06 1021.11 L1608.9 1021.11 L1608.9 716.023 L1546.06 716.023 L1546.06 716.023  Z
  " fill="#009af9" fill-rule="evenodd" fill-opacity="1"/>
<polyline clip-path="url(#clip552)" style="stroke:#000000; stroke-linecap:round; stroke-linejoin:round; stroke-width:4; stroke-opacity:1; fill:none" points="
  1546.06,716.023 1546.06,1021.11 1608.9,1021.11 1608.9,716.023 1546.06,716.023 
  "/>
<path clip-path="url(#clip552)" d="
M1624.6 607.903 L1624.6 1021.11 L1687.44 1021.11 L1687.44 607.903 L1624.6 607.903 L1624.6 607.903  Z
  " fill="#009af9" fill-rule="evenodd" fill-opacity="1"/>
<polyline clip-path="url(#clip552)" style="stroke:#000000; stroke-linecap:round; stroke-linejoin:round; stroke-width:4; stroke-opacity:1; fill:none" points="
  1624.6,607.903 1624.6,1021.11 1687.44,1021.11 1687.44,607.903 1624.6,607.903 
  "/>
<path clip-path="url(#clip552)" d="
M1703.15 279.843 L1703.15 1021.11 L1765.98 1021.11 L1765.98 279.843 L1703.15 279.843 L1703.15 279.843  Z
  " fill="#009af9" fill-rule="evenodd" fill-opacity="1"/>
<polyline clip-path="url(#clip552)" style="stroke:#000000; stroke-linecap:round; stroke-linejoin:round; stroke-width:4; stroke-opacity:1; fill:none" points="
  1703.15,279.843 1703.15,1021.11 1765.98,1021.11 1765.98,279.843 1703.15,279.843 
  "/>
<path clip-path="url(#clip552)" d="
M1781.69 321.193 L1781.69 1021.11 L1844.52 1021.11 L1844.52 321.193 L1781.69 321.193 L1781.69 321.193  Z
  " fill="#009af9" fill-rule="evenodd" fill-opacity="1"/>
<polyline clip-path="url(#clip552)" style="stroke:#000000; stroke-linecap:round; stroke-linejoin:round; stroke-width:4; stroke-opacity:1; fill:none" points="
  1781.69,321.193 1781.69,1021.11 1844.52,1021.11 1844.52,321.193 1781.69,321.193 
  "/>
<path clip-path="url(#clip552)" d="
M1860.23 602.401 L1860.23 1021.11 L1923.06 1021.11 L1923.06 602.401 L1860.23 602.401 L1860.23 602.401  Z
  " fill="#009af9" fill-rule="evenodd" fill-opacity="1"/>
<polyline clip-path="url(#clip552)" style="stroke:#000000; stroke-linecap:round; stroke-linejoin:round; stroke-width:4; stroke-opacity:1; fill:none" points="
  1860.23,602.401 1860.23,1021.11 1923.06,1021.11 1923.06,602.401 1860.23,602.401 
  "/>
<path clip-path="url(#clip552)" d="
M1938.77 761.044 L1938.77 1021.11 L2001.61 1021.11 L2001.61 761.044 L1938.77 761.044 L1938.77 761.044  Z
  " fill="#009af9" fill-rule="evenodd" fill-opacity="1"/>
<polyline clip-path="url(#clip552)" style="stroke:#000000; stroke-linecap:round; stroke-linejoin:round; stroke-width:4; stroke-opacity:1; fill:none" points="
  1938.77,761.044 1938.77,1021.11 2001.61,1021.11 2001.61,761.044 1938.77,761.044 
  "/>
<path clip-path="url(#clip552)" d="
M2017.32 840.13 L2017.32 1021.11 L2080.15 1021.11 L2080.15 840.13 L2017.32 840.13 L2017.32 840.13  Z
  " fill="#009af9" fill-rule="evenodd" fill-opacity="1"/>
<polyline clip-path="url(#clip552)" style="stroke:#000000; stroke-linecap:round; stroke-linejoin:round; stroke-width:4; stroke-opacity:1; fill:none" points="
  2017.32,840.13 2017.32,1021.11 2080.15,1021.11 2080.15,840.13 2017.32,840.13 
  "/>
<path clip-path="url(#clip552)" d="
M2095.86 880.138 L2095.86 1021.11 L2158.69 1021.11 L2158.69 880.138 L2095.86 880.138 L2095.86 880.138  Z
  " fill="#009af9" fill-rule="evenodd" fill-opacity="1"/>
<polyline clip-path="url(#clip552)" style="stroke:#000000; stroke-linecap:round; stroke-linejoin:round; stroke-width:4; stroke-opacity:1; fill:none" points="
  2095.86,880.138 2095.86,1021.11 2158.69,1021.11 2158.69,880.138 2095.86,880.138 
  "/>
<path clip-path="url(#clip552)" d="
M2174.4 921.373 L2174.4 1021.11 L2237.23 1021.11 L2237.23 921.373 L2174.4 921.373 L2174.4 921.373  Z
  " fill="#009af9" fill-rule="evenodd" fill-opacity="1"/>
<polyline clip-path="url(#clip552)" style="stroke:#000000; stroke-linecap:round; stroke-linejoin:round; stroke-width:4; stroke-opacity:1; fill:none" points="
  2174.4,921.373 2174.4,1021.11 2237.23,1021.11 2237.23,921.373 2174.4,921.373 
  "/>
<circle clip-path="url(#clip552)" style="fill:#009af9; stroke:none; fill-opacity:0" cx="399.347" cy="971.721" r="2"/>
<circle clip-path="url(#clip552)" style="fill:#009af9; stroke:none; fill-opacity:0" cx="477.889" cy="991.758" r="2"/>
<circle clip-path="url(#clip552)" style="fill:#009af9; stroke:none; fill-opacity:0" cx="556.431" cy="1002.54" r="2"/>
<circle clip-path="url(#clip552)" style="fill:#009af9; stroke:none; fill-opacity:0" cx="634.973" cy="1008.9" r="2"/>
<circle clip-path="url(#clip552)" style="fill:#009af9; stroke:none; fill-opacity:0" cx="713.516" cy="1009.13" r="2"/>
<circle clip-path="url(#clip552)" style="fill:#009af9; stroke:none; fill-opacity:0" cx="792.058" cy="994.498" r="2"/>
<circle clip-path="url(#clip552)" style="fill:#009af9; stroke:none; fill-opacity:0" cx="870.6" cy="882.439" r="2"/>
<circle clip-path="url(#clip552)" style="fill:#009af9; stroke:none; fill-opacity:0" cx="949.142" cy="569.412" r="2"/>
<circle clip-path="url(#clip552)" style="fill:#009af9; stroke:none; fill-opacity:0" cx="1027.68" cy="134.937" r="2"/>
<circle clip-path="url(#clip552)" style="fill:#009af9; stroke:none; fill-opacity:0" cx="1106.23" cy="562.971" r="2"/>
<circle clip-path="url(#clip552)" style="fill:#009af9; stroke:none; fill-opacity:0" cx="1184.77" cy="790.889" r="2"/>
<circle clip-path="url(#clip552)" style="fill:#009af9; stroke:none; fill-opacity:0" cx="1263.31" cy="799.019" r="2"/>
<circle clip-path="url(#clip552)" style="fill:#009af9; stroke:none; fill-opacity:0" cx="1341.85" cy="738.115" r="2"/>
<circle clip-path="url(#clip552)" style="fill:#009af9; stroke:none; fill-opacity:0" cx="1420.39" cy="728.341" r="2"/>
<circle clip-path="url(#clip552)" style="fill:#009af9; stroke:none; fill-opacity:0" cx="1498.94" cy="743.193" r="2"/>
<circle clip-path="url(#clip552)" style="fill:#009af9; stroke:none; fill-opacity:0" cx="1577.48" cy="716.023" r="2"/>
<circle clip-path="url(#clip552)" style="fill:#009af9; stroke:none; fill-opacity:0" cx="1656.02" cy="607.903" r="2"/>
<circle clip-path="url(#clip552)" style="fill:#009af9; stroke:none; fill-opacity:0" cx="1734.56" cy="279.843" r="2"/>
<circle clip-path="url(#clip552)" style="fill:#009af9; stroke:none; fill-opacity:0" cx="1813.11" cy="321.193" r="2"/>
<circle clip-path="url(#clip552)" style="fill:#009af9; stroke:none; fill-opacity:0" cx="1891.65" cy="602.401" r="2"/>
<circle clip-path="url(#clip552)" style="fill:#009af9; stroke:none; fill-opacity:0" cx="1970.19" cy="761.044" r="2"/>
<circle clip-path="url(#clip552)" style="fill:#009af9; stroke:none; fill-opacity:0" cx="2048.73" cy="840.13" r="2"/>
<circle clip-path="url(#clip552)" style="fill:#009af9; stroke:none; fill-opacity:0" cx="2127.27" cy="880.138" r="2"/>
<circle clip-path="url(#clip552)" style="fill:#009af9; stroke:none; fill-opacity:0" cx="2205.82" cy="921.373" r="2"/>
<path clip-path="url(#clip550)" d="
M1978.42 243.344 L2282.74 243.344 L2282.74 139.664 L1978.42 139.664  Z
  " fill="#ffffff" fill-rule="evenodd" fill-opacity="1"/>
<polyline clip-path="url(#clip550)" style="stroke:#000000; stroke-linecap:round; stroke-linejoin:round; stroke-width:4; stroke-opacity:1; fill:none" points="
  1978.42,243.344 2282.74,243.344 2282.74,139.664 1978.42,139.664 1978.42,243.344 
  "/>
<path clip-path="url(#clip550)" d="
M2001.76 212.24 L2141.78 212.24 L2141.78 170.768 L2001.76 170.768 L2001.76 212.24  Z
  " fill="#009af9" fill-rule="evenodd" fill-opacity="1"/>
<polyline clip-path="url(#clip550)" style="stroke:#000000; stroke-linecap:round; stroke-linejoin:round; stroke-width:4; stroke-opacity:1; fill:none" points="
  2001.76,212.24 2141.78,212.24 2141.78,170.768 2001.76,170.768 2001.76,212.24 
  "/>
<path clip-path="url(#clip550)" d="M2185.63 183.853 L2185.63 187.835 Q2183.82 186.839 2182 186.353 Q2180.19 185.844 2178.34 185.844 Q2174.2 185.844 2171.9 188.483 Q2169.61 191.099 2169.61 195.844 Q2169.61 200.589 2171.9 203.228 Q2174.2 205.844 2178.34 205.844 Q2180.19 205.844 2182 205.358 Q2183.82 204.849 2185.63 203.853 L2185.63 207.788 Q2183.85 208.622 2181.93 209.038 Q2180.03 209.455 2177.88 209.455 Q2172.02 209.455 2168.57 205.774 Q2165.12 202.094 2165.12 195.844 Q2165.12 189.501 2168.59 185.867 Q2172.09 182.233 2178.15 182.233 Q2180.12 182.233 2182 182.65 Q2183.87 183.043 2185.63 183.853 Z" fill="#000000" fill-rule="evenodd" fill-opacity="1" /><path clip-path="url(#clip550)" d="M2214.59 193.136 L2214.59 208.784 L2210.33 208.784 L2210.33 193.275 Q2210.33 189.594 2208.89 187.765 Q2207.46 185.937 2204.59 185.937 Q2201.14 185.937 2199.15 188.136 Q2197.16 190.335 2197.16 194.131 L2197.16 208.784 L2192.88 208.784 L2192.88 182.858 L2197.16 182.858 L2197.16 186.886 Q2198.69 184.548 2200.75 183.39 Q2202.83 182.233 2205.54 182.233 Q2210.01 182.233 2212.3 185.011 Q2214.59 187.765 2214.59 193.136 Z" fill="#000000" fill-rule="evenodd" fill-opacity="1" /><path clip-path="url(#clip550)" d="M2227.3 175.497 L2227.3 182.858 L2236.07 182.858 L2236.07 186.168 L2227.3 186.168 L2227.3 200.242 Q2227.3 203.413 2228.15 204.316 Q2229.03 205.219 2231.69 205.219 L2236.07 205.219 L2236.07 208.784 L2231.69 208.784 Q2226.76 208.784 2224.89 206.955 Q2223.01 205.103 2223.01 200.242 L2223.01 186.168 L2219.89 186.168 L2219.89 182.858 L2223.01 182.858 L2223.01 175.497 L2227.3 175.497 Z" fill="#000000" fill-rule="evenodd" fill-opacity="1" /></svg>
