<?xml version="1.0" encoding="utf-8"?>
<svg xmlns="http://www.w3.org/2000/svg" xmlns:xlink="http://www.w3.org/1999/xlink" width="600" height="400" viewBox="0 0 2400 1600">
<defs>
  <clipPath id="clip230">
    <rect x="0" y="0" width="2400" height="1600"/>
  </clipPath>
</defs>
<path clip-path="url(#clip230)" d="
M0 1600 L2400 1600 L2400 0 L0 0  Z
  " fill="#ffffff" fill-rule="evenodd" fill-opacity="1"/>
<defs>
  <clipPath id="clip231">
    <rect x="480" y="0" width="1681" height="1600"/>
  </clipPath>
</defs>
<path clip-path="url(#clip230)" d="
M304.699 1423.18 L2352.76 1423.18 L2352.76 47.2441 L304.699 47.2441  Z
  " fill="#ffffff" fill-rule="evenodd" fill-opacity="1"/>
<defs>
  <clipPath id="clip232">
    <rect x="304" y="47" width="2049" height="1377"/>
  </clipPath>
</defs>
<polyline clip-path="url(#clip232)" style="stroke:#000000; stroke-linecap:round; stroke-linejoin:round; stroke-width:2; stroke-opacity:0.1; fill:none" points="
  474.307,1423.18 474.307,47.2441 
  "/>
<polyline clip-path="url(#clip232)" style="stroke:#000000; stroke-linecap:round; stroke-linejoin:round; stroke-width:2; stroke-opacity:0.1; fill:none" points="
  616.711,1423.18 616.711,47.2441 
  "/>
<polyline clip-path="url(#clip232)" style="stroke:#000000; stroke-linecap:round; stroke-linejoin:round; stroke-width:2; stroke-opacity:0.1; fill:none" points="
  759.114,1423.18 759.114,47.2441 
  "/>
<polyline clip-path="url(#clip232)" style="stroke:#000000; stroke-linecap:round; stroke-linejoin:round; stroke-width:2; stroke-opacity:0.1; fill:none" points="
  901.517,1423.18 901.517,47.2441 
  "/>
<polyline clip-path="url(#clip232)" style="stroke:#000000; stroke-linecap:round; stroke-linejoin:round; stroke-width:2; stroke-opacity:0.1; fill:none" points="
  1043.92,1423.18 1043.92,47.2441 
  "/>
<polyline clip-path="url(#clip232)" style="stroke:#000000; stroke-linecap:round; stroke-linejoin:round; stroke-width:2; stroke-opacity:0.1; fill:none" points="
  1186.32,1423.18 1186.32,47.2441 
  "/>
<polyline clip-path="url(#clip232)" style="stroke:#000000; stroke-linecap:round; stroke-linejoin:round; stroke-width:2; stroke-opacity:0.1; fill:none" points="
  1328.73,1423.18 1328.73,47.2441 
  "/>
<polyline clip-path="url(#clip232)" style="stroke:#000000; stroke-linecap:round; stroke-linejoin:round; stroke-width:2; stroke-opacity:0.1; fill:none" points="
  1471.13,1423.18 1471.13,47.2441 
  "/>
<polyline clip-path="url(#clip232)" style="stroke:#000000; stroke-linecap:round; stroke-linejoin:round; stroke-width:2; stroke-opacity:0.1; fill:none" points="
  1613.53,1423.18 1613.53,47.2441 
  "/>
<polyline clip-path="url(#clip232)" style="stroke:#000000; stroke-linecap:round; stroke-linejoin:round; stroke-width:2; stroke-opacity:0.1; fill:none" points="
  1755.94,1423.18 1755.94,47.2441 
  "/>
<polyline clip-path="url(#clip232)" style="stroke:#000000; stroke-linecap:round; stroke-linejoin:round; stroke-width:2; stroke-opacity:0.1; fill:none" points="
  1898.34,1423.18 1898.34,47.2441 
  "/>
<polyline clip-path="url(#clip232)" style="stroke:#000000; stroke-linecap:round; stroke-linejoin:round; stroke-width:2; stroke-opacity:0.1; fill:none" points="
  2040.74,1423.18 2040.74,47.2441 
  "/>
<polyline clip-path="url(#clip232)" style="stroke:#000000; stroke-linecap:round; stroke-linejoin:round; stroke-width:2; stroke-opacity:0.1; fill:none" points="
  2183.15,1423.18 2183.15,47.2441 
  "/>
<polyline clip-path="url(#clip230)" style="stroke:#000000; stroke-linecap:round; stroke-linejoin:round; stroke-width:4; stroke-opacity:1; fill:none" points="
  304.699,1423.18 2352.76,1423.18 
  "/>
<polyline clip-path="url(#clip230)" style="stroke:#000000; stroke-linecap:round; stroke-linejoin:round; stroke-width:4; stroke-opacity:1; fill:none" points="
  474.307,1423.18 474.307,1404.28 
  "/>
<polyline clip-path="url(#clip230)" style="stroke:#000000; stroke-linecap:round; stroke-linejoin:round; stroke-width:4; stroke-opacity:1; fill:none" points="
  616.711,1423.18 616.711,1404.28 
  "/>
<polyline clip-path="url(#clip230)" style="stroke:#000000; stroke-linecap:round; stroke-linejoin:round; stroke-width:4; stroke-opacity:1; fill:none" points="
  759.114,1423.18 759.114,1404.28 
  "/>
<polyline clip-path="url(#clip230)" style="stroke:#000000; stroke-linecap:round; stroke-linejoin:round; stroke-width:4; stroke-opacity:1; fill:none" points="
  901.517,1423.18 901.517,1404.28 
  "/>
<polyline clip-path="url(#clip230)" style="stroke:#000000; stroke-linecap:round; stroke-linejoin:round; stroke-width:4; stroke-opacity:1; fill:none" points="
  1043.92,1423.18 1043.92,1404.28 
  "/>
<polyline clip-path="url(#clip230)" style="stroke:#000000; stroke-linecap:round; stroke-linejoin:round; stroke-width:4; stroke-opacity:1; fill:none" points="
  1186.32,1423.18 1186.32,1404.28 
  "/>
<polyline clip-path="url(#clip230)" style="stroke:#000000; stroke-linecap:round; stroke-linejoin:round; stroke-width:4; stroke-opacity:1; fill:none" points="
  1328.73,1423.18 1328.73,1404.28 
  "/>
<polyline clip-path="url(#clip230)" style="stroke:#000000; stroke-linecap:round; stroke-linejoin:round; stroke-width:4; stroke-opacity:1; fill:none" points="
  1471.13,1423.18 1471.13,1404.28 
  "/>
<polyline clip-path="url(#clip230)" style="stroke:#000000; stroke-linecap:round; stroke-linejoin:round; stroke-width:4; stroke-opacity:1; fill:none" points="
  1613.53,1423.18 1613.53,1404.28 
  "/>
<polyline clip-path="url(#clip230)" style="stroke:#000000; stroke-linecap:round; stroke-linejoin:round; stroke-width:4; stroke-opacity:1; fill:none" points="
  1755.94,1423.18 1755.94,1404.28 
  "/>
<polyline clip-path="url(#clip230)" style="stroke:#000000; stroke-linecap:round; stroke-linejoin:round; stroke-width:4; stroke-opacity:1; fill:none" points="
  1898.34,1423.18 1898.34,1404.28 
  "/>
<polyline clip-path="url(#clip230)" style="stroke:#000000; stroke-linecap:round; stroke-linejoin:round; stroke-width:4; stroke-opacity:1; fill:none" points="
  2040.74,1423.18 2040.74,1404.28 
  "/>
<polyline clip-path="url(#clip230)" style="stroke:#000000; stroke-linecap:round; stroke-linejoin:round; stroke-width:4; stroke-opacity:1; fill:none" points="
  2183.15,1423.18 2183.15,1404.28 
  "/>
<path clip-path="url(#clip230)" d="M474.307 1454.1 Q470.696 1454.1 468.868 1457.66 Q467.062 1461.2 467.062 1468.33 Q467.062 1475.44 468.868 1479.01 Q470.696 1482.55 474.307 1482.55 Q477.942 1482.55 479.747 1479.01 Q481.576 1475.44 481.576 1468.33 Q481.576 1461.2 479.747 1457.66 Q477.942 1454.1 474.307 1454.1 M474.307 1450.39 Q480.118 1450.39 483.173 1455 Q486.252 1459.58 486.252 1468.33 Q486.252 1477.06 483.173 1481.67 Q480.118 1486.25 474.307 1486.25 Q468.497 1486.25 465.419 1481.67 Q462.363 1477.06 462.363 1468.33 Q462.363 1459.58 465.419 1455 Q468.497 1450.39 474.307 1450.39 Z" fill="#000000" fill-rule="evenodd" fill-opacity="1" /><path clip-path="url(#clip230)" d="M607.093 1481.64 L614.732 1481.64 L614.732 1455.28 L606.421 1456.95 L606.421 1452.69 L614.685 1451.02 L619.361 1451.02 L619.361 1481.64 L627 1481.64 L627 1485.58 L607.093 1485.58 L607.093 1481.64 Z" fill="#000000" fill-rule="evenodd" fill-opacity="1" /><path clip-path="url(#clip230)" d="M753.767 1481.64 L770.086 1481.64 L770.086 1485.58 L748.142 1485.58 L748.142 1481.64 Q750.804 1478.89 755.387 1474.26 Q759.994 1469.61 761.174 1468.27 Q763.42 1465.74 764.299 1464.01 Q765.202 1462.25 765.202 1460.56 Q765.202 1457.8 763.258 1456.07 Q761.336 1454.33 758.235 1454.33 Q756.035 1454.33 753.582 1455.09 Q751.151 1455.86 748.373 1457.41 L748.373 1452.69 Q751.198 1451.55 753.651 1450.97 Q756.105 1450.39 758.142 1450.39 Q763.512 1450.39 766.707 1453.08 Q769.901 1455.77 769.901 1460.26 Q769.901 1462.39 769.091 1464.31 Q768.304 1466.2 766.197 1468.8 Q765.619 1469.47 762.517 1472.69 Q759.415 1475.88 753.767 1481.64 Z" fill="#000000" fill-rule="evenodd" fill-opacity="1" /><path clip-path="url(#clip230)" d="M905.765 1466.95 Q909.122 1467.66 910.997 1469.93 Q912.895 1472.2 912.895 1475.53 Q912.895 1480.65 909.376 1483.45 Q905.858 1486.25 899.376 1486.25 Q897.2 1486.25 894.886 1485.81 Q892.594 1485.39 890.14 1484.54 L890.14 1480.02 Q892.085 1481.16 894.399 1481.74 Q896.714 1482.32 899.237 1482.32 Q903.636 1482.32 905.927 1480.58 Q908.242 1478.84 908.242 1475.53 Q908.242 1472.48 906.089 1470.77 Q903.96 1469.03 900.14 1469.03 L896.112 1469.03 L896.112 1465.19 L900.325 1465.19 Q903.774 1465.19 905.603 1463.82 Q907.432 1462.43 907.432 1459.84 Q907.432 1457.18 905.534 1455.77 Q903.659 1454.33 900.14 1454.33 Q898.219 1454.33 896.02 1454.75 Q893.821 1455.16 891.182 1456.04 L891.182 1451.88 Q893.844 1451.14 896.159 1450.77 Q898.497 1450.39 900.557 1450.39 Q905.881 1450.39 908.983 1452.83 Q912.085 1455.23 912.085 1459.35 Q912.085 1462.22 910.441 1464.21 Q908.798 1466.18 905.765 1466.95 Z" fill="#000000" fill-rule="evenodd" fill-opacity="1" /><path clip-path="url(#clip230)" d="M1046.93 1455.09 L1035.12 1473.54 L1046.93 1473.54 L1046.93 1455.09 M1045.7 1451.02 L1051.58 1451.02 L1051.58 1473.54 L1056.51 1473.54 L1056.51 1477.43 L1051.58 1477.43 L1051.58 1485.58 L1046.93 1485.58 L1046.93 1477.43 L1031.33 1477.43 L1031.33 1472.92 L1045.7 1451.02 Z" fill="#000000" fill-rule="evenodd" fill-opacity="1" /><path clip-path="url(#clip230)" d="M1176.6 1451.02 L1194.96 1451.02 L1194.96 1454.96 L1180.88 1454.96 L1180.88 1463.43 Q1181.9 1463.08 1182.92 1462.92 Q1183.94 1462.73 1184.96 1462.73 Q1190.75 1462.73 1194.13 1465.9 Q1197.5 1469.08 1197.5 1474.49 Q1197.5 1480.07 1194.03 1483.17 Q1190.56 1486.25 1184.24 1486.25 Q1182.06 1486.25 1179.8 1485.88 Q1177.55 1485.51 1175.14 1484.77 L1175.14 1480.07 Q1177.23 1481.2 1179.45 1481.76 Q1181.67 1482.32 1184.15 1482.32 Q1188.15 1482.32 1190.49 1480.21 Q1192.83 1478.1 1192.83 1474.49 Q1192.83 1470.88 1190.49 1468.77 Q1188.15 1466.67 1184.15 1466.67 Q1182.27 1466.67 1180.4 1467.08 Q1178.55 1467.5 1176.6 1468.38 L1176.6 1451.02 Z" fill="#000000" fill-rule="evenodd" fill-opacity="1" /><path clip-path="url(#clip230)" d="M1329.13 1466.44 Q1325.98 1466.44 1324.13 1468.59 Q1322.3 1470.74 1322.3 1474.49 Q1322.3 1478.22 1324.13 1480.39 Q1325.98 1482.55 1329.13 1482.55 Q1332.28 1482.55 1334.11 1480.39 Q1335.96 1478.22 1335.96 1474.49 Q1335.96 1470.74 1334.11 1468.59 Q1332.28 1466.44 1329.13 1466.44 M1338.42 1451.78 L1338.42 1456.04 Q1336.66 1455.21 1334.85 1454.77 Q1333.07 1454.33 1331.31 1454.33 Q1326.68 1454.33 1324.23 1457.45 Q1321.79 1460.58 1321.45 1466.9 Q1322.81 1464.89 1324.87 1463.82 Q1326.93 1462.73 1329.41 1462.73 Q1334.62 1462.73 1337.63 1465.9 Q1340.66 1469.05 1340.66 1474.49 Q1340.66 1479.82 1337.51 1483.03 Q1334.36 1486.25 1329.13 1486.25 Q1323.14 1486.25 1319.97 1481.67 Q1316.79 1477.06 1316.79 1468.33 Q1316.79 1460.14 1320.68 1455.28 Q1324.57 1450.39 1331.12 1450.39 Q1332.88 1450.39 1334.67 1450.74 Q1336.47 1451.09 1338.42 1451.78 Z" fill="#000000" fill-rule="evenodd" fill-opacity="1" /><path clip-path="url(#clip230)" d="M1460.02 1451.02 L1482.24 1451.02 L1482.24 1453.01 L1469.7 1485.58 L1464.81 1485.58 L1476.62 1454.96 L1460.02 1454.96 L1460.02 1451.02 Z" fill="#000000" fill-rule="evenodd" fill-opacity="1" /><path clip-path="url(#clip230)" d="M1613.53 1469.17 Q1610.2 1469.17 1608.28 1470.95 Q1606.38 1472.73 1606.38 1475.86 Q1606.38 1478.98 1608.28 1480.77 Q1610.2 1482.55 1613.53 1482.55 Q1616.87 1482.55 1618.79 1480.77 Q1620.71 1478.96 1620.71 1475.86 Q1620.71 1472.73 1618.79 1470.95 Q1616.89 1469.17 1613.53 1469.17 M1608.86 1467.18 Q1605.85 1466.44 1604.16 1464.38 Q1602.49 1462.32 1602.49 1459.35 Q1602.49 1455.21 1605.43 1452.8 Q1608.4 1450.39 1613.53 1450.39 Q1618.7 1450.39 1621.64 1452.8 Q1624.58 1455.21 1624.58 1459.35 Q1624.58 1462.32 1622.89 1464.38 Q1621.22 1466.44 1618.23 1467.18 Q1621.61 1467.96 1623.49 1470.26 Q1625.39 1472.55 1625.39 1475.86 Q1625.39 1480.88 1622.31 1483.57 Q1619.25 1486.25 1613.53 1486.25 Q1607.82 1486.25 1604.74 1483.57 Q1601.68 1480.88 1601.68 1475.86 Q1601.68 1472.55 1603.58 1470.26 Q1605.48 1467.96 1608.86 1467.18 M1607.15 1459.79 Q1607.15 1462.48 1608.81 1463.98 Q1610.5 1465.49 1613.53 1465.49 Q1616.54 1465.49 1618.23 1463.98 Q1619.95 1462.48 1619.95 1459.79 Q1619.95 1457.11 1618.23 1455.6 Q1616.54 1454.1 1613.53 1454.1 Q1610.5 1454.1 1608.81 1455.6 Q1607.15 1457.11 1607.15 1459.79 Z" fill="#000000" fill-rule="evenodd" fill-opacity="1" /><path clip-path="url(#clip230)" d="M1746.24 1484.86 L1746.24 1480.6 Q1748 1481.44 1749.8 1481.88 Q1751.61 1482.32 1753.35 1482.32 Q1757.97 1482.32 1760.41 1479.21 Q1762.86 1476.09 1763.21 1469.75 Q1761.86 1471.74 1759.8 1472.8 Q1757.74 1473.87 1755.24 1473.87 Q1750.06 1473.87 1747.03 1470.74 Q1744.02 1467.59 1744.02 1462.15 Q1744.02 1456.83 1747.16 1453.61 Q1750.31 1450.39 1755.54 1450.39 Q1761.54 1450.39 1764.69 1455 Q1767.86 1459.58 1767.86 1468.33 Q1767.86 1476.51 1763.97 1481.39 Q1760.1 1486.25 1753.55 1486.25 Q1751.79 1486.25 1749.99 1485.9 Q1748.18 1485.56 1746.24 1484.86 M1755.54 1470.21 Q1758.69 1470.21 1760.52 1468.06 Q1762.37 1465.9 1762.37 1462.15 Q1762.37 1458.43 1760.52 1456.27 Q1758.69 1454.1 1755.54 1454.1 Q1752.4 1454.1 1750.54 1456.27 Q1748.72 1458.43 1748.72 1462.15 Q1748.72 1465.9 1750.54 1468.06 Q1752.4 1470.21 1755.54 1470.21 Z" fill="#000000" fill-rule="evenodd" fill-opacity="1" /><path clip-path="url(#clip230)" d="M1873.03 1481.64 L1880.67 1481.64 L1880.67 1455.28 L1872.36 1456.95 L1872.36 1452.69 L1880.62 1451.02 L1885.3 1451.02 L1885.3 1481.64 L1892.94 1481.64 L1892.94 1485.58 L1873.03 1485.58 L1873.03 1481.64 Z" fill="#000000" fill-rule="evenodd" fill-opacity="1" /><path clip-path="url(#clip230)" d="M1912.38 1454.1 Q1908.77 1454.1 1906.94 1457.66 Q1905.14 1461.2 1905.14 1468.33 Q1905.14 1475.44 1906.94 1479.01 Q1908.77 1482.55 1912.38 1482.55 Q1916.01 1482.55 1917.82 1479.01 Q1919.65 1475.44 1919.65 1468.33 Q1919.65 1461.2 1917.82 1457.66 Q1916.01 1454.1 1912.38 1454.1 M1912.38 1450.39 Q1918.19 1450.39 1921.25 1455 Q1924.32 1459.58 1924.32 1468.33 Q1924.32 1477.06 1921.25 1481.67 Q1918.19 1486.25 1912.38 1486.25 Q1906.57 1486.25 1903.49 1481.67 Q1900.44 1477.06 1900.44 1468.33 Q1900.44 1459.58 1903.49 1455 Q1906.57 1450.39 1912.38 1450.39 Z" fill="#000000" fill-rule="evenodd" fill-opacity="1" /><path clip-path="url(#clip230)" d="M2016.05 1481.64 L2023.68 1481.64 L2023.68 1455.28 L2015.37 1456.95 L2015.37 1452.69 L2023.64 1451.02 L2028.31 1451.02 L2028.31 1481.64 L2035.95 1481.64 L2035.95 1485.58 L2016.05 1485.58 L2016.05 1481.64 Z" fill="#000000" fill-rule="evenodd" fill-opacity="1" /><path clip-path="url(#clip230)" d="M2046.21 1481.64 L2053.85 1481.64 L2053.85 1455.28 L2045.54 1456.95 L2045.54 1452.69 L2053.8 1451.02 L2058.48 1451.02 L2058.48 1481.64 L2066.11 1481.64 L2066.11 1485.58 L2046.21 1485.58 L2046.21 1481.64 Z" fill="#000000" fill-rule="evenodd" fill-opacity="1" /><path clip-path="url(#clip230)" d="M2158.63 1481.64 L2166.27 1481.64 L2166.27 1455.28 L2157.96 1456.95 L2157.96 1452.69 L2166.23 1451.02 L2170.9 1451.02 L2170.9 1481.64 L2178.54 1481.64 L2178.54 1485.58 L2158.63 1485.58 L2158.63 1481.64 Z" fill="#000000" fill-rule="evenodd" fill-opacity="1" /><path clip-path="url(#clip230)" d="M2192.01 1481.64 L2208.33 1481.64 L2208.33 1485.58 L2186.39 1485.58 L2186.39 1481.64 Q2189.05 1478.89 2193.63 1474.26 Q2198.24 1469.61 2199.42 1468.27 Q2201.67 1465.74 2202.55 1464.01 Q2203.45 1462.25 2203.45 1460.56 Q2203.45 1457.8 2201.5 1456.07 Q2199.58 1454.33 2196.48 1454.33 Q2194.28 1454.33 2191.83 1455.09 Q2189.4 1455.86 2186.62 1457.41 L2186.62 1452.69 Q2189.44 1451.55 2191.9 1450.97 Q2194.35 1450.39 2196.39 1450.39 Q2201.76 1450.39 2204.95 1453.08 Q2208.15 1455.77 2208.15 1460.26 Q2208.15 1462.39 2207.34 1464.31 Q2206.55 1466.2 2204.44 1468.8 Q2203.87 1469.47 2200.76 1472.69 Q2197.66 1475.88 2192.01 1481.64 Z" fill="#000000" fill-rule="evenodd" fill-opacity="1" /><path clip-path="url(#clip230)" d="M929.725 1520.52 L936.186 1520.52 L936.186 1549.39 Q936.186 1557.03 938.955 1560.4 Q941.724 1563.75 947.931 1563.75 Q954.106 1563.75 956.875 1560.4 Q959.644 1557.03 959.644 1549.39 L959.644 1520.52 L966.105 1520.52 L966.105 1550.19 Q966.105 1559.48 961.49 1564.22 Q956.907 1568.97 947.931 1568.97 Q938.924 1568.97 934.308 1564.22 Q929.725 1559.48 929.725 1550.19 L929.725 1520.52 Z" fill="#000000" fill-rule="evenodd" fill-opacity="1" /><path clip-path="url(#clip230)" d="M1000.64 1533.45 L1000.64 1538.98 Q998.156 1537.71 995.483 1537.07 Q992.809 1536.44 989.945 1536.44 Q985.584 1536.44 983.388 1537.77 Q981.224 1539.11 981.224 1541.79 Q981.224 1543.82 982.783 1545 Q984.343 1546.15 989.053 1547.2 L991.059 1547.64 Q997.297 1548.98 999.907 1551.43 Q1002.55 1553.85 1002.55 1558.21 Q1002.55 1563.17 998.602 1566.07 Q994.687 1568.97 987.812 1568.97 Q984.948 1568.97 981.828 1568.39 Q978.741 1567.85 975.304 1566.74 L975.304 1560.69 Q978.55 1562.38 981.701 1563.24 Q984.852 1564.07 987.939 1564.07 Q992.077 1564.07 994.305 1562.66 Q996.533 1561.23 996.533 1558.65 Q996.533 1556.27 994.91 1554.99 Q993.319 1553.72 987.876 1552.54 L985.839 1552.07 Q980.396 1550.92 977.977 1548.56 Q975.558 1546.18 975.558 1542.04 Q975.558 1537.01 979.123 1534.27 Q982.688 1531.54 989.244 1531.54 Q992.491 1531.54 995.356 1532.01 Q998.22 1532.49 1000.64 1533.45 Z" fill="#000000" fill-rule="evenodd" fill-opacity="1" /><path clip-path="url(#clip230)" d="M1028.08 1550.12 Q1020.98 1550.12 1018.24 1551.75 Q1015.5 1553.37 1015.5 1557.29 Q1015.5 1560.4 1017.54 1562.25 Q1019.61 1564.07 1023.14 1564.07 Q1028.01 1564.07 1030.94 1560.63 Q1033.9 1557.16 1033.9 1551.43 L1033.9 1550.12 L1028.08 1550.12 M1039.76 1547.71 L1039.76 1568.04 L1033.9 1568.04 L1033.9 1562.63 Q1031.89 1565.88 1028.9 1567.44 Q1025.91 1568.97 1021.58 1568.97 Q1016.11 1568.97 1012.86 1565.91 Q1009.65 1562.82 1009.65 1557.67 Q1009.65 1551.65 1013.66 1548.6 Q1017.7 1545.54 1025.69 1545.54 L1033.9 1545.54 L1033.9 1544.97 Q1033.9 1540.93 1031.23 1538.73 Q1028.58 1536.5 1023.78 1536.5 Q1020.72 1536.5 1017.83 1537.23 Q1014.93 1537.97 1012.26 1539.43 L1012.26 1534.02 Q1015.47 1532.78 1018.49 1532.17 Q1021.52 1531.54 1024.38 1531.54 Q1032.12 1531.54 1035.94 1535.55 Q1039.76 1539.56 1039.76 1547.71 Z" fill="#000000" fill-rule="evenodd" fill-opacity="1" /><path clip-path="url(#clip230)" d="M1075.28 1549.81 Q1075.28 1543.44 1072.64 1539.94 Q1070.03 1536.44 1065.28 1536.44 Q1060.57 1536.44 1057.93 1539.94 Q1055.32 1543.44 1055.32 1549.81 Q1055.32 1556.14 1057.93 1559.64 Q1060.57 1563.14 1065.28 1563.14 Q1070.03 1563.14 1072.64 1559.64 Q1075.28 1556.14 1075.28 1549.81 M1081.13 1563.62 Q1081.13 1572.72 1077.09 1577.15 Q1073.05 1581.6 1064.71 1581.6 Q1061.62 1581.6 1058.89 1581.13 Q1056.15 1580.68 1053.57 1579.72 L1053.57 1574.03 Q1056.15 1575.43 1058.66 1576.1 Q1061.18 1576.76 1063.79 1576.76 Q1069.55 1576.76 1072.41 1573.74 Q1075.28 1570.75 1075.28 1564.67 L1075.28 1561.77 Q1073.46 1564.92 1070.63 1566.48 Q1067.8 1568.04 1063.85 1568.04 Q1057.29 1568.04 1053.28 1563.05 Q1049.27 1558.05 1049.27 1549.81 Q1049.27 1541.53 1053.28 1536.53 Q1057.29 1531.54 1063.85 1531.54 Q1067.8 1531.54 1070.63 1533.1 Q1073.46 1534.66 1075.28 1537.81 L1075.28 1532.4 L1081.13 1532.4 L1081.13 1563.62 Z" fill="#000000" fill-rule="evenodd" fill-opacity="1" /><path clip-path="url(#clip230)" d="M1123.69 1548.76 L1123.69 1551.62 L1096.76 1551.62 Q1097.14 1557.67 1100.39 1560.85 Q1103.67 1564 1109.49 1564 Q1112.87 1564 1116.02 1563.17 Q1119.2 1562.35 1122.32 1560.69 L1122.32 1566.23 Q1119.17 1567.57 1115.86 1568.27 Q1112.55 1568.97 1109.14 1568.97 Q1100.61 1568.97 1095.62 1564 Q1090.65 1559.04 1090.65 1550.57 Q1090.65 1541.82 1095.36 1536.69 Q1100.1 1531.54 1108.12 1531.54 Q1115.32 1531.54 1119.49 1536.18 Q1123.69 1540.8 1123.69 1548.76 M1117.83 1547.04 Q1117.77 1542.23 1115.13 1539.37 Q1112.52 1536.5 1108.19 1536.5 Q1103.29 1536.5 1100.33 1539.27 Q1097.4 1542.04 1096.95 1547.07 L1117.83 1547.04 Z" fill="#000000" fill-rule="evenodd" fill-opacity="1" /><path clip-path="url(#clip230)" d="M1154.02 1532.4 L1159.88 1532.4 L1159.88 1568.04 L1154.02 1568.04 L1154.02 1532.4 M1154.02 1518.52 L1159.88 1518.52 L1159.88 1525.93 L1154.02 1525.93 L1154.02 1518.52 Z" fill="#000000" fill-rule="evenodd" fill-opacity="1" /><path clip-path="url(#clip230)" d="M1201.76 1546.53 L1201.76 1568.04 L1195.91 1568.04 L1195.91 1546.72 Q1195.91 1541.66 1193.93 1539.14 Q1191.96 1536.63 1188.01 1536.63 Q1183.27 1536.63 1180.53 1539.65 Q1177.8 1542.68 1177.8 1547.9 L1177.8 1568.04 L1171.91 1568.04 L1171.91 1532.4 L1177.8 1532.4 L1177.8 1537.93 Q1179.9 1534.72 1182.73 1533.13 Q1185.59 1531.54 1189.32 1531.54 Q1195.46 1531.54 1198.61 1535.36 Q1201.76 1539.14 1201.76 1546.53 Z" fill="#000000" fill-rule="evenodd" fill-opacity="1" /><path clip-path="url(#clip230)" d="M1257.62 1537.81 L1257.62 1518.52 L1263.48 1518.52 L1263.48 1568.04 L1257.62 1568.04 L1257.62 1562.7 Q1255.78 1565.88 1252.94 1567.44 Q1250.14 1568.97 1246.2 1568.97 Q1239.74 1568.97 1235.66 1563.81 Q1231.62 1558.65 1231.62 1550.25 Q1231.62 1541.85 1235.66 1536.69 Q1239.74 1531.54 1246.2 1531.54 Q1250.14 1531.54 1252.94 1533.1 Q1255.78 1534.62 1257.62 1537.81 M1237.67 1550.25 Q1237.67 1556.71 1240.31 1560.4 Q1242.98 1564.07 1247.63 1564.07 Q1252.28 1564.07 1254.95 1560.4 Q1257.62 1556.71 1257.62 1550.25 Q1257.62 1543.79 1254.95 1540.13 Q1252.28 1536.44 1247.63 1536.44 Q1242.98 1536.44 1240.31 1540.13 Q1237.67 1543.79 1237.67 1550.25 Z" fill="#000000" fill-rule="evenodd" fill-opacity="1" /><path clip-path="url(#clip230)" d="M1275.54 1532.4 L1281.4 1532.4 L1281.4 1568.04 L1275.54 1568.04 L1275.54 1532.4 M1275.54 1518.52 L1281.4 1518.52 L1281.4 1525.93 L1275.54 1525.93 L1275.54 1518.52 Z" fill="#000000" fill-rule="evenodd" fill-opacity="1" /><path clip-path="url(#clip230)" d="M1311.7 1518.52 L1311.7 1523.39 L1306.1 1523.39 Q1302.95 1523.39 1301.71 1524.66 Q1300.5 1525.93 1300.5 1529.24 L1300.5 1532.4 L1310.14 1532.4 L1310.14 1536.95 L1300.5 1536.95 L1300.5 1568.04 L1294.61 1568.04 L1294.61 1536.95 L1289.01 1536.95 L1289.01 1532.4 L1294.61 1532.4 L1294.61 1529.91 Q1294.61 1523.96 1297.38 1521.26 Q1300.15 1518.52 1306.16 1518.52 L1311.7 1518.52 Z" fill="#000000" fill-rule="evenodd" fill-opacity="1" /><path clip-path="url(#clip230)" d="M1334.65 1518.52 L1334.65 1523.39 L1329.05 1523.39 Q1325.89 1523.39 1324.65 1524.66 Q1323.44 1525.93 1323.44 1529.24 L1323.44 1532.4 L1333.09 1532.4 L1333.09 1536.95 L1323.44 1536.95 L1323.44 1568.04 L1317.56 1568.04 L1317.56 1536.95 L1311.95 1536.95 L1311.95 1532.4 L1317.56 1532.4 L1317.56 1529.91 Q1317.56 1523.96 1320.32 1521.26 Q1323.09 1518.52 1329.11 1518.52 L1334.65 1518.52 Z" fill="#000000" fill-rule="evenodd" fill-opacity="1" /><path clip-path="url(#clip230)" d="M1370.04 1548.76 L1370.04 1551.62 L1343.11 1551.62 Q1343.5 1557.67 1346.74 1560.85 Q1350.02 1564 1355.85 1564 Q1359.22 1564 1362.37 1563.17 Q1365.55 1562.35 1368.67 1560.69 L1368.67 1566.23 Q1365.52 1567.57 1362.21 1568.27 Q1358.9 1568.97 1355.5 1568.97 Q1346.97 1568.97 1341.97 1564 Q1337 1559.04 1337 1550.57 Q1337 1541.82 1341.71 1536.69 Q1346.46 1531.54 1354.48 1531.54 Q1361.67 1531.54 1365.84 1536.18 Q1370.04 1540.8 1370.04 1548.76 M1364.18 1547.04 Q1364.12 1542.23 1361.48 1539.37 Q1358.87 1536.5 1354.54 1536.5 Q1349.64 1536.5 1346.68 1539.27 Q1343.75 1542.04 1343.31 1547.07 L1364.18 1547.04 Z" fill="#000000" fill-rule="evenodd" fill-opacity="1" /><path clip-path="url(#clip230)" d="M1400.31 1537.87 Q1399.32 1537.3 1398.15 1537.04 Q1397 1536.76 1395.6 1536.76 Q1390.63 1536.76 1387.96 1540 Q1385.32 1543.22 1385.32 1549.27 L1385.32 1568.04 L1379.43 1568.04 L1379.43 1532.4 L1385.32 1532.4 L1385.32 1537.93 Q1387.16 1534.69 1390.12 1533.13 Q1393.08 1531.54 1397.32 1531.54 Q1397.92 1531.54 1398.65 1531.63 Q1399.39 1531.7 1400.28 1531.85 L1400.31 1537.87 Z" fill="#000000" fill-rule="evenodd" fill-opacity="1" /><path clip-path="url(#clip230)" d="M1435.51 1548.76 L1435.51 1551.62 L1408.59 1551.62 Q1408.97 1557.67 1412.21 1560.85 Q1415.49 1564 1421.32 1564 Q1424.69 1564 1427.84 1563.17 Q1431.02 1562.35 1434.14 1560.69 L1434.14 1566.23 Q1430.99 1567.57 1427.68 1568.27 Q1424.37 1568.97 1420.97 1568.97 Q1412.44 1568.97 1407.44 1564 Q1402.47 1559.04 1402.47 1550.57 Q1402.47 1541.82 1407.18 1536.69 Q1411.93 1531.54 1419.95 1531.54 Q1427.14 1531.54 1431.31 1536.18 Q1435.51 1540.8 1435.51 1548.76 M1429.66 1547.04 Q1429.59 1542.23 1426.95 1539.37 Q1424.34 1536.5 1420.01 1536.5 Q1415.11 1536.5 1412.15 1539.27 Q1409.22 1542.04 1408.78 1547.07 L1429.66 1547.04 Z" fill="#000000" fill-rule="evenodd" fill-opacity="1" /><path clip-path="url(#clip230)" d="M1474.76 1546.53 L1474.76 1568.04 L1468.9 1568.04 L1468.9 1546.72 Q1468.9 1541.66 1466.93 1539.14 Q1464.95 1536.63 1461.01 1536.63 Q1456.26 1536.63 1453.53 1539.65 Q1450.79 1542.68 1450.79 1547.9 L1450.79 1568.04 L1444.9 1568.04 L1444.9 1532.4 L1450.79 1532.4 L1450.79 1537.93 Q1452.89 1534.72 1455.72 1533.13 Q1458.59 1531.54 1462.31 1531.54 Q1468.45 1531.54 1471.61 1535.36 Q1474.76 1539.14 1474.76 1546.53 Z" fill="#000000" fill-rule="evenodd" fill-opacity="1" /><path clip-path="url(#clip230)" d="M1492.23 1522.27 L1492.23 1532.4 L1504.29 1532.4 L1504.29 1536.95 L1492.23 1536.95 L1492.23 1556.3 Q1492.23 1560.66 1493.41 1561.9 Q1494.62 1563.14 1498.28 1563.14 L1504.29 1563.14 L1504.29 1568.04 L1498.28 1568.04 Q1491.5 1568.04 1488.92 1565.53 Q1486.34 1562.98 1486.34 1556.3 L1486.34 1536.95 L1482.05 1536.95 L1482.05 1532.4 L1486.34 1532.4 L1486.34 1522.27 L1492.23 1522.27 Z" fill="#000000" fill-rule="evenodd" fill-opacity="1" /><path clip-path="url(#clip230)" d="M1538.51 1522.27 L1538.51 1532.4 L1550.57 1532.4 L1550.57 1536.95 L1538.51 1536.95 L1538.51 1556.3 Q1538.51 1560.66 1539.69 1561.9 Q1540.9 1563.14 1544.56 1563.14 L1550.57 1563.14 L1550.57 1568.04 L1544.56 1568.04 Q1537.78 1568.04 1535.2 1565.53 Q1532.62 1562.98 1532.62 1556.3 L1532.62 1536.95 L1528.32 1536.95 L1528.32 1532.4 L1532.62 1532.4 L1532.62 1522.27 L1538.51 1522.27 Z" fill="#000000" fill-rule="evenodd" fill-opacity="1" /><path clip-path="url(#clip230)" d="M1558.27 1532.4 L1564.13 1532.4 L1564.13 1568.04 L1558.27 1568.04 L1558.27 1532.4 M1558.27 1518.52 L1564.13 1518.52 L1564.13 1525.93 L1558.27 1525.93 L1558.27 1518.52 Z" fill="#000000" fill-rule="evenodd" fill-opacity="1" /><path clip-path="url(#clip230)" d="M1576.39 1518.52 L1582.24 1518.52 L1582.24 1568.04 L1576.39 1568.04 L1576.39 1518.52 Z" fill="#000000" fill-rule="evenodd" fill-opacity="1" /><path clip-path="url(#clip230)" d="M1595.39 1520.52 L1620.63 1520.52 L1620.63 1525.93 L1601.28 1525.93 L1601.28 1537.58 Q1602.68 1537.11 1604.08 1536.88 Q1605.48 1536.63 1606.88 1536.63 Q1614.83 1536.63 1619.48 1540.99 Q1624.13 1545.35 1624.13 1552.8 Q1624.13 1560.47 1619.35 1564.73 Q1614.58 1568.97 1605.89 1568.97 Q1602.9 1568.97 1599.78 1568.46 Q1596.69 1567.95 1593.38 1566.93 L1593.38 1560.47 Q1596.25 1562.03 1599.3 1562.79 Q1602.36 1563.56 1605.76 1563.56 Q1611.27 1563.56 1614.48 1560.66 Q1617.7 1557.76 1617.7 1552.8 Q1617.7 1547.83 1614.48 1544.94 Q1611.27 1542.04 1605.76 1542.04 Q1603.19 1542.04 1600.61 1542.61 Q1598.06 1543.19 1595.39 1544.4 L1595.39 1520.52 Z" fill="#000000" fill-rule="evenodd" fill-opacity="1" /><path clip-path="url(#clip230)" d="M1652.17 1550.12 Q1645.07 1550.12 1642.33 1551.75 Q1639.6 1553.37 1639.6 1557.29 Q1639.6 1560.4 1641.63 1562.25 Q1643.7 1564.07 1647.24 1564.07 Q1652.11 1564.07 1655.03 1560.63 Q1657.99 1557.16 1657.99 1551.43 L1657.99 1550.12 L1652.17 1550.12 M1663.85 1547.71 L1663.85 1568.04 L1657.99 1568.04 L1657.99 1562.63 Q1655.99 1565.88 1653 1567.44 Q1650 1568.97 1645.68 1568.97 Q1640.2 1568.97 1636.96 1565.91 Q1633.74 1562.82 1633.74 1557.67 Q1633.74 1551.65 1637.75 1548.6 Q1641.79 1545.54 1649.78 1545.54 L1657.99 1545.54 L1657.99 1544.97 Q1657.99 1540.93 1655.32 1538.73 Q1652.68 1536.5 1647.87 1536.5 Q1644.82 1536.5 1641.92 1537.23 Q1639.02 1537.97 1636.35 1539.43 L1636.35 1534.02 Q1639.57 1532.78 1642.59 1532.17 Q1645.61 1531.54 1648.48 1531.54 Q1656.21 1531.54 1660.03 1535.55 Q1663.85 1539.56 1663.85 1547.71 Z" fill="#000000" fill-rule="evenodd" fill-opacity="1" /><path clip-path="url(#clip230)" d="M1703.67 1539.24 Q1705.86 1535.29 1708.92 1533.41 Q1711.97 1531.54 1716.11 1531.54 Q1721.68 1531.54 1724.71 1535.45 Q1727.73 1539.33 1727.73 1546.53 L1727.73 1568.04 L1721.84 1568.04 L1721.84 1546.72 Q1721.84 1541.59 1720.03 1539.11 Q1718.21 1536.63 1714.49 1536.63 Q1709.94 1536.63 1707.3 1539.65 Q1704.65 1542.68 1704.65 1547.9 L1704.65 1568.04 L1698.77 1568.04 L1698.77 1546.72 Q1698.77 1541.56 1696.95 1539.11 Q1695.14 1536.63 1691.35 1536.63 Q1686.86 1536.63 1684.22 1539.68 Q1681.58 1542.71 1681.58 1547.9 L1681.58 1568.04 L1675.69 1568.04 L1675.69 1532.4 L1681.58 1532.4 L1681.58 1537.93 Q1683.58 1534.66 1686.38 1533.1 Q1689.19 1531.54 1693.04 1531.54 Q1696.92 1531.54 1699.63 1533.51 Q1702.36 1535.48 1703.67 1539.24 Z" fill="#000000" fill-rule="evenodd" fill-opacity="1" /><polyline clip-path="url(#clip232)" style="stroke:#000000; stroke-linecap:round; stroke-linejoin:round; stroke-width:2; stroke-opacity:0.1; fill:none" points="
  304.699,1384.24 2352.76,1384.24 
  "/>
<polyline clip-path="url(#clip232)" style="stroke:#000000; stroke-linecap:round; stroke-linejoin:round; stroke-width:2; stroke-opacity:0.1; fill:none" points="
  304.699,978.698 2352.76,978.698 
  "/>
<polyline clip-path="url(#clip232)" style="stroke:#000000; stroke-linecap:round; stroke-linejoin:round; stroke-width:2; stroke-opacity:0.1; fill:none" points="
  304.699,573.158 2352.76,573.158 
  "/>
<polyline clip-path="url(#clip232)" style="stroke:#000000; stroke-linecap:round; stroke-linejoin:round; stroke-width:2; stroke-opacity:0.1; fill:none" points="
  304.699,167.618 2352.76,167.618 
  "/>
<polyline clip-path="url(#clip230)" style="stroke:#000000; stroke-linecap:round; stroke-linejoin:round; stroke-width:4; stroke-opacity:1; fill:none" points="
  304.699,1423.18 304.699,47.2441 
  "/>
<polyline clip-path="url(#clip230)" style="stroke:#000000; stroke-linecap:round; stroke-linejoin:round; stroke-width:4; stroke-opacity:1; fill:none" points="
  304.699,1384.24 323.597,1384.24 
  "/>
<polyline clip-path="url(#clip230)" style="stroke:#000000; stroke-linecap:round; stroke-linejoin:round; stroke-width:4; stroke-opacity:1; fill:none" points="
  304.699,978.698 323.597,978.698 
  "/>
<polyline clip-path="url(#clip230)" style="stroke:#000000; stroke-linecap:round; stroke-linejoin:round; stroke-width:4; stroke-opacity:1; fill:none" points="
  304.699,573.158 323.597,573.158 
  "/>
<polyline clip-path="url(#clip230)" style="stroke:#000000; stroke-linecap:round; stroke-linejoin:round; stroke-width:4; stroke-opacity:1; fill:none" points="
  304.699,167.618 323.597,167.618 
  "/>
<path clip-path="url(#clip230)" d="M256.755 1370.04 Q253.144 1370.04 251.315 1373.6 Q249.51 1377.14 249.51 1384.27 Q249.51 1391.38 251.315 1394.94 Q253.144 1398.49 256.755 1398.49 Q260.389 1398.49 262.195 1394.94 Q264.023 1391.38 264.023 1384.27 Q264.023 1377.14 262.195 1373.6 Q260.389 1370.04 256.755 1370.04 M256.755 1366.33 Q262.565 1366.33 265.621 1370.94 Q268.699 1375.52 268.699 1384.27 Q268.699 1393 265.621 1397.61 Q262.565 1402.19 256.755 1402.19 Q250.945 1402.19 247.866 1397.61 Q244.811 1393 244.811 1384.27 Q244.811 1375.52 247.866 1370.94 Q250.945 1366.33 256.755 1366.33 Z" fill="#000000" fill-rule="evenodd" fill-opacity="1" /><path clip-path="url(#clip230)" d="M52.8743 967.866 L71.2307 967.866 L71.2307 971.801 L57.1567 971.801 L57.1567 980.273 Q58.1752 979.926 59.1938 979.764 Q60.2123 979.579 61.2308 979.579 Q67.0178 979.579 70.3974 982.75 Q73.777 985.921 73.777 991.338 Q73.777 996.917 70.3048 1000.02 Q66.8326 1003.1 60.5132 1003.1 Q58.3373 1003.1 56.0688 1002.73 Q53.8234 1002.36 51.416 1001.62 L51.416 996.917 Q53.4993 998.051 55.7216 998.606 Q57.9438 999.162 60.4206 999.162 Q64.4252 999.162 66.7632 997.055 Q69.1011 994.949 69.1011 991.338 Q69.1011 987.727 66.7632 985.62 Q64.4252 983.514 60.4206 983.514 Q58.5456 983.514 56.6706 983.931 Q54.8188 984.347 52.8743 985.227 L52.8743 967.866 Z" fill="#000000" fill-rule="evenodd" fill-opacity="1" /><path clip-path="url(#clip230)" d="M82.9899 996.546 L87.8742 996.546 L87.8742 1002.43 L82.9899 1002.43 L82.9899 996.546 Z" fill="#000000" fill-rule="evenodd" fill-opacity="1" /><path clip-path="url(#clip230)" d="M108.059 970.945 Q104.448 970.945 102.619 974.509 Q100.814 978.051 100.814 985.181 Q100.814 992.287 102.619 995.852 Q104.448 999.393 108.059 999.393 Q111.693 999.393 113.499 995.852 Q115.328 992.287 115.328 985.181 Q115.328 978.051 113.499 974.509 Q111.693 970.945 108.059 970.945 M108.059 967.241 Q113.869 967.241 116.925 971.847 Q120.004 976.431 120.004 985.181 Q120.004 993.907 116.925 998.514 Q113.869 1003.1 108.059 1003.1 Q102.249 1003.1 99.1704 998.514 Q96.1149 993.907 96.1149 985.181 Q96.1149 976.431 99.1704 971.847 Q102.249 967.241 108.059 967.241 Z" fill="#000000" fill-rule="evenodd" fill-opacity="1" /><path clip-path="url(#clip230)" d="M138.221 970.945 Q134.61 970.945 132.781 974.509 Q130.976 978.051 130.976 985.181 Q130.976 992.287 132.781 995.852 Q134.61 999.393 138.221 999.393 Q141.855 999.393 143.661 995.852 Q145.49 992.287 145.49 985.181 Q145.49 978.051 143.661 974.509 Q141.855 970.945 138.221 970.945 M138.221 967.241 Q144.031 967.241 147.087 971.847 Q150.165 976.431 150.165 985.181 Q150.165 993.907 147.087 998.514 Q144.031 1003.1 138.221 1003.1 Q132.411 1003.1 129.332 998.514 Q126.277 993.907 126.277 985.181 Q126.277 976.431 129.332 971.847 Q132.411 967.241 138.221 967.241 Z" fill="#000000" fill-rule="evenodd" fill-opacity="1" /><path clip-path="url(#clip230)" d="M186.554 976.963 L175.976 987.588 L186.554 998.167 L183.8 1000.97 L173.175 990.343 L162.55 1000.97 L159.818 998.167 L170.374 987.588 L159.818 976.963 L162.55 974.162 L173.175 984.787 L183.8 974.162 L186.554 976.963 Z" fill="#000000" fill-rule="evenodd" fill-opacity="1" /><path clip-path="url(#clip230)" d="M198.915 998.491 L206.554 998.491 L206.554 972.125 L198.244 973.792 L198.244 969.532 L206.508 967.866 L211.184 967.866 L211.184 998.491 L218.823 998.491 L218.823 1002.43 L198.915 1002.43 L198.915 998.491 Z" fill="#000000" fill-rule="evenodd" fill-opacity="1" /><path clip-path="url(#clip230)" d="M238.267 970.945 Q234.656 970.945 232.827 974.509 Q231.022 978.051 231.022 985.181 Q231.022 992.287 232.827 995.852 Q234.656 999.393 238.267 999.393 Q241.901 999.393 243.707 995.852 Q245.535 992.287 245.535 985.181 Q245.535 978.051 243.707 974.509 Q241.901 970.945 238.267 970.945 M238.267 967.241 Q244.077 967.241 247.133 971.847 Q250.211 976.431 250.211 985.181 Q250.211 993.907 247.133 998.514 Q244.077 1003.1 238.267 1003.1 Q232.457 1003.1 229.378 998.514 Q226.322 993.907 226.322 985.181 Q226.322 976.431 229.378 971.847 Q232.457 967.241 238.267 967.241 Z" fill="#000000" fill-rule="evenodd" fill-opacity="1" /><path clip-path="url(#clip230)" d="M262.906 959.875 Q265.634 960.458 267.157 962.301 Q268.699 964.145 268.699 966.853 Q268.699 971.009 265.841 973.285 Q262.982 975.561 257.716 975.561 Q255.948 975.561 254.067 975.203 Q252.205 974.865 250.211 974.169 L250.211 970.502 Q251.791 971.423 253.672 971.893 Q255.553 972.364 257.603 972.364 Q261.176 972.364 263.038 970.953 Q264.919 969.542 264.919 966.853 Q264.919 964.37 263.17 962.978 Q261.439 961.568 258.336 961.568 L255.064 961.568 L255.064 958.446 L258.487 958.446 Q261.289 958.446 262.775 957.336 Q264.261 956.208 264.261 954.101 Q264.261 951.938 262.718 950.791 Q261.195 949.625 258.336 949.625 Q256.775 949.625 254.988 949.963 Q253.202 950.302 251.058 951.017 L251.058 947.631 Q253.22 947.029 255.101 946.729 Q257.001 946.428 258.675 946.428 Q263.001 946.428 265.521 948.402 Q268.041 950.358 268.041 953.706 Q268.041 956.038 266.706 957.656 Q265.37 959.255 262.906 959.875 Z" fill="#000000" fill-rule="evenodd" fill-opacity="1" /><path clip-path="url(#clip230)" d="M51.6634 592.951 L59.3023 592.951 L59.3023 566.585 L50.9921 568.252 L50.9921 563.992 L59.256 562.326 L63.9319 562.326 L63.9319 592.951 L71.5707 592.951 L71.5707 596.886 L51.6634 596.886 L51.6634 592.951 Z" fill="#000000" fill-rule="evenodd" fill-opacity="1" /><path clip-path="url(#clip230)" d="M81.0151 591.006 L85.8993 591.006 L85.8993 596.886 L81.0151 596.886 L81.0151 591.006 Z" fill="#000000" fill-rule="evenodd" fill-opacity="1" /><path clip-path="url(#clip230)" d="M106.084 565.404 Q102.473 565.404 100.645 568.969 Q98.8391 572.511 98.8391 579.64 Q98.8391 586.747 100.645 590.312 Q102.473 593.853 106.084 593.853 Q109.719 593.853 111.524 590.312 Q113.353 586.747 113.353 579.64 Q113.353 572.511 111.524 568.969 Q109.719 565.404 106.084 565.404 M106.084 561.701 Q111.895 561.701 114.95 566.307 Q118.029 570.891 118.029 579.64 Q118.029 588.367 114.95 592.974 Q111.895 597.557 106.084 597.557 Q100.274 597.557 97.1956 592.974 Q94.14 588.367 94.14 579.64 Q94.14 570.891 97.1956 566.307 Q100.274 561.701 106.084 561.701 Z" fill="#000000" fill-rule="evenodd" fill-opacity="1" /><path clip-path="url(#clip230)" d="M136.246 565.404 Q132.635 565.404 130.807 568.969 Q129.001 572.511 129.001 579.64 Q129.001 586.747 130.807 590.312 Q132.635 593.853 136.246 593.853 Q139.881 593.853 141.686 590.312 Q143.515 586.747 143.515 579.64 Q143.515 572.511 141.686 568.969 Q139.881 565.404 136.246 565.404 M136.246 561.701 Q142.056 561.701 145.112 566.307 Q148.191 570.891 148.191 579.64 Q148.191 588.367 145.112 592.974 Q142.056 597.557 136.246 597.557 Q130.436 597.557 127.357 592.974 Q124.302 588.367 124.302 579.64 Q124.302 570.891 127.357 566.307 Q130.436 561.701 136.246 561.701 Z" fill="#000000" fill-rule="evenodd" fill-opacity="1" /><path clip-path="url(#clip230)" d="M184.579 571.423 L174.001 582.048 L184.579 592.627 L181.825 595.427 L171.2 584.802 L160.575 595.427 L157.843 592.627 L168.399 582.048 L157.843 571.423 L160.575 568.622 L171.2 579.247 L181.825 568.622 L184.579 571.423 Z" fill="#000000" fill-rule="evenodd" fill-opacity="1" /><path clip-path="url(#clip230)" d="M196.94 592.951 L204.579 592.951 L204.579 566.585 L196.269 568.252 L196.269 563.992 L204.533 562.326 L209.209 562.326 L209.209 592.951 L216.848 592.951 L216.848 596.886 L196.94 596.886 L196.94 592.951 Z" fill="#000000" fill-rule="evenodd" fill-opacity="1" /><path clip-path="url(#clip230)" d="M236.292 565.404 Q232.681 565.404 230.852 568.969 Q229.047 572.511 229.047 579.64 Q229.047 586.747 230.852 590.312 Q232.681 593.853 236.292 593.853 Q239.926 593.853 241.732 590.312 Q243.561 586.747 243.561 579.64 Q243.561 572.511 241.732 568.969 Q239.926 565.404 236.292 565.404 M236.292 561.701 Q242.102 561.701 245.158 566.307 Q248.236 570.891 248.236 579.64 Q248.236 588.367 245.158 592.974 Q242.102 597.557 236.292 597.557 Q230.482 597.557 227.403 592.974 Q224.348 588.367 224.348 579.64 Q224.348 570.891 227.403 566.307 Q230.482 561.701 236.292 561.701 Z" fill="#000000" fill-rule="evenodd" fill-opacity="1" /><path clip-path="url(#clip230)" d="M260.913 544.706 L251.321 559.695 L260.913 559.695 L260.913 544.706 M259.916 541.395 L264.693 541.395 L264.693 559.695 L268.699 559.695 L268.699 562.855 L264.693 562.855 L264.693 569.475 L260.913 569.475 L260.913 562.855 L248.236 562.855 L248.236 559.188 L259.916 541.395 Z" fill="#000000" fill-rule="evenodd" fill-opacity="1" /><path clip-path="url(#clip230)" d="M51.6634 187.411 L59.3023 187.411 L59.3023 161.045 L50.9921 162.712 L50.9921 158.452 L59.256 156.786 L63.9319 156.786 L63.9319 187.411 L71.5707 187.411 L71.5707 191.346 L51.6634 191.346 L51.6634 187.411 Z" fill="#000000" fill-rule="evenodd" fill-opacity="1" /><path clip-path="url(#clip230)" d="M81.0151 185.466 L85.8993 185.466 L85.8993 191.346 L81.0151 191.346 L81.0151 185.466 Z" fill="#000000" fill-rule="evenodd" fill-opacity="1" /><path clip-path="url(#clip230)" d="M96.1308 156.786 L114.487 156.786 L114.487 160.721 L100.413 160.721 L100.413 169.193 Q101.432 168.846 102.45 168.684 Q103.469 168.499 104.487 168.499 Q110.274 168.499 113.654 171.67 Q117.033 174.841 117.033 180.258 Q117.033 185.836 113.561 188.938 Q110.089 192.017 103.77 192.017 Q101.594 192.017 99.3252 191.647 Q97.0798 191.276 94.6724 190.536 L94.6724 185.836 Q96.7558 186.971 98.978 187.526 Q101.2 188.082 103.677 188.082 Q107.682 188.082 110.02 185.975 Q112.358 183.869 112.358 180.258 Q112.358 176.647 110.02 174.54 Q107.682 172.434 103.677 172.434 Q101.802 172.434 99.927 172.85 Q98.0752 173.267 96.1308 174.147 L96.1308 156.786 Z" fill="#000000" fill-rule="evenodd" fill-opacity="1" /><path clip-path="url(#clip230)" d="M136.246 159.864 Q132.635 159.864 130.807 163.429 Q129.001 166.971 129.001 174.1 Q129.001 181.207 130.807 184.772 Q132.635 188.313 136.246 188.313 Q139.881 188.313 141.686 184.772 Q143.515 181.207 143.515 174.1 Q143.515 166.971 141.686 163.429 Q139.881 159.864 136.246 159.864 M136.246 156.161 Q142.056 156.161 145.112 160.767 Q148.191 165.35 148.191 174.1 Q148.191 182.827 145.112 187.434 Q142.056 192.017 136.246 192.017 Q130.436 192.017 127.357 187.434 Q124.302 182.827 124.302 174.1 Q124.302 165.35 127.357 160.767 Q130.436 156.161 136.246 156.161 Z" fill="#000000" fill-rule="evenodd" fill-opacity="1" /><path clip-path="url(#clip230)" d="M184.579 165.883 L174.001 176.508 L184.579 187.086 L181.825 189.887 L171.2 179.262 L160.575 189.887 L157.843 187.086 L168.399 176.508 L157.843 165.883 L160.575 163.082 L171.2 173.707 L181.825 163.082 L184.579 165.883 Z" fill="#000000" fill-rule="evenodd" fill-opacity="1" /><path clip-path="url(#clip230)" d="M196.94 187.411 L204.579 187.411 L204.579 161.045 L196.269 162.712 L196.269 158.452 L204.533 156.786 L209.209 156.786 L209.209 187.411 L216.848 187.411 L216.848 191.346 L196.94 191.346 L196.94 187.411 Z" fill="#000000" fill-rule="evenodd" fill-opacity="1" /><path clip-path="url(#clip230)" d="M236.292 159.864 Q232.681 159.864 230.852 163.429 Q229.047 166.971 229.047 174.1 Q229.047 181.207 230.852 184.772 Q232.681 188.313 236.292 188.313 Q239.926 188.313 241.732 184.772 Q243.561 181.207 243.561 174.1 Q243.561 166.971 241.732 163.429 Q239.926 159.864 236.292 159.864 M236.292 156.161 Q242.102 156.161 245.158 160.767 Q248.236 165.35 248.236 174.1 Q248.236 182.827 245.158 187.434 Q242.102 192.017 236.292 192.017 Q230.482 192.017 227.403 187.434 Q224.348 182.827 224.348 174.1 Q224.348 165.35 227.403 160.767 Q230.482 156.161 236.292 156.161 Z" fill="#000000" fill-rule="evenodd" fill-opacity="1" /><path clip-path="url(#clip230)" d="M260.913 139.165 L251.321 154.155 L260.913 154.155 L260.913 139.165 M259.916 135.855 L264.693 135.855 L264.693 154.155 L268.699 154.155 L268.699 157.315 L264.693 157.315 L264.693 163.935 L260.913 163.935 L260.913 157.315 L248.236 157.315 L248.236 153.647 L259.916 135.855 Z" fill="#000000" fill-rule="evenodd" fill-opacity="1" /><path clip-path="url(#clip232)" d="
M417.346 1377.34 L417.346 1384.24 L531.269 1384.24 L531.269 1377.34 L417.346 1377.34 L417.346 1377.34  Z
  " fill="#009af9" fill-rule="evenodd" fill-opacity="1"/>
<polyline clip-path="url(#clip232)" style="stroke:#000000; stroke-linecap:round; stroke-linejoin:round; stroke-width:4; stroke-opacity:1; fill:none" points="
  417.346,1377.34 417.346,1384.24 531.269,1384.24 531.269,1377.34 417.346,1377.34 
  "/>
<path clip-path="url(#clip232)" d="
M559.749 1368.75 L559.749 1384.24 L673.672 1384.24 L673.672 1368.75 L559.749 1368.75 L559.749 1368.75  Z
  " fill="#009af9" fill-rule="evenodd" fill-opacity="1"/>
<polyline clip-path="url(#clip232)" style="stroke:#000000; stroke-linecap:round; stroke-linejoin:round; stroke-width:4; stroke-opacity:1; fill:none" points="
  559.749,1368.75 559.749,1384.24 673.672,1384.24 673.672,1368.75 559.749,1368.75 
  "/>
<path clip-path="url(#clip232)" d="
M702.153 1330.95 L702.153 1384.24 L816.075 1384.24 L816.075 1330.95 L702.153 1330.95 L702.153 1330.95  Z
  " fill="#009af9" fill-rule="evenodd" fill-opacity="1"/>
<polyline clip-path="url(#clip232)" style="stroke:#000000; stroke-linecap:round; stroke-linejoin:round; stroke-width:4; stroke-opacity:1; fill:none" points="
  702.153,1330.95 702.153,1384.24 816.075,1384.24 816.075,1330.95 702.153,1330.95 
  "/>
<path clip-path="url(#clip232)" d="
M844.556 1284.35 L844.556 1384.24 L958.479 1384.24 L958.479 1284.35 L844.556 1284.35 L844.556 1284.35  Z
  " fill="#009af9" fill-rule="evenodd" fill-opacity="1"/>
<polyline clip-path="url(#clip232)" style="stroke:#000000; stroke-linecap:round; stroke-linejoin:round; stroke-width:4; stroke-opacity:1; fill:none" points="
  844.556,1284.35 844.556,1384.24 958.479,1384.24 958.479,1284.35 844.556,1284.35 
  "/>
<path clip-path="url(#clip232)" d="
M986.96 1250.41 L986.96 1384.24 L1100.88 1384.24 L1100.88 1250.41 L986.96 1250.41 L986.96 1250.41  Z
  " fill="#009af9" fill-rule="evenodd" fill-opacity="1"/>
<polyline clip-path="url(#clip232)" style="stroke:#000000; stroke-linecap:round; stroke-linejoin:round; stroke-width:4; stroke-opacity:1; fill:none" points="
  986.96,1250.41 986.96,1384.24 1100.88,1384.24 1100.88,1250.41 986.96,1250.41 
  "/>
<path clip-path="url(#clip232)" d="
M1129.36 1193.88 L1129.36 1384.24 L1243.29 1384.24 L1243.29 1193.88 L1129.36 1193.88 L1129.36 1193.88  Z
  " fill="#009af9" fill-rule="evenodd" fill-opacity="1"/>
<polyline clip-path="url(#clip232)" style="stroke:#000000; stroke-linecap:round; stroke-linejoin:round; stroke-width:4; stroke-opacity:1; fill:none" points="
  1129.36,1193.88 1129.36,1384.24 1243.29,1384.24 1243.29,1193.88 1129.36,1193.88 
  "/>
<path clip-path="url(#clip232)" d="
M1271.77 1056.36 L1271.77 1384.24 L1385.69 1384.24 L1385.69 1056.36 L1271.77 1056.36 L1271.77 1056.36  Z
  " fill="#009af9" fill-rule="evenodd" fill-opacity="1"/>
<polyline clip-path="url(#clip232)" style="stroke:#000000; stroke-linecap:round; stroke-linejoin:round; stroke-width:4; stroke-opacity:1; fill:none" points="
  1271.77,1056.36 1271.77,1384.24 1385.69,1384.24 1385.69,1056.36 1271.77,1056.36 
  "/>
<path clip-path="url(#clip232)" d="
M1414.17 919.935 L1414.17 1384.24 L1528.09 1384.24 L1528.09 919.935 L1414.17 919.935 L1414.17 919.935  Z
  " fill="#009af9" fill-rule="evenodd" fill-opacity="1"/>
<polyline clip-path="url(#clip232)" style="stroke:#000000; stroke-linecap:round; stroke-linejoin:round; stroke-width:4; stroke-opacity:1; fill:none" points="
  1414.17,919.935 1414.17,1384.24 1528.09,1384.24 1528.09,919.935 1414.17,919.935 
  "/>
<path clip-path="url(#clip232)" d="
M1556.57 875.488 L1556.57 1384.24 L1670.5 1384.24 L1670.5 875.488 L1556.57 875.488 L1556.57 875.488  Z
  " fill="#009af9" fill-rule="evenodd" fill-opacity="1"/>
<polyline clip-path="url(#clip232)" style="stroke:#000000; stroke-linecap:round; stroke-linejoin:round; stroke-width:4; stroke-opacity:1; fill:none" points="
  1556.57,875.488 1556.57,1384.24 1670.5,1384.24 1670.5,875.488 1556.57,875.488 
  "/>
<path clip-path="url(#clip232)" d="
M1698.98 799.247 L1698.98 1384.24 L1812.9 1384.24 L1812.9 799.247 L1698.98 799.247 L1698.98 799.247  Z
  " fill="#009af9" fill-rule="evenodd" fill-opacity="1"/>
<polyline clip-path="url(#clip232)" style="stroke:#000000; stroke-linecap:round; stroke-linejoin:round; stroke-width:4; stroke-opacity:1; fill:none" points="
  1698.98,799.247 1698.98,1384.24 1812.9,1384.24 1812.9,799.247 1698.98,799.247 
  "/>
<path clip-path="url(#clip232)" d="
M1841.38 619.106 L1841.38 1384.24 L1955.3 1384.24 L1955.3 619.106 L1841.38 619.106 L1841.38 619.106  Z
  " fill="#009af9" fill-rule="evenodd" fill-opacity="1"/>
<polyline clip-path="url(#clip232)" style="stroke:#000000; stroke-linecap:round; stroke-linejoin:round; stroke-width:4; stroke-opacity:1; fill:none" points="
  1841.38,619.106 1841.38,1384.24 1955.3,1384.24 1955.3,619.106 1841.38,619.106 
  "/>
<path clip-path="url(#clip232)" d="
M1983.78 287.09 L1983.78 1384.24 L2097.71 1384.24 L2097.71 287.09 L1983.78 287.09 L1983.78 287.09  Z
  " fill="#009af9" fill-rule="evenodd" fill-opacity="1"/>
<polyline clip-path="url(#clip232)" style="stroke:#000000; stroke-linecap:round; stroke-linejoin:round; stroke-width:4; stroke-opacity:1; fill:none" points="
  1983.78,287.09 1983.78,1384.24 2097.71,1384.24 2097.71,287.09 1983.78,287.09 
  "/>
<path clip-path="url(#clip232)" d="
M2126.19 86.1857 L2126.19 1384.24 L2240.11 1384.24 L2240.11 86.1857 L2126.19 86.1857 L2126.19 86.1857  Z
  " fill="#009af9" fill-rule="evenodd" fill-opacity="1"/>
<polyline clip-path="url(#clip232)" style="stroke:#000000; stroke-linecap:round; stroke-linejoin:round; stroke-width:4; stroke-opacity:1; fill:none" points="
  2126.19,86.1857 2126.19,1384.24 2240.11,1384.24 2240.11,86.1857 2126.19,86.1857 
  "/>
<circle clip-path="url(#clip232)" style="fill:#009af9; stroke:none; fill-opacity:0" cx="474.307" cy="1377.34" r="2"/>
<circle clip-path="url(#clip232)" style="fill:#009af9; stroke:none; fill-opacity:0" cx="616.711" cy="1368.75" r="2"/>
<circle clip-path="url(#clip232)" style="fill:#009af9; stroke:none; fill-opacity:0" cx="759.114" cy="1330.95" r="2"/>
<circle clip-path="url(#clip232)" style="fill:#009af9; stroke:none; fill-opacity:0" cx="901.517" cy="1284.35" r="2"/>
<circle clip-path="url(#clip232)" style="fill:#009af9; stroke:none; fill-opacity:0" cx="1043.92" cy="1250.41" r="2"/>
<circle clip-path="url(#clip232)" style="fill:#009af9; stroke:none; fill-opacity:0" cx="1186.32" cy="1193.88" r="2"/>
<circle clip-path="url(#clip232)" style="fill:#009af9; stroke:none; fill-opacity:0" cx="1328.73" cy="1056.36" r="2"/>
<circle clip-path="url(#clip232)" style="fill:#009af9; stroke:none; fill-opacity:0" cx="1471.13" cy="919.935" r="2"/>
<circle clip-path="url(#clip232)" style="fill:#009af9; stroke:none; fill-opacity:0" cx="1613.53" cy="875.488" r="2"/>
<circle clip-path="url(#clip232)" style="fill:#009af9; stroke:none; fill-opacity:0" cx="1755.94" cy="799.247" r="2"/>
<circle clip-path="url(#clip232)" style="fill:#009af9; stroke:none; fill-opacity:0" cx="1898.34" cy="619.106" r="2"/>
<circle clip-path="url(#clip232)" style="fill:#009af9; stroke:none; fill-opacity:0" cx="2040.74" cy="287.09" r="2"/>
<circle clip-path="url(#clip232)" style="fill:#009af9; stroke:none; fill-opacity:0" cx="2183.15" cy="86.1857" r="2"/>
</svg>
