<?xml version="1.0" encoding="utf-8"?>
<svg xmlns="http://www.w3.org/2000/svg" xmlns:xlink="http://www.w3.org/1999/xlink" width="800" height="600" viewBox="0 0 3200 2400">
<defs>
  <clipPath id="clip060">
    <rect x="0" y="0" width="3200" height="2400"/>
  </clipPath>
</defs>
<path clip-path="url(#clip060)" d="
M0 2400 L3200 2400 L3200 0 L0 0  Z
  " fill="#ffffff" fill-rule="evenodd" fill-opacity="1"/>
<defs>
  <clipPath id="clip061">
    <rect x="640" y="0" width="2241" height="2241"/>
  </clipPath>
</defs>
<path clip-path="url(#clip060)" d="
M276.491 2204.92 L3152.76 2204.92 L3152.76 131.032 L276.491 131.032  Z
  " fill="#ffffff" fill-rule="evenodd" fill-opacity="1"/>
<defs>
  <clipPath id="clip062">
    <rect x="276" y="131" width="2877" height="2075"/>
  </clipPath>
</defs>
<polyline clip-path="url(#clip062)" style="stroke:#000000; stroke-linecap:round; stroke-linejoin:round; stroke-width:2; stroke-opacity:0.1; fill:none" points="
  704.15,2204.92 704.15,131.032 
  "/>
<polyline clip-path="url(#clip062)" style="stroke:#000000; stroke-linecap:round; stroke-linejoin:round; stroke-width:2; stroke-opacity:0.1; fill:none" points="
  1377.8,2204.92 1377.8,131.032 
  "/>
<polyline clip-path="url(#clip062)" style="stroke:#000000; stroke-linecap:round; stroke-linejoin:round; stroke-width:2; stroke-opacity:0.1; fill:none" points="
  2051.45,2204.92 2051.45,131.032 
  "/>
<polyline clip-path="url(#clip062)" style="stroke:#000000; stroke-linecap:round; stroke-linejoin:round; stroke-width:2; stroke-opacity:0.1; fill:none" points="
  2725.1,2204.92 2725.1,131.032 
  "/>
<polyline clip-path="url(#clip062)" style="stroke:#000000; stroke-linecap:round; stroke-linejoin:round; stroke-width:2; stroke-opacity:0.1; fill:none" points="
  3398.75,2204.92 3398.75,131.032 
  "/>
<polyline clip-path="url(#clip060)" style="stroke:#000000; stroke-linecap:round; stroke-linejoin:round; stroke-width:4; stroke-opacity:1; fill:none" points="
  276.491,2204.92 3152.76,2204.92 
  "/>
<polyline clip-path="url(#clip060)" style="stroke:#000000; stroke-linecap:round; stroke-linejoin:round; stroke-width:4; stroke-opacity:1; fill:none" points="
  704.15,2204.92 704.15,2186.02 
  "/>
<polyline clip-path="url(#clip060)" style="stroke:#000000; stroke-linecap:round; stroke-linejoin:round; stroke-width:4; stroke-opacity:1; fill:none" points="
  1377.8,2204.92 1377.8,2186.02 
  "/>
<polyline clip-path="url(#clip060)" style="stroke:#000000; stroke-linecap:round; stroke-linejoin:round; stroke-width:4; stroke-opacity:1; fill:none" points="
  2051.45,2204.92 2051.45,2186.02 
  "/>
<polyline clip-path="url(#clip060)" style="stroke:#000000; stroke-linecap:round; stroke-linejoin:round; stroke-width:4; stroke-opacity:1; fill:none" points="
  2725.1,2204.92 2725.1,2186.02 
  "/>
<polyline clip-path="url(#clip060)" style="stroke:#000000; stroke-linecap:round; stroke-linejoin:round; stroke-width:4; stroke-opacity:1; fill:none" points="
  3398.75,2204.92 3398.75,2186.02 
  "/>
<path clip-path="url(#clip060)" d="M653.618 2240.29 L653.618 2244.85 Q650.956 2243.58 648.595 2242.96 Q646.234 2242.33 644.035 2242.33 Q640.216 2242.33 638.132 2243.81 Q636.072 2245.29 636.072 2248.03 Q636.072 2250.32 637.438 2251.5 Q638.827 2252.66 642.669 2253.37 L645.493 2253.95 Q650.725 2254.95 653.202 2257.47 Q655.702 2259.97 655.702 2264.18 Q655.702 2269.21 652.322 2271.8 Q648.966 2274.39 642.461 2274.39 Q640.007 2274.39 637.229 2273.84 Q634.475 2273.28 631.512 2272.19 L631.512 2267.38 Q634.359 2268.97 637.091 2269.78 Q639.822 2270.59 642.461 2270.59 Q646.466 2270.59 648.641 2269.02 Q650.817 2267.45 650.817 2264.53 Q650.817 2261.98 649.243 2260.55 Q647.692 2259.11 644.128 2258.4 L641.28 2257.84 Q636.049 2256.8 633.711 2254.58 Q631.373 2252.35 631.373 2248.4 Q631.373 2243.81 634.591 2241.17 Q637.831 2238.53 643.503 2238.53 Q645.933 2238.53 648.456 2238.97 Q650.979 2239.41 653.618 2240.29 Z" fill="#000000" fill-rule="evenodd" fill-opacity="1" /><path clip-path="url(#clip060)" d="M666.928 2269.83 L666.928 2283.58 L662.646 2283.58 L662.646 2247.79 L666.928 2247.79 L666.928 2251.73 Q668.271 2249.41 670.308 2248.3 Q672.368 2247.17 675.215 2247.17 Q679.938 2247.17 682.877 2250.92 Q685.84 2254.67 685.84 2260.78 Q685.84 2266.89 682.877 2270.64 Q679.938 2274.39 675.215 2274.39 Q672.368 2274.39 670.308 2273.28 Q668.271 2272.15 666.928 2269.83 M681.419 2260.78 Q681.419 2256.08 679.475 2253.42 Q677.553 2250.73 674.174 2250.73 Q670.794 2250.73 668.85 2253.42 Q666.928 2256.08 666.928 2260.78 Q666.928 2265.48 668.85 2268.16 Q670.794 2270.83 674.174 2270.83 Q677.553 2270.83 679.475 2268.16 Q681.419 2265.48 681.419 2260.78 Z" fill="#000000" fill-rule="evenodd" fill-opacity="1" /><path clip-path="url(#clip060)" d="M707.924 2251.78 Q707.206 2251.36 706.349 2251.17 Q705.516 2250.97 704.498 2250.97 Q700.887 2250.97 698.942 2253.33 Q697.021 2255.66 697.021 2260.06 L697.021 2273.72 L692.738 2273.72 L692.738 2247.79 L697.021 2247.79 L697.021 2251.82 Q698.363 2249.46 700.516 2248.33 Q702.669 2247.17 705.748 2247.17 Q706.187 2247.17 706.72 2247.24 Q707.252 2247.28 707.9 2247.4 L707.924 2251.78 Z" fill="#000000" fill-rule="evenodd" fill-opacity="1" /><path clip-path="url(#clip060)" d="M712.391 2247.79 L716.65 2247.79 L716.65 2273.72 L712.391 2273.72 L712.391 2247.79 M712.391 2237.7 L716.65 2237.7 L716.65 2243.1 L712.391 2243.1 L712.391 2237.7 Z" fill="#000000" fill-rule="evenodd" fill-opacity="1" /><path clip-path="url(#clip060)" d="M747.113 2258.07 L747.113 2273.72 L742.854 2273.72 L742.854 2258.21 Q742.854 2254.53 741.419 2252.7 Q739.984 2250.87 737.113 2250.87 Q733.664 2250.87 731.673 2253.07 Q729.683 2255.27 729.683 2259.07 L729.683 2273.72 L725.4 2273.72 L725.4 2247.79 L729.683 2247.79 L729.683 2251.82 Q731.21 2249.48 733.271 2248.33 Q735.354 2247.17 738.062 2247.17 Q742.53 2247.17 744.821 2249.95 Q747.113 2252.7 747.113 2258.07 Z" fill="#000000" fill-rule="evenodd" fill-opacity="1" /><path clip-path="url(#clip060)" d="M772.669 2260.46 Q772.669 2255.83 770.747 2253.28 Q768.849 2250.73 765.4 2250.73 Q761.974 2250.73 760.053 2253.28 Q758.155 2255.83 758.155 2260.46 Q758.155 2265.06 760.053 2267.61 Q761.974 2270.16 765.4 2270.16 Q768.849 2270.16 770.747 2267.61 Q772.669 2265.06 772.669 2260.46 M776.928 2270.5 Q776.928 2277.12 773.988 2280.34 Q771.048 2283.58 764.983 2283.58 Q762.738 2283.58 760.747 2283.23 Q758.757 2282.91 756.882 2282.22 L756.882 2278.07 Q758.757 2279.09 760.585 2279.58 Q762.414 2280.06 764.312 2280.06 Q768.502 2280.06 770.585 2277.86 Q772.669 2275.69 772.669 2271.27 L772.669 2269.16 Q771.349 2271.45 769.289 2272.59 Q767.229 2273.72 764.358 2273.72 Q759.59 2273.72 756.673 2270.09 Q753.757 2266.45 753.757 2260.46 Q753.757 2254.44 756.673 2250.8 Q759.59 2247.17 764.358 2247.17 Q767.229 2247.17 769.289 2248.3 Q771.349 2249.44 772.669 2251.73 L772.669 2247.79 L776.928 2247.79 L776.928 2270.5 Z" fill="#000000" fill-rule="evenodd" fill-opacity="1" /><path clip-path="url(#clip060)" d="M1301.03 2240.29 L1301.03 2244.85 Q1298.37 2243.58 1296.01 2242.96 Q1293.64 2242.33 1291.45 2242.33 Q1287.63 2242.33 1285.54 2243.81 Q1283.48 2245.29 1283.48 2248.03 Q1283.48 2250.32 1284.85 2251.5 Q1286.24 2252.66 1290.08 2253.37 L1292.9 2253.95 Q1298.14 2254.95 1300.61 2257.47 Q1303.11 2259.97 1303.11 2264.18 Q1303.11 2269.21 1299.73 2271.8 Q1296.38 2274.39 1289.87 2274.39 Q1287.42 2274.39 1284.64 2273.84 Q1281.89 2273.28 1278.92 2272.19 L1278.92 2267.38 Q1281.77 2268.97 1284.5 2269.78 Q1287.23 2270.59 1289.87 2270.59 Q1293.88 2270.59 1296.05 2269.02 Q1298.23 2267.45 1298.23 2264.53 Q1298.23 2261.98 1296.65 2260.55 Q1295.1 2259.11 1291.54 2258.4 L1288.69 2257.84 Q1283.46 2256.8 1281.12 2254.58 Q1278.78 2252.35 1278.78 2248.4 Q1278.78 2243.81 1282 2241.17 Q1285.24 2238.53 1290.91 2238.53 Q1293.34 2238.53 1295.87 2238.97 Q1298.39 2239.41 1301.03 2240.29 Z" fill="#000000" fill-rule="evenodd" fill-opacity="1" /><path clip-path="url(#clip060)" d="M1309.78 2263.49 L1309.78 2247.79 L1314.04 2247.79 L1314.04 2263.33 Q1314.04 2267.01 1315.47 2268.86 Q1316.91 2270.69 1319.78 2270.69 Q1323.23 2270.69 1325.22 2268.49 Q1327.23 2266.29 1327.23 2262.49 L1327.23 2247.79 L1331.49 2247.79 L1331.49 2273.72 L1327.23 2273.72 L1327.23 2269.74 Q1325.68 2272.1 1323.62 2273.26 Q1321.58 2274.39 1318.88 2274.39 Q1314.41 2274.39 1312.09 2271.61 Q1309.78 2268.84 1309.78 2263.49 M1320.5 2247.17 L1320.5 2247.17 Z" fill="#000000" fill-rule="evenodd" fill-opacity="1" /><path clip-path="url(#clip060)" d="M1360.45 2252.77 Q1362.05 2249.9 1364.27 2248.53 Q1366.49 2247.17 1369.5 2247.17 Q1373.55 2247.17 1375.75 2250.02 Q1377.95 2252.84 1377.95 2258.07 L1377.95 2273.72 L1373.67 2273.72 L1373.67 2258.21 Q1373.67 2254.48 1372.35 2252.68 Q1371.03 2250.87 1368.32 2250.87 Q1365.01 2250.87 1363.09 2253.07 Q1361.17 2255.27 1361.17 2259.07 L1361.17 2273.72 L1356.88 2273.72 L1356.88 2258.21 Q1356.88 2254.46 1355.57 2252.68 Q1354.25 2250.87 1351.49 2250.87 Q1348.23 2250.87 1346.31 2253.09 Q1344.39 2255.29 1344.39 2259.07 L1344.39 2273.72 L1340.1 2273.72 L1340.1 2247.79 L1344.39 2247.79 L1344.39 2251.82 Q1345.84 2249.44 1347.88 2248.3 Q1349.92 2247.17 1352.72 2247.17 Q1355.54 2247.17 1357.51 2248.6 Q1359.5 2250.04 1360.45 2252.77 Z" fill="#000000" fill-rule="evenodd" fill-opacity="1" /><path clip-path="url(#clip060)" d="M1406.63 2252.77 Q1408.23 2249.9 1410.45 2248.53 Q1412.67 2247.17 1415.68 2247.17 Q1419.73 2247.17 1421.93 2250.02 Q1424.13 2252.84 1424.13 2258.07 L1424.13 2273.72 L1419.85 2273.72 L1419.85 2258.21 Q1419.85 2254.48 1418.53 2252.68 Q1417.21 2250.87 1414.5 2250.87 Q1411.19 2250.87 1409.27 2253.07 Q1407.35 2255.27 1407.35 2259.07 L1407.35 2273.72 L1403.07 2273.72 L1403.07 2258.21 Q1403.07 2254.46 1401.75 2252.68 Q1400.43 2250.87 1397.67 2250.87 Q1394.41 2250.87 1392.49 2253.09 Q1390.57 2255.29 1390.57 2259.07 L1390.57 2273.72 L1386.28 2273.72 L1386.28 2247.79 L1390.57 2247.79 L1390.57 2251.82 Q1392.02 2249.44 1394.06 2248.3 Q1396.1 2247.17 1398.9 2247.17 Q1401.72 2247.17 1403.69 2248.6 Q1405.68 2250.04 1406.63 2252.77 Z" fill="#000000" fill-rule="evenodd" fill-opacity="1" /><path clip-path="url(#clip060)" d="M1454.8 2259.69 L1454.8 2261.78 L1435.22 2261.78 Q1435.5 2266.17 1437.86 2268.49 Q1440.24 2270.78 1444.48 2270.78 Q1446.93 2270.78 1449.22 2270.18 Q1451.54 2269.58 1453.81 2268.37 L1453.81 2272.4 Q1451.51 2273.37 1449.11 2273.88 Q1446.7 2274.39 1444.22 2274.39 Q1438.02 2274.39 1434.38 2270.78 Q1430.77 2267.17 1430.77 2261.01 Q1430.77 2254.65 1434.2 2250.92 Q1437.65 2247.17 1443.48 2247.17 Q1448.71 2247.17 1451.75 2250.55 Q1454.8 2253.91 1454.8 2259.69 M1450.54 2258.44 Q1450.5 2254.95 1448.57 2252.86 Q1446.68 2250.78 1443.53 2250.78 Q1439.96 2250.78 1437.81 2252.79 Q1435.68 2254.81 1435.36 2258.47 L1450.54 2258.44 Z" fill="#000000" fill-rule="evenodd" fill-opacity="1" /><path clip-path="url(#clip060)" d="M1476.81 2251.78 Q1476.1 2251.36 1475.24 2251.17 Q1474.41 2250.97 1473.39 2250.97 Q1469.78 2250.97 1467.83 2253.33 Q1465.91 2255.66 1465.91 2260.06 L1465.91 2273.72 L1461.63 2273.72 L1461.63 2247.79 L1465.91 2247.79 L1465.91 2251.82 Q1467.25 2249.46 1469.41 2248.33 Q1471.56 2247.17 1474.64 2247.17 Q1475.08 2247.17 1475.61 2247.24 Q1476.14 2247.28 1476.79 2247.4 L1476.81 2251.78 Z" fill="#000000" fill-rule="evenodd" fill-opacity="1" /><path clip-path="url(#clip060)" d="M1975.81 2243.77 L1969.47 2260.97 L1982.18 2260.97 L1975.81 2243.77 M1973.17 2239.16 L1978.47 2239.16 L1991.65 2273.72 L1986.78 2273.72 L1983.64 2264.85 L1968.06 2264.85 L1964.91 2273.72 L1959.98 2273.72 L1973.17 2239.16 Z" fill="#000000" fill-rule="evenodd" fill-opacity="1" /><path clip-path="url(#clip060)" d="M1996.07 2263.49 L1996.07 2247.79 L2000.33 2247.79 L2000.33 2263.33 Q2000.33 2267.01 2001.76 2268.86 Q2003.2 2270.69 2006.07 2270.69 Q2009.52 2270.69 2011.51 2268.49 Q2013.52 2266.29 2013.52 2262.49 L2013.52 2247.79 L2017.78 2247.79 L2017.78 2273.72 L2013.52 2273.72 L2013.52 2269.74 Q2011.97 2272.1 2009.91 2273.26 Q2007.87 2274.39 2005.16 2274.39 Q2000.7 2274.39 1998.38 2271.61 Q1996.07 2268.84 1996.07 2263.49 M2006.78 2247.17 L2006.78 2247.17 Z" fill="#000000" fill-rule="evenodd" fill-opacity="1" /><path clip-path="url(#clip060)" d="M2030.77 2240.43 L2030.77 2247.79 L2039.54 2247.79 L2039.54 2251.1 L2030.77 2251.1 L2030.77 2265.18 Q2030.77 2268.35 2031.62 2269.25 Q2032.5 2270.16 2035.16 2270.16 L2039.54 2270.16 L2039.54 2273.72 L2035.16 2273.72 Q2030.23 2273.72 2028.36 2271.89 Q2026.48 2270.04 2026.48 2265.18 L2026.48 2251.1 L2023.36 2251.1 L2023.36 2247.79 L2026.48 2247.79 L2026.48 2240.43 L2030.77 2240.43 Z" fill="#000000" fill-rule="evenodd" fill-opacity="1" /><path clip-path="url(#clip060)" d="M2044.7 2263.49 L2044.7 2247.79 L2048.96 2247.79 L2048.96 2263.33 Q2048.96 2267.01 2050.39 2268.86 Q2051.83 2270.69 2054.7 2270.69 Q2058.15 2270.69 2060.14 2268.49 Q2062.15 2266.29 2062.15 2262.49 L2062.15 2247.79 L2066.41 2247.79 L2066.41 2273.72 L2062.15 2273.72 L2062.15 2269.74 Q2060.6 2272.1 2058.54 2273.26 Q2056.51 2274.39 2053.8 2274.39 Q2049.33 2274.39 2047.02 2271.61 Q2044.7 2268.84 2044.7 2263.49 M2055.42 2247.17 L2055.42 2247.17 Z" fill="#000000" fill-rule="evenodd" fill-opacity="1" /><path clip-path="url(#clip060)" d="M2095.37 2252.77 Q2096.97 2249.9 2099.19 2248.53 Q2101.41 2247.17 2104.42 2247.17 Q2108.47 2247.17 2110.67 2250.02 Q2112.87 2252.84 2112.87 2258.07 L2112.87 2273.72 L2108.59 2273.72 L2108.59 2258.21 Q2108.59 2254.48 2107.27 2252.68 Q2105.95 2250.87 2103.24 2250.87 Q2099.93 2250.87 2098.01 2253.07 Q2096.09 2255.27 2096.09 2259.07 L2096.09 2273.72 L2091.81 2273.72 L2091.81 2258.21 Q2091.81 2254.46 2090.49 2252.68 Q2089.17 2250.87 2086.41 2250.87 Q2083.15 2250.87 2081.23 2253.09 Q2079.31 2255.29 2079.31 2259.07 L2079.31 2273.72 L2075.02 2273.72 L2075.02 2247.79 L2079.31 2247.79 L2079.31 2251.82 Q2080.76 2249.44 2082.8 2248.3 Q2084.84 2247.17 2087.64 2247.17 Q2090.46 2247.17 2092.43 2248.6 Q2094.42 2250.04 2095.37 2252.77 Z" fill="#000000" fill-rule="evenodd" fill-opacity="1" /><path clip-path="url(#clip060)" d="M2142.92 2258.07 L2142.92 2273.72 L2138.66 2273.72 L2138.66 2258.21 Q2138.66 2254.53 2137.22 2252.7 Q2135.79 2250.87 2132.92 2250.87 Q2129.47 2250.87 2127.48 2253.07 Q2125.49 2255.27 2125.49 2259.07 L2125.49 2273.72 L2121.2 2273.72 L2121.2 2247.79 L2125.49 2247.79 L2125.49 2251.82 Q2127.01 2249.48 2129.07 2248.33 Q2131.16 2247.17 2133.87 2247.17 Q2138.33 2247.17 2140.63 2249.95 Q2142.92 2252.7 2142.92 2258.07 Z" fill="#000000" fill-rule="evenodd" fill-opacity="1" /><path clip-path="url(#clip060)" d="M2647.74 2239.16 L2652.46 2239.16 L2659.73 2268.37 L2666.97 2239.16 L2672.23 2239.16 L2679.5 2268.37 L2686.74 2239.16 L2691.49 2239.16 L2682.81 2273.72 L2676.93 2273.72 L2669.63 2243.72 L2662.27 2273.72 L2656.39 2273.72 L2647.74 2239.16 Z" fill="#000000" fill-rule="evenodd" fill-opacity="1" /><path clip-path="url(#clip060)" d="M2696.46 2247.79 L2700.72 2247.79 L2700.72 2273.72 L2696.46 2273.72 L2696.46 2247.79 M2696.46 2237.7 L2700.72 2237.7 L2700.72 2243.1 L2696.46 2243.1 L2696.46 2237.7 Z" fill="#000000" fill-rule="evenodd" fill-opacity="1" /><path clip-path="url(#clip060)" d="M2731.18 2258.07 L2731.18 2273.72 L2726.93 2273.72 L2726.93 2258.21 Q2726.93 2254.53 2725.49 2252.7 Q2724.06 2250.87 2721.18 2250.87 Q2717.74 2250.87 2715.74 2253.07 Q2713.75 2255.27 2713.75 2259.07 L2713.75 2273.72 L2709.47 2273.72 L2709.47 2247.79 L2713.75 2247.79 L2713.75 2251.82 Q2715.28 2249.48 2717.34 2248.33 Q2719.43 2247.17 2722.13 2247.17 Q2726.6 2247.17 2728.89 2249.95 Q2731.18 2252.7 2731.18 2258.07 Z" fill="#000000" fill-rule="evenodd" fill-opacity="1" /><path clip-path="url(#clip060)" d="M2743.89 2240.43 L2743.89 2247.79 L2752.67 2247.79 L2752.67 2251.1 L2743.89 2251.1 L2743.89 2265.18 Q2743.89 2268.35 2744.75 2269.25 Q2745.63 2270.16 2748.29 2270.16 L2752.67 2270.16 L2752.67 2273.72 L2748.29 2273.72 Q2743.36 2273.72 2741.49 2271.89 Q2739.61 2270.04 2739.61 2265.18 L2739.61 2251.1 L2736.49 2251.1 L2736.49 2247.79 L2739.61 2247.79 L2739.61 2240.43 L2743.89 2240.43 Z" fill="#000000" fill-rule="evenodd" fill-opacity="1" /><path clip-path="url(#clip060)" d="M2780.44 2259.69 L2780.44 2261.78 L2760.86 2261.78 Q2761.14 2266.17 2763.5 2268.49 Q2765.88 2270.78 2770.12 2270.78 Q2772.57 2270.78 2774.86 2270.18 Q2777.18 2269.58 2779.45 2268.37 L2779.45 2272.4 Q2777.16 2273.37 2774.75 2273.88 Q2772.34 2274.39 2769.86 2274.39 Q2763.66 2274.39 2760.03 2270.78 Q2756.42 2267.17 2756.42 2261.01 Q2756.42 2254.65 2759.84 2250.92 Q2763.29 2247.17 2769.12 2247.17 Q2774.36 2247.17 2777.39 2250.55 Q2780.44 2253.91 2780.44 2259.69 M2776.18 2258.44 Q2776.14 2254.95 2774.22 2252.86 Q2772.32 2250.78 2769.17 2250.78 Q2765.61 2250.78 2763.45 2252.79 Q2761.32 2254.81 2761 2258.47 L2776.18 2258.44 Z" fill="#000000" fill-rule="evenodd" fill-opacity="1" /><path clip-path="url(#clip060)" d="M2802.46 2251.78 Q2801.74 2251.36 2800.88 2251.17 Q2800.05 2250.97 2799.03 2250.97 Q2795.42 2250.97 2793.48 2253.33 Q2791.55 2255.66 2791.55 2260.06 L2791.55 2273.72 L2787.27 2273.72 L2787.27 2247.79 L2791.55 2247.79 L2791.55 2251.82 Q2792.9 2249.46 2795.05 2248.33 Q2797.2 2247.17 2800.28 2247.17 Q2800.72 2247.17 2801.25 2247.24 Q2801.79 2247.28 2802.43 2247.4 L2802.46 2251.78 Z" fill="#000000" fill-rule="evenodd" fill-opacity="1" /><path clip-path="url(#clip060)" d="M1631.84 2315.82 L1631.84 2322.09 Q1628.18 2320.34 1624.93 2319.48 Q1621.68 2318.62 1618.66 2318.62 Q1613.41 2318.62 1610.54 2320.66 Q1607.71 2322.7 1607.71 2326.45 Q1607.71 2329.61 1609.59 2331.23 Q1611.5 2332.82 1616.78 2333.81 L1620.67 2334.6 Q1627.86 2335.97 1631.26 2339.44 Q1634.7 2342.88 1634.7 2348.67 Q1634.7 2355.58 1630.06 2359.14 Q1625.44 2362.71 1616.5 2362.71 Q1613.12 2362.71 1609.3 2361.94 Q1605.52 2361.18 1601.44 2359.68 L1601.44 2353.06 Q1605.36 2355.26 1609.11 2356.37 Q1612.87 2357.49 1616.5 2357.49 Q1622 2357.49 1624.99 2355.32 Q1627.99 2353.16 1627.99 2349.15 Q1627.99 2345.65 1625.82 2343.67 Q1623.69 2341.7 1618.79 2340.71 L1614.87 2339.95 Q1607.68 2338.52 1604.47 2335.46 Q1601.25 2332.41 1601.25 2326.96 Q1601.25 2320.66 1605.67 2317.03 Q1610.13 2313.4 1617.93 2313.4 Q1621.27 2313.4 1624.74 2314.01 Q1628.21 2314.61 1631.84 2315.82 Z" fill="#000000" fill-rule="evenodd" fill-opacity="1" /><path clip-path="url(#clip060)" d="M1674.97 2342.5 L1674.97 2345.36 L1648.04 2345.36 Q1648.42 2351.41 1651.67 2354.59 Q1654.95 2357.74 1660.77 2357.74 Q1664.14 2357.74 1667.29 2356.91 Q1670.48 2356.09 1673.6 2354.43 L1673.6 2359.97 Q1670.45 2361.31 1667.14 2362.01 Q1663.83 2362.71 1660.42 2362.71 Q1651.89 2362.71 1646.89 2357.74 Q1641.93 2352.78 1641.93 2344.31 Q1641.93 2335.56 1646.64 2330.43 Q1651.38 2325.28 1659.4 2325.28 Q1666.59 2325.28 1670.76 2329.92 Q1674.97 2334.54 1674.97 2342.5 M1669.11 2340.78 Q1669.05 2335.97 1666.4 2333.11 Q1663.79 2330.24 1659.46 2330.24 Q1654.56 2330.24 1651.6 2333.01 Q1648.67 2335.78 1648.23 2340.81 L1669.11 2340.78 Z" fill="#000000" fill-rule="evenodd" fill-opacity="1" /><path clip-path="url(#clip060)" d="M1700.78 2343.86 Q1693.68 2343.86 1690.94 2345.49 Q1688.21 2347.11 1688.21 2351.03 Q1688.21 2354.14 1690.24 2355.99 Q1692.31 2357.81 1695.84 2357.81 Q1700.71 2357.81 1703.64 2354.37 Q1706.6 2350.9 1706.6 2345.17 L1706.6 2343.86 L1700.78 2343.86 M1712.46 2341.45 L1712.46 2361.78 L1706.6 2361.78 L1706.6 2356.37 Q1704.6 2359.62 1701.61 2361.18 Q1698.61 2362.71 1694.29 2362.71 Q1688.81 2362.71 1685.56 2359.65 Q1682.35 2356.56 1682.35 2351.41 Q1682.35 2345.39 1686.36 2342.34 Q1690.4 2339.28 1698.39 2339.28 L1706.6 2339.28 L1706.6 2338.71 Q1706.6 2334.67 1703.93 2332.47 Q1701.29 2330.24 1696.48 2330.24 Q1693.43 2330.24 1690.53 2330.97 Q1687.63 2331.71 1684.96 2333.17 L1684.96 2327.76 Q1688.17 2326.52 1691.2 2325.91 Q1694.22 2325.28 1697.09 2325.28 Q1704.82 2325.28 1708.64 2329.29 Q1712.46 2333.3 1712.46 2341.45 Z" fill="#000000" fill-rule="evenodd" fill-opacity="1" /><path clip-path="url(#clip060)" d="M1747.25 2327.19 L1747.25 2332.72 Q1744.77 2331.45 1742.09 2330.81 Q1739.42 2330.18 1736.55 2330.18 Q1732.19 2330.18 1730 2331.51 Q1727.83 2332.85 1727.83 2335.53 Q1727.83 2337.56 1729.39 2338.74 Q1730.95 2339.89 1735.66 2340.94 L1737.67 2341.38 Q1743.91 2342.72 1746.52 2345.17 Q1749.16 2347.59 1749.16 2351.95 Q1749.16 2356.91 1745.21 2359.81 Q1741.3 2362.71 1734.42 2362.71 Q1731.56 2362.71 1728.44 2362.13 Q1725.35 2361.59 1721.91 2360.48 L1721.91 2354.43 Q1725.16 2356.12 1728.31 2356.98 Q1731.46 2357.81 1734.55 2357.81 Q1738.69 2357.81 1740.91 2356.4 Q1743.14 2354.97 1743.14 2352.39 Q1743.14 2350.01 1741.52 2348.73 Q1739.93 2347.46 1734.48 2346.28 L1732.45 2345.81 Q1727 2344.66 1724.59 2342.3 Q1722.17 2339.92 1722.17 2335.78 Q1722.17 2330.75 1725.73 2328.01 Q1729.3 2325.28 1735.85 2325.28 Q1739.1 2325.28 1741.96 2325.75 Q1744.83 2326.23 1747.25 2327.19 Z" fill="#000000" fill-rule="evenodd" fill-opacity="1" /><path clip-path="url(#clip060)" d="M1772.3 2330.24 Q1767.59 2330.24 1764.85 2333.93 Q1762.11 2337.59 1762.11 2343.99 Q1762.11 2350.39 1764.82 2354.08 Q1767.55 2357.74 1772.3 2357.74 Q1776.98 2357.74 1779.71 2354.05 Q1782.45 2350.36 1782.45 2343.99 Q1782.45 2337.66 1779.71 2333.97 Q1776.98 2330.24 1772.3 2330.24 M1772.3 2325.28 Q1779.94 2325.28 1784.3 2330.24 Q1788.66 2335.21 1788.66 2343.99 Q1788.66 2352.74 1784.3 2357.74 Q1779.94 2362.71 1772.3 2362.71 Q1764.63 2362.71 1760.27 2357.74 Q1755.94 2352.74 1755.94 2343.99 Q1755.94 2335.21 1760.27 2330.24 Q1764.63 2325.28 1772.3 2325.28 Z" fill="#000000" fill-rule="evenodd" fill-opacity="1" /><path clip-path="url(#clip060)" d="M1828 2340.27 L1828 2361.78 L1822.14 2361.78 L1822.14 2340.46 Q1822.14 2335.4 1820.17 2332.88 Q1818.19 2330.37 1814.25 2330.37 Q1809.5 2330.37 1806.77 2333.39 Q1804.03 2336.42 1804.03 2341.64 L1804.03 2361.78 L1798.14 2361.78 L1798.14 2326.14 L1804.03 2326.14 L1804.03 2331.67 Q1806.13 2328.46 1808.96 2326.87 Q1811.83 2325.28 1815.55 2325.28 Q1821.69 2325.28 1824.85 2329.1 Q1828 2332.88 1828 2340.27 Z" fill="#000000" fill-rule="evenodd" fill-opacity="1" /><polyline clip-path="url(#clip062)" style="stroke:#000000; stroke-linecap:round; stroke-linejoin:round; stroke-width:2; stroke-opacity:0.1; fill:none" points="
  276.491,2146.22 3152.76,2146.22 
  "/>
<polyline clip-path="url(#clip062)" style="stroke:#000000; stroke-linecap:round; stroke-linejoin:round; stroke-width:2; stroke-opacity:0.1; fill:none" points="
  276.491,1478.23 3152.76,1478.23 
  "/>
<polyline clip-path="url(#clip062)" style="stroke:#000000; stroke-linecap:round; stroke-linejoin:round; stroke-width:2; stroke-opacity:0.1; fill:none" points="
  276.491,810.244 3152.76,810.244 
  "/>
<polyline clip-path="url(#clip062)" style="stroke:#000000; stroke-linecap:round; stroke-linejoin:round; stroke-width:2; stroke-opacity:0.1; fill:none" points="
  276.491,142.253 3152.76,142.253 
  "/>
<polyline clip-path="url(#clip060)" style="stroke:#000000; stroke-linecap:round; stroke-linejoin:round; stroke-width:4; stroke-opacity:1; fill:none" points="
  276.491,2204.92 276.491,131.032 
  "/>
<polyline clip-path="url(#clip060)" style="stroke:#000000; stroke-linecap:round; stroke-linejoin:round; stroke-width:4; stroke-opacity:1; fill:none" points="
  276.491,2146.22 295.389,2146.22 
  "/>
<polyline clip-path="url(#clip060)" style="stroke:#000000; stroke-linecap:round; stroke-linejoin:round; stroke-width:4; stroke-opacity:1; fill:none" points="
  276.491,1478.23 295.389,1478.23 
  "/>
<polyline clip-path="url(#clip060)" style="stroke:#000000; stroke-linecap:round; stroke-linejoin:round; stroke-width:4; stroke-opacity:1; fill:none" points="
  276.491,810.244 295.389,810.244 
  "/>
<polyline clip-path="url(#clip060)" style="stroke:#000000; stroke-linecap:round; stroke-linejoin:round; stroke-width:4; stroke-opacity:1; fill:none" points="
  276.491,142.253 295.389,142.253 
  "/>
<path clip-path="url(#clip060)" d="M216.547 2132.02 Q212.936 2132.02 211.107 2135.59 Q209.302 2139.13 209.302 2146.26 Q209.302 2153.37 211.107 2156.93 Q212.936 2160.47 216.547 2160.47 Q220.181 2160.47 221.987 2156.93 Q223.815 2153.37 223.815 2146.26 Q223.815 2139.13 221.987 2135.59 Q220.181 2132.02 216.547 2132.02 M216.547 2128.32 Q222.357 2128.32 225.413 2132.93 Q228.491 2137.51 228.491 2146.26 Q228.491 2154.99 225.413 2159.59 Q222.357 2164.18 216.547 2164.18 Q210.737 2164.18 207.658 2159.59 Q204.602 2154.99 204.602 2146.26 Q204.602 2137.51 207.658 2132.93 Q210.737 2128.32 216.547 2128.32 Z" fill="#000000" fill-rule="evenodd" fill-opacity="1" /><path clip-path="url(#clip060)" d="M146.269 1460.95 L164.626 1460.95 L164.626 1464.89 L150.552 1464.89 L150.552 1473.36 Q151.57 1473.01 152.589 1472.85 Q153.607 1472.67 154.626 1472.67 Q160.413 1472.67 163.792 1475.84 Q167.172 1479.01 167.172 1484.43 Q167.172 1490.01 163.7 1493.11 Q160.228 1496.19 153.908 1496.19 Q151.732 1496.19 149.464 1495.82 Q147.219 1495.44 144.811 1494.7 L144.811 1490.01 Q146.894 1491.14 149.117 1491.69 Q151.339 1492.25 153.816 1492.25 Q157.82 1492.25 160.158 1490.14 Q162.496 1488.04 162.496 1484.43 Q162.496 1480.82 160.158 1478.71 Q157.82 1476.6 153.816 1476.6 Q151.941 1476.6 150.066 1477.02 Q148.214 1477.44 146.269 1478.32 L146.269 1460.95 Z" fill="#000000" fill-rule="evenodd" fill-opacity="1" /><path clip-path="url(#clip060)" d="M186.385 1464.03 Q182.774 1464.03 180.945 1467.6 Q179.14 1471.14 179.14 1478.27 Q179.14 1485.38 180.945 1488.94 Q182.774 1492.48 186.385 1492.48 Q190.019 1492.48 191.825 1488.94 Q193.653 1485.38 193.653 1478.27 Q193.653 1471.14 191.825 1467.6 Q190.019 1464.03 186.385 1464.03 M186.385 1460.33 Q192.195 1460.33 195.251 1464.94 Q198.329 1469.52 198.329 1478.27 Q198.329 1487 195.251 1491.6 Q192.195 1496.19 186.385 1496.19 Q180.575 1496.19 177.496 1491.6 Q174.441 1487 174.441 1478.27 Q174.441 1469.52 177.496 1464.94 Q180.575 1460.33 186.385 1460.33 Z" fill="#000000" fill-rule="evenodd" fill-opacity="1" /><path clip-path="url(#clip060)" d="M216.547 1464.03 Q212.936 1464.03 211.107 1467.6 Q209.302 1471.14 209.302 1478.27 Q209.302 1485.38 211.107 1488.94 Q212.936 1492.48 216.547 1492.48 Q220.181 1492.48 221.987 1488.94 Q223.815 1485.38 223.815 1478.27 Q223.815 1471.14 221.987 1467.6 Q220.181 1464.03 216.547 1464.03 M216.547 1460.33 Q222.357 1460.33 225.413 1464.94 Q228.491 1469.52 228.491 1478.27 Q228.491 1487 225.413 1491.6 Q222.357 1496.19 216.547 1496.19 Q210.737 1496.19 207.658 1491.6 Q204.602 1487 204.602 1478.27 Q204.602 1469.52 207.658 1464.94 Q210.737 1460.33 216.547 1460.33 Z" fill="#000000" fill-rule="evenodd" fill-opacity="1" /><path clip-path="url(#clip060)" d="M116.871 823.589 L124.51 823.589 L124.51 797.223 L116.2 798.89 L116.2 794.63 L124.464 792.964 L129.14 792.964 L129.14 823.589 L136.779 823.589 L136.779 827.524 L116.871 827.524 L116.871 823.589 Z" fill="#000000" fill-rule="evenodd" fill-opacity="1" /><path clip-path="url(#clip060)" d="M156.223 796.043 Q152.612 796.043 150.783 799.607 Q148.978 803.149 148.978 810.279 Q148.978 817.385 150.783 820.95 Q152.612 824.491 156.223 824.491 Q159.857 824.491 161.663 820.95 Q163.492 817.385 163.492 810.279 Q163.492 803.149 161.663 799.607 Q159.857 796.043 156.223 796.043 M156.223 792.339 Q162.033 792.339 165.089 796.945 Q168.167 801.529 168.167 810.279 Q168.167 819.005 165.089 823.612 Q162.033 828.195 156.223 828.195 Q150.413 828.195 147.334 823.612 Q144.279 819.005 144.279 810.279 Q144.279 801.529 147.334 796.945 Q150.413 792.339 156.223 792.339 Z" fill="#000000" fill-rule="evenodd" fill-opacity="1" /><path clip-path="url(#clip060)" d="M186.385 796.043 Q182.774 796.043 180.945 799.607 Q179.14 803.149 179.14 810.279 Q179.14 817.385 180.945 820.95 Q182.774 824.491 186.385 824.491 Q190.019 824.491 191.825 820.95 Q193.653 817.385 193.653 810.279 Q193.653 803.149 191.825 799.607 Q190.019 796.043 186.385 796.043 M186.385 792.339 Q192.195 792.339 195.251 796.945 Q198.329 801.529 198.329 810.279 Q198.329 819.005 195.251 823.612 Q192.195 828.195 186.385 828.195 Q180.575 828.195 177.496 823.612 Q174.441 819.005 174.441 810.279 Q174.441 801.529 177.496 796.945 Q180.575 792.339 186.385 792.339 Z" fill="#000000" fill-rule="evenodd" fill-opacity="1" /><path clip-path="url(#clip060)" d="M216.547 796.043 Q212.936 796.043 211.107 799.607 Q209.302 803.149 209.302 810.279 Q209.302 817.385 211.107 820.95 Q212.936 824.491 216.547 824.491 Q220.181 824.491 221.987 820.95 Q223.815 817.385 223.815 810.279 Q223.815 803.149 221.987 799.607 Q220.181 796.043 216.547 796.043 M216.547 792.339 Q222.357 792.339 225.413 796.945 Q228.491 801.529 228.491 810.279 Q228.491 819.005 225.413 823.612 Q222.357 828.195 216.547 828.195 Q210.737 828.195 207.658 823.612 Q204.602 819.005 204.602 810.279 Q204.602 801.529 207.658 796.945 Q210.737 792.339 216.547 792.339 Z" fill="#000000" fill-rule="evenodd" fill-opacity="1" /><path clip-path="url(#clip060)" d="M116.871 155.598 L124.51 155.598 L124.51 129.233 L116.2 130.899 L116.2 126.64 L124.464 124.973 L129.14 124.973 L129.14 155.598 L136.779 155.598 L136.779 159.533 L116.871 159.533 L116.871 155.598 Z" fill="#000000" fill-rule="evenodd" fill-opacity="1" /><path clip-path="url(#clip060)" d="M146.269 124.973 L164.626 124.973 L164.626 128.908 L150.552 128.908 L150.552 137.381 Q151.57 137.033 152.589 136.871 Q153.607 136.686 154.626 136.686 Q160.413 136.686 163.792 139.857 Q167.172 143.029 167.172 148.445 Q167.172 154.024 163.7 157.126 Q160.228 160.205 153.908 160.205 Q151.732 160.205 149.464 159.834 Q147.219 159.464 144.811 158.723 L144.811 154.024 Q146.894 155.158 149.117 155.714 Q151.339 156.269 153.816 156.269 Q157.82 156.269 160.158 154.163 Q162.496 152.056 162.496 148.445 Q162.496 144.834 160.158 142.728 Q157.82 140.621 153.816 140.621 Q151.941 140.621 150.066 141.038 Q148.214 141.455 146.269 142.334 L146.269 124.973 Z" fill="#000000" fill-rule="evenodd" fill-opacity="1" /><path clip-path="url(#clip060)" d="M186.385 128.052 Q182.774 128.052 180.945 131.617 Q179.14 135.158 179.14 142.288 Q179.14 149.394 180.945 152.959 Q182.774 156.501 186.385 156.501 Q190.019 156.501 191.825 152.959 Q193.653 149.394 193.653 142.288 Q193.653 135.158 191.825 131.617 Q190.019 128.052 186.385 128.052 M186.385 124.348 Q192.195 124.348 195.251 128.955 Q198.329 133.538 198.329 142.288 Q198.329 151.015 195.251 155.621 Q192.195 160.205 186.385 160.205 Q180.575 160.205 177.496 155.621 Q174.441 151.015 174.441 142.288 Q174.441 133.538 177.496 128.955 Q180.575 124.348 186.385 124.348 Z" fill="#000000" fill-rule="evenodd" fill-opacity="1" /><path clip-path="url(#clip060)" d="M216.547 128.052 Q212.936 128.052 211.107 131.617 Q209.302 135.158 209.302 142.288 Q209.302 149.394 211.107 152.959 Q212.936 156.501 216.547 156.501 Q220.181 156.501 221.987 152.959 Q223.815 149.394 223.815 142.288 Q223.815 135.158 221.987 131.617 Q220.181 128.052 216.547 128.052 M216.547 124.348 Q222.357 124.348 225.413 128.955 Q228.491 133.538 228.491 142.288 Q228.491 151.015 225.413 155.621 Q222.357 160.205 216.547 160.205 Q210.737 160.205 207.658 155.621 Q204.602 151.015 204.602 142.288 Q204.602 133.538 207.658 128.955 Q210.737 124.348 216.547 124.348 Z" fill="#000000" fill-rule="evenodd" fill-opacity="1" /><path clip-path="url(#clip060)" d="M6.42416 1532.14 L6.42416 1523.48 L46.178 1502.41 L6.42416 1502.41 L6.42416 1496.18 L53.9442 1496.18 L53.9442 1504.83 L14.1903 1525.9 L53.9442 1525.9 L53.9442 1532.14 L6.42416 1532.14 Z" fill="#000000" fill-rule="evenodd" fill-opacity="1" /><path clip-path="url(#clip060)" d="M34.6561 1453.14 L37.5206 1453.14 L37.5206 1480.07 Q43.5681 1479.69 46.7509 1476.44 Q49.9019 1473.16 49.9019 1467.34 Q49.9019 1463.97 49.0744 1460.81 Q48.2469 1457.63 46.5918 1454.51 L52.1299 1454.51 Q53.4667 1457.66 54.167 1460.97 Q54.8672 1464.28 54.8672 1467.69 Q54.8672 1476.22 49.9019 1481.22 Q44.9367 1486.18 36.4703 1486.18 Q27.7174 1486.18 22.5931 1481.47 Q17.4368 1476.73 17.4368 1468.71 Q17.4368 1461.51 22.0838 1457.35 Q26.6989 1453.14 34.6561 1453.14 M32.9373 1459 Q28.1312 1459.06 25.2666 1461.71 Q22.4021 1464.32 22.4021 1468.64 Q22.4021 1473.55 25.1712 1476.51 Q27.9402 1479.43 32.9692 1479.88 L32.9373 1459 Z" fill="#000000" fill-rule="evenodd" fill-opacity="1" /><path clip-path="url(#clip060)" d="M18.2962 1446.94 L18.2962 1441.08 L46.1143 1433.76 L18.2962 1426.47 L18.2962 1419.56 L46.1143 1412.24 L18.2962 1404.96 L18.2962 1399.1 L53.9442 1408.42 L53.9442 1415.33 L24.7256 1423 L53.9442 1430.7 L53.9442 1437.61 L18.2962 1446.94 Z" fill="#000000" fill-rule="evenodd" fill-opacity="1" /><path clip-path="url(#clip060)" d="M36.152 1343.91 Q29.6908 1343.91 26.0305 1346.58 Q22.3384 1349.22 22.3384 1353.87 Q22.3384 1358.52 26.0305 1361.19 Q29.6908 1363.83 36.152 1363.83 Q42.6132 1363.83 46.3053 1361.19 Q49.9656 1358.52 49.9656 1353.87 Q49.9656 1349.22 46.3053 1346.58 Q42.6132 1343.91 36.152 1343.91 M23.7071 1363.83 Q20.5242 1361.99 18.9964 1359.19 Q17.4368 1356.35 17.4368 1352.44 Q17.4368 1345.95 22.5931 1341.9 Q27.7493 1337.83 36.152 1337.83 Q44.5547 1337.83 49.711 1341.9 Q54.8672 1345.95 54.8672 1352.44 Q54.8672 1356.35 53.3394 1359.19 Q51.7798 1361.99 48.597 1363.83 L53.9442 1363.83 L53.9442 1369.72 L4.41896 1369.72 L4.41896 1363.83 L23.7071 1363.83 Z" fill="#000000" fill-rule="evenodd" fill-opacity="1" /><path clip-path="url(#clip060)" d="M18.2962 1328.12 L18.2962 1322.26 L53.9442 1322.26 L53.9442 1328.12 L18.2962 1328.12 M4.41896 1328.12 L4.41896 1322.26 L11.835 1322.26 L11.835 1328.12 L4.41896 1328.12 Z" fill="#000000" fill-rule="evenodd" fill-opacity="1" /><path clip-path="url(#clip060)" d="M4.41896 1310.23 L4.41896 1304.35 L33.6694 1304.35 L18.2962 1286.87 L18.2962 1279.39 L34.9744 1298.3 L53.9442 1278.6 L53.9442 1286.23 L36.5339 1304.35 L53.9442 1304.35 L53.9442 1310.23 L4.41896 1310.23 Z" fill="#000000" fill-rule="evenodd" fill-opacity="1" /><path clip-path="url(#clip060)" d="M34.6561 1244.09 L37.5206 1244.09 L37.5206 1271.02 Q43.5681 1270.64 46.7509 1267.39 Q49.9019 1264.11 49.9019 1258.29 Q49.9019 1254.92 49.0744 1251.76 Q48.2469 1248.58 46.5918 1245.46 L52.1299 1245.46 Q53.4667 1248.61 54.167 1251.92 Q54.8672 1255.23 54.8672 1258.64 Q54.8672 1267.17 49.9019 1272.17 Q44.9367 1277.13 36.4703 1277.13 Q27.7174 1277.13 22.5931 1272.42 Q17.4368 1267.68 17.4368 1259.66 Q17.4368 1252.46 22.0838 1248.3 Q26.6989 1244.09 34.6561 1244.09 M32.9373 1249.95 Q28.1312 1250.01 25.2666 1252.66 Q22.4021 1255.27 22.4021 1259.59 Q22.4021 1264.5 25.1712 1267.46 Q27.9402 1270.38 32.9692 1270.83 L32.9373 1249.95 Z" fill="#000000" fill-rule="evenodd" fill-opacity="1" /><path clip-path="url(#clip060)" d="M19.3465 1191.04 L24.8847 1191.04 Q23.6116 1193.52 22.975 1196.19 Q22.3384 1198.87 22.3384 1201.73 Q22.3384 1206.09 23.6752 1208.29 Q25.012 1210.45 27.6856 1210.45 Q29.7226 1210.45 30.9003 1208.89 Q32.0461 1207.33 33.0965 1202.62 L33.5421 1200.62 Q34.8789 1194.38 37.3297 1191.77 Q39.7486 1189.13 44.1091 1189.13 Q49.0744 1189.13 51.9708 1193.07 Q54.8672 1196.99 54.8672 1203.86 Q54.8672 1206.73 54.2943 1209.85 Q53.7532 1212.93 52.6392 1216.37 L46.5918 1216.37 Q48.2787 1213.12 49.138 1209.97 Q49.9656 1206.82 49.9656 1203.74 Q49.9656 1199.6 48.5651 1197.37 Q47.1329 1195.14 44.5547 1195.14 Q42.1676 1195.14 40.8945 1196.76 Q39.6213 1198.36 38.4437 1203.8 L37.9662 1205.84 Q36.8204 1211.28 34.4651 1213.7 Q32.078 1216.12 27.9402 1216.12 Q22.9113 1216.12 20.1741 1212.55 Q17.4368 1208.99 17.4368 1202.43 Q17.4368 1199.18 17.9143 1196.32 Q18.3917 1193.45 19.3465 1191.04 Z" fill="#000000" fill-rule="evenodd" fill-opacity="1" /><path clip-path="url(#clip060)" d="M32.4281 1150.17 L53.9442 1150.17 L53.9442 1156.02 L32.619 1156.02 Q27.5583 1156.02 25.0438 1158 Q22.5294 1159.97 22.5294 1163.92 Q22.5294 1168.66 25.5531 1171.4 Q28.5768 1174.13 33.7967 1174.13 L53.9442 1174.13 L53.9442 1180.02 L4.41896 1180.02 L4.41896 1174.13 L23.8344 1174.13 Q20.6197 1172.03 19.0283 1169.2 Q17.4368 1166.34 17.4368 1162.61 Q17.4368 1156.47 21.2563 1153.32 Q25.0438 1150.17 32.4281 1150.17 Z" fill="#000000" fill-rule="evenodd" fill-opacity="1" /><path clip-path="url(#clip060)" d="M36.0247 1122.29 Q36.0247 1129.38 37.6479 1132.12 Q39.2712 1134.86 43.1861 1134.86 Q46.3053 1134.86 48.1514 1132.82 Q49.9656 1130.75 49.9656 1127.22 Q49.9656 1122.35 46.5281 1119.42 Q43.0588 1116.46 37.3297 1116.46 L36.0247 1116.46 L36.0247 1122.29 M33.6057 1110.61 L53.9442 1110.61 L53.9442 1116.46 L48.5333 1116.46 Q51.7798 1118.47 53.3394 1121.46 Q54.8672 1124.45 54.8672 1128.78 Q54.8672 1134.25 51.8116 1137.5 Q48.7243 1140.71 43.5681 1140.71 Q37.5525 1140.71 34.4969 1136.7 Q31.4414 1132.66 31.4414 1124.67 L31.4414 1116.46 L30.8685 1116.46 Q26.8262 1116.46 24.6301 1119.14 Q22.4021 1121.78 22.4021 1126.58 Q22.4021 1129.64 23.1341 1132.53 Q23.8662 1135.43 25.3303 1138.1 L19.9195 1138.1 Q18.6781 1134.89 18.0734 1131.87 Q17.4368 1128.84 17.4368 1125.98 Q17.4368 1118.24 21.4472 1114.42 Q25.4576 1110.61 33.6057 1110.61 Z" fill="#000000" fill-rule="evenodd" fill-opacity="1" /><path clip-path="url(#clip060)" d="M23.7707 1077.89 Q23.1978 1078.87 22.9432 1080.05 Q22.6567 1081.2 22.6567 1082.6 Q22.6567 1087.56 25.9032 1090.23 Q29.1179 1092.88 35.1653 1092.88 L53.9442 1092.88 L53.9442 1098.76 L18.2962 1098.76 L18.2962 1092.88 L23.8344 1092.88 Q20.5879 1091.03 19.0283 1088.07 Q17.4368 1085.11 17.4368 1080.88 Q17.4368 1080.27 17.5323 1079.54 Q17.596 1078.81 17.7551 1077.92 L23.7707 1077.89 Z" fill="#000000" fill-rule="evenodd" fill-opacity="1" /><path clip-path="url(#clip060)" d="M34.6561 1042.68 L37.5206 1042.68 L37.5206 1069.61 Q43.5681 1069.23 46.7509 1065.98 Q49.9019 1062.7 49.9019 1056.88 Q49.9019 1053.5 49.0744 1050.35 Q48.2469 1047.17 46.5918 1044.05 L52.1299 1044.05 Q53.4667 1047.2 54.167 1050.51 Q54.8672 1053.82 54.8672 1057.23 Q54.8672 1065.76 49.9019 1070.76 Q44.9367 1075.72 36.4703 1075.72 Q27.7174 1075.72 22.5931 1071.01 Q17.4368 1066.27 17.4368 1058.25 Q17.4368 1051.05 22.0838 1046.88 Q26.6989 1042.68 34.6561 1042.68 M32.9373 1048.54 Q28.1312 1048.6 25.2666 1051.24 Q22.4021 1053.85 22.4021 1058.18 Q22.4021 1063.09 25.1712 1066.05 Q27.9402 1068.97 32.9692 1069.42 L32.9373 1048.54 Z" fill="#000000" fill-rule="evenodd" fill-opacity="1" /><path clip-path="url(#clip060)" d="M19.6648 986.697 L25.1393 986.697 Q23.7707 989.179 23.1023 991.694 Q22.4021 994.176 22.4021 996.723 Q22.4021 1002.42 26.0305 1005.57 Q29.6272 1008.72 36.152 1008.72 Q42.6769 1008.72 46.3053 1005.57 Q49.9019 1002.42 49.9019 996.723 Q49.9019 994.176 49.2335 991.694 Q48.5333 989.179 47.1647 986.697 L52.5755 986.697 Q53.7214 989.147 54.2943 991.789 Q54.8672 994.399 54.8672 997.359 Q54.8672 1005.41 49.8064 1010.15 Q44.7457 1014.9 36.152 1014.9 Q27.431 1014.9 22.4339 1010.12 Q17.4368 1005.32 17.4368 996.977 Q17.4368 994.272 18.0097 991.694 Q18.5508 989.116 19.6648 986.697 Z" fill="#000000" fill-rule="evenodd" fill-opacity="1" /><path clip-path="url(#clip060)" d="M22.4021 962.698 Q22.4021 967.408 26.0942 970.146 Q29.7545 972.883 36.152 972.883 Q42.5495 972.883 46.2417 970.178 Q49.9019 967.44 49.9019 962.698 Q49.9019 958.019 46.2098 955.282 Q42.5177 952.545 36.152 952.545 Q29.8181 952.545 26.126 955.282 Q22.4021 958.019 22.4021 962.698 M17.4368 962.698 Q17.4368 955.059 22.4021 950.699 Q27.3673 946.338 36.152 946.338 Q44.9049 946.338 49.9019 950.699 Q54.8672 955.059 54.8672 962.698 Q54.8672 970.369 49.9019 974.729 Q44.9049 979.058 36.152 979.058 Q27.3673 979.058 22.4021 974.729 Q17.4368 970.369 17.4368 962.698 Z" fill="#000000" fill-rule="evenodd" fill-opacity="1" /><path clip-path="url(#clip060)" d="M39.8759 937.235 L18.2962 937.235 L18.2962 931.379 L39.6531 931.379 Q44.7139 931.379 47.2602 929.405 Q49.7746 927.432 49.7746 923.485 Q49.7746 918.743 46.7509 916.005 Q43.7272 913.236 38.5073 913.236 L18.2962 913.236 L18.2962 907.38 L53.9442 907.38 L53.9442 913.236 L48.4696 913.236 Q51.7162 915.369 53.3076 918.202 Q54.8672 921.002 54.8672 924.726 Q54.8672 930.869 51.0478 934.052 Q47.2283 937.235 39.8759 937.235 M17.4368 922.498 L17.4368 922.498 Z" fill="#000000" fill-rule="evenodd" fill-opacity="1" /><path clip-path="url(#clip060)" d="M32.4281 865.684 L53.9442 865.684 L53.9442 871.541 L32.619 871.541 Q27.5583 871.541 25.0438 873.514 Q22.5294 875.488 22.5294 879.434 Q22.5294 884.177 25.5531 886.914 Q28.5768 889.651 33.7967 889.651 L53.9442 889.651 L53.9442 895.54 L18.2962 895.54 L18.2962 889.651 L23.8344 889.651 Q20.6197 887.551 19.0283 884.718 Q17.4368 881.853 17.4368 878.129 Q17.4368 871.987 21.2563 868.836 Q25.0438 865.684 32.4281 865.684 Z" fill="#000000" fill-rule="evenodd" fill-opacity="1" /><path clip-path="url(#clip060)" d="M8.17473 848.211 L18.2962 848.211 L18.2962 836.148 L22.8477 836.148 L22.8477 848.211 L42.1994 848.211 Q46.5599 848.211 47.8013 847.033 Q49.0426 845.823 49.0426 842.163 L49.0426 836.148 L53.9442 836.148 L53.9442 842.163 Q53.9442 848.943 51.4297 851.521 Q48.8834 854.099 42.1994 854.099 L22.8477 854.099 L22.8477 858.396 L18.2962 858.396 L18.2962 854.099 L8.17473 854.099 L8.17473 848.211 Z" fill="#000000" fill-rule="evenodd" fill-opacity="1" /><path clip-path="url(#clip060)" d="M19.3465 805.72 L24.8847 805.72 Q23.6116 808.202 22.975 810.876 Q22.3384 813.549 22.3384 816.414 Q22.3384 820.774 23.6752 822.971 Q25.012 825.135 27.6856 825.135 Q29.7226 825.135 30.9003 823.575 Q32.0461 822.016 33.0965 817.305 L33.5421 815.3 Q34.8789 809.062 37.3297 806.452 Q39.7486 803.81 44.1091 803.81 Q49.0744 803.81 51.9708 807.757 Q54.8672 811.671 54.8672 818.546 Q54.8672 821.411 54.2943 824.53 Q53.7532 827.618 52.6392 831.055 L46.5918 831.055 Q48.2787 827.809 49.138 824.658 Q49.9656 821.506 49.9656 818.419 Q49.9656 814.281 48.5651 812.053 Q47.1329 809.825 44.5547 809.825 Q42.1676 809.825 40.8945 811.449 Q39.6213 813.04 38.4437 818.483 L37.9662 820.52 Q36.8204 825.962 34.4651 828.381 Q32.078 830.8 27.9402 830.8 Q22.9113 830.8 20.1741 827.236 Q17.4368 823.671 17.4368 817.114 Q17.4368 813.868 17.9143 811.003 Q18.3917 808.139 19.3465 805.72 Z" fill="#000000" fill-rule="evenodd" fill-opacity="1" /><path clip-path="url(#clip060)" d="M814.715 18.8205 L814.715 65.8515 L824.599 65.8515 Q837.117 65.8515 842.909 60.1802 Q848.743 54.509 848.743 42.2752 Q848.743 30.1225 842.909 24.4918 Q837.117 18.8205 824.599 18.8205 L814.715 18.8205 M806.532 12.096 L823.344 12.096 Q840.925 12.096 849.148 19.4281 Q857.371 26.7198 857.371 42.2752 Q857.371 57.9117 849.107 65.2439 Q840.844 72.576 823.344 72.576 L806.532 72.576 L806.532 12.096 Z" fill="#000000" fill-rule="evenodd" fill-opacity="1" /><path clip-path="url(#clip060)" d="M870.091 27.2059 L877.545 27.2059 L877.545 72.576 L870.091 72.576 L870.091 27.2059 M870.091 9.54393 L877.545 9.54393 L877.545 18.9825 L870.091 18.9825 L870.091 9.54393 Z" fill="#000000" fill-rule="evenodd" fill-opacity="1" /><path clip-path="url(#clip060)" d="M922.064 28.5427 L922.064 35.5912 Q918.904 33.9709 915.502 33.1607 Q912.099 32.3505 908.453 32.3505 Q902.903 32.3505 900.108 34.0519 Q897.354 35.7533 897.354 39.156 Q897.354 41.7486 899.339 43.2475 Q901.324 44.7058 907.319 46.0426 L909.871 46.6097 Q917.811 48.3111 921.132 51.4303 Q924.495 54.509 924.495 60.0587 Q924.495 66.3781 919.472 70.0644 Q914.489 73.7508 905.739 73.7508 Q902.093 73.7508 898.123 73.0216 Q894.194 72.3329 889.819 70.9151 L889.819 63.2184 Q893.951 65.3654 897.961 66.4591 Q901.972 67.5124 905.901 67.5124 Q911.167 67.5124 914.003 65.73 Q916.838 63.9071 916.838 60.6258 Q916.838 57.5877 914.773 55.9673 Q912.747 54.3469 905.82 52.8481 L903.227 52.2405 Q896.3 50.7821 893.222 47.7845 Q890.143 44.7463 890.143 39.4801 Q890.143 33.0797 894.68 29.5959 Q899.217 26.1121 907.562 26.1121 Q911.694 26.1121 915.34 26.7198 Q918.985 27.3274 922.064 28.5427 Z" fill="#000000" fill-rule="evenodd" fill-opacity="1" /><path clip-path="url(#clip060)" d="M943.736 14.324 L943.736 27.2059 L959.089 27.2059 L959.089 32.9987 L943.736 32.9987 L943.736 57.6282 Q943.736 63.1779 945.235 64.7578 Q946.775 66.3376 951.433 66.3376 L959.089 66.3376 L959.089 72.576 L951.433 72.576 Q942.805 72.576 939.524 69.3758 Q936.242 66.1351 936.242 57.6282 L936.242 32.9987 L930.774 32.9987 L930.774 27.2059 L936.242 27.2059 L936.242 14.324 L943.736 14.324 Z" fill="#000000" fill-rule="evenodd" fill-opacity="1" /><path clip-path="url(#clip060)" d="M995.183 34.1734 Q993.927 33.4443 992.428 33.1202 Q990.97 32.7556 989.188 32.7556 Q982.868 32.7556 979.465 36.8875 Q976.103 40.9789 976.103 48.6757 L976.103 72.576 L968.609 72.576 L968.609 27.2059 L976.103 27.2059 L976.103 34.2544 Q978.453 30.1225 982.22 28.1376 Q985.987 26.1121 991.375 26.1121 Q992.145 26.1121 993.077 26.2337 Q994.008 26.3147 995.142 26.5172 L995.183 34.1734 Z" fill="#000000" fill-rule="evenodd" fill-opacity="1" /><path clip-path="url(#clip060)" d="M1003 27.2059 L1010.45 27.2059 L1010.45 72.576 L1003 72.576 L1003 27.2059 M1003 9.54393 L1010.45 9.54393 L1010.45 18.9825 L1003 18.9825 L1003 9.54393 Z" fill="#000000" fill-rule="evenodd" fill-opacity="1" /><path clip-path="url(#clip060)" d="M1058.62 49.9314 Q1058.62 41.7081 1055.22 37.0496 Q1051.86 32.3505 1045.94 32.3505 Q1040.03 32.3505 1036.62 37.0496 Q1033.26 41.7081 1033.26 49.9314 Q1033.26 58.1548 1036.62 62.8538 Q1040.03 67.5124 1045.94 67.5124 Q1051.86 67.5124 1055.22 62.8538 Q1058.62 58.1548 1058.62 49.9314 M1033.26 34.0924 Q1035.61 30.0415 1039.18 28.0971 Q1042.78 26.1121 1047.76 26.1121 Q1056.03 26.1121 1061.17 32.6746 Q1066.36 39.2371 1066.36 49.9314 Q1066.36 60.6258 1061.17 67.1883 Q1056.03 73.7508 1047.76 73.7508 Q1042.78 73.7508 1039.18 71.8063 Q1035.61 69.8214 1033.26 65.7705 L1033.26 72.576 L1025.77 72.576 L1025.77 9.54393 L1033.26 9.54393 L1033.26 34.0924 Z" fill="#000000" fill-rule="evenodd" fill-opacity="1" /><path clip-path="url(#clip060)" d="M1077.94 54.671 L1077.94 27.2059 L1085.4 27.2059 L1085.4 54.3874 Q1085.4 60.8284 1087.91 64.0691 Q1090.42 67.2693 1095.44 67.2693 Q1101.48 67.2693 1104.96 63.421 Q1108.49 59.5726 1108.49 52.9291 L1108.49 27.2059 L1115.94 27.2059 L1115.94 72.576 L1108.49 72.576 L1108.49 65.6084 Q1105.77 69.7404 1102.17 71.7658 Q1098.6 73.7508 1093.86 73.7508 Q1086.04 73.7508 1081.99 68.8897 Q1077.94 64.0286 1077.94 54.671 M1096.7 26.1121 L1096.7 26.1121 Z" fill="#000000" fill-rule="evenodd" fill-opacity="1" /><path clip-path="url(#clip060)" d="M1138.67 14.324 L1138.67 27.2059 L1154.02 27.2059 L1154.02 32.9987 L1138.67 32.9987 L1138.67 57.6282 Q1138.67 63.1779 1140.16 64.7578 Q1141.7 66.3376 1146.36 66.3376 L1154.02 66.3376 L1154.02 72.576 L1146.36 72.576 Q1137.73 72.576 1134.45 69.3758 Q1131.17 66.1351 1131.17 57.6282 L1131.17 32.9987 L1125.7 32.9987 L1125.7 27.2059 L1131.17 27.2059 L1131.17 14.324 L1138.67 14.324 Z" fill="#000000" fill-rule="evenodd" fill-opacity="1" /><path clip-path="url(#clip060)" d="M1163.82 27.2059 L1171.28 27.2059 L1171.28 72.576 L1163.82 72.576 L1163.82 27.2059 M1163.82 9.54393 L1171.28 9.54393 L1171.28 18.9825 L1163.82 18.9825 L1163.82 9.54393 Z" fill="#000000" fill-rule="evenodd" fill-opacity="1" /><path clip-path="url(#clip060)" d="M1204.45 32.4315 Q1198.46 32.4315 1194.97 37.1306 Q1191.49 41.7891 1191.49 49.9314 Q1191.49 58.0738 1194.93 62.7728 Q1198.42 67.4314 1204.45 67.4314 Q1210.41 67.4314 1213.89 62.7323 Q1217.38 58.0333 1217.38 49.9314 Q1217.38 41.8701 1213.89 37.1711 Q1210.41 32.4315 1204.45 32.4315 M1204.45 26.1121 Q1214.17 26.1121 1219.72 32.4315 Q1225.27 38.7509 1225.27 49.9314 Q1225.27 61.0714 1219.72 67.4314 Q1214.17 73.7508 1204.45 73.7508 Q1194.69 73.7508 1189.14 67.4314 Q1183.63 61.0714 1183.63 49.9314 Q1183.63 38.7509 1189.14 32.4315 Q1194.69 26.1121 1204.45 26.1121 Z" fill="#000000" fill-rule="evenodd" fill-opacity="1" /><path clip-path="url(#clip060)" d="M1275.34 45.1919 L1275.34 72.576 L1267.89 72.576 L1267.89 45.4349 Q1267.89 38.994 1265.38 35.7938 Q1262.87 32.5936 1257.84 32.5936 Q1251.81 32.5936 1248.32 36.4419 Q1244.84 40.2903 1244.84 46.9338 L1244.84 72.576 L1237.35 72.576 L1237.35 27.2059 L1244.84 27.2059 L1244.84 34.2544 Q1247.51 30.163 1251.12 28.1376 Q1254.76 26.1121 1259.5 26.1121 Q1267.32 26.1121 1271.33 30.9732 Q1275.34 35.7938 1275.34 45.1919 Z" fill="#000000" fill-rule="evenodd" fill-opacity="1" /><path clip-path="url(#clip060)" d="M1334.16 32.4315 Q1328.17 32.4315 1324.68 37.1306 Q1321.2 41.7891 1321.2 49.9314 Q1321.2 58.0738 1324.64 62.7728 Q1328.13 67.4314 1334.16 67.4314 Q1340.12 67.4314 1343.6 62.7323 Q1347.09 58.0333 1347.09 49.9314 Q1347.09 41.8701 1343.6 37.1711 Q1340.12 32.4315 1334.16 32.4315 M1334.16 26.1121 Q1343.88 26.1121 1349.43 32.4315 Q1354.98 38.7509 1354.98 49.9314 Q1354.98 61.0714 1349.43 67.4314 Q1343.88 73.7508 1334.16 73.7508 Q1324.4 73.7508 1318.85 67.4314 Q1313.34 61.0714 1313.34 49.9314 Q1313.34 38.7509 1318.85 32.4315 Q1324.4 26.1121 1334.16 26.1121 Z" fill="#000000" fill-rule="evenodd" fill-opacity="1" /><path clip-path="url(#clip060)" d="M1390.31 9.54393 L1390.31 15.7418 L1383.18 15.7418 Q1379.17 15.7418 1377.59 17.3622 Q1376.05 18.9825 1376.05 23.1955 L1376.05 27.2059 L1388.32 27.2059 L1388.32 32.9987 L1376.05 32.9987 L1376.05 72.576 L1368.55 72.576 L1368.55 32.9987 L1361.43 32.9987 L1361.43 27.2059 L1368.55 27.2059 L1368.55 24.0462 Q1368.55 16.471 1372.08 13.0277 Q1375.6 9.54393 1383.26 9.54393 L1390.31 9.54393 Z" fill="#000000" fill-rule="evenodd" fill-opacity="1" /><path clip-path="url(#clip060)" d="M1460.63 45.1919 L1460.63 72.576 L1453.18 72.576 L1453.18 45.4349 Q1453.18 38.994 1450.67 35.7938 Q1448.16 32.5936 1443.13 32.5936 Q1437.1 32.5936 1433.61 36.4419 Q1430.13 40.2903 1430.13 46.9338 L1430.13 72.576 L1422.63 72.576 L1422.63 27.2059 L1430.13 27.2059 L1430.13 34.2544 Q1432.8 30.163 1436.41 28.1376 Q1440.05 26.1121 1444.79 26.1121 Q1452.61 26.1121 1456.62 30.9732 Q1460.63 35.7938 1460.63 45.1919 Z" fill="#000000" fill-rule="evenodd" fill-opacity="1" /><path clip-path="url(#clip060)" d="M1514.31 48.0275 L1514.31 51.6733 L1480.04 51.6733 Q1480.52 59.3701 1484.65 63.421 Q1488.83 67.4314 1496.24 67.4314 Q1500.53 67.4314 1504.54 66.3781 Q1508.59 65.3249 1512.56 63.2184 L1512.56 70.267 Q1508.55 71.9684 1504.34 72.8596 Q1500.13 73.7508 1495.79 73.7508 Q1484.94 73.7508 1478.58 67.4314 Q1472.26 61.1119 1472.26 50.3365 Q1472.26 39.1965 1478.25 32.6746 Q1484.29 26.1121 1494.5 26.1121 Q1503.65 26.1121 1508.96 32.0264 Q1514.31 37.9003 1514.31 48.0275 M1506.85 45.84 Q1506.77 39.7232 1503.41 36.0774 Q1500.09 32.4315 1494.58 32.4315 Q1488.34 32.4315 1484.57 35.9558 Q1480.85 39.4801 1480.28 45.8805 L1506.85 45.84 Z" fill="#000000" fill-rule="evenodd" fill-opacity="1" /><path clip-path="url(#clip060)" d="M1522.21 27.2059 L1529.66 27.2059 L1538.98 62.6108 L1548.25 27.2059 L1557.04 27.2059 L1566.36 62.6108 L1575.64 27.2059 L1583.09 27.2059 L1571.22 72.576 L1562.43 72.576 L1552.67 35.3887 L1542.87 72.576 L1534.07 72.576 L1522.21 27.2059 Z" fill="#000000" fill-rule="evenodd" fill-opacity="1" /><path clip-path="url(#clip060)" d="M1653.33 49.9314 Q1653.33 41.7081 1649.93 37.0496 Q1646.57 32.3505 1640.65 32.3505 Q1634.74 32.3505 1631.34 37.0496 Q1627.97 41.7081 1627.97 49.9314 Q1627.97 58.1548 1631.34 62.8538 Q1634.74 67.5124 1640.65 67.5124 Q1646.57 67.5124 1649.93 62.8538 Q1653.33 58.1548 1653.33 49.9314 M1627.97 34.0924 Q1630.32 30.0415 1633.89 28.0971 Q1637.49 26.1121 1642.48 26.1121 Q1650.74 26.1121 1655.89 32.6746 Q1661.07 39.2371 1661.07 49.9314 Q1661.07 60.6258 1655.89 67.1883 Q1650.74 73.7508 1642.48 73.7508 Q1637.49 73.7508 1633.89 71.8063 Q1630.32 69.8214 1627.97 65.7705 L1627.97 72.576 L1620.48 72.576 L1620.48 9.54393 L1627.97 9.54393 L1627.97 34.0924 Z" fill="#000000" fill-rule="evenodd" fill-opacity="1" /><path clip-path="url(#clip060)" d="M1673.43 27.2059 L1680.88 27.2059 L1680.88 72.576 L1673.43 72.576 L1673.43 27.2059 M1673.43 9.54393 L1680.88 9.54393 L1680.88 18.9825 L1673.43 18.9825 L1673.43 9.54393 Z" fill="#000000" fill-rule="evenodd" fill-opacity="1" /><path clip-path="url(#clip060)" d="M1696.19 9.54393 L1703.69 9.54393 L1703.69 46.7717 L1725.93 27.2059 L1735.45 27.2059 L1711.38 48.4326 L1736.46 72.576 L1726.74 72.576 L1703.69 50.4176 L1703.69 72.576 L1696.19 72.576 L1696.19 9.54393 Z" fill="#000000" fill-rule="evenodd" fill-opacity="1" /><path clip-path="url(#clip060)" d="M1780.37 48.0275 L1780.37 51.6733 L1746.1 51.6733 Q1746.59 59.3701 1750.72 63.421 Q1754.89 67.4314 1762.3 67.4314 Q1766.6 67.4314 1770.61 66.3781 Q1774.66 65.3249 1778.63 63.2184 L1778.63 70.267 Q1774.62 71.9684 1770.4 72.8596 Q1766.19 73.7508 1761.86 73.7508 Q1751 73.7508 1744.64 67.4314 Q1738.32 61.1119 1738.32 50.3365 Q1738.32 39.1965 1744.32 32.6746 Q1750.35 26.1121 1760.56 26.1121 Q1769.72 26.1121 1775.02 32.0264 Q1780.37 37.9003 1780.37 48.0275 M1772.92 45.84 Q1772.84 39.7232 1769.47 36.0774 Q1766.15 32.4315 1760.64 32.4315 Q1754.4 32.4315 1750.64 35.9558 Q1746.91 39.4801 1746.34 45.8805 L1772.92 45.84 Z" fill="#000000" fill-rule="evenodd" fill-opacity="1" /><path clip-path="url(#clip060)" d="M1847.9 28.5427 L1847.9 35.5912 Q1844.74 33.9709 1841.34 33.1607 Q1837.93 32.3505 1834.29 32.3505 Q1828.74 32.3505 1825.94 34.0519 Q1823.19 35.7533 1823.19 39.156 Q1823.19 41.7486 1825.17 43.2475 Q1827.16 44.7058 1833.15 46.0426 L1835.71 46.6097 Q1843.64 48.3111 1846.97 51.4303 Q1850.33 54.509 1850.33 60.0587 Q1850.33 66.3781 1845.31 70.0644 Q1840.32 73.7508 1831.57 73.7508 Q1827.93 73.7508 1823.96 73.0216 Q1820.03 72.3329 1815.65 70.9151 L1815.65 63.2184 Q1819.79 65.3654 1823.8 66.4591 Q1827.81 67.5124 1831.74 67.5124 Q1837 67.5124 1839.84 65.73 Q1842.67 63.9071 1842.67 60.6258 Q1842.67 57.5877 1840.61 55.9673 Q1838.58 54.3469 1831.65 52.8481 L1829.06 52.2405 Q1822.13 50.7821 1819.06 47.7845 Q1815.98 44.7463 1815.98 39.4801 Q1815.98 33.0797 1820.51 29.5959 Q1825.05 26.1121 1833.4 26.1121 Q1837.53 26.1121 1841.17 26.7198 Q1844.82 27.3274 1847.9 28.5427 Z" fill="#000000" fill-rule="evenodd" fill-opacity="1" /><path clip-path="url(#clip060)" d="M1899.91 45.1919 L1899.91 72.576 L1892.46 72.576 L1892.46 45.4349 Q1892.46 38.994 1889.95 35.7938 Q1887.44 32.5936 1882.41 32.5936 Q1876.38 32.5936 1872.89 36.4419 Q1869.41 40.2903 1869.41 46.9338 L1869.41 72.576 L1861.91 72.576 L1861.91 9.54393 L1869.41 9.54393 L1869.41 34.2544 Q1872.08 30.163 1875.69 28.1376 Q1879.33 26.1121 1884.07 26.1121 Q1891.89 26.1121 1895.9 30.9732 Q1899.91 35.7938 1899.91 45.1919 Z" fill="#000000" fill-rule="evenodd" fill-opacity="1" /><path clip-path="url(#clip060)" d="M1935.4 49.7694 Q1926.36 49.7694 1922.88 51.8354 Q1919.4 53.9013 1919.4 58.8839 Q1919.4 62.8538 1921.99 65.2034 Q1924.62 67.5124 1929.12 67.5124 Q1935.32 67.5124 1939.04 63.1374 Q1942.81 58.7219 1942.81 51.4303 L1942.81 49.7694 L1935.4 49.7694 M1950.26 46.6907 L1950.26 72.576 L1942.81 72.576 L1942.81 65.6895 Q1940.26 69.8214 1936.45 71.8063 Q1932.64 73.7508 1927.13 73.7508 Q1920.17 73.7508 1916.03 69.8619 Q1911.94 65.9325 1911.94 59.3701 Q1911.94 51.7138 1917.05 47.825 Q1922.19 43.9361 1932.36 43.9361 L1942.81 43.9361 L1942.81 43.2069 Q1942.81 38.0623 1939.41 35.2672 Q1936.05 32.4315 1929.93 32.4315 Q1926.04 32.4315 1922.35 33.3632 Q1918.67 34.295 1915.26 36.1584 L1915.26 29.2718 Q1919.36 27.692 1923.2 26.9223 Q1927.05 26.1121 1930.7 26.1121 Q1940.54 26.1121 1945.4 31.2163 Q1950.26 36.3204 1950.26 46.6907 Z" fill="#000000" fill-rule="evenodd" fill-opacity="1" /><path clip-path="url(#clip060)" d="M1991.91 34.1734 Q1990.65 33.4443 1989.15 33.1202 Q1987.7 32.7556 1985.91 32.7556 Q1979.59 32.7556 1976.19 36.8875 Q1972.83 40.9789 1972.83 48.6757 L1972.83 72.576 L1965.33 72.576 L1965.33 27.2059 L1972.83 27.2059 L1972.83 34.2544 Q1975.18 30.1225 1978.95 28.1376 Q1982.71 26.1121 1988.1 26.1121 Q1988.87 26.1121 1989.8 26.2337 Q1990.73 26.3147 1991.87 26.5172 L1991.91 34.1734 Z" fill="#000000" fill-rule="evenodd" fill-opacity="1" /><path clip-path="url(#clip060)" d="M2036.71 48.0275 L2036.71 51.6733 L2002.44 51.6733 Q2002.93 59.3701 2007.06 63.421 Q2011.23 67.4314 2018.64 67.4314 Q2022.94 67.4314 2026.95 66.3781 Q2031 65.3249 2034.97 63.2184 L2034.97 70.267 Q2030.96 71.9684 2026.75 72.8596 Q2022.53 73.7508 2018.2 73.7508 Q2007.34 73.7508 2000.98 67.4314 Q1994.66 61.1119 1994.66 50.3365 Q1994.66 39.1965 2000.66 32.6746 Q2006.69 26.1121 2016.9 26.1121 Q2026.06 26.1121 2031.36 32.0264 Q2036.71 37.9003 2036.71 48.0275 M2029.26 45.84 Q2029.18 39.7232 2025.81 36.0774 Q2022.49 32.4315 2016.98 32.4315 Q2010.74 32.4315 2006.98 35.9558 Q2003.25 39.4801 2002.68 45.8805 L2029.26 45.84 Z" fill="#000000" fill-rule="evenodd" fill-opacity="1" /><path clip-path="url(#clip060)" d="M2077.87 28.5427 L2077.87 35.5912 Q2074.71 33.9709 2071.31 33.1607 Q2067.9 32.3505 2064.26 32.3505 Q2058.71 32.3505 2055.91 34.0519 Q2053.16 35.7533 2053.16 39.156 Q2053.16 41.7486 2055.14 43.2475 Q2057.13 44.7058 2063.12 46.0426 L2065.67 46.6097 Q2073.61 48.3111 2076.94 51.4303 Q2080.3 54.509 2080.3 60.0587 Q2080.3 66.3781 2075.28 70.0644 Q2070.29 73.7508 2061.54 73.7508 Q2057.9 73.7508 2053.93 73.0216 Q2050 72.3329 2045.62 70.9151 L2045.62 63.2184 Q2049.75 65.3654 2053.77 66.4591 Q2057.78 67.5124 2061.71 67.5124 Q2066.97 67.5124 2069.81 65.73 Q2072.64 63.9071 2072.64 60.6258 Q2072.64 57.5877 2070.58 55.9673 Q2068.55 54.3469 2061.62 52.8481 L2059.03 52.2405 Q2052.1 50.7821 2049.03 47.7845 Q2045.95 44.7463 2045.95 39.4801 Q2045.95 33.0797 2050.48 29.5959 Q2055.02 26.1121 2063.37 26.1121 Q2067.5 26.1121 2071.14 26.7198 Q2074.79 27.3274 2077.87 28.5427 Z" fill="#000000" fill-rule="evenodd" fill-opacity="1" /><path clip-path="url(#clip060)" d="M2118.54 27.2059 L2125.99 27.2059 L2125.99 72.576 L2118.54 72.576 L2118.54 27.2059 M2118.54 9.54393 L2125.99 9.54393 L2125.99 18.9825 L2118.54 18.9825 L2118.54 9.54393 Z" fill="#000000" fill-rule="evenodd" fill-opacity="1" /><path clip-path="url(#clip060)" d="M2179.3 45.1919 L2179.3 72.576 L2171.85 72.576 L2171.85 45.4349 Q2171.85 38.994 2169.34 35.7938 Q2166.83 32.5936 2161.8 32.5936 Q2155.77 32.5936 2152.28 36.4419 Q2148.8 40.2903 2148.8 46.9338 L2148.8 72.576 L2141.31 72.576 L2141.31 27.2059 L2148.8 27.2059 L2148.8 34.2544 Q2151.47 30.163 2155.08 28.1376 Q2158.72 26.1121 2163.46 26.1121 Q2171.28 26.1121 2175.29 30.9732 Q2179.3 35.7938 2179.3 45.1919 Z" fill="#000000" fill-rule="evenodd" fill-opacity="1" /><path clip-path="url(#clip060)" d="M2244.08 19.2256 L2223.42 51.5113 L2244.08 51.5113 L2244.08 19.2256 M2241.93 12.096 L2252.22 12.096 L2252.22 51.5113 L2260.85 51.5113 L2260.85 58.3168 L2252.22 58.3168 L2252.22 72.576 L2244.08 72.576 L2244.08 58.3168 L2216.77 58.3168 L2216.77 50.4176 L2241.93 12.096 Z" fill="#000000" fill-rule="evenodd" fill-opacity="1" /><path clip-path="url(#clip060)" d="M2328.62 28.5427 L2328.62 35.5912 Q2325.46 33.9709 2322.06 33.1607 Q2318.65 32.3505 2315.01 32.3505 Q2309.46 32.3505 2306.66 34.0519 Q2303.91 35.7533 2303.91 39.156 Q2303.91 41.7486 2305.89 43.2475 Q2307.88 44.7058 2313.87 46.0426 L2316.43 46.6097 Q2324.37 48.3111 2327.69 51.4303 Q2331.05 54.509 2331.05 60.0587 Q2331.05 66.3781 2326.03 70.0644 Q2321.04 73.7508 2312.29 73.7508 Q2308.65 73.7508 2304.68 73.0216 Q2300.75 72.3329 2296.37 70.9151 L2296.37 63.2184 Q2300.51 65.3654 2304.52 66.4591 Q2308.53 67.5124 2312.46 67.5124 Q2317.72 67.5124 2320.56 65.73 Q2323.39 63.9071 2323.39 60.6258 Q2323.39 57.5877 2321.33 55.9673 Q2319.3 54.3469 2312.37 52.8481 L2309.78 52.2405 Q2302.86 50.7821 2299.78 47.7845 Q2296.7 44.7463 2296.7 39.4801 Q2296.7 33.0797 2301.24 29.5959 Q2305.77 26.1121 2314.12 26.1121 Q2318.25 26.1121 2321.89 26.7198 Q2325.54 27.3274 2328.62 28.5427 Z" fill="#000000" fill-rule="evenodd" fill-opacity="1" /><path clip-path="url(#clip060)" d="M2381.73 48.0275 L2381.73 51.6733 L2347.46 51.6733 Q2347.94 59.3701 2352.07 63.421 Q2356.25 67.4314 2363.66 67.4314 Q2367.95 67.4314 2371.96 66.3781 Q2376.01 65.3249 2379.98 63.2184 L2379.98 70.267 Q2375.97 71.9684 2371.76 72.8596 Q2367.55 73.7508 2363.21 73.7508 Q2352.36 73.7508 2346 67.4314 Q2339.68 61.1119 2339.68 50.3365 Q2339.68 39.1965 2345.67 32.6746 Q2351.71 26.1121 2361.92 26.1121 Q2371.07 26.1121 2376.38 32.0264 Q2381.73 37.9003 2381.73 48.0275 M2374.27 45.84 Q2374.19 39.7232 2370.83 36.0774 Q2367.51 32.4315 2362 32.4315 Q2355.76 32.4315 2351.99 35.9558 Q2348.27 39.4801 2347.7 45.8805 L2374.27 45.84 Z" fill="#000000" fill-rule="evenodd" fill-opacity="1" /><path clip-path="url(#clip060)" d="M2414.58 49.7694 Q2405.55 49.7694 2402.06 51.8354 Q2398.58 53.9013 2398.58 58.8839 Q2398.58 62.8538 2401.17 65.2034 Q2403.8 67.5124 2408.3 67.5124 Q2414.5 67.5124 2418.23 63.1374 Q2421.99 58.7219 2421.99 51.4303 L2421.99 49.7694 L2414.58 49.7694 M2429.45 46.6907 L2429.45 72.576 L2421.99 72.576 L2421.99 65.6895 Q2419.44 69.8214 2415.63 71.8063 Q2411.82 73.7508 2406.32 73.7508 Q2399.35 73.7508 2395.22 69.8619 Q2391.12 65.9325 2391.12 59.3701 Q2391.12 51.7138 2396.23 47.825 Q2401.37 43.9361 2411.54 43.9361 L2421.99 43.9361 L2421.99 43.2069 Q2421.99 38.0623 2418.59 35.2672 Q2415.23 32.4315 2409.11 32.4315 Q2405.22 32.4315 2401.54 33.3632 Q2397.85 34.295 2394.45 36.1584 L2394.45 29.2718 Q2398.54 27.692 2402.39 26.9223 Q2406.23 26.1121 2409.88 26.1121 Q2419.72 26.1121 2424.59 31.2163 Q2429.45 36.3204 2429.45 46.6907 Z" fill="#000000" fill-rule="evenodd" fill-opacity="1" /><path clip-path="url(#clip060)" d="M2473.72 28.5427 L2473.72 35.5912 Q2470.56 33.9709 2467.16 33.1607 Q2463.76 32.3505 2460.11 32.3505 Q2454.56 32.3505 2451.77 34.0519 Q2449.01 35.7533 2449.01 39.156 Q2449.01 41.7486 2451 43.2475 Q2452.98 44.7058 2458.98 46.0426 L2461.53 46.6097 Q2469.47 48.3111 2472.79 51.4303 Q2476.15 54.509 2476.15 60.0587 Q2476.15 66.3781 2471.13 70.0644 Q2466.15 73.7508 2457.4 73.7508 Q2453.75 73.7508 2449.78 73.0216 Q2445.85 72.3329 2441.48 70.9151 L2441.48 63.2184 Q2445.61 65.3654 2449.62 66.4591 Q2453.63 67.5124 2457.56 67.5124 Q2462.83 67.5124 2465.66 65.73 Q2468.5 63.9071 2468.5 60.6258 Q2468.5 57.5877 2466.43 55.9673 Q2464.41 54.3469 2457.48 52.8481 L2454.89 52.2405 Q2447.96 50.7821 2444.88 47.7845 Q2441.8 44.7463 2441.8 39.4801 Q2441.8 33.0797 2446.34 29.5959 Q2450.88 26.1121 2459.22 26.1121 Q2463.35 26.1121 2467 26.7198 Q2470.64 27.3274 2473.72 28.5427 Z" fill="#000000" fill-rule="evenodd" fill-opacity="1" /><path clip-path="url(#clip060)" d="M2505.6 32.4315 Q2499.61 32.4315 2496.12 37.1306 Q2492.64 41.7891 2492.64 49.9314 Q2492.64 58.0738 2496.08 62.7728 Q2499.57 67.4314 2505.6 67.4314 Q2511.56 67.4314 2515.04 62.7323 Q2518.53 58.0333 2518.53 49.9314 Q2518.53 41.8701 2515.04 37.1711 Q2511.56 32.4315 2505.6 32.4315 M2505.6 26.1121 Q2515.33 26.1121 2520.88 32.4315 Q2526.42 38.7509 2526.42 49.9314 Q2526.42 61.0714 2520.88 67.4314 Q2515.33 73.7508 2505.6 73.7508 Q2495.84 73.7508 2490.29 67.4314 Q2484.78 61.0714 2484.78 49.9314 Q2484.78 38.7509 2490.29 32.4315 Q2495.84 26.1121 2505.6 26.1121 Z" fill="#000000" fill-rule="evenodd" fill-opacity="1" /><path clip-path="url(#clip060)" d="M2576.49 45.1919 L2576.49 72.576 L2569.04 72.576 L2569.04 45.4349 Q2569.04 38.994 2566.53 35.7938 Q2564.02 32.5936 2558.99 32.5936 Q2552.96 32.5936 2549.47 36.4419 Q2545.99 40.2903 2545.99 46.9338 L2545.99 72.576 L2538.5 72.576 L2538.5 27.2059 L2545.99 27.2059 L2545.99 34.2544 Q2548.66 30.163 2552.27 28.1376 Q2555.92 26.1121 2560.65 26.1121 Q2568.47 26.1121 2572.48 30.9732 Q2576.49 35.7938 2576.49 45.1919 Z" fill="#000000" fill-rule="evenodd" fill-opacity="1" /><path clip-path="url(#clip060)" d="M2620.28 28.5427 L2620.28 35.5912 Q2617.12 33.9709 2613.72 33.1607 Q2610.32 32.3505 2606.67 32.3505 Q2601.12 32.3505 2598.33 34.0519 Q2595.57 35.7533 2595.57 39.156 Q2595.57 41.7486 2597.56 43.2475 Q2599.54 44.7058 2605.54 46.0426 L2608.09 46.6097 Q2616.03 48.3111 2619.35 51.4303 Q2622.71 54.509 2622.71 60.0587 Q2622.71 66.3781 2617.69 70.0644 Q2612.71 73.7508 2603.96 73.7508 Q2600.31 73.7508 2596.34 73.0216 Q2592.41 72.3329 2588.04 70.9151 L2588.04 63.2184 Q2592.17 65.3654 2596.18 66.4591 Q2600.19 67.5124 2604.12 67.5124 Q2609.39 67.5124 2612.22 65.73 Q2615.06 63.9071 2615.06 60.6258 Q2615.06 57.5877 2612.99 55.9673 Q2610.97 54.3469 2604.04 52.8481 L2601.45 52.2405 Q2594.52 50.7821 2591.44 47.7845 Q2588.36 44.7463 2588.36 39.4801 Q2588.36 33.0797 2592.9 29.5959 Q2597.44 26.1121 2605.78 26.1121 Q2609.91 26.1121 2613.56 26.7198 Q2617.21 27.3274 2620.28 28.5427 Z" fill="#000000" fill-rule="evenodd" fill-opacity="1" /><path clip-path="url(#clip062)" d="
M434.691 671.527 L434.691 2146.22 L973.61 2146.22 L973.61 671.527 L434.691 671.527 L434.691 671.527  Z
  " fill="#009af9" fill-rule="evenodd" fill-opacity="1"/>
<polyline clip-path="url(#clip062)" style="stroke:#000000; stroke-linecap:round; stroke-linejoin:round; stroke-width:4; stroke-opacity:1; fill:none" points="
  434.691,671.527 434.691,2146.22 973.61,2146.22 973.61,671.527 434.691,671.527 
  "/>
<path clip-path="url(#clip062)" d="
M1108.34 189.727 L1108.34 2146.22 L1647.26 2146.22 L1647.26 189.727 L1108.34 189.727 L1108.34 189.727  Z
  " fill="#009af9" fill-rule="evenodd" fill-opacity="1"/>
<polyline clip-path="url(#clip062)" style="stroke:#000000; stroke-linecap:round; stroke-linejoin:round; stroke-width:4; stroke-opacity:1; fill:none" points="
  1108.34,189.727 1108.34,2146.22 1647.26,2146.22 1647.26,189.727 1108.34,189.727 
  "/>
<path clip-path="url(#clip062)" d="
M1781.99 571.088 L1781.99 2146.22 L2320.91 2146.22 L2320.91 571.088 L1781.99 571.088 L1781.99 571.088  Z
  " fill="#009af9" fill-rule="evenodd" fill-opacity="1"/>
<polyline clip-path="url(#clip062)" style="stroke:#000000; stroke-linecap:round; stroke-linejoin:round; stroke-width:4; stroke-opacity:1; fill:none" points="
  1781.99,571.088 1781.99,2146.22 2320.91,2146.22 2320.91,571.088 1781.99,571.088 
  "/>
<path clip-path="url(#clip062)" d="
M2455.64 1048.41 L2455.64 2146.22 L2994.56 2146.22 L2994.56 1048.41 L2455.64 1048.41 L2455.64 1048.41  Z
  " fill="#009af9" fill-rule="evenodd" fill-opacity="1"/>
<polyline clip-path="url(#clip062)" style="stroke:#000000; stroke-linecap:round; stroke-linejoin:round; stroke-width:4; stroke-opacity:1; fill:none" points="
  2455.64,1048.41 2455.64,2146.22 2994.56,2146.22 2994.56,1048.41 2455.64,1048.41 
  "/>
<circle clip-path="url(#clip062)" style="fill:#009af9; stroke:none; fill-opacity:0" cx="704.15" cy="671.527" r="2"/>
<circle clip-path="url(#clip062)" style="fill:#009af9; stroke:none; fill-opacity:0" cx="1377.8" cy="189.727" r="2"/>
<circle clip-path="url(#clip062)" style="fill:#009af9; stroke:none; fill-opacity:0" cx="2051.45" cy="571.088" r="2"/>
<circle clip-path="url(#clip062)" style="fill:#009af9; stroke:none; fill-opacity:0" cx="2725.1" cy="1048.41" r="2"/>
<path clip-path="url(#clip060)" d="
M2392.07 303.842 L3056.88 303.842 L3056.88 200.162 L2392.07 200.162  Z
  " fill="#ffffff" fill-rule="evenodd" fill-opacity="1"/>
<polyline clip-path="url(#clip060)" style="stroke:#000000; stroke-linecap:round; stroke-linejoin:round; stroke-width:4; stroke-opacity:1; fill:none" points="
  2392.07,303.842 3056.88,303.842 3056.88,200.162 2392.07,200.162 2392.07,303.842 
  "/>
<path clip-path="url(#clip060)" d="
M2424.02 272.738 L2615.78 272.738 L2615.78 231.266 L2424.02 231.266 L2424.02 272.738  Z
  " fill="#009af9" fill-rule="evenodd" fill-opacity="1"/>
<polyline clip-path="url(#clip060)" style="stroke:#000000; stroke-linecap:round; stroke-linejoin:round; stroke-width:4; stroke-opacity:1; fill:none" points="
  2424.02,272.738 2615.78,272.738 2615.78,231.266 2424.02,231.266 2424.02,272.738 
  "/>
<path clip-path="url(#clip060)" d="M2666.16 244.12 L2666.16 248.148 Q2664.35 247.222 2662.41 246.759 Q2660.47 246.296 2658.38 246.296 Q2655.21 246.296 2653.61 247.268 Q2652.04 248.24 2652.04 250.185 Q2652.04 251.666 2653.17 252.523 Q2654.31 253.356 2657.73 254.12 L2659.19 254.444 Q2663.73 255.416 2665.63 257.198 Q2667.55 258.958 2667.55 262.129 Q2667.55 265.74 2664.68 267.847 Q2661.83 269.953 2656.83 269.953 Q2654.75 269.953 2652.48 269.536 Q2650.23 269.143 2647.73 268.333 L2647.73 263.935 Q2650.09 265.161 2652.39 265.786 Q2654.68 266.388 2656.92 266.388 Q2659.93 266.388 2661.55 265.37 Q2663.17 264.328 2663.17 262.453 Q2663.17 260.717 2661.99 259.791 Q2660.84 258.865 2656.88 258.009 L2655.4 257.661 Q2651.44 256.828 2649.68 255.115 Q2647.92 253.379 2647.92 250.37 Q2647.92 246.712 2650.51 244.722 Q2653.1 242.731 2657.87 242.731 Q2660.23 242.731 2662.32 243.078 Q2664.4 243.425 2666.16 244.12 Z" fill="#000000" fill-rule="evenodd" fill-opacity="1" /><path clip-path="url(#clip060)" d="M2695.88 253.634 L2695.88 269.282 L2691.62 269.282 L2691.62 253.773 Q2691.62 250.092 2690.19 248.263 Q2688.75 246.435 2685.88 246.435 Q2682.43 246.435 2680.44 248.634 Q2678.45 250.833 2678.45 254.629 L2678.45 269.282 L2674.17 269.282 L2674.17 233.263 L2678.45 233.263 L2678.45 247.384 Q2679.98 245.046 2682.04 243.888 Q2684.12 242.731 2686.83 242.731 Q2691.3 242.731 2693.59 245.509 Q2695.88 248.263 2695.88 253.634 Z" fill="#000000" fill-rule="evenodd" fill-opacity="1" /><path clip-path="url(#clip060)" d="M2716.16 256.249 Q2711 256.249 2709.01 257.43 Q2707.02 258.61 2707.02 261.458 Q2707.02 263.726 2708.5 265.069 Q2710 266.388 2712.57 266.388 Q2716.11 266.388 2718.24 263.888 Q2720.4 261.365 2720.4 257.198 L2720.4 256.249 L2716.16 256.249 M2724.65 254.49 L2724.65 269.282 L2720.4 269.282 L2720.4 265.347 Q2718.94 267.708 2716.76 268.842 Q2714.59 269.953 2711.44 269.953 Q2707.46 269.953 2705.09 267.731 Q2702.76 265.485 2702.76 261.735 Q2702.76 257.36 2705.67 255.138 Q2708.61 252.916 2714.42 252.916 L2720.4 252.916 L2720.4 252.499 Q2720.4 249.56 2718.45 247.962 Q2716.53 246.342 2713.03 246.342 Q2710.81 246.342 2708.71 246.874 Q2706.6 247.407 2704.65 248.472 L2704.65 244.536 Q2706.99 243.634 2709.19 243.194 Q2711.39 242.731 2713.47 242.731 Q2719.1 242.731 2721.88 245.648 Q2724.65 248.564 2724.65 254.49 Z" fill="#000000" fill-rule="evenodd" fill-opacity="1" /><path clip-path="url(#clip060)" d="M2748.45 247.337 Q2747.73 246.921 2746.88 246.736 Q2746.04 246.527 2745.02 246.527 Q2741.41 246.527 2739.47 248.888 Q2737.55 251.226 2737.55 255.624 L2737.55 269.282 L2733.27 269.282 L2733.27 243.356 L2737.55 243.356 L2737.55 247.384 Q2738.89 245.023 2741.04 243.888 Q2743.2 242.731 2746.27 242.731 Q2746.71 242.731 2747.25 242.8 Q2747.78 242.847 2748.43 242.962 L2748.45 247.337 Z" fill="#000000" fill-rule="evenodd" fill-opacity="1" /><path clip-path="url(#clip060)" d="M2752.92 243.356 L2757.18 243.356 L2757.18 269.282 L2752.92 269.282 L2752.92 243.356 M2752.92 233.263 L2757.18 233.263 L2757.18 238.657 L2752.92 238.657 L2752.92 233.263 Z" fill="#000000" fill-rule="evenodd" fill-opacity="1" /><path clip-path="url(#clip060)" d="M2787.64 253.634 L2787.64 269.282 L2783.38 269.282 L2783.38 253.773 Q2783.38 250.092 2781.95 248.263 Q2780.51 246.435 2777.64 246.435 Q2774.19 246.435 2772.2 248.634 Q2770.21 250.833 2770.21 254.629 L2770.21 269.282 L2765.93 269.282 L2765.93 243.356 L2770.21 243.356 L2770.21 247.384 Q2771.74 245.046 2773.8 243.888 Q2775.88 242.731 2778.59 242.731 Q2783.06 242.731 2785.35 245.509 Q2787.64 248.263 2787.64 253.634 Z" fill="#000000" fill-rule="evenodd" fill-opacity="1" /><path clip-path="url(#clip060)" d="M2813.2 256.018 Q2813.2 251.388 2811.27 248.842 Q2809.38 246.296 2805.93 246.296 Q2802.5 246.296 2800.58 248.842 Q2798.68 251.388 2798.68 256.018 Q2798.68 260.624 2800.58 263.171 Q2802.5 265.717 2805.93 265.717 Q2809.38 265.717 2811.27 263.171 Q2813.2 260.624 2813.2 256.018 M2817.46 266.064 Q2817.46 272.684 2814.52 275.902 Q2811.58 279.143 2805.51 279.143 Q2803.27 279.143 2801.27 278.796 Q2799.28 278.471 2797.41 277.777 L2797.41 273.634 Q2799.28 274.652 2801.11 275.138 Q2802.94 275.624 2804.84 275.624 Q2809.03 275.624 2811.11 273.425 Q2813.2 271.249 2813.2 266.828 L2813.2 264.722 Q2811.88 267.013 2809.82 268.147 Q2807.76 269.282 2804.89 269.282 Q2800.12 269.282 2797.2 265.647 Q2794.28 262.013 2794.28 256.018 Q2794.28 249.999 2797.2 246.365 Q2800.12 242.731 2804.89 242.731 Q2807.76 242.731 2809.82 243.865 Q2811.88 244.999 2813.2 247.291 L2813.2 243.356 L2817.46 243.356 L2817.46 266.064 Z" fill="#000000" fill-rule="evenodd" fill-opacity="1" /><path clip-path="url(#clip060)" d="M2859.95 244.351 L2859.95 248.333 Q2858.15 247.337 2856.32 246.851 Q2854.52 246.342 2852.66 246.342 Q2848.52 246.342 2846.23 248.981 Q2843.94 251.597 2843.94 256.342 Q2843.94 261.087 2846.23 263.726 Q2848.52 266.342 2852.66 266.342 Q2854.52 266.342 2856.32 265.856 Q2858.15 265.347 2859.95 264.351 L2859.95 268.286 Q2858.17 269.12 2856.25 269.536 Q2854.35 269.953 2852.2 269.953 Q2846.34 269.953 2842.89 266.272 Q2839.45 262.592 2839.45 256.342 Q2839.45 249.999 2842.92 246.365 Q2846.41 242.731 2852.48 242.731 Q2854.45 242.731 2856.32 243.148 Q2858.2 243.541 2859.95 244.351 Z" fill="#000000" fill-rule="evenodd" fill-opacity="1" /><path clip-path="url(#clip060)" d="M2877.41 246.342 Q2873.98 246.342 2871.99 249.027 Q2870 251.689 2870 256.342 Q2870 260.995 2871.97 263.68 Q2873.96 266.342 2877.41 266.342 Q2880.81 266.342 2882.8 263.657 Q2884.79 260.972 2884.79 256.342 Q2884.79 251.736 2882.8 249.05 Q2880.81 246.342 2877.41 246.342 M2877.41 242.731 Q2882.96 242.731 2886.14 246.342 Q2889.31 249.953 2889.31 256.342 Q2889.31 262.708 2886.14 266.342 Q2882.96 269.953 2877.41 269.953 Q2871.83 269.953 2868.66 266.342 Q2865.51 262.708 2865.51 256.342 Q2865.51 249.953 2868.66 246.342 Q2871.83 242.731 2877.41 242.731 Z" fill="#000000" fill-rule="evenodd" fill-opacity="1" /><path clip-path="url(#clip060)" d="M2895.93 259.05 L2895.93 243.356 L2900.19 243.356 L2900.19 258.888 Q2900.19 262.569 2901.62 264.421 Q2903.06 266.249 2905.93 266.249 Q2909.38 266.249 2911.37 264.05 Q2913.38 261.851 2913.38 258.055 L2913.38 243.356 L2917.64 243.356 L2917.64 269.282 L2913.38 269.282 L2913.38 265.3 Q2911.83 267.661 2909.77 268.819 Q2907.73 269.953 2905.02 269.953 Q2900.56 269.953 2898.24 267.175 Q2895.93 264.397 2895.93 259.05 M2906.64 242.731 L2906.64 242.731 Z" fill="#000000" fill-rule="evenodd" fill-opacity="1" /><path clip-path="url(#clip060)" d="M2947.96 253.634 L2947.96 269.282 L2943.7 269.282 L2943.7 253.773 Q2943.7 250.092 2942.27 248.263 Q2940.83 246.435 2937.96 246.435 Q2934.51 246.435 2932.52 248.634 Q2930.53 250.833 2930.53 254.629 L2930.53 269.282 L2926.25 269.282 L2926.25 243.356 L2930.53 243.356 L2930.53 247.384 Q2932.06 245.046 2934.12 243.888 Q2936.2 242.731 2938.91 242.731 Q2943.38 242.731 2945.67 245.509 Q2947.96 248.263 2947.96 253.634 Z" fill="#000000" fill-rule="evenodd" fill-opacity="1" /><path clip-path="url(#clip060)" d="M2960.67 235.995 L2960.67 243.356 L2969.45 243.356 L2969.45 246.666 L2960.67 246.666 L2960.67 260.74 Q2960.67 263.911 2961.53 264.814 Q2962.41 265.717 2965.07 265.717 L2969.45 265.717 L2969.45 269.282 L2965.07 269.282 Q2960.14 269.282 2958.26 267.453 Q2956.39 265.601 2956.39 260.74 L2956.39 246.666 L2953.26 246.666 L2953.26 243.356 L2956.39 243.356 L2956.39 235.995 L2960.67 235.995 Z" fill="#000000" fill-rule="evenodd" fill-opacity="1" /><path clip-path="url(#clip060)" d="M2991.57 244.12 L2991.57 248.148 Q2989.77 247.222 2987.82 246.759 Q2985.88 246.296 2983.8 246.296 Q2980.63 246.296 2979.03 247.268 Q2977.45 248.24 2977.45 250.185 Q2977.45 251.666 2978.59 252.523 Q2979.72 253.356 2983.15 254.12 L2984.61 254.444 Q2989.14 255.416 2991.04 257.198 Q2992.96 258.958 2992.96 262.129 Q2992.96 265.74 2990.09 267.847 Q2987.25 269.953 2982.25 269.953 Q2980.16 269.953 2977.89 269.536 Q2975.65 269.143 2973.15 268.333 L2973.15 263.935 Q2975.51 265.161 2977.8 265.786 Q2980.09 266.388 2982.34 266.388 Q2985.35 266.388 2986.97 265.37 Q2988.59 264.328 2988.59 262.453 Q2988.59 260.717 2987.41 259.791 Q2986.25 258.865 2982.29 258.009 L2980.81 257.661 Q2976.85 256.828 2975.09 255.115 Q2973.33 253.379 2973.33 250.37 Q2973.33 246.712 2975.93 244.722 Q2978.52 242.731 2983.29 242.731 Q2985.65 242.731 2987.73 243.078 Q2989.82 243.425 2991.57 244.12 Z" fill="#000000" fill-rule="evenodd" fill-opacity="1" /></svg>
