<?xml version="1.0" encoding="utf-8"?>
<svg xmlns="http://www.w3.org/2000/svg" xmlns:xlink="http://www.w3.org/1999/xlink" width="600" height="400" viewBox="0 0 2400 1600">
<defs>
  <clipPath id="clip540">
    <rect x="0" y="0" width="2400" height="1600"/>
  </clipPath>
</defs>
<path clip-path="url(#clip540)" d="
M0 1600 L2400 1600 L2400 0 L0 0  Z
  " fill="#ffffff" fill-rule="evenodd" fill-opacity="1"/>
<defs>
  <clipPath id="clip541">
    <rect x="480" y="0" width="1681" height="1600"/>
  </clipPath>
</defs>
<path clip-path="url(#clip540)" d="
M170.857 1486.45 L1152.76 1486.45 L1152.76 47.2441 L170.857 47.2441  Z
  " fill="#ffffff" fill-rule="evenodd" fill-opacity="1"/>
<defs>
  <clipPath id="clip542">
    <rect x="170" y="47" width="983" height="1440"/>
  </clipPath>
</defs>
<polyline clip-path="url(#clip542)" style="stroke:#000000; stroke-linecap:round; stroke-linejoin:round; stroke-width:2; stroke-opacity:0.1; fill:none" points="
  276.269,1486.45 276.269,47.2441 
  "/>
<polyline clip-path="url(#clip542)" style="stroke:#000000; stroke-linecap:round; stroke-linejoin:round; stroke-width:2; stroke-opacity:0.1; fill:none" points="
  404.781,1486.45 404.781,47.2441 
  "/>
<polyline clip-path="url(#clip542)" style="stroke:#000000; stroke-linecap:round; stroke-linejoin:round; stroke-width:2; stroke-opacity:0.1; fill:none" points="
  533.294,1486.45 533.294,47.2441 
  "/>
<polyline clip-path="url(#clip542)" style="stroke:#000000; stroke-linecap:round; stroke-linejoin:round; stroke-width:2; stroke-opacity:0.1; fill:none" points="
  661.807,1486.45 661.807,47.2441 
  "/>
<polyline clip-path="url(#clip542)" style="stroke:#000000; stroke-linecap:round; stroke-linejoin:round; stroke-width:2; stroke-opacity:0.1; fill:none" points="
  790.319,1486.45 790.319,47.2441 
  "/>
<polyline clip-path="url(#clip542)" style="stroke:#000000; stroke-linecap:round; stroke-linejoin:round; stroke-width:2; stroke-opacity:0.1; fill:none" points="
  918.832,1486.45 918.832,47.2441 
  "/>
<polyline clip-path="url(#clip542)" style="stroke:#000000; stroke-linecap:round; stroke-linejoin:round; stroke-width:2; stroke-opacity:0.1; fill:none" points="
  1047.34,1486.45 1047.34,47.2441 
  "/>
<polyline clip-path="url(#clip540)" style="stroke:#000000; stroke-linecap:round; stroke-linejoin:round; stroke-width:4; stroke-opacity:1; fill:none" points="
  170.857,1486.45 1152.76,1486.45 
  "/>
<polyline clip-path="url(#clip540)" style="stroke:#000000; stroke-linecap:round; stroke-linejoin:round; stroke-width:4; stroke-opacity:1; fill:none" points="
  276.269,1486.45 276.269,1467.55 
  "/>
<polyline clip-path="url(#clip540)" style="stroke:#000000; stroke-linecap:round; stroke-linejoin:round; stroke-width:4; stroke-opacity:1; fill:none" points="
  404.781,1486.45 404.781,1467.55 
  "/>
<polyline clip-path="url(#clip540)" style="stroke:#000000; stroke-linecap:round; stroke-linejoin:round; stroke-width:4; stroke-opacity:1; fill:none" points="
  533.294,1486.45 533.294,1467.55 
  "/>
<polyline clip-path="url(#clip540)" style="stroke:#000000; stroke-linecap:round; stroke-linejoin:round; stroke-width:4; stroke-opacity:1; fill:none" points="
  661.807,1486.45 661.807,1467.55 
  "/>
<polyline clip-path="url(#clip540)" style="stroke:#000000; stroke-linecap:round; stroke-linejoin:round; stroke-width:4; stroke-opacity:1; fill:none" points="
  790.319,1486.45 790.319,1467.55 
  "/>
<polyline clip-path="url(#clip540)" style="stroke:#000000; stroke-linecap:round; stroke-linejoin:round; stroke-width:4; stroke-opacity:1; fill:none" points="
  918.832,1486.45 918.832,1467.55 
  "/>
<polyline clip-path="url(#clip540)" style="stroke:#000000; stroke-linecap:round; stroke-linejoin:round; stroke-width:4; stroke-opacity:1; fill:none" points="
  1047.34,1486.45 1047.34,1467.55 
  "/>
<path clip-path="url(#clip540)" d="M260.459 1514.29 L267.426 1514.29 L276.246 1537.81 L285.111 1514.29 L292.079 1514.29 L292.079 1548.85 L287.519 1548.85 L287.519 1518.5 L278.607 1542.2 L273.908 1542.2 L264.996 1518.5 L264.996 1548.85 L260.459 1548.85 L260.459 1514.29 Z" fill="#000000" fill-rule="evenodd" fill-opacity="1" /><path clip-path="url(#clip540)" d="M390.163 1514.29 L419.399 1514.29 L419.399 1518.22 L407.131 1518.22 L407.131 1548.85 L402.432 1548.85 L402.432 1518.22 L390.163 1518.22 L390.163 1514.29 Z" fill="#000000" fill-rule="evenodd" fill-opacity="1" /><path clip-path="url(#clip540)" d="M511.419 1514.29 L516.141 1514.29 L523.41 1543.5 L530.655 1514.29 L535.91 1514.29 L543.178 1543.5 L550.424 1514.29 L555.169 1514.29 L546.488 1548.85 L540.609 1548.85 L533.317 1518.85 L525.956 1548.85 L520.076 1548.85 L511.419 1514.29 Z" fill="#000000" fill-rule="evenodd" fill-opacity="1" /><path clip-path="url(#clip540)" d="M631.471 1514.29 L660.707 1514.29 L660.707 1518.22 L648.439 1518.22 L648.439 1548.85 L643.74 1548.85 L643.74 1518.22 L631.471 1518.22 L631.471 1514.29 Z" fill="#000000" fill-rule="evenodd" fill-opacity="1" /><path clip-path="url(#clip540)" d="M681.61 1532.64 Q683.114 1533.15 684.526 1534.82 Q685.962 1536.49 687.397 1539.4 L692.142 1548.85 L687.119 1548.85 L682.698 1539.98 Q680.985 1536.51 679.364 1535.38 Q677.767 1534.24 674.989 1534.24 L669.897 1534.24 L669.897 1548.85 L665.221 1548.85 L665.221 1514.29 L675.776 1514.29 Q681.702 1514.29 684.619 1516.76 Q687.536 1519.24 687.536 1524.24 Q687.536 1527.51 686.008 1529.66 Q684.503 1531.81 681.61 1532.64 M669.897 1518.13 L669.897 1530.4 L675.776 1530.4 Q679.156 1530.4 680.869 1528.85 Q682.605 1527.27 682.605 1524.24 Q682.605 1521.21 680.869 1519.68 Q679.156 1518.13 675.776 1518.13 L669.897 1518.13 Z" fill="#000000" fill-rule="evenodd" fill-opacity="1" /><path clip-path="url(#clip540)" d="M780.389 1514.29 L800.25 1514.29 L800.25 1518.22 L785.065 1518.22 L785.065 1528.41 L798.768 1528.41 L798.768 1532.34 L785.065 1532.34 L785.065 1548.85 L780.389 1548.85 L780.389 1514.29 Z" fill="#000000" fill-rule="evenodd" fill-opacity="1" /><path clip-path="url(#clip540)" d="M904.341 1515.42 L904.341 1519.98 Q901.679 1518.71 899.318 1518.08 Q896.957 1517.46 894.758 1517.46 Q890.939 1517.46 888.855 1518.94 Q886.795 1520.42 886.795 1523.15 Q886.795 1525.45 888.161 1526.63 Q889.55 1527.78 893.392 1528.5 L896.216 1529.08 Q901.448 1530.07 903.925 1532.6 Q906.425 1535.1 906.425 1539.31 Q906.425 1544.33 903.045 1546.93 Q899.689 1549.52 893.184 1549.52 Q890.73 1549.52 887.953 1548.96 Q885.198 1548.41 882.235 1547.32 L882.235 1542.51 Q885.082 1544.1 887.814 1544.91 Q890.545 1545.72 893.184 1545.72 Q897.189 1545.72 899.365 1544.15 Q901.54 1542.57 901.54 1539.66 Q901.54 1537.11 899.966 1535.68 Q898.415 1534.24 894.851 1533.52 L892.003 1532.97 Q886.772 1531.93 884.434 1529.7 Q882.096 1527.48 882.096 1523.52 Q882.096 1518.94 885.314 1516.3 Q888.554 1513.66 894.226 1513.66 Q896.656 1513.66 899.179 1514.1 Q901.702 1514.54 904.341 1515.42 Z" fill="#000000" fill-rule="evenodd" fill-opacity="1" /><path clip-path="url(#clip540)" d="M925.313 1535.82 Q920.151 1535.82 918.161 1537 Q916.17 1538.18 916.17 1541.02 Q916.17 1543.29 917.651 1544.63 Q919.156 1545.95 921.726 1545.95 Q925.267 1545.95 927.397 1543.45 Q929.55 1540.93 929.55 1536.76 L929.55 1535.82 L925.313 1535.82 M933.809 1534.06 L933.809 1548.85 L929.55 1548.85 L929.55 1544.91 Q928.091 1547.27 925.915 1548.41 Q923.739 1549.52 920.591 1549.52 Q916.61 1549.52 914.249 1547.3 Q911.911 1545.05 911.911 1541.3 Q911.911 1536.93 914.827 1534.7 Q917.767 1532.48 923.577 1532.48 L929.55 1532.48 L929.55 1532.07 Q929.55 1529.13 927.605 1527.53 Q925.684 1525.91 922.188 1525.91 Q919.966 1525.91 917.86 1526.44 Q915.753 1526.97 913.809 1528.04 L913.809 1524.1 Q916.147 1523.2 918.346 1522.76 Q920.545 1522.3 922.628 1522.3 Q928.253 1522.3 931.031 1525.21 Q933.809 1528.13 933.809 1534.06 Z" fill="#000000" fill-rule="evenodd" fill-opacity="1" /><path clip-path="url(#clip540)" d="M946.795 1515.56 L946.795 1522.92 L955.568 1522.92 L955.568 1526.23 L946.795 1526.23 L946.795 1540.31 Q946.795 1543.48 947.651 1544.38 Q948.531 1545.28 951.193 1545.28 L955.568 1545.28 L955.568 1548.85 L951.193 1548.85 Q946.262 1548.85 944.387 1547.02 Q942.512 1545.17 942.512 1540.31 L942.512 1526.23 L939.387 1526.23 L939.387 1522.92 L942.512 1522.92 L942.512 1515.56 L946.795 1515.56 Z" fill="#000000" fill-rule="evenodd" fill-opacity="1" /><path clip-path="url(#clip540)" d="M1028.07 1515.42 L1028.07 1519.98 Q1025.41 1518.71 1023.05 1518.08 Q1020.69 1517.46 1018.49 1517.46 Q1014.67 1517.46 1012.59 1518.94 Q1010.53 1520.42 1010.53 1523.15 Q1010.53 1525.45 1011.89 1526.63 Q1013.28 1527.78 1017.12 1528.5 L1019.95 1529.08 Q1025.18 1530.07 1027.66 1532.6 Q1030.16 1535.1 1030.16 1539.31 Q1030.16 1544.33 1026.78 1546.93 Q1023.42 1549.52 1016.92 1549.52 Q1014.46 1549.52 1011.69 1548.96 Q1008.93 1548.41 1005.97 1547.32 L1005.97 1542.51 Q1008.81 1544.1 1011.55 1544.91 Q1014.28 1545.72 1016.92 1545.72 Q1020.92 1545.72 1023.1 1544.15 Q1025.27 1542.57 1025.27 1539.66 Q1025.27 1537.11 1023.7 1535.68 Q1022.15 1534.24 1018.58 1533.52 L1015.74 1532.97 Q1010.5 1531.93 1008.17 1529.7 Q1005.83 1527.48 1005.83 1523.52 Q1005.83 1518.94 1009.05 1516.3 Q1012.29 1513.66 1017.96 1513.66 Q1020.39 1513.66 1022.91 1514.1 Q1025.44 1514.54 1028.07 1515.42 Z" fill="#000000" fill-rule="evenodd" fill-opacity="1" /><path clip-path="url(#clip540)" d="M1036.82 1538.62 L1036.82 1522.92 L1041.08 1522.92 L1041.08 1538.45 Q1041.08 1542.13 1042.52 1543.99 Q1043.95 1545.82 1046.82 1545.82 Q1050.27 1545.82 1052.26 1543.62 Q1054.28 1541.42 1054.28 1537.62 L1054.28 1522.92 L1058.54 1522.92 L1058.54 1548.85 L1054.28 1548.85 L1054.28 1544.87 Q1052.73 1547.23 1050.67 1548.38 Q1048.63 1549.52 1045.92 1549.52 Q1041.45 1549.52 1039.14 1546.74 Q1036.82 1543.96 1036.82 1538.62 M1047.54 1522.3 L1047.54 1522.3 Z" fill="#000000" fill-rule="evenodd" fill-opacity="1" /><path clip-path="url(#clip540)" d="M1088.86 1533.2 L1088.86 1548.85 L1084.6 1548.85 L1084.6 1533.34 Q1084.6 1529.66 1083.17 1527.83 Q1081.73 1526 1078.86 1526 Q1075.41 1526 1073.42 1528.2 Q1071.43 1530.4 1071.43 1534.2 L1071.43 1548.85 L1067.15 1548.85 L1067.15 1522.92 L1071.43 1522.92 L1071.43 1526.95 Q1072.96 1524.61 1075.02 1523.45 Q1077.1 1522.3 1079.81 1522.3 Q1084.28 1522.3 1086.57 1525.07 Q1088.86 1527.83 1088.86 1533.2 Z" fill="#000000" fill-rule="evenodd" fill-opacity="1" /><polyline clip-path="url(#clip542)" style="stroke:#000000; stroke-linecap:round; stroke-linejoin:round; stroke-width:2; stroke-opacity:0.1; fill:none" points="
  170.857,1445.72 1152.76,1445.72 
  "/>
<polyline clip-path="url(#clip542)" style="stroke:#000000; stroke-linecap:round; stroke-linejoin:round; stroke-width:2; stroke-opacity:0.1; fill:none" points="
  170.857,1139.92 1152.76,1139.92 
  "/>
<polyline clip-path="url(#clip542)" style="stroke:#000000; stroke-linecap:round; stroke-linejoin:round; stroke-width:2; stroke-opacity:0.1; fill:none" points="
  170.857,834.121 1152.76,834.121 
  "/>
<polyline clip-path="url(#clip542)" style="stroke:#000000; stroke-linecap:round; stroke-linejoin:round; stroke-width:2; stroke-opacity:0.1; fill:none" points="
  170.857,528.324 1152.76,528.324 
  "/>
<polyline clip-path="url(#clip542)" style="stroke:#000000; stroke-linecap:round; stroke-linejoin:round; stroke-width:2; stroke-opacity:0.1; fill:none" points="
  170.857,222.527 1152.76,222.527 
  "/>
<polyline clip-path="url(#clip540)" style="stroke:#000000; stroke-linecap:round; stroke-linejoin:round; stroke-width:4; stroke-opacity:1; fill:none" points="
  170.857,1486.45 170.857,47.2441 
  "/>
<polyline clip-path="url(#clip540)" style="stroke:#000000; stroke-linecap:round; stroke-linejoin:round; stroke-width:4; stroke-opacity:1; fill:none" points="
  170.857,1445.72 189.755,1445.72 
  "/>
<polyline clip-path="url(#clip540)" style="stroke:#000000; stroke-linecap:round; stroke-linejoin:round; stroke-width:4; stroke-opacity:1; fill:none" points="
  170.857,1139.92 189.755,1139.92 
  "/>
<polyline clip-path="url(#clip540)" style="stroke:#000000; stroke-linecap:round; stroke-linejoin:round; stroke-width:4; stroke-opacity:1; fill:none" points="
  170.857,834.121 189.755,834.121 
  "/>
<polyline clip-path="url(#clip540)" style="stroke:#000000; stroke-linecap:round; stroke-linejoin:round; stroke-width:4; stroke-opacity:1; fill:none" points="
  170.857,528.324 189.755,528.324 
  "/>
<polyline clip-path="url(#clip540)" style="stroke:#000000; stroke-linecap:round; stroke-linejoin:round; stroke-width:4; stroke-opacity:1; fill:none" points="
  170.857,222.527 189.755,222.527 
  "/>
<path clip-path="url(#clip540)" d="M122.913 1431.51 Q119.302 1431.51 117.473 1435.08 Q115.668 1438.62 115.668 1445.75 Q115.668 1452.86 117.473 1456.42 Q119.302 1459.96 122.913 1459.96 Q126.547 1459.96 128.353 1456.42 Q130.182 1452.86 130.182 1445.75 Q130.182 1438.62 128.353 1435.08 Q126.547 1431.51 122.913 1431.51 M122.913 1427.81 Q128.723 1427.81 131.779 1432.42 Q134.857 1437 134.857 1445.75 Q134.857 1454.48 131.779 1459.08 Q128.723 1463.67 122.913 1463.67 Q117.103 1463.67 114.024 1459.08 Q110.969 1454.48 110.969 1445.75 Q110.969 1437 114.024 1432.42 Q117.103 1427.81 122.913 1427.81 Z" fill="#000000" fill-rule="evenodd" fill-opacity="1" /><path clip-path="url(#clip540)" d="M82.7975 1122.64 L101.154 1122.64 L101.154 1126.57 L87.0799 1126.57 L87.0799 1135.05 Q88.0984 1134.7 89.1169 1134.54 Q90.1354 1134.35 91.1539 1134.35 Q96.941 1134.35 100.321 1137.52 Q103.7 1140.69 103.7 1146.11 Q103.7 1151.69 100.228 1154.79 Q96.7558 1157.87 90.4364 1157.87 Q88.2604 1157.87 85.9919 1157.5 Q83.7466 1157.13 81.3392 1156.39 L81.3392 1151.69 Q83.4225 1152.82 85.6447 1153.38 Q87.8669 1153.93 90.3438 1153.93 Q94.3484 1153.93 96.6863 1151.83 Q99.0243 1149.72 99.0243 1146.11 Q99.0243 1142.5 96.6863 1140.39 Q94.3484 1138.29 90.3438 1138.29 Q88.4688 1138.29 86.5938 1138.7 Q84.7419 1139.12 82.7975 1140 L82.7975 1122.64 Z" fill="#000000" fill-rule="evenodd" fill-opacity="1" /><path clip-path="url(#clip540)" d="M122.913 1125.72 Q119.302 1125.72 117.473 1129.28 Q115.668 1132.82 115.668 1139.95 Q115.668 1147.06 117.473 1150.62 Q119.302 1154.17 122.913 1154.17 Q126.547 1154.17 128.353 1150.62 Q130.182 1147.06 130.182 1139.95 Q130.182 1132.82 128.353 1129.28 Q126.547 1125.72 122.913 1125.72 M122.913 1122.01 Q128.723 1122.01 131.779 1126.62 Q134.857 1131.2 134.857 1139.95 Q134.857 1148.68 131.779 1153.29 Q128.723 1157.87 122.913 1157.87 Q117.103 1157.87 114.024 1153.29 Q110.969 1148.68 110.969 1139.95 Q110.969 1131.2 114.024 1126.62 Q117.103 1122.01 122.913 1122.01 Z" fill="#000000" fill-rule="evenodd" fill-opacity="1" /><path clip-path="url(#clip540)" d="M53.3995 847.466 L61.0384 847.466 L61.0384 821.101 L52.7282 822.767 L52.7282 818.508 L60.9921 816.841 L65.668 816.841 L65.668 847.466 L73.3068 847.466 L73.3068 851.401 L53.3995 851.401 L53.3995 847.466 Z" fill="#000000" fill-rule="evenodd" fill-opacity="1" /><path clip-path="url(#clip540)" d="M92.7512 819.92 Q89.1401 819.92 87.3114 823.485 Q85.5058 827.026 85.5058 834.156 Q85.5058 841.263 87.3114 844.827 Q89.1401 848.369 92.7512 848.369 Q96.3854 848.369 98.1909 844.827 Q100.02 841.263 100.02 834.156 Q100.02 827.026 98.1909 823.485 Q96.3854 819.92 92.7512 819.92 M92.7512 816.216 Q98.5613 816.216 101.617 820.823 Q104.696 825.406 104.696 834.156 Q104.696 842.883 101.617 847.489 Q98.5613 852.073 92.7512 852.073 Q86.941 852.073 83.8623 847.489 Q80.8068 842.883 80.8068 834.156 Q80.8068 825.406 83.8623 820.823 Q86.941 816.216 92.7512 816.216 Z" fill="#000000" fill-rule="evenodd" fill-opacity="1" /><path clip-path="url(#clip540)" d="M122.913 819.92 Q119.302 819.92 117.473 823.485 Q115.668 827.026 115.668 834.156 Q115.668 841.263 117.473 844.827 Q119.302 848.369 122.913 848.369 Q126.547 848.369 128.353 844.827 Q130.182 841.263 130.182 834.156 Q130.182 827.026 128.353 823.485 Q126.547 819.92 122.913 819.92 M122.913 816.216 Q128.723 816.216 131.779 820.823 Q134.857 825.406 134.857 834.156 Q134.857 842.883 131.779 847.489 Q128.723 852.073 122.913 852.073 Q117.103 852.073 114.024 847.489 Q110.969 842.883 110.969 834.156 Q110.969 825.406 114.024 820.823 Q117.103 816.216 122.913 816.216 Z" fill="#000000" fill-rule="evenodd" fill-opacity="1" /><path clip-path="url(#clip540)" d="M53.3995 541.669 L61.0384 541.669 L61.0384 515.303 L52.7282 516.97 L52.7282 512.711 L60.9921 511.044 L65.668 511.044 L65.668 541.669 L73.3068 541.669 L73.3068 545.604 L53.3995 545.604 L53.3995 541.669 Z" fill="#000000" fill-rule="evenodd" fill-opacity="1" /><path clip-path="url(#clip540)" d="M82.7975 511.044 L101.154 511.044 L101.154 514.979 L87.0799 514.979 L87.0799 523.452 Q88.0984 523.104 89.1169 522.942 Q90.1354 522.757 91.1539 522.757 Q96.941 522.757 100.321 525.928 Q103.7 529.1 103.7 534.516 Q103.7 540.095 100.228 543.197 Q96.7558 546.275 90.4364 546.275 Q88.2604 546.275 85.9919 545.905 Q83.7466 545.535 81.3392 544.794 L81.3392 540.095 Q83.4225 541.229 85.6447 541.785 Q87.8669 542.34 90.3438 542.34 Q94.3484 542.34 96.6863 540.234 Q99.0243 538.127 99.0243 534.516 Q99.0243 530.905 96.6863 528.799 Q94.3484 526.692 90.3438 526.692 Q88.4688 526.692 86.5938 527.109 Q84.7419 527.526 82.7975 528.405 L82.7975 511.044 Z" fill="#000000" fill-rule="evenodd" fill-opacity="1" /><path clip-path="url(#clip540)" d="M122.913 514.123 Q119.302 514.123 117.473 517.688 Q115.668 521.229 115.668 528.359 Q115.668 535.465 117.473 539.03 Q119.302 542.572 122.913 542.572 Q126.547 542.572 128.353 539.03 Q130.182 535.465 130.182 528.359 Q130.182 521.229 128.353 517.688 Q126.547 514.123 122.913 514.123 M122.913 510.419 Q128.723 510.419 131.779 515.026 Q134.857 519.609 134.857 528.359 Q134.857 537.086 131.779 541.692 Q128.723 546.275 122.913 546.275 Q117.103 546.275 114.024 541.692 Q110.969 537.086 110.969 528.359 Q110.969 519.609 114.024 515.026 Q117.103 510.419 122.913 510.419 Z" fill="#000000" fill-rule="evenodd" fill-opacity="1" /><path clip-path="url(#clip540)" d="M56.6171 235.872 L72.9365 235.872 L72.9365 239.807 L50.9921 239.807 L50.9921 235.872 Q53.6541 233.117 58.2375 228.488 Q62.8439 223.835 64.0245 222.492 Q66.2698 219.969 67.1494 218.233 Q68.0522 216.474 68.0522 214.784 Q68.0522 212.029 66.1078 210.293 Q64.1865 208.557 61.0847 208.557 Q58.8856 208.557 56.4319 209.321 Q54.0014 210.085 51.2236 211.636 L51.2236 206.914 Q54.0477 205.779 56.5014 205.201 Q58.955 204.622 60.9921 204.622 Q66.3624 204.622 69.5568 207.307 Q72.7513 209.992 72.7513 214.483 Q72.7513 216.613 71.9411 218.534 Q71.1541 220.432 69.0476 223.025 Q68.4689 223.696 65.367 226.914 Q62.2652 230.108 56.6171 235.872 Z" fill="#000000" fill-rule="evenodd" fill-opacity="1" /><path clip-path="url(#clip540)" d="M92.7512 208.326 Q89.1401 208.326 87.3114 211.891 Q85.5058 215.432 85.5058 222.562 Q85.5058 229.668 87.3114 233.233 Q89.1401 236.775 92.7512 236.775 Q96.3854 236.775 98.1909 233.233 Q100.02 229.668 100.02 222.562 Q100.02 215.432 98.1909 211.891 Q96.3854 208.326 92.7512 208.326 M92.7512 204.622 Q98.5613 204.622 101.617 209.228 Q104.696 213.812 104.696 222.562 Q104.696 231.289 101.617 235.895 Q98.5613 240.478 92.7512 240.478 Q86.941 240.478 83.8623 235.895 Q80.8068 231.289 80.8068 222.562 Q80.8068 213.812 83.8623 209.228 Q86.941 204.622 92.7512 204.622 Z" fill="#000000" fill-rule="evenodd" fill-opacity="1" /><path clip-path="url(#clip540)" d="M122.913 208.326 Q119.302 208.326 117.473 211.891 Q115.668 215.432 115.668 222.562 Q115.668 229.668 117.473 233.233 Q119.302 236.775 122.913 236.775 Q126.547 236.775 128.353 233.233 Q130.182 229.668 130.182 222.562 Q130.182 215.432 128.353 211.891 Q126.547 208.326 122.913 208.326 M122.913 204.622 Q128.723 204.622 131.779 209.228 Q134.857 213.812 134.857 222.562 Q134.857 231.289 131.779 235.895 Q128.723 240.478 122.913 240.478 Q117.103 240.478 114.024 235.895 Q110.969 231.289 110.969 222.562 Q110.969 213.812 114.024 209.228 Q117.103 204.622 122.913 204.622 Z" fill="#000000" fill-rule="evenodd" fill-opacity="1" /><path clip-path="url(#clip542)" d="
M224.864 571.136 L224.864 1445.72 L327.674 1445.72 L327.674 571.136 L224.864 571.136 L224.864 571.136  Z
  " fill="#009af9" fill-rule="evenodd" fill-opacity="1"/>
<polyline clip-path="url(#clip542)" style="stroke:#000000; stroke-linecap:round; stroke-linejoin:round; stroke-width:4; stroke-opacity:1; fill:none" points="
  224.864,571.136 224.864,1445.72 327.674,1445.72 327.674,571.136 224.864,571.136 
  "/>
<path clip-path="url(#clip542)" d="
M353.376 938.092 L353.376 1445.72 L456.186 1445.72 L456.186 938.092 L353.376 938.092 L353.376 938.092  Z
  " fill="#009af9" fill-rule="evenodd" fill-opacity="1"/>
<polyline clip-path="url(#clip542)" style="stroke:#000000; stroke-linecap:round; stroke-linejoin:round; stroke-width:4; stroke-opacity:1; fill:none" points="
  353.376,938.092 353.376,1445.72 456.186,1445.72 456.186,938.092 353.376,938.092 
  "/>
<path clip-path="url(#clip542)" d="
M481.889 1323.4 L481.889 1445.72 L584.699 1445.72 L584.699 1323.4 L481.889 1323.4 L481.889 1323.4  Z
  " fill="#009af9" fill-rule="evenodd" fill-opacity="1"/>
<polyline clip-path="url(#clip542)" style="stroke:#000000; stroke-linecap:round; stroke-linejoin:round; stroke-width:4; stroke-opacity:1; fill:none" points="
  481.889,1323.4 481.889,1445.72 584.699,1445.72 584.699,1323.4 481.889,1323.4 
  "/>
<path clip-path="url(#clip542)" d="
M610.402 1256.12 L610.402 1445.72 L713.212 1445.72 L713.212 1256.12 L610.402 1256.12 L610.402 1256.12  Z
  " fill="#009af9" fill-rule="evenodd" fill-opacity="1"/>
<polyline clip-path="url(#clip542)" style="stroke:#000000; stroke-linecap:round; stroke-linejoin:round; stroke-width:4; stroke-opacity:1; fill:none" points="
  610.402,1256.12 610.402,1445.72 713.212,1445.72 713.212,1256.12 610.402,1256.12 
  "/>
<path clip-path="url(#clip542)" d="
M738.914 803.542 L738.914 1445.72 L841.724 1445.72 L841.724 803.542 L738.914 803.542 L738.914 803.542  Z
  " fill="#009af9" fill-rule="evenodd" fill-opacity="1"/>
<polyline clip-path="url(#clip542)" style="stroke:#000000; stroke-linecap:round; stroke-linejoin:round; stroke-width:4; stroke-opacity:1; fill:none" points="
  738.914,803.542 738.914,1445.72 841.724,1445.72 841.724,803.542 738.914,803.542 
  "/>
<path clip-path="url(#clip542)" d="
M867.427 638.411 L867.427 1445.72 L970.237 1445.72 L970.237 638.411 L867.427 638.411 L867.427 638.411  Z
  " fill="#009af9" fill-rule="evenodd" fill-opacity="1"/>
<polyline clip-path="url(#clip542)" style="stroke:#000000; stroke-linecap:round; stroke-linejoin:round; stroke-width:4; stroke-opacity:1; fill:none" points="
  867.427,638.411 867.427,1445.72 970.237,1445.72 970.237,638.411 867.427,638.411 
  "/>
<path clip-path="url(#clip542)" d="
M995.94 87.9763 L995.94 1445.72 L1098.75 1445.72 L1098.75 87.9763 L995.94 87.9763 L995.94 87.9763  Z
  " fill="#009af9" fill-rule="evenodd" fill-opacity="1"/>
<polyline clip-path="url(#clip542)" style="stroke:#000000; stroke-linecap:round; stroke-linejoin:round; stroke-width:4; stroke-opacity:1; fill:none" points="
  995.94,87.9763 995.94,1445.72 1098.75,1445.72 1098.75,87.9763 995.94,87.9763 
  "/>
<circle clip-path="url(#clip542)" style="fill:#009af9; stroke:none; fill-opacity:0" cx="276.269" cy="571.136" r="2"/>
<circle clip-path="url(#clip542)" style="fill:#009af9; stroke:none; fill-opacity:0" cx="404.781" cy="938.092" r="2"/>
<circle clip-path="url(#clip542)" style="fill:#009af9; stroke:none; fill-opacity:0" cx="533.294" cy="1323.4" r="2"/>
<circle clip-path="url(#clip542)" style="fill:#009af9; stroke:none; fill-opacity:0" cx="661.807" cy="1256.12" r="2"/>
<circle clip-path="url(#clip542)" style="fill:#009af9; stroke:none; fill-opacity:0" cx="790.319" cy="803.542" r="2"/>
<circle clip-path="url(#clip542)" style="fill:#009af9; stroke:none; fill-opacity:0" cx="918.832" cy="638.411" r="2"/>
<circle clip-path="url(#clip542)" style="fill:#009af9; stroke:none; fill-opacity:0" cx="1047.34" cy="87.9763" r="2"/>
<path clip-path="url(#clip540)" d="
M1370.86 1486.45 L2352.76 1486.45 L2352.76 47.2441 L1370.86 47.2441  Z
  " fill="#ffffff" fill-rule="evenodd" fill-opacity="1"/>
<defs>
  <clipPath id="clip543">
    <rect x="1370" y="47" width="983" height="1440"/>
  </clipPath>
</defs>
<polyline clip-path="url(#clip543)" style="stroke:#000000; stroke-linecap:round; stroke-linejoin:round; stroke-width:2; stroke-opacity:0.1; fill:none" points="
  1476.27,1486.45 1476.27,47.2441 
  "/>
<polyline clip-path="url(#clip543)" style="stroke:#000000; stroke-linecap:round; stroke-linejoin:round; stroke-width:2; stroke-opacity:0.1; fill:none" points="
  1604.78,1486.45 1604.78,47.2441 
  "/>
<polyline clip-path="url(#clip543)" style="stroke:#000000; stroke-linecap:round; stroke-linejoin:round; stroke-width:2; stroke-opacity:0.1; fill:none" points="
  1733.29,1486.45 1733.29,47.2441 
  "/>
<polyline clip-path="url(#clip543)" style="stroke:#000000; stroke-linecap:round; stroke-linejoin:round; stroke-width:2; stroke-opacity:0.1; fill:none" points="
  1861.81,1486.45 1861.81,47.2441 
  "/>
<polyline clip-path="url(#clip543)" style="stroke:#000000; stroke-linecap:round; stroke-linejoin:round; stroke-width:2; stroke-opacity:0.1; fill:none" points="
  1990.32,1486.45 1990.32,47.2441 
  "/>
<polyline clip-path="url(#clip543)" style="stroke:#000000; stroke-linecap:round; stroke-linejoin:round; stroke-width:2; stroke-opacity:0.1; fill:none" points="
  2118.83,1486.45 2118.83,47.2441 
  "/>
<polyline clip-path="url(#clip543)" style="stroke:#000000; stroke-linecap:round; stroke-linejoin:round; stroke-width:2; stroke-opacity:0.1; fill:none" points="
  2247.34,1486.45 2247.34,47.2441 
  "/>
<polyline clip-path="url(#clip540)" style="stroke:#000000; stroke-linecap:round; stroke-linejoin:round; stroke-width:4; stroke-opacity:1; fill:none" points="
  1370.86,1486.45 2352.76,1486.45 
  "/>
<polyline clip-path="url(#clip540)" style="stroke:#000000; stroke-linecap:round; stroke-linejoin:round; stroke-width:4; stroke-opacity:1; fill:none" points="
  1476.27,1486.45 1476.27,1467.55 
  "/>
<polyline clip-path="url(#clip540)" style="stroke:#000000; stroke-linecap:round; stroke-linejoin:round; stroke-width:4; stroke-opacity:1; fill:none" points="
  1604.78,1486.45 1604.78,1467.55 
  "/>
<polyline clip-path="url(#clip540)" style="stroke:#000000; stroke-linecap:round; stroke-linejoin:round; stroke-width:4; stroke-opacity:1; fill:none" points="
  1733.29,1486.45 1733.29,1467.55 
  "/>
<polyline clip-path="url(#clip540)" style="stroke:#000000; stroke-linecap:round; stroke-linejoin:round; stroke-width:4; stroke-opacity:1; fill:none" points="
  1861.81,1486.45 1861.81,1467.55 
  "/>
<polyline clip-path="url(#clip540)" style="stroke:#000000; stroke-linecap:round; stroke-linejoin:round; stroke-width:4; stroke-opacity:1; fill:none" points="
  1990.32,1486.45 1990.32,1467.55 
  "/>
<polyline clip-path="url(#clip540)" style="stroke:#000000; stroke-linecap:round; stroke-linejoin:round; stroke-width:4; stroke-opacity:1; fill:none" points="
  2118.83,1486.45 2118.83,1467.55 
  "/>
<polyline clip-path="url(#clip540)" style="stroke:#000000; stroke-linecap:round; stroke-linejoin:round; stroke-width:4; stroke-opacity:1; fill:none" points="
  2247.34,1486.45 2247.34,1467.55 
  "/>
<path clip-path="url(#clip540)" d="M1460.46 1514.29 L1467.43 1514.29 L1476.25 1537.81 L1485.11 1514.29 L1492.08 1514.29 L1492.08 1548.85 L1487.52 1548.85 L1487.52 1518.5 L1478.61 1542.2 L1473.91 1542.2 L1465 1518.5 L1465 1548.85 L1460.46 1548.85 L1460.46 1514.29 Z" fill="#000000" fill-rule="evenodd" fill-opacity="1" /><path clip-path="url(#clip540)" d="M1590.16 1514.29 L1619.4 1514.29 L1619.4 1518.22 L1607.13 1518.22 L1607.13 1548.85 L1602.43 1548.85 L1602.43 1518.22 L1590.16 1518.22 L1590.16 1514.29 Z" fill="#000000" fill-rule="evenodd" fill-opacity="1" /><path clip-path="url(#clip540)" d="M1711.42 1514.29 L1716.14 1514.29 L1723.41 1543.5 L1730.66 1514.29 L1735.91 1514.29 L1743.18 1543.5 L1750.42 1514.29 L1755.17 1514.29 L1746.49 1548.85 L1740.61 1548.85 L1733.32 1518.85 L1725.96 1548.85 L1720.08 1548.85 L1711.42 1514.29 Z" fill="#000000" fill-rule="evenodd" fill-opacity="1" /><path clip-path="url(#clip540)" d="M1831.47 1514.29 L1860.71 1514.29 L1860.71 1518.22 L1848.44 1518.22 L1848.44 1548.85 L1843.74 1548.85 L1843.74 1518.22 L1831.47 1518.22 L1831.47 1514.29 Z" fill="#000000" fill-rule="evenodd" fill-opacity="1" /><path clip-path="url(#clip540)" d="M1881.61 1532.64 Q1883.11 1533.15 1884.53 1534.82 Q1885.96 1536.49 1887.4 1539.4 L1892.14 1548.85 L1887.12 1548.85 L1882.7 1539.98 Q1880.98 1536.51 1879.36 1535.38 Q1877.77 1534.24 1874.99 1534.24 L1869.9 1534.24 L1869.9 1548.85 L1865.22 1548.85 L1865.22 1514.29 L1875.78 1514.29 Q1881.7 1514.29 1884.62 1516.76 Q1887.54 1519.24 1887.54 1524.24 Q1887.54 1527.51 1886.01 1529.66 Q1884.5 1531.81 1881.61 1532.64 M1869.9 1518.13 L1869.9 1530.4 L1875.78 1530.4 Q1879.16 1530.4 1880.87 1528.85 Q1882.61 1527.27 1882.61 1524.24 Q1882.61 1521.21 1880.87 1519.68 Q1879.16 1518.13 1875.78 1518.13 L1869.9 1518.13 Z" fill="#000000" fill-rule="evenodd" fill-opacity="1" /><path clip-path="url(#clip540)" d="M1980.39 1514.29 L2000.25 1514.29 L2000.25 1518.22 L1985.06 1518.22 L1985.06 1528.41 L1998.77 1528.41 L1998.77 1532.34 L1985.06 1532.34 L1985.06 1548.85 L1980.39 1548.85 L1980.39 1514.29 Z" fill="#000000" fill-rule="evenodd" fill-opacity="1" /><path clip-path="url(#clip540)" d="M2104.34 1515.42 L2104.34 1519.98 Q2101.68 1518.71 2099.32 1518.08 Q2096.96 1517.46 2094.76 1517.46 Q2090.94 1517.46 2088.86 1518.94 Q2086.8 1520.42 2086.8 1523.15 Q2086.8 1525.45 2088.16 1526.63 Q2089.55 1527.78 2093.39 1528.5 L2096.22 1529.08 Q2101.45 1530.07 2103.92 1532.6 Q2106.42 1535.1 2106.42 1539.31 Q2106.42 1544.33 2103.05 1546.93 Q2099.69 1549.52 2093.18 1549.52 Q2090.73 1549.52 2087.95 1548.96 Q2085.2 1548.41 2082.23 1547.32 L2082.23 1542.51 Q2085.08 1544.1 2087.81 1544.91 Q2090.55 1545.72 2093.18 1545.72 Q2097.19 1545.72 2099.36 1544.15 Q2101.54 1542.57 2101.54 1539.66 Q2101.54 1537.11 2099.97 1535.68 Q2098.42 1534.24 2094.85 1533.52 L2092 1532.97 Q2086.77 1531.93 2084.43 1529.7 Q2082.1 1527.48 2082.1 1523.52 Q2082.1 1518.94 2085.31 1516.3 Q2088.55 1513.66 2094.23 1513.66 Q2096.66 1513.66 2099.18 1514.1 Q2101.7 1514.54 2104.34 1515.42 Z" fill="#000000" fill-rule="evenodd" fill-opacity="1" /><path clip-path="url(#clip540)" d="M2125.31 1535.82 Q2120.15 1535.82 2118.16 1537 Q2116.17 1538.18 2116.17 1541.02 Q2116.17 1543.29 2117.65 1544.63 Q2119.16 1545.95 2121.73 1545.95 Q2125.27 1545.95 2127.4 1543.45 Q2129.55 1540.93 2129.55 1536.76 L2129.55 1535.82 L2125.31 1535.82 M2133.81 1534.06 L2133.81 1548.85 L2129.55 1548.85 L2129.55 1544.91 Q2128.09 1547.27 2125.92 1548.41 Q2123.74 1549.52 2120.59 1549.52 Q2116.61 1549.52 2114.25 1547.3 Q2111.91 1545.05 2111.91 1541.3 Q2111.91 1536.93 2114.83 1534.7 Q2117.77 1532.48 2123.58 1532.48 L2129.55 1532.48 L2129.55 1532.07 Q2129.55 1529.13 2127.61 1527.53 Q2125.68 1525.91 2122.19 1525.91 Q2119.97 1525.91 2117.86 1526.44 Q2115.75 1526.97 2113.81 1528.04 L2113.81 1524.1 Q2116.15 1523.2 2118.35 1522.76 Q2120.54 1522.3 2122.63 1522.3 Q2128.25 1522.3 2131.03 1525.21 Q2133.81 1528.13 2133.81 1534.06 Z" fill="#000000" fill-rule="evenodd" fill-opacity="1" /><path clip-path="url(#clip540)" d="M2146.79 1515.56 L2146.79 1522.92 L2155.57 1522.92 L2155.57 1526.23 L2146.79 1526.23 L2146.79 1540.31 Q2146.79 1543.48 2147.65 1544.38 Q2148.53 1545.28 2151.19 1545.28 L2155.57 1545.28 L2155.57 1548.85 L2151.19 1548.85 Q2146.26 1548.85 2144.39 1547.02 Q2142.51 1545.17 2142.51 1540.31 L2142.51 1526.23 L2139.39 1526.23 L2139.39 1522.92 L2142.51 1522.92 L2142.51 1515.56 L2146.79 1515.56 Z" fill="#000000" fill-rule="evenodd" fill-opacity="1" /><path clip-path="url(#clip540)" d="M2228.07 1515.42 L2228.07 1519.98 Q2225.41 1518.71 2223.05 1518.08 Q2220.69 1517.46 2218.49 1517.46 Q2214.67 1517.46 2212.59 1518.94 Q2210.53 1520.42 2210.53 1523.15 Q2210.53 1525.45 2211.89 1526.63 Q2213.28 1527.78 2217.12 1528.5 L2219.95 1529.08 Q2225.18 1530.07 2227.66 1532.6 Q2230.16 1535.1 2230.16 1539.31 Q2230.16 1544.33 2226.78 1546.93 Q2223.42 1549.52 2216.92 1549.52 Q2214.46 1549.52 2211.69 1548.96 Q2208.93 1548.41 2205.97 1547.32 L2205.97 1542.51 Q2208.81 1544.1 2211.55 1544.91 Q2214.28 1545.72 2216.92 1545.72 Q2220.92 1545.72 2223.1 1544.15 Q2225.27 1542.57 2225.27 1539.66 Q2225.27 1537.11 2223.7 1535.68 Q2222.15 1534.24 2218.58 1533.52 L2215.74 1532.97 Q2210.5 1531.93 2208.17 1529.7 Q2205.83 1527.48 2205.83 1523.52 Q2205.83 1518.94 2209.05 1516.3 Q2212.29 1513.66 2217.96 1513.66 Q2220.39 1513.66 2222.91 1514.1 Q2225.44 1514.54 2228.07 1515.42 Z" fill="#000000" fill-rule="evenodd" fill-opacity="1" /><path clip-path="url(#clip540)" d="M2236.82 1538.62 L2236.82 1522.92 L2241.08 1522.92 L2241.08 1538.45 Q2241.08 1542.13 2242.52 1543.99 Q2243.95 1545.82 2246.82 1545.82 Q2250.27 1545.82 2252.26 1543.62 Q2254.28 1541.42 2254.28 1537.62 L2254.28 1522.92 L2258.54 1522.92 L2258.54 1548.85 L2254.28 1548.85 L2254.28 1544.87 Q2252.73 1547.23 2250.67 1548.38 Q2248.63 1549.52 2245.92 1549.52 Q2241.45 1549.52 2239.14 1546.74 Q2236.82 1543.96 2236.82 1538.62 M2247.54 1522.3 L2247.54 1522.3 Z" fill="#000000" fill-rule="evenodd" fill-opacity="1" /><path clip-path="url(#clip540)" d="M2288.86 1533.2 L2288.86 1548.85 L2284.6 1548.85 L2284.6 1533.34 Q2284.6 1529.66 2283.17 1527.83 Q2281.73 1526 2278.86 1526 Q2275.41 1526 2273.42 1528.2 Q2271.43 1530.4 2271.43 1534.2 L2271.43 1548.85 L2267.15 1548.85 L2267.15 1522.92 L2271.43 1522.92 L2271.43 1526.95 Q2272.96 1524.61 2275.02 1523.45 Q2277.1 1522.3 2279.81 1522.3 Q2284.28 1522.3 2286.57 1525.07 Q2288.86 1527.83 2288.86 1533.2 Z" fill="#000000" fill-rule="evenodd" fill-opacity="1" /><polyline clip-path="url(#clip543)" style="stroke:#000000; stroke-linecap:round; stroke-linejoin:round; stroke-width:2; stroke-opacity:0.1; fill:none" points="
  1370.86,1445.72 2352.76,1445.72 
  "/>
<polyline clip-path="url(#clip543)" style="stroke:#000000; stroke-linecap:round; stroke-linejoin:round; stroke-width:2; stroke-opacity:0.1; fill:none" points="
  1370.86,1138.53 2352.76,1138.53 
  "/>
<polyline clip-path="url(#clip543)" style="stroke:#000000; stroke-linecap:round; stroke-linejoin:round; stroke-width:2; stroke-opacity:0.1; fill:none" points="
  1370.86,831.354 2352.76,831.354 
  "/>
<polyline clip-path="url(#clip543)" style="stroke:#000000; stroke-linecap:round; stroke-linejoin:round; stroke-width:2; stroke-opacity:0.1; fill:none" points="
  1370.86,524.173 2352.76,524.173 
  "/>
<polyline clip-path="url(#clip543)" style="stroke:#000000; stroke-linecap:round; stroke-linejoin:round; stroke-width:2; stroke-opacity:0.1; fill:none" points="
  1370.86,216.992 2352.76,216.992 
  "/>
<polyline clip-path="url(#clip540)" style="stroke:#000000; stroke-linecap:round; stroke-linejoin:round; stroke-width:4; stroke-opacity:1; fill:none" points="
  1370.86,1486.45 1370.86,47.2441 
  "/>
<polyline clip-path="url(#clip540)" style="stroke:#000000; stroke-linecap:round; stroke-linejoin:round; stroke-width:4; stroke-opacity:1; fill:none" points="
  1370.86,1445.72 1389.76,1445.72 
  "/>
<polyline clip-path="url(#clip540)" style="stroke:#000000; stroke-linecap:round; stroke-linejoin:round; stroke-width:4; stroke-opacity:1; fill:none" points="
  1370.86,1138.53 1389.76,1138.53 
  "/>
<polyline clip-path="url(#clip540)" style="stroke:#000000; stroke-linecap:round; stroke-linejoin:round; stroke-width:4; stroke-opacity:1; fill:none" points="
  1370.86,831.354 1389.76,831.354 
  "/>
<polyline clip-path="url(#clip540)" style="stroke:#000000; stroke-linecap:round; stroke-linejoin:round; stroke-width:4; stroke-opacity:1; fill:none" points="
  1370.86,524.173 1389.76,524.173 
  "/>
<polyline clip-path="url(#clip540)" style="stroke:#000000; stroke-linecap:round; stroke-linejoin:round; stroke-width:4; stroke-opacity:1; fill:none" points="
  1370.86,216.992 1389.76,216.992 
  "/>
<path clip-path="url(#clip540)" d="M1322.91 1431.51 Q1319.3 1431.51 1317.47 1435.08 Q1315.67 1438.62 1315.67 1445.75 Q1315.67 1452.86 1317.47 1456.42 Q1319.3 1459.96 1322.91 1459.96 Q1326.55 1459.96 1328.35 1456.42 Q1330.18 1452.86 1330.18 1445.75 Q1330.18 1438.62 1328.35 1435.08 Q1326.55 1431.51 1322.91 1431.51 M1322.91 1427.81 Q1328.72 1427.81 1331.78 1432.42 Q1334.86 1437 1334.86 1445.75 Q1334.86 1454.48 1331.78 1459.08 Q1328.72 1463.67 1322.91 1463.67 Q1317.1 1463.67 1314.02 1459.08 Q1310.97 1454.48 1310.97 1445.75 Q1310.97 1437 1314.02 1432.42 Q1317.1 1427.81 1322.91 1427.81 Z" fill="#000000" fill-rule="evenodd" fill-opacity="1" /><path clip-path="url(#clip540)" d="M1282.8 1121.25 L1301.15 1121.25 L1301.15 1125.19 L1287.08 1125.19 L1287.08 1133.66 Q1288.1 1133.31 1289.12 1133.15 Q1290.14 1132.97 1291.15 1132.97 Q1296.94 1132.97 1300.32 1136.14 Q1303.7 1139.31 1303.7 1144.73 Q1303.7 1150.31 1300.23 1153.41 Q1296.76 1156.49 1290.44 1156.49 Q1288.26 1156.49 1285.99 1156.12 Q1283.75 1155.75 1281.34 1155 L1281.34 1150.31 Q1283.42 1151.44 1285.64 1152 Q1287.87 1152.55 1290.34 1152.55 Q1294.35 1152.55 1296.69 1150.44 Q1299.02 1148.34 1299.02 1144.73 Q1299.02 1141.12 1296.69 1139.01 Q1294.35 1136.9 1290.34 1136.9 Q1288.47 1136.9 1286.59 1137.32 Q1284.74 1137.74 1282.8 1138.62 L1282.8 1121.25 Z" fill="#000000" fill-rule="evenodd" fill-opacity="1" /><path clip-path="url(#clip540)" d="M1322.91 1124.33 Q1319.3 1124.33 1317.47 1127.9 Q1315.67 1131.44 1315.67 1138.57 Q1315.67 1145.68 1317.47 1149.24 Q1319.3 1152.78 1322.91 1152.78 Q1326.55 1152.78 1328.35 1149.24 Q1330.18 1145.68 1330.18 1138.57 Q1330.18 1131.44 1328.35 1127.9 Q1326.55 1124.33 1322.91 1124.33 M1322.91 1120.63 Q1328.72 1120.63 1331.78 1125.24 Q1334.86 1129.82 1334.86 1138.57 Q1334.86 1147.3 1331.78 1151.9 Q1328.72 1156.49 1322.91 1156.49 Q1317.1 1156.49 1314.02 1151.9 Q1310.97 1147.3 1310.97 1138.57 Q1310.97 1129.82 1314.02 1125.24 Q1317.1 1120.63 1322.91 1120.63 Z" fill="#000000" fill-rule="evenodd" fill-opacity="1" /><path clip-path="url(#clip540)" d="M1253.4 844.699 L1261.04 844.699 L1261.04 818.333 L1252.73 820 L1252.73 815.741 L1260.99 814.074 L1265.67 814.074 L1265.67 844.699 L1273.31 844.699 L1273.31 848.634 L1253.4 848.634 L1253.4 844.699 Z" fill="#000000" fill-rule="evenodd" fill-opacity="1" /><path clip-path="url(#clip540)" d="M1292.75 817.153 Q1289.14 817.153 1287.31 820.717 Q1285.51 824.259 1285.51 831.389 Q1285.51 838.495 1287.31 842.06 Q1289.14 845.602 1292.75 845.602 Q1296.39 845.602 1298.19 842.06 Q1300.02 838.495 1300.02 831.389 Q1300.02 824.259 1298.19 820.717 Q1296.39 817.153 1292.75 817.153 M1292.75 813.449 Q1298.56 813.449 1301.62 818.055 Q1304.7 822.639 1304.7 831.389 Q1304.7 840.115 1301.62 844.722 Q1298.56 849.305 1292.75 849.305 Q1286.94 849.305 1283.86 844.722 Q1280.81 840.115 1280.81 831.389 Q1280.81 822.639 1283.86 818.055 Q1286.94 813.449 1292.75 813.449 Z" fill="#000000" fill-rule="evenodd" fill-opacity="1" /><path clip-path="url(#clip540)" d="M1322.91 817.153 Q1319.3 817.153 1317.47 820.717 Q1315.67 824.259 1315.67 831.389 Q1315.67 838.495 1317.47 842.06 Q1319.3 845.602 1322.91 845.602 Q1326.55 845.602 1328.35 842.06 Q1330.18 838.495 1330.18 831.389 Q1330.18 824.259 1328.35 820.717 Q1326.55 817.153 1322.91 817.153 M1322.91 813.449 Q1328.72 813.449 1331.78 818.055 Q1334.86 822.639 1334.86 831.389 Q1334.86 840.115 1331.78 844.722 Q1328.72 849.305 1322.91 849.305 Q1317.1 849.305 1314.02 844.722 Q1310.97 840.115 1310.97 831.389 Q1310.97 822.639 1314.02 818.055 Q1317.1 813.449 1322.91 813.449 Z" fill="#000000" fill-rule="evenodd" fill-opacity="1" /><path clip-path="url(#clip540)" d="M1253.4 537.518 L1261.04 537.518 L1261.04 511.152 L1252.73 512.819 L1252.73 508.56 L1260.99 506.893 L1265.67 506.893 L1265.67 537.518 L1273.31 537.518 L1273.31 541.453 L1253.4 541.453 L1253.4 537.518 Z" fill="#000000" fill-rule="evenodd" fill-opacity="1" /><path clip-path="url(#clip540)" d="M1282.8 506.893 L1301.15 506.893 L1301.15 510.828 L1287.08 510.828 L1287.08 519.3 Q1288.1 518.953 1289.12 518.791 Q1290.14 518.606 1291.15 518.606 Q1296.94 518.606 1300.32 521.777 Q1303.7 524.949 1303.7 530.365 Q1303.7 535.944 1300.23 539.046 Q1296.76 542.124 1290.44 542.124 Q1288.26 542.124 1285.99 541.754 Q1283.75 541.384 1281.34 540.643 L1281.34 535.944 Q1283.42 537.078 1285.64 537.634 Q1287.87 538.189 1290.34 538.189 Q1294.35 538.189 1296.69 536.083 Q1299.02 533.976 1299.02 530.365 Q1299.02 526.754 1296.69 524.648 Q1294.35 522.541 1290.34 522.541 Q1288.47 522.541 1286.59 522.958 Q1284.74 523.374 1282.8 524.254 L1282.8 506.893 Z" fill="#000000" fill-rule="evenodd" fill-opacity="1" /><path clip-path="url(#clip540)" d="M1322.91 509.972 Q1319.3 509.972 1317.47 513.537 Q1315.67 517.078 1315.67 524.208 Q1315.67 531.314 1317.47 534.879 Q1319.3 538.421 1322.91 538.421 Q1326.55 538.421 1328.35 534.879 Q1330.18 531.314 1330.18 524.208 Q1330.18 517.078 1328.35 513.537 Q1326.55 509.972 1322.91 509.972 M1322.91 506.268 Q1328.72 506.268 1331.78 510.875 Q1334.86 515.458 1334.86 524.208 Q1334.86 532.935 1331.78 537.541 Q1328.72 542.124 1322.91 542.124 Q1317.1 542.124 1314.02 537.541 Q1310.97 532.935 1310.97 524.208 Q1310.97 515.458 1314.02 510.875 Q1317.1 506.268 1322.91 506.268 Z" fill="#000000" fill-rule="evenodd" fill-opacity="1" /><path clip-path="url(#clip540)" d="M1256.62 230.337 L1272.94 230.337 L1272.94 234.272 L1250.99 234.272 L1250.99 230.337 Q1253.65 227.582 1258.24 222.953 Q1262.84 218.3 1264.02 216.958 Q1266.27 214.434 1267.15 212.698 Q1268.05 210.939 1268.05 209.249 Q1268.05 206.495 1266.11 204.759 Q1264.19 203.022 1261.08 203.022 Q1258.89 203.022 1256.43 203.786 Q1254 204.55 1251.22 206.101 L1251.22 201.379 Q1254.05 200.245 1256.5 199.666 Q1258.96 199.087 1260.99 199.087 Q1266.36 199.087 1269.56 201.772 Q1272.75 204.458 1272.75 208.948 Q1272.75 211.078 1271.94 212.999 Q1271.15 214.897 1269.05 217.49 Q1268.47 218.161 1265.37 221.379 Q1262.27 224.573 1256.62 230.337 Z" fill="#000000" fill-rule="evenodd" fill-opacity="1" /><path clip-path="url(#clip540)" d="M1292.75 202.791 Q1289.14 202.791 1287.31 206.356 Q1285.51 209.897 1285.51 217.027 Q1285.51 224.133 1287.31 227.698 Q1289.14 231.24 1292.75 231.24 Q1296.39 231.24 1298.19 227.698 Q1300.02 224.133 1300.02 217.027 Q1300.02 209.897 1298.19 206.356 Q1296.39 202.791 1292.75 202.791 M1292.75 199.087 Q1298.56 199.087 1301.62 203.694 Q1304.7 208.277 1304.7 217.027 Q1304.7 225.754 1301.62 230.36 Q1298.56 234.944 1292.75 234.944 Q1286.94 234.944 1283.86 230.36 Q1280.81 225.754 1280.81 217.027 Q1280.81 208.277 1283.86 203.694 Q1286.94 199.087 1292.75 199.087 Z" fill="#000000" fill-rule="evenodd" fill-opacity="1" /><path clip-path="url(#clip540)" d="M1322.91 202.791 Q1319.3 202.791 1317.47 206.356 Q1315.67 209.897 1315.67 217.027 Q1315.67 224.133 1317.47 227.698 Q1319.3 231.24 1322.91 231.24 Q1326.55 231.24 1328.35 227.698 Q1330.18 224.133 1330.18 217.027 Q1330.18 209.897 1328.35 206.356 Q1326.55 202.791 1322.91 202.791 M1322.91 199.087 Q1328.72 199.087 1331.78 203.694 Q1334.86 208.277 1334.86 217.027 Q1334.86 225.754 1331.78 230.36 Q1328.72 234.944 1322.91 234.944 Q1317.1 234.944 1314.02 230.36 Q1310.97 225.754 1310.97 217.027 Q1310.97 208.277 1314.02 203.694 Q1317.1 199.087 1322.91 199.087 Z" fill="#000000" fill-rule="evenodd" fill-opacity="1" /><path clip-path="url(#clip543)" d="
M1424.86 745.343 L1424.86 1445.72 L1527.67 1445.72 L1527.67 745.343 L1424.86 745.343 L1424.86 745.343  Z
  " fill="#009af9" fill-rule="evenodd" fill-opacity="1"/>
<polyline clip-path="url(#clip543)" style="stroke:#000000; stroke-linecap:round; stroke-linejoin:round; stroke-width:4; stroke-opacity:1; fill:none" points="
  1424.86,745.343 1424.86,1445.72 1527.67,1445.72 1527.67,745.343 1424.86,745.343 
  "/>
<path clip-path="url(#clip543)" d="
M1553.38 1058.67 L1553.38 1445.72 L1656.19 1445.72 L1656.19 1058.67 L1553.38 1058.67 L1553.38 1058.67  Z
  " fill="#009af9" fill-rule="evenodd" fill-opacity="1"/>
<polyline clip-path="url(#clip543)" style="stroke:#000000; stroke-linecap:round; stroke-linejoin:round; stroke-width:4; stroke-opacity:1; fill:none" points="
  1553.38,1058.67 1553.38,1445.72 1656.19,1445.72 1656.19,1058.67 1553.38,1058.67 
  "/>
<path clip-path="url(#clip543)" d="
M1681.89 849.785 L1681.89 1445.72 L1784.7 1445.72 L1784.7 849.785 L1681.89 849.785 L1681.89 849.785  Z
  " fill="#009af9" fill-rule="evenodd" fill-opacity="1"/>
<polyline clip-path="url(#clip543)" style="stroke:#000000; stroke-linecap:round; stroke-linejoin:round; stroke-width:4; stroke-opacity:1; fill:none" points="
  1681.89,849.785 1681.89,1445.72 1784.7,1445.72 1784.7,849.785 1681.89,849.785 
  "/>
<path clip-path="url(#clip543)" d="
M1810.4 1126.25 L1810.4 1445.72 L1913.21 1445.72 L1913.21 1126.25 L1810.4 1126.25 L1810.4 1126.25  Z
  " fill="#009af9" fill-rule="evenodd" fill-opacity="1"/>
<polyline clip-path="url(#clip543)" style="stroke:#000000; stroke-linecap:round; stroke-linejoin:round; stroke-width:4; stroke-opacity:1; fill:none" points="
  1810.4,1126.25 1810.4,1445.72 1913.21,1445.72 1913.21,1126.25 1810.4,1126.25 
  "/>
<path clip-path="url(#clip543)" d="
M1938.91 1212.26 L1938.91 1445.72 L2041.72 1445.72 L2041.72 1212.26 L1938.91 1212.26 L1938.91 1212.26  Z
  " fill="#009af9" fill-rule="evenodd" fill-opacity="1"/>
<polyline clip-path="url(#clip543)" style="stroke:#000000; stroke-linecap:round; stroke-linejoin:round; stroke-width:4; stroke-opacity:1; fill:none" points="
  1938.91,1212.26 1938.91,1445.72 2041.72,1445.72 2041.72,1212.26 1938.91,1212.26 
  "/>
<path clip-path="url(#clip543)" d="
M2067.43 376.726 L2067.43 1445.72 L2170.24 1445.72 L2170.24 376.726 L2067.43 376.726 L2067.43 376.726  Z
  " fill="#009af9" fill-rule="evenodd" fill-opacity="1"/>
<polyline clip-path="url(#clip543)" style="stroke:#000000; stroke-linecap:round; stroke-linejoin:round; stroke-width:4; stroke-opacity:1; fill:none" points="
  2067.43,376.726 2067.43,1445.72 2170.24,1445.72 2170.24,376.726 2067.43,376.726 
  "/>
<path clip-path="url(#clip543)" d="
M2195.94 87.9763 L2195.94 1445.72 L2298.75 1445.72 L2298.75 87.9763 L2195.94 87.9763 L2195.94 87.9763  Z
  " fill="#009af9" fill-rule="evenodd" fill-opacity="1"/>
<polyline clip-path="url(#clip543)" style="stroke:#000000; stroke-linecap:round; stroke-linejoin:round; stroke-width:4; stroke-opacity:1; fill:none" points="
  2195.94,87.9763 2195.94,1445.72 2298.75,1445.72 2298.75,87.9763 2195.94,87.9763 
  "/>
<circle clip-path="url(#clip543)" style="fill:#009af9; stroke:none; fill-opacity:0" cx="1476.27" cy="745.343" r="2"/>
<circle clip-path="url(#clip543)" style="fill:#009af9; stroke:none; fill-opacity:0" cx="1604.78" cy="1058.67" r="2"/>
<circle clip-path="url(#clip543)" style="fill:#009af9; stroke:none; fill-opacity:0" cx="1733.29" cy="849.785" r="2"/>
<circle clip-path="url(#clip543)" style="fill:#009af9; stroke:none; fill-opacity:0" cx="1861.81" cy="1126.25" r="2"/>
<circle clip-path="url(#clip543)" style="fill:#009af9; stroke:none; fill-opacity:0" cx="1990.32" cy="1212.26" r="2"/>
<circle clip-path="url(#clip543)" style="fill:#009af9; stroke:none; fill-opacity:0" cx="2118.83" cy="376.726" r="2"/>
<circle clip-path="url(#clip543)" style="fill:#009af9; stroke:none; fill-opacity:0" cx="2247.34" cy="87.9763" r="2"/>
</svg>
