<?xml version="1.0" encoding="utf-8"?>
<svg xmlns="http://www.w3.org/2000/svg" xmlns:xlink="http://www.w3.org/1999/xlink" width="600" height="400" viewBox="0 0 2400 1600">
<defs>
  <clipPath id="clip500">
    <rect x="0" y="0" width="2400" height="1600"/>
  </clipPath>
</defs>
<path clip-path="url(#clip500)" d="
M0 1600 L2400 1600 L2400 0 L0 0  Z
  " fill="#ffffff" fill-rule="evenodd" fill-opacity="1"/>
<defs>
  <clipPath id="clip501">
    <rect x="480" y="0" width="1681" height="1600"/>
  </clipPath>
</defs>
<path clip-path="url(#clip500)" d="
M169.121 1423.18 L1152.76 1423.18 L1152.76 47.2441 L169.121 47.2441  Z
  " fill="#ffffff" fill-rule="evenodd" fill-opacity="1"/>
<defs>
  <clipPath id="clip502">
    <rect x="169" y="47" width="985" height="1377"/>
  </clipPath>
</defs>
<polyline clip-path="url(#clip502)" style="stroke:#000000; stroke-linecap:round; stroke-linejoin:round; stroke-width:2; stroke-opacity:0.1; fill:none" points="
  274.719,1423.18 274.719,47.2441 
  "/>
<polyline clip-path="url(#clip502)" style="stroke:#000000; stroke-linecap:round; stroke-linejoin:round; stroke-width:2; stroke-opacity:0.1; fill:none" points="
  403.459,1423.18 403.459,47.2441 
  "/>
<polyline clip-path="url(#clip502)" style="stroke:#000000; stroke-linecap:round; stroke-linejoin:round; stroke-width:2; stroke-opacity:0.1; fill:none" points="
  532.199,1423.18 532.199,47.2441 
  "/>
<polyline clip-path="url(#clip502)" style="stroke:#000000; stroke-linecap:round; stroke-linejoin:round; stroke-width:2; stroke-opacity:0.1; fill:none" points="
  660.939,1423.18 660.939,47.2441 
  "/>
<polyline clip-path="url(#clip502)" style="stroke:#000000; stroke-linecap:round; stroke-linejoin:round; stroke-width:2; stroke-opacity:0.1; fill:none" points="
  789.679,1423.18 789.679,47.2441 
  "/>
<polyline clip-path="url(#clip502)" style="stroke:#000000; stroke-linecap:round; stroke-linejoin:round; stroke-width:2; stroke-opacity:0.1; fill:none" points="
  918.418,1423.18 918.418,47.2441 
  "/>
<polyline clip-path="url(#clip502)" style="stroke:#000000; stroke-linecap:round; stroke-linejoin:round; stroke-width:2; stroke-opacity:0.1; fill:none" points="
  1047.16,1423.18 1047.16,47.2441 
  "/>
<polyline clip-path="url(#clip500)" style="stroke:#000000; stroke-linecap:round; stroke-linejoin:round; stroke-width:4; stroke-opacity:1; fill:none" points="
  169.121,1423.18 1152.76,1423.18 
  "/>
<polyline clip-path="url(#clip500)" style="stroke:#000000; stroke-linecap:round; stroke-linejoin:round; stroke-width:4; stroke-opacity:1; fill:none" points="
  274.719,1423.18 274.719,1404.28 
  "/>
<polyline clip-path="url(#clip500)" style="stroke:#000000; stroke-linecap:round; stroke-linejoin:round; stroke-width:4; stroke-opacity:1; fill:none" points="
  403.459,1423.18 403.459,1404.28 
  "/>
<polyline clip-path="url(#clip500)" style="stroke:#000000; stroke-linecap:round; stroke-linejoin:round; stroke-width:4; stroke-opacity:1; fill:none" points="
  532.199,1423.18 532.199,1404.28 
  "/>
<polyline clip-path="url(#clip500)" style="stroke:#000000; stroke-linecap:round; stroke-linejoin:round; stroke-width:4; stroke-opacity:1; fill:none" points="
  660.939,1423.18 660.939,1404.28 
  "/>
<polyline clip-path="url(#clip500)" style="stroke:#000000; stroke-linecap:round; stroke-linejoin:round; stroke-width:4; stroke-opacity:1; fill:none" points="
  789.679,1423.18 789.679,1404.28 
  "/>
<polyline clip-path="url(#clip500)" style="stroke:#000000; stroke-linecap:round; stroke-linejoin:round; stroke-width:4; stroke-opacity:1; fill:none" points="
  918.418,1423.18 918.418,1404.28 
  "/>
<polyline clip-path="url(#clip500)" style="stroke:#000000; stroke-linecap:round; stroke-linejoin:round; stroke-width:4; stroke-opacity:1; fill:none" points="
  1047.16,1423.18 1047.16,1404.28 
  "/>
<path clip-path="url(#clip500)" d="M258.909 1451.02 L265.876 1451.02 L274.696 1474.54 L283.561 1451.02 L290.529 1451.02 L290.529 1485.58 L285.969 1485.58 L285.969 1455.23 L277.057 1478.94 L272.358 1478.94 L263.446 1455.23 L263.446 1485.58 L258.909 1485.58 L258.909 1451.02 Z" fill="#000000" fill-rule="evenodd" fill-opacity="1" /><path clip-path="url(#clip500)" d="M388.841 1451.02 L418.077 1451.02 L418.077 1454.96 L405.808 1454.96 L405.808 1485.58 L401.109 1485.58 L401.109 1454.96 L388.841 1454.96 L388.841 1451.02 Z" fill="#000000" fill-rule="evenodd" fill-opacity="1" /><path clip-path="url(#clip500)" d="M510.324 1451.02 L515.046 1451.02 L522.315 1480.23 L529.56 1451.02 L534.814 1451.02 L542.083 1480.23 L549.328 1451.02 L554.074 1451.02 L545.393 1485.58 L539.513 1485.58 L532.222 1455.58 L524.861 1485.58 L518.981 1485.58 L510.324 1451.02 Z" fill="#000000" fill-rule="evenodd" fill-opacity="1" /><path clip-path="url(#clip500)" d="M630.603 1451.02 L659.839 1451.02 L659.839 1454.96 L647.571 1454.96 L647.571 1485.58 L642.872 1485.58 L642.872 1454.96 L630.603 1454.96 L630.603 1451.02 Z" fill="#000000" fill-rule="evenodd" fill-opacity="1" /><path clip-path="url(#clip500)" d="M680.742 1469.38 Q682.246 1469.89 683.658 1471.55 Q685.094 1473.22 686.529 1476.14 L691.274 1485.58 L686.251 1485.58 L681.83 1476.71 Q680.117 1473.24 678.496 1472.11 Q676.899 1470.97 674.121 1470.97 L669.029 1470.97 L669.029 1485.58 L664.353 1485.58 L664.353 1451.02 L674.908 1451.02 Q680.834 1451.02 683.751 1453.5 Q686.668 1455.97 686.668 1460.97 Q686.668 1464.24 685.14 1466.39 Q683.635 1468.54 680.742 1469.38 M669.029 1454.86 L669.029 1467.13 L674.908 1467.13 Q678.288 1467.13 680.001 1465.58 Q681.737 1464.01 681.737 1460.97 Q681.737 1457.94 680.001 1456.41 Q678.288 1454.86 674.908 1454.86 L669.029 1454.86 Z" fill="#000000" fill-rule="evenodd" fill-opacity="1" /><path clip-path="url(#clip500)" d="M779.748 1451.02 L799.609 1451.02 L799.609 1454.96 L784.424 1454.96 L784.424 1465.14 L798.128 1465.14 L798.128 1469.08 L784.424 1469.08 L784.424 1485.58 L779.748 1485.58 L779.748 1451.02 Z" fill="#000000" fill-rule="evenodd" fill-opacity="1" /><path clip-path="url(#clip500)" d="M903.928 1452.15 L903.928 1456.71 Q901.266 1455.44 898.905 1454.82 Q896.544 1454.19 894.344 1454.19 Q890.525 1454.19 888.442 1455.67 Q886.382 1457.15 886.382 1459.89 Q886.382 1462.18 887.747 1463.36 Q889.136 1464.52 892.979 1465.23 L895.803 1465.81 Q901.034 1466.81 903.511 1469.33 Q906.011 1471.83 906.011 1476.04 Q906.011 1481.07 902.631 1483.66 Q899.275 1486.25 892.77 1486.25 Q890.317 1486.25 887.539 1485.7 Q884.784 1485.14 881.821 1484.05 L881.821 1479.24 Q884.669 1480.83 887.4 1481.64 Q890.132 1482.45 892.77 1482.45 Q896.775 1482.45 898.951 1480.88 Q901.127 1479.31 901.127 1476.39 Q901.127 1473.84 899.553 1472.41 Q898.002 1470.97 894.437 1470.26 L891.59 1469.7 Q886.358 1468.66 884.02 1466.44 Q881.682 1464.21 881.682 1460.26 Q881.682 1455.67 884.9 1453.03 Q888.141 1450.39 893.812 1450.39 Q896.243 1450.39 898.766 1450.83 Q901.289 1451.27 903.928 1452.15 Z" fill="#000000" fill-rule="evenodd" fill-opacity="1" /><path clip-path="url(#clip500)" d="M924.9 1472.55 Q919.738 1472.55 917.747 1473.73 Q915.756 1474.91 915.756 1477.76 Q915.756 1480.02 917.238 1481.37 Q918.742 1482.69 921.312 1482.69 Q924.854 1482.69 926.983 1480.19 Q929.136 1477.66 929.136 1473.5 L929.136 1472.55 L924.9 1472.55 M933.395 1470.79 L933.395 1485.58 L929.136 1485.58 L929.136 1481.64 Q927.678 1484.01 925.502 1485.14 Q923.326 1486.25 920.178 1486.25 Q916.196 1486.25 913.835 1484.03 Q911.497 1481.78 911.497 1478.03 Q911.497 1473.66 914.414 1471.44 Q917.354 1469.21 923.164 1469.21 L929.136 1469.21 L929.136 1468.8 Q929.136 1465.86 927.192 1464.26 Q925.27 1462.64 921.775 1462.64 Q919.553 1462.64 917.446 1463.17 Q915.34 1463.7 913.395 1464.77 L913.395 1460.83 Q915.733 1459.93 917.932 1459.49 Q920.131 1459.03 922.215 1459.03 Q927.84 1459.03 930.617 1461.95 Q933.395 1464.86 933.395 1470.79 Z" fill="#000000" fill-rule="evenodd" fill-opacity="1" /><path clip-path="url(#clip500)" d="M946.381 1452.29 L946.381 1459.65 L955.154 1459.65 L955.154 1462.96 L946.381 1462.96 L946.381 1477.04 Q946.381 1480.21 947.238 1481.11 Q948.117 1482.02 950.779 1482.02 L955.154 1482.02 L955.154 1485.58 L950.779 1485.58 Q945.849 1485.58 943.974 1483.75 Q942.099 1481.9 942.099 1477.04 L942.099 1462.96 L938.974 1462.96 L938.974 1459.65 L942.099 1459.65 L942.099 1452.29 L946.381 1452.29 Z" fill="#000000" fill-rule="evenodd" fill-opacity="1" /><path clip-path="url(#clip500)" d="M1027.89 1452.15 L1027.89 1456.71 Q1025.23 1455.44 1022.86 1454.82 Q1020.5 1454.19 1018.3 1454.19 Q1014.48 1454.19 1012.4 1455.67 Q1010.34 1457.15 1010.34 1459.89 Q1010.34 1462.18 1011.71 1463.36 Q1013.1 1464.52 1016.94 1465.23 L1019.76 1465.81 Q1024.99 1466.81 1027.47 1469.33 Q1029.97 1471.83 1029.97 1476.04 Q1029.97 1481.07 1026.59 1483.66 Q1023.23 1486.25 1016.73 1486.25 Q1014.28 1486.25 1011.5 1485.7 Q1008.74 1485.14 1005.78 1484.05 L1005.78 1479.24 Q1008.63 1480.83 1011.36 1481.64 Q1014.09 1482.45 1016.73 1482.45 Q1020.73 1482.45 1022.91 1480.88 Q1025.09 1479.31 1025.09 1476.39 Q1025.09 1473.84 1023.51 1472.41 Q1021.96 1470.97 1018.4 1470.26 L1015.55 1469.7 Q1010.32 1468.66 1007.98 1466.44 Q1005.64 1464.21 1005.64 1460.26 Q1005.64 1455.67 1008.86 1453.03 Q1012.1 1450.39 1017.77 1450.39 Q1020.2 1450.39 1022.73 1450.83 Q1025.25 1451.27 1027.89 1452.15 Z" fill="#000000" fill-rule="evenodd" fill-opacity="1" /><path clip-path="url(#clip500)" d="M1036.64 1475.35 L1036.64 1459.65 L1040.9 1459.65 L1040.9 1475.19 Q1040.9 1478.87 1042.33 1480.72 Q1043.77 1482.55 1046.64 1482.55 Q1050.09 1482.55 1052.08 1480.35 Q1054.09 1478.15 1054.09 1474.35 L1054.09 1459.65 L1058.35 1459.65 L1058.35 1485.58 L1054.09 1485.58 L1054.09 1481.6 Q1052.54 1483.96 1050.48 1485.12 Q1048.44 1486.25 1045.73 1486.25 Q1041.27 1486.25 1038.95 1483.47 Q1036.64 1480.7 1036.64 1475.35 M1047.36 1459.03 L1047.36 1459.03 Z" fill="#000000" fill-rule="evenodd" fill-opacity="1" /><path clip-path="url(#clip500)" d="M1088.67 1469.93 L1088.67 1485.58 L1084.42 1485.58 L1084.42 1470.07 Q1084.42 1466.39 1082.98 1464.56 Q1081.54 1462.73 1078.67 1462.73 Q1075.23 1462.73 1073.23 1464.93 Q1071.24 1467.13 1071.24 1470.93 L1071.24 1485.58 L1066.96 1485.58 L1066.96 1459.65 L1071.24 1459.65 L1071.24 1463.68 Q1072.77 1461.34 1074.83 1460.19 Q1076.92 1459.03 1079.62 1459.03 Q1084.09 1459.03 1086.38 1461.81 Q1088.67 1464.56 1088.67 1469.93 Z" fill="#000000" fill-rule="evenodd" fill-opacity="1" /><path clip-path="url(#clip500)" d="M471.447 1524.18 L471.447 1530.96 Q468.201 1527.94 464.509 1526.44 Q460.849 1524.95 456.711 1524.95 Q448.563 1524.95 444.234 1529.95 Q439.905 1534.91 439.905 1544.33 Q439.905 1553.72 444.234 1558.72 Q448.563 1563.68 456.711 1563.68 Q460.849 1563.68 464.509 1562.19 Q468.201 1560.69 471.447 1557.67 L471.447 1564.38 Q468.074 1566.68 464.286 1567.82 Q460.53 1568.97 456.329 1568.97 Q445.539 1568.97 439.332 1562.38 Q433.126 1555.76 433.126 1544.33 Q433.126 1532.87 439.332 1526.28 Q445.539 1519.66 456.329 1519.66 Q460.594 1519.66 464.35 1520.81 Q468.137 1521.92 471.447 1524.18 Z" fill="#000000" fill-rule="evenodd" fill-opacity="1" /><path clip-path="url(#clip500)" d="M487.807 1545.35 L487.807 1562.76 L498.12 1562.76 Q503.308 1562.76 505.79 1560.63 Q508.305 1558.46 508.305 1554.04 Q508.305 1549.58 505.79 1547.48 Q503.308 1545.35 498.12 1545.35 L487.807 1545.35 M487.807 1525.81 L487.807 1540.13 L497.324 1540.13 Q502.035 1540.13 504.326 1538.38 Q506.65 1536.6 506.65 1532.97 Q506.65 1529.37 504.326 1527.59 Q502.035 1525.81 497.324 1525.81 L487.807 1525.81 M481.378 1520.52 L497.801 1520.52 Q505.154 1520.52 509.132 1523.58 Q513.111 1526.63 513.111 1532.27 Q513.111 1536.63 511.074 1539.21 Q509.037 1541.79 505.09 1542.42 Q509.833 1543.44 512.443 1546.69 Q515.084 1549.9 515.084 1554.74 Q515.084 1561.11 510.756 1564.57 Q506.427 1568.04 498.438 1568.04 L481.378 1568.04 L481.378 1520.52 Z" fill="#000000" fill-rule="evenodd" fill-opacity="1" /><path clip-path="url(#clip500)" d="M532.526 1525.81 L532.526 1562.76 L540.293 1562.76 Q550.128 1562.76 554.679 1558.3 Q559.262 1553.85 559.262 1544.24 Q559.262 1534.69 554.679 1530.26 Q550.128 1525.81 540.293 1525.81 L532.526 1525.81 M526.097 1520.52 L539.306 1520.52 Q553.119 1520.52 559.581 1526.28 Q566.042 1532.01 566.042 1544.24 Q566.042 1556.52 559.549 1562.28 Q553.056 1568.04 539.306 1568.04 L526.097 1568.04 L526.097 1520.52 Z" fill="#000000" fill-rule="evenodd" fill-opacity="1" /><path clip-path="url(#clip500)" d="M577.532 1559.96 L584.248 1559.96 L584.248 1565.43 L579.028 1575.62 L574.922 1575.62 L577.532 1565.43 L577.532 1559.96 Z" fill="#000000" fill-rule="evenodd" fill-opacity="1" /><path clip-path="url(#clip500)" d="M632.054 1524.76 Q627.089 1524.76 624.575 1529.66 Q622.092 1534.53 622.092 1544.33 Q622.092 1554.1 624.575 1559 Q627.089 1563.87 632.054 1563.87 Q637.051 1563.87 639.534 1559 Q642.048 1554.1 642.048 1544.33 Q642.048 1534.53 639.534 1529.66 Q637.051 1524.76 632.054 1524.76 M632.054 1519.66 Q640.043 1519.66 644.245 1526 Q648.478 1532.3 648.478 1544.33 Q648.478 1556.33 644.245 1562.66 Q640.043 1568.97 632.054 1568.97 Q624.065 1568.97 619.832 1562.66 Q615.631 1556.33 615.631 1544.33 Q615.631 1532.3 619.832 1526 Q624.065 1519.66 632.054 1519.66 Z" fill="#000000" fill-rule="evenodd" fill-opacity="1" /><path clip-path="url(#clip500)" d="M659.841 1520.52 L685.081 1520.52 L685.081 1525.93 L665.729 1525.93 L665.729 1537.58 Q667.129 1537.11 668.53 1536.88 Q669.93 1536.63 671.331 1536.63 Q679.288 1536.63 683.935 1540.99 Q688.582 1545.35 688.582 1552.8 Q688.582 1560.47 683.807 1564.73 Q679.033 1568.97 670.344 1568.97 Q667.352 1568.97 664.233 1568.46 Q661.145 1567.95 657.835 1566.93 L657.835 1560.47 Q660.7 1562.03 663.755 1562.79 Q666.811 1563.56 670.217 1563.56 Q675.723 1563.56 678.938 1560.66 Q682.152 1557.76 682.152 1552.8 Q682.152 1547.83 678.938 1544.94 Q675.723 1542.04 670.217 1542.04 Q667.639 1542.04 665.06 1542.61 Q662.514 1543.19 659.841 1544.4 L659.841 1520.52 Z" fill="#000000" fill-rule="evenodd" fill-opacity="1" /><path clip-path="url(#clip500)" d="M710.83 1520.52 L716.241 1520.52 L699.69 1574.09 L694.279 1574.09 L710.83 1520.52 Z" fill="#000000" fill-rule="evenodd" fill-opacity="1" /><path clip-path="url(#clip500)" d="M737.757 1541.72 Q733.428 1541.72 730.882 1544.68 Q728.367 1547.64 728.367 1552.8 Q728.367 1557.92 730.882 1560.91 Q733.428 1563.87 737.757 1563.87 Q742.085 1563.87 744.6 1560.91 Q747.146 1557.92 747.146 1552.8 Q747.146 1547.64 744.6 1544.68 Q742.085 1541.72 737.757 1541.72 M750.52 1521.57 L750.52 1527.43 Q748.101 1526.28 745.618 1525.68 Q743.168 1525.08 740.749 1525.08 Q734.383 1525.08 731.009 1529.37 Q727.667 1533.67 727.19 1542.36 Q729.068 1539.59 731.9 1538.13 Q734.733 1536.63 738.139 1536.63 Q745.3 1536.63 749.438 1540.99 Q753.607 1545.32 753.607 1552.8 Q753.607 1560.12 749.279 1564.54 Q744.95 1568.97 737.757 1568.97 Q729.513 1568.97 725.153 1562.66 Q720.792 1556.33 720.792 1544.33 Q720.792 1533.06 726.139 1526.38 Q731.487 1519.66 740.494 1519.66 Q742.913 1519.66 745.364 1520.14 Q747.846 1520.62 750.52 1521.57 Z" fill="#000000" fill-rule="evenodd" fill-opacity="1" /><path clip-path="url(#clip500)" d="M805.424 1542.04 L805.424 1547.71 Q802.082 1550.22 799.218 1551.3 Q796.385 1552.38 793.298 1552.38 Q789.796 1552.38 785.149 1550.51 Q784.799 1550.38 784.64 1550.32 Q784.417 1550.22 783.94 1550.06 Q779.007 1548.09 776.015 1548.09 Q773.214 1548.09 770.477 1549.33 Q767.739 1550.54 764.62 1553.18 L764.62 1547.51 Q767.962 1545 770.795 1543.92 Q773.659 1542.8 776.747 1542.8 Q780.248 1542.8 784.927 1544.71 Q785.245 1544.84 785.404 1544.9 Q785.659 1545 786.104 1545.16 Q791.038 1547.13 794.03 1547.13 Q796.767 1547.13 799.44 1545.92 Q802.146 1544.71 805.424 1542.04 Z" fill="#000000" fill-rule="evenodd" fill-opacity="1" /><path clip-path="url(#clip500)" d="M820.415 1562.63 L830.919 1562.63 L830.919 1526.38 L819.492 1528.67 L819.492 1522.82 L830.855 1520.52 L837.285 1520.52 L837.285 1562.63 L847.788 1562.63 L847.788 1568.04 L820.415 1568.04 L820.415 1562.63 Z" fill="#000000" fill-rule="evenodd" fill-opacity="1" /><path clip-path="url(#clip500)" d="M866.312 1562.63 L888.751 1562.63 L888.751 1568.04 L858.578 1568.04 L858.578 1562.63 Q862.238 1558.85 868.54 1552.48 Q874.874 1546.08 876.497 1544.24 Q879.585 1540.77 880.794 1538.38 Q882.036 1535.96 882.036 1533.64 Q882.036 1529.85 879.362 1527.46 Q876.72 1525.08 872.455 1525.08 Q869.431 1525.08 866.058 1526.13 Q862.716 1527.18 858.896 1529.31 L858.896 1522.82 Q862.779 1521.26 866.153 1520.46 Q869.527 1519.66 872.328 1519.66 Q879.712 1519.66 884.104 1523.36 Q888.497 1527.05 888.497 1533.22 Q888.497 1536.15 887.383 1538.79 Q886.301 1541.4 883.404 1544.97 Q882.608 1545.89 878.343 1550.32 Q874.078 1554.71 866.312 1562.63 Z" fill="#000000" fill-rule="evenodd" fill-opacity="1" /><polyline clip-path="url(#clip502)" style="stroke:#000000; stroke-linecap:round; stroke-linejoin:round; stroke-width:2; stroke-opacity:0.1; fill:none" points="
  169.121,1384.24 1152.76,1384.24 
  "/>
<polyline clip-path="url(#clip502)" style="stroke:#000000; stroke-linecap:round; stroke-linejoin:round; stroke-width:2; stroke-opacity:0.1; fill:none" points="
  169.121,1015.47 1152.76,1015.47 
  "/>
<polyline clip-path="url(#clip502)" style="stroke:#000000; stroke-linecap:round; stroke-linejoin:round; stroke-width:2; stroke-opacity:0.1; fill:none" points="
  169.121,646.708 1152.76,646.708 
  "/>
<polyline clip-path="url(#clip502)" style="stroke:#000000; stroke-linecap:round; stroke-linejoin:round; stroke-width:2; stroke-opacity:0.1; fill:none" points="
  169.121,277.943 1152.76,277.943 
  "/>
<polyline clip-path="url(#clip500)" style="stroke:#000000; stroke-linecap:round; stroke-linejoin:round; stroke-width:4; stroke-opacity:1; fill:none" points="
  169.121,1423.18 169.121,47.2441 
  "/>
<polyline clip-path="url(#clip500)" style="stroke:#000000; stroke-linecap:round; stroke-linejoin:round; stroke-width:4; stroke-opacity:1; fill:none" points="
  169.121,1384.24 188.019,1384.24 
  "/>
<polyline clip-path="url(#clip500)" style="stroke:#000000; stroke-linecap:round; stroke-linejoin:round; stroke-width:4; stroke-opacity:1; fill:none" points="
  169.121,1015.47 188.019,1015.47 
  "/>
<polyline clip-path="url(#clip500)" style="stroke:#000000; stroke-linecap:round; stroke-linejoin:round; stroke-width:4; stroke-opacity:1; fill:none" points="
  169.121,646.708 188.019,646.708 
  "/>
<polyline clip-path="url(#clip500)" style="stroke:#000000; stroke-linecap:round; stroke-linejoin:round; stroke-width:4; stroke-opacity:1; fill:none" points="
  169.121,277.943 188.019,277.943 
  "/>
<path clip-path="url(#clip500)" d="M121.177 1370.04 Q117.566 1370.04 115.737 1373.6 Q113.932 1377.14 113.932 1384.27 Q113.932 1391.38 115.737 1394.94 Q117.566 1398.49 121.177 1398.49 Q124.811 1398.49 126.617 1394.94 Q128.445 1391.38 128.445 1384.27 Q128.445 1377.14 126.617 1373.6 Q124.811 1370.04 121.177 1370.04 M121.177 1366.33 Q126.987 1366.33 130.043 1370.94 Q133.121 1375.52 133.121 1384.27 Q133.121 1393 130.043 1397.61 Q126.987 1402.19 121.177 1402.19 Q115.367 1402.19 112.288 1397.61 Q109.233 1393 109.233 1384.27 Q109.233 1375.52 112.288 1370.94 Q115.367 1366.33 121.177 1366.33 Z" fill="#000000" fill-rule="evenodd" fill-opacity="1" /><path clip-path="url(#clip500)" d="M81.0614 998.193 L99.4178 998.193 L99.4178 1002.13 L85.3438 1002.13 L85.3438 1010.6 Q86.3623 1010.25 87.3808 1010.09 Q88.3993 1009.91 89.4178 1009.91 Q95.2049 1009.91 98.5845 1013.08 Q101.964 1016.25 101.964 1021.67 Q101.964 1027.24 98.4919 1030.35 Q95.0197 1033.42 88.7003 1033.42 Q86.5243 1033.42 84.2558 1033.05 Q82.0105 1032.68 79.6031 1031.94 L79.6031 1027.24 Q81.6864 1028.38 83.9086 1028.93 Q86.1308 1029.49 88.6077 1029.49 Q92.6123 1029.49 94.9502 1027.38 Q97.2882 1025.28 97.2882 1021.67 Q97.2882 1018.05 94.9502 1015.95 Q92.6123 1013.84 88.6077 1013.84 Q86.7327 1013.84 84.8577 1014.26 Q83.0058 1014.67 81.0614 1015.55 L81.0614 998.193 Z" fill="#000000" fill-rule="evenodd" fill-opacity="1" /><path clip-path="url(#clip500)" d="M121.177 1001.27 Q117.566 1001.27 115.737 1004.84 Q113.932 1008.38 113.932 1015.51 Q113.932 1022.61 115.737 1026.18 Q117.566 1029.72 121.177 1029.72 Q124.811 1029.72 126.617 1026.18 Q128.445 1022.61 128.445 1015.51 Q128.445 1008.38 126.617 1004.84 Q124.811 1001.27 121.177 1001.27 M121.177 997.568 Q126.987 997.568 130.043 1002.17 Q133.121 1006.76 133.121 1015.51 Q133.121 1024.23 130.043 1028.84 Q126.987 1033.42 121.177 1033.42 Q115.367 1033.42 112.288 1028.84 Q109.233 1024.23 109.233 1015.51 Q109.233 1006.76 112.288 1002.17 Q115.367 997.568 121.177 997.568 Z" fill="#000000" fill-rule="evenodd" fill-opacity="1" /><path clip-path="url(#clip500)" d="M51.6634 660.053 L59.3023 660.053 L59.3023 633.688 L50.9921 635.354 L50.9921 631.095 L59.256 629.428 L63.9319 629.428 L63.9319 660.053 L71.5707 660.053 L71.5707 663.988 L51.6634 663.988 L51.6634 660.053 Z" fill="#000000" fill-rule="evenodd" fill-opacity="1" /><path clip-path="url(#clip500)" d="M91.0151 632.507 Q87.404 632.507 85.5753 636.072 Q83.7697 639.614 83.7697 646.743 Q83.7697 653.85 85.5753 657.414 Q87.404 660.956 91.0151 660.956 Q94.6493 660.956 96.4548 657.414 Q98.2835 653.85 98.2835 646.743 Q98.2835 639.614 96.4548 636.072 Q94.6493 632.507 91.0151 632.507 M91.0151 628.803 Q96.8252 628.803 99.8808 633.41 Q102.959 637.993 102.959 646.743 Q102.959 655.47 99.8808 660.076 Q96.8252 664.66 91.0151 664.66 Q85.2049 664.66 82.1262 660.076 Q79.0707 655.47 79.0707 646.743 Q79.0707 637.993 82.1262 633.41 Q85.2049 628.803 91.0151 628.803 Z" fill="#000000" fill-rule="evenodd" fill-opacity="1" /><path clip-path="url(#clip500)" d="M121.177 632.507 Q117.566 632.507 115.737 636.072 Q113.932 639.614 113.932 646.743 Q113.932 653.85 115.737 657.414 Q117.566 660.956 121.177 660.956 Q124.811 660.956 126.617 657.414 Q128.445 653.85 128.445 646.743 Q128.445 639.614 126.617 636.072 Q124.811 632.507 121.177 632.507 M121.177 628.803 Q126.987 628.803 130.043 633.41 Q133.121 637.993 133.121 646.743 Q133.121 655.47 130.043 660.076 Q126.987 664.66 121.177 664.66 Q115.367 664.66 112.288 660.076 Q109.233 655.47 109.233 646.743 Q109.233 637.993 112.288 633.41 Q115.367 628.803 121.177 628.803 Z" fill="#000000" fill-rule="evenodd" fill-opacity="1" /><path clip-path="url(#clip500)" d="M51.6634 291.288 L59.3023 291.288 L59.3023 264.923 L50.9921 266.589 L50.9921 262.33 L59.256 260.663 L63.9319 260.663 L63.9319 291.288 L71.5707 291.288 L71.5707 295.223 L51.6634 295.223 L51.6634 291.288 Z" fill="#000000" fill-rule="evenodd" fill-opacity="1" /><path clip-path="url(#clip500)" d="M81.0614 260.663 L99.4178 260.663 L99.4178 264.599 L85.3438 264.599 L85.3438 273.071 Q86.3623 272.724 87.3808 272.562 Q88.3993 272.376 89.4178 272.376 Q95.2049 272.376 98.5845 275.548 Q101.964 278.719 101.964 284.136 Q101.964 289.714 98.4919 292.816 Q95.0197 295.895 88.7003 295.895 Q86.5243 295.895 84.2558 295.524 Q82.0105 295.154 79.6031 294.413 L79.6031 289.714 Q81.6864 290.848 83.9086 291.404 Q86.1308 291.96 88.6077 291.96 Q92.6123 291.96 94.9502 289.853 Q97.2882 287.747 97.2882 284.136 Q97.2882 280.524 94.9502 278.418 Q92.6123 276.312 88.6077 276.312 Q86.7327 276.312 84.8577 276.728 Q83.0058 277.145 81.0614 278.024 L81.0614 260.663 Z" fill="#000000" fill-rule="evenodd" fill-opacity="1" /><path clip-path="url(#clip500)" d="M121.177 263.742 Q117.566 263.742 115.737 267.307 Q113.932 270.849 113.932 277.978 Q113.932 285.085 115.737 288.649 Q117.566 292.191 121.177 292.191 Q124.811 292.191 126.617 288.649 Q128.445 285.085 128.445 277.978 Q128.445 270.849 126.617 267.307 Q124.811 263.742 121.177 263.742 M121.177 260.038 Q126.987 260.038 130.043 264.645 Q133.121 269.228 133.121 277.978 Q133.121 286.705 130.043 291.311 Q126.987 295.895 121.177 295.895 Q115.367 295.895 112.288 291.311 Q109.233 286.705 109.233 277.978 Q109.233 269.228 112.288 264.645 Q115.367 260.038 121.177 260.038 Z" fill="#000000" fill-rule="evenodd" fill-opacity="1" /><path clip-path="url(#clip502)" d="
M223.223 1126.1 L223.223 1384.24 L326.215 1384.24 L326.215 1126.1 L223.223 1126.1 L223.223 1126.1  Z
  " fill="#009af9" fill-rule="evenodd" fill-opacity="1"/>
<polyline clip-path="url(#clip502)" style="stroke:#000000; stroke-linecap:round; stroke-linejoin:round; stroke-width:4; stroke-opacity:1; fill:none" points="
  223.223,1126.1 223.223,1384.24 326.215,1384.24 326.215,1126.1 223.223,1126.1 
  "/>
<path clip-path="url(#clip502)" d="
M351.963 86.1857 L351.963 1384.24 L454.955 1384.24 L454.955 86.1857 L351.963 86.1857 L351.963 86.1857  Z
  " fill="#009af9" fill-rule="evenodd" fill-opacity="1"/>
<polyline clip-path="url(#clip502)" style="stroke:#000000; stroke-linecap:round; stroke-linejoin:round; stroke-width:4; stroke-opacity:1; fill:none" points="
  351.963,86.1857 351.963,1384.24 454.955,1384.24 454.955,86.1857 351.963,86.1857 
  "/>
<path clip-path="url(#clip502)" d="
M480.703 742.587 L480.703 1384.24 L583.695 1384.24 L583.695 742.587 L480.703 742.587 L480.703 742.587  Z
  " fill="#009af9" fill-rule="evenodd" fill-opacity="1"/>
<polyline clip-path="url(#clip502)" style="stroke:#000000; stroke-linecap:round; stroke-linejoin:round; stroke-width:4; stroke-opacity:1; fill:none" points="
  480.703,742.587 480.703,1384.24 583.695,1384.24 583.695,742.587 480.703,742.587 
  "/>
<path clip-path="url(#clip502)" d="
M609.443 454.951 L609.443 1384.24 L712.435 1384.24 L712.435 454.951 L609.443 454.951 L609.443 454.951  Z
  " fill="#009af9" fill-rule="evenodd" fill-opacity="1"/>
<polyline clip-path="url(#clip502)" style="stroke:#000000; stroke-linecap:round; stroke-linejoin:round; stroke-width:4; stroke-opacity:1; fill:none" points="
  609.443,454.951 609.443,1384.24 712.435,1384.24 712.435,454.951 609.443,454.951 
  "/>
<path clip-path="url(#clip502)" d="
M738.183 167.314 L738.183 1384.24 L841.174 1384.24 L841.174 167.314 L738.183 167.314 L738.183 167.314  Z
  " fill="#009af9" fill-rule="evenodd" fill-opacity="1"/>
<polyline clip-path="url(#clip502)" style="stroke:#000000; stroke-linecap:round; stroke-linejoin:round; stroke-width:4; stroke-opacity:1; fill:none" points="
  738.183,167.314 738.183,1384.24 841.174,1384.24 841.174,167.314 738.183,167.314 
  "/>
<path clip-path="url(#clip502)" d="
M866.922 1096.6 L866.922 1384.24 L969.914 1384.24 L969.914 1096.6 L866.922 1096.6 L866.922 1096.6  Z
  " fill="#009af9" fill-rule="evenodd" fill-opacity="1"/>
<polyline clip-path="url(#clip502)" style="stroke:#000000; stroke-linecap:round; stroke-linejoin:round; stroke-width:4; stroke-opacity:1; fill:none" points="
  866.922,1096.6 866.922,1384.24 969.914,1384.24 969.914,1096.6 866.922,1096.6 
  "/>
<path clip-path="url(#clip502)" d="
M995.662 1111.35 L995.662 1384.24 L1098.65 1384.24 L1098.65 1111.35 L995.662 1111.35 L995.662 1111.35  Z
  " fill="#009af9" fill-rule="evenodd" fill-opacity="1"/>
<polyline clip-path="url(#clip502)" style="stroke:#000000; stroke-linecap:round; stroke-linejoin:round; stroke-width:4; stroke-opacity:1; fill:none" points="
  995.662,1111.35 995.662,1384.24 1098.65,1384.24 1098.65,1111.35 995.662,1111.35 
  "/>
<circle clip-path="url(#clip502)" style="fill:#009af9; stroke:none; fill-opacity:0" cx="274.719" cy="1126.1" r="2"/>
<circle clip-path="url(#clip502)" style="fill:#009af9; stroke:none; fill-opacity:0" cx="403.459" cy="86.1857" r="2"/>
<circle clip-path="url(#clip502)" style="fill:#009af9; stroke:none; fill-opacity:0" cx="532.199" cy="742.587" r="2"/>
<circle clip-path="url(#clip502)" style="fill:#009af9; stroke:none; fill-opacity:0" cx="660.939" cy="454.951" r="2"/>
<circle clip-path="url(#clip502)" style="fill:#009af9; stroke:none; fill-opacity:0" cx="789.679" cy="167.314" r="2"/>
<circle clip-path="url(#clip502)" style="fill:#009af9; stroke:none; fill-opacity:0" cx="918.418" cy="1096.6" r="2"/>
<circle clip-path="url(#clip502)" style="fill:#009af9; stroke:none; fill-opacity:0" cx="1047.16" cy="1111.35" r="2"/>
<path clip-path="url(#clip500)" d="
M1369.12 1423.18 L2352.76 1423.18 L2352.76 47.2441 L1369.12 47.2441  Z
  " fill="#ffffff" fill-rule="evenodd" fill-opacity="1"/>
<defs>
  <clipPath id="clip503">
    <rect x="1369" y="47" width="985" height="1377"/>
  </clipPath>
</defs>
<polyline clip-path="url(#clip503)" style="stroke:#000000; stroke-linecap:round; stroke-linejoin:round; stroke-width:2; stroke-opacity:0.1; fill:none" points="
  1474.72,1423.18 1474.72,47.2441 
  "/>
<polyline clip-path="url(#clip503)" style="stroke:#000000; stroke-linecap:round; stroke-linejoin:round; stroke-width:2; stroke-opacity:0.1; fill:none" points="
  1603.46,1423.18 1603.46,47.2441 
  "/>
<polyline clip-path="url(#clip503)" style="stroke:#000000; stroke-linecap:round; stroke-linejoin:round; stroke-width:2; stroke-opacity:0.1; fill:none" points="
  1732.2,1423.18 1732.2,47.2441 
  "/>
<polyline clip-path="url(#clip503)" style="stroke:#000000; stroke-linecap:round; stroke-linejoin:round; stroke-width:2; stroke-opacity:0.1; fill:none" points="
  1860.94,1423.18 1860.94,47.2441 
  "/>
<polyline clip-path="url(#clip503)" style="stroke:#000000; stroke-linecap:round; stroke-linejoin:round; stroke-width:2; stroke-opacity:0.1; fill:none" points="
  1989.68,1423.18 1989.68,47.2441 
  "/>
<polyline clip-path="url(#clip503)" style="stroke:#000000; stroke-linecap:round; stroke-linejoin:round; stroke-width:2; stroke-opacity:0.1; fill:none" points="
  2118.42,1423.18 2118.42,47.2441 
  "/>
<polyline clip-path="url(#clip503)" style="stroke:#000000; stroke-linecap:round; stroke-linejoin:round; stroke-width:2; stroke-opacity:0.1; fill:none" points="
  2247.16,1423.18 2247.16,47.2441 
  "/>
<polyline clip-path="url(#clip500)" style="stroke:#000000; stroke-linecap:round; stroke-linejoin:round; stroke-width:4; stroke-opacity:1; fill:none" points="
  1369.12,1423.18 2352.76,1423.18 
  "/>
<polyline clip-path="url(#clip500)" style="stroke:#000000; stroke-linecap:round; stroke-linejoin:round; stroke-width:4; stroke-opacity:1; fill:none" points="
  1474.72,1423.18 1474.72,1404.28 
  "/>
<polyline clip-path="url(#clip500)" style="stroke:#000000; stroke-linecap:round; stroke-linejoin:round; stroke-width:4; stroke-opacity:1; fill:none" points="
  1603.46,1423.18 1603.46,1404.28 
  "/>
<polyline clip-path="url(#clip500)" style="stroke:#000000; stroke-linecap:round; stroke-linejoin:round; stroke-width:4; stroke-opacity:1; fill:none" points="
  1732.2,1423.18 1732.2,1404.28 
  "/>
<polyline clip-path="url(#clip500)" style="stroke:#000000; stroke-linecap:round; stroke-linejoin:round; stroke-width:4; stroke-opacity:1; fill:none" points="
  1860.94,1423.18 1860.94,1404.28 
  "/>
<polyline clip-path="url(#clip500)" style="stroke:#000000; stroke-linecap:round; stroke-linejoin:round; stroke-width:4; stroke-opacity:1; fill:none" points="
  1989.68,1423.18 1989.68,1404.28 
  "/>
<polyline clip-path="url(#clip500)" style="stroke:#000000; stroke-linecap:round; stroke-linejoin:round; stroke-width:4; stroke-opacity:1; fill:none" points="
  2118.42,1423.18 2118.42,1404.28 
  "/>
<polyline clip-path="url(#clip500)" style="stroke:#000000; stroke-linecap:round; stroke-linejoin:round; stroke-width:4; stroke-opacity:1; fill:none" points="
  2247.16,1423.18 2247.16,1404.28 
  "/>
<path clip-path="url(#clip500)" d="M1458.91 1451.02 L1465.88 1451.02 L1474.7 1474.54 L1483.56 1451.02 L1490.53 1451.02 L1490.53 1485.58 L1485.97 1485.58 L1485.97 1455.23 L1477.06 1478.94 L1472.36 1478.94 L1463.45 1455.23 L1463.45 1485.58 L1458.91 1485.58 L1458.91 1451.02 Z" fill="#000000" fill-rule="evenodd" fill-opacity="1" /><path clip-path="url(#clip500)" d="M1588.84 1451.02 L1618.08 1451.02 L1618.08 1454.96 L1605.81 1454.96 L1605.81 1485.58 L1601.11 1485.58 L1601.11 1454.96 L1588.84 1454.96 L1588.84 1451.02 Z" fill="#000000" fill-rule="evenodd" fill-opacity="1" /><path clip-path="url(#clip500)" d="M1710.32 1451.02 L1715.05 1451.02 L1722.31 1480.23 L1729.56 1451.02 L1734.81 1451.02 L1742.08 1480.23 L1749.33 1451.02 L1754.07 1451.02 L1745.39 1485.58 L1739.51 1485.58 L1732.22 1455.58 L1724.86 1485.58 L1718.98 1485.58 L1710.32 1451.02 Z" fill="#000000" fill-rule="evenodd" fill-opacity="1" /><path clip-path="url(#clip500)" d="M1830.6 1451.02 L1859.84 1451.02 L1859.84 1454.96 L1847.57 1454.96 L1847.57 1485.58 L1842.87 1485.58 L1842.87 1454.96 L1830.6 1454.96 L1830.6 1451.02 Z" fill="#000000" fill-rule="evenodd" fill-opacity="1" /><path clip-path="url(#clip500)" d="M1880.74 1469.38 Q1882.25 1469.89 1883.66 1471.55 Q1885.09 1473.22 1886.53 1476.14 L1891.27 1485.58 L1886.25 1485.58 L1881.83 1476.71 Q1880.12 1473.24 1878.5 1472.11 Q1876.9 1470.97 1874.12 1470.97 L1869.03 1470.97 L1869.03 1485.58 L1864.35 1485.58 L1864.35 1451.02 L1874.91 1451.02 Q1880.83 1451.02 1883.75 1453.5 Q1886.67 1455.97 1886.67 1460.97 Q1886.67 1464.24 1885.14 1466.39 Q1883.64 1468.54 1880.74 1469.38 M1869.03 1454.86 L1869.03 1467.13 L1874.91 1467.13 Q1878.29 1467.13 1880 1465.58 Q1881.74 1464.01 1881.74 1460.97 Q1881.74 1457.94 1880 1456.41 Q1878.29 1454.86 1874.91 1454.86 L1869.03 1454.86 Z" fill="#000000" fill-rule="evenodd" fill-opacity="1" /><path clip-path="url(#clip500)" d="M1979.75 1451.02 L1999.61 1451.02 L1999.61 1454.96 L1984.42 1454.96 L1984.42 1465.14 L1998.13 1465.14 L1998.13 1469.08 L1984.42 1469.08 L1984.42 1485.58 L1979.75 1485.58 L1979.75 1451.02 Z" fill="#000000" fill-rule="evenodd" fill-opacity="1" /><path clip-path="url(#clip500)" d="M2103.93 1452.15 L2103.93 1456.71 Q2101.27 1455.44 2098.9 1454.82 Q2096.54 1454.19 2094.34 1454.19 Q2090.53 1454.19 2088.44 1455.67 Q2086.38 1457.15 2086.38 1459.89 Q2086.38 1462.18 2087.75 1463.36 Q2089.14 1464.52 2092.98 1465.23 L2095.8 1465.81 Q2101.03 1466.81 2103.51 1469.33 Q2106.01 1471.83 2106.01 1476.04 Q2106.01 1481.07 2102.63 1483.66 Q2099.27 1486.25 2092.77 1486.25 Q2090.32 1486.25 2087.54 1485.7 Q2084.78 1485.14 2081.82 1484.05 L2081.82 1479.24 Q2084.67 1480.83 2087.4 1481.64 Q2090.13 1482.45 2092.77 1482.45 Q2096.77 1482.45 2098.95 1480.88 Q2101.13 1479.31 2101.13 1476.39 Q2101.13 1473.84 2099.55 1472.41 Q2098 1470.97 2094.44 1470.26 L2091.59 1469.7 Q2086.36 1468.66 2084.02 1466.44 Q2081.68 1464.21 2081.68 1460.26 Q2081.68 1455.67 2084.9 1453.03 Q2088.14 1450.39 2093.81 1450.39 Q2096.24 1450.39 2098.77 1450.83 Q2101.29 1451.27 2103.93 1452.15 Z" fill="#000000" fill-rule="evenodd" fill-opacity="1" /><path clip-path="url(#clip500)" d="M2124.9 1472.55 Q2119.74 1472.55 2117.75 1473.73 Q2115.76 1474.91 2115.76 1477.76 Q2115.76 1480.02 2117.24 1481.37 Q2118.74 1482.69 2121.31 1482.69 Q2124.85 1482.69 2126.98 1480.19 Q2129.14 1477.66 2129.14 1473.5 L2129.14 1472.55 L2124.9 1472.55 M2133.4 1470.79 L2133.4 1485.58 L2129.14 1485.58 L2129.14 1481.64 Q2127.68 1484.01 2125.5 1485.14 Q2123.33 1486.25 2120.18 1486.25 Q2116.2 1486.25 2113.84 1484.03 Q2111.5 1481.78 2111.5 1478.03 Q2111.5 1473.66 2114.41 1471.44 Q2117.35 1469.21 2123.16 1469.21 L2129.14 1469.21 L2129.14 1468.8 Q2129.14 1465.86 2127.19 1464.26 Q2125.27 1462.64 2121.77 1462.64 Q2119.55 1462.64 2117.45 1463.17 Q2115.34 1463.7 2113.4 1464.77 L2113.4 1460.83 Q2115.73 1459.93 2117.93 1459.49 Q2120.13 1459.03 2122.21 1459.03 Q2127.84 1459.03 2130.62 1461.95 Q2133.4 1464.86 2133.4 1470.79 Z" fill="#000000" fill-rule="evenodd" fill-opacity="1" /><path clip-path="url(#clip500)" d="M2146.38 1452.29 L2146.38 1459.65 L2155.15 1459.65 L2155.15 1462.96 L2146.38 1462.96 L2146.38 1477.04 Q2146.38 1480.21 2147.24 1481.11 Q2148.12 1482.02 2150.78 1482.02 L2155.15 1482.02 L2155.15 1485.58 L2150.78 1485.58 Q2145.85 1485.58 2143.97 1483.75 Q2142.1 1481.9 2142.1 1477.04 L2142.1 1462.96 L2138.97 1462.96 L2138.97 1459.65 L2142.1 1459.65 L2142.1 1452.29 L2146.38 1452.29 Z" fill="#000000" fill-rule="evenodd" fill-opacity="1" /><path clip-path="url(#clip500)" d="M2227.89 1452.15 L2227.89 1456.71 Q2225.23 1455.44 2222.86 1454.82 Q2220.5 1454.19 2218.3 1454.19 Q2214.48 1454.19 2212.4 1455.67 Q2210.34 1457.15 2210.34 1459.89 Q2210.34 1462.18 2211.71 1463.36 Q2213.1 1464.52 2216.94 1465.23 L2219.76 1465.81 Q2224.99 1466.81 2227.47 1469.33 Q2229.97 1471.83 2229.97 1476.04 Q2229.97 1481.07 2226.59 1483.66 Q2223.23 1486.25 2216.73 1486.25 Q2214.28 1486.25 2211.5 1485.7 Q2208.74 1485.14 2205.78 1484.05 L2205.78 1479.24 Q2208.63 1480.83 2211.36 1481.64 Q2214.09 1482.45 2216.73 1482.45 Q2220.73 1482.45 2222.91 1480.88 Q2225.09 1479.31 2225.09 1476.39 Q2225.09 1473.84 2223.51 1472.41 Q2221.96 1470.97 2218.4 1470.26 L2215.55 1469.7 Q2210.32 1468.66 2207.98 1466.44 Q2205.64 1464.21 2205.64 1460.26 Q2205.64 1455.67 2208.86 1453.03 Q2212.1 1450.39 2217.77 1450.39 Q2220.2 1450.39 2222.73 1450.83 Q2225.25 1451.27 2227.89 1452.15 Z" fill="#000000" fill-rule="evenodd" fill-opacity="1" /><path clip-path="url(#clip500)" d="M2236.64 1475.35 L2236.64 1459.65 L2240.9 1459.65 L2240.9 1475.19 Q2240.9 1478.87 2242.33 1480.72 Q2243.77 1482.55 2246.64 1482.55 Q2250.09 1482.55 2252.08 1480.35 Q2254.09 1478.15 2254.09 1474.35 L2254.09 1459.65 L2258.35 1459.65 L2258.35 1485.58 L2254.09 1485.58 L2254.09 1481.6 Q2252.54 1483.96 2250.48 1485.12 Q2248.44 1486.25 2245.73 1486.25 Q2241.27 1486.25 2238.95 1483.47 Q2236.64 1480.7 2236.64 1475.35 M2247.36 1459.03 L2247.36 1459.03 Z" fill="#000000" fill-rule="evenodd" fill-opacity="1" /><path clip-path="url(#clip500)" d="M2288.67 1469.93 L2288.67 1485.58 L2284.42 1485.58 L2284.42 1470.07 Q2284.42 1466.39 2282.98 1464.56 Q2281.54 1462.73 2278.67 1462.73 Q2275.23 1462.73 2273.23 1464.93 Q2271.24 1467.13 2271.24 1470.93 L2271.24 1485.58 L2266.96 1485.58 L2266.96 1459.65 L2271.24 1459.65 L2271.24 1463.68 Q2272.77 1461.34 2274.83 1460.19 Q2276.92 1459.03 2279.62 1459.03 Q2284.09 1459.03 2286.38 1461.81 Q2288.67 1464.56 2288.67 1469.93 Z" fill="#000000" fill-rule="evenodd" fill-opacity="1" /><path clip-path="url(#clip500)" d="M1649.74 1524.18 L1649.74 1530.96 Q1646.49 1527.94 1642.8 1526.44 Q1639.14 1524.95 1635 1524.95 Q1626.86 1524.95 1622.53 1529.95 Q1618.2 1534.91 1618.2 1544.33 Q1618.2 1553.72 1622.53 1558.72 Q1626.86 1563.68 1635 1563.68 Q1639.14 1563.68 1642.8 1562.19 Q1646.49 1560.69 1649.74 1557.67 L1649.74 1564.38 Q1646.37 1566.68 1642.58 1567.82 Q1638.82 1568.97 1634.62 1568.97 Q1623.83 1568.97 1617.63 1562.38 Q1611.42 1555.76 1611.42 1544.33 Q1611.42 1532.87 1617.63 1526.28 Q1623.83 1519.66 1634.62 1519.66 Q1638.89 1519.66 1642.64 1520.81 Q1646.43 1521.92 1649.74 1524.18 Z" fill="#000000" fill-rule="evenodd" fill-opacity="1" /><path clip-path="url(#clip500)" d="M1666.1 1545.35 L1666.1 1562.76 L1676.41 1562.76 Q1681.6 1562.76 1684.08 1560.63 Q1686.6 1558.46 1686.6 1554.04 Q1686.6 1549.58 1684.08 1547.48 Q1681.6 1545.35 1676.41 1545.35 L1666.1 1545.35 M1666.1 1525.81 L1666.1 1540.13 L1675.62 1540.13 Q1680.33 1540.13 1682.62 1538.38 Q1684.94 1536.6 1684.94 1532.97 Q1684.94 1529.37 1682.62 1527.59 Q1680.33 1525.81 1675.62 1525.81 L1666.1 1525.81 M1659.67 1520.52 L1676.09 1520.52 Q1683.45 1520.52 1687.43 1523.58 Q1691.4 1526.63 1691.4 1532.27 Q1691.4 1536.63 1689.37 1539.21 Q1687.33 1541.79 1683.38 1542.42 Q1688.13 1543.44 1690.74 1546.69 Q1693.38 1549.9 1693.38 1554.74 Q1693.38 1561.11 1689.05 1564.57 Q1684.72 1568.04 1676.73 1568.04 L1659.67 1568.04 L1659.67 1520.52 Z" fill="#000000" fill-rule="evenodd" fill-opacity="1" /><path clip-path="url(#clip500)" d="M1710.82 1525.81 L1710.82 1562.76 L1718.59 1562.76 Q1728.42 1562.76 1732.97 1558.3 Q1737.56 1553.85 1737.56 1544.24 Q1737.56 1534.69 1732.97 1530.26 Q1728.42 1525.81 1718.59 1525.81 L1710.82 1525.81 M1704.39 1520.52 L1717.6 1520.52 Q1731.41 1520.52 1737.87 1526.28 Q1744.33 1532.01 1744.33 1544.24 Q1744.33 1556.52 1737.84 1562.28 Q1731.35 1568.04 1717.6 1568.04 L1704.39 1568.04 L1704.39 1520.52 Z" fill="#000000" fill-rule="evenodd" fill-opacity="1" /><path clip-path="url(#clip500)" d="M1755.82 1559.96 L1762.54 1559.96 L1762.54 1565.43 L1757.32 1575.62 L1753.21 1575.62 L1755.82 1565.43 L1755.82 1559.96 Z" fill="#000000" fill-rule="evenodd" fill-opacity="1" /><path clip-path="url(#clip500)" d="M1810.35 1524.76 Q1805.38 1524.76 1802.87 1529.66 Q1800.38 1534.53 1800.38 1544.33 Q1800.38 1554.1 1802.87 1559 Q1805.38 1563.87 1810.35 1563.87 Q1815.34 1563.87 1817.83 1559 Q1820.34 1554.1 1820.34 1544.33 Q1820.34 1534.53 1817.83 1529.66 Q1815.34 1524.76 1810.35 1524.76 M1810.35 1519.66 Q1818.34 1519.66 1822.54 1526 Q1826.77 1532.3 1826.77 1544.33 Q1826.77 1556.33 1822.54 1562.66 Q1818.34 1568.97 1810.35 1568.97 Q1802.36 1568.97 1798.13 1562.66 Q1793.92 1556.33 1793.92 1544.33 Q1793.92 1532.3 1798.13 1526 Q1802.36 1519.66 1810.35 1519.66 Z" fill="#000000" fill-rule="evenodd" fill-opacity="1" /><path clip-path="url(#clip500)" d="M1838.13 1520.52 L1863.37 1520.52 L1863.37 1525.93 L1844.02 1525.93 L1844.02 1537.58 Q1845.42 1537.11 1846.82 1536.88 Q1848.22 1536.63 1849.62 1536.63 Q1857.58 1536.63 1862.23 1540.99 Q1866.87 1545.35 1866.87 1552.8 Q1866.87 1560.47 1862.1 1564.73 Q1857.33 1568.97 1848.64 1568.97 Q1845.65 1568.97 1842.53 1568.46 Q1839.44 1567.95 1836.13 1566.93 L1836.13 1560.47 Q1838.99 1562.03 1842.05 1562.79 Q1845.1 1563.56 1848.51 1563.56 Q1854.02 1563.56 1857.23 1560.66 Q1860.45 1557.76 1860.45 1552.8 Q1860.45 1547.83 1857.23 1544.94 Q1854.02 1542.04 1848.51 1542.04 Q1845.93 1542.04 1843.35 1542.61 Q1840.81 1543.19 1838.13 1544.4 L1838.13 1520.52 Z" fill="#000000" fill-rule="evenodd" fill-opacity="1" /><path clip-path="url(#clip500)" d="M1889.12 1520.52 L1894.53 1520.52 L1877.98 1574.09 L1872.57 1574.09 L1889.12 1520.52 Z" fill="#000000" fill-rule="evenodd" fill-opacity="1" /><path clip-path="url(#clip500)" d="M1902.62 1562.63 L1913.12 1562.63 L1913.12 1526.38 L1901.7 1528.67 L1901.7 1522.82 L1913.06 1520.52 L1919.49 1520.52 L1919.49 1562.63 L1929.99 1562.63 L1929.99 1568.04 L1902.62 1568.04 L1902.62 1562.63 Z" fill="#000000" fill-rule="evenodd" fill-opacity="1" /><path clip-path="url(#clip500)" d="M1962.46 1542.42 Q1967.07 1543.41 1969.65 1546.53 Q1972.26 1549.65 1972.26 1554.23 Q1972.26 1561.26 1967.42 1565.12 Q1962.58 1568.97 1953.67 1568.97 Q1950.68 1568.97 1947.5 1568.36 Q1944.35 1567.79 1940.97 1566.61 L1940.97 1560.4 Q1943.65 1561.96 1946.83 1562.76 Q1950.01 1563.56 1953.48 1563.56 Q1959.53 1563.56 1962.68 1561.17 Q1965.86 1558.78 1965.86 1554.23 Q1965.86 1550.03 1962.9 1547.67 Q1959.97 1545.29 1954.72 1545.29 L1949.18 1545.29 L1949.18 1540 L1954.98 1540 Q1959.72 1540 1962.23 1538.13 Q1964.75 1536.22 1964.75 1532.65 Q1964.75 1528.99 1962.14 1527.05 Q1959.56 1525.08 1954.72 1525.08 Q1952.08 1525.08 1949.06 1525.65 Q1946.03 1526.22 1942.4 1527.43 L1942.4 1521.7 Q1946.06 1520.68 1949.25 1520.17 Q1952.46 1519.66 1955.29 1519.66 Q1962.61 1519.66 1966.88 1523.01 Q1971.14 1526.32 1971.14 1531.98 Q1971.14 1535.93 1968.89 1538.67 Q1966.63 1541.37 1962.46 1542.42 Z" fill="#000000" fill-rule="evenodd" fill-opacity="1" /><path clip-path="url(#clip500)" d="M2025.19 1542.04 L2025.19 1547.71 Q2021.85 1550.22 2018.98 1551.3 Q2016.15 1552.38 2013.06 1552.38 Q2009.56 1552.38 2004.91 1550.51 Q2004.56 1550.38 2004.41 1550.32 Q2004.18 1550.22 2003.71 1550.06 Q1998.77 1548.09 1995.78 1548.09 Q1992.98 1548.09 1990.24 1549.33 Q1987.5 1550.54 1984.39 1553.18 L1984.39 1547.51 Q1987.73 1545 1990.56 1543.92 Q1993.42 1542.8 1996.51 1542.8 Q2000.01 1542.8 2004.69 1544.71 Q2005.01 1544.84 2005.17 1544.9 Q2005.42 1545 2005.87 1545.16 Q2010.8 1547.13 2013.8 1547.13 Q2016.53 1547.13 2019.21 1545.92 Q2021.91 1544.71 2025.19 1542.04 Z" fill="#000000" fill-rule="evenodd" fill-opacity="1" /><path clip-path="url(#clip500)" d="M2040.18 1562.63 L2050.68 1562.63 L2050.68 1526.38 L2039.26 1528.67 L2039.26 1522.82 L2050.62 1520.52 L2057.05 1520.52 L2057.05 1562.63 L2067.55 1562.63 L2067.55 1568.04 L2040.18 1568.04 L2040.18 1562.63 Z" fill="#000000" fill-rule="evenodd" fill-opacity="1" /><path clip-path="url(#clip500)" d="M2080.73 1567.06 L2080.73 1561.2 Q2083.15 1562.35 2085.63 1562.95 Q2088.11 1563.56 2090.5 1563.56 Q2096.87 1563.56 2100.21 1559.29 Q2103.58 1554.99 2104.06 1546.27 Q2102.21 1549.01 2099.38 1550.47 Q2096.55 1551.94 2093.11 1551.94 Q2085.98 1551.94 2081.81 1547.64 Q2077.68 1543.31 2077.68 1535.83 Q2077.68 1528.51 2082 1524.09 Q2086.33 1519.66 2093.53 1519.66 Q2101.77 1519.66 2106.1 1526 Q2110.46 1532.3 2110.46 1544.33 Q2110.46 1555.57 2105.11 1562.28 Q2099.8 1568.97 2090.79 1568.97 Q2088.37 1568.97 2085.89 1568.49 Q2083.4 1568.01 2080.73 1567.06 M2093.53 1546.91 Q2097.85 1546.91 2100.37 1543.95 Q2102.92 1540.99 2102.92 1535.83 Q2102.92 1530.71 2100.37 1527.75 Q2097.85 1524.76 2093.53 1524.76 Q2089.2 1524.76 2086.65 1527.75 Q2084.14 1530.71 2084.14 1535.83 Q2084.14 1540.99 2086.65 1543.95 Q2089.2 1546.91 2093.53 1546.91 Z" fill="#000000" fill-rule="evenodd" fill-opacity="1" /><polyline clip-path="url(#clip503)" style="stroke:#000000; stroke-linecap:round; stroke-linejoin:round; stroke-width:2; stroke-opacity:0.1; fill:none" points="
  1369.12,1384.24 2352.76,1384.24 
  "/>
<polyline clip-path="url(#clip503)" style="stroke:#000000; stroke-linecap:round; stroke-linejoin:round; stroke-width:2; stroke-opacity:0.1; fill:none" points="
  1369.12,978.597 2352.76,978.597 
  "/>
<polyline clip-path="url(#clip503)" style="stroke:#000000; stroke-linecap:round; stroke-linejoin:round; stroke-width:2; stroke-opacity:0.1; fill:none" points="
  1369.12,572.955 2352.76,572.955 
  "/>
<polyline clip-path="url(#clip503)" style="stroke:#000000; stroke-linecap:round; stroke-linejoin:round; stroke-width:2; stroke-opacity:0.1; fill:none" points="
  1369.12,167.314 2352.76,167.314 
  "/>
<polyline clip-path="url(#clip500)" style="stroke:#000000; stroke-linecap:round; stroke-linejoin:round; stroke-width:4; stroke-opacity:1; fill:none" points="
  1369.12,1423.18 1369.12,47.2441 
  "/>
<polyline clip-path="url(#clip500)" style="stroke:#000000; stroke-linecap:round; stroke-linejoin:round; stroke-width:4; stroke-opacity:1; fill:none" points="
  1369.12,1384.24 1388.02,1384.24 
  "/>
<polyline clip-path="url(#clip500)" style="stroke:#000000; stroke-linecap:round; stroke-linejoin:round; stroke-width:4; stroke-opacity:1; fill:none" points="
  1369.12,978.597 1388.02,978.597 
  "/>
<polyline clip-path="url(#clip500)" style="stroke:#000000; stroke-linecap:round; stroke-linejoin:round; stroke-width:4; stroke-opacity:1; fill:none" points="
  1369.12,572.955 1388.02,572.955 
  "/>
<polyline clip-path="url(#clip500)" style="stroke:#000000; stroke-linecap:round; stroke-linejoin:round; stroke-width:4; stroke-opacity:1; fill:none" points="
  1369.12,167.314 1388.02,167.314 
  "/>
<path clip-path="url(#clip500)" d="M1321.18 1370.04 Q1317.57 1370.04 1315.74 1373.6 Q1313.93 1377.14 1313.93 1384.27 Q1313.93 1391.38 1315.74 1394.94 Q1317.57 1398.49 1321.18 1398.49 Q1324.81 1398.49 1326.62 1394.94 Q1328.45 1391.38 1328.45 1384.27 Q1328.45 1377.14 1326.62 1373.6 Q1324.81 1370.04 1321.18 1370.04 M1321.18 1366.33 Q1326.99 1366.33 1330.04 1370.94 Q1333.12 1375.52 1333.12 1384.27 Q1333.12 1393 1330.04 1397.61 Q1326.99 1402.19 1321.18 1402.19 Q1315.37 1402.19 1312.29 1397.61 Q1309.23 1393 1309.23 1384.27 Q1309.23 1375.52 1312.29 1370.94 Q1315.37 1366.33 1321.18 1366.33 Z" fill="#000000" fill-rule="evenodd" fill-opacity="1" /><path clip-path="url(#clip500)" d="M1281.06 961.317 L1299.42 961.317 L1299.42 965.252 L1285.34 965.252 L1285.34 973.724 Q1286.36 973.377 1287.38 973.215 Q1288.4 973.03 1289.42 973.03 Q1295.2 973.03 1298.58 976.201 Q1301.96 979.372 1301.96 984.789 Q1301.96 990.368 1298.49 993.469 Q1295.02 996.548 1288.7 996.548 Q1286.52 996.548 1284.26 996.178 Q1282.01 995.807 1279.6 995.067 L1279.6 990.368 Q1281.69 991.502 1283.91 992.057 Q1286.13 992.613 1288.61 992.613 Q1292.61 992.613 1294.95 990.506 Q1297.29 988.4 1297.29 984.789 Q1297.29 981.178 1294.95 979.071 Q1292.61 976.965 1288.61 976.965 Q1286.73 976.965 1284.86 977.382 Q1283.01 977.798 1281.06 978.678 L1281.06 961.317 Z" fill="#000000" fill-rule="evenodd" fill-opacity="1" /><path clip-path="url(#clip500)" d="M1321.18 964.396 Q1317.57 964.396 1315.74 967.96 Q1313.93 971.502 1313.93 978.632 Q1313.93 985.738 1315.74 989.303 Q1317.57 992.844 1321.18 992.844 Q1324.81 992.844 1326.62 989.303 Q1328.45 985.738 1328.45 978.632 Q1328.45 971.502 1326.62 967.96 Q1324.81 964.396 1321.18 964.396 M1321.18 960.692 Q1326.99 960.692 1330.04 965.298 Q1333.12 969.882 1333.12 978.632 Q1333.12 987.358 1330.04 991.965 Q1326.99 996.548 1321.18 996.548 Q1315.37 996.548 1312.29 991.965 Q1309.23 987.358 1309.23 978.632 Q1309.23 969.882 1312.29 965.298 Q1315.37 960.692 1321.18 960.692 Z" fill="#000000" fill-rule="evenodd" fill-opacity="1" /><path clip-path="url(#clip500)" d="M1251.66 586.3 L1259.3 586.3 L1259.3 559.935 L1250.99 561.601 L1250.99 557.342 L1259.26 555.675 L1263.93 555.675 L1263.93 586.3 L1271.57 586.3 L1271.57 590.235 L1251.66 590.235 L1251.66 586.3 Z" fill="#000000" fill-rule="evenodd" fill-opacity="1" /><path clip-path="url(#clip500)" d="M1291.02 558.754 Q1287.4 558.754 1285.58 562.319 Q1283.77 565.861 1283.77 572.99 Q1283.77 580.097 1285.58 583.661 Q1287.4 587.203 1291.02 587.203 Q1294.65 587.203 1296.45 583.661 Q1298.28 580.097 1298.28 572.99 Q1298.28 565.861 1296.45 562.319 Q1294.65 558.754 1291.02 558.754 M1291.02 555.05 Q1296.83 555.05 1299.88 559.657 Q1302.96 564.24 1302.96 572.99 Q1302.96 581.717 1299.88 586.323 Q1296.83 590.907 1291.02 590.907 Q1285.2 590.907 1282.13 586.323 Q1279.07 581.717 1279.07 572.99 Q1279.07 564.24 1282.13 559.657 Q1285.2 555.05 1291.02 555.05 Z" fill="#000000" fill-rule="evenodd" fill-opacity="1" /><path clip-path="url(#clip500)" d="M1321.18 558.754 Q1317.57 558.754 1315.74 562.319 Q1313.93 565.861 1313.93 572.99 Q1313.93 580.097 1315.74 583.661 Q1317.57 587.203 1321.18 587.203 Q1324.81 587.203 1326.62 583.661 Q1328.45 580.097 1328.45 572.99 Q1328.45 565.861 1326.62 562.319 Q1324.81 558.754 1321.18 558.754 M1321.18 555.05 Q1326.99 555.05 1330.04 559.657 Q1333.12 564.24 1333.12 572.99 Q1333.12 581.717 1330.04 586.323 Q1326.99 590.907 1321.18 590.907 Q1315.37 590.907 1312.29 586.323 Q1309.23 581.717 1309.23 572.99 Q1309.23 564.24 1312.29 559.657 Q1315.37 555.05 1321.18 555.05 Z" fill="#000000" fill-rule="evenodd" fill-opacity="1" /><path clip-path="url(#clip500)" d="M1251.66 180.659 L1259.3 180.659 L1259.3 154.293 L1250.99 155.96 L1250.99 151.701 L1259.26 150.034 L1263.93 150.034 L1263.93 180.659 L1271.57 180.659 L1271.57 184.594 L1251.66 184.594 L1251.66 180.659 Z" fill="#000000" fill-rule="evenodd" fill-opacity="1" /><path clip-path="url(#clip500)" d="M1281.06 150.034 L1299.42 150.034 L1299.42 153.969 L1285.34 153.969 L1285.34 162.441 Q1286.36 162.094 1287.38 161.932 Q1288.4 161.747 1289.42 161.747 Q1295.2 161.747 1298.58 164.918 Q1301.96 168.089 1301.96 173.506 Q1301.96 179.085 1298.49 182.187 Q1295.02 185.265 1288.7 185.265 Q1286.52 185.265 1284.26 184.895 Q1282.01 184.525 1279.6 183.784 L1279.6 179.085 Q1281.69 180.219 1283.91 180.775 Q1286.13 181.33 1288.61 181.33 Q1292.61 181.33 1294.95 179.224 Q1297.29 177.117 1297.29 173.506 Q1297.29 169.895 1294.95 167.788 Q1292.61 165.682 1288.61 165.682 Q1286.73 165.682 1284.86 166.099 Q1283.01 166.515 1281.06 167.395 L1281.06 150.034 Z" fill="#000000" fill-rule="evenodd" fill-opacity="1" /><path clip-path="url(#clip500)" d="M1321.18 153.113 Q1317.57 153.113 1315.74 156.677 Q1313.93 160.219 1313.93 167.349 Q1313.93 174.455 1315.74 178.02 Q1317.57 181.562 1321.18 181.562 Q1324.81 181.562 1326.62 178.02 Q1328.45 174.455 1328.45 167.349 Q1328.45 160.219 1326.62 156.677 Q1324.81 153.113 1321.18 153.113 M1321.18 149.409 Q1326.99 149.409 1330.04 154.015 Q1333.12 158.599 1333.12 167.349 Q1333.12 176.075 1330.04 180.682 Q1326.99 185.265 1321.18 185.265 Q1315.37 185.265 1312.29 180.682 Q1309.23 176.075 1309.23 167.349 Q1309.23 158.599 1312.29 154.015 Q1315.37 149.409 1321.18 149.409 Z" fill="#000000" fill-rule="evenodd" fill-opacity="1" /><path clip-path="url(#clip503)" d="
M1423.22 256.555 L1423.22 1384.24 L1526.21 1384.24 L1526.21 256.555 L1423.22 256.555 L1423.22 256.555  Z
  " fill="#009af9" fill-rule="evenodd" fill-opacity="1"/>
<polyline clip-path="url(#clip503)" style="stroke:#000000; stroke-linecap:round; stroke-linejoin:round; stroke-width:4; stroke-opacity:1; fill:none" points="
  1423.22,256.555 1423.22,1384.24 1526.21,1384.24 1526.21,256.555 1423.22,256.555 
  "/>
<path clip-path="url(#clip503)" d="
M1551.96 86.1857 L1551.96 1384.24 L1654.95 1384.24 L1654.95 86.1857 L1551.96 86.1857 L1551.96 86.1857  Z
  " fill="#009af9" fill-rule="evenodd" fill-opacity="1"/>
<polyline clip-path="url(#clip503)" style="stroke:#000000; stroke-linecap:round; stroke-linejoin:round; stroke-width:4; stroke-opacity:1; fill:none" points="
  1551.96,86.1857 1551.96,1384.24 1654.95,1384.24 1654.95,86.1857 1551.96,86.1857 
  "/>
<path clip-path="url(#clip503)" d="
M1680.7 321.458 L1680.7 1384.24 L1783.69 1384.24 L1783.69 321.458 L1680.7 321.458 L1680.7 321.458  Z
  " fill="#009af9" fill-rule="evenodd" fill-opacity="1"/>
<polyline clip-path="url(#clip503)" style="stroke:#000000; stroke-linecap:round; stroke-linejoin:round; stroke-width:4; stroke-opacity:1; fill:none" points="
  1680.7,321.458 1680.7,1384.24 1783.69,1384.24 1783.69,321.458 1680.7,321.458 
  "/>
<path clip-path="url(#clip503)" d="
M1809.44 159.201 L1809.44 1384.24 L1912.43 1384.24 L1912.43 159.201 L1809.44 159.201 L1809.44 159.201  Z
  " fill="#009af9" fill-rule="evenodd" fill-opacity="1"/>
<polyline clip-path="url(#clip503)" style="stroke:#000000; stroke-linecap:round; stroke-linejoin:round; stroke-width:4; stroke-opacity:1; fill:none" points="
  1809.44,159.201 1809.44,1384.24 1912.43,1384.24 1912.43,159.201 1809.44,159.201 
  "/>
<path clip-path="url(#clip503)" d="
M1938.18 499.94 L1938.18 1384.24 L2041.17 1384.24 L2041.17 499.94 L1938.18 499.94 L1938.18 499.94  Z
  " fill="#009af9" fill-rule="evenodd" fill-opacity="1"/>
<polyline clip-path="url(#clip503)" style="stroke:#000000; stroke-linecap:round; stroke-linejoin:round; stroke-width:4; stroke-opacity:1; fill:none" points="
  1938.18,499.94 1938.18,1384.24 2041.17,1384.24 2041.17,499.94 1938.18,499.94 
  "/>
<path clip-path="url(#clip503)" d="
M2066.92 1002.94 L2066.92 1384.24 L2169.91 1384.24 L2169.91 1002.94 L2066.92 1002.94 L2066.92 1002.94  Z
  " fill="#009af9" fill-rule="evenodd" fill-opacity="1"/>
<polyline clip-path="url(#clip503)" style="stroke:#000000; stroke-linecap:round; stroke-linejoin:round; stroke-width:4; stroke-opacity:1; fill:none" points="
  2066.92,1002.94 2066.92,1384.24 2169.91,1384.24 2169.91,1002.94 2066.92,1002.94 
  "/>
<path clip-path="url(#clip503)" d="
M2195.66 1084.06 L2195.66 1384.24 L2298.65 1384.24 L2298.65 1084.06 L2195.66 1084.06 L2195.66 1084.06  Z
  " fill="#009af9" fill-rule="evenodd" fill-opacity="1"/>
<polyline clip-path="url(#clip503)" style="stroke:#000000; stroke-linecap:round; stroke-linejoin:round; stroke-width:4; stroke-opacity:1; fill:none" points="
  2195.66,1084.06 2195.66,1384.24 2298.65,1384.24 2298.65,1084.06 2195.66,1084.06 
  "/>
<circle clip-path="url(#clip503)" style="fill:#009af9; stroke:none; fill-opacity:0" cx="1474.72" cy="256.555" r="2"/>
<circle clip-path="url(#clip503)" style="fill:#009af9; stroke:none; fill-opacity:0" cx="1603.46" cy="86.1857" r="2"/>
<circle clip-path="url(#clip503)" style="fill:#009af9; stroke:none; fill-opacity:0" cx="1732.2" cy="321.458" r="2"/>
<circle clip-path="url(#clip503)" style="fill:#009af9; stroke:none; fill-opacity:0" cx="1860.94" cy="159.201" r="2"/>
<circle clip-path="url(#clip503)" style="fill:#009af9; stroke:none; fill-opacity:0" cx="1989.68" cy="499.94" r="2"/>
<circle clip-path="url(#clip503)" style="fill:#009af9; stroke:none; fill-opacity:0" cx="2118.42" cy="1002.94" r="2"/>
<circle clip-path="url(#clip503)" style="fill:#009af9; stroke:none; fill-opacity:0" cx="2247.16" cy="1084.06" r="2"/>
</svg>
