<?xml version="1.0" encoding="utf-8"?>
<svg xmlns="http://www.w3.org/2000/svg" xmlns:xlink="http://www.w3.org/1999/xlink" width="1000" height="600" viewBox="0 0 4000 2400">
<defs>
  <clipPath id="clip790">
    <rect x="0" y="0" width="4000" height="2400"/>
  </clipPath>
</defs>
<path clip-path="url(#clip790)" d="
M0 2400 L4000 2400 L4000 0 L0 0  Z
  " fill="#ffffff" fill-rule="evenodd" fill-opacity="1"/>
<defs>
  <clipPath id="clip791">
    <rect x="800" y="0" width="2801" height="2400"/>
  </clipPath>
</defs>
<path clip-path="url(#clip790)" d="
M336.791 2160.4 L3889.76 2160.4 L3889.76 180.416 L336.791 180.416  Z
  " fill="#ffffff" fill-rule="evenodd" fill-opacity="1"/>
<defs>
  <clipPath id="clip792">
    <rect x="336" y="180" width="3554" height="1981"/>
  </clipPath>
</defs>
<polyline clip-path="url(#clip792)" style="stroke:#000000; stroke-linecap:round; stroke-linejoin:round; stroke-width:2; stroke-opacity:0.1; fill:none" points="
  371.425,2160.4 371.425,180.416 
  "/>
<polyline clip-path="url(#clip792)" style="stroke:#000000; stroke-linecap:round; stroke-linejoin:round; stroke-width:2; stroke-opacity:0.1; fill:none" points="
  907.379,2160.4 907.379,180.416 
  "/>
<polyline clip-path="url(#clip792)" style="stroke:#000000; stroke-linecap:round; stroke-linejoin:round; stroke-width:2; stroke-opacity:0.1; fill:none" points="
  1443.33,2160.4 1443.33,180.416 
  "/>
<polyline clip-path="url(#clip792)" style="stroke:#000000; stroke-linecap:round; stroke-linejoin:round; stroke-width:2; stroke-opacity:0.1; fill:none" points="
  1979.29,2160.4 1979.29,180.416 
  "/>
<polyline clip-path="url(#clip792)" style="stroke:#000000; stroke-linecap:round; stroke-linejoin:round; stroke-width:2; stroke-opacity:0.1; fill:none" points="
  2515.24,2160.4 2515.24,180.416 
  "/>
<polyline clip-path="url(#clip792)" style="stroke:#000000; stroke-linecap:round; stroke-linejoin:round; stroke-width:2; stroke-opacity:0.1; fill:none" points="
  3051.2,2160.4 3051.2,180.416 
  "/>
<polyline clip-path="url(#clip792)" style="stroke:#000000; stroke-linecap:round; stroke-linejoin:round; stroke-width:2; stroke-opacity:0.1; fill:none" points="
  3587.15,2160.4 3587.15,180.416 
  "/>
<polyline clip-path="url(#clip790)" style="stroke:#000000; stroke-linecap:round; stroke-linejoin:round; stroke-width:4; stroke-opacity:1; fill:none" points="
  336.791,2160.4 3889.76,2160.4 
  "/>
<polyline clip-path="url(#clip790)" style="stroke:#000000; stroke-linecap:round; stroke-linejoin:round; stroke-width:4; stroke-opacity:1; fill:none" points="
  371.425,2160.4 371.425,2141.5 
  "/>
<polyline clip-path="url(#clip790)" style="stroke:#000000; stroke-linecap:round; stroke-linejoin:round; stroke-width:4; stroke-opacity:1; fill:none" points="
  907.379,2160.4 907.379,2141.5 
  "/>
<polyline clip-path="url(#clip790)" style="stroke:#000000; stroke-linecap:round; stroke-linejoin:round; stroke-width:4; stroke-opacity:1; fill:none" points="
  1443.33,2160.4 1443.33,2141.5 
  "/>
<polyline clip-path="url(#clip790)" style="stroke:#000000; stroke-linecap:round; stroke-linejoin:round; stroke-width:4; stroke-opacity:1; fill:none" points="
  1979.29,2160.4 1979.29,2141.5 
  "/>
<polyline clip-path="url(#clip790)" style="stroke:#000000; stroke-linecap:round; stroke-linejoin:round; stroke-width:4; stroke-opacity:1; fill:none" points="
  2515.24,2160.4 2515.24,2141.5 
  "/>
<polyline clip-path="url(#clip790)" style="stroke:#000000; stroke-linecap:round; stroke-linejoin:round; stroke-width:4; stroke-opacity:1; fill:none" points="
  3051.2,2160.4 3051.2,2141.5 
  "/>
<polyline clip-path="url(#clip790)" style="stroke:#000000; stroke-linecap:round; stroke-linejoin:round; stroke-width:4; stroke-opacity:1; fill:none" points="
  3587.15,2160.4 3587.15,2141.5 
  "/>
<path clip-path="url(#clip790)" d="M371.425 2204.11 Q367.814 2204.11 365.985 2207.68 Q364.179 2211.22 364.179 2218.35 Q364.179 2225.46 365.985 2229.02 Q367.814 2232.56 371.425 2232.56 Q375.059 2232.56 376.865 2229.02 Q378.693 2225.46 378.693 2218.35 Q378.693 2211.22 376.865 2207.68 Q375.059 2204.11 371.425 2204.11 M371.425 2200.41 Q377.235 2200.41 380.29 2205.02 Q383.369 2209.6 383.369 2218.35 Q383.369 2227.08 380.29 2231.68 Q377.235 2236.27 371.425 2236.27 Q365.615 2236.27 362.536 2231.68 Q359.48 2227.08 359.48 2218.35 Q359.48 2209.6 362.536 2205.02 Q365.615 2200.41 371.425 2200.41 Z" fill="#000000" fill-rule="evenodd" fill-opacity="1" /><path clip-path="url(#clip790)" d="M902.032 2231.66 L918.352 2231.66 L918.352 2235.6 L896.407 2235.6 L896.407 2231.66 Q899.069 2228.91 903.653 2224.28 Q908.259 2219.62 909.44 2218.28 Q911.685 2215.76 912.565 2214.02 Q913.467 2212.26 913.467 2210.57 Q913.467 2207.82 911.523 2206.08 Q909.602 2204.35 906.5 2204.35 Q904.301 2204.35 901.847 2205.11 Q899.417 2205.87 896.639 2207.42 L896.639 2202.7 Q899.463 2201.57 901.917 2200.99 Q904.37 2200.41 906.407 2200.41 Q911.778 2200.41 914.972 2203.1 Q918.166 2205.78 918.166 2210.27 Q918.166 2212.4 917.356 2214.32 Q916.569 2216.22 914.463 2218.81 Q913.884 2219.48 910.782 2222.7 Q907.68 2225.9 902.032 2231.66 Z" fill="#000000" fill-rule="evenodd" fill-opacity="1" /><path clip-path="url(#clip790)" d="M1446.34 2205.11 L1434.54 2223.56 L1446.34 2223.56 L1446.34 2205.11 M1445.12 2201.04 L1451 2201.04 L1451 2223.56 L1455.93 2223.56 L1455.93 2227.45 L1451 2227.45 L1451 2235.6 L1446.34 2235.6 L1446.34 2227.45 L1430.74 2227.45 L1430.74 2222.93 L1445.12 2201.04 Z" fill="#000000" fill-rule="evenodd" fill-opacity="1" /><path clip-path="url(#clip790)" d="M1979.69 2216.45 Q1976.55 2216.45 1974.69 2218.61 Q1972.87 2220.76 1972.87 2224.51 Q1972.87 2228.23 1974.69 2230.41 Q1976.55 2232.56 1979.69 2232.56 Q1982.84 2232.56 1984.67 2230.41 Q1986.52 2228.23 1986.52 2224.51 Q1986.52 2220.76 1984.67 2218.61 Q1982.84 2216.45 1979.69 2216.45 M1988.98 2201.8 L1988.98 2206.06 Q1987.22 2205.23 1985.41 2204.79 Q1983.63 2204.35 1981.87 2204.35 Q1977.24 2204.35 1974.79 2207.47 Q1972.36 2210.6 1972.01 2216.92 Q1973.37 2214.9 1975.43 2213.84 Q1977.49 2212.75 1979.97 2212.75 Q1985.18 2212.75 1988.19 2215.92 Q1991.22 2219.07 1991.22 2224.51 Q1991.22 2229.83 1988.07 2233.05 Q1984.93 2236.27 1979.69 2236.27 Q1973.7 2236.27 1970.53 2231.68 Q1967.36 2227.08 1967.36 2218.35 Q1967.36 2210.16 1971.24 2205.29 Q1975.13 2200.41 1981.68 2200.41 Q1983.44 2200.41 1985.23 2200.76 Q1987.03 2201.11 1988.98 2201.8 Z" fill="#000000" fill-rule="evenodd" fill-opacity="1" /><path clip-path="url(#clip790)" d="M2515.24 2219.18 Q2511.91 2219.18 2509.99 2220.97 Q2508.09 2222.75 2508.09 2225.87 Q2508.09 2229 2509.99 2230.78 Q2511.91 2232.56 2515.24 2232.56 Q2518.58 2232.56 2520.5 2230.78 Q2522.42 2228.98 2522.42 2225.87 Q2522.42 2222.75 2520.5 2220.97 Q2518.6 2219.18 2515.24 2219.18 M2510.57 2217.19 Q2507.56 2216.45 2505.87 2214.39 Q2504.2 2212.33 2504.2 2209.37 Q2504.2 2205.23 2507.14 2202.82 Q2510.1 2200.41 2515.24 2200.41 Q2520.41 2200.41 2523.35 2202.82 Q2526.29 2205.23 2526.29 2209.37 Q2526.29 2212.33 2524.6 2214.39 Q2522.93 2216.45 2519.94 2217.19 Q2523.32 2217.98 2525.2 2220.27 Q2527.1 2222.56 2527.1 2225.87 Q2527.1 2230.9 2524.02 2233.58 Q2520.96 2236.27 2515.24 2236.27 Q2509.53 2236.27 2506.45 2233.58 Q2503.39 2230.9 2503.39 2225.87 Q2503.39 2222.56 2505.29 2220.27 Q2507.19 2217.98 2510.57 2217.19 M2508.85 2209.81 Q2508.85 2212.49 2510.52 2214 Q2512.21 2215.5 2515.24 2215.5 Q2518.25 2215.5 2519.94 2214 Q2521.66 2212.49 2521.66 2209.81 Q2521.66 2207.12 2519.94 2205.62 Q2518.25 2204.11 2515.24 2204.11 Q2512.21 2204.11 2510.52 2205.62 Q2508.85 2207.12 2508.85 2209.81 Z" fill="#000000" fill-rule="evenodd" fill-opacity="1" /><path clip-path="url(#clip790)" d="M3025.89 2231.66 L3033.52 2231.66 L3033.52 2205.29 L3025.21 2206.96 L3025.21 2202.7 L3033.48 2201.04 L3038.15 2201.04 L3038.15 2231.66 L3045.79 2231.66 L3045.79 2235.6 L3025.89 2235.6 L3025.89 2231.66 Z" fill="#000000" fill-rule="evenodd" fill-opacity="1" /><path clip-path="url(#clip790)" d="M3065.24 2204.11 Q3061.63 2204.11 3059.8 2207.68 Q3057.99 2211.22 3057.99 2218.35 Q3057.99 2225.46 3059.8 2229.02 Q3061.63 2232.56 3065.24 2232.56 Q3068.87 2232.56 3070.68 2229.02 Q3072.51 2225.46 3072.51 2218.35 Q3072.51 2211.22 3070.68 2207.68 Q3068.87 2204.11 3065.24 2204.11 M3065.24 2200.41 Q3071.05 2200.41 3074.1 2205.02 Q3077.18 2209.6 3077.18 2218.35 Q3077.18 2227.08 3074.1 2231.68 Q3071.05 2236.27 3065.24 2236.27 Q3059.43 2236.27 3056.35 2231.68 Q3053.29 2227.08 3053.29 2218.35 Q3053.29 2209.6 3056.35 2205.02 Q3059.43 2200.41 3065.24 2200.41 Z" fill="#000000" fill-rule="evenodd" fill-opacity="1" /><path clip-path="url(#clip790)" d="M3562.64 2231.66 L3570.28 2231.66 L3570.28 2205.29 L3561.97 2206.96 L3561.97 2202.7 L3570.23 2201.04 L3574.91 2201.04 L3574.91 2231.66 L3582.55 2231.66 L3582.55 2235.6 L3562.64 2235.6 L3562.64 2231.66 Z" fill="#000000" fill-rule="evenodd" fill-opacity="1" /><path clip-path="url(#clip790)" d="M3596.02 2231.66 L3612.34 2231.66 L3612.34 2235.6 L3590.39 2235.6 L3590.39 2231.66 Q3593.06 2228.91 3597.64 2224.28 Q3602.25 2219.62 3603.43 2218.28 Q3605.67 2215.76 3606.55 2214.02 Q3607.45 2212.26 3607.45 2210.57 Q3607.45 2207.82 3605.51 2206.08 Q3603.59 2204.35 3600.49 2204.35 Q3598.29 2204.35 3595.83 2205.11 Q3593.4 2205.87 3590.63 2207.42 L3590.63 2202.7 Q3593.45 2201.57 3595.9 2200.99 Q3598.36 2200.41 3600.39 2200.41 Q3605.76 2200.41 3608.96 2203.1 Q3612.15 2205.78 3612.15 2210.27 Q3612.15 2212.4 3611.34 2214.32 Q3610.56 2216.22 3608.45 2218.81 Q3607.87 2219.48 3604.77 2222.7 Q3601.67 2225.9 3596.02 2231.66 Z" fill="#000000" fill-rule="evenodd" fill-opacity="1" /><path clip-path="url(#clip790)" d="M2017.09 2281.74 L2026.67 2281.74 L2038.8 2314.08 L2050.99 2281.74 L2060.57 2281.74 L2060.57 2329.26 L2054.3 2329.26 L2054.3 2287.53 L2042.05 2320.12 L2035.58 2320.12 L2023.33 2287.53 L2023.33 2329.26 L2017.09 2329.26 L2017.09 2281.74 Z" fill="#000000" fill-rule="evenodd" fill-opacity="1" /><path clip-path="url(#clip790)" d="M2086.89 2297.72 Q2082.18 2297.72 2079.44 2301.41 Q2076.71 2305.07 2076.71 2311.47 Q2076.71 2317.87 2079.41 2321.56 Q2082.15 2325.22 2086.89 2325.22 Q2091.57 2325.22 2094.31 2321.53 Q2097.05 2317.83 2097.05 2311.47 Q2097.05 2305.13 2094.31 2301.44 Q2091.57 2297.72 2086.89 2297.72 M2086.89 2292.75 Q2094.53 2292.75 2098.89 2297.72 Q2103.25 2302.68 2103.25 2311.47 Q2103.25 2320.22 2098.89 2325.22 Q2094.53 2330.18 2086.89 2330.18 Q2079.22 2330.18 2074.86 2325.22 Q2070.53 2320.22 2070.53 2311.47 Q2070.53 2302.68 2074.86 2297.72 Q2079.22 2292.75 2086.89 2292.75 Z" fill="#000000" fill-rule="evenodd" fill-opacity="1" /><path clip-path="url(#clip790)" d="M2142.59 2307.74 L2142.59 2329.26 L2136.74 2329.26 L2136.74 2307.93 Q2136.74 2302.87 2134.76 2300.36 Q2132.79 2297.84 2128.84 2297.84 Q2124.1 2297.84 2121.36 2300.87 Q2118.62 2303.89 2118.62 2309.11 L2118.62 2329.26 L2112.74 2329.26 L2112.74 2293.61 L2118.62 2293.61 L2118.62 2299.15 Q2120.73 2295.94 2123.56 2294.34 Q2126.42 2292.75 2130.15 2292.75 Q2136.29 2292.75 2139.44 2296.57 Q2142.59 2300.36 2142.59 2307.74 Z" fill="#000000" fill-rule="evenodd" fill-opacity="1" /><path clip-path="url(#clip790)" d="M2160.07 2283.49 L2160.07 2293.61 L2172.13 2293.61 L2172.13 2298.16 L2160.07 2298.16 L2160.07 2317.51 Q2160.07 2321.88 2161.24 2323.12 Q2162.45 2324.36 2166.11 2324.36 L2172.13 2324.36 L2172.13 2329.26 L2166.11 2329.26 Q2159.33 2329.26 2156.76 2326.75 Q2154.18 2324.2 2154.18 2317.51 L2154.18 2298.16 L2149.88 2298.16 L2149.88 2293.61 L2154.18 2293.61 L2154.18 2283.49 L2160.07 2283.49 Z" fill="#000000" fill-rule="evenodd" fill-opacity="1" /><path clip-path="url(#clip790)" d="M2209.46 2307.74 L2209.46 2329.26 L2203.61 2329.26 L2203.61 2307.93 Q2203.61 2302.87 2201.63 2300.36 Q2199.66 2297.84 2195.71 2297.84 Q2190.97 2297.84 2188.23 2300.87 Q2185.5 2303.89 2185.5 2309.11 L2185.5 2329.26 L2179.61 2329.26 L2179.61 2279.73 L2185.5 2279.73 L2185.5 2299.15 Q2187.6 2295.94 2190.43 2294.34 Q2193.29 2292.75 2197.02 2292.75 Q2203.16 2292.75 2206.31 2296.57 Q2209.46 2300.36 2209.46 2307.74 Z" fill="#000000" fill-rule="evenodd" fill-opacity="1" /><polyline clip-path="url(#clip792)" style="stroke:#000000; stroke-linecap:round; stroke-linejoin:round; stroke-width:2; stroke-opacity:0.1; fill:none" points="
  336.791,2104.36 3889.76,2104.36 
  "/>
<polyline clip-path="url(#clip792)" style="stroke:#000000; stroke-linecap:round; stroke-linejoin:round; stroke-width:2; stroke-opacity:0.1; fill:none" points="
  336.791,1499.35 3889.76,1499.35 
  "/>
<polyline clip-path="url(#clip792)" style="stroke:#000000; stroke-linecap:round; stroke-linejoin:round; stroke-width:2; stroke-opacity:0.1; fill:none" points="
  336.791,894.337 3889.76,894.337 
  "/>
<polyline clip-path="url(#clip792)" style="stroke:#000000; stroke-linecap:round; stroke-linejoin:round; stroke-width:2; stroke-opacity:0.1; fill:none" points="
  336.791,289.327 3889.76,289.327 
  "/>
<polyline clip-path="url(#clip790)" style="stroke:#000000; stroke-linecap:round; stroke-linejoin:round; stroke-width:4; stroke-opacity:1; fill:none" points="
  336.791,2160.4 336.791,180.416 
  "/>
<polyline clip-path="url(#clip790)" style="stroke:#000000; stroke-linecap:round; stroke-linejoin:round; stroke-width:4; stroke-opacity:1; fill:none" points="
  336.791,2104.36 355.689,2104.36 
  "/>
<polyline clip-path="url(#clip790)" style="stroke:#000000; stroke-linecap:round; stroke-linejoin:round; stroke-width:4; stroke-opacity:1; fill:none" points="
  336.791,1499.35 355.689,1499.35 
  "/>
<polyline clip-path="url(#clip790)" style="stroke:#000000; stroke-linecap:round; stroke-linejoin:round; stroke-width:4; stroke-opacity:1; fill:none" points="
  336.791,894.337 355.689,894.337 
  "/>
<polyline clip-path="url(#clip790)" style="stroke:#000000; stroke-linecap:round; stroke-linejoin:round; stroke-width:4; stroke-opacity:1; fill:none" points="
  336.791,289.327 355.689,289.327 
  "/>
<path clip-path="url(#clip790)" d="M264.847 2090.16 Q261.236 2090.16 259.407 2093.72 Q257.602 2097.26 257.602 2104.39 Q257.602 2111.5 259.407 2115.06 Q261.236 2118.61 264.847 2118.61 Q268.481 2118.61 270.287 2115.06 Q272.115 2111.5 272.115 2104.39 Q272.115 2097.26 270.287 2093.72 Q268.481 2090.16 264.847 2090.16 M264.847 2086.45 Q270.657 2086.45 273.713 2091.06 Q276.791 2095.64 276.791 2104.39 Q276.791 2113.12 273.713 2117.73 Q270.657 2122.31 264.847 2122.31 Q259.037 2122.31 255.958 2117.73 Q252.903 2113.12 252.903 2104.39 Q252.903 2095.64 255.958 2091.06 Q259.037 2086.45 264.847 2086.45 Z" fill="#000000" fill-rule="evenodd" fill-opacity="1" /><path clip-path="url(#clip790)" d="M194.57 1482.07 L212.926 1482.07 L212.926 1486 L198.852 1486 L198.852 1494.48 Q199.87 1494.13 200.889 1493.97 Q201.907 1493.78 202.926 1493.78 Q208.713 1493.78 212.093 1496.95 Q215.472 1500.12 215.472 1505.54 Q215.472 1511.12 212 1514.22 Q208.528 1517.3 202.208 1517.3 Q200.033 1517.3 197.764 1516.93 Q195.519 1516.56 193.111 1515.82 L193.111 1511.12 Q195.195 1512.25 197.417 1512.81 Q199.639 1513.36 202.116 1513.36 Q206.12 1513.36 208.458 1511.26 Q210.796 1509.15 210.796 1505.54 Q210.796 1501.93 208.458 1499.82 Q206.12 1497.72 202.116 1497.72 Q200.241 1497.72 198.366 1498.13 Q196.514 1498.55 194.57 1499.43 L194.57 1482.07 Z" fill="#000000" fill-rule="evenodd" fill-opacity="1" /><path clip-path="url(#clip790)" d="M234.685 1485.15 Q231.074 1485.15 229.245 1488.71 Q227.44 1492.25 227.44 1499.38 Q227.44 1506.49 229.245 1510.05 Q231.074 1513.6 234.685 1513.6 Q238.319 1513.6 240.125 1510.05 Q241.954 1506.49 241.954 1499.38 Q241.954 1492.25 240.125 1488.71 Q238.319 1485.15 234.685 1485.15 M234.685 1481.44 Q240.495 1481.44 243.551 1486.05 Q246.629 1490.63 246.629 1499.38 Q246.629 1508.11 243.551 1512.72 Q240.495 1517.3 234.685 1517.3 Q228.875 1517.3 225.796 1512.72 Q222.741 1508.11 222.741 1499.38 Q222.741 1490.63 225.796 1486.05 Q228.875 1481.44 234.685 1481.44 Z" fill="#000000" fill-rule="evenodd" fill-opacity="1" /><path clip-path="url(#clip790)" d="M264.847 1485.15 Q261.236 1485.15 259.407 1488.71 Q257.602 1492.25 257.602 1499.38 Q257.602 1506.49 259.407 1510.05 Q261.236 1513.6 264.847 1513.6 Q268.481 1513.6 270.287 1510.05 Q272.115 1506.49 272.115 1499.38 Q272.115 1492.25 270.287 1488.71 Q268.481 1485.15 264.847 1485.15 M264.847 1481.44 Q270.657 1481.44 273.713 1486.05 Q276.791 1490.63 276.791 1499.38 Q276.791 1508.11 273.713 1512.72 Q270.657 1517.3 264.847 1517.3 Q259.037 1517.3 255.958 1512.72 Q252.903 1508.11 252.903 1499.38 Q252.903 1490.63 255.958 1486.05 Q259.037 1481.44 264.847 1481.44 Z" fill="#000000" fill-rule="evenodd" fill-opacity="1" /><path clip-path="url(#clip790)" d="M165.172 907.682 L172.81 907.682 L172.81 881.317 L164.5 882.983 L164.5 878.724 L172.764 877.057 L177.44 877.057 L177.44 907.682 L185.079 907.682 L185.079 911.617 L165.172 911.617 L165.172 907.682 Z" fill="#000000" fill-rule="evenodd" fill-opacity="1" /><path clip-path="url(#clip790)" d="M204.523 880.136 Q200.912 880.136 199.083 883.701 Q197.278 887.242 197.278 894.372 Q197.278 901.478 199.083 905.043 Q200.912 908.585 204.523 908.585 Q208.157 908.585 209.963 905.043 Q211.792 901.478 211.792 894.372 Q211.792 887.242 209.963 883.701 Q208.157 880.136 204.523 880.136 M204.523 876.432 Q210.333 876.432 213.389 881.039 Q216.468 885.622 216.468 894.372 Q216.468 903.099 213.389 907.705 Q210.333 912.289 204.523 912.289 Q198.713 912.289 195.634 907.705 Q192.579 903.099 192.579 894.372 Q192.579 885.622 195.634 881.039 Q198.713 876.432 204.523 876.432 Z" fill="#000000" fill-rule="evenodd" fill-opacity="1" /><path clip-path="url(#clip790)" d="M234.685 880.136 Q231.074 880.136 229.245 883.701 Q227.44 887.242 227.44 894.372 Q227.44 901.478 229.245 905.043 Q231.074 908.585 234.685 908.585 Q238.319 908.585 240.125 905.043 Q241.954 901.478 241.954 894.372 Q241.954 887.242 240.125 883.701 Q238.319 880.136 234.685 880.136 M234.685 876.432 Q240.495 876.432 243.551 881.039 Q246.629 885.622 246.629 894.372 Q246.629 903.099 243.551 907.705 Q240.495 912.289 234.685 912.289 Q228.875 912.289 225.796 907.705 Q222.741 903.099 222.741 894.372 Q222.741 885.622 225.796 881.039 Q228.875 876.432 234.685 876.432 Z" fill="#000000" fill-rule="evenodd" fill-opacity="1" /><path clip-path="url(#clip790)" d="M264.847 880.136 Q261.236 880.136 259.407 883.701 Q257.602 887.242 257.602 894.372 Q257.602 901.478 259.407 905.043 Q261.236 908.585 264.847 908.585 Q268.481 908.585 270.287 905.043 Q272.115 901.478 272.115 894.372 Q272.115 887.242 270.287 883.701 Q268.481 880.136 264.847 880.136 M264.847 876.432 Q270.657 876.432 273.713 881.039 Q276.791 885.622 276.791 894.372 Q276.791 903.099 273.713 907.705 Q270.657 912.289 264.847 912.289 Q259.037 912.289 255.958 907.705 Q252.903 903.099 252.903 894.372 Q252.903 885.622 255.958 881.039 Q259.037 876.432 264.847 876.432 Z" fill="#000000" fill-rule="evenodd" fill-opacity="1" /><path clip-path="url(#clip790)" d="M165.172 302.672 L172.81 302.672 L172.81 276.306 L164.5 277.973 L164.5 273.713 L172.764 272.047 L177.44 272.047 L177.44 302.672 L185.079 302.672 L185.079 306.607 L165.172 306.607 L165.172 302.672 Z" fill="#000000" fill-rule="evenodd" fill-opacity="1" /><path clip-path="url(#clip790)" d="M194.57 272.047 L212.926 272.047 L212.926 275.982 L198.852 275.982 L198.852 284.454 Q199.87 284.107 200.889 283.945 Q201.907 283.76 202.926 283.76 Q208.713 283.76 212.093 286.931 Q215.472 290.102 215.472 295.519 Q215.472 301.097 212 304.199 Q208.528 307.278 202.208 307.278 Q200.033 307.278 197.764 306.908 Q195.519 306.537 193.111 305.796 L193.111 301.097 Q195.195 302.232 197.417 302.787 Q199.639 303.343 202.116 303.343 Q206.12 303.343 208.458 301.236 Q210.796 299.13 210.796 295.519 Q210.796 291.908 208.458 289.801 Q206.12 287.695 202.116 287.695 Q200.241 287.695 198.366 288.111 Q196.514 288.528 194.57 289.408 L194.57 272.047 Z" fill="#000000" fill-rule="evenodd" fill-opacity="1" /><path clip-path="url(#clip790)" d="M234.685 275.125 Q231.074 275.125 229.245 278.69 Q227.44 282.232 227.44 289.361 Q227.44 296.468 229.245 300.033 Q231.074 303.574 234.685 303.574 Q238.319 303.574 240.125 300.033 Q241.954 296.468 241.954 289.361 Q241.954 282.232 240.125 278.69 Q238.319 275.125 234.685 275.125 M234.685 271.422 Q240.495 271.422 243.551 276.028 Q246.629 280.611 246.629 289.361 Q246.629 298.088 243.551 302.695 Q240.495 307.278 234.685 307.278 Q228.875 307.278 225.796 302.695 Q222.741 298.088 222.741 289.361 Q222.741 280.611 225.796 276.028 Q228.875 271.422 234.685 271.422 Z" fill="#000000" fill-rule="evenodd" fill-opacity="1" /><path clip-path="url(#clip790)" d="M264.847 275.125 Q261.236 275.125 259.407 278.69 Q257.602 282.232 257.602 289.361 Q257.602 296.468 259.407 300.033 Q261.236 303.574 264.847 303.574 Q268.481 303.574 270.287 300.033 Q272.115 296.468 272.115 289.361 Q272.115 282.232 270.287 278.69 Q268.481 275.125 264.847 275.125 M264.847 271.422 Q270.657 271.422 273.713 276.028 Q276.791 280.611 276.791 289.361 Q276.791 298.088 273.713 302.695 Q270.657 307.278 264.847 307.278 Q259.037 307.278 255.958 302.695 Q252.903 298.088 252.903 289.361 Q252.903 280.611 255.958 276.028 Q259.037 271.422 264.847 271.422 Z" fill="#000000" fill-rule="evenodd" fill-opacity="1" /><path clip-path="url(#clip790)" d="M42.7243 1513.92 L42.7243 1505.26 L82.4781 1484.19 L42.7243 1484.19 L42.7243 1477.95 L90.2443 1477.95 L90.2443 1486.61 L50.4904 1507.68 L90.2443 1507.68 L90.2443 1513.92 L42.7243 1513.92 Z" fill="#000000" fill-rule="evenodd" fill-opacity="1" /><path clip-path="url(#clip790)" d="M70.9562 1434.92 L73.8208 1434.92 L73.8208 1461.84 Q79.8682 1461.46 83.051 1458.22 Q86.2021 1454.94 86.2021 1449.11 Q86.2021 1445.74 85.3745 1442.59 Q84.547 1439.4 82.8919 1436.29 L88.4301 1436.29 Q89.7669 1439.44 90.4671 1442.75 Q91.1673 1446.06 91.1673 1449.46 Q91.1673 1457.99 86.2021 1462.99 Q81.2368 1467.96 72.7704 1467.96 Q64.0176 1467.96 58.8932 1463.24 Q53.737 1458.5 53.737 1450.48 Q53.737 1443.29 58.3839 1439.12 Q62.9991 1434.92 70.9562 1434.92 M69.2375 1440.77 Q64.4313 1440.84 61.5668 1443.48 Q58.7022 1446.09 58.7022 1450.42 Q58.7022 1455.32 61.4713 1458.28 Q64.2404 1461.21 69.2693 1461.65 L69.2375 1440.77 Z" fill="#000000" fill-rule="evenodd" fill-opacity="1" /><path clip-path="url(#clip790)" d="M54.5963 1428.71 L54.5963 1422.85 L82.4145 1415.53 L54.5963 1408.24 L54.5963 1401.34 L82.4145 1394.02 L54.5963 1386.73 L54.5963 1380.87 L90.2443 1390.2 L90.2443 1397.1 L61.0257 1404.78 L90.2443 1412.48 L90.2443 1419.38 L54.5963 1428.71 Z" fill="#000000" fill-rule="evenodd" fill-opacity="1" /><path clip-path="url(#clip790)" d="M72.4521 1325.68 Q65.9909 1325.68 62.3307 1328.36 Q58.6386 1331 58.6386 1335.64 Q58.6386 1340.29 62.3307 1342.96 Q65.9909 1345.61 72.4521 1345.61 Q78.9133 1345.61 82.6054 1342.96 Q86.2657 1340.29 86.2657 1335.64 Q86.2657 1331 82.6054 1328.36 Q78.9133 1325.68 72.4521 1325.68 M60.0072 1345.61 Q56.8243 1343.76 55.2966 1340.96 Q53.737 1338.13 53.737 1334.21 Q53.737 1327.72 58.8932 1323.68 Q64.0494 1319.6 72.4521 1319.6 Q80.8549 1319.6 86.0111 1323.68 Q91.1673 1327.72 91.1673 1334.21 Q91.1673 1338.13 89.6395 1340.96 Q88.0799 1343.76 84.8971 1345.61 L90.2443 1345.61 L90.2443 1351.49 L40.7191 1351.49 L40.7191 1345.61 L60.0072 1345.61 Z" fill="#000000" fill-rule="evenodd" fill-opacity="1" /><path clip-path="url(#clip790)" d="M54.5963 1309.89 L54.5963 1304.04 L90.2443 1304.04 L90.2443 1309.89 L54.5963 1309.89 M40.7191 1309.89 L40.7191 1304.04 L48.1351 1304.04 L48.1351 1309.89 L40.7191 1309.89 Z" fill="#000000" fill-rule="evenodd" fill-opacity="1" /><path clip-path="url(#clip790)" d="M40.7191 1292.01 L40.7191 1286.12 L69.9695 1286.12 L54.5963 1268.64 L54.5963 1261.17 L71.2745 1280.07 L90.2443 1260.37 L90.2443 1268.01 L72.8341 1286.12 L90.2443 1286.12 L90.2443 1292.01 L40.7191 1292.01 Z" fill="#000000" fill-rule="evenodd" fill-opacity="1" /><path clip-path="url(#clip790)" d="M70.9562 1225.87 L73.8208 1225.87 L73.8208 1252.79 Q79.8682 1252.41 83.051 1249.17 Q86.2021 1245.89 86.2021 1240.06 Q86.2021 1236.69 85.3745 1233.54 Q84.547 1230.36 82.8919 1227.24 L88.4301 1227.24 Q89.7669 1230.39 90.4671 1233.7 Q91.1673 1237.01 91.1673 1240.41 Q91.1673 1248.94 86.2021 1253.94 Q81.2368 1258.91 72.7704 1258.91 Q64.0176 1258.91 58.8932 1254.19 Q53.737 1249.45 53.737 1241.43 Q53.737 1234.24 58.3839 1230.07 Q62.9991 1225.87 70.9562 1225.87 M69.2375 1231.72 Q64.4313 1231.79 61.5668 1234.43 Q58.7022 1237.04 58.7022 1241.37 Q58.7022 1246.27 61.4713 1249.23 Q64.2404 1252.16 69.2693 1252.6 L69.2375 1231.72 Z" fill="#000000" fill-rule="evenodd" fill-opacity="1" /><path clip-path="url(#clip790)" d="M55.6467 1172.81 L61.1848 1172.81 Q59.9117 1175.29 59.2751 1177.97 Q58.6386 1180.64 58.6386 1183.5 Q58.6386 1187.86 59.9753 1190.06 Q61.3121 1192.22 63.9857 1192.22 Q66.0228 1192.22 67.2004 1190.66 Q68.3463 1189.11 69.3966 1184.39 L69.8422 1182.39 Q71.179 1176.15 73.6298 1173.54 Q76.0488 1170.9 80.4093 1170.9 Q85.3745 1170.9 88.2709 1174.85 Q91.1673 1178.76 91.1673 1185.64 Q91.1673 1188.5 90.5944 1191.62 Q90.0533 1194.71 88.9393 1198.14 L82.8919 1198.14 Q84.5788 1194.9 85.4382 1191.75 Q86.2657 1188.6 86.2657 1185.51 Q86.2657 1181.37 84.8653 1179.14 Q83.433 1176.91 80.8549 1176.91 Q78.4677 1176.91 77.1946 1178.54 Q75.9214 1180.13 74.7438 1185.57 L74.2664 1187.61 Q73.1205 1193.05 70.7652 1195.47 Q68.3781 1197.89 64.2404 1197.89 Q59.2115 1197.89 56.4742 1194.33 Q53.737 1190.76 53.737 1184.2 Q53.737 1180.96 54.2144 1178.09 Q54.6918 1175.23 55.6467 1172.81 Z" fill="#000000" fill-rule="evenodd" fill-opacity="1" /><path clip-path="url(#clip790)" d="M68.7282 1131.94 L90.2443 1131.94 L90.2443 1137.8 L68.9192 1137.8 Q63.8584 1137.8 61.344 1139.77 Q58.8295 1141.74 58.8295 1145.69 Q58.8295 1150.43 61.8532 1153.17 Q64.8769 1155.91 70.0968 1155.91 L90.2443 1155.91 L90.2443 1161.8 L40.7191 1161.8 L40.7191 1155.91 L60.1345 1155.91 Q56.9198 1153.81 55.3284 1150.97 Q53.737 1148.11 53.737 1144.39 Q53.737 1138.24 57.5564 1135.09 Q61.344 1131.94 68.7282 1131.94 Z" fill="#000000" fill-rule="evenodd" fill-opacity="1" /><path clip-path="url(#clip790)" d="M72.3248 1104.06 Q72.3248 1111.16 73.9481 1113.89 Q75.5713 1116.63 79.4862 1116.63 Q82.6054 1116.63 84.4515 1114.59 Q86.2657 1112.53 86.2657 1108.99 Q86.2657 1104.12 82.8282 1101.19 Q79.3589 1098.23 73.6298 1098.23 L72.3248 1098.23 L72.3248 1104.06 M69.9059 1092.38 L90.2443 1092.38 L90.2443 1098.23 L84.8334 1098.23 Q88.0799 1100.24 89.6395 1103.23 Q91.1673 1106.22 91.1673 1110.55 Q91.1673 1116.03 88.1118 1119.27 Q85.0244 1122.49 79.8682 1122.49 Q73.8526 1122.49 70.797 1118.48 Q67.7415 1114.44 67.7415 1106.45 L67.7415 1098.23 L67.1686 1098.23 Q63.1264 1098.23 60.9302 1100.91 Q58.7022 1103.55 58.7022 1108.36 Q58.7022 1111.41 59.4343 1114.31 Q60.1663 1117.2 61.6304 1119.88 L56.2196 1119.88 Q54.9783 1116.66 54.3735 1113.64 Q53.737 1110.62 53.737 1107.75 Q53.737 1100.02 57.7474 1096.2 Q61.7577 1092.38 69.9059 1092.38 Z" fill="#000000" fill-rule="evenodd" fill-opacity="1" /><path clip-path="url(#clip790)" d="M60.0708 1059.66 Q59.4979 1060.65 59.2433 1061.82 Q58.9568 1062.97 58.9568 1064.37 Q58.9568 1069.33 62.2033 1072.01 Q65.418 1074.65 71.4654 1074.65 L90.2443 1074.65 L90.2443 1080.54 L54.5963 1080.54 L54.5963 1074.65 L60.1345 1074.65 Q56.888 1072.8 55.3284 1069.84 Q53.737 1066.88 53.737 1062.65 Q53.737 1062.05 53.8324 1061.31 Q53.8961 1060.58 54.0552 1059.69 L60.0708 1059.66 Z" fill="#000000" fill-rule="evenodd" fill-opacity="1" /><path clip-path="url(#clip790)" d="M70.9562 1024.46 L73.8208 1024.46 L73.8208 1051.38 Q79.8682 1051 83.051 1047.75 Q86.2021 1044.48 86.2021 1038.65 Q86.2021 1035.28 85.3745 1032.13 Q84.547 1028.94 82.8919 1025.82 L88.4301 1025.82 Q89.7669 1028.98 90.4671 1032.29 Q91.1673 1035.6 91.1673 1039 Q91.1673 1047.53 86.2021 1052.53 Q81.2368 1057.49 72.7704 1057.49 Q64.0176 1057.49 58.8932 1052.78 Q53.737 1048.04 53.737 1040.02 Q53.737 1032.83 58.3839 1028.66 Q62.9991 1024.46 70.9562 1024.46 M69.2375 1030.31 Q64.4313 1030.38 61.5668 1033.02 Q58.7022 1035.63 58.7022 1039.96 Q58.7022 1044.86 61.4713 1047.82 Q64.2404 1050.75 69.2693 1051.19 L69.2375 1030.31 Z" fill="#000000" fill-rule="evenodd" fill-opacity="1" /><path clip-path="url(#clip790)" d="M55.965 968.47 L61.4395 968.47 Q60.0708 970.952 59.4024 973.467 Q58.7022 975.95 58.7022 978.496 Q58.7022 984.193 62.3307 987.344 Q65.9273 990.495 72.4521 990.495 Q78.977 990.495 82.6054 987.344 Q86.2021 984.193 86.2021 978.496 Q86.2021 975.95 85.5337 973.467 Q84.8334 970.952 83.4648 968.47 L88.8757 968.47 Q90.0215 970.921 90.5944 973.562 Q91.1673 976.172 91.1673 979.132 Q91.1673 987.185 86.1066 991.927 Q81.0458 996.67 72.4521 996.67 Q63.7311 996.67 58.734 991.896 Q53.737 987.09 53.737 978.75 Q53.737 976.045 54.3099 973.467 Q54.851 970.889 55.965 968.47 Z" fill="#000000" fill-rule="evenodd" fill-opacity="1" /><path clip-path="url(#clip790)" d="M58.7022 944.471 Q58.7022 949.182 62.3943 951.919 Q66.0546 954.656 72.4521 954.656 Q78.8497 954.656 82.5418 951.951 Q86.2021 949.214 86.2021 944.471 Q86.2021 939.792 82.5099 937.055 Q78.8178 934.318 72.4521 934.318 Q66.1183 934.318 62.4261 937.055 Q58.7022 939.792 58.7022 944.471 M53.737 944.471 Q53.737 936.832 58.7022 932.472 Q63.6675 928.111 72.4521 928.111 Q81.205 928.111 86.2021 932.472 Q91.1673 936.832 91.1673 944.471 Q91.1673 952.142 86.2021 956.502 Q81.205 960.831 72.4521 960.831 Q63.6675 960.831 58.7022 956.502 Q53.737 952.142 53.737 944.471 Z" fill="#000000" fill-rule="evenodd" fill-opacity="1" /><path clip-path="url(#clip790)" d="M76.1761 919.008 L54.5963 919.008 L54.5963 913.152 L75.9533 913.152 Q81.014 913.152 83.5603 911.178 Q86.0747 909.205 86.0747 905.258 Q86.0747 900.516 83.051 897.779 Q80.0273 895.01 74.8074 895.01 L54.5963 895.01 L54.5963 889.153 L90.2443 889.153 L90.2443 895.01 L84.7698 895.01 Q88.0163 897.142 89.6077 899.975 Q91.1673 902.776 91.1673 906.5 Q91.1673 912.643 87.3479 915.825 Q83.5285 919.008 76.1761 919.008 M53.737 904.272 L53.737 904.272 Z" fill="#000000" fill-rule="evenodd" fill-opacity="1" /><path clip-path="url(#clip790)" d="M44.4749 871.297 L54.5963 871.297 L54.5963 859.234 L59.1478 859.234 L59.1478 871.297 L78.4996 871.297 Q82.8601 871.297 84.1014 870.12 Q85.3427 868.91 85.3427 865.25 L85.3427 859.234 L90.2443 859.234 L90.2443 865.25 Q90.2443 872.029 87.7298 874.608 Q85.1835 877.186 78.4996 877.186 L59.1478 877.186 L59.1478 881.482 L54.5963 881.482 L54.5963 877.186 L44.4749 877.186 L44.4749 871.297 Z" fill="#000000" fill-rule="evenodd" fill-opacity="1" /><path clip-path="url(#clip790)" d="M55.6467 828.806 L61.1848 828.806 Q59.9117 831.289 59.2751 833.962 Q58.6386 836.636 58.6386 839.501 Q58.6386 843.861 59.9753 846.057 Q61.3121 848.222 63.9857 848.222 Q66.0228 848.222 67.2004 846.662 Q68.3463 845.102 69.3966 840.392 L69.8422 838.387 Q71.179 832.148 73.6298 829.538 Q76.0488 826.897 80.4093 826.897 Q85.3745 826.897 88.2709 830.843 Q91.1673 834.758 91.1673 841.633 Q91.1673 844.498 90.5944 847.617 Q90.0533 850.704 88.9393 854.142 L82.8919 854.142 Q84.5788 850.895 85.4382 847.744 Q86.2657 844.593 86.2657 841.506 Q86.2657 837.368 84.8653 835.14 Q83.433 832.912 80.8549 832.912 Q78.4677 832.912 77.1946 834.535 Q75.9214 836.127 74.7438 841.569 L74.2664 843.607 Q73.1205 849.049 70.7652 851.468 Q68.3781 853.887 64.2404 853.887 Q59.2115 853.887 56.4742 850.322 Q53.737 846.758 53.737 840.201 Q53.737 836.954 54.2144 834.09 Q54.6918 831.225 55.6467 828.806 Z" fill="#000000" fill-rule="evenodd" fill-opacity="1" /><path clip-path="url(#clip790)" d="M1287.26 18.8205 L1287.26 65.8515 L1297.14 65.8515 Q1309.66 65.8515 1315.45 60.1802 Q1321.29 54.509 1321.29 42.2752 Q1321.29 30.1225 1315.45 24.4918 Q1309.66 18.8205 1297.14 18.8205 L1287.26 18.8205 M1279.07 12.096 L1295.89 12.096 Q1313.47 12.096 1321.69 19.4281 Q1329.91 26.7198 1329.91 42.2752 Q1329.91 57.9117 1321.65 65.2439 Q1313.39 72.576 1295.89 72.576 L1279.07 72.576 L1279.07 12.096 Z" fill="#000000" fill-rule="evenodd" fill-opacity="1" /><path clip-path="url(#clip790)" d="M1342.63 27.2059 L1350.09 27.2059 L1350.09 72.576 L1342.63 72.576 L1342.63 27.2059 M1342.63 9.54393 L1350.09 9.54393 L1350.09 18.9825 L1342.63 18.9825 L1342.63 9.54393 Z" fill="#000000" fill-rule="evenodd" fill-opacity="1" /><path clip-path="url(#clip790)" d="M1394.61 28.5427 L1394.61 35.5912 Q1391.45 33.9709 1388.04 33.1607 Q1384.64 32.3505 1381 32.3505 Q1375.45 32.3505 1372.65 34.0519 Q1369.9 35.7533 1369.9 39.156 Q1369.9 41.7486 1371.88 43.2475 Q1373.87 44.7058 1379.86 46.0426 L1382.41 46.6097 Q1390.35 48.3111 1393.67 51.4303 Q1397.04 54.509 1397.04 60.0587 Q1397.04 66.3781 1392.01 70.0644 Q1387.03 73.7508 1378.28 73.7508 Q1374.64 73.7508 1370.67 73.0216 Q1366.74 72.3329 1362.36 70.9151 L1362.36 63.2184 Q1366.49 65.3654 1370.5 66.4591 Q1374.51 67.5124 1378.44 67.5124 Q1383.71 67.5124 1386.55 65.73 Q1389.38 63.9071 1389.38 60.6258 Q1389.38 57.5877 1387.32 55.9673 Q1385.29 54.3469 1378.36 52.8481 L1375.77 52.2405 Q1368.84 50.7821 1365.76 47.7845 Q1362.69 44.7463 1362.69 39.4801 Q1362.69 33.0797 1367.22 29.5959 Q1371.76 26.1121 1380.1 26.1121 Q1384.24 26.1121 1387.88 26.7198 Q1391.53 27.3274 1394.61 28.5427 Z" fill="#000000" fill-rule="evenodd" fill-opacity="1" /><path clip-path="url(#clip790)" d="M1416.28 14.324 L1416.28 27.2059 L1431.63 27.2059 L1431.63 32.9987 L1416.28 32.9987 L1416.28 57.6282 Q1416.28 63.1779 1417.78 64.7578 Q1419.32 66.3376 1423.98 66.3376 L1431.63 66.3376 L1431.63 72.576 L1423.98 72.576 Q1415.35 72.576 1412.07 69.3758 Q1408.78 66.1351 1408.78 57.6282 L1408.78 32.9987 L1403.32 32.9987 L1403.32 27.2059 L1408.78 27.2059 L1408.78 14.324 L1416.28 14.324 Z" fill="#000000" fill-rule="evenodd" fill-opacity="1" /><path clip-path="url(#clip790)" d="M1467.73 34.1734 Q1466.47 33.4443 1464.97 33.1202 Q1463.51 32.7556 1461.73 32.7556 Q1455.41 32.7556 1452.01 36.8875 Q1448.65 40.9789 1448.65 48.6757 L1448.65 72.576 L1441.15 72.576 L1441.15 27.2059 L1448.65 27.2059 L1448.65 34.2544 Q1451 30.1225 1454.76 28.1376 Q1458.53 26.1121 1463.92 26.1121 Q1464.69 26.1121 1465.62 26.2337 Q1466.55 26.3147 1467.68 26.5172 L1467.73 34.1734 Z" fill="#000000" fill-rule="evenodd" fill-opacity="1" /><path clip-path="url(#clip790)" d="M1475.54 27.2059 L1483 27.2059 L1483 72.576 L1475.54 72.576 L1475.54 27.2059 M1475.54 9.54393 L1483 9.54393 L1483 18.9825 L1475.54 18.9825 L1475.54 9.54393 Z" fill="#000000" fill-rule="evenodd" fill-opacity="1" /><path clip-path="url(#clip790)" d="M1531.16 49.9314 Q1531.16 41.7081 1527.76 37.0496 Q1524.4 32.3505 1518.48 32.3505 Q1512.57 32.3505 1509.17 37.0496 Q1505.8 41.7081 1505.8 49.9314 Q1505.8 58.1548 1509.17 62.8538 Q1512.57 67.5124 1518.48 67.5124 Q1524.4 67.5124 1527.76 62.8538 Q1531.16 58.1548 1531.16 49.9314 M1505.8 34.0924 Q1508.15 30.0415 1511.72 28.0971 Q1515.32 26.1121 1520.31 26.1121 Q1528.57 26.1121 1533.71 32.6746 Q1538.9 39.2371 1538.9 49.9314 Q1538.9 60.6258 1533.71 67.1883 Q1528.57 73.7508 1520.31 73.7508 Q1515.32 73.7508 1511.72 71.8063 Q1508.15 69.8214 1505.8 65.7705 L1505.8 72.576 L1498.31 72.576 L1498.31 9.54393 L1505.8 9.54393 L1505.8 34.0924 Z" fill="#000000" fill-rule="evenodd" fill-opacity="1" /><path clip-path="url(#clip790)" d="M1550.49 54.671 L1550.49 27.2059 L1557.94 27.2059 L1557.94 54.3874 Q1557.94 60.8284 1560.45 64.0691 Q1562.96 67.2693 1567.99 67.2693 Q1574.02 67.2693 1577.5 63.421 Q1581.03 59.5726 1581.03 52.9291 L1581.03 27.2059 L1588.48 27.2059 L1588.48 72.576 L1581.03 72.576 L1581.03 65.6084 Q1578.32 69.7404 1574.71 71.7658 Q1571.15 73.7508 1566.41 73.7508 Q1558.59 73.7508 1554.54 68.8897 Q1550.49 64.0286 1550.49 54.671 M1569.24 26.1121 L1569.24 26.1121 Z" fill="#000000" fill-rule="evenodd" fill-opacity="1" /><path clip-path="url(#clip790)" d="M1611.21 14.324 L1611.21 27.2059 L1626.56 27.2059 L1626.56 32.9987 L1611.21 32.9987 L1611.21 57.6282 Q1611.21 63.1779 1612.71 64.7578 Q1614.25 66.3376 1618.91 66.3376 L1626.56 66.3376 L1626.56 72.576 L1618.91 72.576 Q1610.28 72.576 1607 69.3758 Q1603.71 66.1351 1603.71 57.6282 L1603.71 32.9987 L1598.25 32.9987 L1598.25 27.2059 L1603.71 27.2059 L1603.71 14.324 L1611.21 14.324 Z" fill="#000000" fill-rule="evenodd" fill-opacity="1" /><path clip-path="url(#clip790)" d="M1636.36 27.2059 L1643.82 27.2059 L1643.82 72.576 L1636.36 72.576 L1636.36 27.2059 M1636.36 9.54393 L1643.82 9.54393 L1643.82 18.9825 L1636.36 18.9825 L1636.36 9.54393 Z" fill="#000000" fill-rule="evenodd" fill-opacity="1" /><path clip-path="url(#clip790)" d="M1677 32.4315 Q1671 32.4315 1667.52 37.1306 Q1664.03 41.7891 1664.03 49.9314 Q1664.03 58.0738 1667.48 62.7728 Q1670.96 67.4314 1677 67.4314 Q1682.95 67.4314 1686.43 62.7323 Q1689.92 58.0333 1689.92 49.9314 Q1689.92 41.8701 1686.43 37.1711 Q1682.95 32.4315 1677 32.4315 M1677 26.1121 Q1686.72 26.1121 1692.27 32.4315 Q1697.82 38.7509 1697.82 49.9314 Q1697.82 61.0714 1692.27 67.4314 Q1686.72 73.7508 1677 73.7508 Q1667.23 73.7508 1661.68 67.4314 Q1656.17 61.0714 1656.17 49.9314 Q1656.17 38.7509 1661.68 32.4315 Q1667.23 26.1121 1677 26.1121 Z" fill="#000000" fill-rule="evenodd" fill-opacity="1" /><path clip-path="url(#clip790)" d="M1747.89 45.1919 L1747.89 72.576 L1740.43 72.576 L1740.43 45.4349 Q1740.43 38.994 1737.92 35.7938 Q1735.41 32.5936 1730.39 32.5936 Q1724.35 32.5936 1720.87 36.4419 Q1717.38 40.2903 1717.38 46.9338 L1717.38 72.576 L1709.89 72.576 L1709.89 27.2059 L1717.38 27.2059 L1717.38 34.2544 Q1720.06 30.163 1723.66 28.1376 Q1727.31 26.1121 1732.05 26.1121 Q1739.87 26.1121 1743.88 30.9732 Q1747.89 35.7938 1747.89 45.1919 Z" fill="#000000" fill-rule="evenodd" fill-opacity="1" /><path clip-path="url(#clip790)" d="M1806.71 32.4315 Q1800.71 32.4315 1797.23 37.1306 Q1793.74 41.7891 1793.74 49.9314 Q1793.74 58.0738 1797.19 62.7728 Q1800.67 67.4314 1806.71 67.4314 Q1812.66 67.4314 1816.14 62.7323 Q1819.63 58.0333 1819.63 49.9314 Q1819.63 41.8701 1816.14 37.1711 Q1812.66 32.4315 1806.71 32.4315 M1806.71 26.1121 Q1816.43 26.1121 1821.98 32.4315 Q1827.53 38.7509 1827.53 49.9314 Q1827.53 61.0714 1821.98 67.4314 Q1816.43 73.7508 1806.71 73.7508 Q1796.94 73.7508 1791.39 67.4314 Q1785.88 61.0714 1785.88 49.9314 Q1785.88 38.7509 1791.39 32.4315 Q1796.94 26.1121 1806.71 26.1121 Z" fill="#000000" fill-rule="evenodd" fill-opacity="1" /><path clip-path="url(#clip790)" d="M1862.85 9.54393 L1862.85 15.7418 L1855.72 15.7418 Q1851.71 15.7418 1850.13 17.3622 Q1848.59 18.9825 1848.59 23.1955 L1848.59 27.2059 L1860.87 27.2059 L1860.87 32.9987 L1848.59 32.9987 L1848.59 72.576 L1841.1 72.576 L1841.1 32.9987 L1833.97 32.9987 L1833.97 27.2059 L1841.1 27.2059 L1841.1 24.0462 Q1841.1 16.471 1844.62 13.0277 Q1848.15 9.54393 1855.8 9.54393 L1862.85 9.54393 Z" fill="#000000" fill-rule="evenodd" fill-opacity="1" /><path clip-path="url(#clip790)" d="M1933.17 45.1919 L1933.17 72.576 L1925.72 72.576 L1925.72 45.4349 Q1925.72 38.994 1923.21 35.7938 Q1920.7 32.5936 1915.67 32.5936 Q1909.64 32.5936 1906.15 36.4419 Q1902.67 40.2903 1902.67 46.9338 L1902.67 72.576 L1895.18 72.576 L1895.18 27.2059 L1902.67 27.2059 L1902.67 34.2544 Q1905.34 30.163 1908.95 28.1376 Q1912.6 26.1121 1917.34 26.1121 Q1925.15 26.1121 1929.16 30.9732 Q1933.17 35.7938 1933.17 45.1919 Z" fill="#000000" fill-rule="evenodd" fill-opacity="1" /><path clip-path="url(#clip790)" d="M1986.85 48.0275 L1986.85 51.6733 L1952.58 51.6733 Q1953.06 59.3701 1957.2 63.421 Q1961.37 67.4314 1968.78 67.4314 Q1973.08 67.4314 1977.09 66.3781 Q1981.14 65.3249 1985.11 63.2184 L1985.11 70.267 Q1981.1 71.9684 1976.88 72.8596 Q1972.67 73.7508 1968.34 73.7508 Q1957.48 73.7508 1951.12 67.4314 Q1944.8 61.1119 1944.8 50.3365 Q1944.8 39.1965 1950.8 32.6746 Q1956.83 26.1121 1967.04 26.1121 Q1976.19 26.1121 1981.5 32.0264 Q1986.85 37.9003 1986.85 48.0275 M1979.4 45.84 Q1979.31 39.7232 1975.95 36.0774 Q1972.63 32.4315 1967.12 32.4315 Q1960.88 32.4315 1957.12 35.9558 Q1953.39 39.4801 1952.82 45.8805 L1979.4 45.84 Z" fill="#000000" fill-rule="evenodd" fill-opacity="1" /><path clip-path="url(#clip790)" d="M1994.75 27.2059 L2002.2 27.2059 L2011.52 62.6108 L2020.8 27.2059 L2029.59 27.2059 L2038.9 62.6108 L2048.18 27.2059 L2055.63 27.2059 L2043.76 72.576 L2034.97 72.576 L2025.21 35.3887 L2015.41 72.576 L2006.62 72.576 L1994.75 27.2059 Z" fill="#000000" fill-rule="evenodd" fill-opacity="1" /><path clip-path="url(#clip790)" d="M2125.88 49.9314 Q2125.88 41.7081 2122.47 37.0496 Q2119.11 32.3505 2113.2 32.3505 Q2107.28 32.3505 2103.88 37.0496 Q2100.52 41.7081 2100.52 49.9314 Q2100.52 58.1548 2103.88 62.8538 Q2107.28 67.5124 2113.2 67.5124 Q2119.11 67.5124 2122.47 62.8538 Q2125.88 58.1548 2125.88 49.9314 M2100.52 34.0924 Q2102.87 30.0415 2106.43 28.0971 Q2110.04 26.1121 2115.02 26.1121 Q2123.28 26.1121 2128.43 32.6746 Q2133.61 39.2371 2133.61 49.9314 Q2133.61 60.6258 2128.43 67.1883 Q2123.28 73.7508 2115.02 73.7508 Q2110.04 73.7508 2106.43 71.8063 Q2102.87 69.8214 2100.52 65.7705 L2100.52 72.576 L2093.02 72.576 L2093.02 9.54393 L2100.52 9.54393 L2100.52 34.0924 Z" fill="#000000" fill-rule="evenodd" fill-opacity="1" /><path clip-path="url(#clip790)" d="M2145.97 27.2059 L2153.42 27.2059 L2153.42 72.576 L2145.97 72.576 L2145.97 27.2059 M2145.97 9.54393 L2153.42 9.54393 L2153.42 18.9825 L2145.97 18.9825 L2145.97 9.54393 Z" fill="#000000" fill-rule="evenodd" fill-opacity="1" /><path clip-path="url(#clip790)" d="M2168.73 9.54393 L2176.23 9.54393 L2176.23 46.7717 L2198.47 27.2059 L2207.99 27.2059 L2183.93 48.4326 L2209 72.576 L2199.28 72.576 L2176.23 50.4176 L2176.23 72.576 L2168.73 72.576 L2168.73 9.54393 Z" fill="#000000" fill-rule="evenodd" fill-opacity="1" /><path clip-path="url(#clip790)" d="M2252.91 48.0275 L2252.91 51.6733 L2218.64 51.6733 Q2219.13 59.3701 2223.26 63.421 Q2227.43 67.4314 2234.85 67.4314 Q2239.14 67.4314 2243.15 66.3781 Q2247.2 65.3249 2251.17 63.2184 L2251.17 70.267 Q2247.16 71.9684 2242.95 72.8596 Q2238.73 73.7508 2234.4 73.7508 Q2223.54 73.7508 2217.18 67.4314 Q2210.86 61.1119 2210.86 50.3365 Q2210.86 39.1965 2216.86 32.6746 Q2222.9 26.1121 2233.1 26.1121 Q2242.26 26.1121 2247.57 32.0264 Q2252.91 37.9003 2252.91 48.0275 M2245.46 45.84 Q2245.38 39.7232 2242.02 36.0774 Q2238.69 32.4315 2233.18 32.4315 Q2226.95 32.4315 2223.18 35.9558 Q2219.45 39.4801 2218.88 45.8805 L2245.46 45.84 Z" fill="#000000" fill-rule="evenodd" fill-opacity="1" /><path clip-path="url(#clip790)" d="M2320.44 28.5427 L2320.44 35.5912 Q2317.28 33.9709 2313.88 33.1607 Q2310.48 32.3505 2306.83 32.3505 Q2301.28 32.3505 2298.48 34.0519 Q2295.73 35.7533 2295.73 39.156 Q2295.73 41.7486 2297.72 43.2475 Q2299.7 44.7058 2305.7 46.0426 L2308.25 46.6097 Q2316.19 48.3111 2319.51 51.4303 Q2322.87 54.509 2322.87 60.0587 Q2322.87 66.3781 2317.85 70.0644 Q2312.87 73.7508 2304.12 73.7508 Q2300.47 73.7508 2296.5 73.0216 Q2292.57 72.3329 2288.2 70.9151 L2288.2 63.2184 Q2292.33 65.3654 2296.34 66.4591 Q2300.35 67.5124 2304.28 67.5124 Q2309.54 67.5124 2312.38 65.73 Q2315.22 63.9071 2315.22 60.6258 Q2315.22 57.5877 2313.15 55.9673 Q2311.12 54.3469 2304.2 52.8481 L2301.6 52.2405 Q2294.68 50.7821 2291.6 47.7845 Q2288.52 44.7463 2288.52 39.4801 Q2288.52 33.0797 2293.06 29.5959 Q2297.59 26.1121 2305.94 26.1121 Q2310.07 26.1121 2313.72 26.7198 Q2317.36 27.3274 2320.44 28.5427 Z" fill="#000000" fill-rule="evenodd" fill-opacity="1" /><path clip-path="url(#clip790)" d="M2372.45 45.1919 L2372.45 72.576 L2365 72.576 L2365 45.4349 Q2365 38.994 2362.49 35.7938 Q2359.98 32.5936 2354.95 32.5936 Q2348.92 32.5936 2345.43 36.4419 Q2341.95 40.2903 2341.95 46.9338 L2341.95 72.576 L2334.46 72.576 L2334.46 9.54393 L2341.95 9.54393 L2341.95 34.2544 Q2344.62 30.163 2348.23 28.1376 Q2351.88 26.1121 2356.62 26.1121 Q2364.43 26.1121 2368.44 30.9732 Q2372.45 35.7938 2372.45 45.1919 Z" fill="#000000" fill-rule="evenodd" fill-opacity="1" /><path clip-path="url(#clip790)" d="M2407.94 49.7694 Q2398.91 49.7694 2395.42 51.8354 Q2391.94 53.9013 2391.94 58.8839 Q2391.94 62.8538 2394.53 65.2034 Q2397.16 67.5124 2401.66 67.5124 Q2407.86 67.5124 2411.59 63.1374 Q2415.35 58.7219 2415.35 51.4303 L2415.35 49.7694 L2407.94 49.7694 M2422.81 46.6907 L2422.81 72.576 L2415.35 72.576 L2415.35 65.6895 Q2412.8 69.8214 2408.99 71.8063 Q2405.19 73.7508 2399.68 73.7508 Q2392.71 73.7508 2388.58 69.8619 Q2384.49 65.9325 2384.49 59.3701 Q2384.49 51.7138 2389.59 47.825 Q2394.73 43.9361 2404.9 43.9361 L2415.35 43.9361 L2415.35 43.2069 Q2415.35 38.0623 2411.95 35.2672 Q2408.59 32.4315 2402.47 32.4315 Q2398.58 32.4315 2394.9 33.3632 Q2391.21 34.295 2387.81 36.1584 L2387.81 29.2718 Q2391.9 27.692 2395.75 26.9223 Q2399.6 26.1121 2403.24 26.1121 Q2413.08 26.1121 2417.95 31.2163 Q2422.81 36.3204 2422.81 46.6907 Z" fill="#000000" fill-rule="evenodd" fill-opacity="1" /><path clip-path="url(#clip790)" d="M2464.45 34.1734 Q2463.19 33.4443 2461.7 33.1202 Q2460.24 32.7556 2458.46 32.7556 Q2452.14 32.7556 2448.73 36.8875 Q2445.37 40.9789 2445.37 48.6757 L2445.37 72.576 L2437.88 72.576 L2437.88 27.2059 L2445.37 27.2059 L2445.37 34.2544 Q2447.72 30.1225 2451.49 28.1376 Q2455.25 26.1121 2460.64 26.1121 Q2461.41 26.1121 2462.34 26.2337 Q2463.28 26.3147 2464.41 26.5172 L2464.45 34.1734 Z" fill="#000000" fill-rule="evenodd" fill-opacity="1" /><path clip-path="url(#clip790)" d="M2509.25 48.0275 L2509.25 51.6733 L2474.98 51.6733 Q2475.47 59.3701 2479.6 63.421 Q2483.77 67.4314 2491.19 67.4314 Q2495.48 67.4314 2499.49 66.3781 Q2503.54 65.3249 2507.51 63.2184 L2507.51 70.267 Q2503.5 71.9684 2499.29 72.8596 Q2495.08 73.7508 2490.74 73.7508 Q2479.88 73.7508 2473.52 67.4314 Q2467.21 61.1119 2467.21 50.3365 Q2467.21 39.1965 2473.2 32.6746 Q2479.24 26.1121 2489.44 26.1121 Q2498.6 26.1121 2503.91 32.0264 Q2509.25 37.9003 2509.25 48.0275 M2501.8 45.84 Q2501.72 39.7232 2498.36 36.0774 Q2495.03 32.4315 2489.53 32.4315 Q2483.29 32.4315 2479.52 35.9558 Q2475.79 39.4801 2475.23 45.8805 L2501.8 45.84 Z" fill="#000000" fill-rule="evenodd" fill-opacity="1" /><path clip-path="url(#clip790)" d="M2550.41 28.5427 L2550.41 35.5912 Q2547.25 33.9709 2543.85 33.1607 Q2540.45 32.3505 2536.8 32.3505 Q2531.25 32.3505 2528.45 34.0519 Q2525.7 35.7533 2525.7 39.156 Q2525.7 41.7486 2527.69 43.2475 Q2529.67 44.7058 2535.67 46.0426 L2538.22 46.6097 Q2546.16 48.3111 2549.48 51.4303 Q2552.84 54.509 2552.84 60.0587 Q2552.84 66.3781 2547.82 70.0644 Q2542.84 73.7508 2534.09 73.7508 Q2530.44 73.7508 2526.47 73.0216 Q2522.54 72.3329 2518.17 70.9151 L2518.17 63.2184 Q2522.3 65.3654 2526.31 66.4591 Q2530.32 67.5124 2534.25 67.5124 Q2539.51 67.5124 2542.35 65.73 Q2545.18 63.9071 2545.18 60.6258 Q2545.18 57.5877 2543.12 55.9673 Q2541.09 54.3469 2534.17 52.8481 L2531.57 52.2405 Q2524.65 50.7821 2521.57 47.7845 Q2518.49 44.7463 2518.49 39.4801 Q2518.49 33.0797 2523.03 29.5959 Q2527.56 26.1121 2535.91 26.1121 Q2540.04 26.1121 2543.69 26.7198 Q2547.33 27.3274 2550.41 28.5427 Z" fill="#000000" fill-rule="evenodd" fill-opacity="1" /><path clip-path="url(#clip790)" d="M2591.08 27.2059 L2598.54 27.2059 L2598.54 72.576 L2591.08 72.576 L2591.08 27.2059 M2591.08 9.54393 L2598.54 9.54393 L2598.54 18.9825 L2591.08 18.9825 L2591.08 9.54393 Z" fill="#000000" fill-rule="evenodd" fill-opacity="1" /><path clip-path="url(#clip790)" d="M2651.85 45.1919 L2651.85 72.576 L2644.39 72.576 L2644.39 45.4349 Q2644.39 38.994 2641.88 35.7938 Q2639.37 32.5936 2634.35 32.5936 Q2628.31 32.5936 2624.83 36.4419 Q2621.34 40.2903 2621.34 46.9338 L2621.34 72.576 L2613.85 72.576 L2613.85 27.2059 L2621.34 27.2059 L2621.34 34.2544 Q2624.02 30.163 2627.62 28.1376 Q2631.27 26.1121 2636.01 26.1121 Q2643.82 26.1121 2647.83 30.9732 Q2651.85 35.7938 2651.85 45.1919 Z" fill="#000000" fill-rule="evenodd" fill-opacity="1" /><path clip-path="url(#clip790)" d="M2728.41 35.9153 Q2731.2 30.8922 2735.09 28.5022 Q2738.98 26.1121 2744.25 26.1121 Q2751.34 26.1121 2755.18 31.0947 Q2759.03 36.0368 2759.03 45.1919 L2759.03 72.576 L2751.54 72.576 L2751.54 45.4349 Q2751.54 38.913 2749.23 35.7533 Q2746.92 32.5936 2742.18 32.5936 Q2736.39 32.5936 2733.03 36.4419 Q2729.66 40.2903 2729.66 46.9338 L2729.66 72.576 L2722.17 72.576 L2722.17 45.4349 Q2722.17 38.8725 2719.86 35.7533 Q2717.55 32.5936 2712.73 32.5936 Q2707.02 32.5936 2703.66 36.4824 Q2700.29 40.3308 2700.29 46.9338 L2700.29 72.576 L2692.8 72.576 L2692.8 27.2059 L2700.29 27.2059 L2700.29 34.2544 Q2702.85 30.082 2706.41 28.0971 Q2709.98 26.1121 2714.88 26.1121 Q2719.82 26.1121 2723.26 28.6237 Q2726.75 31.1352 2728.41 35.9153 Z" fill="#000000" fill-rule="evenodd" fill-opacity="1" /><path clip-path="url(#clip790)" d="M2791.48 32.4315 Q2785.48 32.4315 2782 37.1306 Q2778.52 41.7891 2778.52 49.9314 Q2778.52 58.0738 2781.96 62.7728 Q2785.44 67.4314 2791.48 67.4314 Q2797.43 67.4314 2800.92 62.7323 Q2804.4 58.0333 2804.4 49.9314 Q2804.4 41.8701 2800.92 37.1711 Q2797.43 32.4315 2791.48 32.4315 M2791.48 26.1121 Q2801.2 26.1121 2806.75 32.4315 Q2812.3 38.7509 2812.3 49.9314 Q2812.3 61.0714 2806.75 67.4314 Q2801.2 73.7508 2791.48 73.7508 Q2781.72 73.7508 2776.17 67.4314 Q2770.66 61.0714 2770.66 49.9314 Q2770.66 38.7509 2776.17 32.4315 Q2781.72 26.1121 2791.48 26.1121 Z" fill="#000000" fill-rule="evenodd" fill-opacity="1" /><path clip-path="url(#clip790)" d="M2862.37 45.1919 L2862.37 72.576 L2854.92 72.576 L2854.92 45.4349 Q2854.92 38.994 2852.41 35.7938 Q2849.89 32.5936 2844.87 32.5936 Q2838.84 32.5936 2835.35 36.4419 Q2831.87 40.2903 2831.87 46.9338 L2831.87 72.576 L2824.37 72.576 L2824.37 27.2059 L2831.87 27.2059 L2831.87 34.2544 Q2834.54 30.163 2838.15 28.1376 Q2841.79 26.1121 2846.53 26.1121 Q2854.35 26.1121 2858.36 30.9732 Q2862.37 35.7938 2862.37 45.1919 Z" fill="#000000" fill-rule="evenodd" fill-opacity="1" /><path clip-path="url(#clip790)" d="M2884.61 14.324 L2884.61 27.2059 L2899.96 27.2059 L2899.96 32.9987 L2884.61 32.9987 L2884.61 57.6282 Q2884.61 63.1779 2886.11 64.7578 Q2887.65 66.3376 2892.31 66.3376 L2899.96 66.3376 L2899.96 72.576 L2892.31 72.576 Q2883.68 72.576 2880.4 69.3758 Q2877.12 66.1351 2877.12 57.6282 L2877.12 32.9987 L2871.65 32.9987 L2871.65 27.2059 L2877.12 27.2059 L2877.12 14.324 L2884.61 14.324 Z" fill="#000000" fill-rule="evenodd" fill-opacity="1" /><path clip-path="url(#clip790)" d="M2947.48 45.1919 L2947.48 72.576 L2940.03 72.576 L2940.03 45.4349 Q2940.03 38.994 2937.52 35.7938 Q2935 32.5936 2929.98 32.5936 Q2923.94 32.5936 2920.46 36.4419 Q2916.98 40.2903 2916.98 46.9338 L2916.98 72.576 L2909.48 72.576 L2909.48 9.54393 L2916.98 9.54393 L2916.98 34.2544 Q2919.65 30.163 2923.26 28.1376 Q2926.9 26.1121 2931.64 26.1121 Q2939.46 26.1121 2943.47 30.9732 Q2947.48 35.7938 2947.48 45.1919 Z" fill="#000000" fill-rule="evenodd" fill-opacity="1" /><path clip-path="url(#clip792)" d="
M532.211 1154.86 L532.211 2104.36 L746.593 2104.36 L746.593 1154.86 L532.211 1154.86 L532.211 1154.86  Z
  " fill="#009af9" fill-rule="evenodd" fill-opacity="1"/>
<polyline clip-path="url(#clip792)" style="stroke:#000000; stroke-linecap:round; stroke-linejoin:round; stroke-width:4; stroke-opacity:1; fill:none" points="
  532.211,1154.86 532.211,2104.36 746.593,2104.36 746.593,1154.86 532.211,1154.86 
  "/>
<path clip-path="url(#clip792)" d="
M800.189 1092.44 L800.189 2104.36 L1014.57 2104.36 L1014.57 1092.44 L800.189 1092.44 L800.189 1092.44  Z
  " fill="#009af9" fill-rule="evenodd" fill-opacity="1"/>
<polyline clip-path="url(#clip792)" style="stroke:#000000; stroke-linecap:round; stroke-linejoin:round; stroke-width:4; stroke-opacity:1; fill:none" points="
  800.189,1092.44 800.189,2104.36 1014.57,2104.36 1014.57,1092.44 800.189,1092.44 
  "/>
<path clip-path="url(#clip792)" d="
M1068.17 989.572 L1068.17 2104.36 L1282.55 2104.36 L1282.55 989.572 L1068.17 989.572 L1068.17 989.572  Z
  " fill="#009af9" fill-rule="evenodd" fill-opacity="1"/>
<polyline clip-path="url(#clip792)" style="stroke:#000000; stroke-linecap:round; stroke-linejoin:round; stroke-width:4; stroke-opacity:1; fill:none" points="
  1068.17,989.572 1068.17,2104.36 1282.55,2104.36 1282.55,989.572 1068.17,989.572 
  "/>
<path clip-path="url(#clip792)" d="
M1336.14 757.661 L1336.14 2104.36 L1550.53 2104.36 L1550.53 757.661 L1336.14 757.661 L1336.14 757.661  Z
  " fill="#009af9" fill-rule="evenodd" fill-opacity="1"/>
<polyline clip-path="url(#clip792)" style="stroke:#000000; stroke-linecap:round; stroke-linejoin:round; stroke-width:4; stroke-opacity:1; fill:none" points="
  1336.14,757.661 1336.14,2104.36 1550.53,2104.36 1550.53,757.661 1336.14,757.661 
  "/>
<path clip-path="url(#clip792)" d="
M1604.12 561.461 L1604.12 2104.36 L1818.5 2104.36 L1818.5 561.461 L1604.12 561.461 L1604.12 561.461  Z
  " fill="#009af9" fill-rule="evenodd" fill-opacity="1"/>
<polyline clip-path="url(#clip792)" style="stroke:#000000; stroke-linecap:round; stroke-linejoin:round; stroke-width:4; stroke-opacity:1; fill:none" points="
  1604.12,561.461 1604.12,2104.36 1818.5,2104.36 1818.5,561.461 1604.12,561.461 
  "/>
<path clip-path="url(#clip792)" d="
M1872.1 430.47 L1872.1 2104.36 L2086.48 2104.36 L2086.48 430.47 L1872.1 430.47 L1872.1 430.47  Z
  " fill="#009af9" fill-rule="evenodd" fill-opacity="1"/>
<polyline clip-path="url(#clip792)" style="stroke:#000000; stroke-linecap:round; stroke-linejoin:round; stroke-width:4; stroke-opacity:1; fill:none" points="
  1872.1,430.47 1872.1,2104.36 2086.48,2104.36 2086.48,430.47 1872.1,430.47 
  "/>
<path clip-path="url(#clip792)" d="
M2140.08 236.453 L2140.08 2104.36 L2354.46 2104.36 L2354.46 236.453 L2140.08 236.453 L2140.08 236.453  Z
  " fill="#009af9" fill-rule="evenodd" fill-opacity="1"/>
<polyline clip-path="url(#clip792)" style="stroke:#000000; stroke-linecap:round; stroke-linejoin:round; stroke-width:4; stroke-opacity:1; fill:none" points="
  2140.08,236.453 2140.08,2104.36 2354.46,2104.36 2354.46,236.453 2140.08,236.453 
  "/>
<path clip-path="url(#clip792)" d="
M2408.05 333.956 L2408.05 2104.36 L2622.43 2104.36 L2622.43 333.956 L2408.05 333.956 L2408.05 333.956  Z
  " fill="#009af9" fill-rule="evenodd" fill-opacity="1"/>
<polyline clip-path="url(#clip792)" style="stroke:#000000; stroke-linecap:round; stroke-linejoin:round; stroke-width:4; stroke-opacity:1; fill:none" points="
  2408.05,333.956 2408.05,2104.36 2622.43,2104.36 2622.43,333.956 2408.05,333.956 
  "/>
<path clip-path="url(#clip792)" d="
M2676.03 462.847 L2676.03 2104.36 L2890.41 2104.36 L2890.41 462.847 L2676.03 462.847 L2676.03 462.847  Z
  " fill="#009af9" fill-rule="evenodd" fill-opacity="1"/>
<polyline clip-path="url(#clip792)" style="stroke:#000000; stroke-linecap:round; stroke-linejoin:round; stroke-width:4; stroke-opacity:1; fill:none" points="
  2676.03,462.847 2676.03,2104.36 2890.41,2104.36 2890.41,462.847 2676.03,462.847 
  "/>
<path clip-path="url(#clip792)" d="
M2944.01 631.101 L2944.01 2104.36 L3158.39 2104.36 L3158.39 631.101 L2944.01 631.101 L2944.01 631.101  Z
  " fill="#009af9" fill-rule="evenodd" fill-opacity="1"/>
<polyline clip-path="url(#clip792)" style="stroke:#000000; stroke-linecap:round; stroke-linejoin:round; stroke-width:4; stroke-opacity:1; fill:none" points="
  2944.01,631.101 2944.01,2104.36 3158.39,2104.36 3158.39,631.101 2944.01,631.101 
  "/>
<path clip-path="url(#clip792)" d="
M3211.98 935.638 L3211.98 2104.36 L3426.37 2104.36 L3426.37 935.638 L3211.98 935.638 L3211.98 935.638  Z
  " fill="#009af9" fill-rule="evenodd" fill-opacity="1"/>
<polyline clip-path="url(#clip792)" style="stroke:#000000; stroke-linecap:round; stroke-linejoin:round; stroke-width:4; stroke-opacity:1; fill:none" points="
  3211.98,935.638 3211.98,2104.36 3426.37,2104.36 3426.37,935.638 3211.98,935.638 
  "/>
<path clip-path="url(#clip792)" d="
M3479.96 1081.27 L3479.96 2104.36 L3694.34 2104.36 L3694.34 1081.27 L3479.96 1081.27 L3479.96 1081.27  Z
  " fill="#009af9" fill-rule="evenodd" fill-opacity="1"/>
<polyline clip-path="url(#clip792)" style="stroke:#000000; stroke-linecap:round; stroke-linejoin:round; stroke-width:4; stroke-opacity:1; fill:none" points="
  3479.96,1081.27 3479.96,2104.36 3694.34,2104.36 3694.34,1081.27 3479.96,1081.27 
  "/>
<circle clip-path="url(#clip792)" style="fill:#009af9; stroke:none; fill-opacity:0" cx="639.402" cy="1154.86" r="2"/>
<circle clip-path="url(#clip792)" style="fill:#009af9; stroke:none; fill-opacity:0" cx="907.379" cy="1092.44" r="2"/>
<circle clip-path="url(#clip792)" style="fill:#009af9; stroke:none; fill-opacity:0" cx="1175.36" cy="989.572" r="2"/>
<circle clip-path="url(#clip792)" style="fill:#009af9; stroke:none; fill-opacity:0" cx="1443.33" cy="757.661" r="2"/>
<circle clip-path="url(#clip792)" style="fill:#009af9; stroke:none; fill-opacity:0" cx="1711.31" cy="561.461" r="2"/>
<circle clip-path="url(#clip792)" style="fill:#009af9; stroke:none; fill-opacity:0" cx="1979.29" cy="430.47" r="2"/>
<circle clip-path="url(#clip792)" style="fill:#009af9; stroke:none; fill-opacity:0" cx="2247.27" cy="236.453" r="2"/>
<circle clip-path="url(#clip792)" style="fill:#009af9; stroke:none; fill-opacity:0" cx="2515.24" cy="333.956" r="2"/>
<circle clip-path="url(#clip792)" style="fill:#009af9; stroke:none; fill-opacity:0" cx="2783.22" cy="462.847" r="2"/>
<circle clip-path="url(#clip792)" style="fill:#009af9; stroke:none; fill-opacity:0" cx="3051.2" cy="631.101" r="2"/>
<circle clip-path="url(#clip792)" style="fill:#009af9; stroke:none; fill-opacity:0" cx="3319.18" cy="935.638" r="2"/>
<circle clip-path="url(#clip792)" style="fill:#009af9; stroke:none; fill-opacity:0" cx="3587.15" cy="1081.27" r="2"/>
<path clip-path="url(#clip790)" d="
M3184.18 460.256 L3771.33 460.256 L3771.33 246.416 L3184.18 246.416  Z
  " fill="#ffffff" fill-rule="evenodd" fill-opacity="1"/>
<polyline clip-path="url(#clip790)" style="stroke:#000000; stroke-linecap:round; stroke-linejoin:round; stroke-width:4; stroke-opacity:1; fill:none" points="
  3184.18,460.256 3771.33,460.256 3771.33,246.416 3184.18,246.416 3184.18,460.256 
  "/>
<path clip-path="url(#clip790)" d="M3380 293.936 L3389.59 293.936 L3401.71 326.273 L3413.9 293.936 L3423.48 293.936 L3423.48 341.456 L3417.21 341.456 L3417.21 299.728 L3404.96 332.321 L3398.5 332.321 L3386.24 299.728 L3386.24 341.456 L3380 341.456 L3380 293.936 Z" fill="#000000" fill-rule="evenodd" fill-opacity="1" /><path clip-path="url(#clip790)" d="M3449.8 309.913 Q3445.09 309.913 3442.36 313.606 Q3439.62 317.266 3439.62 323.663 Q3439.62 330.061 3442.33 333.753 Q3445.06 337.413 3449.8 337.413 Q3454.48 337.413 3457.22 333.721 Q3459.96 330.029 3459.96 323.663 Q3459.96 317.33 3457.22 313.637 Q3454.48 309.913 3449.8 309.913 M3449.8 304.948 Q3457.44 304.948 3461.8 309.913 Q3466.16 314.879 3466.16 323.663 Q3466.16 332.416 3461.8 337.413 Q3457.44 342.379 3449.8 342.379 Q3442.13 342.379 3437.77 337.413 Q3433.44 332.416 3433.44 323.663 Q3433.44 314.879 3437.77 309.913 Q3442.13 304.948 3449.8 304.948 Z" fill="#000000" fill-rule="evenodd" fill-opacity="1" /><path clip-path="url(#clip790)" d="M3505.5 319.939 L3505.5 341.456 L3499.65 341.456 L3499.65 320.13 Q3499.65 315.07 3497.67 312.555 Q3495.7 310.041 3491.75 310.041 Q3487.01 310.041 3484.28 313.065 Q3481.54 316.088 3481.54 321.308 L3481.54 341.456 L3475.65 341.456 L3475.65 305.808 L3481.54 305.808 L3481.54 311.346 Q3483.64 308.131 3486.47 306.54 Q3489.34 304.948 3493.06 304.948 Q3499.2 304.948 3502.35 308.768 Q3505.5 312.555 3505.5 319.939 Z" fill="#000000" fill-rule="evenodd" fill-opacity="1" /><path clip-path="url(#clip790)" d="M3522.98 295.686 L3522.98 305.808 L3535.04 305.808 L3535.04 310.359 L3522.98 310.359 L3522.98 329.711 Q3522.98 334.071 3524.16 335.313 Q3525.37 336.554 3529.03 336.554 L3535.04 336.554 L3535.04 341.456 L3529.03 341.456 Q3522.25 341.456 3519.67 338.941 Q3517.09 336.395 3517.09 329.711 L3517.09 310.359 L3512.79 310.359 L3512.79 305.808 L3517.09 305.808 L3517.09 295.686 L3522.98 295.686 Z" fill="#000000" fill-rule="evenodd" fill-opacity="1" /><path clip-path="url(#clip790)" d="M3572.38 319.939 L3572.38 341.456 L3566.52 341.456 L3566.52 320.13 Q3566.52 315.07 3564.55 312.555 Q3562.57 310.041 3558.63 310.041 Q3553.88 310.041 3551.15 313.065 Q3548.41 316.088 3548.41 321.308 L3548.41 341.456 L3542.52 341.456 L3542.52 291.93 L3548.41 291.93 L3548.41 311.346 Q3550.51 308.131 3553.34 306.54 Q3556.21 304.948 3559.93 304.948 Q3566.07 304.948 3569.23 308.768 Q3572.38 312.555 3572.38 319.939 Z" fill="#000000" fill-rule="evenodd" fill-opacity="1" /><path clip-path="url(#clip790)" d="
M3223.66 417.488 L3460.53 417.488 L3460.53 360.464 L3223.66 360.464 L3223.66 417.488  Z
  " fill="#009af9" fill-rule="evenodd" fill-opacity="1"/>
<polyline clip-path="url(#clip790)" style="stroke:#000000; stroke-linecap:round; stroke-linejoin:round; stroke-width:4; stroke-opacity:1; fill:none" points="
  3223.66,417.488 3460.53,417.488 3460.53,360.464 3223.66,360.464 3223.66,417.488 
  "/>
<path clip-path="url(#clip790)" d="M3520.51 381.325 L3520.51 385.307 Q3518.71 384.311 3516.88 383.825 Q3515.07 383.316 3513.22 383.316 Q3509.08 383.316 3506.79 385.955 Q3504.5 388.57 3504.5 393.316 Q3504.5 398.061 3506.79 400.7 Q3509.08 403.316 3513.22 403.316 Q3515.07 403.316 3516.88 402.83 Q3518.71 402.32 3520.51 401.325 L3520.51 405.26 Q3518.73 406.094 3516.81 406.51 Q3514.91 406.927 3512.76 406.927 Q3506.9 406.927 3503.45 403.246 Q3500 399.566 3500 393.316 Q3500 386.973 3503.48 383.339 Q3506.97 379.705 3513.04 379.705 Q3515 379.705 3516.88 380.121 Q3518.75 380.515 3520.51 381.325 Z" fill="#000000" fill-rule="evenodd" fill-opacity="1" /><path clip-path="url(#clip790)" d="M3549.47 390.608 L3549.47 406.256 L3545.21 406.256 L3545.21 390.746 Q3545.21 387.066 3543.78 385.237 Q3542.34 383.408 3539.47 383.408 Q3536.02 383.408 3534.03 385.608 Q3532.04 387.807 3532.04 391.603 L3532.04 406.256 L3527.76 406.256 L3527.76 380.33 L3532.04 380.33 L3532.04 384.358 Q3533.57 382.02 3535.63 380.862 Q3537.71 379.705 3540.42 379.705 Q3544.89 379.705 3547.18 382.483 Q3549.47 385.237 3549.47 390.608 Z" fill="#000000" fill-rule="evenodd" fill-opacity="1" /><path clip-path="url(#clip790)" d="M3562.18 372.969 L3562.18 380.33 L3570.95 380.33 L3570.95 383.64 L3562.18 383.64 L3562.18 397.714 Q3562.18 400.885 3563.04 401.788 Q3563.92 402.691 3566.58 402.691 L3570.95 402.691 L3570.95 406.256 L3566.58 406.256 Q3561.65 406.256 3559.77 404.427 Q3557.9 402.575 3557.9 397.714 L3557.9 383.64 L3554.77 383.64 L3554.77 380.33 L3557.9 380.33 L3557.9 372.969 L3562.18 372.969 Z" fill="#000000" fill-rule="evenodd" fill-opacity="1" /></svg>
