<?xml version="1.0" encoding="utf-8"?>
<svg xmlns="http://www.w3.org/2000/svg" xmlns:xlink="http://www.w3.org/1999/xlink" width="600" height="400" viewBox="0 0 2400 1600">
<defs>
  <clipPath id="clip190">
    <rect x="0" y="0" width="2400" height="1600"/>
  </clipPath>
</defs>
<path clip-path="url(#clip190)" d="
M0 1600 L2400 1600 L2400 0 L0 0  Z
  " fill="#ffffff" fill-rule="evenodd" fill-opacity="1"/>
<defs>
  <clipPath id="clip191">
    <rect x="480" y="0" width="1681" height="1600"/>
  </clipPath>
</defs>
<path clip-path="url(#clip190)" d="
M304.699 1423.18 L2352.76 1423.18 L2352.76 47.2441 L304.699 47.2441  Z
  " fill="#ffffff" fill-rule="evenodd" fill-opacity="1"/>
<defs>
  <clipPath id="clip192">
    <rect x="304" y="47" width="2049" height="1377"/>
  </clipPath>
</defs>
<polyline clip-path="url(#clip192)" style="stroke:#000000; stroke-linecap:round; stroke-linejoin:round; stroke-width:2; stroke-opacity:0.1; fill:none" points="
  447.981,1423.18 447.981,47.2441 
  "/>
<polyline clip-path="url(#clip192)" style="stroke:#000000; stroke-linecap:round; stroke-linejoin:round; stroke-width:2; stroke-opacity:0.1; fill:none" points="
  524.567,1423.18 524.567,47.2441 
  "/>
<polyline clip-path="url(#clip192)" style="stroke:#000000; stroke-linecap:round; stroke-linejoin:round; stroke-width:2; stroke-opacity:0.1; fill:none" points="
  601.154,1423.18 601.154,47.2441 
  "/>
<polyline clip-path="url(#clip192)" style="stroke:#000000; stroke-linecap:round; stroke-linejoin:round; stroke-width:2; stroke-opacity:0.1; fill:none" points="
  677.741,1423.18 677.741,47.2441 
  "/>
<polyline clip-path="url(#clip192)" style="stroke:#000000; stroke-linecap:round; stroke-linejoin:round; stroke-width:2; stroke-opacity:0.1; fill:none" points="
  754.327,1423.18 754.327,47.2441 
  "/>
<polyline clip-path="url(#clip192)" style="stroke:#000000; stroke-linecap:round; stroke-linejoin:round; stroke-width:2; stroke-opacity:0.1; fill:none" points="
  830.914,1423.18 830.914,47.2441 
  "/>
<polyline clip-path="url(#clip192)" style="stroke:#000000; stroke-linecap:round; stroke-linejoin:round; stroke-width:2; stroke-opacity:0.1; fill:none" points="
  907.501,1423.18 907.501,47.2441 
  "/>
<polyline clip-path="url(#clip192)" style="stroke:#000000; stroke-linecap:round; stroke-linejoin:round; stroke-width:2; stroke-opacity:0.1; fill:none" points="
  984.088,1423.18 984.088,47.2441 
  "/>
<polyline clip-path="url(#clip192)" style="stroke:#000000; stroke-linecap:round; stroke-linejoin:round; stroke-width:2; stroke-opacity:0.1; fill:none" points="
  1060.67,1423.18 1060.67,47.2441 
  "/>
<polyline clip-path="url(#clip192)" style="stroke:#000000; stroke-linecap:round; stroke-linejoin:round; stroke-width:2; stroke-opacity:0.1; fill:none" points="
  1137.26,1423.18 1137.26,47.2441 
  "/>
<polyline clip-path="url(#clip192)" style="stroke:#000000; stroke-linecap:round; stroke-linejoin:round; stroke-width:2; stroke-opacity:0.1; fill:none" points="
  1213.85,1423.18 1213.85,47.2441 
  "/>
<polyline clip-path="url(#clip192)" style="stroke:#000000; stroke-linecap:round; stroke-linejoin:round; stroke-width:2; stroke-opacity:0.1; fill:none" points="
  1290.43,1423.18 1290.43,47.2441 
  "/>
<polyline clip-path="url(#clip192)" style="stroke:#000000; stroke-linecap:round; stroke-linejoin:round; stroke-width:2; stroke-opacity:0.1; fill:none" points="
  1367.02,1423.18 1367.02,47.2441 
  "/>
<polyline clip-path="url(#clip192)" style="stroke:#000000; stroke-linecap:round; stroke-linejoin:round; stroke-width:2; stroke-opacity:0.1; fill:none" points="
  1443.61,1423.18 1443.61,47.2441 
  "/>
<polyline clip-path="url(#clip192)" style="stroke:#000000; stroke-linecap:round; stroke-linejoin:round; stroke-width:2; stroke-opacity:0.1; fill:none" points="
  1520.19,1423.18 1520.19,47.2441 
  "/>
<polyline clip-path="url(#clip192)" style="stroke:#000000; stroke-linecap:round; stroke-linejoin:round; stroke-width:2; stroke-opacity:0.1; fill:none" points="
  1596.78,1423.18 1596.78,47.2441 
  "/>
<polyline clip-path="url(#clip192)" style="stroke:#000000; stroke-linecap:round; stroke-linejoin:round; stroke-width:2; stroke-opacity:0.1; fill:none" points="
  1673.37,1423.18 1673.37,47.2441 
  "/>
<polyline clip-path="url(#clip192)" style="stroke:#000000; stroke-linecap:round; stroke-linejoin:round; stroke-width:2; stroke-opacity:0.1; fill:none" points="
  1749.95,1423.18 1749.95,47.2441 
  "/>
<polyline clip-path="url(#clip192)" style="stroke:#000000; stroke-linecap:round; stroke-linejoin:round; stroke-width:2; stroke-opacity:0.1; fill:none" points="
  1826.54,1423.18 1826.54,47.2441 
  "/>
<polyline clip-path="url(#clip192)" style="stroke:#000000; stroke-linecap:round; stroke-linejoin:round; stroke-width:2; stroke-opacity:0.1; fill:none" points="
  1903.13,1423.18 1903.13,47.2441 
  "/>
<polyline clip-path="url(#clip192)" style="stroke:#000000; stroke-linecap:round; stroke-linejoin:round; stroke-width:2; stroke-opacity:0.1; fill:none" points="
  1979.71,1423.18 1979.71,47.2441 
  "/>
<polyline clip-path="url(#clip192)" style="stroke:#000000; stroke-linecap:round; stroke-linejoin:round; stroke-width:2; stroke-opacity:0.1; fill:none" points="
  2056.3,1423.18 2056.3,47.2441 
  "/>
<polyline clip-path="url(#clip192)" style="stroke:#000000; stroke-linecap:round; stroke-linejoin:round; stroke-width:2; stroke-opacity:0.1; fill:none" points="
  2132.89,1423.18 2132.89,47.2441 
  "/>
<polyline clip-path="url(#clip192)" style="stroke:#000000; stroke-linecap:round; stroke-linejoin:round; stroke-width:2; stroke-opacity:0.1; fill:none" points="
  2209.47,1423.18 2209.47,47.2441 
  "/>
<polyline clip-path="url(#clip190)" style="stroke:#000000; stroke-linecap:round; stroke-linejoin:round; stroke-width:4; stroke-opacity:1; fill:none" points="
  304.699,1423.18 2352.76,1423.18 
  "/>
<polyline clip-path="url(#clip190)" style="stroke:#000000; stroke-linecap:round; stroke-linejoin:round; stroke-width:4; stroke-opacity:1; fill:none" points="
  447.981,1423.18 447.981,1404.28 
  "/>
<polyline clip-path="url(#clip190)" style="stroke:#000000; stroke-linecap:round; stroke-linejoin:round; stroke-width:4; stroke-opacity:1; fill:none" points="
  524.567,1423.18 524.567,1404.28 
  "/>
<polyline clip-path="url(#clip190)" style="stroke:#000000; stroke-linecap:round; stroke-linejoin:round; stroke-width:4; stroke-opacity:1; fill:none" points="
  601.154,1423.18 601.154,1404.28 
  "/>
<polyline clip-path="url(#clip190)" style="stroke:#000000; stroke-linecap:round; stroke-linejoin:round; stroke-width:4; stroke-opacity:1; fill:none" points="
  677.741,1423.18 677.741,1404.28 
  "/>
<polyline clip-path="url(#clip190)" style="stroke:#000000; stroke-linecap:round; stroke-linejoin:round; stroke-width:4; stroke-opacity:1; fill:none" points="
  754.327,1423.18 754.327,1404.28 
  "/>
<polyline clip-path="url(#clip190)" style="stroke:#000000; stroke-linecap:round; stroke-linejoin:round; stroke-width:4; stroke-opacity:1; fill:none" points="
  830.914,1423.18 830.914,1404.28 
  "/>
<polyline clip-path="url(#clip190)" style="stroke:#000000; stroke-linecap:round; stroke-linejoin:round; stroke-width:4; stroke-opacity:1; fill:none" points="
  907.501,1423.18 907.501,1404.28 
  "/>
<polyline clip-path="url(#clip190)" style="stroke:#000000; stroke-linecap:round; stroke-linejoin:round; stroke-width:4; stroke-opacity:1; fill:none" points="
  984.088,1423.18 984.088,1404.28 
  "/>
<polyline clip-path="url(#clip190)" style="stroke:#000000; stroke-linecap:round; stroke-linejoin:round; stroke-width:4; stroke-opacity:1; fill:none" points="
  1060.67,1423.18 1060.67,1404.28 
  "/>
<polyline clip-path="url(#clip190)" style="stroke:#000000; stroke-linecap:round; stroke-linejoin:round; stroke-width:4; stroke-opacity:1; fill:none" points="
  1137.26,1423.18 1137.26,1404.28 
  "/>
<polyline clip-path="url(#clip190)" style="stroke:#000000; stroke-linecap:round; stroke-linejoin:round; stroke-width:4; stroke-opacity:1; fill:none" points="
  1213.85,1423.18 1213.85,1404.28 
  "/>
<polyline clip-path="url(#clip190)" style="stroke:#000000; stroke-linecap:round; stroke-linejoin:round; stroke-width:4; stroke-opacity:1; fill:none" points="
  1290.43,1423.18 1290.43,1404.28 
  "/>
<polyline clip-path="url(#clip190)" style="stroke:#000000; stroke-linecap:round; stroke-linejoin:round; stroke-width:4; stroke-opacity:1; fill:none" points="
  1367.02,1423.18 1367.02,1404.28 
  "/>
<polyline clip-path="url(#clip190)" style="stroke:#000000; stroke-linecap:round; stroke-linejoin:round; stroke-width:4; stroke-opacity:1; fill:none" points="
  1443.61,1423.18 1443.61,1404.28 
  "/>
<polyline clip-path="url(#clip190)" style="stroke:#000000; stroke-linecap:round; stroke-linejoin:round; stroke-width:4; stroke-opacity:1; fill:none" points="
  1520.19,1423.18 1520.19,1404.28 
  "/>
<polyline clip-path="url(#clip190)" style="stroke:#000000; stroke-linecap:round; stroke-linejoin:round; stroke-width:4; stroke-opacity:1; fill:none" points="
  1596.78,1423.18 1596.78,1404.28 
  "/>
<polyline clip-path="url(#clip190)" style="stroke:#000000; stroke-linecap:round; stroke-linejoin:round; stroke-width:4; stroke-opacity:1; fill:none" points="
  1673.37,1423.18 1673.37,1404.28 
  "/>
<polyline clip-path="url(#clip190)" style="stroke:#000000; stroke-linecap:round; stroke-linejoin:round; stroke-width:4; stroke-opacity:1; fill:none" points="
  1749.95,1423.18 1749.95,1404.28 
  "/>
<polyline clip-path="url(#clip190)" style="stroke:#000000; stroke-linecap:round; stroke-linejoin:round; stroke-width:4; stroke-opacity:1; fill:none" points="
  1826.54,1423.18 1826.54,1404.28 
  "/>
<polyline clip-path="url(#clip190)" style="stroke:#000000; stroke-linecap:round; stroke-linejoin:round; stroke-width:4; stroke-opacity:1; fill:none" points="
  1903.13,1423.18 1903.13,1404.28 
  "/>
<polyline clip-path="url(#clip190)" style="stroke:#000000; stroke-linecap:round; stroke-linejoin:round; stroke-width:4; stroke-opacity:1; fill:none" points="
  1979.71,1423.18 1979.71,1404.28 
  "/>
<polyline clip-path="url(#clip190)" style="stroke:#000000; stroke-linecap:round; stroke-linejoin:round; stroke-width:4; stroke-opacity:1; fill:none" points="
  2056.3,1423.18 2056.3,1404.28 
  "/>
<polyline clip-path="url(#clip190)" style="stroke:#000000; stroke-linecap:round; stroke-linejoin:round; stroke-width:4; stroke-opacity:1; fill:none" points="
  2132.89,1423.18 2132.89,1404.28 
  "/>
<polyline clip-path="url(#clip190)" style="stroke:#000000; stroke-linecap:round; stroke-linejoin:round; stroke-width:4; stroke-opacity:1; fill:none" points="
  2209.47,1423.18 2209.47,1404.28 
  "/>
<path clip-path="url(#clip190)" d="M447.981 1454.1 Q444.37 1454.1 442.541 1457.66 Q440.735 1461.2 440.735 1468.33 Q440.735 1475.44 442.541 1479.01 Q444.37 1482.55 447.981 1482.55 Q451.615 1482.55 453.421 1479.01 Q455.249 1475.44 455.249 1468.33 Q455.249 1461.2 453.421 1457.66 Q451.615 1454.1 447.981 1454.1 M447.981 1450.39 Q453.791 1450.39 456.846 1455 Q459.925 1459.58 459.925 1468.33 Q459.925 1477.06 456.846 1481.67 Q453.791 1486.25 447.981 1486.25 Q442.171 1486.25 439.092 1481.67 Q436.036 1477.06 436.036 1468.33 Q436.036 1459.58 439.092 1455 Q442.171 1450.39 447.981 1450.39 Z" fill="#000000" fill-rule="evenodd" fill-opacity="1" /><path clip-path="url(#clip190)" d="M514.949 1481.64 L522.588 1481.64 L522.588 1455.28 L514.278 1456.95 L514.278 1452.69 L522.542 1451.02 L527.218 1451.02 L527.218 1481.64 L534.857 1481.64 L534.857 1485.58 L514.949 1485.58 L514.949 1481.64 Z" fill="#000000" fill-rule="evenodd" fill-opacity="1" /><path clip-path="url(#clip190)" d="M595.807 1481.64 L612.126 1481.64 L612.126 1485.58 L590.182 1485.58 L590.182 1481.64 Q592.844 1478.89 597.427 1474.26 Q602.034 1469.61 603.214 1468.27 Q605.46 1465.74 606.339 1464.01 Q607.242 1462.25 607.242 1460.56 Q607.242 1457.8 605.298 1456.07 Q603.376 1454.33 600.274 1454.33 Q598.075 1454.33 595.622 1455.09 Q593.191 1455.86 590.413 1457.41 L590.413 1452.69 Q593.237 1451.55 595.691 1450.97 Q598.145 1450.39 600.182 1450.39 Q605.552 1450.39 608.747 1453.08 Q611.941 1455.77 611.941 1460.26 Q611.941 1462.39 611.131 1464.31 Q610.344 1466.2 608.237 1468.8 Q607.659 1469.47 604.557 1472.69 Q601.455 1475.88 595.807 1481.64 Z" fill="#000000" fill-rule="evenodd" fill-opacity="1" /><path clip-path="url(#clip190)" d="M681.988 1466.95 Q685.345 1467.66 687.22 1469.93 Q689.118 1472.2 689.118 1475.53 Q689.118 1480.65 685.6 1483.45 Q682.081 1486.25 675.6 1486.25 Q673.424 1486.25 671.109 1485.81 Q668.817 1485.39 666.364 1484.54 L666.364 1480.02 Q668.308 1481.16 670.623 1481.74 Q672.938 1482.32 675.461 1482.32 Q679.859 1482.32 682.15 1480.58 Q684.465 1478.84 684.465 1475.53 Q684.465 1472.48 682.313 1470.77 Q680.183 1469.03 676.363 1469.03 L672.336 1469.03 L672.336 1465.19 L676.549 1465.19 Q679.998 1465.19 681.826 1463.82 Q683.655 1462.43 683.655 1459.84 Q683.655 1457.18 681.757 1455.77 Q679.882 1454.33 676.363 1454.33 Q674.442 1454.33 672.243 1454.75 Q670.044 1455.16 667.405 1456.04 L667.405 1451.88 Q670.067 1451.14 672.382 1450.77 Q674.72 1450.39 676.78 1450.39 Q682.104 1450.39 685.206 1452.83 Q688.308 1455.23 688.308 1459.35 Q688.308 1462.22 686.664 1464.21 Q685.021 1466.18 681.988 1466.95 Z" fill="#000000" fill-rule="evenodd" fill-opacity="1" /><path clip-path="url(#clip190)" d="M757.337 1455.09 L745.531 1473.54 L757.337 1473.54 L757.337 1455.09 M756.11 1451.02 L761.989 1451.02 L761.989 1473.54 L766.92 1473.54 L766.92 1477.43 L761.989 1477.43 L761.989 1485.58 L757.337 1485.58 L757.337 1477.43 L741.735 1477.43 L741.735 1472.92 L756.11 1451.02 Z" fill="#000000" fill-rule="evenodd" fill-opacity="1" /><path clip-path="url(#clip190)" d="M821.192 1451.02 L839.548 1451.02 L839.548 1454.96 L825.474 1454.96 L825.474 1463.43 Q826.493 1463.08 827.511 1462.92 Q828.53 1462.73 829.548 1462.73 Q835.335 1462.73 838.715 1465.9 Q842.095 1469.08 842.095 1474.49 Q842.095 1480.07 838.622 1483.17 Q835.15 1486.25 828.831 1486.25 Q826.655 1486.25 824.386 1485.88 Q822.141 1485.51 819.734 1484.77 L819.734 1480.07 Q821.817 1481.2 824.039 1481.76 Q826.261 1482.32 828.738 1482.32 Q832.743 1482.32 835.081 1480.21 Q837.419 1478.1 837.419 1474.49 Q837.419 1470.88 835.081 1468.77 Q832.743 1466.67 828.738 1466.67 Q826.863 1466.67 824.988 1467.08 Q823.136 1467.5 821.192 1468.38 L821.192 1451.02 Z" fill="#000000" fill-rule="evenodd" fill-opacity="1" /><path clip-path="url(#clip190)" d="M907.906 1466.44 Q904.758 1466.44 902.906 1468.59 Q901.077 1470.74 901.077 1474.49 Q901.077 1478.22 902.906 1480.39 Q904.758 1482.55 907.906 1482.55 Q911.054 1482.55 912.883 1480.39 Q914.735 1478.22 914.735 1474.49 Q914.735 1470.74 912.883 1468.59 Q911.054 1466.44 907.906 1466.44 M917.188 1451.78 L917.188 1456.04 Q915.429 1455.21 913.623 1454.77 Q911.841 1454.33 910.082 1454.33 Q905.452 1454.33 902.999 1457.45 Q900.568 1460.58 900.221 1466.9 Q901.587 1464.89 903.647 1463.82 Q905.707 1462.73 908.184 1462.73 Q913.392 1462.73 916.401 1465.9 Q919.434 1469.05 919.434 1474.49 Q919.434 1479.82 916.286 1483.03 Q913.137 1486.25 907.906 1486.25 Q901.911 1486.25 898.739 1481.67 Q895.568 1477.06 895.568 1468.33 Q895.568 1460.14 899.457 1455.28 Q903.346 1450.39 909.897 1450.39 Q911.656 1450.39 913.438 1450.74 Q915.244 1451.09 917.188 1451.78 Z" fill="#000000" fill-rule="evenodd" fill-opacity="1" /><path clip-path="url(#clip190)" d="M972.976 1451.02 L995.199 1451.02 L995.199 1453.01 L982.652 1485.58 L977.768 1485.58 L989.574 1454.96 L972.976 1454.96 L972.976 1451.02 Z" fill="#000000" fill-rule="evenodd" fill-opacity="1" /><path clip-path="url(#clip190)" d="M1060.67 1469.17 Q1057.34 1469.17 1055.42 1470.95 Q1053.52 1472.73 1053.52 1475.86 Q1053.52 1478.98 1055.42 1480.77 Q1057.34 1482.55 1060.67 1482.55 Q1064.01 1482.55 1065.93 1480.77 Q1067.85 1478.96 1067.85 1475.86 Q1067.85 1472.73 1065.93 1470.95 Q1064.03 1469.17 1060.67 1469.17 M1056 1467.18 Q1052.99 1466.44 1051.3 1464.38 Q1049.63 1462.32 1049.63 1459.35 Q1049.63 1455.21 1052.57 1452.8 Q1055.54 1450.39 1060.67 1450.39 Q1065.84 1450.39 1068.78 1452.8 Q1071.72 1455.21 1071.72 1459.35 Q1071.72 1462.32 1070.03 1464.38 Q1068.36 1466.44 1065.37 1467.18 Q1068.75 1467.96 1070.63 1470.26 Q1072.53 1472.55 1072.53 1475.86 Q1072.53 1480.88 1069.45 1483.57 Q1066.39 1486.25 1060.67 1486.25 Q1054.96 1486.25 1051.88 1483.57 Q1048.82 1480.88 1048.82 1475.86 Q1048.82 1472.55 1050.72 1470.26 Q1052.62 1467.96 1056 1467.18 M1054.29 1459.79 Q1054.29 1462.48 1055.95 1463.98 Q1057.64 1465.49 1060.67 1465.49 Q1063.68 1465.49 1065.37 1463.98 Q1067.09 1462.48 1067.09 1459.79 Q1067.09 1457.11 1065.37 1455.6 Q1063.68 1454.1 1060.67 1454.1 Q1057.64 1454.1 1055.95 1455.6 Q1054.29 1457.11 1054.29 1459.79 Z" fill="#000000" fill-rule="evenodd" fill-opacity="1" /><path clip-path="url(#clip190)" d="M1127.56 1484.86 L1127.56 1480.6 Q1129.32 1481.44 1131.13 1481.88 Q1132.93 1482.32 1134.67 1482.32 Q1139.3 1482.32 1141.73 1479.21 Q1144.18 1476.09 1144.53 1469.75 Q1143.19 1471.74 1141.13 1472.8 Q1139.07 1473.87 1136.57 1473.87 Q1131.38 1473.87 1128.35 1470.74 Q1125.34 1467.59 1125.34 1462.15 Q1125.34 1456.83 1128.49 1453.61 Q1131.64 1450.39 1136.87 1450.39 Q1142.86 1450.39 1146.01 1455 Q1149.18 1459.58 1149.18 1468.33 Q1149.18 1476.51 1145.29 1481.39 Q1141.43 1486.25 1134.88 1486.25 Q1133.12 1486.25 1131.31 1485.9 Q1129.51 1485.56 1127.56 1484.86 M1136.87 1470.21 Q1140.02 1470.21 1141.84 1468.06 Q1143.7 1465.9 1143.7 1462.15 Q1143.7 1458.43 1141.84 1456.27 Q1140.02 1454.1 1136.87 1454.1 Q1133.72 1454.1 1131.87 1456.27 Q1130.04 1458.43 1130.04 1462.15 Q1130.04 1465.9 1131.87 1468.06 Q1133.72 1470.21 1136.87 1470.21 Z" fill="#000000" fill-rule="evenodd" fill-opacity="1" /><path clip-path="url(#clip190)" d="M1188.54 1481.64 L1196.17 1481.64 L1196.17 1455.28 L1187.86 1456.95 L1187.86 1452.69 L1196.13 1451.02 L1200.8 1451.02 L1200.8 1481.64 L1208.44 1481.64 L1208.44 1485.58 L1188.54 1485.58 L1188.54 1481.64 Z" fill="#000000" fill-rule="evenodd" fill-opacity="1" /><path clip-path="url(#clip190)" d="M1227.89 1454.1 Q1224.28 1454.1 1222.45 1457.66 Q1220.64 1461.2 1220.64 1468.33 Q1220.64 1475.44 1222.45 1479.01 Q1224.28 1482.55 1227.89 1482.55 Q1231.52 1482.55 1233.33 1479.01 Q1235.16 1475.44 1235.16 1468.33 Q1235.16 1461.2 1233.33 1457.66 Q1231.52 1454.1 1227.89 1454.1 M1227.89 1450.39 Q1233.7 1450.39 1236.75 1455 Q1239.83 1459.58 1239.83 1468.33 Q1239.83 1477.06 1236.75 1481.67 Q1233.7 1486.25 1227.89 1486.25 Q1222.08 1486.25 1219 1481.67 Q1215.94 1477.06 1215.94 1468.33 Q1215.94 1459.58 1219 1455 Q1222.08 1450.39 1227.89 1450.39 Z" fill="#000000" fill-rule="evenodd" fill-opacity="1" /><path clip-path="url(#clip190)" d="M1265.74 1481.64 L1273.37 1481.64 L1273.37 1455.28 L1265.06 1456.95 L1265.06 1452.69 L1273.33 1451.02 L1278 1451.02 L1278 1481.64 L1285.64 1481.64 L1285.64 1485.58 L1265.74 1485.58 L1265.74 1481.64 Z" fill="#000000" fill-rule="evenodd" fill-opacity="1" /><path clip-path="url(#clip190)" d="M1295.9 1481.64 L1303.54 1481.64 L1303.54 1455.28 L1295.23 1456.95 L1295.23 1452.69 L1303.49 1451.02 L1308.17 1451.02 L1308.17 1481.64 L1315.8 1481.64 L1315.8 1485.58 L1295.9 1485.58 L1295.9 1481.64 Z" fill="#000000" fill-rule="evenodd" fill-opacity="1" /><path clip-path="url(#clip190)" d="M1342.51 1481.64 L1350.15 1481.64 L1350.15 1455.28 L1341.84 1456.95 L1341.84 1452.69 L1350.1 1451.02 L1354.78 1451.02 L1354.78 1481.64 L1362.41 1481.64 L1362.41 1485.58 L1342.51 1485.58 L1342.51 1481.64 Z" fill="#000000" fill-rule="evenodd" fill-opacity="1" /><path clip-path="url(#clip190)" d="M1375.89 1481.64 L1392.21 1481.64 L1392.21 1485.58 L1370.26 1485.58 L1370.26 1481.64 Q1372.92 1478.89 1377.51 1474.26 Q1382.11 1469.61 1383.29 1468.27 Q1385.54 1465.74 1386.42 1464.01 Q1387.32 1462.25 1387.32 1460.56 Q1387.32 1457.8 1385.38 1456.07 Q1383.46 1454.33 1380.35 1454.33 Q1378.16 1454.33 1375.7 1455.09 Q1373.27 1455.86 1370.49 1457.41 L1370.49 1452.69 Q1373.32 1451.55 1375.77 1450.97 Q1378.22 1450.39 1380.26 1450.39 Q1385.63 1450.39 1388.83 1453.08 Q1392.02 1455.77 1392.02 1460.26 Q1392.02 1462.39 1391.21 1464.31 Q1390.42 1466.2 1388.32 1468.8 Q1387.74 1469.47 1384.64 1472.69 Q1381.53 1475.88 1375.89 1481.64 Z" fill="#000000" fill-rule="evenodd" fill-opacity="1" /><path clip-path="url(#clip190)" d="M1418.62 1481.64 L1426.26 1481.64 L1426.26 1455.28 L1417.95 1456.95 L1417.95 1452.69 L1426.21 1451.02 L1430.89 1451.02 L1430.89 1481.64 L1438.53 1481.64 L1438.53 1485.58 L1418.62 1485.58 L1418.62 1481.64 Z" fill="#000000" fill-rule="evenodd" fill-opacity="1" /><path clip-path="url(#clip190)" d="M1462.14 1466.95 Q1465.49 1467.66 1467.37 1469.93 Q1469.27 1472.2 1469.27 1475.53 Q1469.27 1480.65 1465.75 1483.45 Q1462.23 1486.25 1455.75 1486.25 Q1453.57 1486.25 1451.26 1485.81 Q1448.97 1485.39 1446.51 1484.54 L1446.51 1480.02 Q1448.46 1481.16 1450.77 1481.74 Q1453.09 1482.32 1455.61 1482.32 Q1460.01 1482.32 1462.3 1480.58 Q1464.61 1478.84 1464.61 1475.53 Q1464.61 1472.48 1462.46 1470.77 Q1460.33 1469.03 1456.51 1469.03 L1452.48 1469.03 L1452.48 1465.19 L1456.7 1465.19 Q1460.15 1465.19 1461.98 1463.82 Q1463.8 1462.43 1463.8 1459.84 Q1463.8 1457.18 1461.91 1455.77 Q1460.03 1454.33 1456.51 1454.33 Q1454.59 1454.33 1452.39 1454.75 Q1450.19 1455.16 1447.55 1456.04 L1447.55 1451.88 Q1450.22 1451.14 1452.53 1450.77 Q1454.87 1450.39 1456.93 1450.39 Q1462.25 1450.39 1465.36 1452.83 Q1468.46 1455.23 1468.46 1459.35 Q1468.46 1462.22 1466.81 1464.21 Q1465.17 1466.18 1462.14 1466.95 Z" fill="#000000" fill-rule="evenodd" fill-opacity="1" /><path clip-path="url(#clip190)" d="M1494.64 1481.64 L1502.28 1481.64 L1502.28 1455.28 L1493.97 1456.95 L1493.97 1452.69 L1502.23 1451.02 L1506.91 1451.02 L1506.91 1481.64 L1514.55 1481.64 L1514.55 1485.58 L1494.64 1485.58 L1494.64 1481.64 Z" fill="#000000" fill-rule="evenodd" fill-opacity="1" /><path clip-path="url(#clip190)" d="M1536.84 1455.09 L1525.03 1473.54 L1536.84 1473.54 L1536.84 1455.09 M1535.61 1451.02 L1541.49 1451.02 L1541.49 1473.54 L1546.42 1473.54 L1546.42 1477.43 L1541.49 1477.43 L1541.49 1485.58 L1536.84 1485.58 L1536.84 1477.43 L1521.24 1477.43 L1521.24 1472.92 L1535.61 1451.02 Z" fill="#000000" fill-rule="evenodd" fill-opacity="1" /><path clip-path="url(#clip190)" d="M1571.97 1481.64 L1579.61 1481.64 L1579.61 1455.28 L1571.3 1456.95 L1571.3 1452.69 L1579.56 1451.02 L1584.23 1451.02 L1584.23 1481.64 L1591.87 1481.64 L1591.87 1485.58 L1571.97 1485.58 L1571.97 1481.64 Z" fill="#000000" fill-rule="evenodd" fill-opacity="1" /><path clip-path="url(#clip190)" d="M1601.36 1451.02 L1619.72 1451.02 L1619.72 1454.96 L1605.65 1454.96 L1605.65 1463.43 Q1606.67 1463.08 1607.68 1462.92 Q1608.7 1462.73 1609.72 1462.73 Q1615.51 1462.73 1618.89 1465.9 Q1622.27 1469.08 1622.27 1474.49 Q1622.27 1480.07 1618.79 1483.17 Q1615.32 1486.25 1609 1486.25 Q1606.83 1486.25 1604.56 1485.88 Q1602.31 1485.51 1599.91 1484.77 L1599.91 1480.07 Q1601.99 1481.2 1604.21 1481.76 Q1606.43 1482.32 1608.91 1482.32 Q1612.92 1482.32 1615.25 1480.21 Q1617.59 1478.1 1617.59 1474.49 Q1617.59 1470.88 1615.25 1468.77 Q1612.92 1466.67 1608.91 1466.67 Q1607.04 1466.67 1605.16 1467.08 Q1603.31 1467.5 1601.36 1468.38 L1601.36 1451.02 Z" fill="#000000" fill-rule="evenodd" fill-opacity="1" /><path clip-path="url(#clip190)" d="M1647.97 1481.64 L1655.61 1481.64 L1655.61 1455.28 L1647.3 1456.95 L1647.3 1452.69 L1655.57 1451.02 L1660.24 1451.02 L1660.24 1481.64 L1667.88 1481.64 L1667.88 1485.58 L1647.97 1485.58 L1647.97 1481.64 Z" fill="#000000" fill-rule="evenodd" fill-opacity="1" /><path clip-path="url(#clip190)" d="M1687.9 1466.44 Q1684.76 1466.44 1682.9 1468.59 Q1681.08 1470.74 1681.08 1474.49 Q1681.08 1478.22 1682.9 1480.39 Q1684.76 1482.55 1687.9 1482.55 Q1691.05 1482.55 1692.88 1480.39 Q1694.73 1478.22 1694.73 1474.49 Q1694.73 1470.74 1692.88 1468.59 Q1691.05 1466.44 1687.9 1466.44 M1697.19 1451.78 L1697.19 1456.04 Q1695.43 1455.21 1693.62 1454.77 Q1691.84 1454.33 1690.08 1454.33 Q1685.45 1454.33 1683 1457.45 Q1680.57 1460.58 1680.22 1466.9 Q1681.59 1464.89 1683.65 1463.82 Q1685.71 1462.73 1688.18 1462.73 Q1693.39 1462.73 1696.4 1465.9 Q1699.43 1469.05 1699.43 1474.49 Q1699.43 1479.82 1696.28 1483.03 Q1693.14 1486.25 1687.9 1486.25 Q1681.91 1486.25 1678.74 1481.67 Q1675.57 1477.06 1675.57 1468.33 Q1675.57 1460.14 1679.46 1455.28 Q1683.34 1450.39 1689.9 1450.39 Q1691.65 1450.39 1693.44 1450.74 Q1695.24 1451.09 1697.19 1451.78 Z" fill="#000000" fill-rule="evenodd" fill-opacity="1" /><path clip-path="url(#clip190)" d="M1725.09 1481.64 L1732.73 1481.64 L1732.73 1455.28 L1724.42 1456.95 L1724.42 1452.69 L1732.69 1451.02 L1737.36 1451.02 L1737.36 1481.64 L1745 1481.64 L1745 1485.58 L1725.09 1485.58 L1725.09 1481.64 Z" fill="#000000" fill-rule="evenodd" fill-opacity="1" /><path clip-path="url(#clip190)" d="M1753.26 1451.02 L1775.49 1451.02 L1775.49 1453.01 L1762.94 1485.58 L1758.06 1485.58 L1769.86 1454.96 L1753.26 1454.96 L1753.26 1451.02 Z" fill="#000000" fill-rule="evenodd" fill-opacity="1" /><path clip-path="url(#clip190)" d="M1801.27 1481.64 L1808.91 1481.64 L1808.91 1455.28 L1800.6 1456.95 L1800.6 1452.69 L1808.87 1451.02 L1813.54 1451.02 L1813.54 1481.64 L1821.18 1481.64 L1821.18 1485.58 L1801.27 1485.58 L1801.27 1481.64 Z" fill="#000000" fill-rule="evenodd" fill-opacity="1" /><path clip-path="url(#clip190)" d="M1840.63 1469.17 Q1837.29 1469.17 1835.37 1470.95 Q1833.47 1472.73 1833.47 1475.86 Q1833.47 1478.98 1835.37 1480.77 Q1837.29 1482.55 1840.63 1482.55 Q1843.96 1482.55 1845.88 1480.77 Q1847.8 1478.96 1847.8 1475.86 Q1847.8 1472.73 1845.88 1470.95 Q1843.98 1469.17 1840.63 1469.17 M1835.95 1467.18 Q1832.94 1466.44 1831.25 1464.38 Q1829.59 1462.32 1829.59 1459.35 Q1829.59 1455.21 1832.52 1452.8 Q1835.49 1450.39 1840.63 1450.39 Q1845.79 1450.39 1848.73 1452.8 Q1851.67 1455.21 1851.67 1459.35 Q1851.67 1462.32 1849.98 1464.38 Q1848.31 1466.44 1845.33 1467.18 Q1848.71 1467.96 1850.58 1470.26 Q1852.48 1472.55 1852.48 1475.86 Q1852.48 1480.88 1849.4 1483.57 Q1846.34 1486.25 1840.63 1486.25 Q1834.91 1486.25 1831.83 1483.57 Q1828.77 1480.88 1828.77 1475.86 Q1828.77 1472.55 1830.67 1470.26 Q1832.57 1467.96 1835.95 1467.18 M1834.24 1459.79 Q1834.24 1462.48 1835.9 1463.98 Q1837.59 1465.49 1840.63 1465.49 Q1843.64 1465.49 1845.33 1463.98 Q1847.04 1462.48 1847.04 1459.79 Q1847.04 1457.11 1845.33 1455.6 Q1843.64 1454.1 1840.63 1454.1 Q1837.59 1454.1 1835.9 1455.6 Q1834.24 1457.11 1834.24 1459.79 Z" fill="#000000" fill-rule="evenodd" fill-opacity="1" /><path clip-path="url(#clip190)" d="M1877.91 1481.64 L1885.55 1481.64 L1885.55 1455.28 L1877.24 1456.95 L1877.24 1452.69 L1885.5 1451.02 L1890.18 1451.02 L1890.18 1481.64 L1897.82 1481.64 L1897.82 1485.58 L1877.91 1485.58 L1877.91 1481.64 Z" fill="#000000" fill-rule="evenodd" fill-opacity="1" /><path clip-path="url(#clip190)" d="M1907.4 1484.86 L1907.4 1480.6 Q1909.16 1481.44 1910.96 1481.88 Q1912.77 1482.32 1914.5 1482.32 Q1919.13 1482.32 1921.57 1479.21 Q1924.02 1476.09 1924.37 1469.75 Q1923.02 1471.74 1920.96 1472.8 Q1918.9 1473.87 1916.4 1473.87 Q1911.22 1473.87 1908.19 1470.74 Q1905.18 1467.59 1905.18 1462.15 Q1905.18 1456.83 1908.32 1453.61 Q1911.47 1450.39 1916.7 1450.39 Q1922.7 1450.39 1925.85 1455 Q1929.02 1459.58 1929.02 1468.33 Q1929.02 1476.51 1925.13 1481.39 Q1921.26 1486.25 1914.71 1486.25 Q1912.95 1486.25 1911.15 1485.9 Q1909.34 1485.56 1907.4 1484.86 M1916.7 1470.21 Q1919.85 1470.21 1921.68 1468.06 Q1923.53 1465.9 1923.53 1462.15 Q1923.53 1458.43 1921.68 1456.27 Q1919.85 1454.1 1916.7 1454.1 Q1913.56 1454.1 1911.7 1456.27 Q1909.88 1458.43 1909.88 1462.15 Q1909.88 1465.9 1911.7 1468.06 Q1913.56 1470.21 1916.7 1470.21 Z" fill="#000000" fill-rule="evenodd" fill-opacity="1" /><path clip-path="url(#clip190)" d="M1958.49 1481.64 L1974.81 1481.64 L1974.81 1485.58 L1952.86 1485.58 L1952.86 1481.64 Q1955.52 1478.89 1960.11 1474.26 Q1964.71 1469.61 1965.9 1468.27 Q1968.14 1465.74 1969.02 1464.01 Q1969.92 1462.25 1969.92 1460.56 Q1969.92 1457.8 1967.98 1456.07 Q1966.06 1454.33 1962.96 1454.33 Q1960.76 1454.33 1958.3 1455.09 Q1955.87 1455.86 1953.09 1457.41 L1953.09 1452.69 Q1955.92 1451.55 1958.37 1450.97 Q1960.83 1450.39 1962.86 1450.39 Q1968.23 1450.39 1971.43 1453.08 Q1974.62 1455.77 1974.62 1460.26 Q1974.62 1462.39 1973.81 1464.31 Q1973.02 1466.2 1970.92 1468.8 Q1970.34 1469.47 1967.24 1472.69 Q1964.14 1475.88 1958.49 1481.64 Z" fill="#000000" fill-rule="evenodd" fill-opacity="1" /><path clip-path="url(#clip190)" d="M1994.62 1454.1 Q1991.01 1454.1 1989.18 1457.66 Q1987.38 1461.2 1987.38 1468.33 Q1987.38 1475.44 1989.18 1479.01 Q1991.01 1482.55 1994.62 1482.55 Q1998.26 1482.55 2000.06 1479.01 Q2001.89 1475.44 2001.89 1468.33 Q2001.89 1461.2 2000.06 1457.66 Q1998.26 1454.1 1994.62 1454.1 M1994.62 1450.39 Q2000.43 1450.39 2003.49 1455 Q2006.57 1459.58 2006.57 1468.33 Q2006.57 1477.06 2003.49 1481.67 Q2000.43 1486.25 1994.62 1486.25 Q1988.81 1486.25 1985.73 1481.67 Q1982.68 1477.06 1982.68 1468.33 Q1982.68 1459.58 1985.73 1455 Q1988.81 1450.39 1994.62 1450.39 Z" fill="#000000" fill-rule="evenodd" fill-opacity="1" /><path clip-path="url(#clip190)" d="M2035.69 1481.64 L2052.01 1481.64 L2052.01 1485.58 L2030.06 1485.58 L2030.06 1481.64 Q2032.72 1478.89 2037.31 1474.26 Q2041.91 1469.61 2043.1 1468.27 Q2045.34 1465.74 2046.22 1464.01 Q2047.12 1462.25 2047.12 1460.56 Q2047.12 1457.8 2045.18 1456.07 Q2043.26 1454.33 2040.16 1454.33 Q2037.96 1454.33 2035.5 1455.09 Q2033.07 1455.86 2030.29 1457.41 L2030.29 1452.69 Q2033.12 1451.55 2035.57 1450.97 Q2038.03 1450.39 2040.06 1450.39 Q2045.43 1450.39 2048.63 1453.08 Q2051.82 1455.77 2051.82 1460.26 Q2051.82 1462.39 2051.01 1464.31 Q2050.22 1466.2 2048.12 1468.8 Q2047.54 1469.47 2044.44 1472.69 Q2041.34 1475.88 2035.69 1481.64 Z" fill="#000000" fill-rule="evenodd" fill-opacity="1" /><path clip-path="url(#clip190)" d="M2062.63 1481.64 L2070.27 1481.64 L2070.27 1455.28 L2061.96 1456.95 L2061.96 1452.69 L2070.22 1451.02 L2074.9 1451.02 L2074.9 1481.64 L2082.54 1481.64 L2082.54 1485.58 L2062.63 1485.58 L2062.63 1481.64 Z" fill="#000000" fill-rule="evenodd" fill-opacity="1" /><path clip-path="url(#clip190)" d="M2112.46 1481.64 L2128.78 1481.64 L2128.78 1485.58 L2106.83 1485.58 L2106.83 1481.64 Q2109.5 1478.89 2114.08 1474.26 Q2118.69 1469.61 2119.87 1468.27 Q2122.11 1465.74 2122.99 1464.01 Q2123.89 1462.25 2123.89 1460.56 Q2123.89 1457.8 2121.95 1456.07 Q2120.03 1454.33 2116.93 1454.33 Q2114.73 1454.33 2112.27 1455.09 Q2109.84 1455.86 2107.07 1457.41 L2107.07 1452.69 Q2109.89 1451.55 2112.34 1450.97 Q2114.8 1450.39 2116.83 1450.39 Q2122.2 1450.39 2125.4 1453.08 Q2128.59 1455.77 2128.59 1460.26 Q2128.59 1462.39 2127.78 1464.31 Q2127 1466.2 2124.89 1468.8 Q2124.31 1469.47 2121.21 1472.69 Q2118.11 1475.88 2112.46 1481.64 Z" fill="#000000" fill-rule="evenodd" fill-opacity="1" /><path clip-path="url(#clip190)" d="M2142.62 1481.64 L2158.94 1481.64 L2158.94 1485.58 L2137 1485.58 L2137 1481.64 Q2139.66 1478.89 2144.24 1474.26 Q2148.85 1469.61 2150.03 1468.27 Q2152.27 1465.74 2153.15 1464.01 Q2154.06 1462.25 2154.06 1460.56 Q2154.06 1457.8 2152.11 1456.07 Q2150.19 1454.33 2147.09 1454.33 Q2144.89 1454.33 2142.44 1455.09 Q2140.01 1455.86 2137.23 1457.41 L2137.23 1452.69 Q2140.05 1451.55 2142.51 1450.97 Q2144.96 1450.39 2147 1450.39 Q2152.37 1450.39 2155.56 1453.08 Q2158.76 1455.77 2158.76 1460.26 Q2158.76 1462.39 2157.95 1464.31 Q2157.16 1466.2 2155.05 1468.8 Q2154.47 1469.47 2151.37 1472.69 Q2148.27 1475.88 2142.62 1481.64 Z" fill="#000000" fill-rule="evenodd" fill-opacity="1" /><path clip-path="url(#clip190)" d="M2188.57 1481.64 L2204.89 1481.64 L2204.89 1485.58 L2182.95 1485.58 L2182.95 1481.64 Q2185.61 1478.89 2190.19 1474.26 Q2194.8 1469.61 2195.98 1468.27 Q2198.22 1465.74 2199.1 1464.01 Q2200.01 1462.25 2200.01 1460.56 Q2200.01 1457.8 2198.06 1456.07 Q2196.14 1454.33 2193.04 1454.33 Q2190.84 1454.33 2188.39 1455.09 Q2185.96 1455.86 2183.18 1457.41 L2183.18 1452.69 Q2186 1451.55 2188.46 1450.97 Q2190.91 1450.39 2192.95 1450.39 Q2198.32 1450.39 2201.51 1453.08 Q2204.71 1455.77 2204.71 1460.26 Q2204.71 1462.39 2203.9 1464.31 Q2203.11 1466.2 2201 1468.8 Q2200.42 1469.47 2197.32 1472.69 Q2194.22 1475.88 2188.57 1481.64 Z" fill="#000000" fill-rule="evenodd" fill-opacity="1" /><path clip-path="url(#clip190)" d="M2228.87 1466.95 Q2232.23 1467.66 2234.1 1469.93 Q2236 1472.2 2236 1475.53 Q2236 1480.65 2232.48 1483.45 Q2228.97 1486.25 2222.48 1486.25 Q2220.31 1486.25 2217.99 1485.81 Q2215.7 1485.39 2213.25 1484.54 L2213.25 1480.02 Q2215.19 1481.16 2217.51 1481.74 Q2219.82 1482.32 2222.34 1482.32 Q2226.74 1482.32 2229.03 1480.58 Q2231.35 1478.84 2231.35 1475.53 Q2231.35 1472.48 2229.2 1470.77 Q2227.07 1469.03 2223.25 1469.03 L2219.22 1469.03 L2219.22 1465.19 L2223.43 1465.19 Q2226.88 1465.19 2228.71 1463.82 Q2230.54 1462.43 2230.54 1459.84 Q2230.54 1457.18 2228.64 1455.77 Q2226.77 1454.33 2223.25 1454.33 Q2221.33 1454.33 2219.13 1454.75 Q2216.93 1455.16 2214.29 1456.04 L2214.29 1451.88 Q2216.95 1451.14 2219.27 1450.77 Q2221.6 1450.39 2223.66 1450.39 Q2228.99 1450.39 2232.09 1452.83 Q2235.19 1455.23 2235.19 1459.35 Q2235.19 1462.22 2233.55 1464.21 Q2231.9 1466.18 2228.87 1466.95 Z" fill="#000000" fill-rule="evenodd" fill-opacity="1" /><path clip-path="url(#clip190)" d="M976.624 1520.52 L983.054 1520.52 L983.054 1540 L1006.42 1540 L1006.42 1520.52 L1012.85 1520.52 L1012.85 1568.04 L1006.42 1568.04 L1006.42 1545.41 L983.054 1545.41 L983.054 1568.04 L976.624 1568.04 L976.624 1520.52 Z" fill="#000000" fill-rule="evenodd" fill-opacity="1" /><path clip-path="url(#clip190)" d="M1039.2 1536.5 Q1034.49 1536.5 1031.75 1540.19 Q1029.01 1543.85 1029.01 1550.25 Q1029.01 1556.65 1031.72 1560.34 Q1034.46 1564 1039.2 1564 Q1043.88 1564 1046.62 1560.31 Q1049.35 1556.62 1049.35 1550.25 Q1049.35 1543.92 1046.62 1540.23 Q1043.88 1536.5 1039.2 1536.5 M1039.2 1531.54 Q1046.84 1531.54 1051.2 1536.5 Q1055.56 1541.47 1055.56 1550.25 Q1055.56 1559 1051.2 1564 Q1046.84 1568.97 1039.2 1568.97 Q1031.53 1568.97 1027.17 1564 Q1022.84 1559 1022.84 1550.25 Q1022.84 1541.47 1027.17 1536.5 Q1031.53 1531.54 1039.2 1531.54 Z" fill="#000000" fill-rule="evenodd" fill-opacity="1" /><path clip-path="url(#clip190)" d="M1064.66 1553.98 L1064.66 1532.4 L1070.52 1532.4 L1070.52 1553.75 Q1070.52 1558.81 1072.49 1561.36 Q1074.47 1563.87 1078.41 1563.87 Q1083.15 1563.87 1085.89 1560.85 Q1088.66 1557.83 1088.66 1552.61 L1088.66 1532.4 L1094.52 1532.4 L1094.52 1568.04 L1088.66 1568.04 L1088.66 1562.57 Q1086.53 1565.82 1083.7 1567.41 Q1080.89 1568.97 1077.17 1568.97 Q1071.03 1568.97 1067.85 1565.15 Q1064.66 1561.33 1064.66 1553.98 M1079.4 1531.54 L1079.4 1531.54 Z" fill="#000000" fill-rule="evenodd" fill-opacity="1" /><path clip-path="url(#clip190)" d="M1127.24 1537.87 Q1126.25 1537.3 1125.07 1537.04 Q1123.93 1536.76 1122.53 1536.76 Q1117.56 1536.76 1114.89 1540 Q1112.25 1543.22 1112.25 1549.27 L1112.25 1568.04 L1106.36 1568.04 L1106.36 1532.4 L1112.25 1532.4 L1112.25 1537.93 Q1114.09 1534.69 1117.05 1533.13 Q1120.01 1531.54 1124.25 1531.54 Q1124.85 1531.54 1125.58 1531.63 Q1126.31 1531.7 1127.21 1531.85 L1127.24 1537.87 Z" fill="#000000" fill-rule="evenodd" fill-opacity="1" /><path clip-path="url(#clip190)" d="M1133.38 1518.52 L1139.24 1518.52 L1139.24 1568.04 L1133.38 1568.04 L1133.38 1518.52 Z" fill="#000000" fill-rule="evenodd" fill-opacity="1" /><path clip-path="url(#clip190)" d="M1166.32 1571.35 Q1163.84 1577.72 1161.48 1579.66 Q1159.13 1581.6 1155.18 1581.6 L1150.5 1581.6 L1150.5 1576.7 L1153.94 1576.7 Q1156.36 1576.7 1157.7 1575.56 Q1159.03 1574.41 1160.66 1570.14 L1161.71 1567.47 L1147.29 1532.4 L1153.5 1532.4 L1164.64 1560.28 L1175.78 1532.4 L1181.98 1532.4 L1166.32 1571.35 Z" fill="#000000" fill-rule="evenodd" fill-opacity="1" /><path clip-path="url(#clip190)" d="M1210.18 1553.98 L1210.18 1532.4 L1216.04 1532.4 L1216.04 1553.75 Q1216.04 1558.81 1218.01 1561.36 Q1219.99 1563.87 1223.93 1563.87 Q1228.67 1563.87 1231.41 1560.85 Q1234.18 1557.83 1234.18 1552.61 L1234.18 1532.4 L1240.04 1532.4 L1240.04 1568.04 L1234.18 1568.04 L1234.18 1562.57 Q1232.05 1565.82 1229.22 1567.41 Q1226.41 1568.97 1222.69 1568.97 Q1216.55 1568.97 1213.37 1565.15 Q1210.18 1561.33 1210.18 1553.98 M1224.92 1531.54 L1224.92 1531.54 Z" fill="#000000" fill-rule="evenodd" fill-opacity="1" /><path clip-path="url(#clip190)" d="M1274.83 1533.45 L1274.83 1538.98 Q1272.34 1537.71 1269.67 1537.07 Q1267 1536.44 1264.13 1536.44 Q1259.77 1536.44 1257.57 1537.77 Q1255.41 1539.11 1255.41 1541.79 Q1255.41 1543.82 1256.97 1545 Q1258.53 1546.15 1263.24 1547.2 L1265.25 1547.64 Q1271.48 1548.98 1274.09 1551.43 Q1276.74 1553.85 1276.74 1558.21 Q1276.74 1563.17 1272.79 1566.07 Q1268.87 1568.97 1262 1568.97 Q1259.13 1568.97 1256.02 1568.39 Q1252.93 1567.85 1249.49 1566.74 L1249.49 1560.69 Q1252.74 1562.38 1255.89 1563.24 Q1259.04 1564.07 1262.13 1564.07 Q1266.26 1564.07 1268.49 1562.66 Q1270.72 1561.23 1270.72 1558.65 Q1270.72 1556.27 1269.1 1554.99 Q1267.51 1553.72 1262.06 1552.54 L1260.03 1552.07 Q1254.58 1550.92 1252.16 1548.56 Q1249.75 1546.18 1249.75 1542.04 Q1249.75 1537.01 1253.31 1534.27 Q1256.87 1531.54 1263.43 1531.54 Q1266.68 1531.54 1269.54 1532.01 Q1272.41 1532.49 1274.83 1533.45 Z" fill="#000000" fill-rule="evenodd" fill-opacity="1" /><path clip-path="url(#clip190)" d="M1302.26 1550.12 Q1295.16 1550.12 1292.43 1551.75 Q1289.69 1553.37 1289.69 1557.29 Q1289.69 1560.4 1291.73 1562.25 Q1293.8 1564.07 1297.33 1564.07 Q1302.2 1564.07 1305.13 1560.63 Q1308.09 1557.16 1308.09 1551.43 L1308.09 1550.12 L1302.26 1550.12 M1313.94 1547.71 L1313.94 1568.04 L1308.09 1568.04 L1308.09 1562.63 Q1306.08 1565.88 1303.09 1567.44 Q1300.1 1568.97 1295.77 1568.97 Q1290.29 1568.97 1287.05 1565.91 Q1283.83 1562.82 1283.83 1557.67 Q1283.83 1551.65 1287.84 1548.6 Q1291.89 1545.54 1299.88 1545.54 L1308.09 1545.54 L1308.09 1544.97 Q1308.09 1540.93 1305.41 1538.73 Q1302.77 1536.5 1297.97 1536.5 Q1294.91 1536.5 1292.01 1537.23 Q1289.12 1537.97 1286.44 1539.43 L1286.44 1534.02 Q1289.66 1532.78 1292.68 1532.17 Q1295.71 1531.54 1298.57 1531.54 Q1306.3 1531.54 1310.12 1535.55 Q1313.94 1539.56 1313.94 1547.71 Z" fill="#000000" fill-rule="evenodd" fill-opacity="1" /><path clip-path="url(#clip190)" d="M1349.46 1549.81 Q1349.46 1543.44 1346.82 1539.94 Q1344.21 1536.44 1339.47 1536.44 Q1334.76 1536.44 1332.12 1539.94 Q1329.51 1543.44 1329.51 1549.81 Q1329.51 1556.14 1332.12 1559.64 Q1334.76 1563.14 1339.47 1563.14 Q1344.21 1563.14 1346.82 1559.64 Q1349.46 1556.14 1349.46 1549.81 M1355.32 1563.62 Q1355.32 1572.72 1351.28 1577.15 Q1347.24 1581.6 1338.9 1581.6 Q1335.81 1581.6 1333.07 1581.13 Q1330.33 1580.68 1327.76 1579.72 L1327.76 1574.03 Q1330.33 1575.43 1332.85 1576.1 Q1335.36 1576.76 1337.97 1576.76 Q1343.73 1576.76 1346.6 1573.74 Q1349.46 1570.75 1349.46 1564.67 L1349.46 1561.77 Q1347.65 1564.92 1344.82 1566.48 Q1341.98 1568.04 1338.04 1568.04 Q1331.48 1568.04 1327.47 1563.05 Q1323.46 1558.05 1323.46 1549.81 Q1323.46 1541.53 1327.47 1536.53 Q1331.48 1531.54 1338.04 1531.54 Q1341.98 1531.54 1344.82 1533.1 Q1347.65 1534.66 1349.46 1537.81 L1349.46 1532.4 L1355.32 1532.4 L1355.32 1563.62 Z" fill="#000000" fill-rule="evenodd" fill-opacity="1" /><path clip-path="url(#clip190)" d="M1397.88 1548.76 L1397.88 1551.62 L1370.95 1551.62 Q1371.33 1557.67 1374.58 1560.85 Q1377.85 1564 1383.68 1564 Q1387.05 1564 1390.2 1563.17 Q1393.39 1562.35 1396.51 1560.69 L1396.51 1566.23 Q1393.36 1567.57 1390.05 1568.27 Q1386.74 1568.97 1383.33 1568.97 Q1374.8 1568.97 1369.8 1564 Q1364.84 1559.04 1364.84 1550.57 Q1364.84 1541.82 1369.55 1536.69 Q1374.29 1531.54 1382.31 1531.54 Q1389.5 1531.54 1393.67 1536.18 Q1397.88 1540.8 1397.88 1548.76 M1392.02 1547.04 Q1391.95 1542.23 1389.31 1539.37 Q1386.7 1536.5 1382.37 1536.5 Q1377.47 1536.5 1374.51 1539.27 Q1371.58 1542.04 1371.14 1547.07 L1392.02 1547.04 Z" fill="#000000" fill-rule="evenodd" fill-opacity="1" /><path clip-path="url(#clip190)" d="M1428.21 1532.4 L1434.06 1532.4 L1434.06 1568.04 L1428.21 1568.04 L1428.21 1532.4 M1428.21 1518.52 L1434.06 1518.52 L1434.06 1525.93 L1428.21 1525.93 L1428.21 1518.52 Z" fill="#000000" fill-rule="evenodd" fill-opacity="1" /><path clip-path="url(#clip190)" d="M1475.95 1546.53 L1475.95 1568.04 L1470.09 1568.04 L1470.09 1546.72 Q1470.09 1541.66 1468.12 1539.14 Q1466.15 1536.63 1462.2 1536.63 Q1457.46 1536.63 1454.72 1539.65 Q1451.98 1542.68 1451.98 1547.9 L1451.98 1568.04 L1446.1 1568.04 L1446.1 1532.4 L1451.98 1532.4 L1451.98 1537.93 Q1454.08 1534.72 1456.92 1533.13 Q1459.78 1531.54 1463.51 1531.54 Q1469.65 1531.54 1472.8 1535.36 Q1475.95 1539.14 1475.95 1546.53 Z" fill="#000000" fill-rule="evenodd" fill-opacity="1" /><path clip-path="url(#clip190)" d="M1524.55 1550.12 Q1517.45 1550.12 1514.72 1551.75 Q1511.98 1553.37 1511.98 1557.29 Q1511.98 1560.4 1514.02 1562.25 Q1516.09 1564.07 1519.62 1564.07 Q1524.49 1564.07 1527.42 1560.63 Q1530.38 1557.16 1530.38 1551.43 L1530.38 1550.12 L1524.55 1550.12 M1536.23 1547.71 L1536.23 1568.04 L1530.38 1568.04 L1530.38 1562.63 Q1528.37 1565.88 1525.38 1567.44 Q1522.39 1568.97 1518.06 1568.97 Q1512.59 1568.97 1509.34 1565.91 Q1506.12 1562.82 1506.12 1557.67 Q1506.12 1551.65 1510.13 1548.6 Q1514.18 1545.54 1522.17 1545.54 L1530.38 1545.54 L1530.38 1544.97 Q1530.38 1540.93 1527.7 1538.73 Q1525.06 1536.5 1520.26 1536.5 Q1517.2 1536.5 1514.3 1537.23 Q1511.41 1537.97 1508.73 1539.43 L1508.73 1534.02 Q1511.95 1532.78 1514.97 1532.17 Q1518 1531.54 1520.86 1531.54 Q1528.59 1531.54 1532.41 1535.55 Q1536.23 1539.56 1536.23 1547.71 Z" fill="#000000" fill-rule="evenodd" fill-opacity="1" /><path clip-path="url(#clip190)" d="M1592.47 1537.81 L1592.47 1518.52 L1598.33 1518.52 L1598.33 1568.04 L1592.47 1568.04 L1592.47 1562.7 Q1590.63 1565.88 1587.8 1567.44 Q1585 1568.97 1581.05 1568.97 Q1574.59 1568.97 1570.51 1563.81 Q1566.47 1558.65 1566.47 1550.25 Q1566.47 1541.85 1570.51 1536.69 Q1574.59 1531.54 1581.05 1531.54 Q1585 1531.54 1587.8 1533.1 Q1590.63 1534.62 1592.47 1537.81 M1572.52 1550.25 Q1572.52 1556.71 1575.16 1560.4 Q1577.83 1564.07 1582.48 1564.07 Q1587.13 1564.07 1589.8 1560.4 Q1592.47 1556.71 1592.47 1550.25 Q1592.47 1543.79 1589.8 1540.13 Q1587.13 1536.44 1582.48 1536.44 Q1577.83 1536.44 1575.16 1540.13 Q1572.52 1543.79 1572.52 1550.25 Z" fill="#000000" fill-rule="evenodd" fill-opacity="1" /><path clip-path="url(#clip190)" d="M1626.59 1550.12 Q1619.5 1550.12 1616.76 1551.75 Q1614.02 1553.37 1614.02 1557.29 Q1614.02 1560.4 1616.06 1562.25 Q1618.13 1564.07 1621.66 1564.07 Q1626.53 1564.07 1629.46 1560.63 Q1632.42 1557.16 1632.42 1551.43 L1632.42 1550.12 L1626.59 1550.12 M1638.28 1547.71 L1638.28 1568.04 L1632.42 1568.04 L1632.42 1562.63 Q1630.41 1565.88 1627.42 1567.44 Q1624.43 1568.97 1620.1 1568.97 Q1614.63 1568.97 1611.38 1565.91 Q1608.17 1562.82 1608.17 1557.67 Q1608.17 1551.65 1612.18 1548.6 Q1616.22 1545.54 1624.21 1545.54 L1632.42 1545.54 L1632.42 1544.97 Q1632.42 1540.93 1629.75 1538.73 Q1627.1 1536.5 1622.3 1536.5 Q1619.24 1536.5 1616.35 1537.23 Q1613.45 1537.97 1610.78 1539.43 L1610.78 1534.02 Q1613.99 1532.78 1617.01 1532.17 Q1620.04 1531.54 1622.9 1531.54 Q1630.64 1531.54 1634.46 1535.55 Q1638.28 1539.56 1638.28 1547.71 Z" fill="#000000" fill-rule="evenodd" fill-opacity="1" /><path clip-path="url(#clip190)" d="M1665.17 1571.35 Q1662.69 1577.72 1660.33 1579.66 Q1657.98 1581.6 1654.03 1581.6 L1649.35 1581.6 L1649.35 1576.7 L1652.79 1576.7 Q1655.21 1576.7 1656.55 1575.56 Q1657.88 1574.41 1659.51 1570.14 L1660.56 1567.47 L1646.14 1532.4 L1652.34 1532.4 L1663.48 1560.28 L1674.62 1532.4 L1680.83 1532.4 L1665.17 1571.35 Z" fill="#000000" fill-rule="evenodd" fill-opacity="1" /><polyline clip-path="url(#clip192)" style="stroke:#000000; stroke-linecap:round; stroke-linejoin:round; stroke-width:2; stroke-opacity:0.1; fill:none" points="
  304.699,1384.24 2352.76,1384.24 
  "/>
<polyline clip-path="url(#clip192)" style="stroke:#000000; stroke-linecap:round; stroke-linejoin:round; stroke-width:2; stroke-opacity:0.1; fill:none" points="
  304.699,978.698 2352.76,978.698 
  "/>
<polyline clip-path="url(#clip192)" style="stroke:#000000; stroke-linecap:round; stroke-linejoin:round; stroke-width:2; stroke-opacity:0.1; fill:none" points="
  304.699,573.158 2352.76,573.158 
  "/>
<polyline clip-path="url(#clip192)" style="stroke:#000000; stroke-linecap:round; stroke-linejoin:round; stroke-width:2; stroke-opacity:0.1; fill:none" points="
  304.699,167.618 2352.76,167.618 
  "/>
<polyline clip-path="url(#clip190)" style="stroke:#000000; stroke-linecap:round; stroke-linejoin:round; stroke-width:4; stroke-opacity:1; fill:none" points="
  304.699,1423.18 304.699,47.2441 
  "/>
<polyline clip-path="url(#clip190)" style="stroke:#000000; stroke-linecap:round; stroke-linejoin:round; stroke-width:4; stroke-opacity:1; fill:none" points="
  304.699,1384.24 323.597,1384.24 
  "/>
<polyline clip-path="url(#clip190)" style="stroke:#000000; stroke-linecap:round; stroke-linejoin:round; stroke-width:4; stroke-opacity:1; fill:none" points="
  304.699,978.698 323.597,978.698 
  "/>
<polyline clip-path="url(#clip190)" style="stroke:#000000; stroke-linecap:round; stroke-linejoin:round; stroke-width:4; stroke-opacity:1; fill:none" points="
  304.699,573.158 323.597,573.158 
  "/>
<polyline clip-path="url(#clip190)" style="stroke:#000000; stroke-linecap:round; stroke-linejoin:round; stroke-width:4; stroke-opacity:1; fill:none" points="
  304.699,167.618 323.597,167.618 
  "/>
<path clip-path="url(#clip190)" d="M256.755 1370.04 Q253.144 1370.04 251.315 1373.6 Q249.51 1377.14 249.51 1384.27 Q249.51 1391.38 251.315 1394.94 Q253.144 1398.49 256.755 1398.49 Q260.389 1398.49 262.195 1394.94 Q264.023 1391.38 264.023 1384.27 Q264.023 1377.14 262.195 1373.6 Q260.389 1370.04 256.755 1370.04 M256.755 1366.33 Q262.565 1366.33 265.621 1370.94 Q268.699 1375.52 268.699 1384.27 Q268.699 1393 265.621 1397.61 Q262.565 1402.19 256.755 1402.19 Q250.945 1402.19 247.866 1397.61 Q244.811 1393 244.811 1384.27 Q244.811 1375.52 247.866 1370.94 Q250.945 1366.33 256.755 1366.33 Z" fill="#000000" fill-rule="evenodd" fill-opacity="1" /><path clip-path="url(#clip190)" d="M52.8743 967.866 L71.2307 967.866 L71.2307 971.801 L57.1567 971.801 L57.1567 980.273 Q58.1752 979.926 59.1938 979.764 Q60.2123 979.579 61.2308 979.579 Q67.0178 979.579 70.3974 982.75 Q73.777 985.921 73.777 991.338 Q73.777 996.917 70.3048 1000.02 Q66.8326 1003.1 60.5132 1003.1 Q58.3373 1003.1 56.0688 1002.73 Q53.8234 1002.36 51.416 1001.62 L51.416 996.917 Q53.4993 998.051 55.7216 998.606 Q57.9438 999.162 60.4206 999.162 Q64.4252 999.162 66.7632 997.055 Q69.1011 994.949 69.1011 991.338 Q69.1011 987.727 66.7632 985.62 Q64.4252 983.514 60.4206 983.514 Q58.5456 983.514 56.6706 983.931 Q54.8188 984.347 52.8743 985.227 L52.8743 967.866 Z" fill="#000000" fill-rule="evenodd" fill-opacity="1" /><path clip-path="url(#clip190)" d="M82.9899 996.546 L87.8742 996.546 L87.8742 1002.43 L82.9899 1002.43 L82.9899 996.546 Z" fill="#000000" fill-rule="evenodd" fill-opacity="1" /><path clip-path="url(#clip190)" d="M108.059 970.945 Q104.448 970.945 102.619 974.509 Q100.814 978.051 100.814 985.181 Q100.814 992.287 102.619 995.852 Q104.448 999.393 108.059 999.393 Q111.693 999.393 113.499 995.852 Q115.328 992.287 115.328 985.181 Q115.328 978.051 113.499 974.509 Q111.693 970.945 108.059 970.945 M108.059 967.241 Q113.869 967.241 116.925 971.847 Q120.004 976.431 120.004 985.181 Q120.004 993.907 116.925 998.514 Q113.869 1003.1 108.059 1003.1 Q102.249 1003.1 99.1704 998.514 Q96.1149 993.907 96.1149 985.181 Q96.1149 976.431 99.1704 971.847 Q102.249 967.241 108.059 967.241 Z" fill="#000000" fill-rule="evenodd" fill-opacity="1" /><path clip-path="url(#clip190)" d="M138.221 970.945 Q134.61 970.945 132.781 974.509 Q130.976 978.051 130.976 985.181 Q130.976 992.287 132.781 995.852 Q134.61 999.393 138.221 999.393 Q141.855 999.393 143.661 995.852 Q145.49 992.287 145.49 985.181 Q145.49 978.051 143.661 974.509 Q141.855 970.945 138.221 970.945 M138.221 967.241 Q144.031 967.241 147.087 971.847 Q150.165 976.431 150.165 985.181 Q150.165 993.907 147.087 998.514 Q144.031 1003.1 138.221 1003.1 Q132.411 1003.1 129.332 998.514 Q126.277 993.907 126.277 985.181 Q126.277 976.431 129.332 971.847 Q132.411 967.241 138.221 967.241 Z" fill="#000000" fill-rule="evenodd" fill-opacity="1" /><path clip-path="url(#clip190)" d="M186.554 976.963 L175.976 987.588 L186.554 998.167 L183.8 1000.97 L173.175 990.343 L162.55 1000.97 L159.818 998.167 L170.374 987.588 L159.818 976.963 L162.55 974.162 L173.175 984.787 L183.8 974.162 L186.554 976.963 Z" fill="#000000" fill-rule="evenodd" fill-opacity="1" /><path clip-path="url(#clip190)" d="M198.915 998.491 L206.554 998.491 L206.554 972.125 L198.244 973.792 L198.244 969.532 L206.508 967.866 L211.184 967.866 L211.184 998.491 L218.823 998.491 L218.823 1002.43 L198.915 1002.43 L198.915 998.491 Z" fill="#000000" fill-rule="evenodd" fill-opacity="1" /><path clip-path="url(#clip190)" d="M238.267 970.945 Q234.656 970.945 232.827 974.509 Q231.022 978.051 231.022 985.181 Q231.022 992.287 232.827 995.852 Q234.656 999.393 238.267 999.393 Q241.901 999.393 243.707 995.852 Q245.535 992.287 245.535 985.181 Q245.535 978.051 243.707 974.509 Q241.901 970.945 238.267 970.945 M238.267 967.241 Q244.077 967.241 247.133 971.847 Q250.211 976.431 250.211 985.181 Q250.211 993.907 247.133 998.514 Q244.077 1003.1 238.267 1003.1 Q232.457 1003.1 229.378 998.514 Q226.322 993.907 226.322 985.181 Q226.322 976.431 229.378 971.847 Q232.457 967.241 238.267 967.241 Z" fill="#000000" fill-rule="evenodd" fill-opacity="1" /><path clip-path="url(#clip190)" d="M262.906 959.875 Q265.634 960.458 267.157 962.301 Q268.699 964.145 268.699 966.853 Q268.699 971.009 265.841 973.285 Q262.982 975.561 257.716 975.561 Q255.948 975.561 254.067 975.203 Q252.205 974.865 250.211 974.169 L250.211 970.502 Q251.791 971.423 253.672 971.893 Q255.553 972.364 257.603 972.364 Q261.176 972.364 263.038 970.953 Q264.919 969.542 264.919 966.853 Q264.919 964.37 263.17 962.978 Q261.439 961.568 258.336 961.568 L255.064 961.568 L255.064 958.446 L258.487 958.446 Q261.289 958.446 262.775 957.336 Q264.261 956.208 264.261 954.101 Q264.261 951.938 262.718 950.791 Q261.195 949.625 258.336 949.625 Q256.775 949.625 254.988 949.963 Q253.202 950.302 251.058 951.017 L251.058 947.631 Q253.22 947.029 255.101 946.729 Q257.001 946.428 258.675 946.428 Q263.001 946.428 265.521 948.402 Q268.041 950.358 268.041 953.706 Q268.041 956.038 266.706 957.656 Q265.37 959.255 262.906 959.875 Z" fill="#000000" fill-rule="evenodd" fill-opacity="1" /><path clip-path="url(#clip190)" d="M51.6634 592.951 L59.3023 592.951 L59.3023 566.585 L50.9921 568.252 L50.9921 563.992 L59.256 562.326 L63.9319 562.326 L63.9319 592.951 L71.5707 592.951 L71.5707 596.886 L51.6634 596.886 L51.6634 592.951 Z" fill="#000000" fill-rule="evenodd" fill-opacity="1" /><path clip-path="url(#clip190)" d="M81.0151 591.006 L85.8993 591.006 L85.8993 596.886 L81.0151 596.886 L81.0151 591.006 Z" fill="#000000" fill-rule="evenodd" fill-opacity="1" /><path clip-path="url(#clip190)" d="M106.084 565.404 Q102.473 565.404 100.645 568.969 Q98.8391 572.511 98.8391 579.64 Q98.8391 586.747 100.645 590.312 Q102.473 593.853 106.084 593.853 Q109.719 593.853 111.524 590.312 Q113.353 586.747 113.353 579.64 Q113.353 572.511 111.524 568.969 Q109.719 565.404 106.084 565.404 M106.084 561.701 Q111.895 561.701 114.95 566.307 Q118.029 570.891 118.029 579.64 Q118.029 588.367 114.95 592.974 Q111.895 597.557 106.084 597.557 Q100.274 597.557 97.1956 592.974 Q94.14 588.367 94.14 579.64 Q94.14 570.891 97.1956 566.307 Q100.274 561.701 106.084 561.701 Z" fill="#000000" fill-rule="evenodd" fill-opacity="1" /><path clip-path="url(#clip190)" d="M136.246 565.404 Q132.635 565.404 130.807 568.969 Q129.001 572.511 129.001 579.64 Q129.001 586.747 130.807 590.312 Q132.635 593.853 136.246 593.853 Q139.881 593.853 141.686 590.312 Q143.515 586.747 143.515 579.64 Q143.515 572.511 141.686 568.969 Q139.881 565.404 136.246 565.404 M136.246 561.701 Q142.056 561.701 145.112 566.307 Q148.191 570.891 148.191 579.64 Q148.191 588.367 145.112 592.974 Q142.056 597.557 136.246 597.557 Q130.436 597.557 127.357 592.974 Q124.302 588.367 124.302 579.64 Q124.302 570.891 127.357 566.307 Q130.436 561.701 136.246 561.701 Z" fill="#000000" fill-rule="evenodd" fill-opacity="1" /><path clip-path="url(#clip190)" d="M184.579 571.423 L174.001 582.048 L184.579 592.627 L181.825 595.427 L171.2 584.802 L160.575 595.427 L157.843 592.627 L168.399 582.048 L157.843 571.423 L160.575 568.622 L171.2 579.247 L181.825 568.622 L184.579 571.423 Z" fill="#000000" fill-rule="evenodd" fill-opacity="1" /><path clip-path="url(#clip190)" d="M196.94 592.951 L204.579 592.951 L204.579 566.585 L196.269 568.252 L196.269 563.992 L204.533 562.326 L209.209 562.326 L209.209 592.951 L216.848 592.951 L216.848 596.886 L196.94 596.886 L196.94 592.951 Z" fill="#000000" fill-rule="evenodd" fill-opacity="1" /><path clip-path="url(#clip190)" d="M236.292 565.404 Q232.681 565.404 230.852 568.969 Q229.047 572.511 229.047 579.64 Q229.047 586.747 230.852 590.312 Q232.681 593.853 236.292 593.853 Q239.926 593.853 241.732 590.312 Q243.561 586.747 243.561 579.64 Q243.561 572.511 241.732 568.969 Q239.926 565.404 236.292 565.404 M236.292 561.701 Q242.102 561.701 245.158 566.307 Q248.236 570.891 248.236 579.64 Q248.236 588.367 245.158 592.974 Q242.102 597.557 236.292 597.557 Q230.482 597.557 227.403 592.974 Q224.348 588.367 224.348 579.64 Q224.348 570.891 227.403 566.307 Q230.482 561.701 236.292 561.701 Z" fill="#000000" fill-rule="evenodd" fill-opacity="1" /><path clip-path="url(#clip190)" d="M260.913 544.706 L251.321 559.695 L260.913 559.695 L260.913 544.706 M259.916 541.395 L264.693 541.395 L264.693 559.695 L268.699 559.695 L268.699 562.855 L264.693 562.855 L264.693 569.475 L260.913 569.475 L260.913 562.855 L248.236 562.855 L248.236 559.188 L259.916 541.395 Z" fill="#000000" fill-rule="evenodd" fill-opacity="1" /><path clip-path="url(#clip190)" d="M51.6634 187.411 L59.3023 187.411 L59.3023 161.045 L50.9921 162.712 L50.9921 158.452 L59.256 156.786 L63.9319 156.786 L63.9319 187.411 L71.5707 187.411 L71.5707 191.346 L51.6634 191.346 L51.6634 187.411 Z" fill="#000000" fill-rule="evenodd" fill-opacity="1" /><path clip-path="url(#clip190)" d="M81.0151 185.466 L85.8993 185.466 L85.8993 191.346 L81.0151 191.346 L81.0151 185.466 Z" fill="#000000" fill-rule="evenodd" fill-opacity="1" /><path clip-path="url(#clip190)" d="M96.1308 156.786 L114.487 156.786 L114.487 160.721 L100.413 160.721 L100.413 169.193 Q101.432 168.846 102.45 168.684 Q103.469 168.499 104.487 168.499 Q110.274 168.499 113.654 171.67 Q117.033 174.841 117.033 180.258 Q117.033 185.836 113.561 188.938 Q110.089 192.017 103.77 192.017 Q101.594 192.017 99.3252 191.647 Q97.0798 191.276 94.6724 190.536 L94.6724 185.836 Q96.7558 186.971 98.978 187.526 Q101.2 188.082 103.677 188.082 Q107.682 188.082 110.02 185.975 Q112.358 183.869 112.358 180.258 Q112.358 176.647 110.02 174.54 Q107.682 172.434 103.677 172.434 Q101.802 172.434 99.927 172.85 Q98.0752 173.267 96.1308 174.147 L96.1308 156.786 Z" fill="#000000" fill-rule="evenodd" fill-opacity="1" /><path clip-path="url(#clip190)" d="M136.246 159.864 Q132.635 159.864 130.807 163.429 Q129.001 166.971 129.001 174.1 Q129.001 181.207 130.807 184.772 Q132.635 188.313 136.246 188.313 Q139.881 188.313 141.686 184.772 Q143.515 181.207 143.515 174.1 Q143.515 166.971 141.686 163.429 Q139.881 159.864 136.246 159.864 M136.246 156.161 Q142.056 156.161 145.112 160.767 Q148.191 165.35 148.191 174.1 Q148.191 182.827 145.112 187.434 Q142.056 192.017 136.246 192.017 Q130.436 192.017 127.357 187.434 Q124.302 182.827 124.302 174.1 Q124.302 165.35 127.357 160.767 Q130.436 156.161 136.246 156.161 Z" fill="#000000" fill-rule="evenodd" fill-opacity="1" /><path clip-path="url(#clip190)" d="M184.579 165.883 L174.001 176.508 L184.579 187.086 L181.825 189.887 L171.2 179.262 L160.575 189.887 L157.843 187.086 L168.399 176.508 L157.843 165.883 L160.575 163.082 L171.2 173.707 L181.825 163.082 L184.579 165.883 Z" fill="#000000" fill-rule="evenodd" fill-opacity="1" /><path clip-path="url(#clip190)" d="M196.94 187.411 L204.579 187.411 L204.579 161.045 L196.269 162.712 L196.269 158.452 L204.533 156.786 L209.209 156.786 L209.209 187.411 L216.848 187.411 L216.848 191.346 L196.94 191.346 L196.94 187.411 Z" fill="#000000" fill-rule="evenodd" fill-opacity="1" /><path clip-path="url(#clip190)" d="M236.292 159.864 Q232.681 159.864 230.852 163.429 Q229.047 166.971 229.047 174.1 Q229.047 181.207 230.852 184.772 Q232.681 188.313 236.292 188.313 Q239.926 188.313 241.732 184.772 Q243.561 181.207 243.561 174.1 Q243.561 166.971 241.732 163.429 Q239.926 159.864 236.292 159.864 M236.292 156.161 Q242.102 156.161 245.158 160.767 Q248.236 165.35 248.236 174.1 Q248.236 182.827 245.158 187.434 Q242.102 192.017 236.292 192.017 Q230.482 192.017 227.403 187.434 Q224.348 182.827 224.348 174.1 Q224.348 165.35 227.403 160.767 Q230.482 156.161 236.292 156.161 Z" fill="#000000" fill-rule="evenodd" fill-opacity="1" /><path clip-path="url(#clip190)" d="M260.913 139.165 L251.321 154.155 L260.913 154.155 L260.913 139.165 M259.916 135.855 L264.693 135.855 L264.693 154.155 L268.699 154.155 L268.699 157.315 L264.693 157.315 L264.693 163.935 L260.913 163.935 L260.913 157.315 L248.236 157.315 L248.236 153.647 L259.916 135.855 Z" fill="#000000" fill-rule="evenodd" fill-opacity="1" /><path clip-path="url(#clip192)" d="
M417.346 1320.24 L417.346 1384.24 L478.615 1384.24 L478.615 1320.24 L417.346 1320.24 L417.346 1320.24  Z
  " fill="#009af9" fill-rule="evenodd" fill-opacity="1"/>
<polyline clip-path="url(#clip192)" style="stroke:#000000; stroke-linecap:round; stroke-linejoin:round; stroke-width:4; stroke-opacity:1; fill:none" points="
  417.346,1320.24 417.346,1384.24 478.615,1384.24 478.615,1320.24 417.346,1320.24 
  "/>
<path clip-path="url(#clip192)" d="
M493.933 1340.85 L493.933 1384.24 L555.202 1384.24 L555.202 1340.85 L493.933 1340.85 L493.933 1340.85  Z
  " fill="#009af9" fill-rule="evenodd" fill-opacity="1"/>
<polyline clip-path="url(#clip192)" style="stroke:#000000; stroke-linecap:round; stroke-linejoin:round; stroke-width:4; stroke-opacity:1; fill:none" points="
  493.933,1340.85 493.933,1384.24 555.202,1384.24 555.202,1340.85 493.933,1340.85 
  "/>
<path clip-path="url(#clip192)" d="
M570.519 1361.53 L570.519 1384.24 L631.789 1384.24 L631.789 1361.53 L570.519 1361.53 L570.519 1361.53  Z
  " fill="#009af9" fill-rule="evenodd" fill-opacity="1"/>
<polyline clip-path="url(#clip192)" style="stroke:#000000; stroke-linecap:round; stroke-linejoin:round; stroke-width:4; stroke-opacity:1; fill:none" points="
  570.519,1361.53 570.519,1384.24 631.789,1384.24 631.789,1361.53 570.519,1361.53 
  "/>
<path clip-path="url(#clip192)" d="
M647.106 1367.94 L647.106 1384.24 L708.375 1384.24 L708.375 1367.94 L647.106 1367.94 L647.106 1367.94  Z
  " fill="#009af9" fill-rule="evenodd" fill-opacity="1"/>
<polyline clip-path="url(#clip192)" style="stroke:#000000; stroke-linecap:round; stroke-linejoin:round; stroke-width:4; stroke-opacity:1; fill:none" points="
  647.106,1367.94 647.106,1384.24 708.375,1384.24 708.375,1367.94 647.106,1367.94 
  "/>
<path clip-path="url(#clip192)" d="
M723.693 1374.83 L723.693 1384.24 L784.962 1384.24 L784.962 1374.83 L723.693 1374.83 L723.693 1374.83  Z
  " fill="#009af9" fill-rule="evenodd" fill-opacity="1"/>
<polyline clip-path="url(#clip192)" style="stroke:#000000; stroke-linecap:round; stroke-linejoin:round; stroke-width:4; stroke-opacity:1; fill:none" points="
  723.693,1374.83 723.693,1384.24 784.962,1384.24 784.962,1374.83 723.693,1374.83 
  "/>
<path clip-path="url(#clip192)" d="
M800.279 1377.34 L800.279 1384.24 L861.549 1384.24 L861.549 1377.34 L800.279 1377.34 L800.279 1377.34  Z
  " fill="#009af9" fill-rule="evenodd" fill-opacity="1"/>
<polyline clip-path="url(#clip192)" style="stroke:#000000; stroke-linecap:round; stroke-linejoin:round; stroke-width:4; stroke-opacity:1; fill:none" points="
  800.279,1377.34 800.279,1384.24 861.549,1384.24 861.549,1377.34 800.279,1377.34 
  "/>
<path clip-path="url(#clip192)" d="
M876.866 1362.66 L876.866 1384.24 L938.136 1384.24 L938.136 1362.66 L876.866 1362.66 L876.866 1362.66  Z
  " fill="#009af9" fill-rule="evenodd" fill-opacity="1"/>
<polyline clip-path="url(#clip192)" style="stroke:#000000; stroke-linecap:round; stroke-linejoin:round; stroke-width:4; stroke-opacity:1; fill:none" points="
  876.866,1362.66 876.866,1384.24 938.136,1384.24 938.136,1362.66 876.866,1362.66 
  "/>
<path clip-path="url(#clip192)" d="
M953.453 1293.97 L953.453 1384.24 L1014.72 1384.24 L1014.72 1293.97 L953.453 1293.97 L953.453 1293.97  Z
  " fill="#009af9" fill-rule="evenodd" fill-opacity="1"/>
<polyline clip-path="url(#clip192)" style="stroke:#000000; stroke-linecap:round; stroke-linejoin:round; stroke-width:4; stroke-opacity:1; fill:none" points="
  953.453,1293.97 953.453,1384.24 1014.72,1384.24 1014.72,1293.97 953.453,1293.97 
  "/>
<path clip-path="url(#clip192)" d="
M1030.04 1207.18 L1030.04 1384.24 L1091.31 1384.24 L1091.31 1207.18 L1030.04 1207.18 L1030.04 1207.18  Z
  " fill="#009af9" fill-rule="evenodd" fill-opacity="1"/>
<polyline clip-path="url(#clip192)" style="stroke:#000000; stroke-linecap:round; stroke-linejoin:round; stroke-width:4; stroke-opacity:1; fill:none" points="
  1030.04,1207.18 1030.04,1384.24 1091.31,1384.24 1091.31,1207.18 1030.04,1207.18 
  "/>
<path clip-path="url(#clip192)" d="
M1106.63 1159.97 L1106.63 1384.24 L1167.9 1384.24 L1167.9 1159.97 L1106.63 1159.97 L1106.63 1159.97  Z
  " fill="#009af9" fill-rule="evenodd" fill-opacity="1"/>
<polyline clip-path="url(#clip192)" style="stroke:#000000; stroke-linecap:round; stroke-linejoin:round; stroke-width:4; stroke-opacity:1; fill:none" points="
  1106.63,1159.97 1106.63,1384.24 1167.9,1384.24 1167.9,1159.97 1106.63,1159.97 
  "/>
<path clip-path="url(#clip192)" d="
M1183.21 1067.51 L1183.21 1384.24 L1244.48 1384.24 L1244.48 1067.51 L1183.21 1067.51 L1183.21 1067.51  Z
  " fill="#009af9" fill-rule="evenodd" fill-opacity="1"/>
<polyline clip-path="url(#clip192)" style="stroke:#000000; stroke-linecap:round; stroke-linejoin:round; stroke-width:4; stroke-opacity:1; fill:none" points="
  1183.21,1067.51 1183.21,1384.24 1244.48,1384.24 1244.48,1067.51 1183.21,1067.51 
  "/>
<path clip-path="url(#clip192)" d="
M1259.8 835.705 L1259.8 1384.24 L1321.07 1384.24 L1321.07 835.705 L1259.8 835.705 L1259.8 835.705  Z
  " fill="#009af9" fill-rule="evenodd" fill-opacity="1"/>
<polyline clip-path="url(#clip192)" style="stroke:#000000; stroke-linecap:round; stroke-linejoin:round; stroke-width:4; stroke-opacity:1; fill:none" points="
  1259.8,835.705 1259.8,1384.24 1321.07,1384.24 1321.07,835.705 1259.8,835.705 
  "/>
<path clip-path="url(#clip192)" d="
M1336.39 604.385 L1336.39 1384.24 L1397.66 1384.24 L1397.66 604.385 L1336.39 604.385 L1336.39 604.385  Z
  " fill="#009af9" fill-rule="evenodd" fill-opacity="1"/>
<polyline clip-path="url(#clip192)" style="stroke:#000000; stroke-linecap:round; stroke-linejoin:round; stroke-width:4; stroke-opacity:1; fill:none" points="
  1336.39,604.385 1336.39,1384.24 1397.66,1384.24 1397.66,604.385 1336.39,604.385 
  "/>
<path clip-path="url(#clip192)" d="
M1412.97 586.703 L1412.97 1384.24 L1474.24 1384.24 L1474.24 586.703 L1412.97 586.703 L1412.97 586.703  Z
  " fill="#009af9" fill-rule="evenodd" fill-opacity="1"/>
<polyline clip-path="url(#clip192)" style="stroke:#000000; stroke-linecap:round; stroke-linejoin:round; stroke-width:4; stroke-opacity:1; fill:none" points="
  1412.97,586.703 1412.97,1384.24 1474.24,1384.24 1474.24,586.703 1412.97,586.703 
  "/>
<path clip-path="url(#clip192)" d="
M1489.56 548.501 L1489.56 1384.24 L1550.83 1384.24 L1550.83 548.501 L1489.56 548.501 L1489.56 548.501  Z
  " fill="#009af9" fill-rule="evenodd" fill-opacity="1"/>
<polyline clip-path="url(#clip192)" style="stroke:#000000; stroke-linecap:round; stroke-linejoin:round; stroke-width:4; stroke-opacity:1; fill:none" points="
  1489.56,548.501 1489.56,1384.24 1550.83,1384.24 1550.83,548.501 1489.56,548.501 
  "/>
<path clip-path="url(#clip192)" d="
M1566.15 400.479 L1566.15 1384.24 L1627.42 1384.24 L1627.42 400.479 L1566.15 400.479 L1566.15 400.479  Z
  " fill="#009af9" fill-rule="evenodd" fill-opacity="1"/>
<polyline clip-path="url(#clip192)" style="stroke:#000000; stroke-linecap:round; stroke-linejoin:round; stroke-width:4; stroke-opacity:1; fill:none" points="
  1566.15,400.479 1566.15,1384.24 1627.42,1384.24 1627.42,400.479 1566.15,400.479 
  "/>
<path clip-path="url(#clip192)" d="
M1642.73 151.234 L1642.73 1384.24 L1704 1384.24 L1704 151.234 L1642.73 151.234 L1642.73 151.234  Z
  " fill="#009af9" fill-rule="evenodd" fill-opacity="1"/>
<polyline clip-path="url(#clip192)" style="stroke:#000000; stroke-linecap:round; stroke-linejoin:round; stroke-width:4; stroke-opacity:1; fill:none" points="
  1642.73,151.234 1642.73,1384.24 1704,1384.24 1704,151.234 1642.73,151.234 
  "/>
<path clip-path="url(#clip192)" d="
M1719.32 86.1857 L1719.32 1384.24 L1780.59 1384.24 L1780.59 86.1857 L1719.32 86.1857 L1719.32 86.1857  Z
  " fill="#009af9" fill-rule="evenodd" fill-opacity="1"/>
<polyline clip-path="url(#clip192)" style="stroke:#000000; stroke-linecap:round; stroke-linejoin:round; stroke-width:4; stroke-opacity:1; fill:none" points="
  1719.32,86.1857 1719.32,1384.24 1780.59,1384.24 1780.59,86.1857 1719.32,86.1857 
  "/>
<path clip-path="url(#clip192)" d="
M1795.91 422.946 L1795.91 1384.24 L1857.18 1384.24 L1857.18 422.946 L1795.91 422.946 L1795.91 422.946  Z
  " fill="#009af9" fill-rule="evenodd" fill-opacity="1"/>
<polyline clip-path="url(#clip192)" style="stroke:#000000; stroke-linecap:round; stroke-linejoin:round; stroke-width:4; stroke-opacity:1; fill:none" points="
  1795.91,422.946 1795.91,1384.24 1857.18,1384.24 1857.18,422.946 1795.91,422.946 
  "/>
<path clip-path="url(#clip192)" d="
M1872.49 837.732 L1872.49 1384.24 L1933.76 1384.24 L1933.76 837.732 L1872.49 837.732 L1872.49 837.732  Z
  " fill="#009af9" fill-rule="evenodd" fill-opacity="1"/>
<polyline clip-path="url(#clip192)" style="stroke:#000000; stroke-linecap:round; stroke-linejoin:round; stroke-width:4; stroke-opacity:1; fill:none" points="
  1872.49,837.732 1872.49,1384.24 1933.76,1384.24 1933.76,837.732 1872.49,837.732 
  "/>
<path clip-path="url(#clip192)" d="
M1949.08 1049.99 L1949.08 1384.24 L2010.35 1384.24 L2010.35 1049.99 L1949.08 1049.99 L1949.08 1049.99  Z
  " fill="#009af9" fill-rule="evenodd" fill-opacity="1"/>
<polyline clip-path="url(#clip192)" style="stroke:#000000; stroke-linecap:round; stroke-linejoin:round; stroke-width:4; stroke-opacity:1; fill:none" points="
  1949.08,1049.99 1949.08,1384.24 2010.35,1384.24 2010.35,1049.99 1949.08,1049.99 
  "/>
<path clip-path="url(#clip192)" d="
M2025.67 1164.27 L2025.67 1384.24 L2086.94 1384.24 L2086.94 1164.27 L2025.67 1164.27 L2025.67 1164.27  Z
  " fill="#009af9" fill-rule="evenodd" fill-opacity="1"/>
<polyline clip-path="url(#clip192)" style="stroke:#000000; stroke-linecap:round; stroke-linejoin:round; stroke-width:4; stroke-opacity:1; fill:none" points="
  2025.67,1164.27 2025.67,1384.24 2086.94,1384.24 2086.94,1164.27 2025.67,1164.27 
  "/>
<path clip-path="url(#clip192)" d="
M2102.25 1235.49 L2102.25 1384.24 L2163.52 1384.24 L2163.52 1235.49 L2102.25 1235.49 L2102.25 1235.49  Z
  " fill="#009af9" fill-rule="evenodd" fill-opacity="1"/>
<polyline clip-path="url(#clip192)" style="stroke:#000000; stroke-linecap:round; stroke-linejoin:round; stroke-width:4; stroke-opacity:1; fill:none" points="
  2102.25,1235.49 2102.25,1384.24 2163.52,1384.24 2163.52,1235.49 2102.25,1235.49 
  "/>
<path clip-path="url(#clip192)" d="
M2178.84 1277.01 L2178.84 1384.24 L2240.11 1384.24 L2240.11 1277.01 L2178.84 1277.01 L2178.84 1277.01  Z
  " fill="#009af9" fill-rule="evenodd" fill-opacity="1"/>
<polyline clip-path="url(#clip192)" style="stroke:#000000; stroke-linecap:round; stroke-linejoin:round; stroke-width:4; stroke-opacity:1; fill:none" points="
  2178.84,1277.01 2178.84,1384.24 2240.11,1384.24 2240.11,1277.01 2178.84,1277.01 
  "/>
<circle clip-path="url(#clip192)" style="fill:#009af9; stroke:none; fill-opacity:0" cx="447.981" cy="1320.24" r="2"/>
<circle clip-path="url(#clip192)" style="fill:#009af9; stroke:none; fill-opacity:0" cx="524.567" cy="1340.85" r="2"/>
<circle clip-path="url(#clip192)" style="fill:#009af9; stroke:none; fill-opacity:0" cx="601.154" cy="1361.53" r="2"/>
<circle clip-path="url(#clip192)" style="fill:#009af9; stroke:none; fill-opacity:0" cx="677.741" cy="1367.94" r="2"/>
<circle clip-path="url(#clip192)" style="fill:#009af9; stroke:none; fill-opacity:0" cx="754.327" cy="1374.83" r="2"/>
<circle clip-path="url(#clip192)" style="fill:#009af9; stroke:none; fill-opacity:0" cx="830.914" cy="1377.34" r="2"/>
<circle clip-path="url(#clip192)" style="fill:#009af9; stroke:none; fill-opacity:0" cx="907.501" cy="1362.66" r="2"/>
<circle clip-path="url(#clip192)" style="fill:#009af9; stroke:none; fill-opacity:0" cx="984.088" cy="1293.97" r="2"/>
<circle clip-path="url(#clip192)" style="fill:#009af9; stroke:none; fill-opacity:0" cx="1060.67" cy="1207.18" r="2"/>
<circle clip-path="url(#clip192)" style="fill:#009af9; stroke:none; fill-opacity:0" cx="1137.26" cy="1159.97" r="2"/>
<circle clip-path="url(#clip192)" style="fill:#009af9; stroke:none; fill-opacity:0" cx="1213.85" cy="1067.51" r="2"/>
<circle clip-path="url(#clip192)" style="fill:#009af9; stroke:none; fill-opacity:0" cx="1290.43" cy="835.705" r="2"/>
<circle clip-path="url(#clip192)" style="fill:#009af9; stroke:none; fill-opacity:0" cx="1367.02" cy="604.385" r="2"/>
<circle clip-path="url(#clip192)" style="fill:#009af9; stroke:none; fill-opacity:0" cx="1443.61" cy="586.703" r="2"/>
<circle clip-path="url(#clip192)" style="fill:#009af9; stroke:none; fill-opacity:0" cx="1520.19" cy="548.501" r="2"/>
<circle clip-path="url(#clip192)" style="fill:#009af9; stroke:none; fill-opacity:0" cx="1596.78" cy="400.479" r="2"/>
<circle clip-path="url(#clip192)" style="fill:#009af9; stroke:none; fill-opacity:0" cx="1673.37" cy="151.234" r="2"/>
<circle clip-path="url(#clip192)" style="fill:#009af9; stroke:none; fill-opacity:0" cx="1749.95" cy="86.1857" r="2"/>
<circle clip-path="url(#clip192)" style="fill:#009af9; stroke:none; fill-opacity:0" cx="1826.54" cy="422.946" r="2"/>
<circle clip-path="url(#clip192)" style="fill:#009af9; stroke:none; fill-opacity:0" cx="1903.13" cy="837.732" r="2"/>
<circle clip-path="url(#clip192)" style="fill:#009af9; stroke:none; fill-opacity:0" cx="1979.71" cy="1049.99" r="2"/>
<circle clip-path="url(#clip192)" style="fill:#009af9; stroke:none; fill-opacity:0" cx="2056.3" cy="1164.27" r="2"/>
<circle clip-path="url(#clip192)" style="fill:#009af9; stroke:none; fill-opacity:0" cx="2132.89" cy="1235.49" r="2"/>
<circle clip-path="url(#clip192)" style="fill:#009af9; stroke:none; fill-opacity:0" cx="2209.47" cy="1277.01" r="2"/>
</svg>
